<?xml version="1.0" encoding="utf-8" standalone="no"?>
<!DOCTYPE svg PUBLIC "-//W3C//DTD SVG 1.1//EN"
  "http://www.w3.org/Graphics/SVG/1.1/DTD/svg11.dtd">
<svg xmlns:xlink="http://www.w3.org/1999/xlink" width="504pt" height="504pt" viewBox="0 0 504 504" xmlns="http://www.w3.org/2000/svg" version="1.1">
 <metadata>
  <rdf:RDF xmlns:dc="http://purl.org/dc/elements/1.1/" xmlns:cc="http://creativecommons.org/ns#" xmlns:rdf="http://www.w3.org/1999/02/22-rdf-syntax-ns#">
   <cc:Work>
    <dc:type rdf:resource="http://purl.org/dc/dcmitype/StillImage"/>
    <dc:date>2024-06-15T14:27:47.968700</dc:date>
    <dc:format>image/svg+xml</dc:format>
    <dc:creator>
     <cc:Agent>
      <dc:title>Matplotlib v3.8.2, https://matplotlib.org/</dc:title>
     </cc:Agent>
    </dc:creator>
   </cc:Work>
  </rdf:RDF>
 </metadata>
 <defs>
  <style type="text/css">*{stroke-linejoin: round; stroke-linecap: butt}</style>
 </defs>
 <g id="figure_1">
  <g id="patch_1">
   <path d="M 0 504 
L 504 504 
L 504 0 
L 0 0 
z
" style="fill: #ffffff"/>
  </g>
  <g id="axes_1">
   <g id="patch_2">
    <path d="M 452.34 254.52 
C 452.34 229.038901 447.320779 203.805573 437.569584 180.264107 
C 427.81839 156.722641 413.524858 135.330858 395.507 117.313 
C 377.489142 99.295142 356.097359 85.00161 332.555893 75.250416 
C 309.014427 65.499221 283.781099 60.48 258.3 60.48 
C 232.818901 60.48 207.585573 65.499221 184.044107 75.250416 
C 160.502641 85.00161 139.110858 99.295142 121.093 117.313 
C 103.075142 135.330858 88.78161 156.722641 79.030416 180.264107 
C 69.279221 203.805573 64.26 229.038901 64.26 254.52 
C 64.26 280.001099 69.279221 305.234427 79.030416 328.775893 
C 88.78161 352.317359 103.075142 373.709142 121.093 391.727 
C 139.110858 409.744858 160.502641 424.03839 184.044107 433.789584 
C 207.585573 443.540779 232.818901 448.56 258.3 448.56 
C 283.781099 448.56 309.014427 443.540779 332.555893 433.789584 
C 356.097359 424.03839 377.489142 409.744858 395.507 391.727 
C 413.524858 373.709142 427.81839 352.317359 437.569584 328.775893 
C 447.320779 305.234427 452.34 280.001099 452.34 254.52 
M 258.3 254.52 
C 258.3 254.52 258.3 254.52 258.3 254.52 
C 258.3 254.52 258.3 254.52 258.3 254.52 
C 258.3 254.52 258.3 254.52 258.3 254.52 
C 258.3 254.52 258.3 254.52 258.3 254.52 
C 258.3 254.52 258.3 254.52 258.3 254.52 
C 258.3 254.52 258.3 254.52 258.3 254.52 
C 258.3 254.52 258.3 254.52 258.3 254.52 
C 258.3 254.52 258.3 254.52 258.3 254.52 
C 258.3 254.52 258.3 254.52 258.3 254.52 
C 258.3 254.52 258.3 254.52 258.3 254.52 
C 258.3 254.52 258.3 254.52 258.3 254.52 
C 258.3 254.52 258.3 254.52 258.3 254.52 
C 258.3 254.52 258.3 254.52 258.3 254.52 
C 258.3 254.52 258.3 254.52 258.3 254.52 
C 258.3 254.52 258.3 254.52 258.3 254.52 
C 258.3 254.52 258.3 254.52 258.3 254.52 
z
" style="fill: #ffffff"/>
   </g>
   <g id="matplotlib.axis_1">
    <g id="xtick_1">
     <g id="line2d_1">
      <path d="M 258.3 254.52 
L 258.3 60.48 
" clip-path="url(#p89c9fc364a)" style="fill: none; stroke: #b0b0b0; stroke-width: 0.8; stroke-linecap: square"/>
     </g>
     <g id="text_1">
      <!-- 0° -->
      <g transform="translate(252.61875 49.239375) scale(0.1 -0.1)">
       <defs>
        <path id="DejaVuSans-30" d="M 2034 4250 
Q 1547 4250 1301 3770 
Q 1056 3291 1056 2328 
Q 1056 1369 1301 889 
Q 1547 409 2034 409 
Q 2525 409 2770 889 
Q 3016 1369 3016 2328 
Q 3016 3291 2770 3770 
Q 2525 4250 2034 4250 
z
M 2034 4750 
Q 2819 4750 3233 4129 
Q 3647 3509 3647 2328 
Q 3647 1150 3233 529 
Q 2819 -91 2034 -91 
Q 1250 -91 836 529 
Q 422 1150 422 2328 
Q 422 3509 836 4129 
Q 1250 4750 2034 4750 
z
" transform="scale(0.015625)"/>
        <path id="DejaVuSans-b0" d="M 1600 4347 
Q 1350 4347 1178 4173 
Q 1006 4000 1006 3750 
Q 1006 3503 1178 3333 
Q 1350 3163 1600 3163 
Q 1850 3163 2022 3333 
Q 2194 3503 2194 3750 
Q 2194 3997 2020 4172 
Q 1847 4347 1600 4347 
z
M 1600 4750 
Q 1800 4750 1984 4673 
Q 2169 4597 2303 4453 
Q 2447 4313 2519 4134 
Q 2591 3956 2591 3750 
Q 2591 3338 2302 3052 
Q 2013 2766 1594 2766 
Q 1172 2766 890 3047 
Q 609 3328 609 3750 
Q 609 4169 896 4459 
Q 1184 4750 1600 4750 
z
" transform="scale(0.015625)"/>
       </defs>
       <use xlink:href="#DejaVuSans-30"/>
       <use xlink:href="#DejaVuSans-b0" x="63.623047"/>
      </g>
     </g>
    </g>
    <g id="xtick_2">
     <g id="line2d_2">
      <path d="M 258.3 254.52 
L 121.093 117.313 
" clip-path="url(#p89c9fc364a)" style="fill: none; stroke: #b0b0b0; stroke-width: 0.8; stroke-linecap: square"/>
     </g>
     <g id="text_2">
      <!-- 45° -->
      <g transform="translate(102.331005 110.17288) scale(0.1 -0.1)">
       <defs>
        <path id="DejaVuSans-34" d="M 2419 4116 
L 825 1625 
L 2419 1625 
L 2419 4116 
z
M 2253 4666 
L 3047 4666 
L 3047 1625 
L 3713 1625 
L 3713 1100 
L 3047 1100 
L 3047 0 
L 2419 0 
L 2419 1100 
L 313 1100 
L 313 1709 
L 2253 4666 
z
" transform="scale(0.015625)"/>
        <path id="DejaVuSans-35" d="M 691 4666 
L 3169 4666 
L 3169 4134 
L 1269 4134 
L 1269 2991 
Q 1406 3038 1543 3061 
Q 1681 3084 1819 3084 
Q 2600 3084 3056 2656 
Q 3513 2228 3513 1497 
Q 3513 744 3044 326 
Q 2575 -91 1722 -91 
Q 1428 -91 1123 -41 
Q 819 9 494 109 
L 494 744 
Q 775 591 1075 516 
Q 1375 441 1709 441 
Q 2250 441 2565 725 
Q 2881 1009 2881 1497 
Q 2881 1984 2565 2268 
Q 2250 2553 1709 2553 
Q 1456 2553 1204 2497 
Q 953 2441 691 2322 
L 691 4666 
z
" transform="scale(0.015625)"/>
       </defs>
       <use xlink:href="#DejaVuSans-34"/>
       <use xlink:href="#DejaVuSans-35" x="63.623047"/>
       <use xlink:href="#DejaVuSans-b0" x="127.246094"/>
      </g>
     </g>
    </g>
    <g id="xtick_3">
     <g id="line2d_3">
      <path d="M 258.3 254.52 
L 64.26 254.52 
" clip-path="url(#p89c9fc364a)" style="fill: none; stroke: #b0b0b0; stroke-width: 0.8; stroke-linecap: square"/>
     </g>
     <g id="text_3">
      <!-- 90° -->
      <g transform="translate(41.3975 257.279375) scale(0.1 -0.1)">
       <defs>
        <path id="DejaVuSans-39" d="M 703 97 
L 703 672 
Q 941 559 1184 500 
Q 1428 441 1663 441 
Q 2288 441 2617 861 
Q 2947 1281 2994 2138 
Q 2813 1869 2534 1725 
Q 2256 1581 1919 1581 
Q 1219 1581 811 2004 
Q 403 2428 403 3163 
Q 403 3881 828 4315 
Q 1253 4750 1959 4750 
Q 2769 4750 3195 4129 
Q 3622 3509 3622 2328 
Q 3622 1225 3098 567 
Q 2575 -91 1691 -91 
Q 1453 -91 1209 -44 
Q 966 3 703 97 
z
M 1959 2075 
Q 2384 2075 2632 2365 
Q 2881 2656 2881 3163 
Q 2881 3666 2632 3958 
Q 2384 4250 1959 4250 
Q 1534 4250 1286 3958 
Q 1038 3666 1038 3163 
Q 1038 2656 1286 2365 
Q 1534 2075 1959 2075 
z
" transform="scale(0.015625)"/>
       </defs>
       <use xlink:href="#DejaVuSans-39"/>
       <use xlink:href="#DejaVuSans-30" x="63.623047"/>
       <use xlink:href="#DejaVuSans-b0" x="127.246094"/>
      </g>
     </g>
    </g>
    <g id="xtick_4">
     <g id="line2d_4">
      <path d="M 258.3 254.52 
L 121.093 391.727 
" clip-path="url(#p89c9fc364a)" style="fill: none; stroke: #b0b0b0; stroke-width: 0.8; stroke-linecap: square"/>
     </g>
     <g id="text_4">
      <!-- 135° -->
      <g transform="translate(99.149755 404.38587) scale(0.1 -0.1)">
       <defs>
        <path id="DejaVuSans-31" d="M 794 531 
L 1825 531 
L 1825 4091 
L 703 3866 
L 703 4441 
L 1819 4666 
L 2450 4666 
L 2450 531 
L 3481 531 
L 3481 0 
L 794 0 
L 794 531 
z
" transform="scale(0.015625)"/>
        <path id="DejaVuSans-33" d="M 2597 2516 
Q 3050 2419 3304 2112 
Q 3559 1806 3559 1356 
Q 3559 666 3084 287 
Q 2609 -91 1734 -91 
Q 1441 -91 1130 -33 
Q 819 25 488 141 
L 488 750 
Q 750 597 1062 519 
Q 1375 441 1716 441 
Q 2309 441 2620 675 
Q 2931 909 2931 1356 
Q 2931 1769 2642 2001 
Q 2353 2234 1838 2234 
L 1294 2234 
L 1294 2753 
L 1863 2753 
Q 2328 2753 2575 2939 
Q 2822 3125 2822 3475 
Q 2822 3834 2567 4026 
Q 2313 4219 1838 4219 
Q 1578 4219 1281 4162 
Q 984 4106 628 3988 
L 628 4550 
Q 988 4650 1302 4700 
Q 1616 4750 1894 4750 
Q 2613 4750 3031 4423 
Q 3450 4097 3450 3541 
Q 3450 3153 3228 2886 
Q 3006 2619 2597 2516 
z
" transform="scale(0.015625)"/>
       </defs>
       <use xlink:href="#DejaVuSans-31"/>
       <use xlink:href="#DejaVuSans-33" x="63.623047"/>
       <use xlink:href="#DejaVuSans-35" x="127.246094"/>
       <use xlink:href="#DejaVuSans-b0" x="190.869141"/>
      </g>
     </g>
    </g>
    <g id="xtick_5">
     <g id="line2d_5">
      <path d="M 258.3 254.52 
L 258.3 448.56 
" clip-path="url(#p89c9fc364a)" style="fill: none; stroke: #b0b0b0; stroke-width: 0.8; stroke-linecap: square"/>
     </g>
     <g id="text_5">
      <!-- 180° -->
      <g transform="translate(246.25625 465.319375) scale(0.1 -0.1)">
       <defs>
        <path id="DejaVuSans-38" d="M 2034 2216 
Q 1584 2216 1326 1975 
Q 1069 1734 1069 1313 
Q 1069 891 1326 650 
Q 1584 409 2034 409 
Q 2484 409 2743 651 
Q 3003 894 3003 1313 
Q 3003 1734 2745 1975 
Q 2488 2216 2034 2216 
z
M 1403 2484 
Q 997 2584 770 2862 
Q 544 3141 544 3541 
Q 544 4100 942 4425 
Q 1341 4750 2034 4750 
Q 2731 4750 3128 4425 
Q 3525 4100 3525 3541 
Q 3525 3141 3298 2862 
Q 3072 2584 2669 2484 
Q 3125 2378 3379 2068 
Q 3634 1759 3634 1313 
Q 3634 634 3220 271 
Q 2806 -91 2034 -91 
Q 1263 -91 848 271 
Q 434 634 434 1313 
Q 434 1759 690 2068 
Q 947 2378 1403 2484 
z
M 1172 3481 
Q 1172 3119 1398 2916 
Q 1625 2713 2034 2713 
Q 2441 2713 2670 2916 
Q 2900 3119 2900 3481 
Q 2900 3844 2670 4047 
Q 2441 4250 2034 4250 
Q 1625 4250 1398 4047 
Q 1172 3844 1172 3481 
z
" transform="scale(0.015625)"/>
       </defs>
       <use xlink:href="#DejaVuSans-31"/>
       <use xlink:href="#DejaVuSans-38" x="63.623047"/>
       <use xlink:href="#DejaVuSans-30" x="127.246094"/>
       <use xlink:href="#DejaVuSans-b0" x="190.869141"/>
      </g>
     </g>
    </g>
    <g id="xtick_6">
     <g id="line2d_6">
      <path d="M 258.3 254.52 
L 395.507 391.727 
" clip-path="url(#p89c9fc364a)" style="fill: none; stroke: #b0b0b0; stroke-width: 0.8; stroke-linecap: square"/>
     </g>
     <g id="text_6">
      <!-- 225° -->
      <g transform="translate(393.362745 404.38587) scale(0.1 -0.1)">
       <defs>
        <path id="DejaVuSans-32" d="M 1228 531 
L 3431 531 
L 3431 0 
L 469 0 
L 469 531 
Q 828 903 1448 1529 
Q 2069 2156 2228 2338 
Q 2531 2678 2651 2914 
Q 2772 3150 2772 3378 
Q 2772 3750 2511 3984 
Q 2250 4219 1831 4219 
Q 1534 4219 1204 4116 
Q 875 4013 500 3803 
L 500 4441 
Q 881 4594 1212 4672 
Q 1544 4750 1819 4750 
Q 2544 4750 2975 4387 
Q 3406 4025 3406 3419 
Q 3406 3131 3298 2873 
Q 3191 2616 2906 2266 
Q 2828 2175 2409 1742 
Q 1991 1309 1228 531 
z
" transform="scale(0.015625)"/>
       </defs>
       <use xlink:href="#DejaVuSans-32"/>
       <use xlink:href="#DejaVuSans-32" x="63.623047"/>
       <use xlink:href="#DejaVuSans-35" x="127.246094"/>
       <use xlink:href="#DejaVuSans-b0" x="190.869141"/>
      </g>
     </g>
    </g>
    <g id="xtick_7">
     <g id="line2d_7">
      <path d="M 258.3 254.52 
L 452.34 254.52 
" clip-path="url(#p89c9fc364a)" style="fill: none; stroke: #b0b0b0; stroke-width: 0.8; stroke-linecap: square"/>
     </g>
     <g id="text_7">
      <!-- 270° -->
      <g transform="translate(454.29625 257.279375) scale(0.1 -0.1)">
       <defs>
        <path id="DejaVuSans-37" d="M 525 4666 
L 3525 4666 
L 3525 4397 
L 1831 0 
L 1172 0 
L 2766 4134 
L 525 4134 
L 525 4666 
z
" transform="scale(0.015625)"/>
       </defs>
       <use xlink:href="#DejaVuSans-32"/>
       <use xlink:href="#DejaVuSans-37" x="63.623047"/>
       <use xlink:href="#DejaVuSans-30" x="127.246094"/>
       <use xlink:href="#DejaVuSans-b0" x="190.869141"/>
      </g>
     </g>
    </g>
    <g id="xtick_8">
     <g id="line2d_8">
      <path d="M 258.3 254.52 
L 395.507 117.313 
" clip-path="url(#p89c9fc364a)" style="fill: none; stroke: #b0b0b0; stroke-width: 0.8; stroke-linecap: square"/>
     </g>
     <g id="text_8">
      <!-- 315° -->
      <g transform="translate(393.362745 110.17288) scale(0.1 -0.1)">
       <use xlink:href="#DejaVuSans-33"/>
       <use xlink:href="#DejaVuSans-31" x="63.623047"/>
       <use xlink:href="#DejaVuSans-35" x="127.246094"/>
       <use xlink:href="#DejaVuSans-b0" x="190.869141"/>
      </g>
     </g>
    </g>
   </g>
   <g id="matplotlib.axis_2">
    <g id="ytick_1">
     <g id="line2d_9">
      <path d="M 258.3 226.291894 
C 254.593119 226.291894 250.922283 227.022069 247.497572 228.440631 
C 244.07286 229.859193 240.960876 231.938554 238.339715 234.559715 
C 235.718554 237.180876 233.639193 240.29286 232.220631 243.717572 
C 230.802069 247.142283 230.071894 250.813119 230.071894 254.52 
C 230.071894 258.226881 230.802069 261.897717 232.220631 265.322428 
C 233.639193 268.74714 235.718554 271.859124 238.339715 274.480285 
C 240.960876 277.101446 244.07286 279.180807 247.497572 280.599369 
C 250.922283 282.017931 254.593119 282.748106 258.3 282.748106 
C 262.006881 282.748106 265.677717 282.017931 269.102428 280.599369 
C 272.52714 279.180807 275.639124 277.101446 278.260285 274.480285 
C 280.881446 271.859124 282.960807 268.74714 284.379369 265.322428 
C 285.797931 261.897717 286.528106 258.226881 286.528106 254.52 
C 286.528106 250.813119 285.797931 247.142283 284.379369 243.717572 
C 282.960807 240.29286 280.881446 237.180876 278.260285 234.559715 
C 275.639124 231.938554 272.52714 229.859193 269.102428 228.440631 
C 265.677717 227.022069 262.006881 226.291894 258.3 226.291894 
" clip-path="url(#p89c9fc364a)" style="fill: none; stroke: #b0b0b0; stroke-width: 0.8; stroke-linecap: square"/>
     </g>
     <g id="text_9">
      <!-- 0.00 -->
      <g transform="translate(286.099258 257.342072) scale(0.1 -0.1)">
       <defs>
        <path id="DejaVuSans-2e" d="M 684 794 
L 1344 794 
L 1344 0 
L 684 0 
L 684 794 
z
" transform="scale(0.015625)"/>
       </defs>
       <use xlink:href="#DejaVuSans-30"/>
       <use xlink:href="#DejaVuSans-2e" x="63.623047"/>
       <use xlink:href="#DejaVuSans-30" x="95.410156"/>
       <use xlink:href="#DejaVuSans-30" x="159.033203"/>
      </g>
     </g>
    </g>
    <g id="ytick_2">
     <g id="line2d_10">
      <path d="M 258.3 198.063788 
C 250.886238 198.063788 243.544566 199.524138 236.695143 202.361261 
C 229.84572 205.198385 223.621751 209.357109 218.37943 214.59943 
C 213.137109 219.841751 208.978385 226.06572 206.141261 232.915143 
C 203.304138 239.764566 201.843788 247.106238 201.843788 254.52 
C 201.843788 261.933762 203.304138 269.275434 206.141261 276.124857 
C 208.978385 282.97428 213.137109 289.198249 218.37943 294.44057 
C 223.621751 299.682891 229.84572 303.841615 236.695143 306.678739 
C 243.544566 309.515862 250.886238 310.976212 258.3 310.976212 
C 265.713762 310.976212 273.055434 309.515862 279.904857 306.678739 
C 286.75428 303.841615 292.978249 299.682891 298.22057 294.44057 
C 303.462891 289.198249 307.621615 282.97428 310.458739 276.124857 
C 313.295862 269.275434 314.756212 261.933762 314.756212 254.52 
C 314.756212 247.106238 313.295862 239.764566 310.458739 232.915143 
C 307.621615 226.06572 303.462891 219.841751 298.22057 214.59943 
C 292.978249 209.357109 286.75428 205.198385 279.904857 202.361261 
C 273.055434 199.524138 265.713762 198.063788 258.3 198.063788 
" clip-path="url(#p89c9fc364a)" style="fill: none; stroke: #b0b0b0; stroke-width: 0.8; stroke-linecap: square"/>
     </g>
     <g id="text_10">
      <!-- 0.05 -->
      <g transform="translate(313.898515 262.243831) scale(0.1 -0.1)">
       <use xlink:href="#DejaVuSans-30"/>
       <use xlink:href="#DejaVuSans-2e" x="63.623047"/>
       <use xlink:href="#DejaVuSans-30" x="95.410156"/>
       <use xlink:href="#DejaVuSans-35" x="159.033203"/>
      </g>
     </g>
    </g>
    <g id="ytick_3">
     <g id="line2d_11">
      <path d="M 258.3 169.835682 
C 247.179357 169.835682 236.166849 172.026206 225.892715 176.281892 
C 215.61858 180.537578 206.282627 186.775663 198.419145 194.639145 
C 190.555663 202.502627 184.317578 211.83858 180.061892 222.112715 
C 175.806206 232.386849 173.615682 243.399357 173.615682 254.52 
C 173.615682 265.640643 175.806206 276.653151 180.061892 286.927285 
C 184.317578 297.20142 190.555663 306.537373 198.419145 314.400855 
C 206.282627 322.264337 215.61858 328.502422 225.892715 332.758108 
C 236.166849 337.013794 247.179357 339.204318 258.3 339.204318 
C 269.420643 339.204318 280.433151 337.013794 290.707285 332.758108 
C 300.98142 328.502422 310.317373 322.264337 318.180855 314.400855 
C 326.044337 306.537373 332.282422 297.20142 336.538108 286.927285 
C 340.793794 276.653151 342.984318 265.640643 342.984318 254.52 
C 342.984318 243.399357 340.793794 232.386849 336.538108 222.112715 
C 332.282422 211.83858 326.044337 202.502627 318.180855 194.639145 
C 310.317373 186.775663 300.98142 180.537578 290.707285 176.281892 
C 280.433151 172.026206 269.420643 169.835682 258.3 169.835682 
" clip-path="url(#p89c9fc364a)" style="fill: none; stroke: #b0b0b0; stroke-width: 0.8; stroke-linecap: square"/>
     </g>
     <g id="text_11">
      <!-- 0.10 -->
      <g transform="translate(341.697773 267.14559) scale(0.1 -0.1)">
       <use xlink:href="#DejaVuSans-30"/>
       <use xlink:href="#DejaVuSans-2e" x="63.623047"/>
       <use xlink:href="#DejaVuSans-31" x="95.410156"/>
       <use xlink:href="#DejaVuSans-30" x="159.033203"/>
      </g>
     </g>
    </g>
    <g id="ytick_4">
     <g id="line2d_12">
      <path d="M 258.3 141.607576 
C 243.472476 141.607576 228.789132 144.528275 215.090286 150.202523 
C 201.391441 155.87677 188.943502 164.194217 178.45886 174.67886 
C 167.974217 185.163502 159.65677 197.611441 153.982523 211.310286 
C 148.308275 225.009132 145.387576 239.692476 145.387576 254.52 
C 145.387576 269.347524 148.308275 284.030868 153.982523 297.729714 
C 159.65677 311.428559 167.974217 323.876498 178.45886 334.36114 
C 188.943502 344.845783 201.391441 353.16323 215.090286 358.837477 
C 228.789132 364.511725 243.472476 367.432424 258.3 367.432424 
C 273.127524 367.432424 287.810868 364.511725 301.509714 358.837477 
C 315.208559 353.16323 327.656498 344.845783 338.14114 334.36114 
C 348.625783 323.876498 356.94323 311.428559 362.617477 297.729714 
C 368.291725 284.030868 371.212424 269.347524 371.212424 254.52 
C 371.212424 239.692476 368.291725 225.009132 362.617477 211.310286 
C 356.94323 197.611441 348.625783 185.163502 338.14114 174.67886 
C 327.656498 164.194217 315.208559 155.87677 301.509714 150.202523 
C 287.810868 144.528275 273.127524 141.607576 258.3 141.607576 
" clip-path="url(#p89c9fc364a)" style="fill: none; stroke: #b0b0b0; stroke-width: 0.8; stroke-linecap: square"/>
     </g>
     <g id="text_12">
      <!-- 0.15 -->
      <g transform="translate(369.49703 272.047349) scale(0.1 -0.1)">
       <use xlink:href="#DejaVuSans-30"/>
       <use xlink:href="#DejaVuSans-2e" x="63.623047"/>
       <use xlink:href="#DejaVuSans-31" x="95.410156"/>
       <use xlink:href="#DejaVuSans-35" x="159.033203"/>
      </g>
     </g>
    </g>
    <g id="ytick_5">
     <g id="line2d_13">
      <path d="M 258.3 113.37947 
C 239.765595 113.37947 221.411415 117.030344 204.287858 124.123154 
C 187.164301 131.215963 171.604378 141.612771 158.498574 154.718574 
C 145.392771 167.824378 134.995963 183.384301 127.903154 200.507858 
C 120.810344 217.631415 117.15947 235.985595 117.15947 254.52 
C 117.15947 273.054405 120.810344 291.408585 127.903154 308.532142 
C 134.995963 325.655699 145.392771 341.215622 158.498574 354.321426 
C 171.604378 367.427229 187.164301 377.824037 204.287858 384.916846 
C 221.411415 392.009656 239.765595 395.66053 258.3 395.66053 
C 276.834405 395.66053 295.188585 392.009656 312.312142 384.916846 
C 329.435699 377.824037 344.995622 367.427229 358.101426 354.321426 
C 371.207229 341.215622 381.604037 325.655699 388.696846 308.532142 
C 395.789656 291.408585 399.44053 273.054405 399.44053 254.52 
C 399.44053 235.985595 395.789656 217.631415 388.696846 200.507858 
C 381.604037 183.384301 371.207229 167.824378 358.101426 154.718574 
C 344.995622 141.612771 329.435699 131.215963 312.312142 124.123154 
C 295.188585 117.030344 276.834405 113.37947 258.3 113.37947 
" clip-path="url(#p89c9fc364a)" style="fill: none; stroke: #b0b0b0; stroke-width: 0.8; stroke-linecap: square"/>
     </g>
     <g id="text_13">
      <!-- 0.20 -->
      <g transform="translate(397.296288 276.949108) scale(0.1 -0.1)">
       <use xlink:href="#DejaVuSans-30"/>
       <use xlink:href="#DejaVuSans-2e" x="63.623047"/>
       <use xlink:href="#DejaVuSans-32" x="95.410156"/>
       <use xlink:href="#DejaVuSans-30" x="159.033203"/>
      </g>
     </g>
    </g>
    <g id="ytick_6">
     <g id="line2d_14">
      <path d="M 258.3 85.151365 
C 236.058715 85.151365 214.033698 89.532413 193.485429 98.043784 
C 172.937161 106.555156 154.265253 119.031326 138.538289 134.758289 
C 122.811326 150.485253 110.335156 169.157161 101.823784 189.705429 
C 93.312413 210.253698 88.931365 232.278715 88.931365 254.52 
C 88.931365 276.761285 93.312413 298.786302 101.823784 319.334571 
C 110.335156 339.882839 122.811326 358.554747 138.538289 374.281711 
C 154.265253 390.008674 172.937161 402.484844 193.485429 410.996216 
C 214.033698 419.507587 236.058715 423.888635 258.3 423.888635 
C 280.541285 423.888635 302.566302 419.507587 323.114571 410.996216 
C 343.662839 402.484844 362.334747 390.008674 378.061711 374.281711 
C 393.788674 358.554747 406.264844 339.882839 414.776216 319.334571 
C 423.287587 298.786302 427.668635 276.761285 427.668635 254.52 
C 427.668635 232.278715 423.287587 210.253698 414.776216 189.705429 
C 406.264844 169.157161 393.788674 150.485253 378.061711 134.758289 
C 362.334747 119.031326 343.662839 106.555156 323.114571 98.043784 
C 302.566302 89.532413 280.541285 85.151365 258.3 85.151365 
" clip-path="url(#p89c9fc364a)" style="fill: none; stroke: #b0b0b0; stroke-width: 0.8; stroke-linecap: square"/>
     </g>
     <g id="text_14">
      <!-- 0.25 -->
      <g transform="translate(425.095545 281.850867) scale(0.1 -0.1)">
       <use xlink:href="#DejaVuSans-30"/>
       <use xlink:href="#DejaVuSans-2e" x="63.623047"/>
       <use xlink:href="#DejaVuSans-32" x="95.410156"/>
       <use xlink:href="#DejaVuSans-35" x="159.033203"/>
      </g>
     </g>
    </g>
   </g>
   <g id="LineCollection_1">
    <path d="M 266.79312 84.799175 
C 263.964292 84.657615 261.132367 84.586802 258.3 84.586802 
C 255.467633 84.586802 252.635708 84.657615 249.80688 84.799175 
" clip-path="url(#p89c9fc364a)" style="fill: none; stroke: #808080; stroke-width: 1.5"/>
    <path d="M 236.070379 76.93976 
C 233.110554 77.310273 230.160455 77.754728 227.222847 78.272707 
C 224.285239 78.790687 221.36104 79.382029 218.452992 80.046181 
" clip-path="url(#p89c9fc364a)" style="fill: none; stroke: #808080; stroke-width: 1.5"/>
    <path d="M 208.399317 92.669277 
C 205.701664 93.500999 203.025227 94.400035 200.372515 95.365543 
C 197.719803 96.331051 195.091644 97.36273 192.490502 98.459612 
" clip-path="url(#p89c9fc364a)" style="fill: none; stroke: #808080; stroke-width: 1.5"/>
    <path d="M 184.91472 111.32965 
C 182.52809 112.552802 180.172414 113.835431 177.849898 115.176336 
C 175.527383 116.517241 173.238755 117.916002 170.986159 119.371309 
" clip-path="url(#p89c9fc364a)" style="fill: none; stroke: #808080; stroke-width: 1.5"/>
    <path d="M 169.68549 137.500161 
C 167.735058 138.977146 165.821857 140.502664 163.947681 142.075285 
C 162.073505 143.647905 160.238939 145.267137 158.445703 146.931462 
" clip-path="url(#p89c9fc364a)" style="fill: none; stroke: #808080; stroke-width: 1.5"/>
    <path d="M 177.608597 179.629278 
C 176.360353 180.974204 175.145929 182.350129 173.966464 183.755761 
C 172.786998 185.161393 171.64286 186.596294 170.535121 188.059118 
" clip-path="url(#p89c9fc364a)" style="fill: none; stroke: #808080; stroke-width: 1.5"/>
    <path d="M 194.282199 213.160812 
C 193.592843 214.227831 192.930272 215.311918 192.295107 216.412057 
C 191.659941 217.512196 191.05238 218.628043 190.472992 219.758552 
" clip-path="url(#p89c9fc364a)" style="fill: none; stroke: #808080; stroke-width: 1.5"/>
    <path d="M 207.840475 233.241596 
C 207.485816 234.082631 207.15224 234.932403 206.840059 235.790113 
C 206.527878 236.647824 206.23719 237.513205 205.968266 238.385446 
" clip-path="url(#p89c9fc364a)" style="fill: none; stroke: #808080; stroke-width: 1.5"/>
    <path d="M 208.764846 243.206969 
C 208.576286 244.032598 208.408397 244.862812 208.261336 245.696834 
C 208.114276 246.530855 207.98809 247.368422 207.882897 248.208751 
" clip-path="url(#p89c9fc364a)" style="fill: none; stroke: #808080; stroke-width: 1.5"/>
    <path d="M 204.733627 251.839447 
C 204.688948 252.732267 204.666599 253.626063 204.666599 254.52 
C 204.666599 255.413937 204.688948 256.307733 204.733627 257.200553 
" clip-path="url(#p89c9fc364a)" style="fill: none; stroke: #808080; stroke-width: 1.5"/>
   </g>
   <g id="LineCollection_2">
    <path d="M 258.3 90.232424 
L 258.3 78.941181 
" clip-path="url(#p89c9fc364a)" style="fill: none; stroke: #808080; stroke-width: 1.5"/>
    <path d="M 228.203199 83.832559 
L 226.242495 72.712856 
" clip-path="url(#p89c9fc364a)" style="fill: none; stroke: #808080; stroke-width: 1.5"/>
    <path d="M 202.303431 100.670692 
L 198.441599 90.060395 
" clip-path="url(#p89c9fc364a)" style="fill: none; stroke: #808080; stroke-width: 1.5"/>
    <path d="M 180.672709 120.065588 
L 175.027088 110.287085 
" clip-path="url(#p89c9fc364a)" style="fill: none; stroke: #808080; stroke-width: 1.5"/>
    <path d="M 167.576616 146.400082 
L 160.318746 137.750488 
" clip-path="url(#p89c9fc364a)" style="fill: none; stroke: #808080; stroke-width: 1.5"/>
    <path d="M 178.29126 187.384696 
L 169.641667 180.126825 
" clip-path="url(#p89c9fc364a)" style="fill: none; stroke: #808080; stroke-width: 1.5"/>
    <path d="M 197.184358 219.234868 
L 187.405855 213.589246 
" clip-path="url(#p89c9fc364a)" style="fill: none; stroke: #808080; stroke-width: 1.5"/>
    <path d="M 212.145207 237.721029 
L 201.53491 233.859197 
" clip-path="url(#p89c9fc364a)" style="fill: none; stroke: #808080; stroke-width: 1.5"/>
    <path d="M 213.821188 246.677185 
L 202.701485 244.716482 
" clip-path="url(#p89c9fc364a)" style="fill: none; stroke: #808080; stroke-width: 1.5"/>
    <path d="M 210.31222 254.52 
L 199.020978 254.52 
" clip-path="url(#p89c9fc364a)" style="fill: none; stroke: #808080; stroke-width: 1.5"/>
   </g>
   <g id="line2d_15">
    <path d="M 309.146773 254.52 
L 303.979116 253.079672 
L 298.755478 251.966222 
L 293.497534 251.181659 
L 288.227013 250.72656 
L 286.471129 250.647967 
L 295.933171 246.905757 
L 300.709568 244.538445 
L 305.351451 241.868436 
L 309.838812 238.90435 
L 314.152227 235.656116 
L 316.921909 233.338247 
L 319.600556 230.902665 
L 322.182953 228.353228 
L 324.664053 225.694024 
L 327.03899 222.929358 
L 329.303086 220.063751 
L 331.45186 217.101926 
L 333.481041 214.048803 
L 335.38657 210.909487 
L 337.164615 207.68926 
L 338.811571 204.393571 
L 340.324075 201.028025 
L 341.699007 197.598375 
L 342.9335 194.110506 
L 344.024942 190.570429 
L 344.970984 186.984268 
L 345.769546 183.358246 
L 346.418816 179.698679 
L 346.917261 176.011957 
L 347.263624 172.304537 
L 347.45693 168.58293 
L 347.496486 164.853685 
L 347.381886 161.123382 
L 347.113009 157.398615 
L 346.690019 153.685984 
L 346.113368 149.992077 
L 345.383794 146.323461 
L 344.50232 142.686671 
L 343.47025 139.088192 
L 342.28917 135.534453 
L 340.960945 132.03181 
L 339.487714 128.586536 
L 337.871885 125.20481 
L 336.116136 121.892702 
L 334.223405 118.656165 
L 332.196885 115.501022 
L 330.040022 112.432954 
L 327.756504 109.457491 
L 325.350258 106.580001 
L 322.825441 103.805677 
L 320.18643 101.139533 
L 317.437818 98.586389 
L 314.584405 96.150862 
L 311.631185 93.837363 
L 308.583342 91.65008 
L 305.446234 89.592978 
L 302.225392 87.669786 
L 298.926499 85.883992 
L 295.555388 84.238837 
L 292.118027 82.737306 
L 288.620508 81.382127 
L 285.069037 80.17576 
L 281.46992 79.120397 
L 277.829554 78.217956 
L 274.154413 77.470077 
L 270.451037 76.87812 
L 266.726019 76.443161 
L 262.985991 76.165991 
L 259.237616 76.047114 
L 255.48757 76.086746 
L 251.742535 76.284814 
L 248.00918 76.64096 
L 244.294156 77.154535 
L 240.604077 77.824605 
L 236.94551 78.649952 
L 233.324964 79.629076 
L 229.748876 80.760198 
L 226.223598 82.041262 
L 222.755389 83.469942 
L 219.350399 85.043642 
L 216.01466 86.759506 
L 212.754072 88.61442 
L 209.574396 90.605018 
L 206.481239 92.727691 
L 203.480049 94.978592 
L 200.576096 97.353643 
L 197.774471 99.848542 
L 195.080073 102.458777 
L 192.497598 105.179625 
L 190.031532 108.00617 
L 187.686145 110.933308 
L 185.465479 113.955754 
L 183.373341 117.068061 
L 181.4133 120.26462 
L 179.588677 123.539679 
L 177.902537 126.887348 
L 176.357689 130.301614 
L 174.956676 133.776351 
L 173.701774 137.305331 
L 172.594983 140.88224 
L 171.63803 144.500682 
L 170.832361 148.154198 
L 170.179138 151.836279 
L 169.679244 155.54037 
L 169.333271 159.259894 
L 169.14153 162.988253 
L 169.104041 166.718851 
L 169.220541 170.445098 
L 169.490479 174.160429 
L 169.913023 177.85831 
L 170.487055 181.532258 
L 171.211181 185.175847 
L 172.083726 188.782722 
L 173.102745 192.346613 
L 174.266022 195.861345 
L 175.571077 199.320849 
L 177.01517 202.719174 
L 178.595305 206.050501 
L 180.308241 209.30915 
L 182.150493 212.489593 
L 184.118341 215.586462 
L 186.20784 218.594563 
L 188.414822 221.508882 
L 190.734911 224.324596 
L 193.163527 227.037083 
L 195.695895 229.641928 
L 198.327059 232.134934 
L 201.051885 234.512128 
L 205.303115 237.85265 
L 209.734621 240.912619 
L 214.327192 243.681676 
L 219.061007 246.150763 
L 223.915718 248.312154 
L 228.870541 250.15949 
L 230.128871 250.647967 
L 224.858982 250.993365 
L 219.594431 251.6681 
L 214.356945 252.672073 
L 209.168226 254.003754 
L 207.453227 254.52 
L 207.453227 254.52 
" clip-path="url(#p89c9fc364a)" style="fill: none; stroke: #ffa500; stroke-width: 1.5; stroke-linecap: square"/>
   </g>
   <g id="line2d_16">
    <path d="M 207.453227 254.52 
L 212.620884 255.960328 
L 217.844522 257.073778 
L 223.102466 257.858341 
L 228.372987 258.31344 
L 230.128871 258.392033 
L 220.666829 262.134243 
L 215.890432 264.501555 
L 211.248549 267.171564 
L 206.761188 270.13565 
L 202.447773 273.383884 
L 199.678091 275.701753 
L 196.999444 278.137335 
L 194.417047 280.686772 
L 191.935947 283.345976 
L 189.56101 286.110642 
L 187.296914 288.976249 
L 185.14814 291.938074 
L 183.118959 294.991197 
L 181.21343 298.130513 
L 179.435385 301.35074 
L 177.788429 304.646429 
L 176.275925 308.011975 
L 174.900993 311.441625 
L 173.6665 314.929494 
L 172.575058 318.469571 
L 171.629016 322.055732 
L 170.830454 325.681754 
L 170.181184 329.341321 
L 169.682739 333.028043 
L 169.336376 336.735463 
L 169.14307 340.45707 
L 169.103514 344.186315 
L 169.218114 347.916618 
L 169.486991 351.641385 
L 169.909981 355.354016 
L 170.486632 359.047923 
L 171.216206 362.716539 
L 172.09768 366.353329 
L 173.12975 369.951808 
L 174.31083 373.505547 
L 175.639055 377.00819 
L 177.112286 380.453464 
L 178.728115 383.83519 
L 180.483864 387.147298 
L 182.376595 390.383835 
L 184.403115 393.538978 
L 186.559978 396.607046 
L 188.843496 399.582509 
L 191.249742 402.459999 
L 193.774559 405.234323 
L 196.41357 407.900467 
L 199.162182 410.453611 
L 202.015595 412.889138 
L 204.968815 415.202637 
L 208.016658 417.38992 
L 211.153766 419.447022 
L 214.374608 421.370214 
L 217.673501 423.156008 
L 221.044612 424.801163 
L 224.481973 426.302694 
L 227.979492 427.657873 
L 231.530963 428.86424 
L 235.13008 429.919603 
L 238.770446 430.822044 
L 242.445587 431.569923 
L 246.148963 432.16188 
L 249.873981 432.596839 
L 253.614009 432.874009 
L 257.362384 432.992886 
L 261.11243 432.953254 
L 264.857465 432.755186 
L 268.59082 432.39904 
L 272.305844 431.885465 
L 275.995923 431.215395 
L 279.65449 430.390048 
L 283.275036 429.410924 
L 286.851124 428.279802 
L 290.376402 426.998738 
L 293.844611 425.570058 
L 297.249601 423.996358 
L 300.58534 422.280494 
L 303.845928 420.42558 
L 307.025604 418.434982 
L 310.118761 416.312309 
L 313.119951 414.061408 
L 316.023904 411.686357 
L 318.825529 409.191458 
L 321.519927 406.581223 
L 324.102402 403.860375 
L 326.568468 401.03383 
L 328.913855 398.106692 
L 331.134521 395.084246 
L 333.226659 391.971939 
L 335.1867 388.77538 
L 337.011323 385.500321 
L 338.697463 382.152652 
L 340.242311 378.738386 
L 341.643324 375.263649 
L 342.898226 371.734669 
L 344.005017 368.15776 
L 344.96197 364.539318 
L 345.767639 360.885802 
L 346.420862 357.203721 
L 346.920756 353.49963 
L 347.266729 349.780106 
L 347.45847 346.051747 
L 347.495959 342.321149 
L 347.379459 338.594902 
L 347.109521 334.879571 
L 346.686977 331.18169 
L 346.112945 327.507742 
L 345.388819 323.864153 
L 344.516274 320.257278 
L 343.497255 316.693387 
L 342.333978 313.178655 
L 341.028923 309.719151 
L 339.58483 306.320826 
L 338.004695 302.989499 
L 336.291759 299.73085 
L 334.449507 296.550407 
L 332.481659 293.453538 
L 330.39216 290.445437 
L 328.185178 287.531118 
L 325.865089 284.715404 
L 323.436473 282.002917 
L 320.904105 279.398072 
L 318.272941 276.905066 
L 315.548115 274.527872 
L 311.296885 271.18735 
L 306.865379 268.127381 
L 302.272808 265.358324 
L 297.538993 262.889237 
L 292.684282 260.727846 
L 287.729459 258.88051 
L 286.471129 258.392033 
L 291.741018 258.046635 
L 297.005569 257.3719 
L 302.243055 256.367927 
L 307.431774 255.036246 
L 309.146773 254.52 
L 309.146773 254.52 
" clip-path="url(#p89c9fc364a)" style="fill: none; stroke: #1f77b4; stroke-width: 1.5; stroke-linecap: square"/>
   </g>
   <g id="line2d_17">
    <defs>
     <path id="m279030d6b3" d="M 0 1.5 
C 0.397805 1.5 0.77937 1.341951 1.06066 1.06066 
C 1.341951 0.77937 1.5 0.397805 1.5 0 
C 1.5 -0.397805 1.341951 -0.77937 1.06066 -1.06066 
C 0.77937 -1.341951 0.397805 -1.5 0 -1.5 
C -0.397805 -1.5 -0.77937 -1.341951 -1.06066 -1.06066 
C -1.341951 -0.77937 -1.5 -0.397805 -1.5 0 
C -1.5 0.397805 -1.341951 0.77937 -1.06066 1.06066 
C -0.77937 1.341951 -0.397805 1.5 0 1.5 
z
" style="stroke: #808080"/>
    </defs>
    <g clip-path="url(#p89c9fc364a)">
     <use xlink:href="#m279030d6b3" x="258.3" y="84.586802" style="fill: #808080; stroke: #808080"/>
     <use xlink:href="#m279030d6b3" x="227.222847" y="78.272707" style="fill: #808080; stroke: #808080"/>
     <use xlink:href="#m279030d6b3" x="200.372515" y="95.365543" style="fill: #808080; stroke: #808080"/>
     <use xlink:href="#m279030d6b3" x="177.849898" y="115.176336" style="fill: #808080; stroke: #808080"/>
     <use xlink:href="#m279030d6b3" x="163.947681" y="142.075285" style="fill: #808080; stroke: #808080"/>
     <use xlink:href="#m279030d6b3" x="173.966464" y="183.755761" style="fill: #808080; stroke: #808080"/>
     <use xlink:href="#m279030d6b3" x="192.295107" y="216.412057" style="fill: #808080; stroke: #808080"/>
     <use xlink:href="#m279030d6b3" x="206.840059" y="235.790113" style="fill: #808080; stroke: #808080"/>
     <use xlink:href="#m279030d6b3" x="208.261336" y="245.696834" style="fill: #808080; stroke: #808080"/>
     <use xlink:href="#m279030d6b3" x="204.666599" y="254.52" style="fill: #808080; stroke: #808080"/>
    </g>
   </g>
   <g id="patch_3">
    <path d="M 258.3 60.48 
C 232.818901 60.48 207.585573 65.499221 184.044107 75.250416 
C 160.502641 85.00161 139.110858 99.295142 121.093 117.313 
C 103.075142 135.330858 88.78161 156.722641 79.030416 180.264107 
C 69.279221 203.805573 64.26 229.038901 64.26 254.52 
C 64.26 280.001099 69.279221 305.234427 79.030416 328.775893 
C 88.78161 352.317359 103.075142 373.709142 121.093 391.727 
C 139.110858 409.744858 160.502641 424.03839 184.044107 433.789584 
C 207.585573 443.540779 232.818901 448.56 258.3 448.56 
C 283.781099 448.56 309.014427 443.540779 332.555893 433.789584 
C 356.097359 424.03839 377.489142 409.744858 395.507 391.727 
C 413.524858 373.709142 427.81839 352.317359 437.569584 328.775893 
C 447.320779 305.234427 452.34 280.001099 452.34 254.52 
C 452.34 229.038901 447.320779 203.805573 437.569584 180.264107 
C 427.81839 156.722641 413.524858 135.330858 395.507 117.313 
C 377.489142 99.295142 356.097359 85.00161 332.555893 75.250416 
C 309.014427 65.499221 283.781099 60.48 258.3 60.48 
" style="fill: none; stroke: #000000; stroke-width: 0.8; stroke-linejoin: miter; stroke-linecap: square"/>
   </g>
   <g id="legend_1">
    <g id="patch_4">
     <path d="M 353.565907 79.080992 
L 485.665907 79.080992 
Q 487.665907 79.080992 487.665907 77.080992 
L 487.665907 11.650992 
Q 487.665907 9.650992 485.665907 9.650992 
L 353.565907 9.650992 
Q 351.565907 9.650992 351.565907 11.650992 
L 351.565907 77.080992 
Q 351.565907 79.080992 353.565907 79.080992 
z
" style="fill: #ffffff; opacity: 0.8; stroke: #cccccc; stroke-linejoin: miter"/>
    </g>
    <g id="line2d_18">
     <path d="M 355.565907 24.38818 
L 365.565907 24.38818 
L 375.565907 24.38818 
" style="fill: none; stroke: #ffa500; stroke-width: 1.5; stroke-linecap: square"/>
    </g>
    <g id="text_15">
     <!-- $U=a\cdot\cos\left(\theta\cdot b\right)$ -->
     <g transform="translate(383.565907 21.24943) scale(0.1 -0.1)">
      <defs>
       <path id="DejaVuSans-Oblique-55" d="M 991 4666 
L 1625 4666 
L 1075 1831 
Q 1041 1641 1027 1517 
Q 1013 1394 1013 1300 
Q 1013 869 1253 645 
Q 1494 422 1959 422 
Q 2563 422 2898 753 
Q 3234 1084 3378 1831 
L 3928 4666 
L 4563 4666 
L 4000 1753 
Q 3816 809 3300 359 
Q 2784 -91 1888 -91 
Q 1188 -91 780 261 
Q 372 613 372 1216 
Q 372 1325 387 1461 
Q 403 1597 434 1753 
L 991 4666 
z
" transform="scale(0.015625)"/>
       <path id="DejaVuSans-3d" d="M 678 2906 
L 4684 2906 
L 4684 2381 
L 678 2381 
L 678 2906 
z
M 678 1631 
L 4684 1631 
L 4684 1100 
L 678 1100 
L 678 1631 
z
" transform="scale(0.015625)"/>
       <path id="DejaVuSans-Oblique-61" d="M 3438 1997 
L 3047 0 
L 2472 0 
L 2578 531 
Q 2325 219 2001 64 
Q 1678 -91 1281 -91 
Q 834 -91 548 182 
Q 263 456 263 884 
Q 263 1497 752 1853 
Q 1241 2209 2100 2209 
L 2900 2209 
L 2931 2363 
Q 2938 2388 2941 2417 
Q 2944 2447 2944 2509 
Q 2944 2788 2717 2942 
Q 2491 3097 2081 3097 
Q 1800 3097 1504 3025 
Q 1209 2953 897 2809 
L 997 3341 
Q 1322 3463 1633 3523 
Q 1944 3584 2234 3584 
Q 2853 3584 3176 3315 
Q 3500 3047 3500 2534 
Q 3500 2431 3484 2292 
Q 3469 2153 3438 1997 
z
M 2816 1759 
L 2241 1759 
Q 1534 1759 1195 1570 
Q 856 1381 856 984 
Q 856 709 1029 553 
Q 1203 397 1509 397 
Q 1978 397 2328 733 
Q 2678 1069 2791 1631 
L 2816 1759 
z
" transform="scale(0.015625)"/>
       <path id="DejaVuSans-22c5" d="M 684 2619 
L 1344 2619 
L 1344 1825 
L 684 1825 
L 684 2619 
z
" transform="scale(0.015625)"/>
       <path id="DejaVuSans-63" d="M 3122 3366 
L 3122 2828 
Q 2878 2963 2633 3030 
Q 2388 3097 2138 3097 
Q 1578 3097 1268 2742 
Q 959 2388 959 1747 
Q 959 1106 1268 751 
Q 1578 397 2138 397 
Q 2388 397 2633 464 
Q 2878 531 3122 666 
L 3122 134 
Q 2881 22 2623 -34 
Q 2366 -91 2075 -91 
Q 1284 -91 818 406 
Q 353 903 353 1747 
Q 353 2603 823 3093 
Q 1294 3584 2113 3584 
Q 2378 3584 2631 3529 
Q 2884 3475 3122 3366 
z
" transform="scale(0.015625)"/>
       <path id="DejaVuSans-6f" d="M 1959 3097 
Q 1497 3097 1228 2736 
Q 959 2375 959 1747 
Q 959 1119 1226 758 
Q 1494 397 1959 397 
Q 2419 397 2687 759 
Q 2956 1122 2956 1747 
Q 2956 2369 2687 2733 
Q 2419 3097 1959 3097 
z
M 1959 3584 
Q 2709 3584 3137 3096 
Q 3566 2609 3566 1747 
Q 3566 888 3137 398 
Q 2709 -91 1959 -91 
Q 1206 -91 779 398 
Q 353 888 353 1747 
Q 353 2609 779 3096 
Q 1206 3584 1959 3584 
z
" transform="scale(0.015625)"/>
       <path id="DejaVuSans-73" d="M 2834 3397 
L 2834 2853 
Q 2591 2978 2328 3040 
Q 2066 3103 1784 3103 
Q 1356 3103 1142 2972 
Q 928 2841 928 2578 
Q 928 2378 1081 2264 
Q 1234 2150 1697 2047 
L 1894 2003 
Q 2506 1872 2764 1633 
Q 3022 1394 3022 966 
Q 3022 478 2636 193 
Q 2250 -91 1575 -91 
Q 1294 -91 989 -36 
Q 684 19 347 128 
L 347 722 
Q 666 556 975 473 
Q 1284 391 1588 391 
Q 1994 391 2212 530 
Q 2431 669 2431 922 
Q 2431 1156 2273 1281 
Q 2116 1406 1581 1522 
L 1381 1569 
Q 847 1681 609 1914 
Q 372 2147 372 2553 
Q 372 3047 722 3315 
Q 1072 3584 1716 3584 
Q 2034 3584 2315 3537 
Q 2597 3491 2834 3397 
z
" transform="scale(0.015625)"/>
       <path id="DejaVuSans-28" d="M 1984 4856 
Q 1566 4138 1362 3434 
Q 1159 2731 1159 2009 
Q 1159 1288 1364 580 
Q 1569 -128 1984 -844 
L 1484 -844 
Q 1016 -109 783 600 
Q 550 1309 550 2009 
Q 550 2706 781 3412 
Q 1013 4119 1484 4856 
L 1984 4856 
z
" transform="scale(0.015625)"/>
       <path id="DejaVuSans-Oblique-3b8" d="M 2913 2219 
L 925 2219 
Q 791 1284 928 888 
Q 1100 400 1566 400 
Q 2034 400 2391 891 
Q 2703 1322 2913 2219 
z
M 3009 2750 
Q 3094 3638 2984 3950 
Q 2813 4444 2353 4444 
Q 1875 4444 1525 3956 
Q 1250 3563 1034 2750 
L 3009 2750 
z
M 2444 4913 
Q 3194 4913 3494 4250 
Q 3794 3591 3566 2422 
Q 3341 1256 2781 594 
Q 2225 -72 1475 -72 
Q 722 -72 425 594 
Q 128 1256 353 2422 
Q 581 3591 1134 4250 
Q 1691 4913 2444 4913 
z
" transform="scale(0.015625)"/>
       <path id="DejaVuSans-Oblique-62" d="M 3169 2138 
Q 3169 2591 2961 2847 
Q 2753 3103 2388 3103 
Q 2122 3103 1889 2973 
Q 1656 2844 1484 2597 
Q 1303 2338 1198 1995 
Q 1094 1653 1094 1313 
Q 1094 881 1298 636 
Q 1503 391 1863 391 
Q 2134 391 2365 517 
Q 2597 644 2772 891 
Q 2950 1147 3059 1487 
Q 3169 1828 3169 2138 
z
M 1381 2969 
Q 1594 3256 1914 3420 
Q 2234 3584 2584 3584 
Q 3122 3584 3439 3221 
Q 3756 2859 3756 2241 
Q 3756 1734 3570 1259 
Q 3384 784 3041 416 
Q 2816 172 2522 40 
Q 2228 -91 1906 -91 
Q 1566 -91 1316 65 
Q 1066 222 909 531 
L 806 0 
L 231 0 
L 1178 4863 
L 1753 4863 
L 1381 2969 
z
" transform="scale(0.015625)"/>
       <path id="DejaVuSans-29" d="M 513 4856 
L 1013 4856 
Q 1481 4119 1714 3412 
Q 1947 2706 1947 2009 
Q 1947 1309 1714 600 
Q 1481 -109 1013 -844 
L 513 -844 
Q 928 -128 1133 580 
Q 1338 1288 1338 2009 
Q 1338 2731 1133 3434 
Q 928 4138 513 4856 
z
" transform="scale(0.015625)"/>
      </defs>
      <use xlink:href="#DejaVuSans-Oblique-55" transform="translate(0 0.234375)"/>
      <use xlink:href="#DejaVuSans-3d" transform="translate(92.675781 0.234375)"/>
      <use xlink:href="#DejaVuSans-Oblique-61" transform="translate(195.947266 0.234375)"/>
      <use xlink:href="#DejaVuSans-22c5" transform="translate(276.708984 0.234375)"/>
      <use xlink:href="#DejaVuSans-63" transform="translate(327.978516 0.234375)"/>
      <use xlink:href="#DejaVuSans-6f" transform="translate(382.958984 0.234375)"/>
      <use xlink:href="#DejaVuSans-73" transform="translate(444.140625 0.234375)"/>
      <use xlink:href="#DejaVuSans-28" transform="translate(512.475911 0.234375)"/>
      <use xlink:href="#DejaVuSans-Oblique-3b8" transform="translate(551.489583 0.234375)"/>
      <use xlink:href="#DejaVuSans-22c5" transform="translate(632.153645 0.234375)"/>
      <use xlink:href="#DejaVuSans-Oblique-62" transform="translate(683.423176 0.234375)"/>
      <use xlink:href="#DejaVuSans-29" transform="translate(746.899739 0.234375)"/>
     </g>
     <!-- $a=0.266$, $b=1.096$ -->
     <g transform="translate(383.565907 32.447242) scale(0.1 -0.1)">
      <defs>
       <path id="DejaVuSans-36" d="M 2113 2584 
Q 1688 2584 1439 2293 
Q 1191 2003 1191 1497 
Q 1191 994 1439 701 
Q 1688 409 2113 409 
Q 2538 409 2786 701 
Q 3034 994 3034 1497 
Q 3034 2003 2786 2293 
Q 2538 2584 2113 2584 
z
M 3366 4563 
L 3366 3988 
Q 3128 4100 2886 4159 
Q 2644 4219 2406 4219 
Q 1781 4219 1451 3797 
Q 1122 3375 1075 2522 
Q 1259 2794 1537 2939 
Q 1816 3084 2150 3084 
Q 2853 3084 3261 2657 
Q 3669 2231 3669 1497 
Q 3669 778 3244 343 
Q 2819 -91 2113 -91 
Q 1303 -91 875 529 
Q 447 1150 447 2328 
Q 447 3434 972 4092 
Q 1497 4750 2381 4750 
Q 2619 4750 2861 4703 
Q 3103 4656 3366 4563 
z
" transform="scale(0.015625)"/>
       <path id="DejaVuSans-2c" d="M 750 794 
L 1409 794 
L 1409 256 
L 897 -744 
L 494 -744 
L 750 256 
L 750 794 
z
" transform="scale(0.015625)"/>
       <path id="DejaVuSans-20" transform="scale(0.015625)"/>
      </defs>
      <use xlink:href="#DejaVuSans-Oblique-61" transform="translate(0 0.015625)"/>
      <use xlink:href="#DejaVuSans-3d" transform="translate(80.761719 0.015625)"/>
      <use xlink:href="#DejaVuSans-30" transform="translate(184.033203 0.015625)"/>
      <use xlink:href="#DejaVuSans-2e" transform="translate(247.65625 0.015625)"/>
      <use xlink:href="#DejaVuSans-32" transform="translate(273.943359 0.015625)"/>
      <use xlink:href="#DejaVuSans-36" transform="translate(337.566406 0.015625)"/>
      <use xlink:href="#DejaVuSans-36" transform="translate(401.189453 0.015625)"/>
      <use xlink:href="#DejaVuSans-2c" transform="translate(464.8125 0.015625)"/>
      <use xlink:href="#DejaVuSans-20" transform="translate(496.599609 0.015625)"/>
      <use xlink:href="#DejaVuSans-Oblique-62" transform="translate(528.386719 0.015625)"/>
      <use xlink:href="#DejaVuSans-3d" transform="translate(611.345703 0.015625)"/>
      <use xlink:href="#DejaVuSans-31" transform="translate(714.617188 0.015625)"/>
      <use xlink:href="#DejaVuSans-2e" transform="translate(778.240234 0.015625)"/>
      <use xlink:href="#DejaVuSans-30" transform="translate(810.027344 0.015625)"/>
      <use xlink:href="#DejaVuSans-39" transform="translate(873.650391 0.015625)"/>
      <use xlink:href="#DejaVuSans-36" transform="translate(937.273438 0.015625)"/>
     </g>
    </g>
    <g id="line2d_19">
     <path d="M 355.565907 50.264117 
L 365.565907 50.264117 
L 375.565907 50.264117 
" style="fill: none; stroke: #1f77b4; stroke-width: 1.5; stroke-linecap: square"/>
    </g>
    <g id="text_16">
     <!-- Fittfunktion als -->
     <g transform="translate(383.565907 47.125367) scale(0.1 -0.1)">
      <defs>
       <path id="DejaVuSans-46" d="M 628 4666 
L 3309 4666 
L 3309 4134 
L 1259 4134 
L 1259 2759 
L 3109 2759 
L 3109 2228 
L 1259 2228 
L 1259 0 
L 628 0 
L 628 4666 
z
" transform="scale(0.015625)"/>
       <path id="DejaVuSans-69" d="M 603 3500 
L 1178 3500 
L 1178 0 
L 603 0 
L 603 3500 
z
M 603 4863 
L 1178 4863 
L 1178 4134 
L 603 4134 
L 603 4863 
z
" transform="scale(0.015625)"/>
       <path id="DejaVuSans-74" d="M 1172 4494 
L 1172 3500 
L 2356 3500 
L 2356 3053 
L 1172 3053 
L 1172 1153 
Q 1172 725 1289 603 
Q 1406 481 1766 481 
L 2356 481 
L 2356 0 
L 1766 0 
Q 1100 0 847 248 
Q 594 497 594 1153 
L 594 3053 
L 172 3053 
L 172 3500 
L 594 3500 
L 594 4494 
L 1172 4494 
z
" transform="scale(0.015625)"/>
       <path id="DejaVuSans-66" d="M 2375 4863 
L 2375 4384 
L 1825 4384 
Q 1516 4384 1395 4259 
Q 1275 4134 1275 3809 
L 1275 3500 
L 2222 3500 
L 2222 3053 
L 1275 3053 
L 1275 0 
L 697 0 
L 697 3053 
L 147 3053 
L 147 3500 
L 697 3500 
L 697 3744 
Q 697 4328 969 4595 
Q 1241 4863 1831 4863 
L 2375 4863 
z
" transform="scale(0.015625)"/>
       <path id="DejaVuSans-75" d="M 544 1381 
L 544 3500 
L 1119 3500 
L 1119 1403 
Q 1119 906 1312 657 
Q 1506 409 1894 409 
Q 2359 409 2629 706 
Q 2900 1003 2900 1516 
L 2900 3500 
L 3475 3500 
L 3475 0 
L 2900 0 
L 2900 538 
Q 2691 219 2414 64 
Q 2138 -91 1772 -91 
Q 1169 -91 856 284 
Q 544 659 544 1381 
z
M 1991 3584 
L 1991 3584 
z
" transform="scale(0.015625)"/>
       <path id="DejaVuSans-6e" d="M 3513 2113 
L 3513 0 
L 2938 0 
L 2938 2094 
Q 2938 2591 2744 2837 
Q 2550 3084 2163 3084 
Q 1697 3084 1428 2787 
Q 1159 2491 1159 1978 
L 1159 0 
L 581 0 
L 581 3500 
L 1159 3500 
L 1159 2956 
Q 1366 3272 1645 3428 
Q 1925 3584 2291 3584 
Q 2894 3584 3203 3211 
Q 3513 2838 3513 2113 
z
" transform="scale(0.015625)"/>
       <path id="DejaVuSans-6b" d="M 581 4863 
L 1159 4863 
L 1159 1991 
L 2875 3500 
L 3609 3500 
L 1753 1863 
L 3688 0 
L 2938 0 
L 1159 1709 
L 1159 0 
L 581 0 
L 581 4863 
z
" transform="scale(0.015625)"/>
       <path id="DejaVuSans-61" d="M 2194 1759 
Q 1497 1759 1228 1600 
Q 959 1441 959 1056 
Q 959 750 1161 570 
Q 1363 391 1709 391 
Q 2188 391 2477 730 
Q 2766 1069 2766 1631 
L 2766 1759 
L 2194 1759 
z
M 3341 1997 
L 3341 0 
L 2766 0 
L 2766 531 
Q 2569 213 2275 61 
Q 1981 -91 1556 -91 
Q 1019 -91 701 211 
Q 384 513 384 1019 
Q 384 1609 779 1909 
Q 1175 2209 1959 2209 
L 2766 2209 
L 2766 2266 
Q 2766 2663 2505 2880 
Q 2244 3097 1772 3097 
Q 1472 3097 1187 3025 
Q 903 2953 641 2809 
L 641 3341 
Q 956 3463 1253 3523 
Q 1550 3584 1831 3584 
Q 2591 3584 2966 3190 
Q 3341 2797 3341 1997 
z
" transform="scale(0.015625)"/>
       <path id="DejaVuSans-6c" d="M 603 4863 
L 1178 4863 
L 1178 0 
L 603 0 
L 603 4863 
z
" transform="scale(0.015625)"/>
      </defs>
      <use xlink:href="#DejaVuSans-46"/>
      <use xlink:href="#DejaVuSans-69" x="50.269531"/>
      <use xlink:href="#DejaVuSans-74" x="78.052734"/>
      <use xlink:href="#DejaVuSans-74" x="117.261719"/>
      <use xlink:href="#DejaVuSans-66" x="156.470703"/>
      <use xlink:href="#DejaVuSans-75" x="191.675781"/>
      <use xlink:href="#DejaVuSans-6e" x="255.054688"/>
      <use xlink:href="#DejaVuSans-6b" x="318.433594"/>
      <use xlink:href="#DejaVuSans-74" x="376.34375"/>
      <use xlink:href="#DejaVuSans-69" x="415.552734"/>
      <use xlink:href="#DejaVuSans-6f" x="443.335938"/>
      <use xlink:href="#DejaVuSans-6e" x="504.517578"/>
      <use xlink:href="#DejaVuSans-20" x="567.896484"/>
      <use xlink:href="#DejaVuSans-61" x="599.683594"/>
      <use xlink:href="#DejaVuSans-6c" x="660.962891"/>
      <use xlink:href="#DejaVuSans-73" x="688.746094"/>
     </g>
     <!-- Spiegelung -->
     <g transform="translate(383.565907 58.32318) scale(0.1 -0.1)">
      <defs>
       <path id="DejaVuSans-53" d="M 3425 4513 
L 3425 3897 
Q 3066 4069 2747 4153 
Q 2428 4238 2131 4238 
Q 1616 4238 1336 4038 
Q 1056 3838 1056 3469 
Q 1056 3159 1242 3001 
Q 1428 2844 1947 2747 
L 2328 2669 
Q 3034 2534 3370 2195 
Q 3706 1856 3706 1288 
Q 3706 609 3251 259 
Q 2797 -91 1919 -91 
Q 1588 -91 1214 -16 
Q 841 59 441 206 
L 441 856 
Q 825 641 1194 531 
Q 1563 422 1919 422 
Q 2459 422 2753 634 
Q 3047 847 3047 1241 
Q 3047 1584 2836 1778 
Q 2625 1972 2144 2069 
L 1759 2144 
Q 1053 2284 737 2584 
Q 422 2884 422 3419 
Q 422 4038 858 4394 
Q 1294 4750 2059 4750 
Q 2388 4750 2728 4690 
Q 3069 4631 3425 4513 
z
" transform="scale(0.015625)"/>
       <path id="DejaVuSans-70" d="M 1159 525 
L 1159 -1331 
L 581 -1331 
L 581 3500 
L 1159 3500 
L 1159 2969 
Q 1341 3281 1617 3432 
Q 1894 3584 2278 3584 
Q 2916 3584 3314 3078 
Q 3713 2572 3713 1747 
Q 3713 922 3314 415 
Q 2916 -91 2278 -91 
Q 1894 -91 1617 61 
Q 1341 213 1159 525 
z
M 3116 1747 
Q 3116 2381 2855 2742 
Q 2594 3103 2138 3103 
Q 1681 3103 1420 2742 
Q 1159 2381 1159 1747 
Q 1159 1113 1420 752 
Q 1681 391 2138 391 
Q 2594 391 2855 752 
Q 3116 1113 3116 1747 
z
" transform="scale(0.015625)"/>
       <path id="DejaVuSans-65" d="M 3597 1894 
L 3597 1613 
L 953 1613 
Q 991 1019 1311 708 
Q 1631 397 2203 397 
Q 2534 397 2845 478 
Q 3156 559 3463 722 
L 3463 178 
Q 3153 47 2828 -22 
Q 2503 -91 2169 -91 
Q 1331 -91 842 396 
Q 353 884 353 1716 
Q 353 2575 817 3079 
Q 1281 3584 2069 3584 
Q 2775 3584 3186 3129 
Q 3597 2675 3597 1894 
z
M 3022 2063 
Q 3016 2534 2758 2815 
Q 2500 3097 2075 3097 
Q 1594 3097 1305 2825 
Q 1016 2553 972 2059 
L 3022 2063 
z
" transform="scale(0.015625)"/>
       <path id="DejaVuSans-67" d="M 2906 1791 
Q 2906 2416 2648 2759 
Q 2391 3103 1925 3103 
Q 1463 3103 1205 2759 
Q 947 2416 947 1791 
Q 947 1169 1205 825 
Q 1463 481 1925 481 
Q 2391 481 2648 825 
Q 2906 1169 2906 1791 
z
M 3481 434 
Q 3481 -459 3084 -895 
Q 2688 -1331 1869 -1331 
Q 1566 -1331 1297 -1286 
Q 1028 -1241 775 -1147 
L 775 -588 
Q 1028 -725 1275 -790 
Q 1522 -856 1778 -856 
Q 2344 -856 2625 -561 
Q 2906 -266 2906 331 
L 2906 616 
Q 2728 306 2450 153 
Q 2172 0 1784 0 
Q 1141 0 747 490 
Q 353 981 353 1791 
Q 353 2603 747 3093 
Q 1141 3584 1784 3584 
Q 2172 3584 2450 3431 
Q 2728 3278 2906 2969 
L 2906 3500 
L 3481 3500 
L 3481 434 
z
" transform="scale(0.015625)"/>
      </defs>
      <use xlink:href="#DejaVuSans-53"/>
      <use xlink:href="#DejaVuSans-70" x="63.476562"/>
      <use xlink:href="#DejaVuSans-69" x="126.953125"/>
      <use xlink:href="#DejaVuSans-65" x="154.736328"/>
      <use xlink:href="#DejaVuSans-67" x="216.259766"/>
      <use xlink:href="#DejaVuSans-65" x="279.736328"/>
      <use xlink:href="#DejaVuSans-6c" x="341.259766"/>
      <use xlink:href="#DejaVuSans-75" x="369.042969"/>
      <use xlink:href="#DejaVuSans-6e" x="432.421875"/>
      <use xlink:href="#DejaVuSans-67" x="495.800781"/>
     </g>
    </g>
    <g id="LineCollection_3">
     <path d="M 360.565907 69.501305 
L 370.565907 69.501305 
" style="fill: none; stroke: #808080; stroke-width: 1.5"/>
    </g>
    <g id="LineCollection_4">
     <path d="M 365.565907 74.501305 
L 365.565907 64.501305 
" style="fill: none; stroke: #808080; stroke-width: 1.5"/>
    </g>
    <g id="line2d_20"/>
    <g id="line2d_21">
     <g>
      <use xlink:href="#m279030d6b3" x="365.565907" y="69.501305" style="fill: #808080; stroke: #808080"/>
     </g>
    </g>
    <g id="text_17">
     <!-- Messwerte -->
     <g transform="translate(383.565907 73.001305) scale(0.1 -0.1)">
      <defs>
       <path id="DejaVuSans-4d" d="M 628 4666 
L 1569 4666 
L 2759 1491 
L 3956 4666 
L 4897 4666 
L 4897 0 
L 4281 0 
L 4281 4097 
L 3078 897 
L 2444 897 
L 1241 4097 
L 1241 0 
L 628 0 
L 628 4666 
z
" transform="scale(0.015625)"/>
       <path id="DejaVuSans-77" d="M 269 3500 
L 844 3500 
L 1563 769 
L 2278 3500 
L 2956 3500 
L 3675 769 
L 4391 3500 
L 4966 3500 
L 4050 0 
L 3372 0 
L 2619 2869 
L 1863 0 
L 1184 0 
L 269 3500 
z
" transform="scale(0.015625)"/>
       <path id="DejaVuSans-72" d="M 2631 2963 
Q 2534 3019 2420 3045 
Q 2306 3072 2169 3072 
Q 1681 3072 1420 2755 
Q 1159 2438 1159 1844 
L 1159 0 
L 581 0 
L 581 3500 
L 1159 3500 
L 1159 2956 
Q 1341 3275 1631 3429 
Q 1922 3584 2338 3584 
Q 2397 3584 2469 3576 
Q 2541 3569 2628 3553 
L 2631 2963 
z
" transform="scale(0.015625)"/>
      </defs>
      <use xlink:href="#DejaVuSans-4d"/>
      <use xlink:href="#DejaVuSans-65" x="86.279297"/>
      <use xlink:href="#DejaVuSans-73" x="147.802734"/>
      <use xlink:href="#DejaVuSans-73" x="199.902344"/>
      <use xlink:href="#DejaVuSans-77" x="252.001953"/>
      <use xlink:href="#DejaVuSans-65" x="333.789062"/>
      <use xlink:href="#DejaVuSans-72" x="395.3125"/>
      <use xlink:href="#DejaVuSans-74" x="436.425781"/>
      <use xlink:href="#DejaVuSans-65" x="475.634766"/>
     </g>
    </g>
   </g>
  </g>
 </g>
 <defs>
  <clipPath id="p89c9fc364a">
   <path d="M 452.34 254.52 
C 452.34 229.038901 447.320779 203.805573 437.569584 180.264107 
C 427.81839 156.722641 413.524858 135.330858 395.507 117.313 
C 377.489142 99.295142 356.097359 85.00161 332.555893 75.250416 
C 309.014427 65.499221 283.781099 60.48 258.3 60.48 
C 232.818901 60.48 207.585573 65.499221 184.044107 75.250416 
C 160.502641 85.00161 139.110858 99.295142 121.093 117.313 
C 103.075142 135.330858 88.78161 156.722641 79.030416 180.264107 
C 69.279221 203.805573 64.26 229.038901 64.26 254.52 
C 64.26 280.001099 69.279221 305.234427 79.030416 328.775893 
C 88.78161 352.317359 103.075142 373.709142 121.093 391.727 
C 139.110858 409.744858 160.502641 424.03839 184.044107 433.789584 
C 207.585573 443.540779 232.818901 448.56 258.3 448.56 
C 283.781099 448.56 309.014427 443.540779 332.555893 433.789584 
C 356.097359 424.03839 377.489142 409.744858 395.507 391.727 
C 413.524858 373.709142 427.81839 352.317359 437.569584 328.775893 
C 447.320779 305.234427 452.34 280.001099 452.34 254.52 
M 258.3 254.52 
C 258.3 254.52 258.3 254.52 258.3 254.52 
C 258.3 254.52 258.3 254.52 258.3 254.52 
C 258.3 254.52 258.3 254.52 258.3 254.52 
C 258.3 254.52 258.3 254.52 258.3 254.52 
C 258.3 254.52 258.3 254.52 258.3 254.52 
C 258.3 254.52 258.3 254.52 258.3 254.52 
C 258.3 254.52 258.3 254.52 258.3 254.52 
C 258.3 254.52 258.3 254.52 258.3 254.52 
C 258.3 254.52 258.3 254.52 258.3 254.52 
C 258.3 254.52 258.3 254.52 258.3 254.52 
C 258.3 254.52 258.3 254.52 258.3 254.52 
C 258.3 254.52 258.3 254.52 258.3 254.52 
C 258.3 254.52 258.3 254.52 258.3 254.52 
C 258.3 254.52 258.3 254.52 258.3 254.52 
C 258.3 254.52 258.3 254.52 258.3 254.52 
C 258.3 254.52 258.3 254.52 258.3 254.52 
z
"/>
  </clipPath>
 </defs>
</svg>
