<?xml version="1.0" encoding="utf-8" standalone="no"?>
<!DOCTYPE svg PUBLIC "-//W3C//DTD SVG 1.1//EN"
  "http://www.w3.org/Graphics/SVG/1.1/DTD/svg11.dtd">
<svg xmlns:xlink="http://www.w3.org/1999/xlink" width="460.8pt" height="345.6pt" viewBox="0 0 460.8 345.6" xmlns="http://www.w3.org/2000/svg" version="1.1">
 <metadata>
  <rdf:RDF xmlns:dc="http://purl.org/dc/elements/1.1/" xmlns:cc="http://creativecommons.org/ns#" xmlns:rdf="http://www.w3.org/1999/02/22-rdf-syntax-ns#">
   <cc:Work>
    <dc:type rdf:resource="http://purl.org/dc/dcmitype/StillImage"/>
    <dc:date>2024-07-12T18:08:25.142466</dc:date>
    <dc:format>image/svg+xml</dc:format>
    <dc:creator>
     <cc:Agent>
      <dc:title>Matplotlib v3.8.2, https://matplotlib.org/</dc:title>
     </cc:Agent>
    </dc:creator>
   </cc:Work>
  </rdf:RDF>
 </metadata>
 <defs>
  <style type="text/css">*{stroke-linejoin: round; stroke-linecap: butt}</style>
 </defs>
 <g id="figure_1">
  <g id="patch_1">
   <path d="M 0 345.6 
L 460.8 345.6 
L 460.8 0 
L 0 0 
z
" style="fill: #ffffff"/>
  </g>
  <g id="axes_1">
   <g id="patch_2">
    <path d="M 57.6 307.584 
L 414.72 307.584 
L 414.72 41.472 
L 57.6 41.472 
z
" style="fill: #ffffff"/>
   </g>
   <g id="matplotlib.axis_1">
    <g id="xtick_1">
     <g id="line2d_1">
      <defs>
       <path id="m5dc3957e36" d="M 0 0 
L 0 3.5 
" style="stroke: #000000; stroke-width: 0.8"/>
      </defs>
      <g>
       <use xlink:href="#m5dc3957e36" x="73.829561" y="307.584" style="stroke: #000000; stroke-width: 0.8"/>
      </g>
     </g>
     <g id="text_1">
      <!-- 0 -->
      <g transform="translate(70.648311 322.182437) scale(0.1 -0.1)">
       <defs>
        <path id="DejaVuSans-30" d="M 2034 4250 
Q 1547 4250 1301 3770 
Q 1056 3291 1056 2328 
Q 1056 1369 1301 889 
Q 1547 409 2034 409 
Q 2525 409 2770 889 
Q 3016 1369 3016 2328 
Q 3016 3291 2770 3770 
Q 2525 4250 2034 4250 
z
M 2034 4750 
Q 2819 4750 3233 4129 
Q 3647 3509 3647 2328 
Q 3647 1150 3233 529 
Q 2819 -91 2034 -91 
Q 1250 -91 836 529 
Q 422 1150 422 2328 
Q 422 3509 836 4129 
Q 1250 4750 2034 4750 
z
" transform="scale(0.015625)"/>
       </defs>
       <use xlink:href="#DejaVuSans-30"/>
      </g>
     </g>
    </g>
    <g id="xtick_2">
     <g id="line2d_2">
      <g>
       <use xlink:href="#m5dc3957e36" x="131.217781" y="307.584" style="stroke: #000000; stroke-width: 0.8"/>
      </g>
     </g>
     <g id="text_2">
      <!-- 50 -->
      <g transform="translate(124.855281 322.182437) scale(0.1 -0.1)">
       <defs>
        <path id="DejaVuSans-35" d="M 691 4666 
L 3169 4666 
L 3169 4134 
L 1269 4134 
L 1269 2991 
Q 1406 3038 1543 3061 
Q 1681 3084 1819 3084 
Q 2600 3084 3056 2656 
Q 3513 2228 3513 1497 
Q 3513 744 3044 326 
Q 2575 -91 1722 -91 
Q 1428 -91 1123 -41 
Q 819 9 494 109 
L 494 744 
Q 775 591 1075 516 
Q 1375 441 1709 441 
Q 2250 441 2565 725 
Q 2881 1009 2881 1497 
Q 2881 1984 2565 2268 
Q 2250 2553 1709 2553 
Q 1456 2553 1204 2497 
Q 953 2441 691 2322 
L 691 4666 
z
" transform="scale(0.015625)"/>
       </defs>
       <use xlink:href="#DejaVuSans-35"/>
       <use xlink:href="#DejaVuSans-30" x="63.623047"/>
      </g>
     </g>
    </g>
    <g id="xtick_3">
     <g id="line2d_3">
      <g>
       <use xlink:href="#m5dc3957e36" x="188.606001" y="307.584" style="stroke: #000000; stroke-width: 0.8"/>
      </g>
     </g>
     <g id="text_3">
      <!-- 100 -->
      <g transform="translate(179.062251 322.182437) scale(0.1 -0.1)">
       <defs>
        <path id="DejaVuSans-31" d="M 794 531 
L 1825 531 
L 1825 4091 
L 703 3866 
L 703 4441 
L 1819 4666 
L 2450 4666 
L 2450 531 
L 3481 531 
L 3481 0 
L 794 0 
L 794 531 
z
" transform="scale(0.015625)"/>
       </defs>
       <use xlink:href="#DejaVuSans-31"/>
       <use xlink:href="#DejaVuSans-30" x="63.623047"/>
       <use xlink:href="#DejaVuSans-30" x="127.246094"/>
      </g>
     </g>
    </g>
    <g id="xtick_4">
     <g id="line2d_4">
      <g>
       <use xlink:href="#m5dc3957e36" x="245.994221" y="307.584" style="stroke: #000000; stroke-width: 0.8"/>
      </g>
     </g>
     <g id="text_4">
      <!-- 150 -->
      <g transform="translate(236.450471 322.182437) scale(0.1 -0.1)">
       <use xlink:href="#DejaVuSans-31"/>
       <use xlink:href="#DejaVuSans-35" x="63.623047"/>
       <use xlink:href="#DejaVuSans-30" x="127.246094"/>
      </g>
     </g>
    </g>
    <g id="xtick_5">
     <g id="line2d_5">
      <g>
       <use xlink:href="#m5dc3957e36" x="303.382441" y="307.584" style="stroke: #000000; stroke-width: 0.8"/>
      </g>
     </g>
     <g id="text_5">
      <!-- 200 -->
      <g transform="translate(293.838691 322.182437) scale(0.1 -0.1)">
       <defs>
        <path id="DejaVuSans-32" d="M 1228 531 
L 3431 531 
L 3431 0 
L 469 0 
L 469 531 
Q 828 903 1448 1529 
Q 2069 2156 2228 2338 
Q 2531 2678 2651 2914 
Q 2772 3150 2772 3378 
Q 2772 3750 2511 3984 
Q 2250 4219 1831 4219 
Q 1534 4219 1204 4116 
Q 875 4013 500 3803 
L 500 4441 
Q 881 4594 1212 4672 
Q 1544 4750 1819 4750 
Q 2544 4750 2975 4387 
Q 3406 4025 3406 3419 
Q 3406 3131 3298 2873 
Q 3191 2616 2906 2266 
Q 2828 2175 2409 1742 
Q 1991 1309 1228 531 
z
" transform="scale(0.015625)"/>
       </defs>
       <use xlink:href="#DejaVuSans-32"/>
       <use xlink:href="#DejaVuSans-30" x="63.623047"/>
       <use xlink:href="#DejaVuSans-30" x="127.246094"/>
      </g>
     </g>
    </g>
    <g id="xtick_6">
     <g id="line2d_6">
      <g>
       <use xlink:href="#m5dc3957e36" x="360.770661" y="307.584" style="stroke: #000000; stroke-width: 0.8"/>
      </g>
     </g>
     <g id="text_6">
      <!-- 250 -->
      <g transform="translate(351.226911 322.182437) scale(0.1 -0.1)">
       <use xlink:href="#DejaVuSans-32"/>
       <use xlink:href="#DejaVuSans-35" x="63.623047"/>
       <use xlink:href="#DejaVuSans-30" x="127.246094"/>
      </g>
     </g>
    </g>
    <g id="text_7">
     <!-- Zeit in s -->
     <g transform="translate(215.968594 335.860562) scale(0.1 -0.1)">
      <defs>
       <path id="DejaVuSans-5a" d="M 359 4666 
L 4025 4666 
L 4025 4184 
L 1075 531 
L 4097 531 
L 4097 0 
L 288 0 
L 288 481 
L 3238 4134 
L 359 4134 
L 359 4666 
z
" transform="scale(0.015625)"/>
       <path id="DejaVuSans-65" d="M 3597 1894 
L 3597 1613 
L 953 1613 
Q 991 1019 1311 708 
Q 1631 397 2203 397 
Q 2534 397 2845 478 
Q 3156 559 3463 722 
L 3463 178 
Q 3153 47 2828 -22 
Q 2503 -91 2169 -91 
Q 1331 -91 842 396 
Q 353 884 353 1716 
Q 353 2575 817 3079 
Q 1281 3584 2069 3584 
Q 2775 3584 3186 3129 
Q 3597 2675 3597 1894 
z
M 3022 2063 
Q 3016 2534 2758 2815 
Q 2500 3097 2075 3097 
Q 1594 3097 1305 2825 
Q 1016 2553 972 2059 
L 3022 2063 
z
" transform="scale(0.015625)"/>
       <path id="DejaVuSans-69" d="M 603 3500 
L 1178 3500 
L 1178 0 
L 603 0 
L 603 3500 
z
M 603 4863 
L 1178 4863 
L 1178 4134 
L 603 4134 
L 603 4863 
z
" transform="scale(0.015625)"/>
       <path id="DejaVuSans-74" d="M 1172 4494 
L 1172 3500 
L 2356 3500 
L 2356 3053 
L 1172 3053 
L 1172 1153 
Q 1172 725 1289 603 
Q 1406 481 1766 481 
L 2356 481 
L 2356 0 
L 1766 0 
Q 1100 0 847 248 
Q 594 497 594 1153 
L 594 3053 
L 172 3053 
L 172 3500 
L 594 3500 
L 594 4494 
L 1172 4494 
z
" transform="scale(0.015625)"/>
       <path id="DejaVuSans-20" transform="scale(0.015625)"/>
       <path id="DejaVuSans-6e" d="M 3513 2113 
L 3513 0 
L 2938 0 
L 2938 2094 
Q 2938 2591 2744 2837 
Q 2550 3084 2163 3084 
Q 1697 3084 1428 2787 
Q 1159 2491 1159 1978 
L 1159 0 
L 581 0 
L 581 3500 
L 1159 3500 
L 1159 2956 
Q 1366 3272 1645 3428 
Q 1925 3584 2291 3584 
Q 2894 3584 3203 3211 
Q 3513 2838 3513 2113 
z
" transform="scale(0.015625)"/>
       <path id="DejaVuSans-73" d="M 2834 3397 
L 2834 2853 
Q 2591 2978 2328 3040 
Q 2066 3103 1784 3103 
Q 1356 3103 1142 2972 
Q 928 2841 928 2578 
Q 928 2378 1081 2264 
Q 1234 2150 1697 2047 
L 1894 2003 
Q 2506 1872 2764 1633 
Q 3022 1394 3022 966 
Q 3022 478 2636 193 
Q 2250 -91 1575 -91 
Q 1294 -91 989 -36 
Q 684 19 347 128 
L 347 722 
Q 666 556 975 473 
Q 1284 391 1588 391 
Q 1994 391 2212 530 
Q 2431 669 2431 922 
Q 2431 1156 2273 1281 
Q 2116 1406 1581 1522 
L 1381 1569 
Q 847 1681 609 1914 
Q 372 2147 372 2553 
Q 372 3047 722 3315 
Q 1072 3584 1716 3584 
Q 2034 3584 2315 3537 
Q 2597 3491 2834 3397 
z
" transform="scale(0.015625)"/>
      </defs>
      <use xlink:href="#DejaVuSans-5a"/>
      <use xlink:href="#DejaVuSans-65" x="68.505859"/>
      <use xlink:href="#DejaVuSans-69" x="130.029297"/>
      <use xlink:href="#DejaVuSans-74" x="157.8125"/>
      <use xlink:href="#DejaVuSans-20" x="197.021484"/>
      <use xlink:href="#DejaVuSans-69" x="228.808594"/>
      <use xlink:href="#DejaVuSans-6e" x="256.591797"/>
      <use xlink:href="#DejaVuSans-20" x="319.970703"/>
      <use xlink:href="#DejaVuSans-73" x="351.757812"/>
     </g>
    </g>
   </g>
   <g id="matplotlib.axis_2">
    <g id="ytick_1">
     <g id="line2d_7">
      <defs>
       <path id="mf61d955e3c" d="M 0 0 
L -3.5 0 
" style="stroke: #000000; stroke-width: 0.8"/>
      </defs>
      <g>
       <use xlink:href="#mf61d955e3c" x="57.6" y="301.229534" style="stroke: #000000; stroke-width: 0.8"/>
      </g>
     </g>
     <g id="text_8">
      <!-- 0 -->
      <g transform="translate(44.2375 305.028753) scale(0.1 -0.1)">
       <use xlink:href="#DejaVuSans-30"/>
      </g>
     </g>
    </g>
    <g id="ytick_2">
     <g id="line2d_8">
      <g>
       <use xlink:href="#mf61d955e3c" x="57.6" y="244.802762" style="stroke: #000000; stroke-width: 0.8"/>
      </g>
     </g>
     <g id="text_9">
      <!-- 2 -->
      <g transform="translate(44.2375 248.60198) scale(0.1 -0.1)">
       <use xlink:href="#DejaVuSans-32"/>
      </g>
     </g>
    </g>
    <g id="ytick_3">
     <g id="line2d_9">
      <g>
       <use xlink:href="#mf61d955e3c" x="57.6" y="188.375989" style="stroke: #000000; stroke-width: 0.8"/>
      </g>
     </g>
     <g id="text_10">
      <!-- 4 -->
      <g transform="translate(44.2375 192.175208) scale(0.1 -0.1)">
       <defs>
        <path id="DejaVuSans-34" d="M 2419 4116 
L 825 1625 
L 2419 1625 
L 2419 4116 
z
M 2253 4666 
L 3047 4666 
L 3047 1625 
L 3713 1625 
L 3713 1100 
L 3047 1100 
L 3047 0 
L 2419 0 
L 2419 1100 
L 313 1100 
L 313 1709 
L 2253 4666 
z
" transform="scale(0.015625)"/>
       </defs>
       <use xlink:href="#DejaVuSans-34"/>
      </g>
     </g>
    </g>
    <g id="ytick_4">
     <g id="line2d_10">
      <g>
       <use xlink:href="#mf61d955e3c" x="57.6" y="131.949217" style="stroke: #000000; stroke-width: 0.8"/>
      </g>
     </g>
     <g id="text_11">
      <!-- 6 -->
      <g transform="translate(44.2375 135.748435) scale(0.1 -0.1)">
       <defs>
        <path id="DejaVuSans-36" d="M 2113 2584 
Q 1688 2584 1439 2293 
Q 1191 2003 1191 1497 
Q 1191 994 1439 701 
Q 1688 409 2113 409 
Q 2538 409 2786 701 
Q 3034 994 3034 1497 
Q 3034 2003 2786 2293 
Q 2538 2584 2113 2584 
z
M 3366 4563 
L 3366 3988 
Q 3128 4100 2886 4159 
Q 2644 4219 2406 4219 
Q 1781 4219 1451 3797 
Q 1122 3375 1075 2522 
Q 1259 2794 1537 2939 
Q 1816 3084 2150 3084 
Q 2853 3084 3261 2657 
Q 3669 2231 3669 1497 
Q 3669 778 3244 343 
Q 2819 -91 2113 -91 
Q 1303 -91 875 529 
Q 447 1150 447 2328 
Q 447 3434 972 4092 
Q 1497 4750 2381 4750 
Q 2619 4750 2861 4703 
Q 3103 4656 3366 4563 
z
" transform="scale(0.015625)"/>
       </defs>
       <use xlink:href="#DejaVuSans-36"/>
      </g>
     </g>
    </g>
    <g id="ytick_5">
     <g id="line2d_11">
      <g>
       <use xlink:href="#mf61d955e3c" x="57.6" y="75.522444" style="stroke: #000000; stroke-width: 0.8"/>
      </g>
     </g>
     <g id="text_12">
      <!-- 8 -->
      <g transform="translate(44.2375 79.321663) scale(0.1 -0.1)">
       <defs>
        <path id="DejaVuSans-38" d="M 2034 2216 
Q 1584 2216 1326 1975 
Q 1069 1734 1069 1313 
Q 1069 891 1326 650 
Q 1584 409 2034 409 
Q 2484 409 2743 651 
Q 3003 894 3003 1313 
Q 3003 1734 2745 1975 
Q 2488 2216 2034 2216 
z
M 1403 2484 
Q 997 2584 770 2862 
Q 544 3141 544 3541 
Q 544 4100 942 4425 
Q 1341 4750 2034 4750 
Q 2731 4750 3128 4425 
Q 3525 4100 3525 3541 
Q 3525 3141 3298 2862 
Q 3072 2584 2669 2484 
Q 3125 2378 3379 2068 
Q 3634 1759 3634 1313 
Q 3634 634 3220 271 
Q 2806 -91 2034 -91 
Q 1263 -91 848 271 
Q 434 634 434 1313 
Q 434 1759 690 2068 
Q 947 2378 1403 2484 
z
M 1172 3481 
Q 1172 3119 1398 2916 
Q 1625 2713 2034 2713 
Q 2441 2713 2670 2916 
Q 2900 3119 2900 3481 
Q 2900 3844 2670 4047 
Q 2441 4250 2034 4250 
Q 1625 4250 1398 4047 
Q 1172 3844 1172 3481 
z
" transform="scale(0.015625)"/>
       </defs>
       <use xlink:href="#DejaVuSans-38"/>
      </g>
     </g>
    </g>
    <g id="text_13">
     <!-- Spannung in V -->
     <g transform="translate(38.157812 210.945969) rotate(-90) scale(0.1 -0.1)">
      <defs>
       <path id="DejaVuSans-53" d="M 3425 4513 
L 3425 3897 
Q 3066 4069 2747 4153 
Q 2428 4238 2131 4238 
Q 1616 4238 1336 4038 
Q 1056 3838 1056 3469 
Q 1056 3159 1242 3001 
Q 1428 2844 1947 2747 
L 2328 2669 
Q 3034 2534 3370 2195 
Q 3706 1856 3706 1288 
Q 3706 609 3251 259 
Q 2797 -91 1919 -91 
Q 1588 -91 1214 -16 
Q 841 59 441 206 
L 441 856 
Q 825 641 1194 531 
Q 1563 422 1919 422 
Q 2459 422 2753 634 
Q 3047 847 3047 1241 
Q 3047 1584 2836 1778 
Q 2625 1972 2144 2069 
L 1759 2144 
Q 1053 2284 737 2584 
Q 422 2884 422 3419 
Q 422 4038 858 4394 
Q 1294 4750 2059 4750 
Q 2388 4750 2728 4690 
Q 3069 4631 3425 4513 
z
" transform="scale(0.015625)"/>
       <path id="DejaVuSans-70" d="M 1159 525 
L 1159 -1331 
L 581 -1331 
L 581 3500 
L 1159 3500 
L 1159 2969 
Q 1341 3281 1617 3432 
Q 1894 3584 2278 3584 
Q 2916 3584 3314 3078 
Q 3713 2572 3713 1747 
Q 3713 922 3314 415 
Q 2916 -91 2278 -91 
Q 1894 -91 1617 61 
Q 1341 213 1159 525 
z
M 3116 1747 
Q 3116 2381 2855 2742 
Q 2594 3103 2138 3103 
Q 1681 3103 1420 2742 
Q 1159 2381 1159 1747 
Q 1159 1113 1420 752 
Q 1681 391 2138 391 
Q 2594 391 2855 752 
Q 3116 1113 3116 1747 
z
" transform="scale(0.015625)"/>
       <path id="DejaVuSans-61" d="M 2194 1759 
Q 1497 1759 1228 1600 
Q 959 1441 959 1056 
Q 959 750 1161 570 
Q 1363 391 1709 391 
Q 2188 391 2477 730 
Q 2766 1069 2766 1631 
L 2766 1759 
L 2194 1759 
z
M 3341 1997 
L 3341 0 
L 2766 0 
L 2766 531 
Q 2569 213 2275 61 
Q 1981 -91 1556 -91 
Q 1019 -91 701 211 
Q 384 513 384 1019 
Q 384 1609 779 1909 
Q 1175 2209 1959 2209 
L 2766 2209 
L 2766 2266 
Q 2766 2663 2505 2880 
Q 2244 3097 1772 3097 
Q 1472 3097 1187 3025 
Q 903 2953 641 2809 
L 641 3341 
Q 956 3463 1253 3523 
Q 1550 3584 1831 3584 
Q 2591 3584 2966 3190 
Q 3341 2797 3341 1997 
z
" transform="scale(0.015625)"/>
       <path id="DejaVuSans-75" d="M 544 1381 
L 544 3500 
L 1119 3500 
L 1119 1403 
Q 1119 906 1312 657 
Q 1506 409 1894 409 
Q 2359 409 2629 706 
Q 2900 1003 2900 1516 
L 2900 3500 
L 3475 3500 
L 3475 0 
L 2900 0 
L 2900 538 
Q 2691 219 2414 64 
Q 2138 -91 1772 -91 
Q 1169 -91 856 284 
Q 544 659 544 1381 
z
M 1991 3584 
L 1991 3584 
z
" transform="scale(0.015625)"/>
       <path id="DejaVuSans-67" d="M 2906 1791 
Q 2906 2416 2648 2759 
Q 2391 3103 1925 3103 
Q 1463 3103 1205 2759 
Q 947 2416 947 1791 
Q 947 1169 1205 825 
Q 1463 481 1925 481 
Q 2391 481 2648 825 
Q 2906 1169 2906 1791 
z
M 3481 434 
Q 3481 -459 3084 -895 
Q 2688 -1331 1869 -1331 
Q 1566 -1331 1297 -1286 
Q 1028 -1241 775 -1147 
L 775 -588 
Q 1028 -725 1275 -790 
Q 1522 -856 1778 -856 
Q 2344 -856 2625 -561 
Q 2906 -266 2906 331 
L 2906 616 
Q 2728 306 2450 153 
Q 2172 0 1784 0 
Q 1141 0 747 490 
Q 353 981 353 1791 
Q 353 2603 747 3093 
Q 1141 3584 1784 3584 
Q 2172 3584 2450 3431 
Q 2728 3278 2906 2969 
L 2906 3500 
L 3481 3500 
L 3481 434 
z
" transform="scale(0.015625)"/>
       <path id="DejaVuSans-56" d="M 1831 0 
L 50 4666 
L 709 4666 
L 2188 738 
L 3669 4666 
L 4325 4666 
L 2547 0 
L 1831 0 
z
" transform="scale(0.015625)"/>
      </defs>
      <use xlink:href="#DejaVuSans-53"/>
      <use xlink:href="#DejaVuSans-70" x="63.476562"/>
      <use xlink:href="#DejaVuSans-61" x="126.953125"/>
      <use xlink:href="#DejaVuSans-6e" x="188.232422"/>
      <use xlink:href="#DejaVuSans-6e" x="251.611328"/>
      <use xlink:href="#DejaVuSans-75" x="314.990234"/>
      <use xlink:href="#DejaVuSans-6e" x="378.369141"/>
      <use xlink:href="#DejaVuSans-67" x="441.748047"/>
      <use xlink:href="#DejaVuSans-20" x="505.224609"/>
      <use xlink:href="#DejaVuSans-69" x="537.011719"/>
      <use xlink:href="#DejaVuSans-6e" x="564.794922"/>
      <use xlink:href="#DejaVuSans-20" x="628.173828"/>
      <use xlink:href="#DejaVuSans-56" x="659.960938"/>
     </g>
    </g>
    <g id="text_14">
     <!-- 1e−5 -->
     <g transform="translate(57.6 38.472) scale(0.1 -0.1)">
      <defs>
       <path id="DejaVuSans-2212" d="M 678 2272 
L 4684 2272 
L 4684 1741 
L 678 1741 
L 678 2272 
z
" transform="scale(0.015625)"/>
      </defs>
      <use xlink:href="#DejaVuSans-31"/>
      <use xlink:href="#DejaVuSans-65" x="63.623047"/>
      <use xlink:href="#DejaVuSans-2212" x="125.146484"/>
      <use xlink:href="#DejaVuSans-35" x="208.935547"/>
     </g>
    </g>
   </g>
   <g id="line2d_12">
    <path d="M 73.832727 288.879195 
L 73.948745 293.872645 
L 74.064802 293.459963 
L 74.994229 293.459963 
L 75.227367 293.654514 
L 77.323153 293.645082 
L 77.439464 293.159295 
L 78.487578 293.159295 
L 78.603948 292.51669 
L 79.767348 292.51669 
L 79.883552 295.210914 
L 80.812534 295.210914 
L 80.929041 293.029596 
L 81.976135 293.029596 
L 82.09268 292.532019 
L 83.024521 292.532019 
L 83.141105 293.08855 
L 84.30736 293.08855 
L 84.424061 293.579051 
L 85.357468 293.579051 
L 85.474072 292.121694 
L 86.523999 292.121694 
L 86.640407 293.984658 
L 87.573896 293.984658 
L 87.690591 291.93304 
L 88.857087 291.93304 
L 88.973256 292.876312 
L 90.023055 292.876312 
L 90.256411 293.154578 
L 91.073216 293.154578 
L 91.189905 293.560188 
L 92.356644 293.560188 
L 92.47326 292.06274 
L 93.40517 292.06274 
L 93.638581 291.80334 
L 94.57195 291.80334 
L 94.688604 293.324366 
L 95.621329 293.324366 
L 95.738124 292.162965 
L 96.905357 292.162965 
L 97.021781 294.20279 
L 97.95488 294.20279 
L 98.188252 294.432712 
L 99.121679 294.432712 
L 99.238377 292.857446 
L 100.172098 292.857446 
L 100.405556 293.082654 
L 103.671164 293.031954 
L 103.787882 294.888629 
L 104.954085 294.888629 
L 105.070711 294.041254 
L 107.169607 294.049509 
L 107.286101 295.297379 
L 108.218356 295.297379 
L 108.335115 293.200563 
L 109.501437 293.200563 
L 109.618095 295.488 
L 110.551462 295.488 
L 110.668194 293.725259 
L 111.718297 293.725259 
L 111.834811 293.121563 
L 112.768276 293.121563 
L 112.884937 292.557958 
L 115.218924 292.451842 
L 115.335623 293.890332 
L 116.269343 293.890332 
L 116.386048 291.846574 
L 117.553066 291.846574 
L 117.669857 293.263056 
L 119.768409 293.300785 
L 119.885056 293.949287 
L 120.818293 293.949287 
L 120.934889 294.456296 
L 122.099487 294.456296 
L 122.215843 292.475423 
L 123.148673 292.475423 
L 123.265299 293.689885 
L 125.597284 293.748839 
L 125.71385 292.137415 
L 126.646891 292.137415 
L 126.763472 293.819584 
L 127.812584 293.819584 
L 127.929154 292.669974 
L 128.861711 292.669974 
L 128.978203 293.412798 
L 130.143734 293.412798 
L 130.260218 292.791418 
L 131.192438 292.791418 
L 131.309264 293.764563 
L 132.358979 293.764563 
L 132.475667 292.508438 
L 133.407911 292.508438 
L 133.524488 291.455509 
L 134.690177 291.455509 
L 134.806762 292.781986 
L 135.7397 292.781986 
L 135.973124 292.911686 
L 136.90697 292.911686 
L 137.14047 292.717138 
L 138.190986 292.717138 
L 138.307686 293.640365 
L 139.239319 293.640365 
L 139.356064 292.746612 
L 140.40532 292.746612 
L 140.521823 292.386991 
L 141.455025 292.386991 
L 141.571704 294.291222 
L 142.736815 294.291222 
L 142.852264 293.418695 
L 144.951876 293.342053 
L 145.068607 292.469526 
L 145.999814 292.469526 
L 146.116435 293.21432 
L 147.280644 293.21432 
L 147.397414 292.602764 
L 148.331018 292.602764 
L 148.447796 291.190213 
L 149.497585 291.190213 
L 149.614252 290.182089 
L 150.780907 290.182089 
L 150.897519 290.744517 
L 151.830979 290.744517 
L 151.947608 289.323319 
L 152.99729 289.323319 
L 153.230565 289.027761 
L 154.046627 289.027761 
L 154.163433 288.293581 
L 155.329785 288.293581 
L 155.56276 287.95361 
L 156.379205 287.95361 
L 156.495868 288.784866 
L 157.545092 288.784866 
L 157.66189 288.018458 
L 158.594934 288.018458 
L 158.711626 286.727354 
L 159.876235 286.727354 
L 159.99281 284.853779 
L 161.042022 284.853779 
L 161.158653 284.375069 
L 162.092143 284.375069 
L 162.208882 282.883517 
L 163.375907 282.883517 
L 163.4925 282.248773 
L 164.425137 282.248773 
L 164.541866 279.699972 
L 165.591292 279.699972 
L 165.707977 276.680322 
L 166.641367 276.680322 
L 166.758007 273.547084 
L 167.924444 273.547084 
L 168.041096 269.803856 
L 168.974374 269.803856 
L 169.090782 265.297389 
L 170.140683 265.297389 
L 170.257314 259.749762 
L 171.190309 259.749762 
L 171.307097 254.42615 
L 172.473216 254.42615 
L 172.589859 251.967749 
L 173.639869 251.967749 
L 173.75652 247.504899 
L 174.689992 247.504899 
L 174.806381 241.473836 
L 175.972351 241.473836 
L 176.08895 235.100855 
L 177.022284 235.100855 
L 177.138951 229.341008 
L 178.188945 229.341008 
L 178.30558 220.96592 
L 179.238376 220.96592 
L 179.355149 214.57683 
L 180.520194 214.57683 
L 180.636789 207.576158 
L 181.569572 207.576158 
L 181.686297 198.226749 
L 182.73622 198.226749 
L 182.852905 194.540134 
L 183.786535 194.540134 
L 183.903212 187.55402 
L 185.070502 187.55402 
L 185.187205 179.094039 
L 186.236886 179.094039 
L 186.353392 170.302748 
L 187.286552 170.302748 
L 187.403198 160.464401 
L 188.569846 160.464401 
L 188.686356 151.355935 
L 189.61991 151.355935 
L 189.736194 144.116324 
L 190.786021 144.116324 
L 190.902457 136.729298 
L 191.835298 136.729298 
L 191.951874 129.155612 
L 193.117218 129.155612 
L 193.233817 120.266843 
L 194.166693 120.266843 
L 194.283424 112.530422 
L 195.334179 112.530422 
L 195.450998 104.443422 
L 196.617465 104.443422 
L 196.734054 95.013069 
L 197.667222 95.013069 
L 197.783827 90.809613 
L 198.833297 90.809613 
L 198.950028 82.83778 
L 199.882811 82.83778 
L 199.999444 78.470433 
L 201.165872 78.470433 
L 201.282404 72.268397 
L 202.215809 72.268397 
L 202.332539 68.45406 
L 203.381738 68.45406 
L 203.498281 64.008871 
L 204.431355 64.008871 
L 204.548015 60.695632 
L 205.714705 60.695632 
L 205.831395 57.612332 
L 206.764452 57.612332 
L 206.880994 56.881267 
L 207.930446 56.881267 
L 208.046969 54.572622 
L 209.213019 54.572622 
L 209.329784 54.175265 
L 210.263475 54.175265 
L 210.380203 53.568 
L 211.429663 53.568 
L 211.546172 54.027878 
L 212.478392 54.027878 
L 212.594903 55.307186 
L 213.760176 55.307186 
L 213.876903 57.742001 
L 214.809268 57.742001 
L 214.925804 59.439883 
L 215.97565 59.439883 
L 216.09237 63.93814 
L 217.024789 63.93814 
L 217.140183 63.142269 
L 218.306254 63.142269 
L 218.422546 69.986865 
L 219.354354 69.986865 
L 219.470889 72.119063 
L 220.519028 72.119063 
L 220.63561 72.751833 
L 221.802082 72.751833 
L 221.918626 77.258329 
L 222.85183 77.258329 
L 222.968476 82.308356 
L 224.018616 82.308356 
L 224.135264 88.074128 
L 225.068679 88.074128 
L 225.185427 89.282677 
L 226.35235 89.282677 
L 226.468912 95.836082 
L 227.400962 95.836082 
L 227.517514 100.833858 
L 228.567039 100.833858 
L 228.683633 104.78771 
L 229.616695 104.78771 
L 229.733371 110.889532 
L 230.899253 110.889532 
L 231.015777 116.790869 
L 232.065121 116.790869 
L 232.181324 121.566183 
L 233.114049 121.566183 
L 233.230841 126.211799 
L 234.39645 126.211799 
L 234.51276 133.100069 
L 235.44501 133.100069 
L 235.561515 140.048462 
L 236.612155 140.048462 
L 236.728894 145.024231 
L 237.66159 145.024231 
L 237.778208 149.487081 
L 238.94495 149.487081 
L 239.061635 154.686864 
L 239.994856 154.686864 
L 240.11146 159.980993 
L 241.161433 159.980993 
L 241.27818 165.850506 
L 242.211997 165.850506 
L 242.328825 170.313751 
L 243.494456 170.313751 
L 243.611034 174.330519 
L 244.659838 174.330519 
L 244.776283 177.956221 
L 245.709565 177.956221 
L 245.826239 181.959221 
L 246.993433 181.959221 
L 247.110187 186.154439 
L 248.044607 186.154439 
L 248.161391 188.255574 
L 249.209769 188.255574 
L 249.326274 191.087747 
L 250.259891 191.087747 
L 250.376634 194.811321 
L 251.543051 194.811321 
L 251.659853 197.322792 
L 252.59298 197.322792 
L 252.709613 200.435575 
L 253.759609 200.435575 
L 253.876325 201.479076 
L 254.809688 201.479076 
L 254.926299 204.468086 
L 256.092392 204.468086 
L 256.209021 207.48184 
L 257.258395 207.48184 
L 257.375245 211.243926 
L 258.307909 211.243926 
L 258.42458 212.002471 
L 259.591207 212.002471 
L 259.707844 214.095368 
L 260.64124 214.095368 
L 260.758395 216.488907 
L 261.808654 216.488907 
L 261.925407 218.183262 
L 262.856999 218.183262 
L 262.973843 222.484591 
L 264.139275 222.484591 
L 264.255766 223.508031 
L 265.189296 223.508031 
L 265.305991 226.334307 
L 266.356093 226.334307 
L 266.472225 226.737166 
L 267.637514 226.737166 
L 267.753987 229.771375 
L 268.686597 229.771375 
L 268.803141 231.783695 
L 269.852086 231.783695 
L 270.0851 232.120111 
L 270.90114 232.120111 
L 271.017648 234.859151 
L 272.183916 234.859151 
L 272.300717 237.83634 
L 273.234315 237.83634 
L 273.351002 238.414094 
L 274.400874 238.414094 
L 274.517482 240.506991 
L 275.45066 240.506991 
L 275.567292 242.983083 
L 276.733904 242.983083 
L 276.850675 243.69643 
L 277.782789 243.69643 
L 277.899277 246.591095 
L 280.230909 246.543923 
L 280.347511 248.265419 
L 281.27892 248.265419 
L 281.39569 248.719372 
L 282.444864 248.719372 
L 282.561415 250.348864 
L 283.494207 250.348864 
L 283.610912 249.845397 
L 284.774444 249.845397 
L 284.890874 252.569089 
L 285.823746 252.569089 
L 285.940575 255.892174 
L 286.990079 255.892174 
L 287.106866 254.850649 
L 288.0402 254.850649 
L 288.156803 256.053301 
L 289.320392 256.053301 
L 289.436968 257.338505 
L 290.486919 257.338505 
L 290.603563 259.64952 
L 291.536832 259.64952 
L 291.653507 260.421833 
L 292.820458 260.421833 
L 292.937202 262.331964 
L 293.870949 262.331964 
L 293.987684 261.129284 
L 295.038352 261.129284 
L 295.155003 262.07257 
L 296.087417 262.07257 
L 296.203858 264.475956 
L 297.370263 264.475956 
L 297.48702 263.682031 
L 298.4208 263.682031 
L 298.537539 264.625289 
L 299.587774 264.625289 
L 299.704399 266.700497 
L 300.636798 266.700497 
L 300.753069 264.660669 
L 301.918412 264.660669 
L 302.034982 266.458793 
L 303.084626 266.458793 
L 303.201194 267.66263 
L 304.134294 267.66263 
L 304.25102 266.944176 
L 305.417785 266.944176 
L 305.534507 268.987925 
L 306.467376 268.987925 
L 306.700522 269.276802 
L 307.633785 269.276802 
L 307.867189 269.064581 
L 308.684336 269.064581 
L 308.80103 270.691732 
L 309.967361 270.691732 
L 310.083822 273.124183 
L 311.016429 273.124183 
L 311.132993 271.79417 
L 312.181701 271.79417 
L 312.29845 273.204359 
L 313.230977 273.204359 
L 313.347565 272.755118 
L 315.68071 272.745299 
L 315.797423 273.864651 
L 316.729987 273.864651 
L 316.846525 275.842379 
L 318.0121 275.842379 
L 318.128806 275.378604 
L 319.061887 275.378604 
L 319.17842 275.962255 
L 320.227324 275.962255 
L 320.343895 274.806744 
L 321.27652 274.806744 
L 321.39325 274.276155 
L 322.558668 274.276155 
L 322.674932 276.203967 
L 323.608356 276.203967 
L 323.724894 275.425771 
L 324.775258 275.425771 
L 324.89204 276.95387 
L 326.058689 276.95387 
L 326.175205 278.414765 
L 327.107733 278.414765 
L 327.340769 278.267378 
L 328.273277 278.267378 
L 328.50672 278.402975 
L 329.323806 278.402975 
L 329.556459 278.579836 
L 330.605361 278.579836 
L 330.722045 279.279037 
L 331.654599 279.279037 
L 331.771337 279.994746 
L 332.821334 279.994746 
L 332.938077 281.352665 
L 333.87123 281.352665 
L 333.987882 280.849586 
L 335.154301 280.849586 
L 335.27101 281.645474 
L 336.204484 281.645474 
L 336.321194 282.134796 
L 337.371949 282.134796 
L 337.488702 281.071256 
L 338.65592 281.071256 
L 338.889371 280.914435 
L 339.70642 280.914435 
L 339.823117 282.966056 
L 340.873598 282.966056 
L 340.990324 282.134796 
L 341.923886 282.134796 
L 342.04034 283.482888 
L 343.205996 283.482888 
L 343.322715 282.924785 
L 344.256708 282.924785 
L 344.37337 284.174624 
L 345.423143 284.174624 
L 345.539317 282.971949 
L 346.471942 282.971949 
L 346.588539 281.733904 
L 347.753798 281.733904 
L 347.870407 282.553373 
L 348.802417 282.553373 
L 348.918989 283.532019 
L 349.968183 283.532019 
L 350.20155 283.850373 
L 352.306159 283.87985 
L 352.539375 283.602764 
L 353.472423 283.602764 
L 353.589078 285.990423 
L 354.521897 285.990423 
L 354.638429 285.601321 
L 355.80428 285.601321 
L 355.920909 286.916009 
L 358.02047 286.986757 
L 358.137098 286.301702 
L 359.069979 286.301702 
L 359.186736 285.84107 
L 361.401982 285.801769 
L 361.518528 287.5311 
L 363.850172 287.476078 
L 363.966802 287.999595 
L 364.899529 287.999595 
L 365.016251 288.639449 
L 366.065774 288.639449 
L 366.182387 286.202659 
L 367.115431 286.202659 
L 367.348807 286.444371 
L 368.39804 286.444371 
L 368.513552 288.136367 
L 369.445879 288.136367 
L 369.678923 287.788536 
L 370.610728 287.788536 
L 370.727284 287.216679 
L 371.660678 287.216679 
L 371.777417 287.588091 
L 372.942284 287.588091 
L 373.058817 287.994877 
L 373.991962 287.994877 
L 374.108655 287.163618 
L 376.441521 287.13414 
L 376.5582 288.507783 
L 377.490832 288.507783 
L 377.6075 286.408997 
L 378.657279 286.408997 
L 378.773857 287.711894 
L 379.707169 287.711894 
L 379.823842 288.490096 
L 380.990656 288.490096 
L 381.107379 290.134928 
L 382.041181 290.134928 
L 382.157858 288.596212 
L 384.258654 288.531363 
L 384.375298 289.480532 
L 385.542381 289.480532 
L 385.65917 287.178946 
L 386.592149 287.178946 
L 386.708597 289.126807 
L 387.757864 289.126807 
L 387.991339 289.282446 
L 389.041448 289.282446 
L 389.158163 287.853387 
L 391.256529 287.747268 
L 391.373024 290.381357 
L 392.306222 290.381357 
L 392.422805 292.341793 
L 393.589373 292.341793 
L 393.705995 289.90972 
L 394.639065 289.90972 
L 394.755772 290.294105 
L 395.806182 290.294105 
L 395.922861 289.38031 
L 396.855032 289.38031 
L 397.088355 289.050162 
L 398.137032 289.050162 
L 398.253588 290.565295 
L 398.487273 290.565295 
L 398.487273 290.565295 
" clip-path="url(#pe98bdde1e6)" style="fill: none; stroke: #1f77b4; stroke-width: 1.5; stroke-linecap: square"/>
   </g>
   <g id="patch_3">
    <path d="M 57.6 307.584 
L 57.6 41.472 
" style="fill: none; stroke: #000000; stroke-width: 0.8; stroke-linejoin: miter; stroke-linecap: square"/>
   </g>
   <g id="patch_4">
    <path d="M 414.72 307.584 
L 414.72 41.472 
" style="fill: none; stroke: #000000; stroke-width: 0.8; stroke-linejoin: miter; stroke-linecap: square"/>
   </g>
   <g id="patch_5">
    <path d="M 57.6 307.584 
L 414.72 307.584 
" style="fill: none; stroke: #000000; stroke-width: 0.8; stroke-linejoin: miter; stroke-linecap: square"/>
   </g>
   <g id="patch_6">
    <path d="M 57.6 41.472 
L 414.72 41.472 
" style="fill: none; stroke: #000000; stroke-width: 0.8; stroke-linejoin: miter; stroke-linecap: square"/>
   </g>
   <g id="legend_1">
    <g id="patch_7">
     <path d="M 356.6325 64.150125 
L 407.72 64.150125 
Q 409.72 64.150125 409.72 62.150125 
L 409.72 48.472 
Q 409.72 46.472 407.72 46.472 
L 356.6325 46.472 
Q 354.6325 46.472 354.6325 48.472 
L 354.6325 62.150125 
Q 354.6325 64.150125 356.6325 64.150125 
z
" style="fill: #ffffff; opacity: 0.8; stroke: #cccccc; stroke-linejoin: miter"/>
    </g>
    <g id="line2d_13">
     <path d="M 358.6325 54.570438 
L 368.6325 54.570438 
L 378.6325 54.570438 
" style="fill: none; stroke: #1f77b4; stroke-width: 1.5; stroke-linecap: square"/>
    </g>
    <g id="text_15">
     <!-- 441 -->
     <g transform="translate(386.6325 58.070438) scale(0.1 -0.1)">
      <use xlink:href="#DejaVuSans-34"/>
      <use xlink:href="#DejaVuSans-34" x="63.623047"/>
      <use xlink:href="#DejaVuSans-31" x="127.246094"/>
     </g>
    </g>
   </g>
  </g>
 </g>
 <defs>
  <clipPath id="pe98bdde1e6">
   <rect x="57.6" y="41.472" width="357.12" height="266.112"/>
  </clipPath>
 </defs>
</svg>
