<?xml version="1.0" encoding="utf-8" standalone="no"?>
<!DOCTYPE svg PUBLIC "-//W3C//DTD SVG 1.1//EN"
  "http://www.w3.org/Graphics/SVG/1.1/DTD/svg11.dtd">
<svg xmlns:xlink="http://www.w3.org/1999/xlink" width="433.55125pt" height="310.86825pt" viewBox="0 0 433.55125 310.86825" xmlns="http://www.w3.org/2000/svg" version="1.1">
 <metadata>
  <rdf:RDF xmlns:dc="http://purl.org/dc/elements/1.1/" xmlns:cc="http://creativecommons.org/ns#" xmlns:rdf="http://www.w3.org/1999/02/22-rdf-syntax-ns#">
   <cc:Work>
    <dc:type rdf:resource="http://purl.org/dc/dcmitype/StillImage"/>
    <dc:date>2024-07-12T15:37:52.103808</dc:date>
    <dc:format>image/svg+xml</dc:format>
    <dc:creator>
     <cc:Agent>
      <dc:title>Matplotlib v3.8.2, https://matplotlib.org/</dc:title>
     </cc:Agent>
    </dc:creator>
   </cc:Work>
  </rdf:RDF>
 </metadata>
 <defs>
  <style type="text/css">*{stroke-linejoin: round; stroke-linecap: butt}</style>
 </defs>
 <g id="figure_1">
  <g id="patch_1">
   <path d="M 0 310.86825 
L 433.55125 310.86825 
L 433.55125 0 
L 0 0 
z
" style="fill: #ffffff"/>
  </g>
  <g id="axes_1">
   <g id="patch_2">
    <path d="M 69.23125 273.312 
L 426.35125 273.312 
L 426.35125 7.2 
L 69.23125 7.2 
z
" style="fill: #ffffff"/>
   </g>
   <g id="matplotlib.axis_1">
    <g id="xtick_1">
     <g id="line2d_1">
      <defs>
       <path id="me3c5cfea5d" d="M 0 0 
L 0 3.5 
" style="stroke: #000000; stroke-width: 0.8"/>
      </defs>
      <g>
       <use xlink:href="#me3c5cfea5d" x="88.847601" y="273.312" style="stroke: #000000; stroke-width: 0.8"/>
      </g>
     </g>
     <g id="text_1">
      <!-- 0.0 -->
      <g transform="translate(80.896039 287.910437) scale(0.1 -0.1)">
       <defs>
        <path id="DejaVuSans-30" d="M 2034 4250 
Q 1547 4250 1301 3770 
Q 1056 3291 1056 2328 
Q 1056 1369 1301 889 
Q 1547 409 2034 409 
Q 2525 409 2770 889 
Q 3016 1369 3016 2328 
Q 3016 3291 2770 3770 
Q 2525 4250 2034 4250 
z
M 2034 4750 
Q 2819 4750 3233 4129 
Q 3647 3509 3647 2328 
Q 3647 1150 3233 529 
Q 2819 -91 2034 -91 
Q 1250 -91 836 529 
Q 422 1150 422 2328 
Q 422 3509 836 4129 
Q 1250 4750 2034 4750 
z
" transform="scale(0.015625)"/>
        <path id="DejaVuSans-2e" d="M 684 794 
L 1344 794 
L 1344 0 
L 684 0 
L 684 794 
z
" transform="scale(0.015625)"/>
       </defs>
       <use xlink:href="#DejaVuSans-30"/>
       <use xlink:href="#DejaVuSans-2e" x="63.623047"/>
       <use xlink:href="#DejaVuSans-30" x="95.410156"/>
      </g>
     </g>
    </g>
    <g id="xtick_2">
     <g id="line2d_2">
      <g>
       <use xlink:href="#me3c5cfea5d" x="133.025445" y="273.312" style="stroke: #000000; stroke-width: 0.8"/>
      </g>
     </g>
     <g id="text_2">
      <!-- 0.2 -->
      <g transform="translate(125.073882 287.910437) scale(0.1 -0.1)">
       <defs>
        <path id="DejaVuSans-32" d="M 1228 531 
L 3431 531 
L 3431 0 
L 469 0 
L 469 531 
Q 828 903 1448 1529 
Q 2069 2156 2228 2338 
Q 2531 2678 2651 2914 
Q 2772 3150 2772 3378 
Q 2772 3750 2511 3984 
Q 2250 4219 1831 4219 
Q 1534 4219 1204 4116 
Q 875 4013 500 3803 
L 500 4441 
Q 881 4594 1212 4672 
Q 1544 4750 1819 4750 
Q 2544 4750 2975 4387 
Q 3406 4025 3406 3419 
Q 3406 3131 3298 2873 
Q 3191 2616 2906 2266 
Q 2828 2175 2409 1742 
Q 1991 1309 1228 531 
z
" transform="scale(0.015625)"/>
       </defs>
       <use xlink:href="#DejaVuSans-30"/>
       <use xlink:href="#DejaVuSans-2e" x="63.623047"/>
       <use xlink:href="#DejaVuSans-32" x="95.410156"/>
      </g>
     </g>
    </g>
    <g id="xtick_3">
     <g id="line2d_3">
      <g>
       <use xlink:href="#me3c5cfea5d" x="177.203289" y="273.312" style="stroke: #000000; stroke-width: 0.8"/>
      </g>
     </g>
     <g id="text_3">
      <!-- 0.4 -->
      <g transform="translate(169.251726 287.910437) scale(0.1 -0.1)">
       <defs>
        <path id="DejaVuSans-34" d="M 2419 4116 
L 825 1625 
L 2419 1625 
L 2419 4116 
z
M 2253 4666 
L 3047 4666 
L 3047 1625 
L 3713 1625 
L 3713 1100 
L 3047 1100 
L 3047 0 
L 2419 0 
L 2419 1100 
L 313 1100 
L 313 1709 
L 2253 4666 
z
" transform="scale(0.015625)"/>
       </defs>
       <use xlink:href="#DejaVuSans-30"/>
       <use xlink:href="#DejaVuSans-2e" x="63.623047"/>
       <use xlink:href="#DejaVuSans-34" x="95.410156"/>
      </g>
     </g>
    </g>
    <g id="xtick_4">
     <g id="line2d_4">
      <g>
       <use xlink:href="#me3c5cfea5d" x="221.381132" y="273.312" style="stroke: #000000; stroke-width: 0.8"/>
      </g>
     </g>
     <g id="text_4">
      <!-- 0.6 -->
      <g transform="translate(213.42957 287.910437) scale(0.1 -0.1)">
       <defs>
        <path id="DejaVuSans-36" d="M 2113 2584 
Q 1688 2584 1439 2293 
Q 1191 2003 1191 1497 
Q 1191 994 1439 701 
Q 1688 409 2113 409 
Q 2538 409 2786 701 
Q 3034 994 3034 1497 
Q 3034 2003 2786 2293 
Q 2538 2584 2113 2584 
z
M 3366 4563 
L 3366 3988 
Q 3128 4100 2886 4159 
Q 2644 4219 2406 4219 
Q 1781 4219 1451 3797 
Q 1122 3375 1075 2522 
Q 1259 2794 1537 2939 
Q 1816 3084 2150 3084 
Q 2853 3084 3261 2657 
Q 3669 2231 3669 1497 
Q 3669 778 3244 343 
Q 2819 -91 2113 -91 
Q 1303 -91 875 529 
Q 447 1150 447 2328 
Q 447 3434 972 4092 
Q 1497 4750 2381 4750 
Q 2619 4750 2861 4703 
Q 3103 4656 3366 4563 
z
" transform="scale(0.015625)"/>
       </defs>
       <use xlink:href="#DejaVuSans-30"/>
       <use xlink:href="#DejaVuSans-2e" x="63.623047"/>
       <use xlink:href="#DejaVuSans-36" x="95.410156"/>
      </g>
     </g>
    </g>
    <g id="xtick_5">
     <g id="line2d_5">
      <g>
       <use xlink:href="#me3c5cfea5d" x="265.558976" y="273.312" style="stroke: #000000; stroke-width: 0.8"/>
      </g>
     </g>
     <g id="text_5">
      <!-- 0.8 -->
      <g transform="translate(257.607414 287.910437) scale(0.1 -0.1)">
       <defs>
        <path id="DejaVuSans-38" d="M 2034 2216 
Q 1584 2216 1326 1975 
Q 1069 1734 1069 1313 
Q 1069 891 1326 650 
Q 1584 409 2034 409 
Q 2484 409 2743 651 
Q 3003 894 3003 1313 
Q 3003 1734 2745 1975 
Q 2488 2216 2034 2216 
z
M 1403 2484 
Q 997 2584 770 2862 
Q 544 3141 544 3541 
Q 544 4100 942 4425 
Q 1341 4750 2034 4750 
Q 2731 4750 3128 4425 
Q 3525 4100 3525 3541 
Q 3525 3141 3298 2862 
Q 3072 2584 2669 2484 
Q 3125 2378 3379 2068 
Q 3634 1759 3634 1313 
Q 3634 634 3220 271 
Q 2806 -91 2034 -91 
Q 1263 -91 848 271 
Q 434 634 434 1313 
Q 434 1759 690 2068 
Q 947 2378 1403 2484 
z
M 1172 3481 
Q 1172 3119 1398 2916 
Q 1625 2713 2034 2713 
Q 2441 2713 2670 2916 
Q 2900 3119 2900 3481 
Q 2900 3844 2670 4047 
Q 2441 4250 2034 4250 
Q 1625 4250 1398 4047 
Q 1172 3844 1172 3481 
z
" transform="scale(0.015625)"/>
       </defs>
       <use xlink:href="#DejaVuSans-30"/>
       <use xlink:href="#DejaVuSans-2e" x="63.623047"/>
       <use xlink:href="#DejaVuSans-38" x="95.410156"/>
      </g>
     </g>
    </g>
    <g id="xtick_6">
     <g id="line2d_6">
      <g>
       <use xlink:href="#me3c5cfea5d" x="309.73682" y="273.312" style="stroke: #000000; stroke-width: 0.8"/>
      </g>
     </g>
     <g id="text_6">
      <!-- 1.0 -->
      <g transform="translate(301.785257 287.910437) scale(0.1 -0.1)">
       <defs>
        <path id="DejaVuSans-31" d="M 794 531 
L 1825 531 
L 1825 4091 
L 703 3866 
L 703 4441 
L 1819 4666 
L 2450 4666 
L 2450 531 
L 3481 531 
L 3481 0 
L 794 0 
L 794 531 
z
" transform="scale(0.015625)"/>
       </defs>
       <use xlink:href="#DejaVuSans-31"/>
       <use xlink:href="#DejaVuSans-2e" x="63.623047"/>
       <use xlink:href="#DejaVuSans-30" x="95.410156"/>
      </g>
     </g>
    </g>
    <g id="xtick_7">
     <g id="line2d_7">
      <g>
       <use xlink:href="#me3c5cfea5d" x="353.914664" y="273.312" style="stroke: #000000; stroke-width: 0.8"/>
      </g>
     </g>
     <g id="text_7">
      <!-- 1.2 -->
      <g transform="translate(345.963101 287.910437) scale(0.1 -0.1)">
       <use xlink:href="#DejaVuSans-31"/>
       <use xlink:href="#DejaVuSans-2e" x="63.623047"/>
       <use xlink:href="#DejaVuSans-32" x="95.410156"/>
      </g>
     </g>
    </g>
    <g id="xtick_8">
     <g id="line2d_8">
      <g>
       <use xlink:href="#me3c5cfea5d" x="398.092507" y="273.312" style="stroke: #000000; stroke-width: 0.8"/>
      </g>
     </g>
     <g id="text_8">
      <!-- 1.4 -->
      <g transform="translate(390.140945 287.910437) scale(0.1 -0.1)">
       <use xlink:href="#DejaVuSans-31"/>
       <use xlink:href="#DejaVuSans-2e" x="63.623047"/>
       <use xlink:href="#DejaVuSans-34" x="95.410156"/>
      </g>
     </g>
    </g>
    <g id="text_9">
     <!-- Wellenlänge in m -->
     <g transform="translate(204.562344 301.588562) scale(0.1 -0.1)">
      <defs>
       <path id="DejaVuSans-57" d="M 213 4666 
L 850 4666 
L 1831 722 
L 2809 4666 
L 3519 4666 
L 4500 722 
L 5478 4666 
L 6119 4666 
L 4947 0 
L 4153 0 
L 3169 4050 
L 2175 0 
L 1381 0 
L 213 4666 
z
" transform="scale(0.015625)"/>
       <path id="DejaVuSans-65" d="M 3597 1894 
L 3597 1613 
L 953 1613 
Q 991 1019 1311 708 
Q 1631 397 2203 397 
Q 2534 397 2845 478 
Q 3156 559 3463 722 
L 3463 178 
Q 3153 47 2828 -22 
Q 2503 -91 2169 -91 
Q 1331 -91 842 396 
Q 353 884 353 1716 
Q 353 2575 817 3079 
Q 1281 3584 2069 3584 
Q 2775 3584 3186 3129 
Q 3597 2675 3597 1894 
z
M 3022 2063 
Q 3016 2534 2758 2815 
Q 2500 3097 2075 3097 
Q 1594 3097 1305 2825 
Q 1016 2553 972 2059 
L 3022 2063 
z
" transform="scale(0.015625)"/>
       <path id="DejaVuSans-6c" d="M 603 4863 
L 1178 4863 
L 1178 0 
L 603 0 
L 603 4863 
z
" transform="scale(0.015625)"/>
       <path id="DejaVuSans-6e" d="M 3513 2113 
L 3513 0 
L 2938 0 
L 2938 2094 
Q 2938 2591 2744 2837 
Q 2550 3084 2163 3084 
Q 1697 3084 1428 2787 
Q 1159 2491 1159 1978 
L 1159 0 
L 581 0 
L 581 3500 
L 1159 3500 
L 1159 2956 
Q 1366 3272 1645 3428 
Q 1925 3584 2291 3584 
Q 2894 3584 3203 3211 
Q 3513 2838 3513 2113 
z
" transform="scale(0.015625)"/>
       <path id="DejaVuSans-e4" d="M 2194 1759 
Q 1497 1759 1228 1600 
Q 959 1441 959 1056 
Q 959 750 1161 570 
Q 1363 391 1709 391 
Q 2188 391 2477 730 
Q 2766 1069 2766 1631 
L 2766 1759 
L 2194 1759 
z
M 3341 1997 
L 3341 0 
L 2766 0 
L 2766 531 
Q 2569 213 2275 61 
Q 1981 -91 1556 -91 
Q 1019 -91 701 211 
Q 384 513 384 1019 
Q 384 1609 779 1909 
Q 1175 2209 1959 2209 
L 2766 2209 
L 2766 2266 
Q 2766 2663 2505 2880 
Q 2244 3097 1772 3097 
Q 1472 3097 1187 3025 
Q 903 2953 641 2809 
L 641 3341 
Q 956 3463 1253 3523 
Q 1550 3584 1831 3584 
Q 2591 3584 2966 3190 
Q 3341 2797 3341 1997 
z
M 2150 4850 
L 2784 4850 
L 2784 4219 
L 2150 4219 
L 2150 4850 
z
M 928 4850 
L 1562 4850 
L 1562 4219 
L 928 4219 
L 928 4850 
z
" transform="scale(0.015625)"/>
       <path id="DejaVuSans-67" d="M 2906 1791 
Q 2906 2416 2648 2759 
Q 2391 3103 1925 3103 
Q 1463 3103 1205 2759 
Q 947 2416 947 1791 
Q 947 1169 1205 825 
Q 1463 481 1925 481 
Q 2391 481 2648 825 
Q 2906 1169 2906 1791 
z
M 3481 434 
Q 3481 -459 3084 -895 
Q 2688 -1331 1869 -1331 
Q 1566 -1331 1297 -1286 
Q 1028 -1241 775 -1147 
L 775 -588 
Q 1028 -725 1275 -790 
Q 1522 -856 1778 -856 
Q 2344 -856 2625 -561 
Q 2906 -266 2906 331 
L 2906 616 
Q 2728 306 2450 153 
Q 2172 0 1784 0 
Q 1141 0 747 490 
Q 353 981 353 1791 
Q 353 2603 747 3093 
Q 1141 3584 1784 3584 
Q 2172 3584 2450 3431 
Q 2728 3278 2906 2969 
L 2906 3500 
L 3481 3500 
L 3481 434 
z
" transform="scale(0.015625)"/>
       <path id="DejaVuSans-20" transform="scale(0.015625)"/>
       <path id="DejaVuSans-69" d="M 603 3500 
L 1178 3500 
L 1178 0 
L 603 0 
L 603 3500 
z
M 603 4863 
L 1178 4863 
L 1178 4134 
L 603 4134 
L 603 4863 
z
" transform="scale(0.015625)"/>
       <path id="DejaVuSans-6d" d="M 3328 2828 
Q 3544 3216 3844 3400 
Q 4144 3584 4550 3584 
Q 5097 3584 5394 3201 
Q 5691 2819 5691 2113 
L 5691 0 
L 5113 0 
L 5113 2094 
Q 5113 2597 4934 2840 
Q 4756 3084 4391 3084 
Q 3944 3084 3684 2787 
Q 3425 2491 3425 1978 
L 3425 0 
L 2847 0 
L 2847 2094 
Q 2847 2600 2669 2842 
Q 2491 3084 2119 3084 
Q 1678 3084 1418 2786 
Q 1159 2488 1159 1978 
L 1159 0 
L 581 0 
L 581 3500 
L 1159 3500 
L 1159 2956 
Q 1356 3278 1631 3431 
Q 1906 3584 2284 3584 
Q 2666 3584 2933 3390 
Q 3200 3197 3328 2828 
z
" transform="scale(0.015625)"/>
      </defs>
      <use xlink:href="#DejaVuSans-57"/>
      <use xlink:href="#DejaVuSans-65" x="93.001953"/>
      <use xlink:href="#DejaVuSans-6c" x="154.525391"/>
      <use xlink:href="#DejaVuSans-6c" x="182.308594"/>
      <use xlink:href="#DejaVuSans-65" x="210.091797"/>
      <use xlink:href="#DejaVuSans-6e" x="271.615234"/>
      <use xlink:href="#DejaVuSans-6c" x="334.994141"/>
      <use xlink:href="#DejaVuSans-e4" x="362.777344"/>
      <use xlink:href="#DejaVuSans-6e" x="424.056641"/>
      <use xlink:href="#DejaVuSans-67" x="487.435547"/>
      <use xlink:href="#DejaVuSans-65" x="550.912109"/>
      <use xlink:href="#DejaVuSans-20" x="612.435547"/>
      <use xlink:href="#DejaVuSans-69" x="644.222656"/>
      <use xlink:href="#DejaVuSans-6e" x="672.005859"/>
      <use xlink:href="#DejaVuSans-20" x="735.384766"/>
      <use xlink:href="#DejaVuSans-6d" x="767.171875"/>
     </g>
    </g>
    <g id="text_10">
     <!-- 1e−5 -->
     <g transform="translate(399.093438 300.588562) scale(0.1 -0.1)">
      <defs>
       <path id="DejaVuSans-2212" d="M 678 2272 
L 4684 2272 
L 4684 1741 
L 678 1741 
L 678 2272 
z
" transform="scale(0.015625)"/>
       <path id="DejaVuSans-35" d="M 691 4666 
L 3169 4666 
L 3169 4134 
L 1269 4134 
L 1269 2991 
Q 1406 3038 1543 3061 
Q 1681 3084 1819 3084 
Q 2600 3084 3056 2656 
Q 3513 2228 3513 1497 
Q 3513 744 3044 326 
Q 2575 -91 1722 -91 
Q 1428 -91 1123 -41 
Q 819 9 494 109 
L 494 744 
Q 775 591 1075 516 
Q 1375 441 1709 441 
Q 2250 441 2565 725 
Q 2881 1009 2881 1497 
Q 2881 1984 2565 2268 
Q 2250 2553 1709 2553 
Q 1456 2553 1204 2497 
Q 953 2441 691 2322 
L 691 4666 
z
" transform="scale(0.015625)"/>
      </defs>
      <use xlink:href="#DejaVuSans-31"/>
      <use xlink:href="#DejaVuSans-65" x="63.623047"/>
      <use xlink:href="#DejaVuSans-2212" x="125.146484"/>
      <use xlink:href="#DejaVuSans-35" x="208.935547"/>
     </g>
    </g>
   </g>
   <g id="matplotlib.axis_2">
    <g id="ytick_1">
     <g id="line2d_9">
      <defs>
       <path id="m59bae3c956" d="M 0 0 
L -3.5 0 
" style="stroke: #000000; stroke-width: 0.8"/>
      </defs>
      <g>
       <use xlink:href="#m59bae3c956" x="69.23125" y="263.620735" style="stroke: #000000; stroke-width: 0.8"/>
      </g>
     </g>
     <g id="text_11">
      <!-- 0.00000 -->
      <g transform="translate(20.878125 267.419953) scale(0.1 -0.1)">
       <use xlink:href="#DejaVuSans-30"/>
       <use xlink:href="#DejaVuSans-2e" x="63.623047"/>
       <use xlink:href="#DejaVuSans-30" x="95.410156"/>
       <use xlink:href="#DejaVuSans-30" x="159.033203"/>
       <use xlink:href="#DejaVuSans-30" x="222.65625"/>
       <use xlink:href="#DejaVuSans-30" x="286.279297"/>
       <use xlink:href="#DejaVuSans-30" x="349.902344"/>
      </g>
     </g>
    </g>
    <g id="ytick_2">
     <g id="line2d_10">
      <g>
       <use xlink:href="#m59bae3c956" x="69.23125" y="204.537481" style="stroke: #000000; stroke-width: 0.8"/>
      </g>
     </g>
     <g id="text_12">
      <!-- 0.00005 -->
      <g transform="translate(20.878125 208.336699) scale(0.1 -0.1)">
       <use xlink:href="#DejaVuSans-30"/>
       <use xlink:href="#DejaVuSans-2e" x="63.623047"/>
       <use xlink:href="#DejaVuSans-30" x="95.410156"/>
       <use xlink:href="#DejaVuSans-30" x="159.033203"/>
       <use xlink:href="#DejaVuSans-30" x="222.65625"/>
       <use xlink:href="#DejaVuSans-30" x="286.279297"/>
       <use xlink:href="#DejaVuSans-35" x="349.902344"/>
      </g>
     </g>
    </g>
    <g id="ytick_3">
     <g id="line2d_11">
      <g>
       <use xlink:href="#m59bae3c956" x="69.23125" y="145.454227" style="stroke: #000000; stroke-width: 0.8"/>
      </g>
     </g>
     <g id="text_13">
      <!-- 0.00010 -->
      <g transform="translate(20.878125 149.253446) scale(0.1 -0.1)">
       <use xlink:href="#DejaVuSans-30"/>
       <use xlink:href="#DejaVuSans-2e" x="63.623047"/>
       <use xlink:href="#DejaVuSans-30" x="95.410156"/>
       <use xlink:href="#DejaVuSans-30" x="159.033203"/>
       <use xlink:href="#DejaVuSans-30" x="222.65625"/>
       <use xlink:href="#DejaVuSans-31" x="286.279297"/>
       <use xlink:href="#DejaVuSans-30" x="349.902344"/>
      </g>
     </g>
    </g>
    <g id="ytick_4">
     <g id="line2d_12">
      <g>
       <use xlink:href="#m59bae3c956" x="69.23125" y="86.370973" style="stroke: #000000; stroke-width: 0.8"/>
      </g>
     </g>
     <g id="text_14">
      <!-- 0.00015 -->
      <g transform="translate(20.878125 90.170192) scale(0.1 -0.1)">
       <use xlink:href="#DejaVuSans-30"/>
       <use xlink:href="#DejaVuSans-2e" x="63.623047"/>
       <use xlink:href="#DejaVuSans-30" x="95.410156"/>
       <use xlink:href="#DejaVuSans-30" x="159.033203"/>
       <use xlink:href="#DejaVuSans-30" x="222.65625"/>
       <use xlink:href="#DejaVuSans-31" x="286.279297"/>
       <use xlink:href="#DejaVuSans-35" x="349.902344"/>
      </g>
     </g>
    </g>
    <g id="ytick_5">
     <g id="line2d_13">
      <g>
       <use xlink:href="#m59bae3c956" x="69.23125" y="27.287719" style="stroke: #000000; stroke-width: 0.8"/>
      </g>
     </g>
     <g id="text_15">
      <!-- 0.00020 -->
      <g transform="translate(20.878125 31.086938) scale(0.1 -0.1)">
       <use xlink:href="#DejaVuSans-30"/>
       <use xlink:href="#DejaVuSans-2e" x="63.623047"/>
       <use xlink:href="#DejaVuSans-30" x="95.410156"/>
       <use xlink:href="#DejaVuSans-30" x="159.033203"/>
       <use xlink:href="#DejaVuSans-30" x="222.65625"/>
       <use xlink:href="#DejaVuSans-32" x="286.279297"/>
       <use xlink:href="#DejaVuSans-30" x="349.902344"/>
      </g>
     </g>
    </g>
    <g id="text_16">
     <!-- Spannung in V -->
     <g transform="translate(14.798438 176.673969) rotate(-90) scale(0.1 -0.1)">
      <defs>
       <path id="DejaVuSans-53" d="M 3425 4513 
L 3425 3897 
Q 3066 4069 2747 4153 
Q 2428 4238 2131 4238 
Q 1616 4238 1336 4038 
Q 1056 3838 1056 3469 
Q 1056 3159 1242 3001 
Q 1428 2844 1947 2747 
L 2328 2669 
Q 3034 2534 3370 2195 
Q 3706 1856 3706 1288 
Q 3706 609 3251 259 
Q 2797 -91 1919 -91 
Q 1588 -91 1214 -16 
Q 841 59 441 206 
L 441 856 
Q 825 641 1194 531 
Q 1563 422 1919 422 
Q 2459 422 2753 634 
Q 3047 847 3047 1241 
Q 3047 1584 2836 1778 
Q 2625 1972 2144 2069 
L 1759 2144 
Q 1053 2284 737 2584 
Q 422 2884 422 3419 
Q 422 4038 858 4394 
Q 1294 4750 2059 4750 
Q 2388 4750 2728 4690 
Q 3069 4631 3425 4513 
z
" transform="scale(0.015625)"/>
       <path id="DejaVuSans-70" d="M 1159 525 
L 1159 -1331 
L 581 -1331 
L 581 3500 
L 1159 3500 
L 1159 2969 
Q 1341 3281 1617 3432 
Q 1894 3584 2278 3584 
Q 2916 3584 3314 3078 
Q 3713 2572 3713 1747 
Q 3713 922 3314 415 
Q 2916 -91 2278 -91 
Q 1894 -91 1617 61 
Q 1341 213 1159 525 
z
M 3116 1747 
Q 3116 2381 2855 2742 
Q 2594 3103 2138 3103 
Q 1681 3103 1420 2742 
Q 1159 2381 1159 1747 
Q 1159 1113 1420 752 
Q 1681 391 2138 391 
Q 2594 391 2855 752 
Q 3116 1113 3116 1747 
z
" transform="scale(0.015625)"/>
       <path id="DejaVuSans-61" d="M 2194 1759 
Q 1497 1759 1228 1600 
Q 959 1441 959 1056 
Q 959 750 1161 570 
Q 1363 391 1709 391 
Q 2188 391 2477 730 
Q 2766 1069 2766 1631 
L 2766 1759 
L 2194 1759 
z
M 3341 1997 
L 3341 0 
L 2766 0 
L 2766 531 
Q 2569 213 2275 61 
Q 1981 -91 1556 -91 
Q 1019 -91 701 211 
Q 384 513 384 1019 
Q 384 1609 779 1909 
Q 1175 2209 1959 2209 
L 2766 2209 
L 2766 2266 
Q 2766 2663 2505 2880 
Q 2244 3097 1772 3097 
Q 1472 3097 1187 3025 
Q 903 2953 641 2809 
L 641 3341 
Q 956 3463 1253 3523 
Q 1550 3584 1831 3584 
Q 2591 3584 2966 3190 
Q 3341 2797 3341 1997 
z
" transform="scale(0.015625)"/>
       <path id="DejaVuSans-75" d="M 544 1381 
L 544 3500 
L 1119 3500 
L 1119 1403 
Q 1119 906 1312 657 
Q 1506 409 1894 409 
Q 2359 409 2629 706 
Q 2900 1003 2900 1516 
L 2900 3500 
L 3475 3500 
L 3475 0 
L 2900 0 
L 2900 538 
Q 2691 219 2414 64 
Q 2138 -91 1772 -91 
Q 1169 -91 856 284 
Q 544 659 544 1381 
z
M 1991 3584 
L 1991 3584 
z
" transform="scale(0.015625)"/>
       <path id="DejaVuSans-56" d="M 1831 0 
L 50 4666 
L 709 4666 
L 2188 738 
L 3669 4666 
L 4325 4666 
L 2547 0 
L 1831 0 
z
" transform="scale(0.015625)"/>
      </defs>
      <use xlink:href="#DejaVuSans-53"/>
      <use xlink:href="#DejaVuSans-70" x="63.476562"/>
      <use xlink:href="#DejaVuSans-61" x="126.953125"/>
      <use xlink:href="#DejaVuSans-6e" x="188.232422"/>
      <use xlink:href="#DejaVuSans-6e" x="251.611328"/>
      <use xlink:href="#DejaVuSans-75" x="314.990234"/>
      <use xlink:href="#DejaVuSans-6e" x="378.369141"/>
      <use xlink:href="#DejaVuSans-67" x="441.748047"/>
      <use xlink:href="#DejaVuSans-20" x="505.224609"/>
      <use xlink:href="#DejaVuSans-69" x="537.011719"/>
      <use xlink:href="#DejaVuSans-6e" x="564.794922"/>
      <use xlink:href="#DejaVuSans-20" x="628.173828"/>
      <use xlink:href="#DejaVuSans-56" x="659.960938"/>
     </g>
    </g>
   </g>
   <g id="line2d_14">
    <path d="M 88.850714 258.448025 
L 88.965354 260.539439 
L 89.194632 260.366594 
L 92.289898 260.444128 
L 92.519177 260.240665 
L 93.436292 260.240665 
L 93.665571 259.971522 
L 94.697326 259.971522 
L 94.811966 261.099947 
L 95.729081 261.099947 
L 95.843721 260.186343 
L 96.875476 260.186343 
L 97.104755 259.977942 
L 97.907231 259.977942 
L 98.13651 260.211035 
L 99.168265 260.211035 
L 99.397544 260.416472 
L 100.20002 260.416472 
L 100.314659 259.806086 
L 101.346415 259.806086 
L 101.461054 260.586353 
L 102.37817 260.586353 
L 102.492809 259.727071 
L 103.639204 259.727071 
L 103.868482 260.122143 
L 104.785598 260.122143 
L 105.014877 260.23869 
L 105.817353 260.23869 
L 106.046632 260.408572 
L 107.078387 260.408572 
L 107.193027 259.781394 
L 109.256537 259.672749 
L 109.371176 260.309802 
L 110.288292 260.309802 
L 110.402931 259.823371 
L 111.549326 259.823371 
L 111.663965 260.677714 
L 113.727475 260.774012 
L 113.842115 260.114241 
L 118.198414 260.187331 
L 118.313054 260.964965 
L 119.459448 260.964965 
L 119.688727 260.610058 
L 121.637598 260.613515 
L 121.752237 261.136162 
L 122.669353 261.136162 
L 122.783992 260.25795 
L 123.930387 260.25795 
L 124.045026 261.216 
L 124.962142 261.216 
L 125.076781 260.477709 
L 126.108536 260.477709 
L 126.337815 260.224862 
L 127.140291 260.224862 
L 127.36957 259.988807 
L 129.54772 259.944362 
L 129.662359 260.546847 
L 130.579475 260.546847 
L 130.694115 259.690857 
L 131.840509 259.690857 
L 131.955149 260.284124 
L 134.018659 260.299926 
L 134.247938 260.571539 
L 135.050414 260.571539 
L 135.279693 260.78389 
L 136.311448 260.78389 
L 136.426087 259.954238 
L 137.343203 259.954238 
L 137.457842 260.462893 
L 139.750631 260.487585 
L 139.865271 259.81267 
L 140.782386 259.81267 
L 140.897026 260.517215 
L 141.928781 260.517215 
L 142.04342 260.035722 
L 142.960536 260.035722 
L 143.189815 260.34684 
L 144.22157 260.34684 
L 144.450849 260.086587 
L 145.253325 260.086587 
L 145.482604 260.49417 
L 146.39972 260.49417 
L 146.514359 259.968066 
L 147.431475 259.968066 
L 147.660754 259.527066 
L 148.692509 259.527066 
L 148.807148 260.082637 
L 152.131692 260.055476 
L 152.360971 260.442152 
L 153.163447 260.442152 
L 153.392726 260.067821 
L 154.309842 260.067821 
L 154.539121 259.9172 
L 155.341597 259.9172 
L 155.456236 260.714752 
L 156.602631 260.714752 
L 156.83191 260.34931 
L 158.780781 260.31721 
L 159.010059 259.951768 
L 159.812536 259.951768 
L 160.041815 260.263711 
L 161.07357 260.263711 
L 161.302849 260.007573 
L 162.105325 260.007573 
L 162.219964 259.415952 
L 163.251719 259.415952 
L 163.480998 258.993718 
L 164.512753 258.993718 
L 164.742032 259.229281 
L 165.544508 259.229281 
L 165.659148 258.634038 
L 166.690903 258.634038 
L 166.920182 258.510249 
L 167.722658 258.510249 
L 167.951937 258.202752 
L 168.983692 258.202752 
L 169.212971 258.060361 
L 170.015447 258.060361 
L 170.244726 258.408517 
L 171.161841 258.408517 
L 171.39112 258.087522 
L 172.193597 258.087522 
L 172.308236 257.546767 
L 173.454631 257.546767 
L 173.56927 256.762055 
L 174.601025 256.762055 
L 174.830304 256.561556 
L 175.63278 256.561556 
L 175.74742 255.936847 
L 176.893814 255.936847 
L 177.123093 255.670996 
L 177.925569 255.670996 
L 178.040209 254.603479 
L 179.071964 254.603479 
L 179.186603 253.338755 
L 180.103719 253.338755 
L 180.218358 252.026457 
L 181.364753 252.026457 
L 181.479392 250.458675 
L 182.396508 250.458675 
L 182.511147 248.571225 
L 183.542902 248.571225 
L 183.657542 246.247705 
L 184.574658 246.247705 
L 184.689297 244.01801 
L 185.835692 244.01801 
L 185.950331 242.988354 
L 186.982086 242.988354 
L 187.096725 241.119173 
L 188.013841 241.119173 
L 188.128481 238.593175 
L 189.274875 238.593175 
L 189.389515 235.92397 
L 190.30663 235.92397 
L 190.42127 233.511566 
L 191.453025 233.511566 
L 191.567664 230.003817 
L 192.48478 230.003817 
L 192.599419 227.327865 
L 193.745814 227.327865 
L 193.860453 224.395764 
L 194.777569 224.395764 
L 194.892208 220.479939 
L 195.923963 220.479939 
L 196.038603 218.935869 
L 196.955718 218.935869 
L 197.070358 216.009865 
L 198.216752 216.009865 
L 198.331392 212.46656 
L 199.363147 212.46656 
L 199.477786 208.784491 
L 200.394902 208.784491 
L 200.509542 204.663883 
L 201.655936 204.663883 
L 201.770575 200.848972 
L 202.687691 200.848972 
L 202.802331 197.816796 
L 203.834086 197.816796 
L 203.948725 194.722878 
L 204.865841 194.722878 
L 204.98048 191.550781 
L 206.126875 191.550781 
L 206.241514 187.827886 
L 207.15863 187.827886 
L 207.273269 184.58763 
L 208.305024 184.58763 
L 208.419664 181.200541 
L 209.566058 181.200541 
L 209.680698 177.250813 
L 210.597813 177.250813 
L 210.712453 175.490274 
L 211.744208 175.490274 
L 211.858847 172.15142 
L 212.775963 172.15142 
L 212.890602 170.322238 
L 214.036997 170.322238 
L 214.151636 167.724631 
L 215.068752 167.724631 
L 215.183392 166.127067 
L 216.215147 166.127067 
L 216.329786 164.265283 
L 217.246902 164.265283 
L 217.361541 162.877595 
L 218.507936 162.877595 
L 218.622575 161.586212 
L 219.539691 161.586212 
L 219.76897 161.280019 
L 220.686085 161.280019 
L 220.800725 160.313086 
L 221.947119 160.313086 
L 222.176398 160.14666 
L 222.978874 160.14666 
L 223.208153 159.892319 
L 224.125269 159.892319 
L 224.354548 160.08493 
L 225.157024 160.08493 
L 225.271663 160.620744 
L 226.418058 160.620744 
L 226.532697 161.640521 
L 227.449813 161.640521 
L 227.564452 162.351647 
L 228.596208 162.351647 
L 228.710847 164.235659 
L 229.627963 164.235659 
L 229.857242 163.902323 
L 230.888997 163.902323 
L 231.003636 166.769054 
L 231.920752 166.769054 
L 232.035391 167.662086 
L 233.067146 167.662086 
L 233.296425 167.92711 
L 234.32818 167.92711 
L 234.44282 169.814571 
L 235.359935 169.814571 
L 235.474575 171.929681 
L 236.50633 171.929681 
L 236.620969 174.344567 
L 237.538085 174.344567 
L 237.652724 174.850745 
L 238.799119 174.850745 
L 238.913758 177.595517 
L 239.830874 177.595517 
L 239.945513 179.688742 
L 240.977268 179.688742 
L 241.091908 181.344739 
L 242.009024 181.344739 
L 242.123663 183.900374 
L 243.270058 183.900374 
L 243.384697 186.372039 
L 244.416452 186.372039 
L 244.531092 188.37209 
L 245.448207 188.37209 
L 245.562847 190.317819 
L 246.709241 190.317819 
L 246.823881 193.202843 
L 247.740996 193.202843 
L 247.855636 196.113048 
L 248.887391 196.113048 
L 249.00203 198.197056 
L 249.919146 198.197056 
L 250.033785 200.066237 
L 251.18018 200.066237 
L 251.294819 202.24407 
L 252.211935 202.24407 
L 252.326574 204.461417 
L 253.358329 204.461417 
L 253.472969 206.919753 
L 254.390085 206.919753 
L 254.504724 208.7891 
L 255.651118 208.7891 
L 255.765758 210.471448 
L 256.797513 210.471448 
L 256.912152 211.990006 
L 257.829268 211.990006 
L 257.943908 213.666588 
L 259.090302 213.666588 
L 259.204942 215.423677 
L 260.122057 215.423677 
L 260.236697 216.303698 
L 261.268452 216.303698 
L 261.383091 217.489901 
L 262.300207 217.489901 
L 262.414846 219.04945 
L 263.561241 219.04945 
L 263.67588 220.101333 
L 264.592996 220.101333 
L 264.707635 221.405064 
L 265.73939 221.405064 
L 265.968669 221.842115 
L 266.771145 221.842115 
L 266.885785 223.094006 
L 268.032179 223.094006 
L 268.146819 224.356261 
L 269.178574 224.356261 
L 269.293213 225.93194 
L 270.210329 225.93194 
L 270.439608 226.249643 
L 271.471363 226.249643 
L 271.586002 227.126214 
L 272.503118 227.126214 
L 272.617758 228.128703 
L 273.649513 228.128703 
L 273.764152 228.838352 
L 274.681268 228.838352 
L 274.795907 230.639883 
L 275.942302 230.639883 
L 276.171581 231.068532 
L 276.974057 231.068532 
L 277.088696 232.252265 
L 278.120451 232.252265 
L 278.34973 232.420995 
L 279.381485 232.420995 
L 279.496125 233.691817 
L 280.41324 233.691817 
L 280.52788 234.534639 
L 281.559635 234.534639 
L 281.788914 234.675541 
L 282.59139 234.675541 
L 282.706029 235.822737 
L 283.852424 235.822737 
L 283.967063 237.069677 
L 284.884179 237.069677 
L 285.113458 237.311659 
L 286.030574 237.311659 
L 286.145213 238.18823 
L 287.062329 238.18823 
L 287.176968 239.225294 
L 288.323363 239.225294 
L 288.552642 239.524067 
L 289.355118 239.524067 
L 289.469757 240.736443 
L 291.762546 240.716686 
L 291.877186 241.437702 
L 292.794301 241.437702 
L 293.02358 241.627832 
L 293.940696 241.627832 
L 294.055335 242.310315 
L 294.972451 242.310315 
L 295.20173 242.099447 
L 296.233485 242.099447 
L 296.348124 243.240214 
L 297.26524 243.240214 
L 297.379879 244.632027 
L 298.411635 244.632027 
L 298.640913 244.195803 
L 299.44339 244.195803 
L 299.558029 244.699512 
L 300.704424 244.699512 
L 300.819063 245.237795 
L 301.850818 245.237795 
L 301.965458 246.205721 
L 302.882573 246.205721 
L 303.111852 246.52919 
L 304.143607 246.52919 
L 304.258247 247.329213 
L 305.175362 247.329213 
L 305.290002 246.825492 
L 306.321757 246.825492 
L 306.551036 247.22057 
L 307.353512 247.22057 
L 307.468151 248.227184 
L 308.614546 248.227184 
L 308.843825 247.894663 
L 309.646301 247.894663 
L 309.87558 248.289729 
L 310.792695 248.289729 
L 310.907335 249.158891 
L 311.824451 249.158891 
L 311.93909 248.304547 
L 313.085485 248.304547 
L 313.200124 249.057658 
L 314.231879 249.057658 
L 314.346519 249.561862 
L 315.263634 249.561862 
L 315.492913 249.260951 
L 316.524668 249.260951 
L 316.639308 250.116938 
L 317.556423 250.116938 
L 317.785702 250.237928 
L 319.734573 250.149044 
L 319.849212 250.830545 
L 320.995607 250.830545 
L 321.110246 251.849332 
L 322.027362 251.849332 
L 322.142001 251.292281 
L 323.173756 251.292281 
L 323.288396 251.882913 
L 324.205512 251.882913 
L 324.43479 251.694756 
L 326.61294 251.690644 
L 326.727579 252.159464 
L 327.644695 252.159464 
L 327.759335 252.987798 
L 328.905729 252.987798 
L 329.135008 252.793555 
L 329.937484 252.793555 
L 330.166763 253.038006 
L 331.083879 253.038006 
L 331.198518 252.554042 
L 332.115634 252.554042 
L 332.344913 252.331814 
L 333.376668 252.331814 
L 333.491307 253.139242 
L 334.408423 253.139242 
L 334.637702 252.81331 
L 335.554817 252.81331 
L 335.669457 253.453325 
L 336.815851 253.453325 
L 336.930491 254.065194 
L 341.28679 254.134331 
L 341.516069 254.427178 
L 342.318545 254.427178 
L 342.547824 254.726939 
L 343.46494 254.726939 
L 343.579579 255.295678 
L 344.496695 255.295678 
L 344.725974 255.084973 
L 345.757729 255.084973 
L 345.987008 255.418316 
L 346.789484 255.418316 
L 347.018763 255.62326 
L 347.935878 255.62326 
L 348.165157 255.177816 
L 350.228667 255.112134 
L 350.343307 255.971417 
L 351.375062 255.971417 
L 351.604341 255.62326 
L 352.406817 255.62326 
L 352.521456 256.187883 
L 353.667851 256.187883 
L 353.89713 255.954132 
L 354.699606 255.954132 
L 354.814246 256.477603 
L 355.846001 256.477603 
L 355.96064 255.973886 
L 356.877756 255.973886 
L 356.992395 255.455353 
L 358.13879 255.455353 
L 358.368069 255.798573 
L 359.170545 255.798573 
L 359.399824 256.20846 
L 360.316939 256.20846 
L 360.546218 256.341797 
L 363.756123 256.238091 
L 363.870762 257.238117 
L 364.787878 257.238117 
L 365.017157 257.075149 
L 366.048912 257.075149 
L 366.163551 257.625781 
L 368.227062 257.655413 
L 368.45634 257.36849 
L 369.258817 257.36849 
L 369.488096 257.175563 
L 371.551606 257.159103 
L 371.666245 257.883401 
L 373.959034 257.860356 
L 374.188313 258.079621 
L 374.990789 258.079621 
L 375.220068 258.347612 
L 376.137184 258.347612 
L 376.251823 257.327008 
L 378.429973 257.428245 
L 378.544612 258.136906 
L 379.461728 258.136906 
L 379.691007 257.991223 
L 380.608122 257.991223 
L 380.837401 257.751711 
L 381.639878 257.751711 
L 381.869156 257.90727 
L 382.900912 257.90727 
L 383.13019 258.077645 
L 383.932667 258.077645 
L 384.161946 257.729488 
L 386.340095 257.717142 
L 386.454735 258.292466 
L 387.37185 258.292466 
L 387.48649 257.413429 
L 388.518245 257.413429 
L 388.632884 257.959123 
L 389.55 257.959123 
L 389.779279 258.285058 
L 390.811034 258.285058 
L 390.925673 258.973965 
L 391.842789 258.973965 
L 391.957428 258.329503 
L 394.020938 258.302342 
L 394.250217 258.699884 
L 395.281972 258.699884 
L 395.396612 257.735908 
L 396.313728 257.735908 
L 396.428367 258.551733 
L 398.721156 258.616919 
L 398.835796 258.018385 
L 400.899306 257.973939 
L 401.013945 259.077178 
L 401.931061 259.077178 
L 402.0457 259.89827 
L 403.192095 259.89827 
L 403.306734 258.879641 
L 404.22385 258.879641 
L 404.453129 259.040634 
L 405.370244 259.040634 
L 405.599523 258.657908 
L 406.401999 258.657908 
L 406.631278 258.519632 
L 407.663033 258.519632 
L 407.777673 259.154217 
L 408.006952 259.154217 
L 408.006952 259.154217 
" clip-path="url(#p8431cc7470)" style="fill: none; stroke: #1f77b4; stroke-width: 1.5; stroke-linecap: square"/>
   </g>
   <g id="line2d_15">
    <path d="M 88.848947 257.662819 
L 89.765878 257.662819 
L 89.880494 257.129471 
L 90.912041 257.129471 
L 91.141274 257.435653 
L 91.943588 257.435653 
L 92.058204 258.043077 
L 93.204368 258.043077 
L 93.318984 257.487012 
L 94.235915 257.487012 
L 94.465147 257.373922 
L 95.382078 257.373922 
L 95.496694 256.462788 
L 96.413625 256.462788 
L 96.528241 258.327034 
L 97.674404 258.327034 
L 97.789021 257.255401 
L 98.820568 257.255401 
L 98.935184 256.717115 
L 99.852115 256.717115 
L 99.966731 257.28997 
L 101.112894 257.28997 
L 101.342127 256.944282 
L 102.144441 256.944282 
L 102.259058 257.645535 
L 103.290605 257.645535 
L 103.519837 257.344292 
L 104.322152 257.344292 
L 104.551384 257.650473 
L 105.582931 257.650473 
L 105.697548 256.845021 
L 106.614478 256.845021 
L 106.843711 256.606001 
L 107.760642 256.606001 
L 107.875258 257.664795 
L 110.052968 257.708911 
L 110.167585 257.164041 
L 111.199132 257.164041 
L 111.428364 257.467259 
L 113.491458 257.51796 
L 113.606074 258.174438 
L 114.523005 258.174438 
L 114.637621 256.741808 
L 115.669168 256.741808 
L 115.783785 257.270216 
L 116.700715 257.270216 
L 116.929948 257.586275 
L 117.961495 257.586275 
L 118.190728 257.814263 
L 118.993042 257.814263 
L 119.107658 257.356638 
L 122.431532 257.34923 
L 122.660765 257.045519 
L 123.577695 257.045519 
L 123.692312 257.546767 
L 124.609242 257.546767 
L 124.838475 257.164041 
L 125.870022 257.164041 
L 125.984638 256.396613 
L 126.901569 256.396613 
L 127.016185 257.302316 
L 128.047732 257.302316 
L 128.276965 257.064285 
L 129.079279 257.064285 
L 129.308512 257.25787 
L 130.340059 257.25787 
L 130.454675 256.465257 
L 131.371606 256.465257 
L 131.486222 257.344786 
L 132.517769 257.344786 
L 132.632385 256.875968 
L 133.778549 256.875968 
L 134.007781 257.028728 
L 134.810096 257.028728 
L 135.039328 257.159103 
L 135.956259 257.159103 
L 136.070875 256.48748 
L 136.987806 256.48748 
L 137.102422 256.98132 
L 138.248586 256.98132 
L 138.477818 256.588717 
L 139.280133 256.588717 
L 139.394749 257.213425 
L 140.426296 257.213425 
L 140.655529 257.433677 
L 141.457843 257.433677 
L 141.687076 257.045519 
L 142.718623 257.045519 
L 142.947855 256.749215 
L 143.75017 256.749215 
L 143.979402 257.191201 
L 144.896333 257.191201 
L 145.125565 257.075149 
L 146.157112 257.075149 
L 146.386345 256.843045 
L 147.188659 256.843045 
L 147.417892 256.657855 
L 149.36637 256.623285 
L 149.480986 257.324539 
L 150.627149 257.324539 
L 150.856382 257.10478 
L 151.658696 257.10478 
L 151.887929 256.754153 
L 152.80486 256.754153 
L 153.034092 257.003048 
L 153.836407 257.003048 
L 153.951023 256.388711 
L 155.097186 256.388711 
L 155.326419 256.773907 
L 156.128733 256.773907 
L 156.357966 256.88502 
L 158.535676 256.803537 
L 158.650293 255.950181 
L 159.567223 255.950181 
L 159.68184 255.404323 
L 160.713386 255.404323 
L 160.828003 255.926477 
L 161.744933 255.926477 
L 161.974166 255.583752 
L 163.005713 255.583752 
L 163.234946 255.949193 
L 164.03726 255.949193 
L 164.151876 255.134357 
L 165.183423 255.134357 
L 165.412656 255.363993 
L 166.21497 255.363993 
L 166.329587 254.32446 
L 167.47575 254.32446 
L 167.704983 254.44792 
L 168.621913 254.44792 
L 168.73653 253.993586 
L 169.65346 253.993586 
L 169.882693 253.652838 
L 170.91424 253.652838 
L 171.028856 252.21823 
L 171.945787 252.21823 
L 172.17502 252.65281 
L 173.09195 252.65281 
L 173.206567 250.647824 
L 174.123497 250.647824 
L 174.238114 249.395933 
L 175.384277 249.395933 
L 175.498893 247.754411 
L 176.415824 247.754411 
L 176.53044 245.556325 
L 177.561987 245.556325 
L 177.676603 244.514321 
L 178.593534 244.514321 
L 178.70815 241.927101 
L 179.854314 241.927101 
L 179.96893 239.746291 
L 181.000477 239.746291 
L 181.115093 237.00647 
L 182.032024 237.00647 
L 182.14664 234.258083 
L 183.292804 234.258083 
L 183.40742 231.985599 
L 184.324351 231.985599 
L 184.438967 228.168206 
L 185.470514 228.168206 
L 185.58513 224.518728 
L 186.502061 224.518728 
L 186.616677 220.782823 
L 187.762841 220.782823 
L 187.877457 217.647925 
L 188.794388 217.647925 
L 188.909004 211.982597 
L 189.940551 211.982597 
L 190.055167 208.686212 
L 191.201331 208.686212 
L 191.315947 204.286093 
L 192.232878 204.286093 
L 192.347494 200.841563 
L 193.379041 200.841563 
L 193.493657 196.31009 
L 194.410588 196.31009 
L 194.525204 191.926101 
L 195.671367 191.926101 
L 195.785984 187.223429 
L 196.702914 187.223429 
L 196.817531 182.833673 
L 197.849078 182.833673 
L 197.963694 177.502673 
L 198.880625 177.502673 
L 198.995241 172.403765 
L 200.141404 172.403765 
L 200.256021 168.635778 
L 201.172951 168.635778 
L 201.287568 163.633163 
L 202.319115 163.633163 
L 202.433731 158.734275 
L 203.579894 158.734275 
L 203.694511 154.731692 
L 204.611441 154.731692 
L 204.726058 149.830334 
L 205.757605 149.830334 
L 205.872221 145.6475 
L 206.789152 145.6475 
L 206.903768 141.90415 
L 208.049931 141.90415 
L 208.164548 137.888734 
L 209.081478 137.888734 
L 209.196095 134.410149 
L 210.227641 134.410149 
L 210.342258 132.043037 
L 211.259188 132.043037 
L 211.373805 129.170528 
L 212.519968 129.170528 
L 212.634584 126.234681 
L 213.666131 126.234681 
L 213.780748 125.550733 
L 214.697678 125.550733 
L 214.812295 123.619774 
L 215.958458 123.619774 
L 216.073074 122.372763 
L 218.136168 122.382689 
L 218.250785 121.893834 
L 219.167715 121.893834 
L 219.396948 122.301154 
L 220.428495 122.301154 
L 220.657728 122.684368 
L 221.460042 122.684368 
L 221.574658 123.522641 
L 222.606205 123.522641 
L 222.720822 124.464192 
L 223.637752 124.464192 
L 223.752369 126.032143 
L 224.898532 126.032143 
L 225.013148 126.558102 
L 226.044695 126.558102 
L 226.159311 129.860856 
L 227.076242 129.860856 
L 227.190858 131.615038 
L 228.337022 131.615038 
L 228.451638 133.812581 
L 229.368569 133.812581 
L 229.483185 135.622537 
L 230.514732 135.622537 
L 230.629348 137.985631 
L 231.546279 137.985631 
L 231.660895 140.20787 
L 232.807059 140.20787 
L 232.921675 142.909157 
L 233.838606 142.909157 
L 233.953222 146.242586 
L 234.984769 146.242586 
L 235.099385 149.166132 
L 236.016316 149.166132 
L 236.130932 151.904464 
L 237.277096 151.904464 
L 237.391712 155.435433 
L 238.423259 155.435433 
L 238.537875 158.051946 
L 239.454806 158.051946 
L 239.569422 161.183725 
L 240.715586 161.183725 
L 240.830202 164.706281 
L 241.747133 164.706281 
L 241.861749 168.603672 
L 242.893296 168.603672 
L 243.007912 171.853145 
L 243.924843 171.853145 
L 244.039459 175.507562 
L 245.185622 175.507562 
L 245.300239 177.949603 
L 246.217169 177.949603 
L 246.331786 181.536358 
L 247.363333 181.536358 
L 247.477949 183.206524 
L 248.624112 183.206524 
L 248.738729 186.745386 
L 249.655659 186.745386 
L 249.770276 190.201768 
L 250.801823 190.201768 
L 250.916439 192.609245 
L 251.83337 192.609245 
L 251.947986 195.322904 
L 253.094149 195.322904 
L 253.208766 196.964922 
L 254.125696 196.964922 
L 254.240313 199.572396 
L 255.27186 199.572396 
L 255.386476 201.365041 
L 256.303407 201.365041 
L 256.418023 204.35112 
L 257.564186 204.35112 
L 257.678803 205.303401 
L 258.595733 205.303401 
L 258.710349 207.091106 
L 259.741896 207.091106 
L 259.856513 208.797324 
L 261.002676 208.797324 
L 261.117292 210.532682 
L 262.034223 210.532682 
L 262.148839 212.01963 
L 263.180386 212.01963 
L 263.295003 213.449303 
L 264.211933 213.449303 
L 264.32655 214.360438 
L 265.472713 214.360438 
L 265.587329 215.65019 
L 266.50426 215.65019 
L 266.618876 216.637034 
L 267.650423 216.637034 
L 267.76504 218.556602 
L 268.68197 218.556602 
L 268.796587 219.032163 
L 269.94275 219.032163 
L 270.057366 221.143325 
L 271.088913 221.143325 
L 271.20353 222.00262 
L 272.12046 222.00262 
L 272.235077 223.145858 
L 273.38124 223.145858 
L 273.610473 223.394256 
L 274.412787 223.394256 
L 274.527403 224.223253 
L 275.55895 224.223253 
L 275.673566 226.281749 
L 276.590497 226.281749 
L 276.705113 227.916346 
L 278.882824 227.980546 
L 278.99744 229.355898 
L 280.028987 229.355898 
L 280.143603 229.849739 
L 281.060534 229.849739 
L 281.17515 230.349501 
L 282.321314 230.349501 
L 282.43593 231.375706 
L 283.467477 231.375706 
L 283.582093 232.262144 
L 284.499024 232.262144 
L 284.61364 233.092618 
L 285.759804 233.092618 
L 285.87442 233.968362 
L 286.791351 233.968362 
L 287.020583 234.165901 
L 287.937514 234.165901 
L 288.05213 235.483469 
L 288.969061 235.483469 
L 289.198294 235.900928 
L 290.229841 235.900928 
L 290.459073 236.291385 
L 291.261387 236.291385 
L 291.376004 237.407964 
L 292.407551 237.407964 
L 292.522167 238.366011 
L 293.439098 238.366011 
L 293.553714 239.180852 
L 295.846041 239.232703 
L 295.960657 239.924084 
L 296.877588 239.924084 
L 296.992204 241.329048 
L 298.138367 241.329048 
L 298.3676 240.995712 
L 299.169914 240.995712 
L 299.284531 241.854996 
L 300.316078 241.854996 
L 300.430694 242.536485 
L 301.347625 242.536485 
L 301.462241 242.07475 
L 302.608404 242.07475 
L 302.723021 243.504423 
L 303.639951 243.504423 
L 303.869184 243.783438 
L 304.786115 243.783438 
L 304.900731 244.46247 
L 305.817662 244.46247 
L 306.046894 244.2032 
L 307.078441 244.2032 
L 307.193057 244.946432 
L 310.516931 244.998284 
L 310.631547 245.818064 
L 311.548478 245.818064 
L 311.777711 246.024654 
L 314.986968 246.131654 
L 315.216201 246.304496 
L 316.018515 246.304496 
L 316.133131 247.128223 
L 318.425458 247.15884 
L 318.540074 247.724291 
L 319.457005 247.724291 
L 319.571621 248.252696 
L 321.634715 248.302077 
L 321.749332 247.736627 
L 323.927042 247.653662 
L 324.041658 248.215662 
L 325.073205 248.215662 
L 325.187821 249.013204 
L 326.104752 249.013204 
L 326.333985 249.405812 
L 327.365532 249.405812 
L 327.594764 249.60829 
L 328.397079 249.60829 
L 328.626311 249.241856 
L 329.543242 249.241856 
L 329.657858 249.771253 
L 330.804022 249.771253 
L 331.033254 249.919399 
L 331.835569 249.919399 
L 331.950185 250.939188 
L 332.981732 250.939188 
L 333.096348 250.245338 
L 334.013279 250.245338 
L 334.242512 250.445346 
L 335.274059 250.445346 
L 335.388675 251.282402 
L 338.483316 251.317959 
L 338.712549 251.48982 
L 339.744095 251.48982 
L 339.858712 252.335929 
L 340.775642 252.335929 
L 340.890259 251.34561 
L 341.921806 251.34561 
L 342.036422 252.464328 
L 344.214132 252.497251 
L 344.443365 252.867632 
L 345.360296 252.867632 
L 345.474912 252.094771 
L 346.391843 252.094771 
L 346.506459 252.998499 
L 347.652622 252.998499 
L 347.881855 253.351594 
L 348.684169 253.351594 
L 348.913402 253.126074 
L 349.830333 253.126074 
L 350.059565 253.334803 
L 350.86188 253.334803 
L 351.091112 253.065166 
L 352.122659 253.065166 
L 352.351892 253.447893 
L 353.154206 253.447893 
L 353.268823 252.894793 
L 354.30037 252.894793 
L 354.414986 254.121985 
L 355.561149 254.121985 
L 355.790382 254.545699 
L 356.592696 254.545699 
L 356.821929 254.213345 
L 357.738859 254.213345 
L 357.968092 253.800989 
L 358.770406 253.800989 
L 358.999639 254.013341 
L 360.031186 254.013341 
L 360.145802 255.030651 
L 362.208896 255.040527 
L 362.438129 254.625701 
L 363.240443 254.625701 
L 363.35506 255.221274 
L 364.501223 255.221274 
L 364.615839 254.403474 
L 365.647386 254.403474 
L 365.876619 254.588665 
L 366.678933 254.588665 
L 366.908166 254.712947 
L 367.939713 254.712947 
L 368.054329 255.428193 
L 368.97126 255.428193 
L 369.085876 254.936822 
L 370.117423 254.936822 
L 370.23204 255.802029 
L 371.14897 255.802029 
L 371.378203 255.381278 
L 372.40975 255.381278 
L 372.524366 254.729409 
L 373.441297 254.729409 
L 373.555913 255.40597 
L 374.58746 255.40597 
L 374.816693 255.129419 
L 375.84824 255.129419 
L 376.077472 255.25041 
L 376.879787 255.25041 
L 376.994403 255.96154 
L 380.318277 256.067716 
L 380.547509 256.188706 
L 381.349824 256.188706 
L 381.46444 254.396066 
L 382.495987 254.396066 
L 382.610603 255.920551 
L 383.527534 255.920551 
L 383.756767 256.035616 
L 384.788314 256.035616 
L 384.90293 256.51711 
L 385.934477 256.51711 
L 386.049093 256.997781 
L 386.966024 256.997781 
L 387.195257 256.739339 
L 390.404514 256.665262 
L 390.51913 255.632148 
L 391.436061 255.632148 
L 391.550677 257.127003 
L 392.69684 257.127003 
L 392.811457 257.638127 
L 393.728387 257.638127 
L 393.95762 257.309724 
L 394.874551 257.309724 
L 395.103783 257.195317 
L 395.906098 257.195317 
L 396.020714 256.334389 
L 397.166877 256.334389 
L 397.39611 256.777857 
L 398.198424 256.777857 
L 398.427657 257.122065 
L 399.344588 257.122065 
L 399.57382 256.912182 
L 400.605367 256.912182 
L 400.8346 257.297378 
L 405.075404 257.208486 
L 405.304637 256.878601 
L 406.106951 256.878601 
L 406.336184 256.761561 
L 407.253114 256.761561 
L 407.367731 257.252933 
L 408.284661 257.252933 
L 408.399278 257.734426 
L 409.545441 257.734426 
L 409.660057 256.593656 
L 410.003906 256.593656 
L 410.118523 259.154217 
L 410.118523 259.154217 
" clip-path="url(#p8431cc7470)" style="fill: none; stroke: #ff7f0e; stroke-width: 1.5; stroke-linecap: square"/>
   </g>
   <g id="line2d_16">
    <path d="M 88.849718 254.126923 
L 89.735103 254.126923 
L 89.882668 253.637034 
L 90.915617 253.637034 
L 91.063182 253.126896 
L 91.948567 253.126896 
L 92.096131 253.5409 
L 93.129081 253.5409 
L 93.276645 254.270137 
L 94.162031 254.270137 
L 94.309595 254.013341 
L 97.556008 254.095317 
L 97.703572 254.8183 
L 98.736522 254.8183 
L 98.884086 254.01334 
L 99.917036 254.01334 
L 100.0646 253.623206 
L 100.949986 253.623206 
L 101.09755 253.939264 
L 102.1305 253.939264 
L 102.278064 254.534341 
L 103.163449 254.534341 
L 103.311013 254.080832 
L 105.524477 254.053836 
L 105.819606 253.924448 
L 106.557427 253.924448 
L 106.704991 254.238037 
L 107.737941 254.238037 
L 107.885505 254.870154 
L 108.918455 254.870154 
L 109.066019 255.183742 
L 109.951404 255.183742 
L 110.098968 254.697309 
L 111.131918 254.697309 
L 111.279482 254.219107 
L 112.312432 254.219107 
L 112.459996 254.660271 
L 113.345382 254.660271 
L 113.492946 254.200999 
L 114.525896 254.200999 
L 114.67346 253.902227 
L 115.558845 253.902227 
L 115.70641 254.526934 
L 116.739359 254.526934 
L 116.886923 254.172357 
L 117.919873 254.172357 
L 118.067437 255.020775 
L 118.952823 255.020775 
L 119.100387 254.193591 
L 120.133337 254.193591 
L 120.280901 254.808422 
L 121.313851 254.808422 
L 121.461415 254.365942 
L 122.3468 254.365942 
L 122.494365 254.123631 
L 123.527314 254.123631 
L 123.674879 253.953092 
L 124.560264 253.953092 
L 124.707828 254.29236 
L 125.740778 254.29236 
L 125.888342 254.000994 
L 126.921292 254.000994 
L 127.068856 254.652863 
L 127.954241 254.652863 
L 128.101806 254.949167 
L 129.134755 254.949167 
L 129.28232 254.35162 
L 130.315269 254.35162 
L 130.462834 255.28004 
L 131.348219 255.28004 
L 131.495783 254.7862 
L 132.528733 254.7862 
L 132.676297 254.371374 
L 133.709247 254.371374 
L 133.856811 254.141737 
L 134.742197 254.141737 
L 134.889761 254.702247 
L 136.95566 254.668173 
L 137.103224 254.844638 
L 138.136174 254.844638 
L 138.283738 254.398536 
L 139.316688 254.398536 
L 139.611816 254.509649 
L 140.349638 254.509649 
L 140.497202 255.122011 
L 141.530152 255.122011 
L 141.677716 254.793608 
L 142.710665 254.793608 
L 142.85823 253.901732 
L 143.743615 253.901732 
L 143.891179 255.307201 
L 144.924129 255.307201 
L 145.071693 254.983736 
L 146.104643 254.983736 
L 146.252207 254.373844 
L 147.137593 254.373844 
L 147.285157 255.28251 
L 148.318107 255.28251 
L 148.465671 254.479196 
L 149.351056 254.479196 
L 149.49862 254.230631 
L 150.53157 254.230631 
L 150.679134 253.601478 
L 151.712084 253.601478 
L 151.859648 254.228161 
L 152.745034 254.228161 
L 152.892598 253.707159 
L 155.106062 253.744197 
L 155.253626 254.316558 
L 156.139011 254.316558 
L 156.286575 253.112905 
L 157.319525 253.112905 
L 157.467089 252.842939 
L 158.352475 252.842939 
L 158.500039 253.183688 
L 159.532989 253.183688 
L 159.680553 252.702194 
L 160.713503 252.702194 
L 160.861067 252.225638 
L 161.746452 252.225638 
L 161.894017 251.808342 
L 162.926966 251.808342 
L 163.074531 251.092769 
L 165.14043 251.10709 
L 165.287994 250.445346 
L 166.320944 250.445346 
L 166.468508 249.376176 
L 167.501458 249.376176 
L 167.649022 248.837892 
L 168.534407 248.837892 
L 168.681972 248.27985 
L 169.714921 248.27985 
L 169.862486 246.385488 
L 170.747871 246.385488 
L 170.895435 244.085507 
L 171.928385 244.085507 
L 172.075949 242.565129 
L 173.108899 242.565129 
L 173.256463 239.146277 
L 174.141849 239.146277 
L 174.289413 236.393115 
L 175.322362 236.393115 
L 175.469927 233.681938 
L 176.502876 233.681938 
L 176.650441 229.834921 
L 177.535826 229.834921 
L 177.68339 225.736044 
L 178.71634 225.736044 
L 178.863904 221.696427 
L 179.74929 221.696427 
L 179.896854 217.513605 
L 180.929804 217.513605 
L 181.077368 212.733238 
L 182.110317 212.733238 
L 182.257882 208.594846 
L 183.143267 208.594846 
L 183.290831 202.510748 
L 184.323781 202.510748 
L 184.471345 197.289856 
L 185.504295 197.289856 
L 185.651859 191.484926 
L 186.537245 191.484926 
L 186.684809 187.05601 
L 187.717759 187.05601 
L 187.865323 180.769422 
L 188.898272 180.769422 
L 189.045837 174.191967 
L 189.931222 174.191967 
L 190.078786 166.894984 
L 191.111736 166.894984 
L 191.2593 160.810874 
L 192.144686 160.810874 
L 192.29225 155.084797 
L 193.3252 155.084797 
L 193.472764 147.156191 
L 194.505714 147.156191 
L 194.653278 142.028462 
L 195.538663 142.028462 
L 195.686227 136.654721 
L 196.719177 136.654721 
L 196.866741 129.112271 
L 197.899691 129.112271 
L 198.047255 120.992578 
L 198.932641 120.992578 
L 199.080205 114.668897 
L 200.113155 114.668897 
L 200.260719 107.923008 
L 201.146104 107.923008 
L 201.293669 102.20434 
L 202.326618 102.20434 
L 202.474183 96.028958 
L 203.507132 96.028958 
L 203.654696 91.994281 
L 204.540082 91.994281 
L 204.687646 85.882118 
L 205.720596 85.882118 
L 205.86816 81.903097 
L 206.90111 81.903097 
L 207.048674 78.0901 
L 207.934059 78.0901 
L 208.081624 74.531989 
L 209.114573 74.531989 
L 209.262138 71.638091 
L 210.295087 71.638091 
L 210.442651 68.559499 
L 211.328037 68.559499 
L 211.475601 67.61334 
L 212.508551 67.61334 
L 212.656115 66.013247 
L 213.541501 66.013247 
L 213.689065 66.256906 
L 214.722014 66.256906 
L 214.869579 66.060159 
L 215.902528 66.060159 
L 216.050093 66.744225 
L 218.115992 66.85282 
L 218.263556 68.527948 
L 219.296506 68.527948 
L 219.44407 70.615951 
L 220.329456 70.615951 
L 220.47702 73.053017 
L 221.509969 73.053017 
L 221.657534 76.146852 
L 222.690483 76.146852 
L 222.838048 78.139494 
L 223.723433 78.139494 
L 223.870997 80.89431 
L 224.903947 80.89431 
L 225.051511 84.299278 
L 225.936897 84.299278 
L 226.084461 87.784244 
L 227.117411 87.784244 
L 227.264975 91.986836 
L 228.297924 91.986836 
L 228.445489 96.16225 
L 229.330874 96.16225 
L 229.478438 100.033975 
L 230.511388 100.033975 
L 230.658952 105.674654 
L 231.691902 105.674654 
L 231.839466 109.948618 
L 232.724852 109.948618 
L 232.872416 113.599727 
L 233.905366 113.599727 
L 234.05293 117.64433 
L 234.938315 117.64433 
L 235.085879 122.807379 
L 236.118829 122.807379 
L 236.266393 128.429742 
L 237.299343 128.429742 
L 237.446907 132.588848 
L 238.332293 132.588848 
L 238.479857 136.484325 
L 239.512807 136.484325 
L 239.660371 142.118032 
L 240.693321 142.118032 
L 240.840885 147.697772 
L 241.72627 147.697772 
L 241.873835 152.092124 
L 242.906784 152.092124 
L 243.054348 156.257671 
L 244.087298 156.257671 
L 244.234862 161.547666 
L 245.120248 161.547666 
L 245.267812 165.810996 
L 246.300762 165.810996 
L 246.448326 170.159275 
L 247.333711 170.159275 
L 247.481276 173.905047 
L 248.514225 173.905047 
L 248.66179 177.371804 
L 249.694739 177.371804 
L 249.842303 180.467684 
L 250.727689 180.467684 
L 250.875253 183.680608 
L 251.908203 183.680608 
L 252.055767 186.046112 
L 253.088717 186.046112 
L 253.236281 188.705437 
L 254.121666 188.705437 
L 254.269231 191.206739 
L 255.30218 191.206739 
L 255.449745 194.159909 
L 256.482694 194.159909 
L 256.630258 195.875509 
L 257.515644 195.875509 
L 257.663208 197.855472 
L 258.696158 197.855472 
L 258.843722 199.188189 
L 259.729108 199.188189 
L 259.876672 201.467089 
L 260.909621 201.467089 
L 261.057186 202.525566 
L 262.090135 202.525566 
L 262.2377 204.004609 
L 263.123085 204.004609 
L 263.270649 206.560243 
L 264.303599 206.560243 
L 264.451163 207.443219 
L 265.484113 207.443219 
L 265.631677 210.20477 
L 266.517063 210.20477 
L 266.664627 210.871454 
L 267.697576 210.871454 
L 267.845141 212.449284 
L 268.730526 212.449284 
L 268.87809 213.009783 
L 269.91104 213.009783 
L 270.058604 214.241917 
L 271.091554 214.241917 
L 271.239118 216.243445 
L 272.124504 216.243445 
L 272.272068 217.289727 
L 273.305018 217.289727 
L 273.452582 219.445509 
L 274.485531 219.445509 
L 274.633096 220.079106 
L 275.518481 220.079106 
L 275.666045 221.511249 
L 276.698995 221.511249 
L 276.846559 222.165584 
L 277.879509 222.165584 
L 278.027073 223.328579 
L 278.912459 223.328579 
L 279.060023 224.516258 
L 280.092973 224.516258 
L 280.240537 225.77062 
L 281.125922 225.77062 
L 281.273487 225.968147 
L 282.306436 225.968147 
L 282.454 227.612646 
L 283.48695 227.612646 
L 283.634514 228.512413 
L 284.5199 228.512413 
L 284.667464 229.415158 
L 285.700414 229.415158 
L 285.847978 229.612697 
L 286.880928 229.612697 
L 287.028492 230.395432 
L 287.913877 230.395432 
L 288.061442 232.33211 
L 290.274905 232.331283 
L 290.422469 233.387609 
L 291.307855 233.387609 
L 291.455419 234.462203 
L 292.488369 234.462203 
L 292.635933 234.843444 
L 293.521318 234.843444 
L 293.668883 235.938788 
L 294.701832 235.938788 
L 294.849397 236.514118 
L 295.882346 236.514118 
L 296.02991 237.074617 
L 296.915296 237.074617 
L 297.06286 238.320742 
L 299.276324 238.343784 
L 299.423888 238.87714 
L 300.309273 238.87714 
L 300.456838 240.166065 
L 301.489787 240.166065 
L 301.637352 240.612983 
L 302.522737 240.612983 
L 302.670301 239.990742 
L 303.703251 239.990742 
L 303.850815 240.487053 
L 304.883765 240.487053 
L 305.031329 240.660888 
L 305.916715 240.660888 
L 306.064279 241.069791 
L 307.097228 241.069791 
L 307.244793 242.335992 
L 308.277742 242.335992 
L 308.572871 242.19574 
L 309.310692 242.19574 
L 309.605821 242.062413 
L 310.491206 242.062413 
L 310.63877 243.437753 
L 311.67172 243.437753 
L 311.819284 244.058505 
L 312.70467 244.058505 
L 312.852234 243.872334 
L 314.918133 243.961219 
L 315.065697 244.743954 
L 317.279161 244.664948 
L 317.426725 245.146925 
L 318.312111 245.146925 
L 318.459675 244.819675 
L 319.492625 244.819675 
L 319.640189 245.058041 
L 320.673139 245.058041 
L 320.820703 246.585981 
L 321.706088 246.585981 
L 321.853652 246.914389 
L 322.886602 246.914389 
L 323.034166 246.684756 
L 323.919552 246.684756 
L 324.067116 248.141584 
L 325.100066 248.141584 
L 325.24763 246.890519 
L 326.28058 246.890519 
L 326.575708 247.007717 
L 327.313529 247.007717 
L 327.461094 247.963802 
L 328.494043 247.963802 
L 328.641607 247.768733 
L 330.707507 247.860087 
L 330.855071 248.287259 
L 331.888021 248.287259 
L 332.035585 248.505052 
L 333.068535 248.505052 
L 333.216099 248.314426 
L 335.281998 248.339111 
L 335.577127 248.482329 
L 336.314948 248.482329 
L 336.462512 249.588533 
L 337.495462 249.588533 
L 337.643026 249.151482 
L 338.675976 249.151482 
L 338.82354 249.939156 
L 339.708925 249.939156 
L 339.85649 250.39678 
L 340.889439 250.39678 
L 341.037004 250.227565 
L 342.069953 250.227565 
L 342.217518 250.662631 
L 343.102903 250.662631 
L 343.250467 250.199253 
L 344.283417 250.199253 
L 344.430981 250.7935 
L 346.49688 250.762883 
L 346.644445 251.378708 
L 347.677394 251.378708 
L 347.824959 250.346571 
L 348.710344 250.346571 
L 348.857908 251.961434 
L 349.890858 251.961434 
L 350.038422 251.344132 
L 351.071372 251.344132 
L 351.218936 252.131808 
L 352.104322 252.131808 
L 352.251886 251.338378 
L 353.284835 251.338378 
L 353.4324 251.556489 
L 354.317785 251.556489 
L 354.465349 251.860196 
L 356.678813 251.835504 
L 356.826377 252.34663 
L 358.892277 252.265146 
L 359.334969 252.2207 
L 360.072791 252.2207 
L 360.220355 252.734293 
L 361.10574 252.734293 
L 361.253304 253.191096 
L 362.286254 253.191096 
L 362.433818 252.78697 
L 363.319204 252.78697 
L 363.466768 253.687406 
L 364.499718 253.687406 
L 364.647282 253.126896 
L 366.713181 253.143193 
L 366.860746 253.376286 
L 367.893695 253.376286 
L 368.041259 253.763457 
L 369.074209 253.763457 
L 369.221773 253.57876 
L 370.107159 253.57876 
L 370.402287 253.70469 
L 371.287673 253.70469 
L 371.435237 254.018278 
L 372.468187 254.018278 
L 372.615751 254.342238 
L 373.501136 254.342238 
L 373.648701 254.761508 
L 374.68165 254.761508 
L 374.829214 254.119515 
L 375.7146 254.119515 
L 375.862164 254.41582 
L 378.075628 254.344212 
L 378.223192 254.599035 
L 379.108577 254.599035 
L 379.256142 255.101435 
L 380.289091 255.101435 
L 380.436656 254.307175 
L 382.502555 254.35409 
L 382.650119 254.884968 
L 384.716019 254.8183 
L 384.863583 254.242977 
L 385.896532 254.242977 
L 386.044097 255.163988 
L 388.109996 255.199545 
L 388.25756 254.255322 
L 390.471024 254.238861 
L 390.618588 254.968921 
L 392.684487 254.966452 
L 392.832052 255.357573 
L 393.865001 255.357573 
L 394.012566 255.526961 
L 394.897951 255.526961 
L 395.045515 254.88003 
L 396.078465 254.88003 
L 396.226029 255.675112 
L 397.111415 255.675112 
L 397.258979 255.15905 
L 398.291929 255.15905 
L 398.439493 254.857808 
L 399.472443 254.857808 
L 399.620007 255.21584 
L 401.685906 255.308847 
L 401.83347 254.942747 
L 402.86642 254.942747 
L 403.013984 255.477577 
L 403.604241 255.477577 
L 403.604241 255.477577 
" clip-path="url(#p8431cc7470)" style="fill: none; stroke: #2ca02c; stroke-width: 1.5; stroke-linecap: square"/>
   </g>
   <g id="line2d_17">
    <path d="M 85.463977 255.796103 
L 86.954037 255.759065 
L 87.183277 256.08747 
L 88.100236 256.08747 
L 88.329476 255.65042 
L 90.392635 255.734373 
L 90.621875 255.478071 
L 91.424215 255.478071 
L 91.538835 256.454556 
L 92.570415 256.454556 
L 92.685035 255.525479 
L 94.862814 255.572229 
L 94.977434 256.280067 
L 96.009013 256.280067 
L 96.123633 255.69536 
L 98.301412 255.651244 
L 98.530652 256.029196 
L 99.332992 256.029196 
L 99.447612 255.287448 
L 100.479192 255.287448 
L 100.593812 255.828203 
L 101.510771 255.828203 
L 101.740011 255.692398 
L 102.771591 255.692398 
L 102.886211 255.12695 
L 103.80317 255.12695 
L 104.03241 255.516261 
L 105.98095 255.515602 
L 106.09557 256.060308 
L 107.241769 256.060308 
L 107.356389 255.549183 
L 108.387969 255.549183 
L 108.617209 255.257818 
L 110.680368 255.272632 
L 110.909608 255.090899 
L 111.711947 255.090899 
L 111.941187 254.946697 
L 112.858147 254.946697 
L 113.087387 254.776324 
L 113.889727 254.776324 
L 114.004347 255.954132 
L 115.150546 255.954132 
L 115.379786 256.082531 
L 116.182126 256.082531 
L 116.296746 256.57242 
L 117.328325 256.57242 
L 117.442945 255.70392 
L 118.589145 255.70392 
L 118.818385 255.26078 
L 119.620724 255.26078 
L 119.849964 255.660298 
L 121.798504 255.58869 
L 121.913124 256.105576 
L 123.059323 256.105576 
L 123.173943 255.030651 
L 124.090903 255.030651 
L 124.205523 255.850425 
L 125.237102 255.850425 
L 125.466342 255.657828 
L 126.268682 255.657828 
L 126.383302 254.494834 
L 127.529502 254.494834 
L 127.644121 255.936849 
L 128.561081 255.936849 
L 128.675701 256.398588 
L 129.707281 256.398588 
L 129.821901 255.178803 
L 130.9681 255.178803 
L 131.19734 255.499799 
L 133.145879 255.517083 
L 133.260499 254.808422 
L 134.177459 254.808422 
L 134.406699 254.919537 
L 136.469858 254.884968 
L 136.584478 255.391155 
L 138.647637 255.44844 
L 138.876877 255.042997 
L 141.054656 255.040527 
L 141.169276 255.960717 
L 142.086236 255.960717 
L 142.200856 255.228188 
L 143.347056 255.228188 
L 143.461676 255.759066 
L 144.378635 255.759066 
L 144.493255 254.931883 
L 145.524835 254.931883 
L 145.639455 255.819808 
L 146.556414 255.819808 
L 146.785654 255.455353 
L 148.848814 255.462761 
L 148.963433 254.884969 
L 149.995013 254.884969 
L 150.224253 254.541749 
L 151.026593 254.541749 
L 151.255833 254.38372 
L 154.465191 254.378781 
L 154.694431 253.981241 
L 155.726011 253.981241 
L 155.840631 252.926891 
L 156.757591 252.926891 
L 156.872211 252.470089 
L 157.90379 252.470089 
L 158.13303 252.098229 
L 158.93537 252.098229 
L 159.16461 252.299714 
L 160.196189 252.299714 
L 160.310809 251.705131 
L 161.227769 251.705131 
L 161.457009 251.284872 
L 162.373968 251.284872 
L 162.488588 250.447816 
L 163.634788 250.447816 
L 163.749408 249.899653 
L 164.666368 249.899653 
L 164.780988 247.832106 
L 165.812567 247.832106 
L 165.927187 248.740109 
L 166.844147 248.740109 
L 166.958767 246.092139 
L 168.104966 246.092139 
L 168.219586 244.322549 
L 169.136546 244.322549 
L 169.251166 243.013051 
L 170.282746 243.013051 
L 170.397365 239.780866 
L 171.314325 239.780866 
L 171.428945 238.266751 
L 172.575145 238.266751 
L 172.689765 233.180688 
L 173.721344 233.180688 
L 173.835964 229.123795 
L 174.752924 229.123795 
L 174.867544 225.466908 
L 176.013743 225.466908 
L 176.128363 220.790232 
L 177.045323 220.790232 
L 177.159943 215.307791 
L 178.191523 215.307791 
L 178.306142 210.368726 
L 179.223102 210.368726 
L 179.337722 204.489399 
L 180.483922 204.489399 
L 180.598542 199.047926 
L 181.515501 199.047926 
L 181.630121 191.624032 
L 182.661701 191.624032 
L 182.776321 184.873227 
L 183.69328 184.873227 
L 183.8079 176.524869 
L 184.9541 176.524869 
L 185.06872 169.92716 
L 186.1003 169.92716 
L 186.21492 161.901268 
L 187.131879 161.901268 
L 187.246499 154.15062 
L 188.392699 154.15062 
L 188.507319 147.97102 
L 189.424278 147.97102 
L 189.538898 139.820166 
L 190.570478 139.820166 
L 190.685098 132.454611 
L 191.602058 132.454611 
L 191.716677 123.753066 
L 192.862877 123.753066 
L 192.977497 115.134592 
L 193.894457 115.134592 
L 194.009077 105.285886 
L 195.040656 105.285886 
L 195.155276 96.596866 
L 196.301476 96.596866 
L 196.416096 89.773578 
L 197.333055 89.773578 
L 197.447675 82.749524 
L 198.479255 82.749524 
L 198.593875 74.163664 
L 199.510835 74.163664 
L 199.625455 66.342577 
L 200.771654 66.342577 
L 200.886274 59.632846 
L 201.803234 59.632846 
L 201.917854 51.124031 
L 202.949433 51.124031 
L 203.064053 45.143624 
L 203.981013 45.143624 
L 204.095633 39.632338 
L 205.241832 39.632338 
L 205.356452 34.756433 
L 206.273412 34.756433 
L 206.388032 30.642466 
L 207.419612 30.642466 
L 207.534232 27.28382 
L 208.680431 27.28382 
L 208.795051 24.234415 
L 209.712011 24.234415 
L 209.826631 20.947968 
L 210.85821 20.947968 
L 210.97283 19.982429 
L 211.88979 19.982429 
L 212.11903 20.278791 
L 213.150609 20.278791 
L 213.265229 19.296 
L 214.182189 19.296 
L 214.296809 20.803805 
L 215.328389 20.803805 
L 215.443009 21.585003 
L 216.359968 21.585003 
L 216.474588 24.204755 
L 217.620788 24.204755 
L 217.735408 27.044296 
L 218.766987 27.044296 
L 218.881607 29.822745 
L 219.798567 29.822745 
L 219.913187 33.701324 
L 221.059386 33.701324 
L 221.174006 37.380439 
L 222.090966 37.380439 
L 222.205586 41.817591 
L 223.237166 41.817591 
L 223.351786 45.63496 
L 224.268745 45.63496 
L 224.383365 50.203868 
L 225.529565 50.203868 
L 225.644185 55.682186 
L 226.561144 55.682186 
L 226.675764 60.755546 
L 227.707344 60.755546 
L 227.821964 65.126407 
L 228.738924 65.126407 
L 228.853544 71.699892 
L 229.999743 71.699892 
L 230.114363 77.381456 
L 231.145943 77.381456 
L 231.260563 83.973256 
L 232.177522 83.973256 
L 232.292142 89.803237 
L 233.438342 89.803237 
L 233.552962 94.772139 
L 234.469921 94.772139 
L 234.584541 100.540201 
L 235.616121 100.540201 
L 235.730741 106.873689 
L 236.647701 106.873689 
L 236.762321 113.967697 
L 237.90852 113.967697 
L 238.02314 119.162888 
L 238.9401 119.162888 
L 239.05472 126.651927 
L 240.086299 126.651927 
L 240.200919 131.626855 
L 241.117879 131.626855 
L 241.232499 138.605296 
L 242.378698 138.605296 
L 242.493318 144.089404 
L 243.524898 144.089404 
L 243.639518 148.650052 
L 244.556478 148.650052 
L 244.671098 154.116872 
L 245.817297 154.116872 
L 245.931917 158.501676 
L 246.848877 158.501676 
L 246.963497 163.082531 
L 247.995076 163.082531 
L 248.109696 167.051035 
L 249.026656 167.051035 
L 249.141276 171.37164 
L 250.287476 171.37164 
L 250.402095 174.838409 
L 251.319055 174.838409 
L 251.433675 178.265651 
L 252.465255 178.265651 
L 252.579875 181.219648 
L 253.726074 181.219648 
L 253.840694 183.539375 
L 254.757654 183.539375 
L 254.872274 187.251079 
L 255.903853 187.251079 
L 256.018473 190.043744 
L 256.935433 190.043744 
L 257.050053 191.164754 
L 258.196253 191.164754 
L 258.310873 193.594459 
L 259.227832 193.594459 
L 259.342452 195.540188 
L 260.374032 195.540188 
L 260.488652 196.834052 
L 261.405611 196.834052 
L 261.520231 198.918061 
L 262.666431 198.918061 
L 262.781051 200.947736 
L 263.698011 200.947736 
L 263.81263 202.626799 
L 264.84421 202.626799 
L 264.95883 203.367561 
L 266.10503 203.367561 
L 266.21965 206.044671 
L 267.136609 206.044671 
L 267.251229 207.523217 
L 268.282809 207.523217 
L 268.397429 209.113384 
L 269.314388 209.113384 
L 269.429008 211.034429 
L 270.575208 211.034429 
L 270.689828 212.094536 
L 271.606788 212.094536 
L 271.721408 212.915959 
L 272.752987 212.915959 
L 272.867607 214.339203 
L 273.784567 214.339203 
L 273.899187 216.150613 
L 275.045386 216.150613 
L 275.160006 217.572865 
L 276.191586 217.572865 
L 276.306206 218.429679 
L 277.223165 218.429679 
L 277.337785 220.479123 
L 278.483985 220.479123 
L 278.598605 221.286543 
L 279.515565 221.286543 
L 279.630185 222.703868 
L 280.661764 222.703868 
L 280.776384 223.601673 
L 281.693344 223.601673 
L 281.922584 223.82736 
L 282.954163 223.82736 
L 283.068783 225.44962 
L 283.985743 225.44962 
L 284.100363 226.558294 
L 285.131942 226.558294 
L 285.246562 227.992894 
L 286.163522 227.992894 
L 286.278142 228.78897 
L 287.424342 228.78897 
L 287.538962 229.923806 
L 288.570541 229.923806 
L 288.799781 230.113121 
L 289.602121 230.113121 
L 289.716741 230.830013 
L 290.86294 230.830013 
L 290.97756 231.78806 
L 291.89452 231.78806 
L 292.00914 232.504125 
L 293.04072 232.504125 
L 293.155339 233.901196 
L 294.072299 233.901196 
L 294.186919 234.933002 
L 295.333119 234.933002 
L 295.447739 235.398531 
L 296.364698 235.398531 
L 296.479318 236.407933 
L 297.510898 236.407933 
L 297.740138 236.789835 
L 298.542477 236.789835 
L 298.657097 237.55364 
L 299.803297 237.55364 
L 299.917917 236.970914 
L 300.949497 236.970914 
L 301.064117 238.033656 
L 301.981076 238.033656 
L 302.210316 238.237612 
L 303.241896 238.237612 
L 303.356516 238.948749 
L 305.419675 238.887007 
L 305.534295 240.091987 
L 306.451254 240.091987 
L 306.565874 240.773488 
L 307.712074 240.773488 
L 307.826694 241.321639 
L 308.743654 241.321639 
L 308.972894 241.133991 
L 309.889853 241.133991 
L 310.004473 242.548834 
L 310.921433 242.548834 
L 311.150673 242.859954 
L 312.182252 242.859954 
L 312.411492 242.603167 
L 313.328452 242.603167 
L 313.443072 243.201207 
L 314.360032 243.201207 
L 314.474651 243.958749 
L 315.620851 243.958749 
L 315.735471 243.492074 
L 317.79863 243.450102 
L 317.91325 244.097028 
L 318.83021 244.097028 
L 319.05945 243.958749 
L 320.091029 243.958749 
L 320.205649 245.101987 
L 322.268809 245.077798 
L 322.383429 245.761273 
L 323.529628 245.761273 
L 323.758868 246.099548 
L 324.561208 246.099548 
L 324.790448 245.96374 
L 325.707407 245.96374 
L 325.822027 246.54812 
L 326.738987 246.54812 
L 326.968227 246.427957 
L 327.999806 246.427957 
L 328.229046 246.62253 
L 329.031386 246.62253 
L 329.146006 247.553906 
L 331.209165 247.469961 
L 331.323785 247.963802 
L 332.469985 247.963802 
L 332.584605 248.484798 
L 333.616184 248.484798 
L 333.845424 248.173181 
L 334.647764 248.173181 
L 334.877004 247.980263 
L 335.908583 247.980263 
L 336.023203 248.702083 
L 336.940163 248.702083 
L 337.169403 248.907031 
L 339.117942 248.936667 
L 339.347182 249.072464 
L 340.378762 249.072464 
L 340.493382 249.777174 
L 341.410341 249.777174 
L 341.524961 249.201691 
L 342.556541 249.201691 
L 342.785781 249.52828 
L 343.588121 249.52828 
L 343.702741 250.391025 
L 344.84894 250.391025 
L 344.96356 250.913675 
L 345.99514 250.913675 
L 346.10976 250.25719 
L 347.026719 250.25719 
L 347.141339 251.061821 
L 348.287539 251.061821 
L 348.516779 250.713501 
L 349.319118 250.713501 
L 349.548358 250.931779 
L 350.465318 250.931779 
L 350.694558 250.694737 
L 351.496898 250.694737 
L 351.611518 251.931803 
L 352.757717 251.931803 
L 352.872337 251.452775 
L 353.789297 251.452775 
L 354.018537 251.051942 
L 354.935496 251.051942 
L 355.050116 251.515498 
L 355.967076 251.515498 
L 356.081696 252.057732 
L 357.227895 252.057732 
L 357.457135 251.771304 
L 359.405675 251.704635 
L 359.520295 252.193538 
L 361.698074 252.116006 
L 361.927314 252.447867 
L 362.844273 252.447867 
L 363.073513 252.736763 
L 363.875853 252.736763 
L 363.990473 251.981187 
L 365.136673 251.981187 
L 365.251292 252.924423 
L 366.168252 252.924423 
L 366.397492 252.675034 
L 367.314452 252.675034 
L 367.543692 252.993561 
L 369.606851 252.908125 
L 369.721471 253.373817 
L 370.75305 253.373817 
L 370.98229 253.773827 
L 371.78463 253.773827 
L 372.01387 253.639668 
L 373.04545 253.639668 
L 373.16007 254.255322 
L 374.077029 254.255322 
L 374.191649 253.721973 
L 375.223229 253.721973 
L 375.452469 253.9926 
L 376.254808 253.9926 
L 376.369428 253.359003 
L 377.515628 253.359003 
L 377.630248 253.852842 
L 378.547207 253.852842 
L 378.776447 254.265198 
L 379.693407 254.265198 
L 379.922647 253.963956 
L 380.954227 253.963956 
L 381.183467 253.746667 
L 381.985806 253.746667 
L 382.100426 254.467673 
L 383.132006 254.467673 
L 383.246626 253.929388 
L 384.163585 253.929388 
L 384.278205 254.45039 
L 385.424405 254.45039 
L 385.653645 254.640517 
L 387.602184 254.722001 
L 387.716804 255.462267 
L 388.633764 255.462267 
L 388.863004 255.150819 
L 389.894583 255.150819 
L 390.123823 254.934846 
L 390.926163 254.934846 
L 391.155403 254.778792 
L 392.072362 254.778792 
L 392.186982 254.134331 
L 393.333182 254.134331 
L 393.447802 254.917067 
L 395.510961 255.022419 
L 395.740201 255.187692 
L 396.542541 255.187692 
L 396.657161 254.605948 
L 398.83494 254.556565 
L 399.06418 254.805954 
L 399.981139 254.805954 
L 400.095759 255.453707 
L 401.012719 255.453707 
L 401.241959 255.126457 
L 403.419738 255.015835 
L 403.648978 254.571379 
L 404.451318 254.571379 
L 404.680558 254.331867 
L 405.712137 254.331867 
L 405.826757 254.926944 
L 405.826757 254.926944 
" clip-path="url(#p8431cc7470)" style="fill: none; stroke: #d62728; stroke-width: 1.5; stroke-linecap: square"/>
   </g>
   <g id="patch_3">
    <path d="M 69.23125 273.312 
L 69.23125 7.2 
" style="fill: none; stroke: #000000; stroke-width: 0.8; stroke-linejoin: miter; stroke-linecap: square"/>
   </g>
   <g id="patch_4">
    <path d="M 426.35125 273.312 
L 426.35125 7.2 
" style="fill: none; stroke: #000000; stroke-width: 0.8; stroke-linejoin: miter; stroke-linecap: square"/>
   </g>
   <g id="patch_5">
    <path d="M 69.23125 273.312 
L 426.35125 273.312 
" style="fill: none; stroke: #000000; stroke-width: 0.8; stroke-linejoin: miter; stroke-linecap: square"/>
   </g>
   <g id="patch_6">
    <path d="M 69.23125 7.2 
L 426.35125 7.2 
" style="fill: none; stroke: #000000; stroke-width: 0.8; stroke-linejoin: miter; stroke-linecap: square"/>
   </g>
   <g id="legend_1">
    <g id="patch_7">
     <path d="M 324.65125 73.9125 
L 419.35125 73.9125 
Q 421.35125 73.9125 421.35125 71.9125 
L 421.35125 14.2 
Q 421.35125 12.2 419.35125 12.2 
L 324.65125 12.2 
Q 322.65125 12.2 322.65125 14.2 
L 322.65125 71.9125 
Q 322.65125 73.9125 324.65125 73.9125 
z
" style="fill: #ffffff; opacity: 0.8; stroke: #cccccc; stroke-linejoin: miter"/>
    </g>
    <g id="line2d_18">
     <path d="M 326.65125 20.298437 
L 336.65125 20.298437 
L 346.65125 20.298437 
" style="fill: none; stroke: #1f77b4; stroke-width: 1.5; stroke-linecap: square"/>
    </g>
    <g id="text_17">
     <!-- $T=714\pm1$K -->
     <g transform="translate(354.65125 23.798437) scale(0.1 -0.1)">
      <defs>
       <path id="DejaVuSans-Oblique-54" d="M 378 4666 
L 4325 4666 
L 4225 4134 
L 2559 4134 
L 1759 0 
L 1125 0 
L 1925 4134 
L 275 4134 
L 378 4666 
z
" transform="scale(0.015625)"/>
       <path id="DejaVuSans-3d" d="M 678 2906 
L 4684 2906 
L 4684 2381 
L 678 2381 
L 678 2906 
z
M 678 1631 
L 4684 1631 
L 4684 1100 
L 678 1100 
L 678 1631 
z
" transform="scale(0.015625)"/>
       <path id="DejaVuSans-37" d="M 525 4666 
L 3525 4666 
L 3525 4397 
L 1831 0 
L 1172 0 
L 2766 4134 
L 525 4134 
L 525 4666 
z
" transform="scale(0.015625)"/>
       <path id="DejaVuSans-b1" d="M 2944 4013 
L 2944 2803 
L 4684 2803 
L 4684 2272 
L 2944 2272 
L 2944 1063 
L 2419 1063 
L 2419 2272 
L 678 2272 
L 678 2803 
L 2419 2803 
L 2419 4013 
L 2944 4013 
z
M 678 531 
L 4684 531 
L 4684 0 
L 678 0 
L 678 531 
z
" transform="scale(0.015625)"/>
       <path id="DejaVuSans-4b" d="M 628 4666 
L 1259 4666 
L 1259 2694 
L 3353 4666 
L 4166 4666 
L 1850 2491 
L 4331 0 
L 3500 0 
L 1259 2247 
L 1259 0 
L 628 0 
L 628 4666 
z
" transform="scale(0.015625)"/>
      </defs>
      <use xlink:href="#DejaVuSans-Oblique-54" transform="translate(0 0.09375)"/>
      <use xlink:href="#DejaVuSans-3d" transform="translate(80.566406 0.09375)"/>
      <use xlink:href="#DejaVuSans-37" transform="translate(183.837891 0.09375)"/>
      <use xlink:href="#DejaVuSans-31" transform="translate(247.460938 0.09375)"/>
      <use xlink:href="#DejaVuSans-34" transform="translate(311.083984 0.09375)"/>
      <use xlink:href="#DejaVuSans-b1" transform="translate(394.189453 0.09375)"/>
      <use xlink:href="#DejaVuSans-31" transform="translate(497.460938 0.09375)"/>
      <use xlink:href="#DejaVuSans-4b" transform="translate(561.083984 0.09375)"/>
     </g>
    </g>
    <g id="line2d_19">
     <path d="M 326.65125 34.976562 
L 336.65125 34.976562 
L 346.65125 34.976562 
" style="fill: none; stroke: #ff7f0e; stroke-width: 1.5; stroke-linecap: square"/>
    </g>
    <g id="text_18">
     <!-- $T=766\pm1$K -->
     <g transform="translate(354.65125 38.476562) scale(0.1 -0.1)">
      <use xlink:href="#DejaVuSans-Oblique-54" transform="translate(0 0.78125)"/>
      <use xlink:href="#DejaVuSans-3d" transform="translate(80.566406 0.78125)"/>
      <use xlink:href="#DejaVuSans-37" transform="translate(183.837891 0.78125)"/>
      <use xlink:href="#DejaVuSans-36" transform="translate(247.460938 0.78125)"/>
      <use xlink:href="#DejaVuSans-36" transform="translate(311.083984 0.78125)"/>
      <use xlink:href="#DejaVuSans-b1" transform="translate(394.189453 0.78125)"/>
      <use xlink:href="#DejaVuSans-31" transform="translate(497.460938 0.78125)"/>
      <use xlink:href="#DejaVuSans-4b" transform="translate(561.083984 0.78125)"/>
     </g>
    </g>
    <g id="line2d_20">
     <path d="M 326.65125 49.654687 
L 336.65125 49.654687 
L 346.65125 49.654687 
" style="fill: none; stroke: #2ca02c; stroke-width: 1.5; stroke-linecap: square"/>
    </g>
    <g id="text_19">
     <!-- $T=820\pm1$K -->
     <g transform="translate(354.65125 53.154687) scale(0.1 -0.1)">
      <use xlink:href="#DejaVuSans-Oblique-54" transform="translate(0 0.78125)"/>
      <use xlink:href="#DejaVuSans-3d" transform="translate(80.566406 0.78125)"/>
      <use xlink:href="#DejaVuSans-38" transform="translate(183.837891 0.78125)"/>
      <use xlink:href="#DejaVuSans-32" transform="translate(247.460938 0.78125)"/>
      <use xlink:href="#DejaVuSans-30" transform="translate(311.083984 0.78125)"/>
      <use xlink:href="#DejaVuSans-b1" transform="translate(394.189453 0.78125)"/>
      <use xlink:href="#DejaVuSans-31" transform="translate(497.460938 0.78125)"/>
      <use xlink:href="#DejaVuSans-4b" transform="translate(561.083984 0.78125)"/>
     </g>
    </g>
    <g id="line2d_21">
     <path d="M 326.65125 64.332812 
L 336.65125 64.332812 
L 346.65125 64.332812 
" style="fill: none; stroke: #d62728; stroke-width: 1.5; stroke-linecap: square"/>
    </g>
    <g id="text_20">
     <!-- $T=863\pm1$K -->
     <g transform="translate(354.65125 67.832812) scale(0.1 -0.1)">
      <defs>
       <path id="DejaVuSans-33" d="M 2597 2516 
Q 3050 2419 3304 2112 
Q 3559 1806 3559 1356 
Q 3559 666 3084 287 
Q 2609 -91 1734 -91 
Q 1441 -91 1130 -33 
Q 819 25 488 141 
L 488 750 
Q 750 597 1062 519 
Q 1375 441 1716 441 
Q 2309 441 2620 675 
Q 2931 909 2931 1356 
Q 2931 1769 2642 2001 
Q 2353 2234 1838 2234 
L 1294 2234 
L 1294 2753 
L 1863 2753 
Q 2328 2753 2575 2939 
Q 2822 3125 2822 3475 
Q 2822 3834 2567 4026 
Q 2313 4219 1838 4219 
Q 1578 4219 1281 4162 
Q 984 4106 628 3988 
L 628 4550 
Q 988 4650 1302 4700 
Q 1616 4750 1894 4750 
Q 2613 4750 3031 4423 
Q 3450 4097 3450 3541 
Q 3450 3153 3228 2886 
Q 3006 2619 2597 2516 
z
" transform="scale(0.015625)"/>
      </defs>
      <use xlink:href="#DejaVuSans-Oblique-54" transform="translate(0 0.78125)"/>
      <use xlink:href="#DejaVuSans-3d" transform="translate(80.566406 0.78125)"/>
      <use xlink:href="#DejaVuSans-38" transform="translate(183.837891 0.78125)"/>
      <use xlink:href="#DejaVuSans-36" transform="translate(247.460938 0.78125)"/>
      <use xlink:href="#DejaVuSans-33" transform="translate(311.083984 0.78125)"/>
      <use xlink:href="#DejaVuSans-b1" transform="translate(394.189453 0.78125)"/>
      <use xlink:href="#DejaVuSans-31" transform="translate(497.460938 0.78125)"/>
      <use xlink:href="#DejaVuSans-4b" transform="translate(561.083984 0.78125)"/>
     </g>
    </g>
   </g>
  </g>
 </g>
 <defs>
  <clipPath id="p8431cc7470">
   <rect x="69.23125" y="7.2" width="357.12" height="266.112"/>
  </clipPath>
 </defs>
</svg>
