<?xml version="1.0" encoding="utf-8" standalone="no"?>
<!DOCTYPE svg PUBLIC "-//W3C//DTD SVG 1.1//EN"
  "http://www.w3.org/Graphics/SVG/1.1/DTD/svg11.dtd">
<svg xmlns:xlink="http://www.w3.org/1999/xlink" width="460.8pt" height="345.6pt" viewBox="0 0 460.8 345.6" xmlns="http://www.w3.org/2000/svg" version="1.1">
 <metadata>
  <rdf:RDF xmlns:dc="http://purl.org/dc/elements/1.1/" xmlns:cc="http://creativecommons.org/ns#" xmlns:rdf="http://www.w3.org/1999/02/22-rdf-syntax-ns#">
   <cc:Work>
    <dc:type rdf:resource="http://purl.org/dc/dcmitype/StillImage"/>
    <dc:date>2024-07-11T01:56:23.860168</dc:date>
    <dc:format>image/svg+xml</dc:format>
    <dc:creator>
     <cc:Agent>
      <dc:title>Matplotlib v3.8.2, https://matplotlib.org/</dc:title>
     </cc:Agent>
    </dc:creator>
   </cc:Work>
  </rdf:RDF>
 </metadata>
 <defs>
  <style type="text/css">*{stroke-linejoin: round; stroke-linecap: butt}</style>
 </defs>
 <g id="figure_1">
  <g id="patch_1">
   <path d="M 0 345.6 
L 460.8 345.6 
L 460.8 0 
L 0 0 
z
" style="fill: #ffffff"/>
  </g>
  <g id="axes_1">
   <g id="patch_2">
    <path d="M 57.6 307.584 
L 414.72 307.584 
L 414.72 41.472 
L 57.6 41.472 
z
" style="fill: #ffffff"/>
   </g>
   <g id="matplotlib.axis_1">
    <g id="xtick_1">
     <g id="line2d_1">
      <defs>
       <path id="ma72964b436" d="M 0 0 
L 0 3.5 
" style="stroke: #000000; stroke-width: 0.8"/>
      </defs>
      <g>
       <use xlink:href="#ma72964b436" x="77.216351" y="307.584" style="stroke: #000000; stroke-width: 0.8"/>
      </g>
     </g>
     <g id="text_1">
      <!-- 0 -->
      <g transform="translate(74.035101 322.182437) scale(0.1 -0.1)">
       <defs>
        <path id="DejaVuSans-30" d="M 2034 4250 
Q 1547 4250 1301 3770 
Q 1056 3291 1056 2328 
Q 1056 1369 1301 889 
Q 1547 409 2034 409 
Q 2525 409 2770 889 
Q 3016 1369 3016 2328 
Q 3016 3291 2770 3770 
Q 2525 4250 2034 4250 
z
M 2034 4750 
Q 2819 4750 3233 4129 
Q 3647 3509 3647 2328 
Q 3647 1150 3233 529 
Q 2819 -91 2034 -91 
Q 1250 -91 836 529 
Q 422 1150 422 2328 
Q 422 3509 836 4129 
Q 1250 4750 2034 4750 
z
" transform="scale(0.015625)"/>
       </defs>
       <use xlink:href="#DejaVuSans-30"/>
      </g>
     </g>
    </g>
    <g id="xtick_2">
     <g id="line2d_2">
      <g>
       <use xlink:href="#ma72964b436" x="133.632652" y="307.584" style="stroke: #000000; stroke-width: 0.8"/>
      </g>
     </g>
     <g id="text_2">
      <!-- 50 -->
      <g transform="translate(127.270152 322.182437) scale(0.1 -0.1)">
       <defs>
        <path id="DejaVuSans-35" d="M 691 4666 
L 3169 4666 
L 3169 4134 
L 1269 4134 
L 1269 2991 
Q 1406 3038 1543 3061 
Q 1681 3084 1819 3084 
Q 2600 3084 3056 2656 
Q 3513 2228 3513 1497 
Q 3513 744 3044 326 
Q 2575 -91 1722 -91 
Q 1428 -91 1123 -41 
Q 819 9 494 109 
L 494 744 
Q 775 591 1075 516 
Q 1375 441 1709 441 
Q 2250 441 2565 725 
Q 2881 1009 2881 1497 
Q 2881 1984 2565 2268 
Q 2250 2553 1709 2553 
Q 1456 2553 1204 2497 
Q 953 2441 691 2322 
L 691 4666 
z
" transform="scale(0.015625)"/>
       </defs>
       <use xlink:href="#DejaVuSans-35"/>
       <use xlink:href="#DejaVuSans-30" x="63.623047"/>
      </g>
     </g>
    </g>
    <g id="xtick_3">
     <g id="line2d_3">
      <g>
       <use xlink:href="#ma72964b436" x="190.048952" y="307.584" style="stroke: #000000; stroke-width: 0.8"/>
      </g>
     </g>
     <g id="text_3">
      <!-- 100 -->
      <g transform="translate(180.505202 322.182437) scale(0.1 -0.1)">
       <defs>
        <path id="DejaVuSans-31" d="M 794 531 
L 1825 531 
L 1825 4091 
L 703 3866 
L 703 4441 
L 1819 4666 
L 2450 4666 
L 2450 531 
L 3481 531 
L 3481 0 
L 794 0 
L 794 531 
z
" transform="scale(0.015625)"/>
       </defs>
       <use xlink:href="#DejaVuSans-31"/>
       <use xlink:href="#DejaVuSans-30" x="63.623047"/>
       <use xlink:href="#DejaVuSans-30" x="127.246094"/>
      </g>
     </g>
    </g>
    <g id="xtick_4">
     <g id="line2d_4">
      <g>
       <use xlink:href="#ma72964b436" x="246.465252" y="307.584" style="stroke: #000000; stroke-width: 0.8"/>
      </g>
     </g>
     <g id="text_4">
      <!-- 150 -->
      <g transform="translate(236.921502 322.182437) scale(0.1 -0.1)">
       <use xlink:href="#DejaVuSans-31"/>
       <use xlink:href="#DejaVuSans-35" x="63.623047"/>
       <use xlink:href="#DejaVuSans-30" x="127.246094"/>
      </g>
     </g>
    </g>
    <g id="xtick_5">
     <g id="line2d_5">
      <g>
       <use xlink:href="#ma72964b436" x="302.881553" y="307.584" style="stroke: #000000; stroke-width: 0.8"/>
      </g>
     </g>
     <g id="text_5">
      <!-- 200 -->
      <g transform="translate(293.337803 322.182437) scale(0.1 -0.1)">
       <defs>
        <path id="DejaVuSans-32" d="M 1228 531 
L 3431 531 
L 3431 0 
L 469 0 
L 469 531 
Q 828 903 1448 1529 
Q 2069 2156 2228 2338 
Q 2531 2678 2651 2914 
Q 2772 3150 2772 3378 
Q 2772 3750 2511 3984 
Q 2250 4219 1831 4219 
Q 1534 4219 1204 4116 
Q 875 4013 500 3803 
L 500 4441 
Q 881 4594 1212 4672 
Q 1544 4750 1819 4750 
Q 2544 4750 2975 4387 
Q 3406 4025 3406 3419 
Q 3406 3131 3298 2873 
Q 3191 2616 2906 2266 
Q 2828 2175 2409 1742 
Q 1991 1309 1228 531 
z
" transform="scale(0.015625)"/>
       </defs>
       <use xlink:href="#DejaVuSans-32"/>
       <use xlink:href="#DejaVuSans-30" x="63.623047"/>
       <use xlink:href="#DejaVuSans-30" x="127.246094"/>
      </g>
     </g>
    </g>
    <g id="xtick_6">
     <g id="line2d_6">
      <g>
       <use xlink:href="#ma72964b436" x="359.297853" y="307.584" style="stroke: #000000; stroke-width: 0.8"/>
      </g>
     </g>
     <g id="text_6">
      <!-- 250 -->
      <g transform="translate(349.754103 322.182437) scale(0.1 -0.1)">
       <use xlink:href="#DejaVuSans-32"/>
       <use xlink:href="#DejaVuSans-35" x="63.623047"/>
       <use xlink:href="#DejaVuSans-30" x="127.246094"/>
      </g>
     </g>
    </g>
    <g id="text_7">
     <!-- Zeit in s -->
     <g transform="translate(215.968594 335.860562) scale(0.1 -0.1)">
      <defs>
       <path id="DejaVuSans-5a" d="M 359 4666 
L 4025 4666 
L 4025 4184 
L 1075 531 
L 4097 531 
L 4097 0 
L 288 0 
L 288 481 
L 3238 4134 
L 359 4134 
L 359 4666 
z
" transform="scale(0.015625)"/>
       <path id="DejaVuSans-65" d="M 3597 1894 
L 3597 1613 
L 953 1613 
Q 991 1019 1311 708 
Q 1631 397 2203 397 
Q 2534 397 2845 478 
Q 3156 559 3463 722 
L 3463 178 
Q 3153 47 2828 -22 
Q 2503 -91 2169 -91 
Q 1331 -91 842 396 
Q 353 884 353 1716 
Q 353 2575 817 3079 
Q 1281 3584 2069 3584 
Q 2775 3584 3186 3129 
Q 3597 2675 3597 1894 
z
M 3022 2063 
Q 3016 2534 2758 2815 
Q 2500 3097 2075 3097 
Q 1594 3097 1305 2825 
Q 1016 2553 972 2059 
L 3022 2063 
z
" transform="scale(0.015625)"/>
       <path id="DejaVuSans-69" d="M 603 3500 
L 1178 3500 
L 1178 0 
L 603 0 
L 603 3500 
z
M 603 4863 
L 1178 4863 
L 1178 4134 
L 603 4134 
L 603 4863 
z
" transform="scale(0.015625)"/>
       <path id="DejaVuSans-74" d="M 1172 4494 
L 1172 3500 
L 2356 3500 
L 2356 3053 
L 1172 3053 
L 1172 1153 
Q 1172 725 1289 603 
Q 1406 481 1766 481 
L 2356 481 
L 2356 0 
L 1766 0 
Q 1100 0 847 248 
Q 594 497 594 1153 
L 594 3053 
L 172 3053 
L 172 3500 
L 594 3500 
L 594 4494 
L 1172 4494 
z
" transform="scale(0.015625)"/>
       <path id="DejaVuSans-20" transform="scale(0.015625)"/>
       <path id="DejaVuSans-6e" d="M 3513 2113 
L 3513 0 
L 2938 0 
L 2938 2094 
Q 2938 2591 2744 2837 
Q 2550 3084 2163 3084 
Q 1697 3084 1428 2787 
Q 1159 2491 1159 1978 
L 1159 0 
L 581 0 
L 581 3500 
L 1159 3500 
L 1159 2956 
Q 1366 3272 1645 3428 
Q 1925 3584 2291 3584 
Q 2894 3584 3203 3211 
Q 3513 2838 3513 2113 
z
" transform="scale(0.015625)"/>
       <path id="DejaVuSans-73" d="M 2834 3397 
L 2834 2853 
Q 2591 2978 2328 3040 
Q 2066 3103 1784 3103 
Q 1356 3103 1142 2972 
Q 928 2841 928 2578 
Q 928 2378 1081 2264 
Q 1234 2150 1697 2047 
L 1894 2003 
Q 2506 1872 2764 1633 
Q 3022 1394 3022 966 
Q 3022 478 2636 193 
Q 2250 -91 1575 -91 
Q 1294 -91 989 -36 
Q 684 19 347 128 
L 347 722 
Q 666 556 975 473 
Q 1284 391 1588 391 
Q 1994 391 2212 530 
Q 2431 669 2431 922 
Q 2431 1156 2273 1281 
Q 2116 1406 1581 1522 
L 1381 1569 
Q 847 1681 609 1914 
Q 372 2147 372 2553 
Q 372 3047 722 3315 
Q 1072 3584 1716 3584 
Q 2034 3584 2315 3537 
Q 2597 3491 2834 3397 
z
" transform="scale(0.015625)"/>
      </defs>
      <use xlink:href="#DejaVuSans-5a"/>
      <use xlink:href="#DejaVuSans-65" x="68.505859"/>
      <use xlink:href="#DejaVuSans-69" x="130.029297"/>
      <use xlink:href="#DejaVuSans-74" x="157.8125"/>
      <use xlink:href="#DejaVuSans-20" x="197.021484"/>
      <use xlink:href="#DejaVuSans-69" x="228.808594"/>
      <use xlink:href="#DejaVuSans-6e" x="256.591797"/>
      <use xlink:href="#DejaVuSans-20" x="319.970703"/>
      <use xlink:href="#DejaVuSans-73" x="351.757812"/>
     </g>
    </g>
   </g>
   <g id="matplotlib.axis_2">
    <g id="ytick_1">
     <g id="line2d_7">
      <defs>
       <path id="m716df54614" d="M 0 0 
L -3.5 0 
" style="stroke: #000000; stroke-width: 0.8"/>
      </defs>
      <g>
       <use xlink:href="#m716df54614" x="57.6" y="297.892735" style="stroke: #000000; stroke-width: 0.8"/>
      </g>
     </g>
     <g id="text_8">
      <!-- 0.00000 -->
      <g transform="translate(9.246875 301.691953) scale(0.1 -0.1)">
       <defs>
        <path id="DejaVuSans-2e" d="M 684 794 
L 1344 794 
L 1344 0 
L 684 0 
L 684 794 
z
" transform="scale(0.015625)"/>
       </defs>
       <use xlink:href="#DejaVuSans-30"/>
       <use xlink:href="#DejaVuSans-2e" x="63.623047"/>
       <use xlink:href="#DejaVuSans-30" x="95.410156"/>
       <use xlink:href="#DejaVuSans-30" x="159.033203"/>
       <use xlink:href="#DejaVuSans-30" x="222.65625"/>
       <use xlink:href="#DejaVuSans-30" x="286.279297"/>
       <use xlink:href="#DejaVuSans-30" x="349.902344"/>
      </g>
     </g>
    </g>
    <g id="ytick_2">
     <g id="line2d_8">
      <g>
       <use xlink:href="#m716df54614" x="57.6" y="238.809481" style="stroke: #000000; stroke-width: 0.8"/>
      </g>
     </g>
     <g id="text_9">
      <!-- 0.00005 -->
      <g transform="translate(9.246875 242.608699) scale(0.1 -0.1)">
       <use xlink:href="#DejaVuSans-30"/>
       <use xlink:href="#DejaVuSans-2e" x="63.623047"/>
       <use xlink:href="#DejaVuSans-30" x="95.410156"/>
       <use xlink:href="#DejaVuSans-30" x="159.033203"/>
       <use xlink:href="#DejaVuSans-30" x="222.65625"/>
       <use xlink:href="#DejaVuSans-30" x="286.279297"/>
       <use xlink:href="#DejaVuSans-35" x="349.902344"/>
      </g>
     </g>
    </g>
    <g id="ytick_3">
     <g id="line2d_9">
      <g>
       <use xlink:href="#m716df54614" x="57.6" y="179.726227" style="stroke: #000000; stroke-width: 0.8"/>
      </g>
     </g>
     <g id="text_10">
      <!-- 0.00010 -->
      <g transform="translate(9.246875 183.525446) scale(0.1 -0.1)">
       <use xlink:href="#DejaVuSans-30"/>
       <use xlink:href="#DejaVuSans-2e" x="63.623047"/>
       <use xlink:href="#DejaVuSans-30" x="95.410156"/>
       <use xlink:href="#DejaVuSans-30" x="159.033203"/>
       <use xlink:href="#DejaVuSans-30" x="222.65625"/>
       <use xlink:href="#DejaVuSans-31" x="286.279297"/>
       <use xlink:href="#DejaVuSans-30" x="349.902344"/>
      </g>
     </g>
    </g>
    <g id="ytick_4">
     <g id="line2d_10">
      <g>
       <use xlink:href="#m716df54614" x="57.6" y="120.642973" style="stroke: #000000; stroke-width: 0.8"/>
      </g>
     </g>
     <g id="text_11">
      <!-- 0.00015 -->
      <g transform="translate(9.246875 124.442192) scale(0.1 -0.1)">
       <use xlink:href="#DejaVuSans-30"/>
       <use xlink:href="#DejaVuSans-2e" x="63.623047"/>
       <use xlink:href="#DejaVuSans-30" x="95.410156"/>
       <use xlink:href="#DejaVuSans-30" x="159.033203"/>
       <use xlink:href="#DejaVuSans-30" x="222.65625"/>
       <use xlink:href="#DejaVuSans-31" x="286.279297"/>
       <use xlink:href="#DejaVuSans-35" x="349.902344"/>
      </g>
     </g>
    </g>
    <g id="ytick_5">
     <g id="line2d_11">
      <g>
       <use xlink:href="#m716df54614" x="57.6" y="61.559719" style="stroke: #000000; stroke-width: 0.8"/>
      </g>
     </g>
     <g id="text_12">
      <!-- 0.00020 -->
      <g transform="translate(9.246875 65.358938) scale(0.1 -0.1)">
       <use xlink:href="#DejaVuSans-30"/>
       <use xlink:href="#DejaVuSans-2e" x="63.623047"/>
       <use xlink:href="#DejaVuSans-30" x="95.410156"/>
       <use xlink:href="#DejaVuSans-30" x="159.033203"/>
       <use xlink:href="#DejaVuSans-30" x="222.65625"/>
       <use xlink:href="#DejaVuSans-32" x="286.279297"/>
       <use xlink:href="#DejaVuSans-30" x="349.902344"/>
      </g>
     </g>
    </g>
    <g id="text_13">
     <!-- Spannung in V -->
     <g transform="translate(3.167187 210.945969) rotate(-90) scale(0.1 -0.1)">
      <defs>
       <path id="DejaVuSans-53" d="M 3425 4513 
L 3425 3897 
Q 3066 4069 2747 4153 
Q 2428 4238 2131 4238 
Q 1616 4238 1336 4038 
Q 1056 3838 1056 3469 
Q 1056 3159 1242 3001 
Q 1428 2844 1947 2747 
L 2328 2669 
Q 3034 2534 3370 2195 
Q 3706 1856 3706 1288 
Q 3706 609 3251 259 
Q 2797 -91 1919 -91 
Q 1588 -91 1214 -16 
Q 841 59 441 206 
L 441 856 
Q 825 641 1194 531 
Q 1563 422 1919 422 
Q 2459 422 2753 634 
Q 3047 847 3047 1241 
Q 3047 1584 2836 1778 
Q 2625 1972 2144 2069 
L 1759 2144 
Q 1053 2284 737 2584 
Q 422 2884 422 3419 
Q 422 4038 858 4394 
Q 1294 4750 2059 4750 
Q 2388 4750 2728 4690 
Q 3069 4631 3425 4513 
z
" transform="scale(0.015625)"/>
       <path id="DejaVuSans-70" d="M 1159 525 
L 1159 -1331 
L 581 -1331 
L 581 3500 
L 1159 3500 
L 1159 2969 
Q 1341 3281 1617 3432 
Q 1894 3584 2278 3584 
Q 2916 3584 3314 3078 
Q 3713 2572 3713 1747 
Q 3713 922 3314 415 
Q 2916 -91 2278 -91 
Q 1894 -91 1617 61 
Q 1341 213 1159 525 
z
M 3116 1747 
Q 3116 2381 2855 2742 
Q 2594 3103 2138 3103 
Q 1681 3103 1420 2742 
Q 1159 2381 1159 1747 
Q 1159 1113 1420 752 
Q 1681 391 2138 391 
Q 2594 391 2855 752 
Q 3116 1113 3116 1747 
z
" transform="scale(0.015625)"/>
       <path id="DejaVuSans-61" d="M 2194 1759 
Q 1497 1759 1228 1600 
Q 959 1441 959 1056 
Q 959 750 1161 570 
Q 1363 391 1709 391 
Q 2188 391 2477 730 
Q 2766 1069 2766 1631 
L 2766 1759 
L 2194 1759 
z
M 3341 1997 
L 3341 0 
L 2766 0 
L 2766 531 
Q 2569 213 2275 61 
Q 1981 -91 1556 -91 
Q 1019 -91 701 211 
Q 384 513 384 1019 
Q 384 1609 779 1909 
Q 1175 2209 1959 2209 
L 2766 2209 
L 2766 2266 
Q 2766 2663 2505 2880 
Q 2244 3097 1772 3097 
Q 1472 3097 1187 3025 
Q 903 2953 641 2809 
L 641 3341 
Q 956 3463 1253 3523 
Q 1550 3584 1831 3584 
Q 2591 3584 2966 3190 
Q 3341 2797 3341 1997 
z
" transform="scale(0.015625)"/>
       <path id="DejaVuSans-75" d="M 544 1381 
L 544 3500 
L 1119 3500 
L 1119 1403 
Q 1119 906 1312 657 
Q 1506 409 1894 409 
Q 2359 409 2629 706 
Q 2900 1003 2900 1516 
L 2900 3500 
L 3475 3500 
L 3475 0 
L 2900 0 
L 2900 538 
Q 2691 219 2414 64 
Q 2138 -91 1772 -91 
Q 1169 -91 856 284 
Q 544 659 544 1381 
z
M 1991 3584 
L 1991 3584 
z
" transform="scale(0.015625)"/>
       <path id="DejaVuSans-67" d="M 2906 1791 
Q 2906 2416 2648 2759 
Q 2391 3103 1925 3103 
Q 1463 3103 1205 2759 
Q 947 2416 947 1791 
Q 947 1169 1205 825 
Q 1463 481 1925 481 
Q 2391 481 2648 825 
Q 2906 1169 2906 1791 
z
M 3481 434 
Q 3481 -459 3084 -895 
Q 2688 -1331 1869 -1331 
Q 1566 -1331 1297 -1286 
Q 1028 -1241 775 -1147 
L 775 -588 
Q 1028 -725 1275 -790 
Q 1522 -856 1778 -856 
Q 2344 -856 2625 -561 
Q 2906 -266 2906 331 
L 2906 616 
Q 2728 306 2450 153 
Q 2172 0 1784 0 
Q 1141 0 747 490 
Q 353 981 353 1791 
Q 353 2603 747 3093 
Q 1141 3584 1784 3584 
Q 2172 3584 2450 3431 
Q 2728 3278 2906 2969 
L 2906 3500 
L 3481 3500 
L 3481 434 
z
" transform="scale(0.015625)"/>
       <path id="DejaVuSans-56" d="M 1831 0 
L 50 4666 
L 709 4666 
L 2188 738 
L 3669 4666 
L 4325 4666 
L 2547 0 
L 1831 0 
z
" transform="scale(0.015625)"/>
      </defs>
      <use xlink:href="#DejaVuSans-53"/>
      <use xlink:href="#DejaVuSans-70" x="63.476562"/>
      <use xlink:href="#DejaVuSans-61" x="126.953125"/>
      <use xlink:href="#DejaVuSans-6e" x="188.232422"/>
      <use xlink:href="#DejaVuSans-6e" x="251.611328"/>
      <use xlink:href="#DejaVuSans-75" x="314.990234"/>
      <use xlink:href="#DejaVuSans-6e" x="378.369141"/>
      <use xlink:href="#DejaVuSans-67" x="441.748047"/>
      <use xlink:href="#DejaVuSans-20" x="505.224609"/>
      <use xlink:href="#DejaVuSans-69" x="537.011719"/>
      <use xlink:href="#DejaVuSans-6e" x="564.794922"/>
      <use xlink:href="#DejaVuSans-20" x="628.173828"/>
      <use xlink:href="#DejaVuSans-56" x="659.960938"/>
     </g>
    </g>
   </g>
   <g id="line2d_12">
    <path d="M 77.219464 292.720025 
L 77.333517 294.811439 
L 77.561202 294.638594 
L 80.650776 294.716128 
L 80.87936 294.512665 
L 81.795481 294.512665 
L 82.024154 294.243522 
L 83.053577 294.243522 
L 83.167812 295.371947 
L 84.081061 295.371947 
L 84.195595 294.458343 
L 85.224956 294.458343 
L 85.453737 294.249942 
L 86.255586 294.249942 
L 86.484779 294.483035 
L 87.5167 294.483035 
L 87.746192 294.688472 
L 88.549023 294.688472 
L 88.663653 294.078086 
L 89.695798 294.078086 
L 89.810235 294.858353 
L 90.727914 294.858353 
L 90.842633 293.999071 
L 91.989374 293.999071 
L 92.218068 294.394143 
L 93.135594 294.394143 
L 93.364999 294.51069 
L 94.16797 294.51069 
L 94.397401 294.680572 
L 95.429663 294.680572 
L 95.544304 294.053394 
L 97.60745 293.944749 
L 97.722129 294.581802 
L 98.639057 294.581802 
L 98.753874 294.095371 
L 99.901339 294.095371 
L 100.015791 294.949714 
L 102.080125 295.046012 
L 102.194847 294.386241 
L 106.552561 294.459331 
L 106.667302 295.236965 
L 107.813755 295.236965 
L 108.043081 294.882058 
L 109.991755 294.885515 
L 110.106276 295.408162 
L 111.022743 295.408162 
L 111.137524 294.52995 
L 112.284093 294.52995 
L 112.398775 295.488 
L 113.316335 295.488 
L 113.43109 294.749709 
L 114.463408 294.749709 
L 114.692627 294.496862 
L 115.495606 294.496862 
L 115.724944 294.260807 
L 117.904749 294.216362 
L 118.019472 294.818847 
L 118.937379 294.818847 
L 119.052107 293.962857 
L 120.199361 293.962857 
L 120.314174 294.556124 
L 122.377185 294.571926 
L 122.606732 294.843539 
L 123.409288 294.843539 
L 123.638585 295.05589 
L 124.668784 295.05589 
L 124.78317 294.226238 
L 125.700201 294.226238 
L 125.814852 294.734893 
L 128.107343 294.759585 
L 128.221934 294.08467 
L 129.139174 294.08467 
L 129.253781 294.789215 
L 130.285125 294.789215 
L 130.399721 294.307722 
L 131.316484 294.307722 
L 131.545562 294.61884 
L 132.576794 294.61884 
L 132.806018 294.358587 
L 133.607738 294.358587 
L 133.837343 294.76617 
L 134.754523 294.76617 
L 134.869234 294.240066 
L 135.78569 294.240066 
L 136.014887 293.799066 
L 137.04624 293.799066 
L 137.16085 294.354637 
L 140.48776 294.327476 
L 140.716778 294.714152 
L 141.518339 294.714152 
L 141.747632 294.339821 
L 142.664591 294.339821 
L 142.893959 294.1892 
L 143.69652 294.1892 
L 143.811222 294.986752 
L 144.956601 294.986752 
L 145.184747 294.62131 
L 147.134148 294.58921 
L 147.36357 294.223768 
L 148.164338 294.223768 
L 148.393561 294.535711 
L 149.423476 294.535711 
L 149.653003 294.279573 
L 150.456061 294.279573 
L 150.570861 293.687952 
L 151.602872 293.687952 
L 151.832172 293.265718 
L 152.864459 293.265718 
L 153.093854 293.501281 
L 153.896747 293.501281 
L 154.011401 292.906038 
L 155.043306 292.906038 
L 155.27263 292.782249 
L 156.074871 292.782249 
L 156.30434 292.474752 
L 157.336298 292.474752 
L 157.565327 292.332361 
L 158.367945 292.332361 
L 158.597283 292.680517 
L 159.514087 292.680517 
L 159.743464 292.359522 
L 160.546149 292.359522 
L 160.660865 291.818767 
L 161.80575 291.818767 
L 161.920351 291.034055 
L 162.951794 291.034055 
L 163.181167 290.833556 
L 163.98413 290.833556 
L 164.098892 290.208847 
L 165.246152 290.208847 
L 165.475341 289.942996 
L 166.277613 289.942996 
L 166.392364 288.875479 
L 167.424018 288.875479 
L 167.538727 287.610755 
L 168.456308 287.610755 
L 168.570973 286.298457 
L 169.717656 286.298457 
L 169.832332 284.730675 
L 170.749804 284.730675 
L 170.864241 282.843225 
L 171.896361 282.843225 
L 172.011017 280.519705 
L 172.928211 280.519705 
L 173.04302 278.29001 
L 174.18939 278.29001 
L 174.304058 277.260354 
L 175.336285 277.260354 
L 175.450961 275.391173 
L 176.368624 275.391173 
L 176.483041 272.865175 
L 177.629265 272.865175 
L 177.743888 270.19597 
L 178.661416 270.19597 
L 178.776107 267.783566 
L 179.808318 267.783566 
L 179.922978 264.275817 
L 180.839976 264.275817 
L 180.954771 261.599865 
L 182.100085 261.599865 
L 182.214706 258.667764 
L 183.131691 258.667764 
L 183.24644 254.751939 
L 184.278582 254.751939 
L 184.39329 253.207869 
L 185.311108 253.207869 
L 185.42581 250.281865 
L 186.57333 250.281865 
L 186.688057 246.73856 
L 187.71996 246.73856 
L 187.834493 243.056491 
L 188.751849 243.056491 
L 188.86652 238.935883 
L 190.01341 238.935883 
L 190.127947 235.120972 
L 191.04569 235.120972 
L 191.160005 232.088796 
L 192.192052 232.088796 
L 192.306516 228.994878 
L 193.223558 228.994878 
L 193.33816 225.822781 
L 194.483768 225.822781 
L 194.598392 222.099886 
L 195.515469 222.099886 
L 195.630223 218.85963 
L 196.663183 218.85963 
L 196.778024 215.472541 
L 197.924735 215.472541 
L 198.03935 211.522813 
L 198.956714 211.522813 
L 199.071344 209.762274 
L 200.103041 209.762274 
L 200.217795 206.42342 
L 201.13478 206.42342 
L 201.249438 204.594238 
L 202.396111 204.594238 
L 202.510669 201.996631 
L 203.428266 201.996631 
L 203.543019 200.399067 
L 204.574449 200.399067 
L 204.689018 198.537283 
L 205.60629 198.537283 
L 205.720974 197.149595 
L 206.867905 197.149595 
L 206.982619 195.858212 
L 207.899874 195.858212 
L 208.129154 195.552019 
L 209.046121 195.552019 
L 209.16067 194.585086 
L 210.306973 194.585086 
L 210.536479 194.41866 
L 211.339638 194.41866 
L 211.569107 194.164319 
L 212.486076 194.164319 
L 212.715199 194.35693 
L 213.517044 194.35693 
L 213.631581 194.892744 
L 214.77712 194.892744 
L 214.89187 195.912521 
L 215.808445 195.912521 
L 215.923006 196.623647 
L 216.955072 196.623647 
L 217.069816 198.507659 
L 217.986444 198.507659 
L 218.214549 198.174323 
L 219.246205 198.174323 
L 219.360528 201.041054 
L 220.276555 201.041054 
L 220.391117 201.934086 
L 221.421505 201.934086 
L 221.650813 202.19911 
L 222.682829 202.19911 
L 222.797399 204.086571 
L 223.714798 204.086571 
L 223.829469 206.201681 
L 224.861824 206.201681 
L 224.976496 208.616567 
L 225.894103 208.616567 
L 226.008874 209.122745 
L 227.156034 209.122745 
L 227.270622 211.867517 
L 228.186886 211.867517 
L 228.301465 213.960742 
L 229.333215 213.960742 
L 229.447835 215.616739 
L 230.365094 215.616739 
L 230.479795 218.172374 
L 231.625931 218.172374 
L 231.740482 220.644039 
L 232.772054 220.644039 
L 232.886289 222.64409 
L 233.803217 222.64409 
L 233.918032 224.589819 
L 235.0639 224.589819 
L 235.178241 227.474843 
L 236.094702 227.474843 
L 236.209233 230.385048 
L 237.24208 230.385048 
L 237.356842 232.469056 
L 238.273742 232.469056 
L 238.388385 234.338237 
L 239.535367 234.338237 
L 239.650077 236.51607 
L 240.567492 236.51607 
L 240.682121 238.733417 
L 241.714313 238.733417 
L 241.829082 241.191753 
L 242.747084 241.191753 
L 242.861934 243.0611 
L 244.007824 243.0611 
L 244.122427 244.743448 
L 245.153468 244.743448 
L 245.267942 246.262006 
L 246.185418 246.262006 
L 246.300116 247.938588 
L 247.447542 247.938588 
L 247.562319 249.695677 
L 248.480913 249.695677 
L 248.59572 250.575698 
L 249.626342 250.575698 
L 249.740874 251.761901 
L 250.65868 251.761901 
L 250.773446 253.32145 
L 251.920109 253.32145 
L 252.034932 254.373333 
L 252.952256 254.373333 
L 253.066914 255.677064 
L 254.099127 255.677064 
L 254.328474 256.114115 
L 255.131423 256.114115 
L 255.246059 257.366006 
L 256.392403 257.366006 
L 256.507057 258.628261 
L 257.538658 258.628261 
L 257.653529 260.20394 
L 258.570398 260.20394 
L 258.799808 260.521643 
L 259.831962 260.521643 
L 259.946623 261.398214 
L 260.864212 261.398214 
L 260.979382 262.400703 
L 262.011855 262.400703 
L 262.12663 263.110352 
L 263.042445 263.110352 
L 263.15731 264.911883 
L 264.303004 264.911883 
L 264.532177 265.340532 
L 265.335243 265.340532 
L 265.449961 266.524265 
L 266.482279 266.524265 
L 266.710911 266.692995 
L 267.741997 266.692995 
L 267.856498 267.963817 
L 268.773313 267.963817 
L 268.887884 268.806639 
L 269.919064 268.806639 
L 270.148132 268.947541 
L 270.950352 268.947541 
L 271.064886 270.094737 
L 272.211403 270.094737 
L 272.326225 271.341677 
L 273.244012 271.341677 
L 273.473508 271.583659 
L 274.390814 271.583659 
L 274.505447 272.46023 
L 275.422821 272.46023 
L 275.537479 273.497294 
L 276.684332 273.497294 
L 276.913451 273.796067 
L 277.715454 273.796067 
L 277.829969 275.008443 
L 280.122112 274.988686 
L 280.23674 275.709702 
L 281.152374 275.709702 
L 281.381479 275.899832 
L 282.298572 275.899832 
L 282.41315 276.582315 
L 283.330144 276.582315 
L 283.559633 276.371447 
L 284.588699 276.371447 
L 284.703157 277.512214 
L 285.620231 277.512214 
L 285.735081 278.904027 
L 286.76681 278.904027 
L 286.996225 278.467803 
L 287.799147 278.467803 
L 288.027165 278.971512 
L 289.057657 278.971512 
L 289.172259 279.509795 
L 290.204428 279.509795 
L 290.319096 280.477721 
L 291.23656 280.477721 
L 291.465889 280.80119 
L 292.498447 280.80119 
L 292.613213 281.601213 
L 293.531147 281.601213 
L 293.645905 281.097492 
L 294.678779 281.097492 
L 294.908068 281.49257 
L 295.710077 281.49257 
L 295.824546 282.499184 
L 296.971197 282.499184 
L 297.200697 282.166663 
L 298.003942 282.166663 
L 298.233461 282.561729 
L 299.151152 282.561729 
L 299.265802 283.430891 
L 300.18241 283.430891 
L 300.296712 282.576547 
L 301.442319 282.576547 
L 301.556914 283.329658 
L 302.588782 283.329658 
L 302.703376 283.833862 
L 303.620673 283.833862 
L 303.850253 283.532951 
L 304.882427 283.532951 
L 304.997172 284.388938 
L 305.914242 284.388938 
L 306.14344 284.509928 
L 308.093656 284.421044 
L 308.208374 285.102545 
L 309.354952 285.102545 
L 309.469441 286.121332 
L 310.386253 286.121332 
L 310.500843 285.564281 
L 311.531791 285.564281 
L 311.646562 286.154913 
L 312.563296 286.154913 
L 312.792603 285.966756 
L 314.971541 285.962644 
L 315.086276 286.431464 
L 316.003047 286.431464 
L 316.117611 287.259798 
L 317.263446 287.259798 
L 317.492882 287.065555 
L 318.295454 287.065555 
L 318.524633 287.310006 
L 319.441154 287.310006 
L 319.55575 286.826042 
L 320.472581 286.826042 
L 320.701915 286.603814 
L 321.733014 286.603814 
L 321.847309 287.411242 
L 322.764925 287.411242 
L 322.994035 287.08531 
L 323.912064 287.08531 
L 324.026869 287.725325 
L 325.17376 287.725325 
L 325.288302 288.337194 
L 329.64343 288.406331 
L 329.872681 288.699178 
L 330.674897 288.699178 
L 330.904265 288.998939 
L 331.821873 288.998939 
L 331.936638 289.567678 
L 332.853988 289.567678 
L 333.083342 289.356973 
L 334.115329 289.356973 
L 334.344603 289.690316 
L 335.147726 289.690316 
L 335.377422 289.89526 
L 336.29542 289.89526 
L 336.410195 289.449816 
L 338.590354 289.384134 
L 338.705075 290.243417 
L 339.737765 290.243417 
L 339.967329 289.89526 
L 340.770265 289.89526 
L 340.884747 290.459883 
L 342.030662 290.459883 
L 342.260177 290.226132 
L 343.063579 290.226132 
L 343.178265 290.749603 
L 344.21026 290.749603 
L 344.324466 290.245886 
L 345.241296 290.245886 
L 345.355919 289.727353 
L 346.501442 289.727353 
L 346.730351 290.070573 
L 347.532302 290.070573 
L 347.761662 290.48046 
L 348.678325 290.48046 
L 348.90774 290.613797 
L 352.123217 290.510091 
L 352.237897 291.510117 
L 353.154918 291.510117 
L 353.384218 291.347149 
L 354.415583 291.347149 
L 354.530237 291.897781 
L 356.59424 291.927413 
L 356.823521 291.64049 
L 357.625974 291.64049 
L 357.855157 291.447563 
L 359.918483 291.431103 
L 360.033055 292.155401 
L 362.32521 292.132356 
L 362.554546 292.351621 
L 363.356796 292.351621 
L 363.58605 292.619612 
L 364.503289 292.619612 
L 364.617927 291.599008 
L 366.796056 291.700245 
L 366.909612 292.408906 
L 367.82615 292.408906 
L 368.055246 292.263223 
L 368.971271 292.263223 
L 369.200687 292.023711 
L 370.003439 292.023711 
L 370.233041 292.17927 
L 371.26334 292.17927 
L 371.492474 292.349645 
L 372.295241 292.349645 
L 372.524644 292.001488 
L 374.703314 291.989142 
L 374.818017 292.564466 
L 375.734854 292.564466 
L 375.849546 291.685429 
L 376.881546 291.685429 
L 376.99615 292.231123 
L 377.913655 292.231123 
L 378.143029 292.557058 
L 379.175406 292.557058 
L 379.290152 293.245965 
L 380.208139 293.245965 
L 380.32284 292.601503 
L 382.388057 292.574342 
L 382.617481 292.971884 
L 383.650043 292.971884 
L 383.764854 292.007908 
L 384.682033 292.007908 
L 384.796508 292.823733 
L 387.08985 292.888919 
L 387.204588 292.290385 
L 389.267417 292.245939 
L 389.381939 293.349178 
L 390.299332 293.349178 
L 390.413941 294.17027 
L 391.560752 294.17027 
L 391.675399 293.151641 
L 392.592667 293.151641 
L 392.822199 293.312634 
L 393.740018 293.312634 
L 393.969077 292.929908 
L 394.771104 292.929908 
L 395.000476 292.791632 
L 396.031393 292.791632 
L 396.145975 293.426217 
L 396.375702 293.426217 
L 396.375702 293.426217 
" clip-path="url(#p475ec361c4)" style="fill: none; stroke: #1f77b4; stroke-width: 1.5; stroke-linecap: square"/>
   </g>
   <g id="line2d_13">
    <path d="M 398.487273 293.426217 
L 398.372969 290.865656 
L 398.028906 290.865656 
L 397.914251 292.006426 
L 396.767748 292.006426 
L 396.653134 291.524933 
L 395.736474 291.524933 
L 395.621215 291.033561 
L 394.589518 291.033561 
L 394.360457 291.150601 
L 393.558207 291.150601 
L 393.328672 291.480486 
L 389.086176 291.569378 
L 388.856833 291.184182 
L 387.824683 291.184182 
L 387.595416 291.394065 
L 386.677814 291.394065 
L 386.448484 291.049857 
L 385.64644 291.049857 
L 385.417072 290.606389 
L 384.385723 290.606389 
L 384.271012 291.467317 
L 383.354106 291.467317 
L 383.124759 291.581724 
L 382.207832 291.581724 
L 381.978603 291.910127 
L 381.175622 291.910127 
L 381.061069 291.399003 
L 379.91545 291.399003 
L 379.8008 289.904148 
L 378.88318 289.904148 
L 378.768727 290.937262 
L 375.446431 291.011339 
L 375.217043 291.269781 
L 374.414971 291.269781 
L 374.300251 290.78911 
L 373.268616 290.78911 
L 373.154288 290.307616 
L 372.006438 290.307616 
L 371.776977 290.192551 
L 370.973689 290.192551 
L 370.858864 288.668066 
L 369.826379 288.668066 
L 369.711762 290.460706 
L 368.794814 290.460706 
L 368.565607 290.339716 
L 367.533379 290.339716 
L 367.304056 290.194033 
L 365.354477 290.23354 
L 365.239652 289.52241 
L 364.322644 289.52241 
L 364.093376 289.401419 
L 363.061585 289.401419 
L 362.832107 289.67797 
L 361.914679 289.67797 
L 361.799953 289.001409 
L 360.885747 289.001409 
L 360.771427 289.653278 
L 359.629314 289.653278 
L 359.402055 290.074029 
L 358.601254 290.074029 
L 358.486966 289.208822 
L 357.454635 289.208822 
L 357.3399 289.700193 
L 356.422509 289.700193 
L 356.307755 288.984947 
L 355.161227 288.984947 
L 354.931974 288.860665 
L 354.128761 288.860665 
L 353.899297 288.675474 
L 352.982373 288.675474 
L 352.867698 289.493274 
L 351.720975 289.493274 
L 351.606312 288.897701 
L 350.689089 288.897701 
L 350.459389 289.312527 
L 348.509407 289.302651 
L 348.394699 288.285341 
L 347.247944 288.285341 
L 347.018648 288.072989 
L 346.216206 288.072989 
L 345.987005 288.485345 
L 345.069492 288.485345 
L 344.840141 288.817699 
L 344.037684 288.817699 
L 343.808242 288.393985 
L 342.776218 288.393985 
L 342.661877 287.166793 
L 341.629823 287.166793 
L 341.515303 287.719893 
L 340.598625 287.719893 
L 340.369434 287.337166 
L 339.337626 287.337166 
L 339.108266 287.606803 
L 338.306415 287.606803 
L 338.077291 287.398074 
L 337.160389 287.398074 
L 336.931061 287.623594 
L 336.128313 287.623594 
L 335.898852 287.270499 
L 334.867113 287.270499 
L 334.75236 286.366771 
L 333.835924 286.366771 
L 333.721209 287.139632 
L 332.690304 287.139632 
L 332.461248 286.769251 
L 330.397167 286.736328 
L 330.282428 285.61761 
L 329.249849 285.61761 
L 329.135428 286.607929 
L 328.217457 286.607929 
L 328.102717 285.76182 
L 326.956273 285.76182 
L 326.726832 285.589959 
L 325.923952 285.589959 
L 325.694492 285.455639 
L 323.745757 285.554402 
L 323.631125 284.717346 
L 322.484287 284.717346 
L 322.254908 284.517338 
L 321.452067 284.517338 
L 321.337375 285.211188 
L 320.305159 285.211188 
L 320.190588 284.191399 
L 319.273779 284.191399 
L 319.044797 284.043253 
L 318.012858 284.043253 
L 317.898132 283.513856 
L 316.86684 283.513856 
L 316.63751 283.88029 
L 315.834811 283.88029 
L 315.605681 283.677812 
L 314.575366 283.677812 
L 314.346017 283.285204 
L 313.54776 283.285204 
L 313.433529 282.487662 
L 312.406293 282.487662 
L 312.292701 281.925662 
L 310.115922 282.008627 
L 310.001173 282.574077 
L 307.936639 282.524696 
L 307.821948 281.996291 
L 306.905165 281.996291 
L 306.790697 281.43084 
L 304.499081 281.400223 
L 304.384438 280.576496 
L 303.466714 280.576496 
L 303.237299 280.403654 
L 300.02618 280.296654 
L 299.796691 280.090064 
L 298.993449 280.090064 
L 298.878864 279.270284 
L 295.555456 279.218432 
L 295.440713 278.4752 
L 294.294773 278.4752 
L 294.065865 278.73447 
L 293.263598 278.73447 
L 293.148797 278.055438 
L 292.117093 278.055438 
L 291.888045 277.776423 
L 291.086272 277.776423 
L 290.971741 276.34675 
L 289.826332 276.34675 
L 289.711612 276.808485 
L 288.793573 276.808485 
L 288.679082 276.126996 
L 287.648038 276.126996 
L 287.533232 275.267712 
L 286.616423 275.267712 
L 286.38741 275.601048 
L 285.355842 275.601048 
L 285.241021 274.196084 
L 284.323837 274.196084 
L 284.209233 273.504703 
L 281.919127 273.452852 
L 281.804488 272.638011 
L 280.887085 272.638011 
L 280.772396 271.679964 
L 279.739679 271.679964 
L 279.625165 270.563385 
L 278.708063 270.563385 
L 278.478711 270.172928 
L 277.447716 270.172928 
L 277.218675 269.755469 
L 276.416089 269.755469 
L 276.301355 268.437901 
L 275.268941 268.437901 
L 275.03962 268.240362 
L 274.237417 268.240362 
L 274.12287 267.364618 
L 272.976765 267.364618 
L 272.862044 266.534144 
L 271.944572 266.534144 
L 271.829927 265.647706 
L 270.798164 265.647706 
L 270.68342 264.621501 
L 269.536924 264.621501 
L 269.422129 264.121739 
L 268.504913 264.121739 
L 268.390734 263.627898 
L 267.35858 263.627898 
L 267.244055 262.252546 
L 265.065521 262.188346 
L 264.950803 260.553749 
L 264.033055 260.553749 
L 263.918369 258.495253 
L 262.886075 258.495253 
L 262.77143 257.666256 
L 261.854649 257.666256 
L 261.625506 257.417858 
L 260.594715 257.417858 
L 260.480178 256.27462 
L 259.563277 256.27462 
L 259.448522 255.415325 
L 258.417391 255.415325 
L 258.302618 253.304163 
L 257.156934 253.304163 
L 257.042225 252.828602 
L 256.124907 252.828602 
L 256.010322 250.909034 
L 254.978352 250.909034 
L 254.86368 249.92219 
L 253.94723 249.92219 
L 253.832368 248.632438 
L 252.686637 248.632438 
L 252.572067 247.721303 
L 251.655697 247.721303 
L 251.541222 246.29163 
L 250.510277 246.29163 
L 250.395603 244.804682 
L 249.479544 244.804682 
L 249.364632 243.069324 
L 248.218325 243.069324 
L 248.103677 241.363106 
L 247.072443 241.363106 
L 246.957983 239.575401 
L 246.04779 239.575401 
L 245.933112 238.62312 
L 244.786393 238.62312 
L 244.671552 235.637041 
L 243.754164 235.637041 
L 243.63949 233.844396 
L 242.608851 233.844396 
L 242.494156 231.236922 
L 241.577159 231.236922 
L 241.462432 229.594904 
L 240.315049 229.594904 
L 240.200371 226.881245 
L 239.283387 226.881245 
L 239.168712 224.473768 
L 238.137722 224.473768 
L 238.023137 221.017386 
L 237.105685 221.017386 
L 236.991068 217.478524 
L 235.844432 217.478524 
L 235.729737 215.808358 
L 234.697495 215.808358 
L 234.582872 212.221603 
L 233.665756 212.221603 
L 233.550952 209.779562 
L 232.403624 209.779562 
L 232.289113 206.125145 
L 231.372469 206.125145 
L 231.257895 202.875672 
L 230.225398 202.875672 
L 230.110664 198.978281 
L 229.193284 198.978281 
L 229.078606 195.455725 
L 227.933606 195.455725 
L 227.818778 192.323946 
L 226.900738 192.323946 
L 226.786088 189.707433 
L 225.754664 189.707433 
L 225.640181 186.176464 
L 224.494054 186.176464 
L 224.379446 183.438132 
L 223.462543 183.438132 
L 223.347928 180.514586 
L 222.316712 180.514586 
L 222.202232 177.181157 
L 221.28444 177.181157 
L 221.169679 174.47987 
L 220.023372 174.47987 
L 219.908682 172.257631 
L 218.991139 172.257631 
L 218.87643 169.894537 
L 217.844519 169.894537 
L 217.72994 168.084581 
L 216.813235 168.084581 
L 216.698733 165.887038 
L 215.552881 165.887038 
L 215.43825 164.132856 
L 214.521625 164.132856 
L 214.407034 160.830102 
L 213.374152 160.830102 
L 213.259622 160.304143 
L 212.114348 160.304143 
L 211.999794 158.736192 
L 211.083522 158.736192 
L 210.968987 157.794641 
L 209.940113 157.794641 
L 209.825575 156.956368 
L 208.908714 156.956368 
L 208.679765 156.573154 
L 207.650753 156.573154 
L 207.421239 156.165834 
L 206.617921 156.165834 
L 206.503324 156.654689 
L 204.437867 156.644763 
L 204.323375 157.891774 
L 203.176492 157.891774 
L 203.061991 159.822733 
L 202.145696 159.822733 
L 202.031229 160.506681 
L 200.999753 160.506681 
L 200.885186 163.442528 
L 199.738138 163.442528 
L 199.623378 166.315037 
L 198.705723 166.315037 
L 198.590964 168.682149 
L 197.558436 168.682149 
L 197.443637 172.160734 
L 196.526633 172.160734 
L 196.412107 176.17615 
L 195.265689 176.17615 
L 195.150879 179.9195 
L 194.233353 179.9195 
L 194.118804 184.102334 
L 193.086445 184.102334 
L 192.971726 189.003692 
L 192.054295 189.003692 
L 191.939581 193.006275 
L 190.792497 193.006275 
L 190.67783 197.905163 
L 189.646332 197.905163 
L 189.531529 202.907778 
L 188.613561 202.907778 
L 188.498671 206.675765 
L 187.351856 206.675765 
L 187.237164 211.774673 
L 186.319925 211.774673 
L 186.205193 217.105673 
L 185.173261 217.105673 
L 185.058614 221.495429 
L 184.14139 221.495429 
L 184.026371 226.198101 
L 182.88112 226.198101 
L 182.766237 230.58209 
L 181.849409 230.58209 
L 181.734819 235.113563 
L 180.702172 235.113563 
L 180.587632 238.558093 
L 179.671839 238.558093 
L 179.557266 242.958212 
L 178.411804 242.958212 
L 178.297282 246.254597 
L 177.265707 246.254597 
L 177.150923 251.919925 
L 176.235231 251.919925 
L 176.120649 255.054823 
L 174.973869 255.054823 
L 174.859102 258.790728 
L 173.943516 258.790728 
L 173.828855 262.440206 
L 172.796745 262.440206 
L 172.682077 266.257599 
L 171.764843 266.257599 
L 171.650176 268.530083 
L 170.505346 268.530083 
L 170.390647 271.27847 
L 169.473171 271.27847 
L 169.358679 274.018291 
L 168.326524 274.018291 
L 168.211781 276.199101 
L 167.065109 276.199101 
L 166.95055 278.786321 
L 166.033677 278.786321 
L 165.918892 279.828325 
L 164.886764 279.828325 
L 164.772191 282.026411 
L 163.855218 282.026411 
L 163.740559 283.667933 
L 162.593517 283.667933 
L 162.478775 284.919824 
L 161.560785 284.919824 
L 161.446002 286.92481 
L 160.41358 286.92481 
L 160.184245 286.49023 
L 159.381056 286.49023 
L 159.266292 287.924838 
L 158.118978 287.924838 
L 157.889486 288.265586 
L 157.086092 288.265586 
L 156.971336 288.71992 
L 155.939321 288.71992 
L 155.710143 288.59646 
L 154.678564 288.59646 
L 154.564044 289.635993 
L 153.647324 289.635993 
L 153.418339 289.406357 
L 152.500751 289.406357 
L 152.386131 290.221193 
L 151.468134 290.221193 
L 151.238633 289.855752 
L 150.206452 289.855752 
L 149.977038 290.198477 
L 149.174368 290.198477 
L 149.059682 289.676323 
L 148.027571 289.676323 
L 147.912904 290.222181 
L 146.995477 290.222181 
L 146.880707 291.075537 
L 143.556561 291.045907 
L 143.327068 290.660711 
L 142.294682 290.660711 
L 142.180025 291.275048 
L 141.262969 291.275048 
L 141.033685 291.026153 
L 140.116358 291.026153 
L 139.887263 291.37678 
L 139.084489 291.37678 
L 138.855114 291.596539 
L 137.823136 291.596539 
L 137.70847 290.895285 
L 135.645562 290.929855 
L 135.415993 291.115045 
L 134.613237 291.115045 
L 134.38506 291.347149 
L 133.353789 291.347149 
L 133.124264 291.463201 
L 132.206313 291.463201 
L 131.976751 291.021215 
L 131.173614 291.021215 
L 130.944141 291.317519 
L 129.911074 291.317519 
L 129.681697 291.705677 
L 128.879693 291.705677 
L 128.650282 291.485425 
L 127.734087 291.485425 
L 127.619428 290.860717 
L 126.701747 290.860717 
L 126.472302 291.25332 
L 125.440428 291.25332 
L 125.32572 290.75948 
L 124.414585 290.75948 
L 124.301087 291.431103 
L 123.280159 291.431103 
L 123.053279 291.300728 
L 122.257394 291.300728 
L 122.028009 291.147968 
L 120.996303 291.147968 
L 120.881827 291.616786 
L 119.849637 291.616786 
L 119.73494 290.737257 
L 118.817898 290.737257 
L 118.703141 291.52987 
L 117.556001 291.52987 
L 117.326573 291.336285 
L 116.524039 291.336285 
L 116.294522 291.574316 
L 115.378816 291.574316 
L 115.264104 290.668613 
L 114.347833 290.668613 
L 114.233158 291.436041 
L 113.086588 291.436041 
L 112.857548 291.818767 
L 112.05501 291.818767 
L 111.940373 291.317519 
L 110.908089 291.317519 
L 110.679064 291.62123 
L 107.468833 291.628638 
L 107.35387 292.086263 
L 106.435748 292.086263 
L 106.206214 291.858275 
L 105.177518 291.858275 
L 104.948161 291.542216 
L 104.145384 291.542216 
L 104.030655 291.013808 
L 102.998385 291.013808 
L 102.88383 292.446438 
L 101.967441 292.446438 
L 101.852905 291.78996 
L 99.674214 291.739259 
L 99.444631 291.436041 
L 98.526697 291.436041 
L 98.41194 291.980911 
L 96.232714 291.936795 
L 96.118042 290.878001 
L 95.085935 290.878001 
L 94.856442 291.117021 
L 94.053776 291.117021 
L 93.939039 291.922473 
L 92.792473 291.922473 
L 92.563436 291.616292 
L 91.760516 291.616292 
L 91.53114 291.917535 
L 90.61354 291.917535 
L 90.498865 291.216282 
L 89.58131 291.216282 
L 89.351864 291.56197 
L 88.320952 291.56197 
L 88.206467 290.989115 
L 87.289358 290.989115 
L 87.174712 291.527401 
L 86.143488 291.527401 
L 86.028879 292.599034 
L 84.883199 292.599034 
L 84.768584 290.734788 
L 83.852075 290.734788 
L 83.737395 291.645922 
L 82.707134 291.645922 
L 82.479179 291.759012 
L 81.676978 291.759012 
L 81.562369 292.315077 
L 80.419117 292.315077 
L 80.30513 291.707653 
L 79.391076 291.707653 
L 79.161929 291.401471 
L 78.247371 291.401471 
L 78.132834 291.934819 
L 77.217697 291.934819 
L 77.217697 291.934819 
" clip-path="url(#p475ec361c4)" style="fill: none; stroke: #ff7f0e; stroke-width: 1.5; stroke-linecap: square"/>
   </g>
   <g id="line2d_14">
    <path d="M 77.218468 288.398923 
L 78.076237 288.398923 
L 78.216848 287.909034 
L 79.264317 287.909034 
L 79.404992 287.398896 
L 80.312769 287.398896 
L 80.45276 287.8129 
L 81.471881 287.8129 
L 81.612383 288.542137 
L 82.52017 288.542137 
L 82.660518 288.285341 
L 85.917566 288.367317 
L 86.057927 289.0903 
L 87.07539 289.0903 
L 87.214766 288.28534 
L 88.262156 288.28534 
L 88.402218 287.895206 
L 89.312587 287.895206 
L 89.453174 288.211264 
L 90.472684 288.211264 
L 90.613258 288.806341 
L 91.521149 288.806341 
L 91.661444 288.352832 
L 93.869313 288.325836 
L 94.009597 288.196448 
L 94.917992 288.196448 
L 95.058501 288.510037 
L 96.077317 288.510037 
L 96.217924 289.142154 
L 97.265579 289.142154 
L 97.405773 289.455742 
L 98.312914 289.455742 
L 98.453207 288.969309 
L 99.473191 288.969309 
L 99.613515 288.491107 
L 100.66043 288.491107 
L 100.800894 288.932271 
L 101.707645 288.932271 
L 101.848094 288.472999 
L 102.867754 288.472999 
L 103.00885 288.174227 
L 103.916279 288.174227 
L 104.056825 288.798934 
L 105.07621 288.798934 
L 105.216537 288.444357 
L 106.264345 288.444357 
L 106.404831 289.292775 
L 107.31223 289.292775 
L 107.452545 288.465591 
L 108.47218 288.465591 
L 108.612772 289.080422 
L 109.66096 289.080422 
L 109.801447 288.637942 
L 110.708189 288.637942 
L 110.848726 288.395631 
L 111.868143 288.395631 
L 112.008591 288.225092 
L 112.915266 288.225092 
L 113.055974 288.56436 
L 114.07515 288.56436 
L 114.215393 288.272994 
L 115.263715 288.272994 
L 115.404216 288.924863 
L 116.311421 288.924863 
L 116.45176 289.221167 
L 117.471332 289.221167 
L 117.611603 288.62362 
L 118.659163 288.62362 
L 118.799513 289.55204 
L 119.707029 289.55204 
L 119.847695 289.0582 
L 120.867136 289.0582 
L 121.007692 288.643374 
L 122.055738 288.643374 
L 122.196254 288.413737 
L 123.104713 288.413737 
L 123.245262 288.974247 
L 125.309935 288.940173 
L 125.449357 289.116638 
L 126.470479 289.116638 
L 126.610642 288.670536 
L 127.656908 288.670536 
L 127.797099 288.781649 
L 128.706218 288.781649 
L 128.846699 289.394011 
L 129.86491 289.394011 
L 130.005199 289.065608 
L 131.054252 289.065608 
L 131.194287 288.173732 
L 132.101425 288.173732 
L 132.241824 289.579201 
L 133.260154 289.579201 
L 133.400526 289.255736 
L 134.448062 289.255736 
L 134.588363 288.645844 
L 135.495476 288.645844 
L 135.635877 289.55451 
L 136.655077 289.55451 
L 136.795356 288.751196 
L 137.702587 288.751196 
L 137.843206 288.502631 
L 138.862866 288.502631 
L 139.003225 287.873478 
L 140.050703 287.873478 
L 140.1913 288.500161 
L 141.098663 288.500161 
L 141.239017 287.979159 
L 143.447783 288.016197 
L 143.588047 288.588558 
L 144.495901 288.588558 
L 144.6365 287.384905 
L 145.655097 287.384905 
L 145.795784 287.114939 
L 146.703056 287.114939 
L 146.84374 287.455688 
L 147.862133 287.455688 
L 148.002428 286.974194 
L 149.051223 286.974194 
L 149.191719 286.497638 
L 150.099316 286.497638 
L 150.23988 286.080342 
L 151.258145 286.080342 
L 151.398645 285.364769 
L 153.49416 285.37909 
L 153.63446 284.717346 
L 154.654729 284.717346 
L 154.795076 283.648176 
L 155.842958 283.648176 
L 155.983512 283.109892 
L 156.890875 283.109892 
L 157.031315 282.55185 
L 158.050542 282.55185 
L 158.191055 280.657488 
L 159.098823 280.657488 
L 159.239453 278.357507 
L 160.26026 278.357507 
L 160.400723 276.837129 
L 161.447987 276.837129 
L 161.588477 273.418277 
L 162.496102 273.418277 
L 162.63668 270.665115 
L 163.654801 270.665115 
L 163.795105 267.953938 
L 164.843006 267.953938 
L 164.983379 264.106921 
L 165.89081 264.106921 
L 166.031511 260.008044 
L 167.051071 260.008044 
L 167.190564 255.968427 
L 168.099863 255.968427 
L 168.24037 251.785605 
L 169.259568 251.785605 
L 169.400123 247.005238 
L 170.446857 247.005238 
L 170.587218 242.866846 
L 171.495721 242.866846 
L 171.636224 236.782748 
L 172.655441 236.782748 
L 172.79578 231.561856 
L 173.844578 231.561856 
L 173.985386 225.756926 
L 174.893371 225.756926 
L 175.033733 221.32801 
L 176.05421 221.32801 
L 176.19473 215.041422 
L 177.24162 215.041422 
L 177.382003 208.463967 
L 178.289986 208.463967 
L 178.430336 201.166984 
L 179.449768 201.166984 
L 179.590375 195.082874 
L 180.498023 195.082874 
L 180.638595 189.356797 
L 181.65822 189.356797 
L 181.798603 181.428191 
L 182.846627 181.428191 
L 182.98691 176.300462 
L 183.893453 176.300462 
L 184.033873 170.926721 
L 185.052987 170.926721 
L 185.193318 163.384271 
L 186.240916 163.384271 
L 186.381384 155.264578 
L 187.288875 155.264578 
L 187.429376 148.940897 
L 188.448273 148.940897 
L 188.588784 142.195008 
L 189.496272 142.195008 
L 189.636697 136.47634 
L 190.656807 136.47634 
L 190.797405 130.300958 
L 191.845062 130.300958 
L 191.985582 126.266281 
L 192.893154 126.266281 
L 193.033831 120.154118 
L 194.052726 120.154118 
L 194.193011 116.175097 
L 195.241694 116.175097 
L 195.38215 112.3621 
L 196.289728 112.3621 
L 196.430204 108.803989 
L 197.449406 108.803989 
L 197.590292 105.910091 
L 198.637561 105.910091 
L 198.77782 102.831499 
L 199.684214 102.831499 
L 199.824263 101.88534 
L 200.844117 101.88534 
L 200.9846 100.285247 
L 201.891522 100.285247 
L 202.031835 100.528906 
L 203.050657 100.528906 
L 203.190587 100.332159 
L 204.239672 100.332159 
L 204.379984 101.016225 
L 206.446722 101.12482 
L 206.587079 102.799948 
L 207.634286 102.799948 
L 207.774498 104.887951 
L 208.682761 104.887951 
L 208.8231 107.325017 
L 209.842668 107.325017 
L 209.982952 110.418852 
L 211.030514 110.418852 
L 211.170813 112.411494 
L 212.079561 112.411494 
L 212.22038 115.16631 
L 213.239343 115.16631 
L 213.38035 118.571278 
L 214.286962 118.571278 
L 214.42747 122.056244 
L 215.446862 122.056244 
L 215.587425 126.258836 
L 216.63507 126.258836 
L 216.77561 130.43425 
L 217.682124 130.43425 
L 217.822356 134.305975 
L 218.841404 134.305975 
L 218.981548 139.946654 
L 220.030491 139.946654 
L 220.17114 144.220618 
L 221.078283 144.220618 
L 221.218797 147.871727 
L 222.237772 147.871727 
L 222.378111 151.91633 
L 223.285424 151.91633 
L 223.425704 157.079379 
L 224.444951 157.079379 
L 224.585453 162.701742 
L 225.633541 162.701742 
L 225.774041 166.860848 
L 226.681216 166.860848 
L 226.821797 170.756325 
L 227.841076 170.756325 
L 227.981738 176.390032 
L 229.029004 176.390032 
L 229.169613 181.969772 
L 230.07696 181.969772 
L 230.217435 186.364124 
L 231.236397 186.364124 
L 231.376789 190.529671 
L 232.424213 190.529671 
L 232.564675 195.819666 
L 233.472227 195.819666 
L 233.612691 200.082996 
L 234.631355 200.082996 
L 234.771554 204.431275 
L 235.679769 204.431275 
L 235.820177 208.177047 
L 236.839501 208.177047 
L 236.980041 211.643804 
L 238.027918 211.643804 
L 238.167855 214.739684 
L 239.075222 214.739684 
L 239.215616 217.952608 
L 240.234685 217.952608 
L 240.375356 220.318112 
L 241.423473 220.318112 
L 241.563896 222.977437 
L 242.469466 222.977437 
L 242.609822 225.478739 
L 243.629658 225.478739 
L 243.770081 228.431909 
L 244.818284 228.431909 
L 244.958972 230.147509 
L 245.86708 230.147509 
L 246.007409 232.127472 
L 247.025567 232.127472 
L 247.165819 233.460189 
L 248.073574 233.460189 
L 248.214278 235.739089 
L 249.234112 235.739089 
L 249.374623 236.797566 
L 250.421886 236.797566 
L 250.562218 238.276609 
L 251.469892 238.276609 
L 251.610301 240.832243 
L 252.62983 240.832243 
L 252.770381 241.715219 
L 253.817553 241.715219 
L 253.95784 244.47677 
L 254.866019 244.47677 
L 255.006557 245.143454 
L 256.026302 245.143454 
L 256.166851 246.721284 
L 257.073293 246.721284 
L 257.213722 247.281783 
L 258.233339 247.281783 
L 258.373663 248.513917 
L 259.422474 248.513917 
L 259.562993 250.515445 
L 260.469681 250.515445 
L 260.610178 251.561727 
L 261.629138 251.561727 
L 261.769595 253.717509 
L 262.816589 253.717509 
L 262.957092 254.351106 
L 263.865134 254.351106 
L 264.005394 255.783249 
L 265.024811 255.783249 
L 265.165301 256.437584 
L 266.212532 256.437584 
L 266.352796 257.600579 
L 267.258937 257.600579 
L 267.39933 258.788258 
L 268.42 258.788258 
L 268.560542 260.04262 
L 269.467674 260.04262 
L 269.607866 260.240147 
L 270.627671 260.240147 
L 270.768115 261.884646 
L 271.815372 261.884646 
L 271.955777 262.784413 
L 272.863509 262.784413 
L 273.004088 263.687158 
L 274.023649 263.687158 
L 274.164209 263.884697 
L 275.211446 263.884697 
L 275.351994 264.667432 
L 276.260401 264.667432 
L 276.40089 266.60411 
L 278.60781 266.603283 
L 278.747915 267.659609 
L 279.655616 267.659609 
L 279.796138 268.734203 
L 280.816102 268.734203 
L 280.956632 269.115444 
L 281.863334 269.115444 
L 282.00389 270.210788 
L 283.023325 270.210788 
L 283.163892 270.786118 
L 284.210981 270.786118 
L 284.351434 271.346617 
L 285.258882 271.346617 
L 285.399537 272.592742 
L 287.60773 272.615784 
L 287.748223 273.14914 
L 288.656173 273.14914 
L 288.796756 274.438065 
L 289.816032 274.438065 
L 289.95647 274.884983 
L 290.864132 274.884983 
L 291.004717 274.262742 
L 292.022997 274.262742 
L 292.163442 274.759053 
L 293.21172 274.759053 
L 293.352302 274.932888 
L 294.259429 274.932888 
L 294.399911 275.341791 
L 295.418607 275.341791 
L 295.559117 276.607992 
L 296.607843 276.607992 
L 296.748358 276.46774 
L 297.654213 276.46774 
L 297.955096 276.334413 
L 298.813667 276.334413 
L 298.953924 277.709753 
L 300.002505 277.709753 
L 300.14298 278.330505 
L 301.050478 278.330505 
L 301.191296 278.144334 
L 303.257427 278.233219 
L 303.398131 279.015954 
L 305.60514 278.936948 
L 305.745397 279.418925 
L 306.653186 279.418925 
L 306.793755 279.091675 
L 307.812573 279.091675 
L 307.952727 279.330041 
L 309.000965 279.330041 
L 309.141419 280.857981 
L 310.049432 280.857981 
L 310.189913 281.186389 
L 311.208993 281.186389 
L 311.349337 280.956756 
L 312.255835 280.956756 
L 312.396048 282.413584 
L 313.412555 282.413584 
L 313.552266 281.162519 
L 314.60339 281.162519 
L 314.744109 281.279717 
L 315.651958 281.279717 
L 315.791941 282.235802 
L 316.811447 282.235802 
L 316.951963 282.040733 
L 319.046822 282.132087 
L 319.187067 282.559259 
L 320.206695 282.559259 
L 320.347239 282.777052 
L 321.394795 282.777052 
L 321.535241 282.586426 
L 323.601648 282.611111 
L 323.742271 282.754329 
L 324.649652 282.754329 
L 324.790449 283.860533 
L 325.80942 283.860533 
L 325.949927 283.423482 
L 326.997926 283.423482 
L 327.138518 284.211156 
L 328.047028 284.211156 
L 328.187944 284.66878 
L 329.208005 284.66878 
L 329.348472 284.499565 
L 330.396048 284.499565 
L 330.537127 284.934631 
L 331.443604 284.934631 
L 331.584069 284.471253 
L 332.603154 284.471253 
L 332.744145 285.0655 
L 334.816003 285.034883 
L 334.955672 285.650708 
L 336.00601 285.650708 
L 336.146781 284.618571 
L 337.053285 284.618571 
L 337.193699 286.233434 
L 338.21381 286.233434 
L 338.354292 285.616132 
L 339.399669 285.616132 
L 339.53869 286.403808 
L 340.429083 286.403808 
L 340.569403 285.610378 
L 341.616539 285.610378 
L 341.756298 285.828489 
L 342.666046 285.828489 
L 342.806526 286.132196 
L 345.014255 286.107504 
L 345.154308 286.61863 
L 347.222308 286.537146 
L 347.688833 286.4927 
L 348.385097 286.4927 
L 348.524243 287.006293 
L 349.466093 287.006293 
L 349.606438 287.463096 
L 350.624023 287.463096 
L 350.76469 287.05897 
L 351.672011 287.05897 
L 351.811314 287.959406 
L 352.808766 287.959406 
L 352.948343 287.398896 
L 355.073799 287.415193 
L 355.213954 287.648286 
L 356.234266 287.648286 
L 356.37463 288.035457 
L 357.421979 288.035457 
L 357.56214 287.85076 
L 358.468989 287.85076 
L 358.77056 287.97669 
L 359.628955 287.97669 
L 359.768624 288.290278 
L 360.816835 288.290278 
L 360.956683 288.614238 
L 361.865056 288.614238 
L 362.004552 289.033508 
L 363.021491 289.033508 
L 363.161104 288.391515 
L 364.071732 288.391515 
L 364.212112 288.68782 
L 366.417983 288.616212 
L 366.557658 288.871035 
L 367.467392 288.871035 
L 367.607516 289.373435 
L 368.626794 289.373435 
L 368.76711 288.579175 
L 370.8617 288.62609 
L 371.002004 289.156968 
L 373.068959 289.0903 
L 373.209089 288.514977 
L 374.228872 288.514977 
L 374.369014 289.435988 
L 376.464388 289.471545 
L 376.605075 288.527322 
L 378.811899 288.510861 
L 378.952491 289.240921 
L 381.019142 289.238452 
L 381.159034 289.629573 
L 382.207301 289.629573 
L 382.347599 289.798961 
L 383.255672 289.798961 
L 383.39562 289.15203 
L 384.413508 289.15203 
L 384.554028 289.947112 
L 385.462886 289.947112 
L 385.603381 289.43105 
L 386.623074 289.43105 
L 386.763411 289.129808 
L 387.810724 289.129808 
L 387.950957 289.48784 
L 390.017386 289.580847 
L 390.157548 289.214747 
L 391.204059 289.214747 
L 391.344415 289.749577 
L 391.972991 289.749577 
L 391.972991 289.749577 
" clip-path="url(#p475ec361c4)" style="fill: none; stroke: #2ca02c; stroke-width: 1.5; stroke-linecap: square"/>
   </g>
   <g id="line2d_15">
    <path d="M 394.195507 289.198944 
L 394.08166 288.603867 
L 392.934713 288.603867 
L 392.70588 288.843379 
L 391.903244 288.843379 
L 391.673832 289.287835 
L 389.495153 289.398457 
L 389.265803 289.725707 
L 388.464573 289.725707 
L 388.350994 289.077954 
L 387.329104 289.077954 
L 387.099588 288.828565 
L 385.036603 288.877948 
L 384.921951 289.459692 
L 384.004434 289.459692 
L 383.775455 289.294419 
L 381.826775 289.189067 
L 381.712498 288.406331 
L 380.565489 288.406331 
L 380.450941 289.050792 
L 379.419 289.050792 
L 379.189769 289.206846 
L 378.387228 289.206846 
L 378.157961 289.422819 
L 377.126452 289.422819 
L 376.896967 289.734267 
L 376.094165 289.734267 
L 375.979432 288.994001 
L 373.914075 288.912517 
L 373.684517 288.72239 
L 372.651619 288.72239 
L 372.537866 288.201388 
L 371.620147 288.201388 
L 371.505685 288.739673 
L 370.474389 288.739673 
L 370.359632 288.018667 
L 369.442381 288.018667 
L 369.213037 288.235956 
L 368.180799 288.235956 
L 367.951449 288.537198 
L 367.034001 288.537198 
L 366.804976 288.124842 
L 366.0028 288.124842 
L 365.888338 287.631003 
L 364.741242 287.631003 
L 364.626752 288.2646 
L 363.709238 288.2646 
L 363.479696 287.993973 
L 362.561631 287.993973 
L 362.447044 288.527322 
L 361.529248 288.527322 
L 361.414393 287.911668 
L 360.267177 287.911668 
L 360.037714 288.045827 
L 359.234536 288.045827 
L 359.005001 287.645817 
L 358.087114 287.645817 
L 357.972487 287.180125 
L 355.794595 287.265561 
L 355.565552 286.947034 
L 354.648531 286.947034 
L 354.419164 287.196423 
L 353.617241 287.196423 
L 353.502623 286.253187 
L 352.356369 286.253187 
L 352.241855 287.008763 
L 351.325521 287.008763 
L 351.09631 286.719867 
L 350.179361 286.719867 
L 349.949833 286.388006 
L 347.887834 286.465538 
L 347.77316 285.976635 
L 345.710224 286.043304 
L 345.480862 286.329732 
L 344.449573 286.329732 
L 344.334961 285.787498 
L 343.417517 285.787498 
L 343.302929 285.323942 
L 342.270393 285.323942 
L 342.041176 285.724775 
L 341.238549 285.724775 
L 341.123869 286.203803 
L 339.978122 286.203803 
L 339.86345 284.966737 
L 338.946978 284.966737 
L 338.717898 285.203779 
L 337.801017 285.203779 
L 337.572502 284.985501 
L 336.770216 284.985501 
L 336.540768 285.333821 
L 335.509302 285.333821 
L 335.394511 284.52919 
L 334.477813 284.52919 
L 334.363298 285.185675 
L 333.331501 285.185675 
L 333.217134 284.663025 
L 332.071343 284.663025 
L 331.956709 283.80028 
L 331.039383 283.80028 
L 330.810434 283.473691 
L 329.893429 283.473691 
L 329.779087 284.049174 
L 328.861599 284.049174 
L 328.746875 283.344464 
L 327.600456 283.344464 
L 327.370932 283.208667 
L 325.421831 283.179031 
L 325.192572 282.974083 
L 324.390595 282.974083 
L 324.276125 282.252263 
L 323.129657 282.252263 
L 322.900443 282.445181 
L 322.099016 282.445181 
L 321.870273 282.756798 
L 320.953089 282.756798 
L 320.838415 282.235802 
L 319.695922 282.235802 
L 319.581196 281.741961 
L 317.520776 281.825906 
L 317.406472 280.89453 
L 316.491719 280.89453 
L 316.262645 280.699957 
L 315.235534 280.699957 
L 315.006984 280.82012 
L 314.206141 280.82012 
L 314.09227 280.23574 
L 313.063283 280.23574 
L 312.833902 280.371548 
L 312.03119 280.371548 
L 311.801838 280.033273 
L 310.769708 280.033273 
L 310.65509 279.349798 
L 308.591222 279.373987 
L 308.476556 278.230749 
L 307.329725 278.230749 
L 307.100231 278.369028 
L 306.297148 278.369028 
L 306.182483 277.722102 
L 304.119242 277.764074 
L 304.004629 278.230749 
L 302.859478 278.230749 
L 302.744998 277.473207 
L 301.827409 277.473207 
L 301.712569 276.875167 
L 300.680472 276.875167 
L 300.451021 277.131954 
L 299.419778 277.131954 
L 299.190648 276.820834 
L 298.388615 276.820834 
L 298.273788 275.405991 
L 297.242205 275.405991 
L 297.012782 275.593639 
L 296.210121 275.593639 
L 296.095612 275.045488 
L 294.949415 275.045488 
L 294.834563 274.363987 
L 293.91674 274.363987 
L 293.802011 273.159007 
L 291.739233 273.220749 
L 291.624738 272.509612 
L 290.478792 272.509612 
L 290.249349 272.305656 
L 289.44704 272.305656 
L 289.332342 271.242914 
L 288.300923 271.242914 
L 288.186324 271.82564 
L 287.040228 271.82564 
L 286.925724 271.061835 
L 286.009112 271.061835 
L 285.780099 270.679933 
L 284.863636 270.679933 
L 284.749312 269.670531 
L 283.83248 269.670531 
L 283.717607 269.205002 
L 282.571285 269.205002 
L 282.456541 268.173196 
L 281.539415 268.173196 
L 281.424722 266.776125 
L 280.39251 266.776125 
L 280.277831 266.06006 
L 279.361166 266.06006 
L 279.246339 265.102013 
L 278.099548 265.102013 
L 277.984835 264.385121 
L 277.06698 264.385121 
L 276.837509 264.195806 
L 275.919429 264.195806 
L 275.804717 263.06097 
L 274.657795 263.06097 
L 274.543023 262.264894 
L 273.626437 262.264894 
L 273.511956 260.830294 
L 272.481343 260.830294 
L 272.366486 259.72162 
L 271.450155 259.72162 
L 271.335963 258.09936 
L 270.190345 258.09936 
L 269.961372 257.873673 
L 269.159349 257.873673 
L 269.044584 256.975868 
L 268.012939 256.975868 
L 267.898442 255.558543 
L 266.9816 255.558543 
L 266.866887 254.751123 
L 265.719543 254.751123 
L 265.605001 252.701679 
L 264.688855 252.701679 
L 264.574611 251.844865 
L 263.543258 251.844865 
L 263.428602 250.422613 
L 262.28244 250.422613 
L 262.167661 248.611203 
L 261.251179 248.611203 
L 261.136674 247.187959 
L 260.104513 247.187959 
L 259.989914 246.366536 
L 259.072996 246.366536 
L 258.958388 245.306429 
L 257.811284 245.306429 
L 257.696685 243.385384 
L 256.779577 243.385384 
L 256.665169 241.795217 
L 255.633217 241.795217 
L 255.518494 240.316671 
L 254.601022 240.316671 
L 254.486497 237.639561 
L 253.339037 237.639561 
L 253.224257 236.898799 
L 252.19238 236.898799 
L 252.077936 235.219736 
L 251.16151 235.219736 
L 251.046715 233.190061 
L 249.900391 233.190061 
L 249.785878 231.106052 
L 248.869334 231.106052 
L 248.75456 229.812188 
L 247.72218 229.812188 
L 247.607369 227.866459 
L 246.690235 227.866459 
L 246.575625 225.436754 
L 245.42936 225.436754 
L 245.314696 224.315744 
L 244.398292 224.315744 
L 244.283834 221.523079 
L 243.251712 221.523079 
L 243.137025 217.811375 
L 242.220137 217.811375 
L 242.105431 215.491648 
L 240.959017 215.491648 
L 240.844525 212.537651 
L 239.813727 212.537651 
L 239.698951 209.110409 
L 238.782181 209.110409 
L 238.66744 205.64364 
L 237.520474 205.64364 
L 237.405989 201.323035 
L 236.489033 201.323035 
L 236.374703 197.354531 
L 235.342823 197.354531 
L 235.228228 192.773676 
L 234.311755 192.773676 
L 234.19701 188.388872 
L 233.050111 188.388872 
L 232.935629 182.922052 
L 232.01858 182.922052 
L 231.903909 178.361404 
L 230.87194 178.361404 
L 230.757437 172.877296 
L 229.610825 172.877296 
L 229.496147 165.898855 
L 228.578246 165.898855 
L 228.463968 160.923927 
L 227.432531 160.923927 
L 227.318008 153.434888 
L 226.401631 153.434888 
L 226.286897 148.239697 
L 225.140903 148.239697 
L 225.026282 141.145689 
L 224.10925 141.145689 
L 223.994434 134.812201 
L 222.961721 134.812201 
L 222.846972 129.044139 
L 221.929045 129.044139 
L 221.814232 124.075237 
L 220.666696 124.075237 
L 220.552153 118.245256 
L 219.635493 118.245256 
L 219.520749 111.653456 
L 218.489015 111.653456 
L 218.374435 105.971892 
L 217.227727 105.971892 
L 217.113399 99.398407 
L 216.196501 99.398407 
L 216.081717 95.027546 
L 215.050804 95.027546 
L 214.936285 89.954186 
L 214.019191 89.954186 
L 213.904433 84.475868 
L 212.757064 84.475868 
L 212.64244 79.90696 
L 211.725928 79.90696 
L 211.611551 76.089591 
L 210.579571 76.089591 
L 210.464915 71.652439 
L 209.547667 71.652439 
L 209.433103 67.973324 
L 208.287408 67.973324 
L 208.173037 64.094745 
L 207.255865 64.094745 
L 207.141104 61.316296 
L 206.108881 61.316296 
L 205.99417 58.476755 
L 204.848185 58.476755 
L 204.733419 55.857003 
L 203.815721 55.857003 
L 203.700999 55.075805 
L 202.668259 55.075805 
L 202.553514 53.568 
L 201.63669 53.568 
L 201.521872 54.550791 
L 200.374307 54.550791 
L 200.14482 54.254429 
L 199.341591 54.254429 
L 199.226858 55.219968 
L 198.194178 55.219968 
L 198.079352 58.506415 
L 197.161346 58.506415 
L 197.046855 61.55582 
L 195.899299 61.55582 
L 195.784758 64.914466 
L 194.753953 64.914466 
L 194.639299 69.028433 
L 193.722342 69.028433 
L 193.607801 73.904338 
L 192.462046 73.904338 
L 192.347264 79.415624 
L 191.430025 79.415624 
L 191.315341 85.396031 
L 190.282915 85.396031 
L 190.168589 93.904846 
L 189.252384 93.904846 
L 189.137778 100.614577 
L 187.991426 100.614577 
L 187.8769 108.435664 
L 186.960397 108.435664 
L 186.84567 117.021524 
L 185.813126 117.021524 
L 185.698315 124.045578 
L 184.780284 124.045578 
L 184.665469 130.868866 
L 183.51872 130.868866 
L 183.403997 139.557886 
L 182.371868 139.557886 
L 182.257148 149.406592 
L 181.340745 149.406592 
L 181.225927 158.025066 
L 180.0796 158.025066 
L 179.964872 166.726611 
L 179.04674 166.726611 
L 178.932 174.092166 
L 177.900297 174.092166 
L 177.785556 182.24302 
L 176.868485 182.24302 
L 176.753748 188.42262 
L 175.608577 188.42262 
L 175.493968 196.173268 
L 174.577322 196.173268 
L 174.46257 204.19916 
L 173.430215 204.19916 
L 173.315531 210.796869 
L 172.169872 210.796869 
L 172.055209 219.145227 
L 171.138259 219.145227 
L 171.023782 225.896032 
L 169.99223 225.896032 
L 169.877751 233.319926 
L 168.962351 233.319926 
L 168.847634 238.761399 
L 167.702271 238.761399 
L 167.5877 244.640726 
L 166.670818 244.640726 
L 166.556502 249.579791 
L 165.525761 249.579791 
L 165.411411 255.062232 
L 164.493971 255.062232 
L 164.379596 259.738908 
L 163.233231 259.738908 
L 163.118502 263.395795 
L 162.202402 263.395795 
L 162.087876 267.452688 
L 161.055532 267.452688 
L 160.94134 272.538751 
L 159.794229 272.538751 
L 159.679479 274.052866 
L 158.76334 274.052866 
L 158.649142 277.285051 
L 157.617368 277.285051 
L 157.502833 278.594549 
L 156.585351 278.594549 
L 156.470696 280.364139 
L 155.324764 280.364139 
L 155.210064 283.012109 
L 154.29343 283.012109 
L 154.178783 282.104106 
L 153.147049 282.104106 
L 153.032368 284.171653 
L 152.115149 284.171653 
L 152.000631 284.719816 
L 150.855087 284.719816 
L 150.74039 285.556872 
L 149.708866 285.556872 
L 149.479739 285.977131 
L 148.677736 285.977131 
L 148.563139 286.571714 
L 147.417159 286.571714 
L 147.187951 286.370229 
L 146.386231 286.370229 
L 146.156909 286.742089 
L 145.239851 286.742089 
L 145.125137 287.198891 
L 144.208232 287.198891 
L 144.093547 288.253241 
L 142.946778 288.253241 
L 142.717383 288.650781 
L 139.506375 288.65572 
L 139.277167 288.813749 
L 138.474578 288.813749 
L 138.245498 289.156969 
L 137.32844 289.156969 
L 137.213769 289.734761 
L 135.034819 289.727353 
L 134.805498 290.091808 
L 134.003703 290.091808 
L 133.88915 289.203883 
L 132.856413 289.203883 
L 132.741637 290.031066 
L 131.823511 290.031066 
L 131.708781 289.500188 
L 130.561357 289.500188 
L 130.446716 290.232717 
L 129.529885 290.232717 
L 129.415406 289.312527 
L 127.122962 289.314997 
L 126.893475 289.72044 
L 124.944474 289.663155 
L 124.829882 289.156968 
L 121.621174 289.080422 
L 121.506525 289.789083 
L 119.443735 289.771799 
L 119.214484 289.450803 
L 118.183883 289.450803 
L 118.07029 290.670588 
L 117.040101 290.670588 
L 116.925365 290.208849 
L 116.008315 290.208849 
L 115.894079 288.766834 
L 114.747483 288.766834 
L 114.63264 289.929828 
L 113.715322 289.929828 
L 113.485693 290.122425 
L 112.567612 290.122425 
L 112.452802 289.302651 
L 111.535599 289.302651 
L 111.420765 290.377576 
L 110.274549 290.377576 
L 110.159855 289.86069 
L 108.095684 289.932298 
L 107.866617 289.53278 
L 107.06461 289.53278 
L 106.835351 289.97592 
L 105.803343 289.97592 
L 105.688619 290.84442 
L 104.657479 290.84442 
L 104.542823 290.354531 
L 103.625828 290.354531 
L 103.39706 290.226132 
L 102.364616 290.226132 
L 102.249892 289.048324 
L 101.331883 289.048324 
L 101.10249 289.218697 
L 100.184405 289.218697 
L 99.954973 289.362899 
L 99.152565 289.362899 
L 98.923105 289.544632 
L 96.860138 289.529818 
L 96.631068 289.821183 
L 95.713591 289.821183 
L 95.598828 290.332308 
L 94.451979 290.332308 
L 94.33726 289.787602 
L 92.273748 289.788261 
L 92.04411 289.39895 
L 91.241739 289.39895 
L 91.126935 289.964398 
L 89.979765 289.964398 
L 89.750662 290.100203 
L 88.94813 290.100203 
L 88.83334 289.559448 
L 87.800431 289.559448 
L 87.685674 290.301196 
L 86.76764 290.301196 
L 86.538227 289.923244 
L 84.475821 289.96736 
L 84.361129 290.552067 
L 83.330112 290.552067 
L 83.215574 289.844229 
L 81.039214 289.797479 
L 80.924649 290.726556 
L 79.895954 290.726556 
L 79.781609 289.750071 
L 78.86479 289.750071 
L 78.635271 290.006373 
L 76.574812 289.92242 
L 76.460544 290.35947 
L 75.430739 290.35947 
L 75.202114 290.031065 
L 73.832727 290.068103 
L 73.832727 290.068103 
" clip-path="url(#p475ec361c4)" style="fill: none; stroke: #d62728; stroke-width: 1.5; stroke-linecap: square"/>
   </g>
   <g id="patch_3">
    <path d="M 57.6 307.584 
L 57.6 41.472 
" style="fill: none; stroke: #000000; stroke-width: 0.8; stroke-linejoin: miter; stroke-linecap: square"/>
   </g>
   <g id="patch_4">
    <path d="M 414.72 307.584 
L 414.72 41.472 
" style="fill: none; stroke: #000000; stroke-width: 0.8; stroke-linejoin: miter; stroke-linecap: square"/>
   </g>
   <g id="patch_5">
    <path d="M 57.6 307.584 
L 414.72 307.584 
" style="fill: none; stroke: #000000; stroke-width: 0.8; stroke-linejoin: miter; stroke-linecap: square"/>
   </g>
   <g id="patch_6">
    <path d="M 57.6 41.472 
L 414.72 41.472 
" style="fill: none; stroke: #000000; stroke-width: 0.8; stroke-linejoin: miter; stroke-linecap: square"/>
   </g>
   <g id="legend_1">
    <g id="patch_7">
     <path d="M 356.6325 108.1845 
L 407.72 108.1845 
Q 409.72 108.1845 409.72 106.1845 
L 409.72 48.472 
Q 409.72 46.472 407.72 46.472 
L 356.6325 46.472 
Q 354.6325 46.472 354.6325 48.472 
L 354.6325 106.1845 
Q 354.6325 108.1845 356.6325 108.1845 
z
" style="fill: #ffffff; opacity: 0.8; stroke: #cccccc; stroke-linejoin: miter"/>
    </g>
    <g id="line2d_16">
     <path d="M 358.6325 54.570438 
L 368.6325 54.570438 
L 378.6325 54.570438 
" style="fill: none; stroke: #1f77b4; stroke-width: 1.5; stroke-linecap: square"/>
    </g>
    <g id="text_14">
     <!-- 441 -->
     <g transform="translate(386.6325 58.070438) scale(0.1 -0.1)">
      <defs>
       <path id="DejaVuSans-34" d="M 2419 4116 
L 825 1625 
L 2419 1625 
L 2419 4116 
z
M 2253 4666 
L 3047 4666 
L 3047 1625 
L 3713 1625 
L 3713 1100 
L 3047 1100 
L 3047 0 
L 2419 0 
L 2419 1100 
L 313 1100 
L 313 1709 
L 2253 4666 
z
" transform="scale(0.015625)"/>
      </defs>
      <use xlink:href="#DejaVuSans-34"/>
      <use xlink:href="#DejaVuSans-34" x="63.623047"/>
      <use xlink:href="#DejaVuSans-31" x="127.246094"/>
     </g>
    </g>
    <g id="line2d_17">
     <path d="M 358.6325 69.248563 
L 368.6325 69.248563 
L 378.6325 69.248563 
" style="fill: none; stroke: #ff7f0e; stroke-width: 1.5; stroke-linecap: square"/>
    </g>
    <g id="text_15">
     <!-- 493 -->
     <g transform="translate(386.6325 72.748563) scale(0.1 -0.1)">
      <defs>
       <path id="DejaVuSans-39" d="M 703 97 
L 703 672 
Q 941 559 1184 500 
Q 1428 441 1663 441 
Q 2288 441 2617 861 
Q 2947 1281 2994 2138 
Q 2813 1869 2534 1725 
Q 2256 1581 1919 1581 
Q 1219 1581 811 2004 
Q 403 2428 403 3163 
Q 403 3881 828 4315 
Q 1253 4750 1959 4750 
Q 2769 4750 3195 4129 
Q 3622 3509 3622 2328 
Q 3622 1225 3098 567 
Q 2575 -91 1691 -91 
Q 1453 -91 1209 -44 
Q 966 3 703 97 
z
M 1959 2075 
Q 2384 2075 2632 2365 
Q 2881 2656 2881 3163 
Q 2881 3666 2632 3958 
Q 2384 4250 1959 4250 
Q 1534 4250 1286 3958 
Q 1038 3666 1038 3163 
Q 1038 2656 1286 2365 
Q 1534 2075 1959 2075 
z
" transform="scale(0.015625)"/>
       <path id="DejaVuSans-33" d="M 2597 2516 
Q 3050 2419 3304 2112 
Q 3559 1806 3559 1356 
Q 3559 666 3084 287 
Q 2609 -91 1734 -91 
Q 1441 -91 1130 -33 
Q 819 25 488 141 
L 488 750 
Q 750 597 1062 519 
Q 1375 441 1716 441 
Q 2309 441 2620 675 
Q 2931 909 2931 1356 
Q 2931 1769 2642 2001 
Q 2353 2234 1838 2234 
L 1294 2234 
L 1294 2753 
L 1863 2753 
Q 2328 2753 2575 2939 
Q 2822 3125 2822 3475 
Q 2822 3834 2567 4026 
Q 2313 4219 1838 4219 
Q 1578 4219 1281 4162 
Q 984 4106 628 3988 
L 628 4550 
Q 988 4650 1302 4700 
Q 1616 4750 1894 4750 
Q 2613 4750 3031 4423 
Q 3450 4097 3450 3541 
Q 3450 3153 3228 2886 
Q 3006 2619 2597 2516 
z
" transform="scale(0.015625)"/>
      </defs>
      <use xlink:href="#DejaVuSans-34"/>
      <use xlink:href="#DejaVuSans-39" x="63.623047"/>
      <use xlink:href="#DejaVuSans-33" x="127.246094"/>
     </g>
    </g>
    <g id="line2d_18">
     <path d="M 358.6325 83.926688 
L 368.6325 83.926688 
L 378.6325 83.926688 
" style="fill: none; stroke: #2ca02c; stroke-width: 1.5; stroke-linecap: square"/>
    </g>
    <g id="text_16">
     <!-- 547 -->
     <g transform="translate(386.6325 87.426688) scale(0.1 -0.1)">
      <defs>
       <path id="DejaVuSans-37" d="M 525 4666 
L 3525 4666 
L 3525 4397 
L 1831 0 
L 1172 0 
L 2766 4134 
L 525 4134 
L 525 4666 
z
" transform="scale(0.015625)"/>
      </defs>
      <use xlink:href="#DejaVuSans-35"/>
      <use xlink:href="#DejaVuSans-34" x="63.623047"/>
      <use xlink:href="#DejaVuSans-37" x="127.246094"/>
     </g>
    </g>
    <g id="line2d_19">
     <path d="M 358.6325 98.604813 
L 368.6325 98.604813 
L 378.6325 98.604813 
" style="fill: none; stroke: #d62728; stroke-width: 1.5; stroke-linecap: square"/>
    </g>
    <g id="text_17">
     <!-- 590 -->
     <g transform="translate(386.6325 102.104813) scale(0.1 -0.1)">
      <use xlink:href="#DejaVuSans-35"/>
      <use xlink:href="#DejaVuSans-39" x="63.623047"/>
      <use xlink:href="#DejaVuSans-30" x="127.246094"/>
     </g>
    </g>
   </g>
  </g>
 </g>
 <defs>
  <clipPath id="p475ec361c4">
   <rect x="57.6" y="41.472" width="357.12" height="266.112"/>
  </clipPath>
 </defs>
</svg>
