<?xml version="1.0" encoding="utf-8" standalone="no"?>
<!DOCTYPE svg PUBLIC "-//W3C//DTD SVG 1.1//EN"
  "http://www.w3.org/Graphics/SVG/1.1/DTD/svg11.dtd">
<svg xmlns:xlink="http://www.w3.org/1999/xlink" width="460.8pt" height="345.6pt" viewBox="0 0 460.8 345.6" xmlns="http://www.w3.org/2000/svg" version="1.1">
 <metadata>
  <rdf:RDF xmlns:dc="http://purl.org/dc/elements/1.1/" xmlns:cc="http://creativecommons.org/ns#" xmlns:rdf="http://www.w3.org/1999/02/22-rdf-syntax-ns#">
   <cc:Work>
    <dc:type rdf:resource="http://purl.org/dc/dcmitype/StillImage"/>
    <dc:date>2024-07-11T02:40:33.185793</dc:date>
    <dc:format>image/svg+xml</dc:format>
    <dc:creator>
     <cc:Agent>
      <dc:title>Matplotlib v3.8.2, https://matplotlib.org/</dc:title>
     </cc:Agent>
    </dc:creator>
   </cc:Work>
  </rdf:RDF>
 </metadata>
 <defs>
  <style type="text/css">*{stroke-linejoin: round; stroke-linecap: butt}</style>
 </defs>
 <g id="figure_1">
  <g id="patch_1">
   <path d="M 0 345.6 
L 460.8 345.6 
L 460.8 0 
L 0 0 
z
" style="fill: #ffffff"/>
  </g>
  <g id="axes_1">
   <g id="patch_2">
    <path d="M 57.6 307.584 
L 414.72 307.584 
L 414.72 41.472 
L 57.6 41.472 
z
" style="fill: #ffffff"/>
   </g>
   <g id="matplotlib.axis_1">
    <g id="xtick_1">
     <g id="line2d_1">
      <defs>
       <path id="m4ff6fc79bc" d="M 0 0 
L 0 3.5 
" style="stroke: #000000; stroke-width: 0.8"/>
      </defs>
      <g>
       <use xlink:href="#m4ff6fc79bc" x="73.828714" y="307.584" style="stroke: #000000; stroke-width: 0.8"/>
      </g>
     </g>
     <g id="text_1">
      <!-- 0 -->
      <g transform="translate(70.647464 322.182437) scale(0.1 -0.1)">
       <defs>
        <path id="DejaVuSans-30" d="M 2034 4250 
Q 1547 4250 1301 3770 
Q 1056 3291 1056 2328 
Q 1056 1369 1301 889 
Q 1547 409 2034 409 
Q 2525 409 2770 889 
Q 3016 1369 3016 2328 
Q 3016 3291 2770 3770 
Q 2525 4250 2034 4250 
z
M 2034 4750 
Q 2819 4750 3233 4129 
Q 3647 3509 3647 2328 
Q 3647 1150 3233 529 
Q 2819 -91 2034 -91 
Q 1250 -91 836 529 
Q 422 1150 422 2328 
Q 422 3509 836 4129 
Q 1250 4750 2034 4750 
z
" transform="scale(0.015625)"/>
       </defs>
       <use xlink:href="#DejaVuSans-30"/>
      </g>
     </g>
    </g>
    <g id="xtick_2">
     <g id="line2d_2">
      <g>
       <use xlink:href="#m4ff6fc79bc" x="117.385498" y="307.584" style="stroke: #000000; stroke-width: 0.8"/>
      </g>
     </g>
     <g id="text_2">
      <!-- 2000 -->
      <g transform="translate(104.660498 322.182437) scale(0.1 -0.1)">
       <defs>
        <path id="DejaVuSans-32" d="M 1228 531 
L 3431 531 
L 3431 0 
L 469 0 
L 469 531 
Q 828 903 1448 1529 
Q 2069 2156 2228 2338 
Q 2531 2678 2651 2914 
Q 2772 3150 2772 3378 
Q 2772 3750 2511 3984 
Q 2250 4219 1831 4219 
Q 1534 4219 1204 4116 
Q 875 4013 500 3803 
L 500 4441 
Q 881 4594 1212 4672 
Q 1544 4750 1819 4750 
Q 2544 4750 2975 4387 
Q 3406 4025 3406 3419 
Q 3406 3131 3298 2873 
Q 3191 2616 2906 2266 
Q 2828 2175 2409 1742 
Q 1991 1309 1228 531 
z
" transform="scale(0.015625)"/>
       </defs>
       <use xlink:href="#DejaVuSans-32"/>
       <use xlink:href="#DejaVuSans-30" x="63.623047"/>
       <use xlink:href="#DejaVuSans-30" x="127.246094"/>
       <use xlink:href="#DejaVuSans-30" x="190.869141"/>
      </g>
     </g>
    </g>
    <g id="xtick_3">
     <g id="line2d_3">
      <g>
       <use xlink:href="#m4ff6fc79bc" x="160.942283" y="307.584" style="stroke: #000000; stroke-width: 0.8"/>
      </g>
     </g>
     <g id="text_3">
      <!-- 4000 -->
      <g transform="translate(148.217283 322.182437) scale(0.1 -0.1)">
       <defs>
        <path id="DejaVuSans-34" d="M 2419 4116 
L 825 1625 
L 2419 1625 
L 2419 4116 
z
M 2253 4666 
L 3047 4666 
L 3047 1625 
L 3713 1625 
L 3713 1100 
L 3047 1100 
L 3047 0 
L 2419 0 
L 2419 1100 
L 313 1100 
L 313 1709 
L 2253 4666 
z
" transform="scale(0.015625)"/>
       </defs>
       <use xlink:href="#DejaVuSans-34"/>
       <use xlink:href="#DejaVuSans-30" x="63.623047"/>
       <use xlink:href="#DejaVuSans-30" x="127.246094"/>
       <use xlink:href="#DejaVuSans-30" x="190.869141"/>
      </g>
     </g>
    </g>
    <g id="xtick_4">
     <g id="line2d_4">
      <g>
       <use xlink:href="#m4ff6fc79bc" x="204.499067" y="307.584" style="stroke: #000000; stroke-width: 0.8"/>
      </g>
     </g>
     <g id="text_4">
      <!-- 6000 -->
      <g transform="translate(191.774067 322.182437) scale(0.1 -0.1)">
       <defs>
        <path id="DejaVuSans-36" d="M 2113 2584 
Q 1688 2584 1439 2293 
Q 1191 2003 1191 1497 
Q 1191 994 1439 701 
Q 1688 409 2113 409 
Q 2538 409 2786 701 
Q 3034 994 3034 1497 
Q 3034 2003 2786 2293 
Q 2538 2584 2113 2584 
z
M 3366 4563 
L 3366 3988 
Q 3128 4100 2886 4159 
Q 2644 4219 2406 4219 
Q 1781 4219 1451 3797 
Q 1122 3375 1075 2522 
Q 1259 2794 1537 2939 
Q 1816 3084 2150 3084 
Q 2853 3084 3261 2657 
Q 3669 2231 3669 1497 
Q 3669 778 3244 343 
Q 2819 -91 2113 -91 
Q 1303 -91 875 529 
Q 447 1150 447 2328 
Q 447 3434 972 4092 
Q 1497 4750 2381 4750 
Q 2619 4750 2861 4703 
Q 3103 4656 3366 4563 
z
" transform="scale(0.015625)"/>
       </defs>
       <use xlink:href="#DejaVuSans-36"/>
       <use xlink:href="#DejaVuSans-30" x="63.623047"/>
       <use xlink:href="#DejaVuSans-30" x="127.246094"/>
       <use xlink:href="#DejaVuSans-30" x="190.869141"/>
      </g>
     </g>
    </g>
    <g id="xtick_5">
     <g id="line2d_5">
      <g>
       <use xlink:href="#m4ff6fc79bc" x="248.055851" y="307.584" style="stroke: #000000; stroke-width: 0.8"/>
      </g>
     </g>
     <g id="text_5">
      <!-- 8000 -->
      <g transform="translate(235.330851 322.182437) scale(0.1 -0.1)">
       <defs>
        <path id="DejaVuSans-38" d="M 2034 2216 
Q 1584 2216 1326 1975 
Q 1069 1734 1069 1313 
Q 1069 891 1326 650 
Q 1584 409 2034 409 
Q 2484 409 2743 651 
Q 3003 894 3003 1313 
Q 3003 1734 2745 1975 
Q 2488 2216 2034 2216 
z
M 1403 2484 
Q 997 2584 770 2862 
Q 544 3141 544 3541 
Q 544 4100 942 4425 
Q 1341 4750 2034 4750 
Q 2731 4750 3128 4425 
Q 3525 4100 3525 3541 
Q 3525 3141 3298 2862 
Q 3072 2584 2669 2484 
Q 3125 2378 3379 2068 
Q 3634 1759 3634 1313 
Q 3634 634 3220 271 
Q 2806 -91 2034 -91 
Q 1263 -91 848 271 
Q 434 634 434 1313 
Q 434 1759 690 2068 
Q 947 2378 1403 2484 
z
M 1172 3481 
Q 1172 3119 1398 2916 
Q 1625 2713 2034 2713 
Q 2441 2713 2670 2916 
Q 2900 3119 2900 3481 
Q 2900 3844 2670 4047 
Q 2441 4250 2034 4250 
Q 1625 4250 1398 4047 
Q 1172 3844 1172 3481 
z
" transform="scale(0.015625)"/>
       </defs>
       <use xlink:href="#DejaVuSans-38"/>
       <use xlink:href="#DejaVuSans-30" x="63.623047"/>
       <use xlink:href="#DejaVuSans-30" x="127.246094"/>
       <use xlink:href="#DejaVuSans-30" x="190.869141"/>
      </g>
     </g>
    </g>
    <g id="xtick_6">
     <g id="line2d_6">
      <g>
       <use xlink:href="#m4ff6fc79bc" x="291.612635" y="307.584" style="stroke: #000000; stroke-width: 0.8"/>
      </g>
     </g>
     <g id="text_6">
      <!-- 10000 -->
      <g transform="translate(275.706385 322.182437) scale(0.1 -0.1)">
       <defs>
        <path id="DejaVuSans-31" d="M 794 531 
L 1825 531 
L 1825 4091 
L 703 3866 
L 703 4441 
L 1819 4666 
L 2450 4666 
L 2450 531 
L 3481 531 
L 3481 0 
L 794 0 
L 794 531 
z
" transform="scale(0.015625)"/>
       </defs>
       <use xlink:href="#DejaVuSans-31"/>
       <use xlink:href="#DejaVuSans-30" x="63.623047"/>
       <use xlink:href="#DejaVuSans-30" x="127.246094"/>
       <use xlink:href="#DejaVuSans-30" x="190.869141"/>
       <use xlink:href="#DejaVuSans-30" x="254.492188"/>
      </g>
     </g>
    </g>
    <g id="xtick_7">
     <g id="line2d_7">
      <g>
       <use xlink:href="#m4ff6fc79bc" x="335.169419" y="307.584" style="stroke: #000000; stroke-width: 0.8"/>
      </g>
     </g>
     <g id="text_7">
      <!-- 12000 -->
      <g transform="translate(319.263169 322.182437) scale(0.1 -0.1)">
       <use xlink:href="#DejaVuSans-31"/>
       <use xlink:href="#DejaVuSans-32" x="63.623047"/>
       <use xlink:href="#DejaVuSans-30" x="127.246094"/>
       <use xlink:href="#DejaVuSans-30" x="190.869141"/>
       <use xlink:href="#DejaVuSans-30" x="254.492188"/>
      </g>
     </g>
    </g>
    <g id="xtick_8">
     <g id="line2d_8">
      <g>
       <use xlink:href="#m4ff6fc79bc" x="378.726203" y="307.584" style="stroke: #000000; stroke-width: 0.8"/>
      </g>
     </g>
     <g id="text_8">
      <!-- 14000 -->
      <g transform="translate(362.819953 322.182437) scale(0.1 -0.1)">
       <use xlink:href="#DejaVuSans-31"/>
       <use xlink:href="#DejaVuSans-34" x="63.623047"/>
       <use xlink:href="#DejaVuSans-30" x="127.246094"/>
       <use xlink:href="#DejaVuSans-30" x="190.869141"/>
       <use xlink:href="#DejaVuSans-30" x="254.492188"/>
      </g>
     </g>
    </g>
    <g id="text_9">
     <!-- Zeit in s -->
     <g transform="translate(215.968594 335.860562) scale(0.1 -0.1)">
      <defs>
       <path id="DejaVuSans-5a" d="M 359 4666 
L 4025 4666 
L 4025 4184 
L 1075 531 
L 4097 531 
L 4097 0 
L 288 0 
L 288 481 
L 3238 4134 
L 359 4134 
L 359 4666 
z
" transform="scale(0.015625)"/>
       <path id="DejaVuSans-65" d="M 3597 1894 
L 3597 1613 
L 953 1613 
Q 991 1019 1311 708 
Q 1631 397 2203 397 
Q 2534 397 2845 478 
Q 3156 559 3463 722 
L 3463 178 
Q 3153 47 2828 -22 
Q 2503 -91 2169 -91 
Q 1331 -91 842 396 
Q 353 884 353 1716 
Q 353 2575 817 3079 
Q 1281 3584 2069 3584 
Q 2775 3584 3186 3129 
Q 3597 2675 3597 1894 
z
M 3022 2063 
Q 3016 2534 2758 2815 
Q 2500 3097 2075 3097 
Q 1594 3097 1305 2825 
Q 1016 2553 972 2059 
L 3022 2063 
z
" transform="scale(0.015625)"/>
       <path id="DejaVuSans-69" d="M 603 3500 
L 1178 3500 
L 1178 0 
L 603 0 
L 603 3500 
z
M 603 4863 
L 1178 4863 
L 1178 4134 
L 603 4134 
L 603 4863 
z
" transform="scale(0.015625)"/>
       <path id="DejaVuSans-74" d="M 1172 4494 
L 1172 3500 
L 2356 3500 
L 2356 3053 
L 1172 3053 
L 1172 1153 
Q 1172 725 1289 603 
Q 1406 481 1766 481 
L 2356 481 
L 2356 0 
L 1766 0 
Q 1100 0 847 248 
Q 594 497 594 1153 
L 594 3053 
L 172 3053 
L 172 3500 
L 594 3500 
L 594 4494 
L 1172 4494 
z
" transform="scale(0.015625)"/>
       <path id="DejaVuSans-20" transform="scale(0.015625)"/>
       <path id="DejaVuSans-6e" d="M 3513 2113 
L 3513 0 
L 2938 0 
L 2938 2094 
Q 2938 2591 2744 2837 
Q 2550 3084 2163 3084 
Q 1697 3084 1428 2787 
Q 1159 2491 1159 1978 
L 1159 0 
L 581 0 
L 581 3500 
L 1159 3500 
L 1159 2956 
Q 1366 3272 1645 3428 
Q 1925 3584 2291 3584 
Q 2894 3584 3203 3211 
Q 3513 2838 3513 2113 
z
" transform="scale(0.015625)"/>
       <path id="DejaVuSans-73" d="M 2834 3397 
L 2834 2853 
Q 2591 2978 2328 3040 
Q 2066 3103 1784 3103 
Q 1356 3103 1142 2972 
Q 928 2841 928 2578 
Q 928 2378 1081 2264 
Q 1234 2150 1697 2047 
L 1894 2003 
Q 2506 1872 2764 1633 
Q 3022 1394 3022 966 
Q 3022 478 2636 193 
Q 2250 -91 1575 -91 
Q 1294 -91 989 -36 
Q 684 19 347 128 
L 347 722 
Q 666 556 975 473 
Q 1284 391 1588 391 
Q 1994 391 2212 530 
Q 2431 669 2431 922 
Q 2431 1156 2273 1281 
Q 2116 1406 1581 1522 
L 1381 1569 
Q 847 1681 609 1914 
Q 372 2147 372 2553 
Q 372 3047 722 3315 
Q 1072 3584 1716 3584 
Q 2034 3584 2315 3537 
Q 2597 3491 2834 3397 
z
" transform="scale(0.015625)"/>
      </defs>
      <use xlink:href="#DejaVuSans-5a"/>
      <use xlink:href="#DejaVuSans-65" x="68.505859"/>
      <use xlink:href="#DejaVuSans-69" x="130.029297"/>
      <use xlink:href="#DejaVuSans-74" x="157.8125"/>
      <use xlink:href="#DejaVuSans-20" x="197.021484"/>
      <use xlink:href="#DejaVuSans-69" x="228.808594"/>
      <use xlink:href="#DejaVuSans-6e" x="256.591797"/>
      <use xlink:href="#DejaVuSans-20" x="319.970703"/>
      <use xlink:href="#DejaVuSans-73" x="351.757812"/>
     </g>
    </g>
   </g>
   <g id="matplotlib.axis_2">
    <g id="ytick_1">
     <g id="line2d_9">
      <defs>
       <path id="m9c0aad8122" d="M 0 0 
L -3.5 0 
" style="stroke: #000000; stroke-width: 0.8"/>
      </defs>
      <g>
       <use xlink:href="#m9c0aad8122" x="57.6" y="293.822799" style="stroke: #000000; stroke-width: 0.8"/>
      </g>
     </g>
     <g id="text_10">
      <!-- 0.2 -->
      <g transform="translate(34.696875 297.622018) scale(0.1 -0.1)">
       <defs>
        <path id="DejaVuSans-2e" d="M 684 794 
L 1344 794 
L 1344 0 
L 684 0 
L 684 794 
z
" transform="scale(0.015625)"/>
       </defs>
       <use xlink:href="#DejaVuSans-30"/>
       <use xlink:href="#DejaVuSans-2e" x="63.623047"/>
       <use xlink:href="#DejaVuSans-32" x="95.410156"/>
      </g>
     </g>
    </g>
    <g id="ytick_2">
     <g id="line2d_10">
      <g>
       <use xlink:href="#m9c0aad8122" x="57.6" y="251.015021" style="stroke: #000000; stroke-width: 0.8"/>
      </g>
     </g>
     <g id="text_11">
      <!-- 0.4 -->
      <g transform="translate(34.696875 254.81424) scale(0.1 -0.1)">
       <use xlink:href="#DejaVuSans-30"/>
       <use xlink:href="#DejaVuSans-2e" x="63.623047"/>
       <use xlink:href="#DejaVuSans-34" x="95.410156"/>
      </g>
     </g>
    </g>
    <g id="ytick_3">
     <g id="line2d_11">
      <g>
       <use xlink:href="#m9c0aad8122" x="57.6" y="208.207244" style="stroke: #000000; stroke-width: 0.8"/>
      </g>
     </g>
     <g id="text_12">
      <!-- 0.6 -->
      <g transform="translate(34.696875 212.006462) scale(0.1 -0.1)">
       <use xlink:href="#DejaVuSans-30"/>
       <use xlink:href="#DejaVuSans-2e" x="63.623047"/>
       <use xlink:href="#DejaVuSans-36" x="95.410156"/>
      </g>
     </g>
    </g>
    <g id="ytick_4">
     <g id="line2d_12">
      <g>
       <use xlink:href="#m9c0aad8122" x="57.6" y="165.399466" style="stroke: #000000; stroke-width: 0.8"/>
      </g>
     </g>
     <g id="text_13">
      <!-- 0.8 -->
      <g transform="translate(34.696875 169.198685) scale(0.1 -0.1)">
       <use xlink:href="#DejaVuSans-30"/>
       <use xlink:href="#DejaVuSans-2e" x="63.623047"/>
       <use xlink:href="#DejaVuSans-38" x="95.410156"/>
      </g>
     </g>
    </g>
    <g id="ytick_5">
     <g id="line2d_13">
      <g>
       <use xlink:href="#m9c0aad8122" x="57.6" y="122.591689" style="stroke: #000000; stroke-width: 0.8"/>
      </g>
     </g>
     <g id="text_14">
      <!-- 1.0 -->
      <g transform="translate(34.696875 126.390907) scale(0.1 -0.1)">
       <use xlink:href="#DejaVuSans-31"/>
       <use xlink:href="#DejaVuSans-2e" x="63.623047"/>
       <use xlink:href="#DejaVuSans-30" x="95.410156"/>
      </g>
     </g>
    </g>
    <g id="ytick_6">
     <g id="line2d_14">
      <g>
       <use xlink:href="#m9c0aad8122" x="57.6" y="79.783911" style="stroke: #000000; stroke-width: 0.8"/>
      </g>
     </g>
     <g id="text_15">
      <!-- 1.2 -->
      <g transform="translate(34.696875 83.58313) scale(0.1 -0.1)">
       <use xlink:href="#DejaVuSans-31"/>
       <use xlink:href="#DejaVuSans-2e" x="63.623047"/>
       <use xlink:href="#DejaVuSans-32" x="95.410156"/>
      </g>
     </g>
    </g>
    <g id="text_16">
     <!-- Spannung in V -->
     <g transform="translate(28.617187 210.945969) rotate(-90) scale(0.1 -0.1)">
      <defs>
       <path id="DejaVuSans-53" d="M 3425 4513 
L 3425 3897 
Q 3066 4069 2747 4153 
Q 2428 4238 2131 4238 
Q 1616 4238 1336 4038 
Q 1056 3838 1056 3469 
Q 1056 3159 1242 3001 
Q 1428 2844 1947 2747 
L 2328 2669 
Q 3034 2534 3370 2195 
Q 3706 1856 3706 1288 
Q 3706 609 3251 259 
Q 2797 -91 1919 -91 
Q 1588 -91 1214 -16 
Q 841 59 441 206 
L 441 856 
Q 825 641 1194 531 
Q 1563 422 1919 422 
Q 2459 422 2753 634 
Q 3047 847 3047 1241 
Q 3047 1584 2836 1778 
Q 2625 1972 2144 2069 
L 1759 2144 
Q 1053 2284 737 2584 
Q 422 2884 422 3419 
Q 422 4038 858 4394 
Q 1294 4750 2059 4750 
Q 2388 4750 2728 4690 
Q 3069 4631 3425 4513 
z
" transform="scale(0.015625)"/>
       <path id="DejaVuSans-70" d="M 1159 525 
L 1159 -1331 
L 581 -1331 
L 581 3500 
L 1159 3500 
L 1159 2969 
Q 1341 3281 1617 3432 
Q 1894 3584 2278 3584 
Q 2916 3584 3314 3078 
Q 3713 2572 3713 1747 
Q 3713 922 3314 415 
Q 2916 -91 2278 -91 
Q 1894 -91 1617 61 
Q 1341 213 1159 525 
z
M 3116 1747 
Q 3116 2381 2855 2742 
Q 2594 3103 2138 3103 
Q 1681 3103 1420 2742 
Q 1159 2381 1159 1747 
Q 1159 1113 1420 752 
Q 1681 391 2138 391 
Q 2594 391 2855 752 
Q 3116 1113 3116 1747 
z
" transform="scale(0.015625)"/>
       <path id="DejaVuSans-61" d="M 2194 1759 
Q 1497 1759 1228 1600 
Q 959 1441 959 1056 
Q 959 750 1161 570 
Q 1363 391 1709 391 
Q 2188 391 2477 730 
Q 2766 1069 2766 1631 
L 2766 1759 
L 2194 1759 
z
M 3341 1997 
L 3341 0 
L 2766 0 
L 2766 531 
Q 2569 213 2275 61 
Q 1981 -91 1556 -91 
Q 1019 -91 701 211 
Q 384 513 384 1019 
Q 384 1609 779 1909 
Q 1175 2209 1959 2209 
L 2766 2209 
L 2766 2266 
Q 2766 2663 2505 2880 
Q 2244 3097 1772 3097 
Q 1472 3097 1187 3025 
Q 903 2953 641 2809 
L 641 3341 
Q 956 3463 1253 3523 
Q 1550 3584 1831 3584 
Q 2591 3584 2966 3190 
Q 3341 2797 3341 1997 
z
" transform="scale(0.015625)"/>
       <path id="DejaVuSans-75" d="M 544 1381 
L 544 3500 
L 1119 3500 
L 1119 1403 
Q 1119 906 1312 657 
Q 1506 409 1894 409 
Q 2359 409 2629 706 
Q 2900 1003 2900 1516 
L 2900 3500 
L 3475 3500 
L 3475 0 
L 2900 0 
L 2900 538 
Q 2691 219 2414 64 
Q 2138 -91 1772 -91 
Q 1169 -91 856 284 
Q 544 659 544 1381 
z
M 1991 3584 
L 1991 3584 
z
" transform="scale(0.015625)"/>
       <path id="DejaVuSans-67" d="M 2906 1791 
Q 2906 2416 2648 2759 
Q 2391 3103 1925 3103 
Q 1463 3103 1205 2759 
Q 947 2416 947 1791 
Q 947 1169 1205 825 
Q 1463 481 1925 481 
Q 2391 481 2648 825 
Q 2906 1169 2906 1791 
z
M 3481 434 
Q 3481 -459 3084 -895 
Q 2688 -1331 1869 -1331 
Q 1566 -1331 1297 -1286 
Q 1028 -1241 775 -1147 
L 775 -588 
Q 1028 -725 1275 -790 
Q 1522 -856 1778 -856 
Q 2344 -856 2625 -561 
Q 2906 -266 2906 331 
L 2906 616 
Q 2728 306 2450 153 
Q 2172 0 1784 0 
Q 1141 0 747 490 
Q 353 981 353 1791 
Q 353 2603 747 3093 
Q 1141 3584 1784 3584 
Q 2172 3584 2450 3431 
Q 2728 3278 2906 2969 
L 2906 3500 
L 3481 3500 
L 3481 434 
z
" transform="scale(0.015625)"/>
       <path id="DejaVuSans-56" d="M 1831 0 
L 50 4666 
L 709 4666 
L 2188 738 
L 3669 4666 
L 4325 4666 
L 2547 0 
L 1831 0 
z
" transform="scale(0.015625)"/>
      </defs>
      <use xlink:href="#DejaVuSans-53"/>
      <use xlink:href="#DejaVuSans-70" x="63.476562"/>
      <use xlink:href="#DejaVuSans-61" x="126.953125"/>
      <use xlink:href="#DejaVuSans-6e" x="188.232422"/>
      <use xlink:href="#DejaVuSans-6e" x="251.611328"/>
      <use xlink:href="#DejaVuSans-75" x="314.990234"/>
      <use xlink:href="#DejaVuSans-6e" x="378.369141"/>
      <use xlink:href="#DejaVuSans-67" x="441.748047"/>
      <use xlink:href="#DejaVuSans-20" x="505.224609"/>
      <use xlink:href="#DejaVuSans-69" x="537.011719"/>
      <use xlink:href="#DejaVuSans-6e" x="564.794922"/>
      <use xlink:href="#DejaVuSans-20" x="628.173828"/>
      <use xlink:href="#DejaVuSans-56" x="659.960938"/>
     </g>
    </g>
    <g id="text_17">
     <!-- 1e−5 -->
     <g transform="translate(57.6 38.472) scale(0.1 -0.1)">
      <defs>
       <path id="DejaVuSans-2212" d="M 678 2272 
L 4684 2272 
L 4684 1741 
L 678 1741 
L 678 2272 
z
" transform="scale(0.015625)"/>
       <path id="DejaVuSans-35" d="M 691 4666 
L 3169 4666 
L 3169 4134 
L 1269 4134 
L 1269 2991 
Q 1406 3038 1543 3061 
Q 1681 3084 1819 3084 
Q 2600 3084 3056 2656 
Q 3513 2228 3513 1497 
Q 3513 744 3044 326 
Q 2575 -91 1722 -91 
Q 1428 -91 1123 -41 
Q 819 9 494 109 
L 494 744 
Q 775 591 1075 516 
Q 1375 441 1709 441 
Q 2250 441 2565 725 
Q 2881 1009 2881 1497 
Q 2881 1984 2565 2268 
Q 2250 2553 1709 2553 
Q 1456 2553 1204 2497 
Q 953 2441 691 2322 
L 691 4666 
z
" transform="scale(0.015625)"/>
      </defs>
      <use xlink:href="#DejaVuSans-31"/>
      <use xlink:href="#DejaVuSans-65" x="63.623047"/>
      <use xlink:href="#DejaVuSans-2212" x="125.146484"/>
      <use xlink:href="#DejaVuSans-35" x="208.935547"/>
     </g>
    </g>
   </g>
   <g id="line2d_15">
    <path d="M 73.832727 218.112963 
L 74.171262 218.112963 
L 74.284107 221.377934 
L 75.412555 221.377934 
L 75.5254 222.943307 
L 76.428158 222.943307 
L 76.541003 231.217537 
L 77.556606 231.217537 
L 77.669451 229.678961 
L 78.57221 229.678961 
L 78.685055 222.272424 
L 79.813503 222.272424 
L 79.926348 220.483401 
L 80.941951 220.483401 
L 81.054796 224.65778 
L 81.957554 224.65778 
L 82.070399 227.192236 
L 83.198847 227.192236 
L 83.311692 221.843062 
L 84.214451 221.843062 
L 84.327295 223.122223 
L 85.342899 223.122223 
L 85.455744 218.560219 
L 86.358502 218.560219 
L 86.471347 230.50192 
L 87.599795 230.50192 
L 87.71264 222.853861 
L 88.615399 222.853861 
L 88.728243 229.786302 
L 89.743847 229.786302 
L 89.856692 212.730998 
L 90.98514 212.730998 
L 91.097985 208.765329 
L 92.000743 208.765329 
L 92.113588 218.918028 
L 93.129191 218.918028 
L 93.242036 223.614191 
L 95.386088 223.703638 
L 95.498933 218.068229 
L 96.401691 218.068229 
L 96.514536 229.875749 
L 97.530139 229.875749 
L 97.642984 214.651227 
L 98.545743 214.651227 
L 98.658588 236.04786 
L 99.787036 236.04786 
L 99.899881 222.540786 
L 100.915484 222.540786 
L 101.028329 218.604953 
L 101.931087 218.604953 
L 102.043932 220.751763 
L 103.17238 220.751763 
L 103.285225 219.803592 
L 104.187984 219.803592 
L 104.413673 220.259774 
L 105.316432 220.259774 
L 105.429277 232.067293 
L 106.332035 232.067293 
L 106.44488 210.375458 
L 107.573328 210.375458 
L 107.686173 213.058992 
L 108.588932 213.058992 
L 108.701776 219.141634 
L 109.71738 219.141634 
L 109.830225 220.170327 
L 110.958673 220.170327 
L 111.071518 222.272424 
L 111.974276 222.272424 
L 112.087121 225.582107 
L 113.102724 225.582107 
L 113.215569 227.415864 
L 114.118328 227.415864 
L 114.231173 217.039558 
L 115.359621 217.039558 
L 115.472466 225.805735 
L 116.375224 225.805735 
L 116.488069 206.976327 
L 117.503672 206.976327 
L 117.616517 219.231103 
L 118.519276 219.231103 
L 118.632121 218.247123 
L 119.760569 218.247123 
L 119.873414 229.696855 
L 120.889017 229.696855 
L 121.001862 226.700246 
L 121.90462 226.700246 
L 122.13031 226.566087 
L 123.145913 226.566087 
L 123.258758 229.607408 
L 124.161517 229.607408 
L 124.274362 226.923874 
L 125.289965 226.923874 
L 125.40281 214.400759 
L 126.305568 214.400759 
L 126.418413 217.919151 
L 127.546861 217.919151 
L 127.659706 224.106181 
L 128.562465 224.106181 
L 128.67531 229.249599 
L 129.690913 229.249599 
L 129.803758 220.438689 
L 130.932206 220.438689 
L 131.045051 214.177131 
L 131.947809 214.177131 
L 132.060654 223.614191 
L 133.076257 223.614191 
L 133.189102 221.735721 
L 134.091861 221.735721 
L 134.204706 226.342459 
L 135.333154 226.342459 
L 135.445999 220.42377 
L 136.348757 220.42377 
L 136.461602 228.220929 
L 137.477205 228.220929 
L 137.59005 223.166935 
L 138.492809 223.166935 
L 138.605654 221.735721 
L 139.734102 221.735721 
L 139.846947 219.857252 
L 140.86255 219.857252 
L 140.975395 227.684205 
L 141.878153 227.684205 
L 142.103843 227.058055 
L 143.119446 227.058055 
L 143.232291 224.920171 
L 144.13505 224.920171 
L 144.247895 227.639492 
L 145.263498 227.639492 
L 145.376343 214.266578 
L 146.279101 214.266578 
L 146.391946 220.751763 
L 147.520394 220.751763 
L 147.633239 226.476619 
L 148.535998 226.476619 
L 148.648843 218.980634 
L 149.664446 218.980634 
L 149.777291 218.247123 
L 150.905739 218.247123 
L 151.018584 225.358501 
L 151.921342 225.358501 
L 152.034187 226.029363 
L 153.049791 226.029363 
L 153.27548 226.387172 
L 154.065394 226.387172 
L 154.178239 236.405669 
L 155.306687 236.405669 
L 155.419532 217.93407 
L 156.32229 217.93407 
L 156.435135 220.483401 
L 157.450738 220.483401 
L 157.563583 212.719076 
L 158.466342 212.719076 
L 158.579187 219.096922 
L 159.707635 219.096922 
L 159.82048 232.604017 
L 160.836083 232.604017 
L 160.948928 225.090118 
L 161.851686 225.090118 
L 161.964531 226.074097 
L 163.092979 226.074097 
L 163.205824 224.24034 
L 164.108583 224.24034 
L 164.221428 232.335655 
L 165.237031 232.335655 
L 165.349876 225.98465 
L 166.252634 225.98465 
L 166.365479 219.633624 
L 167.493927 219.633624 
L 167.606772 211.40415 
L 168.509531 211.40415 
L 168.622376 213.792481 
L 169.637979 213.792481 
L 169.750824 209.972936 
L 170.879272 209.972936 
L 170.992117 205.455645 
L 171.894875 205.455645 
L 172.00772 217.919151 
L 173.023324 217.919151 
L 173.136168 205.634561 
L 174.038927 205.634561 
L 174.151772 194.363744 
L 175.28022 194.363744 
L 175.393065 193.290339 
L 176.295823 193.290339 
L 176.408668 180.85667 
L 177.424271 180.85667 
L 177.537116 174.613006 
L 178.439875 174.613006 
L 178.55272 171.240673 
L 179.681168 171.240673 
L 179.794013 164.352966 
L 180.809616 164.352966 
L 181.035306 163.950444 
L 181.825219 163.950444 
L 181.938064 148.430699 
L 183.066512 148.430699 
L 183.179357 140.943661 
L 184.082116 140.943661 
L 184.194961 142.079694 
L 185.210564 142.079694 
L 185.323409 120.119539 
L 186.226167 120.119539 
L 186.339012 112.605704 
L 187.46746 112.605704 
L 187.580305 116.541451 
L 188.483064 116.541451 
L 188.595909 114.752514 
L 189.611512 114.752514 
L 189.837202 115.110173 
L 190.852805 115.110173 
L 190.96565 98.025161 
L 191.868408 98.025161 
L 192.094098 97.801491 
L 192.996857 97.801491 
L 193.109701 90.421858 
L 194.01246 90.421858 
L 194.125305 89.482441 
L 195.253753 89.482441 
L 195.366598 75.975517 
L 196.269356 75.975517 
L 196.382201 71.368758 
L 197.397805 71.368758 
L 197.510649 67.844394 
L 198.413408 67.844394 
L 198.526253 73.068227 
L 199.654701 73.068227 
L 199.767546 53.568 
L 200.783149 53.568 
L 200.895994 58.130025 
L 201.798752 58.130025 
L 201.911597 64.391518 
L 203.040046 64.391518 
L 203.15289 76.216953 
L 204.055649 76.216953 
L 204.168494 83.93648 
L 205.184097 83.93648 
L 205.296942 79.553391 
L 206.1997 79.553391 
L 206.312545 83.713023 
L 207.440993 83.713023 
L 207.553838 89.527389 
L 208.456597 89.527389 
L 208.569442 94.491807 
L 209.585045 94.491807 
L 209.69789 111.487565 
L 210.826338 111.487565 
L 210.939183 114.305173 
L 211.841941 114.305173 
L 211.954786 119.0014 
L 212.97039 119.0014 
L 213.083234 125.039309 
L 213.985993 125.039309 
L 214.098838 127.320279 
L 215.227286 127.320279 
L 215.340131 125.620703 
L 216.242889 125.620703 
L 216.355734 150.264455 
L 217.371338 150.264455 
L 217.597027 150.890583 
L 218.386941 150.890583 
L 218.499786 154.200288 
L 219.628234 154.200288 
L 219.741079 165.202743 
L 220.756682 165.202743 
L 220.869527 158.762291 
L 221.772286 158.762291 
L 221.88513 172.224653 
L 223.013579 172.224653 
L 223.126423 174.577197 
L 224.029182 174.577197 
L 224.142027 177.412805 
L 225.15763 177.412805 
L 225.270475 184.703056 
L 226.173233 184.703056 
L 226.286078 198.061051 
L 227.414526 198.061051 
L 227.527371 194.989893 
L 228.43013 194.989893 
L 228.542975 203.595091 
L 229.558578 203.595091 
L 229.671423 213.685141 
L 230.799871 213.685141 
L 230.912716 214.982195 
L 231.815474 214.982195 
L 231.928319 216.771196 
L 232.943923 216.771196 
L 233.056767 212.656449 
L 233.959526 212.656449 
L 234.072371 219.901986 
L 235.200819 219.901986 
L 235.313664 229.786323 
L 236.216422 229.786323 
L 236.329267 221.139388 
L 237.344871 221.139388 
L 237.457715 225.993597 
L 238.360474 225.993597 
L 238.473319 239.581192 
L 239.601767 239.581192 
L 239.714612 241.236013 
L 240.730215 241.236013 
L 240.84306 235.15337 
L 241.745819 235.15337 
L 241.858663 221.512094 
L 242.987112 221.512094 
L 243.099956 226.315619 
L 244.002715 226.315619 
L 244.11556 221.512094 
L 245.131163 221.512094 
L 245.244008 217.322818 
L 246.146767 217.322818 
L 246.259611 219.320549 
L 247.38806 219.320549 
L 247.500904 227.639492 
L 248.403663 227.639492 
L 248.516508 239.447011 
L 249.532111 239.447011 
L 249.644956 232.02258 
L 250.773404 232.02258 
L 250.886249 233.990497 
L 251.789007 233.990497 
L 251.901852 233.2749 
L 252.917456 233.2749 
L 253.030301 236.718765 
L 253.933059 236.718765 
L 254.045904 232.946907 
L 255.174352 232.946907 
L 255.287197 230.993909 
L 256.189955 230.993909 
L 256.3028 232.246208 
L 257.318404 232.246208 
L 257.431248 230.323026 
L 258.334007 230.323026 
L 258.446852 235.868966 
L 259.5753 235.868966 
L 259.688145 244.098462 
L 260.703748 244.098462 
L 260.816593 243.382844 
L 261.719352 243.382844 
L 261.832196 232.156761 
L 262.960645 232.156761 
L 263.073489 233.677422 
L 263.976248 233.677422 
L 264.089093 247.184517 
L 265.104696 247.184517 
L 265.217541 229.741589 
L 266.1203 229.741589 
L 266.233144 243.874834 
L 267.361593 243.874834 
L 267.474437 242.980323 
L 268.377196 242.980323 
L 268.490041 241.522268 
L 269.505644 241.522268 
L 269.618489 231.172803 
L 270.746937 231.172803 
L 270.859782 234.214146 
L 271.762541 234.214146 
L 271.875385 238.96994 
L 272.890989 238.96994 
L 273.003834 232.380389 
L 273.906592 232.380389 
L 274.019437 233.185432 
L 275.147885 233.185432 
L 275.26073 235.332264 
L 276.163488 235.332264 
L 276.276333 228.355088 
L 277.291937 228.355088 
L 277.404781 236.092594 
L 278.53323 236.092594 
L 278.646075 232.380389 
L 279.548833 232.380389 
L 279.661678 234.393018 
L 280.677281 234.393018 
L 280.790126 250.583647 
L 281.692885 250.583647 
L 281.805729 230.919338 
L 282.934178 230.919338 
L 283.047022 239.23233 
L 283.949781 239.23233 
L 284.062626 247.09507 
L 285.078229 247.09507 
L 285.303919 246.4689 
L 286.319522 246.4689 
L 286.432367 238.910309 
L 287.335126 238.910309 
L 287.44797 234.258859 
L 288.463574 234.258859 
L 288.576419 245.663835 
L 289.479177 245.663835 
L 289.592022 236.441456 
L 290.72047 236.441456 
L 290.833315 230.323004 
L 291.848918 230.323004 
L 291.961763 234.482486 
L 292.864522 234.482486 
L 292.977367 246.290006 
L 294.105815 246.290006 
L 294.21866 252.149042 
L 295.121418 252.149042 
L 295.234263 245.279207 
L 296.249866 245.279207 
L 296.362711 241.95163 
L 297.491159 241.95163 
L 297.604004 237.944223 
L 298.506763 237.944223 
L 298.619608 244.098462 
L 299.635211 244.098462 
L 299.748056 241.53419 
L 300.650814 241.53419 
L 300.763659 245.887463 
L 301.892107 245.887463 
L 302.004952 246.737261 
L 302.907711 246.737261 
L 303.020556 251.030903 
L 304.036159 251.030903 
L 304.149004 231.360644 
L 305.051762 231.360644 
L 305.164607 258.544781 
L 306.293055 258.544781 
L 306.4059 257.739716 
L 307.421503 257.739716 
L 307.534348 245.529675 
L 308.437107 245.529675 
L 308.549952 253.103185 
L 309.6784 253.103185 
L 309.791245 251.326084 
L 310.694003 251.326084 
L 310.806848 245.708569 
L 311.822451 245.708569 
L 311.935296 248.356316 
L 312.838055 248.356316 
L 312.9509 220.259795 
L 314.079348 220.259795 
L 314.192193 241.146566 
L 315.094951 241.146566 
L 315.207796 262.668476 
L 316.223399 262.668476 
L 316.336244 250.061842 
L 317.464692 250.061842 
L 317.577537 241.45964 
L 318.480296 241.45964 
L 318.593141 258.768409 
L 319.608744 258.768409 
L 319.721589 250.717828 
L 320.624347 250.717828 
L 320.737192 252.104308 
L 321.86564 252.104308 
L 321.978485 254.787842 
L 322.881244 254.787842 
L 322.994089 261.675549 
L 324.009692 261.675549 
L 324.122537 253.973831 
L 325.025295 253.973831 
L 325.13814 247.989582 
L 326.266588 247.989582 
L 326.379433 256.174322 
L 327.395036 256.174322 
L 327.507881 253.699518 
L 328.41064 253.699518 
L 328.523485 237.344914 
L 329.651933 237.344914 
L 329.764778 250.896722 
L 330.667536 250.896722 
L 330.780381 251.835946 
L 331.795984 251.835946 
L 331.908829 253.982777 
L 332.811588 253.982777 
L 333.037277 254.251139 
L 334.052881 254.251139 
L 334.165726 249.062987 
L 335.068484 249.062987 
L 335.181329 257.83811 
L 336.196932 257.83811 
L 336.309777 256.711024 
L 337.438225 256.711024 
L 337.55107 248.248975 
L 338.453829 248.248975 
L 338.566674 268.652725 
L 339.582277 268.652725 
L 339.695122 258.097525 
L 340.59788 258.097525 
L 340.710725 260.646878 
L 341.839173 260.646878 
L 341.952018 255.50346 
L 342.854777 255.50346 
L 342.967622 249.286614 
L 343.983225 249.286614 
L 344.09607 252.685745 
L 344.998828 252.685745 
L 345.111673 258.589494 
L 346.240121 258.589494 
L 346.352966 254.653661 
L 347.36857 254.653661 
L 347.594259 254.295852 
L 348.384173 254.295852 
L 348.497018 257.739716 
L 349.625466 257.739716 
L 349.738311 248.606784 
L 350.641069 248.606784 
L 350.753914 265.477222 
L 351.769517 265.477222 
L 351.882362 257.113567 
L 352.785121 257.113567 
L 352.897966 270.3523 
L 354.026414 270.3523 
L 354.139259 248.928806 
L 355.042017 248.928806 
L 355.154862 265.10152 
L 356.170465 265.10152 
L 356.28331 266.908436 
L 357.411758 266.908436 
L 357.524603 268.831618 
L 358.427362 268.831618 
L 358.540207 260.915219 
L 359.55581 260.915219 
L 359.668655 272.678026 
L 360.571413 272.678026 
L 360.684258 270.665375 
L 361.812706 270.665375 
L 361.925551 269.949779 
L 362.82831 269.949779 
L 362.941155 266.595361 
L 363.956758 266.595361 
L 364.069603 258.857856 
L 364.972361 258.857856 
L 365.085206 277.642551 
L 366.213654 277.642551 
L 366.326499 265.477222 
L 367.342103 265.477222 
L 367.454947 270.575928 
L 368.357706 270.575928 
L 368.470551 271.470418 
L 369.598999 271.470418 
L 369.711844 265.888691 
L 370.614602 265.888691 
L 370.727447 271.515152 
L 371.743051 271.515152 
L 371.855895 283.009597 
L 372.758654 283.009597 
L 372.871499 278.566856 
L 373.999947 278.566856 
L 374.112792 264.44853 
L 375.01555 264.44853 
L 375.128395 283.456853 
L 376.143998 283.456853 
L 376.256843 274.475974 
L 377.159602 274.475974 
L 377.272447 266.46118 
L 378.400895 266.46118 
L 378.51374 269.547236 
L 379.529343 269.547236 
L 379.642188 276.479677 
L 380.544946 276.479677 
L 380.657791 277.195295 
L 381.786239 277.195295 
L 381.899084 278.53704 
L 382.801843 278.53704 
L 382.914688 277.135642 
L 383.930291 277.135642 
L 384.043136 274.547548 
L 384.945894 274.547548 
L 385.058739 295.488 
L 386.187187 295.488 
L 386.300032 290.299847 
L 387.315636 290.299847 
L 387.42848 276.256071 
L 388.331239 276.256071 
L 388.444084 272.409664 
L 389.572532 272.409664 
L 389.685377 277.159508 
L 390.588135 277.159508 
L 390.70098 279.073764 
L 391.716584 279.073764 
L 391.829428 280.200829 
L 392.732187 280.200829 
L 392.845032 283.188491 
L 393.97348 283.188491 
L 394.086325 278.179253 
L 394.989083 278.179253 
L 395.101928 285.424769 
L 396.117532 285.424769 
L 396.230376 286.855983 
L 397.358825 286.855983 
L 397.471669 282.92015 
L 398.374428 282.92015 
L 398.487273 247.542326 
L 398.487273 247.542326 
" clip-path="url(#p985eb9436b)" style="fill: none; stroke: #1f77b4; stroke-width: 1.5; stroke-linecap: square"/>
   </g>
   <g id="patch_3">
    <path d="M 57.6 307.584 
L 57.6 41.472 
" style="fill: none; stroke: #000000; stroke-width: 0.8; stroke-linejoin: miter; stroke-linecap: square"/>
   </g>
   <g id="patch_4">
    <path d="M 414.72 307.584 
L 414.72 41.472 
" style="fill: none; stroke: #000000; stroke-width: 0.8; stroke-linejoin: miter; stroke-linecap: square"/>
   </g>
   <g id="patch_5">
    <path d="M 57.6 307.584 
L 414.72 307.584 
" style="fill: none; stroke: #000000; stroke-width: 0.8; stroke-linejoin: miter; stroke-linecap: square"/>
   </g>
   <g id="patch_6">
    <path d="M 57.6 41.472 
L 414.72 41.472 
" style="fill: none; stroke: #000000; stroke-width: 0.8; stroke-linejoin: miter; stroke-linecap: square"/>
   </g>
   <g id="legend_1">
    <g id="patch_7">
     <path d="M 322.004375 64.150125 
L 407.72 64.150125 
Q 409.72 64.150125 409.72 62.150125 
L 409.72 48.472 
Q 409.72 46.472 407.72 46.472 
L 322.004375 46.472 
Q 320.004375 46.472 320.004375 48.472 
L 320.004375 62.150125 
Q 320.004375 64.150125 322.004375 64.150125 
z
" style="fill: #ffffff; opacity: 0.8; stroke: #cccccc; stroke-linejoin: miter"/>
    </g>
    <g id="line2d_16">
     <path d="M 324.004375 54.570438 
L 334.004375 54.570438 
L 344.004375 54.570438 
" style="fill: none; stroke: #1f77b4; stroke-width: 1.5; stroke-linecap: square"/>
    </g>
    <g id="text_18">
     <!-- Messwerte -->
     <g transform="translate(352.004375 58.070438) scale(0.1 -0.1)">
      <defs>
       <path id="DejaVuSans-4d" d="M 628 4666 
L 1569 4666 
L 2759 1491 
L 3956 4666 
L 4897 4666 
L 4897 0 
L 4281 0 
L 4281 4097 
L 3078 897 
L 2444 897 
L 1241 4097 
L 1241 0 
L 628 0 
L 628 4666 
z
" transform="scale(0.015625)"/>
       <path id="DejaVuSans-77" d="M 269 3500 
L 844 3500 
L 1563 769 
L 2278 3500 
L 2956 3500 
L 3675 769 
L 4391 3500 
L 4966 3500 
L 4050 0 
L 3372 0 
L 2619 2869 
L 1863 0 
L 1184 0 
L 269 3500 
z
" transform="scale(0.015625)"/>
       <path id="DejaVuSans-72" d="M 2631 2963 
Q 2534 3019 2420 3045 
Q 2306 3072 2169 3072 
Q 1681 3072 1420 2755 
Q 1159 2438 1159 1844 
L 1159 0 
L 581 0 
L 581 3500 
L 1159 3500 
L 1159 2956 
Q 1341 3275 1631 3429 
Q 1922 3584 2338 3584 
Q 2397 3584 2469 3576 
Q 2541 3569 2628 3553 
L 2631 2963 
z
" transform="scale(0.015625)"/>
      </defs>
      <use xlink:href="#DejaVuSans-4d"/>
      <use xlink:href="#DejaVuSans-65" x="86.279297"/>
      <use xlink:href="#DejaVuSans-73" x="147.802734"/>
      <use xlink:href="#DejaVuSans-73" x="199.902344"/>
      <use xlink:href="#DejaVuSans-77" x="252.001953"/>
      <use xlink:href="#DejaVuSans-65" x="333.789062"/>
      <use xlink:href="#DejaVuSans-72" x="395.3125"/>
      <use xlink:href="#DejaVuSans-74" x="436.425781"/>
      <use xlink:href="#DejaVuSans-65" x="475.634766"/>
     </g>
    </g>
   </g>
  </g>
 </g>
 <defs>
  <clipPath id="p985eb9436b">
   <rect x="57.6" y="41.472" width="357.12" height="266.112"/>
  </clipPath>
 </defs>
</svg>
