<?xml version="1.0" encoding="utf-8" standalone="no"?>
<!DOCTYPE svg PUBLIC "-//W3C//DTD SVG 1.1//EN"
  "http://www.w3.org/Graphics/SVG/1.1/DTD/svg11.dtd">
<svg xmlns:xlink="http://www.w3.org/1999/xlink" width="410.492857pt" height="321.466687pt" viewBox="0 0 410.492857 321.466687" xmlns="http://www.w3.org/2000/svg" version="1.1">
 <metadata>
  <rdf:RDF xmlns:dc="http://purl.org/dc/elements/1.1/" xmlns:cc="http://creativecommons.org/ns#" xmlns:rdf="http://www.w3.org/1999/02/22-rdf-syntax-ns#">
   <cc:Work>
    <dc:type rdf:resource="http://purl.org/dc/dcmitype/StillImage"/>
    <dc:date>2024-07-12T18:08:20.052469</dc:date>
    <dc:format>image/svg+xml</dc:format>
    <dc:creator>
     <cc:Agent>
      <dc:title>Matplotlib v3.8.2, https://matplotlib.org/</dc:title>
     </cc:Agent>
    </dc:creator>
   </cc:Work>
  </rdf:RDF>
 </metadata>
 <defs>
  <style type="text/css">*{stroke-linejoin: round; stroke-linecap: butt}</style>
 </defs>
 <g id="figure_1">
  <g id="patch_1">
   <path d="M 0 321.466687 
L 410.492857 321.466687 
L 410.492857 0 
L 0 0 
z
" style="fill: #ffffff"/>
  </g>
  <g id="axes_1">
   <g id="patch_2">
    <path d="M 43.78125 283.910437 
L 400.90125 283.910437 
L 400.90125 17.798437 
L 43.78125 17.798437 
z
" style="fill: #ffffff"/>
   </g>
   <g id="matplotlib.axis_1">
    <g id="xtick_1">
     <g id="line2d_1">
      <defs>
       <path id="m0755cb5c65" d="M 0 0 
L 0 3.5 
" style="stroke: #000000; stroke-width: 0.8"/>
      </defs>
      <g>
       <use xlink:href="#m0755cb5c65" x="60.009964" y="283.910437" style="stroke: #000000; stroke-width: 0.8"/>
      </g>
     </g>
     <g id="text_1">
      <!-- 0 -->
      <g transform="translate(56.828714 298.508875) scale(0.1 -0.1)">
       <defs>
        <path id="DejaVuSans-30" d="M 2034 4250 
Q 1547 4250 1301 3770 
Q 1056 3291 1056 2328 
Q 1056 1369 1301 889 
Q 1547 409 2034 409 
Q 2525 409 2770 889 
Q 3016 1369 3016 2328 
Q 3016 3291 2770 3770 
Q 2525 4250 2034 4250 
z
M 2034 4750 
Q 2819 4750 3233 4129 
Q 3647 3509 3647 2328 
Q 3647 1150 3233 529 
Q 2819 -91 2034 -91 
Q 1250 -91 836 529 
Q 422 1150 422 2328 
Q 422 3509 836 4129 
Q 1250 4750 2034 4750 
z
" transform="scale(0.015625)"/>
       </defs>
       <use xlink:href="#DejaVuSans-30"/>
      </g>
     </g>
    </g>
    <g id="xtick_2">
     <g id="line2d_2">
      <g>
       <use xlink:href="#m0755cb5c65" x="115.633155" y="283.910437" style="stroke: #000000; stroke-width: 0.8"/>
      </g>
     </g>
     <g id="text_2">
      <!-- 50 -->
      <g transform="translate(109.270655 298.508875) scale(0.1 -0.1)">
       <defs>
        <path id="DejaVuSans-35" d="M 691 4666 
L 3169 4666 
L 3169 4134 
L 1269 4134 
L 1269 2991 
Q 1406 3038 1543 3061 
Q 1681 3084 1819 3084 
Q 2600 3084 3056 2656 
Q 3513 2228 3513 1497 
Q 3513 744 3044 326 
Q 2575 -91 1722 -91 
Q 1428 -91 1123 -41 
Q 819 9 494 109 
L 494 744 
Q 775 591 1075 516 
Q 1375 441 1709 441 
Q 2250 441 2565 725 
Q 2881 1009 2881 1497 
Q 2881 1984 2565 2268 
Q 2250 2553 1709 2553 
Q 1456 2553 1204 2497 
Q 953 2441 691 2322 
L 691 4666 
z
" transform="scale(0.015625)"/>
       </defs>
       <use xlink:href="#DejaVuSans-35"/>
       <use xlink:href="#DejaVuSans-30" x="63.623047"/>
      </g>
     </g>
    </g>
    <g id="xtick_3">
     <g id="line2d_3">
      <g>
       <use xlink:href="#m0755cb5c65" x="171.256345" y="283.910437" style="stroke: #000000; stroke-width: 0.8"/>
      </g>
     </g>
     <g id="text_3">
      <!-- 100 -->
      <g transform="translate(161.712595 298.508875) scale(0.1 -0.1)">
       <defs>
        <path id="DejaVuSans-31" d="M 794 531 
L 1825 531 
L 1825 4091 
L 703 3866 
L 703 4441 
L 1819 4666 
L 2450 4666 
L 2450 531 
L 3481 531 
L 3481 0 
L 794 0 
L 794 531 
z
" transform="scale(0.015625)"/>
       </defs>
       <use xlink:href="#DejaVuSans-31"/>
       <use xlink:href="#DejaVuSans-30" x="63.623047"/>
       <use xlink:href="#DejaVuSans-30" x="127.246094"/>
      </g>
     </g>
    </g>
    <g id="xtick_4">
     <g id="line2d_4">
      <g>
       <use xlink:href="#m0755cb5c65" x="226.879536" y="283.910437" style="stroke: #000000; stroke-width: 0.8"/>
      </g>
     </g>
     <g id="text_4">
      <!-- 150 -->
      <g transform="translate(217.335786 298.508875) scale(0.1 -0.1)">
       <use xlink:href="#DejaVuSans-31"/>
       <use xlink:href="#DejaVuSans-35" x="63.623047"/>
       <use xlink:href="#DejaVuSans-30" x="127.246094"/>
      </g>
     </g>
    </g>
    <g id="xtick_5">
     <g id="line2d_5">
      <g>
       <use xlink:href="#m0755cb5c65" x="282.502726" y="283.910437" style="stroke: #000000; stroke-width: 0.8"/>
      </g>
     </g>
     <g id="text_5">
      <!-- 200 -->
      <g transform="translate(272.958976 298.508875) scale(0.1 -0.1)">
       <defs>
        <path id="DejaVuSans-32" d="M 1228 531 
L 3431 531 
L 3431 0 
L 469 0 
L 469 531 
Q 828 903 1448 1529 
Q 2069 2156 2228 2338 
Q 2531 2678 2651 2914 
Q 2772 3150 2772 3378 
Q 2772 3750 2511 3984 
Q 2250 4219 1831 4219 
Q 1534 4219 1204 4116 
Q 875 4013 500 3803 
L 500 4441 
Q 881 4594 1212 4672 
Q 1544 4750 1819 4750 
Q 2544 4750 2975 4387 
Q 3406 4025 3406 3419 
Q 3406 3131 3298 2873 
Q 3191 2616 2906 2266 
Q 2828 2175 2409 1742 
Q 1991 1309 1228 531 
z
" transform="scale(0.015625)"/>
       </defs>
       <use xlink:href="#DejaVuSans-32"/>
       <use xlink:href="#DejaVuSans-30" x="63.623047"/>
       <use xlink:href="#DejaVuSans-30" x="127.246094"/>
      </g>
     </g>
    </g>
    <g id="xtick_6">
     <g id="line2d_6">
      <g>
       <use xlink:href="#m0755cb5c65" x="338.125917" y="283.910437" style="stroke: #000000; stroke-width: 0.8"/>
      </g>
     </g>
     <g id="text_6">
      <!-- 250 -->
      <g transform="translate(328.582167 298.508875) scale(0.1 -0.1)">
       <use xlink:href="#DejaVuSans-32"/>
       <use xlink:href="#DejaVuSans-35" x="63.623047"/>
       <use xlink:href="#DejaVuSans-30" x="127.246094"/>
      </g>
     </g>
    </g>
    <g id="xtick_7">
     <g id="line2d_7">
      <g>
       <use xlink:href="#m0755cb5c65" x="393.749107" y="283.910437" style="stroke: #000000; stroke-width: 0.8"/>
      </g>
     </g>
     <g id="text_7">
      <!-- 300 -->
      <g transform="translate(384.205357 298.508875) scale(0.1 -0.1)">
       <defs>
        <path id="DejaVuSans-33" d="M 2597 2516 
Q 3050 2419 3304 2112 
Q 3559 1806 3559 1356 
Q 3559 666 3084 287 
Q 2609 -91 1734 -91 
Q 1441 -91 1130 -33 
Q 819 25 488 141 
L 488 750 
Q 750 597 1062 519 
Q 1375 441 1716 441 
Q 2309 441 2620 675 
Q 2931 909 2931 1356 
Q 2931 1769 2642 2001 
Q 2353 2234 1838 2234 
L 1294 2234 
L 1294 2753 
L 1863 2753 
Q 2328 2753 2575 2939 
Q 2822 3125 2822 3475 
Q 2822 3834 2567 4026 
Q 2313 4219 1838 4219 
Q 1578 4219 1281 4162 
Q 984 4106 628 3988 
L 628 4550 
Q 988 4650 1302 4700 
Q 1616 4750 1894 4750 
Q 2613 4750 3031 4423 
Q 3450 4097 3450 3541 
Q 3450 3153 3228 2886 
Q 3006 2619 2597 2516 
z
" transform="scale(0.015625)"/>
       </defs>
       <use xlink:href="#DejaVuSans-33"/>
       <use xlink:href="#DejaVuSans-30" x="63.623047"/>
       <use xlink:href="#DejaVuSans-30" x="127.246094"/>
      </g>
     </g>
    </g>
    <g id="text_8">
     <!-- Zeit in s -->
     <g transform="translate(202.149844 312.187) scale(0.1 -0.1)">
      <defs>
       <path id="DejaVuSans-5a" d="M 359 4666 
L 4025 4666 
L 4025 4184 
L 1075 531 
L 4097 531 
L 4097 0 
L 288 0 
L 288 481 
L 3238 4134 
L 359 4134 
L 359 4666 
z
" transform="scale(0.015625)"/>
       <path id="DejaVuSans-65" d="M 3597 1894 
L 3597 1613 
L 953 1613 
Q 991 1019 1311 708 
Q 1631 397 2203 397 
Q 2534 397 2845 478 
Q 3156 559 3463 722 
L 3463 178 
Q 3153 47 2828 -22 
Q 2503 -91 2169 -91 
Q 1331 -91 842 396 
Q 353 884 353 1716 
Q 353 2575 817 3079 
Q 1281 3584 2069 3584 
Q 2775 3584 3186 3129 
Q 3597 2675 3597 1894 
z
M 3022 2063 
Q 3016 2534 2758 2815 
Q 2500 3097 2075 3097 
Q 1594 3097 1305 2825 
Q 1016 2553 972 2059 
L 3022 2063 
z
" transform="scale(0.015625)"/>
       <path id="DejaVuSans-69" d="M 603 3500 
L 1178 3500 
L 1178 0 
L 603 0 
L 603 3500 
z
M 603 4863 
L 1178 4863 
L 1178 4134 
L 603 4134 
L 603 4863 
z
" transform="scale(0.015625)"/>
       <path id="DejaVuSans-74" d="M 1172 4494 
L 1172 3500 
L 2356 3500 
L 2356 3053 
L 1172 3053 
L 1172 1153 
Q 1172 725 1289 603 
Q 1406 481 1766 481 
L 2356 481 
L 2356 0 
L 1766 0 
Q 1100 0 847 248 
Q 594 497 594 1153 
L 594 3053 
L 172 3053 
L 172 3500 
L 594 3500 
L 594 4494 
L 1172 4494 
z
" transform="scale(0.015625)"/>
       <path id="DejaVuSans-20" transform="scale(0.015625)"/>
       <path id="DejaVuSans-6e" d="M 3513 2113 
L 3513 0 
L 2938 0 
L 2938 2094 
Q 2938 2591 2744 2837 
Q 2550 3084 2163 3084 
Q 1697 3084 1428 2787 
Q 1159 2491 1159 1978 
L 1159 0 
L 581 0 
L 581 3500 
L 1159 3500 
L 1159 2956 
Q 1366 3272 1645 3428 
Q 1925 3584 2291 3584 
Q 2894 3584 3203 3211 
Q 3513 2838 3513 2113 
z
" transform="scale(0.015625)"/>
       <path id="DejaVuSans-73" d="M 2834 3397 
L 2834 2853 
Q 2591 2978 2328 3040 
Q 2066 3103 1784 3103 
Q 1356 3103 1142 2972 
Q 928 2841 928 2578 
Q 928 2378 1081 2264 
Q 1234 2150 1697 2047 
L 1894 2003 
Q 2506 1872 2764 1633 
Q 3022 1394 3022 966 
Q 3022 478 2636 193 
Q 2250 -91 1575 -91 
Q 1294 -91 989 -36 
Q 684 19 347 128 
L 347 722 
Q 666 556 975 473 
Q 1284 391 1588 391 
Q 1994 391 2212 530 
Q 2431 669 2431 922 
Q 2431 1156 2273 1281 
Q 2116 1406 1581 1522 
L 1381 1569 
Q 847 1681 609 1914 
Q 372 2147 372 2553 
Q 372 3047 722 3315 
Q 1072 3584 1716 3584 
Q 2034 3584 2315 3537 
Q 2597 3491 2834 3397 
z
" transform="scale(0.015625)"/>
      </defs>
      <use xlink:href="#DejaVuSans-5a"/>
      <use xlink:href="#DejaVuSans-65" x="68.505859"/>
      <use xlink:href="#DejaVuSans-69" x="130.029297"/>
      <use xlink:href="#DejaVuSans-74" x="157.8125"/>
      <use xlink:href="#DejaVuSans-20" x="197.021484"/>
      <use xlink:href="#DejaVuSans-69" x="228.808594"/>
      <use xlink:href="#DejaVuSans-6e" x="256.591797"/>
      <use xlink:href="#DejaVuSans-20" x="319.970703"/>
      <use xlink:href="#DejaVuSans-73" x="351.757812"/>
     </g>
    </g>
   </g>
   <g id="matplotlib.axis_2">
    <g id="ytick_1">
     <g id="line2d_8">
      <defs>
       <path id="m041a27c7b2" d="M 0 0 
L -3.5 0 
" style="stroke: #000000; stroke-width: 0.8"/>
      </defs>
      <g>
       <use xlink:href="#m041a27c7b2" x="43.78125" y="270.149236" style="stroke: #000000; stroke-width: 0.8"/>
      </g>
     </g>
     <g id="text_9">
      <!-- 0.2 -->
      <g transform="translate(20.878125 273.948455) scale(0.1 -0.1)">
       <defs>
        <path id="DejaVuSans-2e" d="M 684 794 
L 1344 794 
L 1344 0 
L 684 0 
L 684 794 
z
" transform="scale(0.015625)"/>
       </defs>
       <use xlink:href="#DejaVuSans-30"/>
       <use xlink:href="#DejaVuSans-2e" x="63.623047"/>
       <use xlink:href="#DejaVuSans-32" x="95.410156"/>
      </g>
     </g>
    </g>
    <g id="ytick_2">
     <g id="line2d_9">
      <g>
       <use xlink:href="#m041a27c7b2" x="43.78125" y="227.341459" style="stroke: #000000; stroke-width: 0.8"/>
      </g>
     </g>
     <g id="text_10">
      <!-- 0.4 -->
      <g transform="translate(20.878125 231.140678) scale(0.1 -0.1)">
       <defs>
        <path id="DejaVuSans-34" d="M 2419 4116 
L 825 1625 
L 2419 1625 
L 2419 4116 
z
M 2253 4666 
L 3047 4666 
L 3047 1625 
L 3713 1625 
L 3713 1100 
L 3047 1100 
L 3047 0 
L 2419 0 
L 2419 1100 
L 313 1100 
L 313 1709 
L 2253 4666 
z
" transform="scale(0.015625)"/>
       </defs>
       <use xlink:href="#DejaVuSans-30"/>
       <use xlink:href="#DejaVuSans-2e" x="63.623047"/>
       <use xlink:href="#DejaVuSans-34" x="95.410156"/>
      </g>
     </g>
    </g>
    <g id="ytick_3">
     <g id="line2d_10">
      <g>
       <use xlink:href="#m041a27c7b2" x="43.78125" y="184.533681" style="stroke: #000000; stroke-width: 0.8"/>
      </g>
     </g>
     <g id="text_11">
      <!-- 0.6 -->
      <g transform="translate(20.878125 188.3329) scale(0.1 -0.1)">
       <defs>
        <path id="DejaVuSans-36" d="M 2113 2584 
Q 1688 2584 1439 2293 
Q 1191 2003 1191 1497 
Q 1191 994 1439 701 
Q 1688 409 2113 409 
Q 2538 409 2786 701 
Q 3034 994 3034 1497 
Q 3034 2003 2786 2293 
Q 2538 2584 2113 2584 
z
M 3366 4563 
L 3366 3988 
Q 3128 4100 2886 4159 
Q 2644 4219 2406 4219 
Q 1781 4219 1451 3797 
Q 1122 3375 1075 2522 
Q 1259 2794 1537 2939 
Q 1816 3084 2150 3084 
Q 2853 3084 3261 2657 
Q 3669 2231 3669 1497 
Q 3669 778 3244 343 
Q 2819 -91 2113 -91 
Q 1303 -91 875 529 
Q 447 1150 447 2328 
Q 447 3434 972 4092 
Q 1497 4750 2381 4750 
Q 2619 4750 2861 4703 
Q 3103 4656 3366 4563 
z
" transform="scale(0.015625)"/>
       </defs>
       <use xlink:href="#DejaVuSans-30"/>
       <use xlink:href="#DejaVuSans-2e" x="63.623047"/>
       <use xlink:href="#DejaVuSans-36" x="95.410156"/>
      </g>
     </g>
    </g>
    <g id="ytick_4">
     <g id="line2d_11">
      <g>
       <use xlink:href="#m041a27c7b2" x="43.78125" y="141.725904" style="stroke: #000000; stroke-width: 0.8"/>
      </g>
     </g>
     <g id="text_12">
      <!-- 0.8 -->
      <g transform="translate(20.878125 145.525122) scale(0.1 -0.1)">
       <defs>
        <path id="DejaVuSans-38" d="M 2034 2216 
Q 1584 2216 1326 1975 
Q 1069 1734 1069 1313 
Q 1069 891 1326 650 
Q 1584 409 2034 409 
Q 2484 409 2743 651 
Q 3003 894 3003 1313 
Q 3003 1734 2745 1975 
Q 2488 2216 2034 2216 
z
M 1403 2484 
Q 997 2584 770 2862 
Q 544 3141 544 3541 
Q 544 4100 942 4425 
Q 1341 4750 2034 4750 
Q 2731 4750 3128 4425 
Q 3525 4100 3525 3541 
Q 3525 3141 3298 2862 
Q 3072 2584 2669 2484 
Q 3125 2378 3379 2068 
Q 3634 1759 3634 1313 
Q 3634 634 3220 271 
Q 2806 -91 2034 -91 
Q 1263 -91 848 271 
Q 434 634 434 1313 
Q 434 1759 690 2068 
Q 947 2378 1403 2484 
z
M 1172 3481 
Q 1172 3119 1398 2916 
Q 1625 2713 2034 2713 
Q 2441 2713 2670 2916 
Q 2900 3119 2900 3481 
Q 2900 3844 2670 4047 
Q 2441 4250 2034 4250 
Q 1625 4250 1398 4047 
Q 1172 3844 1172 3481 
z
" transform="scale(0.015625)"/>
       </defs>
       <use xlink:href="#DejaVuSans-30"/>
       <use xlink:href="#DejaVuSans-2e" x="63.623047"/>
       <use xlink:href="#DejaVuSans-38" x="95.410156"/>
      </g>
     </g>
    </g>
    <g id="ytick_5">
     <g id="line2d_12">
      <g>
       <use xlink:href="#m041a27c7b2" x="43.78125" y="98.918126" style="stroke: #000000; stroke-width: 0.8"/>
      </g>
     </g>
     <g id="text_13">
      <!-- 1.0 -->
      <g transform="translate(20.878125 102.717345) scale(0.1 -0.1)">
       <use xlink:href="#DejaVuSans-31"/>
       <use xlink:href="#DejaVuSans-2e" x="63.623047"/>
       <use xlink:href="#DejaVuSans-30" x="95.410156"/>
      </g>
     </g>
    </g>
    <g id="ytick_6">
     <g id="line2d_13">
      <g>
       <use xlink:href="#m041a27c7b2" x="43.78125" y="56.110349" style="stroke: #000000; stroke-width: 0.8"/>
      </g>
     </g>
     <g id="text_14">
      <!-- 1.2 -->
      <g transform="translate(20.878125 59.909567) scale(0.1 -0.1)">
       <use xlink:href="#DejaVuSans-31"/>
       <use xlink:href="#DejaVuSans-2e" x="63.623047"/>
       <use xlink:href="#DejaVuSans-32" x="95.410156"/>
      </g>
     </g>
    </g>
    <g id="text_15">
     <!-- Spannung in V -->
     <g transform="translate(14.798438 187.272406) rotate(-90) scale(0.1 -0.1)">
      <defs>
       <path id="DejaVuSans-53" d="M 3425 4513 
L 3425 3897 
Q 3066 4069 2747 4153 
Q 2428 4238 2131 4238 
Q 1616 4238 1336 4038 
Q 1056 3838 1056 3469 
Q 1056 3159 1242 3001 
Q 1428 2844 1947 2747 
L 2328 2669 
Q 3034 2534 3370 2195 
Q 3706 1856 3706 1288 
Q 3706 609 3251 259 
Q 2797 -91 1919 -91 
Q 1588 -91 1214 -16 
Q 841 59 441 206 
L 441 856 
Q 825 641 1194 531 
Q 1563 422 1919 422 
Q 2459 422 2753 634 
Q 3047 847 3047 1241 
Q 3047 1584 2836 1778 
Q 2625 1972 2144 2069 
L 1759 2144 
Q 1053 2284 737 2584 
Q 422 2884 422 3419 
Q 422 4038 858 4394 
Q 1294 4750 2059 4750 
Q 2388 4750 2728 4690 
Q 3069 4631 3425 4513 
z
" transform="scale(0.015625)"/>
       <path id="DejaVuSans-70" d="M 1159 525 
L 1159 -1331 
L 581 -1331 
L 581 3500 
L 1159 3500 
L 1159 2969 
Q 1341 3281 1617 3432 
Q 1894 3584 2278 3584 
Q 2916 3584 3314 3078 
Q 3713 2572 3713 1747 
Q 3713 922 3314 415 
Q 2916 -91 2278 -91 
Q 1894 -91 1617 61 
Q 1341 213 1159 525 
z
M 3116 1747 
Q 3116 2381 2855 2742 
Q 2594 3103 2138 3103 
Q 1681 3103 1420 2742 
Q 1159 2381 1159 1747 
Q 1159 1113 1420 752 
Q 1681 391 2138 391 
Q 2594 391 2855 752 
Q 3116 1113 3116 1747 
z
" transform="scale(0.015625)"/>
       <path id="DejaVuSans-61" d="M 2194 1759 
Q 1497 1759 1228 1600 
Q 959 1441 959 1056 
Q 959 750 1161 570 
Q 1363 391 1709 391 
Q 2188 391 2477 730 
Q 2766 1069 2766 1631 
L 2766 1759 
L 2194 1759 
z
M 3341 1997 
L 3341 0 
L 2766 0 
L 2766 531 
Q 2569 213 2275 61 
Q 1981 -91 1556 -91 
Q 1019 -91 701 211 
Q 384 513 384 1019 
Q 384 1609 779 1909 
Q 1175 2209 1959 2209 
L 2766 2209 
L 2766 2266 
Q 2766 2663 2505 2880 
Q 2244 3097 1772 3097 
Q 1472 3097 1187 3025 
Q 903 2953 641 2809 
L 641 3341 
Q 956 3463 1253 3523 
Q 1550 3584 1831 3584 
Q 2591 3584 2966 3190 
Q 3341 2797 3341 1997 
z
" transform="scale(0.015625)"/>
       <path id="DejaVuSans-75" d="M 544 1381 
L 544 3500 
L 1119 3500 
L 1119 1403 
Q 1119 906 1312 657 
Q 1506 409 1894 409 
Q 2359 409 2629 706 
Q 2900 1003 2900 1516 
L 2900 3500 
L 3475 3500 
L 3475 0 
L 2900 0 
L 2900 538 
Q 2691 219 2414 64 
Q 2138 -91 1772 -91 
Q 1169 -91 856 284 
Q 544 659 544 1381 
z
M 1991 3584 
L 1991 3584 
z
" transform="scale(0.015625)"/>
       <path id="DejaVuSans-67" d="M 2906 1791 
Q 2906 2416 2648 2759 
Q 2391 3103 1925 3103 
Q 1463 3103 1205 2759 
Q 947 2416 947 1791 
Q 947 1169 1205 825 
Q 1463 481 1925 481 
Q 2391 481 2648 825 
Q 2906 1169 2906 1791 
z
M 3481 434 
Q 3481 -459 3084 -895 
Q 2688 -1331 1869 -1331 
Q 1566 -1331 1297 -1286 
Q 1028 -1241 775 -1147 
L 775 -588 
Q 1028 -725 1275 -790 
Q 1522 -856 1778 -856 
Q 2344 -856 2625 -561 
Q 2906 -266 2906 331 
L 2906 616 
Q 2728 306 2450 153 
Q 2172 0 1784 0 
Q 1141 0 747 490 
Q 353 981 353 1791 
Q 353 2603 747 3093 
Q 1141 3584 1784 3584 
Q 2172 3584 2450 3431 
Q 2728 3278 2906 2969 
L 2906 3500 
L 3481 3500 
L 3481 434 
z
" transform="scale(0.015625)"/>
       <path id="DejaVuSans-56" d="M 1831 0 
L 50 4666 
L 709 4666 
L 2188 738 
L 3669 4666 
L 4325 4666 
L 2547 0 
L 1831 0 
z
" transform="scale(0.015625)"/>
      </defs>
      <use xlink:href="#DejaVuSans-53"/>
      <use xlink:href="#DejaVuSans-70" x="63.476562"/>
      <use xlink:href="#DejaVuSans-61" x="126.953125"/>
      <use xlink:href="#DejaVuSans-6e" x="188.232422"/>
      <use xlink:href="#DejaVuSans-6e" x="251.611328"/>
      <use xlink:href="#DejaVuSans-75" x="314.990234"/>
      <use xlink:href="#DejaVuSans-6e" x="378.369141"/>
      <use xlink:href="#DejaVuSans-67" x="441.748047"/>
      <use xlink:href="#DejaVuSans-20" x="505.224609"/>
      <use xlink:href="#DejaVuSans-69" x="537.011719"/>
      <use xlink:href="#DejaVuSans-6e" x="564.794922"/>
      <use xlink:href="#DejaVuSans-20" x="628.173828"/>
      <use xlink:href="#DejaVuSans-56" x="659.960938"/>
     </g>
    </g>
    <g id="text_16">
     <!-- 1e−5 -->
     <g transform="translate(43.78125 14.798437) scale(0.1 -0.1)">
      <defs>
       <path id="DejaVuSans-2212" d="M 678 2272 
L 4684 2272 
L 4684 1741 
L 678 1741 
L 678 2272 
z
" transform="scale(0.015625)"/>
      </defs>
      <use xlink:href="#DejaVuSans-31"/>
      <use xlink:href="#DejaVuSans-65" x="63.623047"/>
      <use xlink:href="#DejaVuSans-2212" x="125.146484"/>
      <use xlink:href="#DejaVuSans-35" x="208.935547"/>
     </g>
    </g>
   </g>
   <g id="line2d_14">
    <path d="M 60.013977 194.439401 
L 60.349802 194.439401 
L 60.461659 197.704372 
L 61.584459 197.704372 
L 61.697508 199.269745 
L 62.596495 199.269745 
L 62.708352 207.543975 
L 63.724098 207.543975 
L 63.836952 206.005399 
L 64.740077 206.005399 
L 64.853067 198.598861 
L 65.982055 198.598861 
L 66.094951 196.809839 
L 67.110526 196.809839 
L 67.223544 200.984218 
L 68.126167 200.984218 
L 68.238047 203.518674 
L 69.358903 203.518674 
L 69.471919 198.169499 
L 70.374019 198.169499 
L 70.485951 199.44866 
L 71.498904 199.44866 
L 71.611941 194.886657 
L 72.514275 194.886657 
L 72.62729 206.828357 
L 73.755954 206.828357 
L 73.868903 199.180298 
L 74.772349 199.180298 
L 74.885076 206.112739 
L 75.900213 206.112739 
L 76.013325 189.057436 
L 77.141841 189.057436 
L 77.254905 185.091766 
L 78.158435 185.091766 
L 78.271342 195.244465 
L 79.287927 195.244465 
L 79.400692 199.940628 
L 81.546351 200.030075 
L 81.659129 194.394667 
L 82.562267 194.394667 
L 82.675106 206.202186 
L 83.69205 206.202186 
L 83.805092 190.977664 
L 84.707943 190.977664 
L 84.820712 212.374297 
L 85.950107 212.374297 
L 86.062847 198.867223 
L 87.07954 198.867223 
L 87.192283 194.931391 
L 88.095342 194.931391 
L 88.20809 197.078201 
L 89.33774 197.078201 
L 89.450592 196.13003 
L 90.354147 196.13003 
L 90.579846 196.586211 
L 91.4841 196.586211 
L 91.596984 208.39373 
L 92.500825 208.39373 
L 92.61395 186.701895 
L 93.743302 186.701895 
L 93.856217 189.385429 
L 94.760671 189.385429 
L 94.87329 195.468072 
L 95.889733 195.468072 
L 96.002597 196.496764 
L 97.131952 196.496764 
L 97.244615 198.598861 
L 98.148749 198.598861 
L 98.261805 201.908545 
L 99.277789 201.908545 
L 99.390445 203.742302 
L 100.293864 203.742302 
L 100.406854 193.365996 
L 101.53591 193.365996 
L 101.649046 202.132173 
L 102.552867 202.132173 
L 102.665978 183.302765 
L 103.682044 183.302765 
L 103.79497 195.55754 
L 104.697963 195.55754 
L 104.81058 194.573561 
L 105.939465 194.573561 
L 106.0525 206.023293 
L 107.068446 206.023293 
L 107.181081 203.026684 
L 108.084206 203.026684 
L 108.310107 202.892524 
L 109.326526 202.892524 
L 109.439467 205.933846 
L 110.343006 205.933846 
L 110.456091 203.250312 
L 111.472901 203.250312 
L 111.585952 190.727196 
L 112.489474 190.727196 
L 112.602248 194.245589 
L 113.731665 194.245589 
L 113.844419 200.432618 
L 114.747812 200.432618 
L 114.860639 205.576037 
L 115.876248 205.576037 
L 115.98902 196.765126 
L 117.118844 196.765126 
L 117.232039 190.503568 
L 118.136092 190.503568 
L 118.248939 199.940628 
L 119.264915 199.940628 
L 119.377967 198.062159 
L 120.281759 198.062159 
L 120.394809 202.668897 
L 121.523999 202.668897 
L 121.63676 196.750208 
L 122.539389 196.750208 
L 122.652458 204.547366 
L 123.668889 204.547366 
L 123.78163 199.493373 
L 124.685458 199.493373 
L 124.798183 198.062159 
L 125.927148 198.062159 
L 126.040097 196.183689 
L 127.056115 196.183689 
L 127.168993 204.010642 
L 128.072295 204.010642 
L 128.185114 203.384493 
L 129.317328 203.384493 
L 129.43018 201.246608 
L 130.333249 201.246608 
L 130.446146 203.965929 
L 131.461363 203.965929 
L 131.574216 190.593015 
L 132.47726 190.593015 
L 132.590013 197.078201 
L 133.719441 197.078201 
L 133.832247 202.803056 
L 134.735389 202.803056 
L 134.848121 195.307072 
L 135.86667 195.307072 
L 135.979604 194.573561 
L 137.10822 194.573561 
L 137.22138 201.684938 
L 138.124703 201.684938 
L 138.237471 202.3558 
L 139.252931 202.3558 
L 139.477815 202.713609 
L 140.268296 202.713609 
L 140.381192 212.732106 
L 141.510946 212.732106 
L 141.623806 194.260507 
L 142.525398 194.260507 
L 142.638353 196.809839 
L 143.654549 196.809839 
L 143.767318 189.045514 
L 144.670631 189.045514 
L 144.783321 195.423359 
L 145.912256 195.423359 
L 146.025028 208.930454 
L 147.041568 208.930454 
L 147.154305 201.416555 
L 148.057366 201.416555 
L 148.170529 202.400535 
L 149.299455 202.400535 
L 149.412557 200.566778 
L 150.316104 200.566778 
L 150.429006 208.662092 
L 151.445279 208.662092 
L 151.558279 202.311088 
L 152.461011 202.311088 
L 152.573794 195.960062 
L 153.703361 195.960062 
L 153.816123 187.730587 
L 154.719883 187.730587 
L 154.83295 190.118919 
L 155.84908 190.118919 
L 155.962171 186.299374 
L 157.090979 186.299374 
L 157.20423 181.782083 
L 158.107464 181.782083 
L 158.220319 194.245589 
L 159.236411 194.245589 
L 159.348304 181.960998 
L 160.245137 181.960998 
L 160.357202 170.690181 
L 161.476679 170.690181 
L 161.588728 169.616776 
L 162.487334 169.616776 
L 162.599937 157.183107 
L 163.611715 157.183107 
L 163.723721 150.939443 
L 164.623228 150.939443 
L 164.735223 147.567111 
L 165.858798 147.567111 
L 165.970769 140.679403 
L 166.981835 140.679403 
L 167.207138 140.276882 
L 167.994994 140.276882 
L 168.107656 124.757136 
L 169.231779 124.757136 
L 169.344589 117.270099 
L 170.246016 117.270099 
L 170.357936 118.406131 
L 171.368427 118.406131 
L 171.480328 96.445977 
L 172.376888 96.445977 
L 172.489653 88.932142 
L 173.614279 88.932142 
L 173.726181 92.867889 
L 174.622937 92.867889 
L 174.735048 91.078952 
L 175.743648 91.078952 
L 175.967712 91.436611 
L 176.980488 91.436611 
L 177.09316 74.351599 
L 177.99234 74.351599 
L 178.218224 74.127928 
L 179.116193 74.127928 
L 179.228038 66.748295 
L 180.125123 66.748295 
L 180.349035 65.808879 
L 181.364262 65.808879 
L 181.476996 52.301955 
L 182.375315 52.301955 
L 182.488531 47.695196 
L 183.504651 47.695196 
L 183.617347 44.170831 
L 184.5203 44.170831 
L 184.633367 49.394664 
L 185.761837 49.394664 
L 185.874706 29.894437 
L 186.890746 29.894437 
L 187.003663 34.456462 
L 187.907585 34.456462 
L 188.02045 40.717956 
L 189.149713 40.717956 
L 189.262653 52.54339 
L 190.16633 52.54339 
L 190.279235 60.262917 
L 191.295231 60.262917 
L 191.407872 55.879829 
L 192.311739 55.879829 
L 192.424804 60.03946 
L 193.553863 60.03946 
L 193.666918 65.853827 
L 194.569442 65.853827 
L 194.682279 70.818245 
L 195.697943 70.818245 
L 195.810874 87.814003 
L 196.94006 87.814003 
L 197.052968 90.631611 
L 197.956093 90.631611 
L 198.068949 95.327838 
L 199.084678 95.327838 
L 199.197421 101.365746 
L 200.100742 101.365746 
L 200.213758 103.646716 
L 201.342626 103.646716 
L 201.455633 101.94714 
L 202.358763 101.94714 
L 202.471643 126.590893 
L 203.487572 126.590893 
L 203.600373 127.217021 
L 204.503641 127.217021 
L 204.616788 130.526726 
L 205.745713 130.526726 
L 205.858469 141.529181 
L 206.874498 141.529181 
L 206.987266 135.088729 
L 207.890177 135.088729 
L 208.003057 148.55109 
L 209.131617 148.55109 
L 209.24447 150.903634 
L 210.147738 150.903634 
L 210.260922 153.739243 
L 211.275904 153.739243 
L 211.388756 161.029493 
L 212.292311 161.029493 
L 212.405848 174.387489 
L 213.534984 174.387489 
L 213.648115 171.31633 
L 214.551935 171.31633 
L 214.664718 179.921528 
L 215.680624 179.921528 
L 215.793302 190.011578 
L 216.922743 190.011578 
L 217.035501 191.308633 
L 217.938352 191.308633 
L 218.051271 193.097634 
L 219.066268 193.097634 
L 219.17919 188.982886 
L 220.082529 188.982886 
L 220.195609 196.228424 
L 221.324105 196.228424 
L 221.437003 206.112761 
L 222.340532 206.112761 
L 222.453673 197.465825 
L 223.470738 197.465825 
L 223.583618 202.320035 
L 224.486126 202.320035 
L 224.599251 215.90763 
L 225.728269 215.90763 
L 225.841072 217.56245 
L 226.857822 217.56245 
L 226.970779 211.479807 
L 227.874147 211.479807 
L 227.987176 197.838531 
L 229.116405 197.838531 
L 229.229237 202.642056 
L 230.132802 202.642056 
L 230.245843 197.838531 
L 231.261623 197.838531 
L 231.373564 193.649255 
L 232.276511 193.649255 
L 232.389259 195.646987 
L 233.518011 195.646987 
L 233.63069 203.965929 
L 234.535142 203.965929 
L 234.647999 215.773449 
L 235.664219 215.773449 
L 235.776949 208.349018 
L 236.906458 208.349018 
L 237.019307 210.316934 
L 237.921638 210.316934 
L 238.034541 209.601338 
L 239.051357 209.601338 
L 239.164162 213.045202 
L 240.066839 213.045202 
L 240.179678 209.273345 
L 241.308991 209.273345 
L 241.421814 207.320347 
L 242.32455 207.320347 
L 242.437659 208.572646 
L 243.453656 208.572646 
L 243.566622 206.649463 
L 244.469674 206.649463 
L 244.582481 212.195404 
L 245.711506 212.195404 
L 245.824365 220.424899 
L 246.840436 220.424899 
L 246.953217 219.709282 
L 247.856311 219.709282 
L 247.969124 208.483199 
L 249.098847 208.483199 
L 249.211631 210.003859 
L 250.114877 210.003859 
L 250.227673 223.510955 
L 251.242683 223.510955 
L 251.355691 206.068027 
L 252.258703 206.068027 
L 252.371572 220.201271 
L 253.500766 220.201271 
L 253.613878 219.30676 
L 254.516714 219.30676 
L 254.629485 217.848706 
L 255.645715 217.848706 
L 255.758863 207.499241 
L 256.887177 207.499241 
L 257.000108 210.540583 
L 257.903019 210.540583 
L 258.015838 215.296378 
L 259.032082 215.296378 
L 259.144851 208.706827 
L 260.047854 208.706827 
L 260.16059 209.51187 
L 261.288864 209.51187 
L 261.401555 211.658701 
L 262.304608 211.658701 
L 262.417875 204.681526 
L 263.432936 204.681526 
L 263.5461 212.419031 
L 264.675409 212.419031 
L 264.788177 208.706827 
L 265.691598 208.706827 
L 265.804614 210.719456 
L 266.821333 210.719456 
L 266.934499 226.910085 
L 267.837763 226.910085 
L 267.950544 207.245776 
L 269.07912 207.245776 
L 269.191812 215.558768 
L 270.094722 215.558768 
L 270.207852 223.421508 
L 271.223906 223.421508 
L 271.449469 222.795337 
L 272.464805 222.795337 
L 272.577784 215.236746 
L 273.48091 215.236746 
L 273.593853 210.585296 
L 274.610589 210.585296 
L 274.723383 221.990273 
L 275.626083 221.990273 
L 275.738971 212.767893 
L 276.867153 212.767893 
L 276.980437 206.649442 
L 277.995276 206.649442 
L 278.108347 210.808924 
L 279.011222 210.808924 
L 279.124087 222.616443 
L 280.25377 222.616443 
L 280.366689 228.47548 
L 281.269731 228.47548 
L 281.382544 221.605645 
L 282.39872 221.605645 
L 282.511679 218.278068 
L 283.641516 218.278068 
L 283.754021 214.27066 
L 284.657843 214.27066 
L 284.770579 220.424899 
L 285.786883 220.424899 
L 285.899765 217.860628 
L 286.803445 217.860628 
L 286.916256 222.2139 
L 288.045848 222.2139 
L 288.158656 223.063699 
L 289.061913 223.063699 
L 289.174949 227.35734 
L 290.191108 227.35734 
L 290.303943 207.687081 
L 291.207313 207.687081 
L 291.320165 234.871218 
L 292.449239 234.871218 
L 292.562079 234.066154 
L 293.577868 234.066154 
L 293.691038 221.856113 
L 294.593624 221.856113 
L 294.706633 229.429622 
L 295.834824 229.429622 
L 295.947769 227.652522 
L 296.850717 227.652522 
L 296.963605 222.035007 
L 297.979216 222.035007 
L 298.09237 224.682753 
L 298.995375 224.682753 
L 299.108207 196.586232 
L 300.237177 196.586232 
L 300.349897 217.473003 
L 301.252347 217.473003 
L 301.365149 238.994913 
L 302.382065 238.994913 
L 302.494861 226.388279 
L 303.624482 226.388279 
L 303.737254 217.786078 
L 304.640281 217.786078 
L 304.753439 235.094846 
L 305.770007 235.094846 
L 305.883131 227.044266 
L 306.786203 227.044266 
L 306.899255 228.430746 
L 308.027528 228.430746 
L 308.140474 231.114279 
L 309.043835 231.114279 
L 309.157067 238.001987 
L 310.173728 238.001987 
L 310.286807 230.300268 
L 311.190052 230.300268 
L 311.302915 224.316019 
L 312.431205 224.316019 
L 312.54395 232.500759 
L 313.56035 232.500759 
L 313.673332 230.025956 
L 314.576362 230.025956 
L 314.689315 213.671352 
L 315.818436 213.671352 
L 315.93159 227.22316 
L 316.835095 227.22316 
L 316.947953 228.162384 
L 317.963319 228.162384 
L 318.076298 230.309215 
L 318.979021 230.309215 
L 319.204981 230.577577 
L 320.221346 230.577577 
L 320.334072 225.389424 
L 321.237196 225.389424 
L 321.349982 234.164548 
L 322.365373 234.164548 
L 322.478134 233.037462 
L 323.606608 233.037462 
L 323.719423 224.575413 
L 324.622795 224.575413 
L 324.735609 244.979162 
L 325.751566 244.979162 
L 325.864387 234.423963 
L 326.767883 234.423963 
L 326.880909 236.973316 
L 328.009799 236.973316 
L 328.122622 231.829897 
L 329.026077 231.829897 
L 329.139052 225.613052 
L 330.154842 225.613052 
L 330.267684 229.012182 
L 331.171206 229.012182 
L 331.284206 234.915931 
L 332.41309 234.915931 
L 332.52602 230.980098 
L 333.542482 230.980098 
L 333.768328 230.62229 
L 334.55858 230.62229 
L 334.671309 234.066154 
L 335.800113 234.066154 
L 335.912808 224.933222 
L 336.815512 224.933222 
L 336.928439 241.80366 
L 337.944894 241.80366 
L 338.057793 233.440005 
L 338.960891 233.440005 
L 339.073698 246.678738 
L 340.202948 246.678738 
L 340.315814 225.255243 
L 341.21905 225.255243 
L 341.331976 241.427957 
L 342.348046 241.427957 
L 342.461104 243.234874 
L 343.589465 243.234874 
L 343.702331 245.158056 
L 344.605219 245.158056 
L 344.718241 237.241656 
L 345.7338 237.241656 
L 345.846561 249.004463 
L 346.749927 249.004463 
L 346.862765 246.991813 
L 347.991686 246.991813 
L 348.104542 246.276216 
L 349.007751 246.276216 
L 349.120661 242.921799 
L 350.137302 242.921799 
L 350.250018 235.184293 
L 351.153241 235.184293 
L 351.266348 253.968988 
L 352.395482 253.968988 
L 352.508326 241.80366 
L 353.524793 241.80366 
L 353.637824 246.902366 
L 354.541662 246.902366 
L 354.654605 247.796856 
L 355.784074 247.796856 
L 355.896887 242.215128 
L 356.800294 242.215128 
L 356.913389 247.84159 
L 357.929918 247.84159 
L 358.042683 259.336035 
L 358.945797 259.336035 
L 359.058677 254.893294 
L 360.187806 254.893294 
L 360.300897 240.774967 
L 361.203879 240.774967 
L 361.316708 259.78329 
L 362.331886 259.78329 
L 362.444862 250.802411 
L 363.348823 250.802411 
L 363.461553 242.787618 
L 364.591297 242.787618 
L 364.704112 245.873673 
L 365.72024 245.873673 
L 365.833075 252.806115 
L 366.736528 252.806115 
L 366.849575 253.521732 
L 367.978388 253.521732 
L 368.091147 254.863478 
L 368.994093 254.863478 
L 369.107375 253.46208 
L 370.123627 253.46208 
L 370.236613 250.873986 
L 371.140045 250.873986 
L 371.252764 271.814437 
L 372.381362 271.814437 
L 372.49417 266.626285 
L 373.510065 266.626285 
L 373.622944 252.582508 
L 374.526152 252.582508 
L 374.639028 248.736101 
L 375.767752 248.736101 
L 375.880547 253.485945 
L 376.784782 253.485945 
L 376.897768 255.400202 
L 377.914292 255.400202 
L 378.027477 256.527266 
L 378.930698 256.527266 
L 379.043846 259.514928 
L 380.172661 259.514928 
L 380.285534 254.505691 
L 381.187824 254.505691 
L 381.300717 261.751207 
L 382.313187 261.751207 
L 382.425096 263.18242 
L 383.546164 263.18242 
L 383.658132 259.246588 
L 384.556529 259.246588 
L 384.668523 223.868763 
L 384.668523 223.868763 
" clip-path="url(#p14ede2040d)" style="fill: none; stroke: #1f77b4; stroke-width: 1.5; stroke-linecap: square"/>
   </g>
   <g id="patch_3">
    <path d="M 43.78125 283.910437 
L 43.78125 17.798437 
" style="fill: none; stroke: #000000; stroke-width: 0.8; stroke-linejoin: miter; stroke-linecap: square"/>
   </g>
   <g id="patch_4">
    <path d="M 400.90125 283.910437 
L 400.90125 17.798437 
" style="fill: none; stroke: #000000; stroke-width: 0.8; stroke-linejoin: miter; stroke-linecap: square"/>
   </g>
   <g id="patch_5">
    <path d="M 43.78125 283.910437 
L 400.90125 283.910437 
" style="fill: none; stroke: #000000; stroke-width: 0.8; stroke-linejoin: miter; stroke-linecap: square"/>
   </g>
   <g id="patch_6">
    <path d="M 43.78125 17.798437 
L 400.90125 17.798437 
" style="fill: none; stroke: #000000; stroke-width: 0.8; stroke-linejoin: miter; stroke-linecap: square"/>
   </g>
   <g id="legend_1">
    <g id="patch_7">
     <path d="M 308.185625 40.476562 
L 393.90125 40.476562 
Q 395.90125 40.476562 395.90125 38.476562 
L 395.90125 24.798438 
Q 395.90125 22.798438 393.90125 22.798438 
L 308.185625 22.798438 
Q 306.185625 22.798438 306.185625 24.798438 
L 306.185625 38.476562 
Q 306.185625 40.476562 308.185625 40.476562 
z
" style="fill: #ffffff; opacity: 0.8; stroke: #cccccc; stroke-linejoin: miter"/>
    </g>
    <g id="line2d_15">
     <path d="M 310.185625 30.896875 
L 320.185625 30.896875 
L 330.185625 30.896875 
" style="fill: none; stroke: #1f77b4; stroke-width: 1.5; stroke-linecap: square"/>
    </g>
    <g id="text_17">
     <!-- Messwerte -->
     <g transform="translate(338.185625 34.396875) scale(0.1 -0.1)">
      <defs>
       <path id="DejaVuSans-4d" d="M 628 4666 
L 1569 4666 
L 2759 1491 
L 3956 4666 
L 4897 4666 
L 4897 0 
L 4281 0 
L 4281 4097 
L 3078 897 
L 2444 897 
L 1241 4097 
L 1241 0 
L 628 0 
L 628 4666 
z
" transform="scale(0.015625)"/>
       <path id="DejaVuSans-77" d="M 269 3500 
L 844 3500 
L 1563 769 
L 2278 3500 
L 2956 3500 
L 3675 769 
L 4391 3500 
L 4966 3500 
L 4050 0 
L 3372 0 
L 2619 2869 
L 1863 0 
L 1184 0 
L 269 3500 
z
" transform="scale(0.015625)"/>
       <path id="DejaVuSans-72" d="M 2631 2963 
Q 2534 3019 2420 3045 
Q 2306 3072 2169 3072 
Q 1681 3072 1420 2755 
Q 1159 2438 1159 1844 
L 1159 0 
L 581 0 
L 581 3500 
L 1159 3500 
L 1159 2956 
Q 1341 3275 1631 3429 
Q 1922 3584 2338 3584 
Q 2397 3584 2469 3576 
Q 2541 3569 2628 3553 
L 2631 2963 
z
" transform="scale(0.015625)"/>
      </defs>
      <use xlink:href="#DejaVuSans-4d"/>
      <use xlink:href="#DejaVuSans-65" x="86.279297"/>
      <use xlink:href="#DejaVuSans-73" x="147.802734"/>
      <use xlink:href="#DejaVuSans-73" x="199.902344"/>
      <use xlink:href="#DejaVuSans-77" x="252.001953"/>
      <use xlink:href="#DejaVuSans-65" x="333.789062"/>
      <use xlink:href="#DejaVuSans-72" x="395.3125"/>
      <use xlink:href="#DejaVuSans-74" x="436.425781"/>
      <use xlink:href="#DejaVuSans-65" x="475.634766"/>
     </g>
    </g>
   </g>
  </g>
 </g>
 <defs>
  <clipPath id="p14ede2040d">
   <rect x="43.78125" y="17.798438" width="357.12" height="266.112"/>
  </clipPath>
 </defs>
</svg>
