<?xml version="1.0" encoding="utf-8" standalone="no"?>
<!DOCTYPE svg PUBLIC "-//W3C//DTD SVG 1.1//EN"
  "http://www.w3.org/Graphics/SVG/1.1/DTD/svg11.dtd">
<svg xmlns:xlink="http://www.w3.org/1999/xlink" width="460.8pt" height="345.6pt" viewBox="0 0 460.8 345.6" xmlns="http://www.w3.org/2000/svg" version="1.1">
 <metadata>
  <rdf:RDF xmlns:dc="http://purl.org/dc/elements/1.1/" xmlns:cc="http://creativecommons.org/ns#" xmlns:rdf="http://www.w3.org/1999/02/22-rdf-syntax-ns#">
   <cc:Work>
    <dc:type rdf:resource="http://purl.org/dc/dcmitype/StillImage"/>
    <dc:date>2024-07-11T02:41:45.447733</dc:date>
    <dc:format>image/svg+xml</dc:format>
    <dc:creator>
     <cc:Agent>
      <dc:title>Matplotlib v3.8.2, https://matplotlib.org/</dc:title>
     </cc:Agent>
    </dc:creator>
   </cc:Work>
  </rdf:RDF>
 </metadata>
 <defs>
  <style type="text/css">*{stroke-linejoin: round; stroke-linecap: butt}</style>
 </defs>
 <g id="figure_1">
  <g id="patch_1">
   <path d="M 0 345.6 
L 460.8 345.6 
L 460.8 0 
L 0 0 
z
" style="fill: #ffffff"/>
  </g>
  <g id="axes_1">
   <g id="patch_2">
    <path d="M 57.6 307.584 
L 414.72 307.584 
L 414.72 41.472 
L 57.6 41.472 
z
" style="fill: #ffffff"/>
   </g>
   <g id="matplotlib.axis_1">
    <g id="xtick_1">
     <g id="line2d_1">
      <defs>
       <path id="m1281b23909" d="M 0 0 
L 0 3.5 
" style="stroke: #000000; stroke-width: 0.8"/>
      </defs>
      <g>
       <use xlink:href="#m1281b23909" x="73.82101" y="307.584" style="stroke: #000000; stroke-width: 0.8"/>
      </g>
     </g>
     <g id="text_1">
      <!-- 0 -->
      <g transform="translate(70.63976 322.182437) scale(0.1 -0.1)">
       <defs>
        <path id="DejaVuSans-30" d="M 2034 4250 
Q 1547 4250 1301 3770 
Q 1056 3291 1056 2328 
Q 1056 1369 1301 889 
Q 1547 409 2034 409 
Q 2525 409 2770 889 
Q 3016 1369 3016 2328 
Q 3016 3291 2770 3770 
Q 2525 4250 2034 4250 
z
M 2034 4750 
Q 2819 4750 3233 4129 
Q 3647 3509 3647 2328 
Q 3647 1150 3233 529 
Q 2819 -91 2034 -91 
Q 1250 -91 836 529 
Q 422 1150 422 2328 
Q 422 3509 836 4129 
Q 1250 4750 2034 4750 
z
" transform="scale(0.015625)"/>
       </defs>
       <use xlink:href="#DejaVuSans-30"/>
      </g>
     </g>
    </g>
    <g id="xtick_2">
     <g id="line2d_2">
      <g>
       <use xlink:href="#m1281b23909" x="125.687696" y="307.584" style="stroke: #000000; stroke-width: 0.8"/>
      </g>
     </g>
     <g id="text_2">
      <!-- 2000 -->
      <g transform="translate(112.962696 322.182437) scale(0.1 -0.1)">
       <defs>
        <path id="DejaVuSans-32" d="M 1228 531 
L 3431 531 
L 3431 0 
L 469 0 
L 469 531 
Q 828 903 1448 1529 
Q 2069 2156 2228 2338 
Q 2531 2678 2651 2914 
Q 2772 3150 2772 3378 
Q 2772 3750 2511 3984 
Q 2250 4219 1831 4219 
Q 1534 4219 1204 4116 
Q 875 4013 500 3803 
L 500 4441 
Q 881 4594 1212 4672 
Q 1544 4750 1819 4750 
Q 2544 4750 2975 4387 
Q 3406 4025 3406 3419 
Q 3406 3131 3298 2873 
Q 3191 2616 2906 2266 
Q 2828 2175 2409 1742 
Q 1991 1309 1228 531 
z
" transform="scale(0.015625)"/>
       </defs>
       <use xlink:href="#DejaVuSans-32"/>
       <use xlink:href="#DejaVuSans-30" x="63.623047"/>
       <use xlink:href="#DejaVuSans-30" x="127.246094"/>
       <use xlink:href="#DejaVuSans-30" x="190.869141"/>
      </g>
     </g>
    </g>
    <g id="xtick_3">
     <g id="line2d_3">
      <g>
       <use xlink:href="#m1281b23909" x="177.554381" y="307.584" style="stroke: #000000; stroke-width: 0.8"/>
      </g>
     </g>
     <g id="text_3">
      <!-- 4000 -->
      <g transform="translate(164.829381 322.182437) scale(0.1 -0.1)">
       <defs>
        <path id="DejaVuSans-34" d="M 2419 4116 
L 825 1625 
L 2419 1625 
L 2419 4116 
z
M 2253 4666 
L 3047 4666 
L 3047 1625 
L 3713 1625 
L 3713 1100 
L 3047 1100 
L 3047 0 
L 2419 0 
L 2419 1100 
L 313 1100 
L 313 1709 
L 2253 4666 
z
" transform="scale(0.015625)"/>
       </defs>
       <use xlink:href="#DejaVuSans-34"/>
       <use xlink:href="#DejaVuSans-30" x="63.623047"/>
       <use xlink:href="#DejaVuSans-30" x="127.246094"/>
       <use xlink:href="#DejaVuSans-30" x="190.869141"/>
      </g>
     </g>
    </g>
    <g id="xtick_4">
     <g id="line2d_4">
      <g>
       <use xlink:href="#m1281b23909" x="229.421067" y="307.584" style="stroke: #000000; stroke-width: 0.8"/>
      </g>
     </g>
     <g id="text_4">
      <!-- 6000 -->
      <g transform="translate(216.696067 322.182437) scale(0.1 -0.1)">
       <defs>
        <path id="DejaVuSans-36" d="M 2113 2584 
Q 1688 2584 1439 2293 
Q 1191 2003 1191 1497 
Q 1191 994 1439 701 
Q 1688 409 2113 409 
Q 2538 409 2786 701 
Q 3034 994 3034 1497 
Q 3034 2003 2786 2293 
Q 2538 2584 2113 2584 
z
M 3366 4563 
L 3366 3988 
Q 3128 4100 2886 4159 
Q 2644 4219 2406 4219 
Q 1781 4219 1451 3797 
Q 1122 3375 1075 2522 
Q 1259 2794 1537 2939 
Q 1816 3084 2150 3084 
Q 2853 3084 3261 2657 
Q 3669 2231 3669 1497 
Q 3669 778 3244 343 
Q 2819 -91 2113 -91 
Q 1303 -91 875 529 
Q 447 1150 447 2328 
Q 447 3434 972 4092 
Q 1497 4750 2381 4750 
Q 2619 4750 2861 4703 
Q 3103 4656 3366 4563 
z
" transform="scale(0.015625)"/>
       </defs>
       <use xlink:href="#DejaVuSans-36"/>
       <use xlink:href="#DejaVuSans-30" x="63.623047"/>
       <use xlink:href="#DejaVuSans-30" x="127.246094"/>
       <use xlink:href="#DejaVuSans-30" x="190.869141"/>
      </g>
     </g>
    </g>
    <g id="xtick_5">
     <g id="line2d_5">
      <g>
       <use xlink:href="#m1281b23909" x="281.287752" y="307.584" style="stroke: #000000; stroke-width: 0.8"/>
      </g>
     </g>
     <g id="text_5">
      <!-- 8000 -->
      <g transform="translate(268.562752 322.182437) scale(0.1 -0.1)">
       <defs>
        <path id="DejaVuSans-38" d="M 2034 2216 
Q 1584 2216 1326 1975 
Q 1069 1734 1069 1313 
Q 1069 891 1326 650 
Q 1584 409 2034 409 
Q 2484 409 2743 651 
Q 3003 894 3003 1313 
Q 3003 1734 2745 1975 
Q 2488 2216 2034 2216 
z
M 1403 2484 
Q 997 2584 770 2862 
Q 544 3141 544 3541 
Q 544 4100 942 4425 
Q 1341 4750 2034 4750 
Q 2731 4750 3128 4425 
Q 3525 4100 3525 3541 
Q 3525 3141 3298 2862 
Q 3072 2584 2669 2484 
Q 3125 2378 3379 2068 
Q 3634 1759 3634 1313 
Q 3634 634 3220 271 
Q 2806 -91 2034 -91 
Q 1263 -91 848 271 
Q 434 634 434 1313 
Q 434 1759 690 2068 
Q 947 2378 1403 2484 
z
M 1172 3481 
Q 1172 3119 1398 2916 
Q 1625 2713 2034 2713 
Q 2441 2713 2670 2916 
Q 2900 3119 2900 3481 
Q 2900 3844 2670 4047 
Q 2441 4250 2034 4250 
Q 1625 4250 1398 4047 
Q 1172 3844 1172 3481 
z
" transform="scale(0.015625)"/>
       </defs>
       <use xlink:href="#DejaVuSans-38"/>
       <use xlink:href="#DejaVuSans-30" x="63.623047"/>
       <use xlink:href="#DejaVuSans-30" x="127.246094"/>
       <use xlink:href="#DejaVuSans-30" x="190.869141"/>
      </g>
     </g>
    </g>
    <g id="xtick_6">
     <g id="line2d_6">
      <g>
       <use xlink:href="#m1281b23909" x="333.154438" y="307.584" style="stroke: #000000; stroke-width: 0.8"/>
      </g>
     </g>
     <g id="text_6">
      <!-- 10000 -->
      <g transform="translate(317.248188 322.182437) scale(0.1 -0.1)">
       <defs>
        <path id="DejaVuSans-31" d="M 794 531 
L 1825 531 
L 1825 4091 
L 703 3866 
L 703 4441 
L 1819 4666 
L 2450 4666 
L 2450 531 
L 3481 531 
L 3481 0 
L 794 0 
L 794 531 
z
" transform="scale(0.015625)"/>
       </defs>
       <use xlink:href="#DejaVuSans-31"/>
       <use xlink:href="#DejaVuSans-30" x="63.623047"/>
       <use xlink:href="#DejaVuSans-30" x="127.246094"/>
       <use xlink:href="#DejaVuSans-30" x="190.869141"/>
       <use xlink:href="#DejaVuSans-30" x="254.492188"/>
      </g>
     </g>
    </g>
    <g id="xtick_7">
     <g id="line2d_7">
      <g>
       <use xlink:href="#m1281b23909" x="385.021123" y="307.584" style="stroke: #000000; stroke-width: 0.8"/>
      </g>
     </g>
     <g id="text_7">
      <!-- 12000 -->
      <g transform="translate(369.114873 322.182437) scale(0.1 -0.1)">
       <use xlink:href="#DejaVuSans-31"/>
       <use xlink:href="#DejaVuSans-32" x="63.623047"/>
       <use xlink:href="#DejaVuSans-30" x="127.246094"/>
       <use xlink:href="#DejaVuSans-30" x="190.869141"/>
       <use xlink:href="#DejaVuSans-30" x="254.492188"/>
      </g>
     </g>
    </g>
    <g id="text_8">
     <!-- Zeit in s -->
     <g transform="translate(215.968594 335.860562) scale(0.1 -0.1)">
      <defs>
       <path id="DejaVuSans-5a" d="M 359 4666 
L 4025 4666 
L 4025 4184 
L 1075 531 
L 4097 531 
L 4097 0 
L 288 0 
L 288 481 
L 3238 4134 
L 359 4134 
L 359 4666 
z
" transform="scale(0.015625)"/>
       <path id="DejaVuSans-65" d="M 3597 1894 
L 3597 1613 
L 953 1613 
Q 991 1019 1311 708 
Q 1631 397 2203 397 
Q 2534 397 2845 478 
Q 3156 559 3463 722 
L 3463 178 
Q 3153 47 2828 -22 
Q 2503 -91 2169 -91 
Q 1331 -91 842 396 
Q 353 884 353 1716 
Q 353 2575 817 3079 
Q 1281 3584 2069 3584 
Q 2775 3584 3186 3129 
Q 3597 2675 3597 1894 
z
M 3022 2063 
Q 3016 2534 2758 2815 
Q 2500 3097 2075 3097 
Q 1594 3097 1305 2825 
Q 1016 2553 972 2059 
L 3022 2063 
z
" transform="scale(0.015625)"/>
       <path id="DejaVuSans-69" d="M 603 3500 
L 1178 3500 
L 1178 0 
L 603 0 
L 603 3500 
z
M 603 4863 
L 1178 4863 
L 1178 4134 
L 603 4134 
L 603 4863 
z
" transform="scale(0.015625)"/>
       <path id="DejaVuSans-74" d="M 1172 4494 
L 1172 3500 
L 2356 3500 
L 2356 3053 
L 1172 3053 
L 1172 1153 
Q 1172 725 1289 603 
Q 1406 481 1766 481 
L 2356 481 
L 2356 0 
L 1766 0 
Q 1100 0 847 248 
Q 594 497 594 1153 
L 594 3053 
L 172 3053 
L 172 3500 
L 594 3500 
L 594 4494 
L 1172 4494 
z
" transform="scale(0.015625)"/>
       <path id="DejaVuSans-20" transform="scale(0.015625)"/>
       <path id="DejaVuSans-6e" d="M 3513 2113 
L 3513 0 
L 2938 0 
L 2938 2094 
Q 2938 2591 2744 2837 
Q 2550 3084 2163 3084 
Q 1697 3084 1428 2787 
Q 1159 2491 1159 1978 
L 1159 0 
L 581 0 
L 581 3500 
L 1159 3500 
L 1159 2956 
Q 1366 3272 1645 3428 
Q 1925 3584 2291 3584 
Q 2894 3584 3203 3211 
Q 3513 2838 3513 2113 
z
" transform="scale(0.015625)"/>
       <path id="DejaVuSans-73" d="M 2834 3397 
L 2834 2853 
Q 2591 2978 2328 3040 
Q 2066 3103 1784 3103 
Q 1356 3103 1142 2972 
Q 928 2841 928 2578 
Q 928 2378 1081 2264 
Q 1234 2150 1697 2047 
L 1894 2003 
Q 2506 1872 2764 1633 
Q 3022 1394 3022 966 
Q 3022 478 2636 193 
Q 2250 -91 1575 -91 
Q 1294 -91 989 -36 
Q 684 19 347 128 
L 347 722 
Q 666 556 975 473 
Q 1284 391 1588 391 
Q 1994 391 2212 530 
Q 2431 669 2431 922 
Q 2431 1156 2273 1281 
Q 2116 1406 1581 1522 
L 1381 1569 
Q 847 1681 609 1914 
Q 372 2147 372 2553 
Q 372 3047 722 3315 
Q 1072 3584 1716 3584 
Q 2034 3584 2315 3537 
Q 2597 3491 2834 3397 
z
" transform="scale(0.015625)"/>
      </defs>
      <use xlink:href="#DejaVuSans-5a"/>
      <use xlink:href="#DejaVuSans-65" x="68.505859"/>
      <use xlink:href="#DejaVuSans-69" x="130.029297"/>
      <use xlink:href="#DejaVuSans-74" x="157.8125"/>
      <use xlink:href="#DejaVuSans-20" x="197.021484"/>
      <use xlink:href="#DejaVuSans-69" x="228.808594"/>
      <use xlink:href="#DejaVuSans-6e" x="256.591797"/>
      <use xlink:href="#DejaVuSans-20" x="319.970703"/>
      <use xlink:href="#DejaVuSans-73" x="351.757812"/>
     </g>
    </g>
   </g>
   <g id="matplotlib.axis_2">
    <g id="ytick_1">
     <g id="line2d_8">
      <defs>
       <path id="mb09ad13406" d="M 0 0 
L -3.5 0 
" style="stroke: #000000; stroke-width: 0.8"/>
      </defs>
      <g>
       <use xlink:href="#mb09ad13406" x="57.6" y="288.082839" style="stroke: #000000; stroke-width: 0.8"/>
      </g>
     </g>
     <g id="text_9">
      <!-- 1.5 -->
      <g transform="translate(34.696875 291.882058) scale(0.1 -0.1)">
       <defs>
        <path id="DejaVuSans-2e" d="M 684 794 
L 1344 794 
L 1344 0 
L 684 0 
L 684 794 
z
" transform="scale(0.015625)"/>
        <path id="DejaVuSans-35" d="M 691 4666 
L 3169 4666 
L 3169 4134 
L 1269 4134 
L 1269 2991 
Q 1406 3038 1543 3061 
Q 1681 3084 1819 3084 
Q 2600 3084 3056 2656 
Q 3513 2228 3513 1497 
Q 3513 744 3044 326 
Q 2575 -91 1722 -91 
Q 1428 -91 1123 -41 
Q 819 9 494 109 
L 494 744 
Q 775 591 1075 516 
Q 1375 441 1709 441 
Q 2250 441 2565 725 
Q 2881 1009 2881 1497 
Q 2881 1984 2565 2268 
Q 2250 2553 1709 2553 
Q 1456 2553 1204 2497 
Q 953 2441 691 2322 
L 691 4666 
z
" transform="scale(0.015625)"/>
       </defs>
       <use xlink:href="#DejaVuSans-31"/>
       <use xlink:href="#DejaVuSans-2e" x="63.623047"/>
       <use xlink:href="#DejaVuSans-35" x="95.410156"/>
      </g>
     </g>
    </g>
    <g id="ytick_2">
     <g id="line2d_9">
      <g>
       <use xlink:href="#mb09ad13406" x="57.6" y="255.117684" style="stroke: #000000; stroke-width: 0.8"/>
      </g>
     </g>
     <g id="text_10">
      <!-- 2.0 -->
      <g transform="translate(34.696875 258.916903) scale(0.1 -0.1)">
       <use xlink:href="#DejaVuSans-32"/>
       <use xlink:href="#DejaVuSans-2e" x="63.623047"/>
       <use xlink:href="#DejaVuSans-30" x="95.410156"/>
      </g>
     </g>
    </g>
    <g id="ytick_3">
     <g id="line2d_10">
      <g>
       <use xlink:href="#mb09ad13406" x="57.6" y="222.152529" style="stroke: #000000; stroke-width: 0.8"/>
      </g>
     </g>
     <g id="text_11">
      <!-- 2.5 -->
      <g transform="translate(34.696875 225.951748) scale(0.1 -0.1)">
       <use xlink:href="#DejaVuSans-32"/>
       <use xlink:href="#DejaVuSans-2e" x="63.623047"/>
       <use xlink:href="#DejaVuSans-35" x="95.410156"/>
      </g>
     </g>
    </g>
    <g id="ytick_4">
     <g id="line2d_11">
      <g>
       <use xlink:href="#mb09ad13406" x="57.6" y="189.187374" style="stroke: #000000; stroke-width: 0.8"/>
      </g>
     </g>
     <g id="text_12">
      <!-- 3.0 -->
      <g transform="translate(34.696875 192.986593) scale(0.1 -0.1)">
       <defs>
        <path id="DejaVuSans-33" d="M 2597 2516 
Q 3050 2419 3304 2112 
Q 3559 1806 3559 1356 
Q 3559 666 3084 287 
Q 2609 -91 1734 -91 
Q 1441 -91 1130 -33 
Q 819 25 488 141 
L 488 750 
Q 750 597 1062 519 
Q 1375 441 1716 441 
Q 2309 441 2620 675 
Q 2931 909 2931 1356 
Q 2931 1769 2642 2001 
Q 2353 2234 1838 2234 
L 1294 2234 
L 1294 2753 
L 1863 2753 
Q 2328 2753 2575 2939 
Q 2822 3125 2822 3475 
Q 2822 3834 2567 4026 
Q 2313 4219 1838 4219 
Q 1578 4219 1281 4162 
Q 984 4106 628 3988 
L 628 4550 
Q 988 4650 1302 4700 
Q 1616 4750 1894 4750 
Q 2613 4750 3031 4423 
Q 3450 4097 3450 3541 
Q 3450 3153 3228 2886 
Q 3006 2619 2597 2516 
z
" transform="scale(0.015625)"/>
       </defs>
       <use xlink:href="#DejaVuSans-33"/>
       <use xlink:href="#DejaVuSans-2e" x="63.623047"/>
       <use xlink:href="#DejaVuSans-30" x="95.410156"/>
      </g>
     </g>
    </g>
    <g id="ytick_5">
     <g id="line2d_12">
      <g>
       <use xlink:href="#mb09ad13406" x="57.6" y="156.222219" style="stroke: #000000; stroke-width: 0.8"/>
      </g>
     </g>
     <g id="text_13">
      <!-- 3.5 -->
      <g transform="translate(34.696875 160.021437) scale(0.1 -0.1)">
       <use xlink:href="#DejaVuSans-33"/>
       <use xlink:href="#DejaVuSans-2e" x="63.623047"/>
       <use xlink:href="#DejaVuSans-35" x="95.410156"/>
      </g>
     </g>
    </g>
    <g id="ytick_6">
     <g id="line2d_13">
      <g>
       <use xlink:href="#mb09ad13406" x="57.6" y="123.257063" style="stroke: #000000; stroke-width: 0.8"/>
      </g>
     </g>
     <g id="text_14">
      <!-- 4.0 -->
      <g transform="translate(34.696875 127.056282) scale(0.1 -0.1)">
       <use xlink:href="#DejaVuSans-34"/>
       <use xlink:href="#DejaVuSans-2e" x="63.623047"/>
       <use xlink:href="#DejaVuSans-30" x="95.410156"/>
      </g>
     </g>
    </g>
    <g id="ytick_7">
     <g id="line2d_14">
      <g>
       <use xlink:href="#mb09ad13406" x="57.6" y="90.291908" style="stroke: #000000; stroke-width: 0.8"/>
      </g>
     </g>
     <g id="text_15">
      <!-- 4.5 -->
      <g transform="translate(34.696875 94.091127) scale(0.1 -0.1)">
       <use xlink:href="#DejaVuSans-34"/>
       <use xlink:href="#DejaVuSans-2e" x="63.623047"/>
       <use xlink:href="#DejaVuSans-35" x="95.410156"/>
      </g>
     </g>
    </g>
    <g id="ytick_8">
     <g id="line2d_15">
      <g>
       <use xlink:href="#mb09ad13406" x="57.6" y="57.326753" style="stroke: #000000; stroke-width: 0.8"/>
      </g>
     </g>
     <g id="text_16">
      <!-- 5.0 -->
      <g transform="translate(34.696875 61.125972) scale(0.1 -0.1)">
       <use xlink:href="#DejaVuSans-35"/>
       <use xlink:href="#DejaVuSans-2e" x="63.623047"/>
       <use xlink:href="#DejaVuSans-30" x="95.410156"/>
      </g>
     </g>
    </g>
    <g id="text_17">
     <!-- Spannung in V -->
     <g transform="translate(28.617187 210.945969) rotate(-90) scale(0.1 -0.1)">
      <defs>
       <path id="DejaVuSans-53" d="M 3425 4513 
L 3425 3897 
Q 3066 4069 2747 4153 
Q 2428 4238 2131 4238 
Q 1616 4238 1336 4038 
Q 1056 3838 1056 3469 
Q 1056 3159 1242 3001 
Q 1428 2844 1947 2747 
L 2328 2669 
Q 3034 2534 3370 2195 
Q 3706 1856 3706 1288 
Q 3706 609 3251 259 
Q 2797 -91 1919 -91 
Q 1588 -91 1214 -16 
Q 841 59 441 206 
L 441 856 
Q 825 641 1194 531 
Q 1563 422 1919 422 
Q 2459 422 2753 634 
Q 3047 847 3047 1241 
Q 3047 1584 2836 1778 
Q 2625 1972 2144 2069 
L 1759 2144 
Q 1053 2284 737 2584 
Q 422 2884 422 3419 
Q 422 4038 858 4394 
Q 1294 4750 2059 4750 
Q 2388 4750 2728 4690 
Q 3069 4631 3425 4513 
z
" transform="scale(0.015625)"/>
       <path id="DejaVuSans-70" d="M 1159 525 
L 1159 -1331 
L 581 -1331 
L 581 3500 
L 1159 3500 
L 1159 2969 
Q 1341 3281 1617 3432 
Q 1894 3584 2278 3584 
Q 2916 3584 3314 3078 
Q 3713 2572 3713 1747 
Q 3713 922 3314 415 
Q 2916 -91 2278 -91 
Q 1894 -91 1617 61 
Q 1341 213 1159 525 
z
M 3116 1747 
Q 3116 2381 2855 2742 
Q 2594 3103 2138 3103 
Q 1681 3103 1420 2742 
Q 1159 2381 1159 1747 
Q 1159 1113 1420 752 
Q 1681 391 2138 391 
Q 2594 391 2855 752 
Q 3116 1113 3116 1747 
z
" transform="scale(0.015625)"/>
       <path id="DejaVuSans-61" d="M 2194 1759 
Q 1497 1759 1228 1600 
Q 959 1441 959 1056 
Q 959 750 1161 570 
Q 1363 391 1709 391 
Q 2188 391 2477 730 
Q 2766 1069 2766 1631 
L 2766 1759 
L 2194 1759 
z
M 3341 1997 
L 3341 0 
L 2766 0 
L 2766 531 
Q 2569 213 2275 61 
Q 1981 -91 1556 -91 
Q 1019 -91 701 211 
Q 384 513 384 1019 
Q 384 1609 779 1909 
Q 1175 2209 1959 2209 
L 2766 2209 
L 2766 2266 
Q 2766 2663 2505 2880 
Q 2244 3097 1772 3097 
Q 1472 3097 1187 3025 
Q 903 2953 641 2809 
L 641 3341 
Q 956 3463 1253 3523 
Q 1550 3584 1831 3584 
Q 2591 3584 2966 3190 
Q 3341 2797 3341 1997 
z
" transform="scale(0.015625)"/>
       <path id="DejaVuSans-75" d="M 544 1381 
L 544 3500 
L 1119 3500 
L 1119 1403 
Q 1119 906 1312 657 
Q 1506 409 1894 409 
Q 2359 409 2629 706 
Q 2900 1003 2900 1516 
L 2900 3500 
L 3475 3500 
L 3475 0 
L 2900 0 
L 2900 538 
Q 2691 219 2414 64 
Q 2138 -91 1772 -91 
Q 1169 -91 856 284 
Q 544 659 544 1381 
z
M 1991 3584 
L 1991 3584 
z
" transform="scale(0.015625)"/>
       <path id="DejaVuSans-67" d="M 2906 1791 
Q 2906 2416 2648 2759 
Q 2391 3103 1925 3103 
Q 1463 3103 1205 2759 
Q 947 2416 947 1791 
Q 947 1169 1205 825 
Q 1463 481 1925 481 
Q 2391 481 2648 825 
Q 2906 1169 2906 1791 
z
M 3481 434 
Q 3481 -459 3084 -895 
Q 2688 -1331 1869 -1331 
Q 1566 -1331 1297 -1286 
Q 1028 -1241 775 -1147 
L 775 -588 
Q 1028 -725 1275 -790 
Q 1522 -856 1778 -856 
Q 2344 -856 2625 -561 
Q 2906 -266 2906 331 
L 2906 616 
Q 2728 306 2450 153 
Q 2172 0 1784 0 
Q 1141 0 747 490 
Q 353 981 353 1791 
Q 353 2603 747 3093 
Q 1141 3584 1784 3584 
Q 2172 3584 2450 3431 
Q 2728 3278 2906 2969 
L 2906 3500 
L 3481 3500 
L 3481 434 
z
" transform="scale(0.015625)"/>
       <path id="DejaVuSans-56" d="M 1831 0 
L 50 4666 
L 709 4666 
L 2188 738 
L 3669 4666 
L 4325 4666 
L 2547 0 
L 1831 0 
z
" transform="scale(0.015625)"/>
      </defs>
      <use xlink:href="#DejaVuSans-53"/>
      <use xlink:href="#DejaVuSans-70" x="63.476562"/>
      <use xlink:href="#DejaVuSans-61" x="126.953125"/>
      <use xlink:href="#DejaVuSans-6e" x="188.232422"/>
      <use xlink:href="#DejaVuSans-6e" x="251.611328"/>
      <use xlink:href="#DejaVuSans-75" x="314.990234"/>
      <use xlink:href="#DejaVuSans-6e" x="378.369141"/>
      <use xlink:href="#DejaVuSans-67" x="441.748047"/>
      <use xlink:href="#DejaVuSans-20" x="505.224609"/>
      <use xlink:href="#DejaVuSans-69" x="537.011719"/>
      <use xlink:href="#DejaVuSans-6e" x="564.794922"/>
      <use xlink:href="#DejaVuSans-20" x="628.173828"/>
      <use xlink:href="#DejaVuSans-56" x="659.960938"/>
     </g>
    </g>
    <g id="text_18">
     <!-- 1e−6 -->
     <g transform="translate(57.6 38.472) scale(0.1 -0.1)">
      <defs>
       <path id="DejaVuSans-2212" d="M 678 2272 
L 4684 2272 
L 4684 1741 
L 678 1741 
L 678 2272 
z
" transform="scale(0.015625)"/>
      </defs>
      <use xlink:href="#DejaVuSans-31"/>
      <use xlink:href="#DejaVuSans-65" x="63.623047"/>
      <use xlink:href="#DejaVuSans-2212" x="125.146484"/>
      <use xlink:href="#DejaVuSans-36" x="208.935547"/>
     </g>
    </g>
   </g>
   <g id="line2d_16">
    <path d="M 73.832727 112.560134 
L 74.370012 112.560134 
L 74.504334 164.498516 
L 75.578904 164.498516 
L 75.713225 145.376353 
L 76.922117 145.376353 
L 77.056438 158.161163 
L 78.399651 158.161163 
L 78.533972 118.043228 
L 79.608543 118.043228 
L 79.742864 132.123108 
L 80.951755 132.123108 
L 81.086077 81.929769 
L 82.160647 81.929769 
L 82.294968 156.507961 
L 83.638181 156.507961 
L 83.772502 158.161229 
L 84.847073 158.161229 
L 84.981394 192.107098 
L 86.190285 192.107098 
L 86.324607 152.512716 
L 87.66782 152.512716 
L 87.802141 117.65747 
L 88.876711 117.65747 
L 89.011032 122.066032 
L 90.219924 122.066032 
L 90.354245 145.211 
L 91.428816 145.211 
L 91.563137 140.343233 
L 92.90635 140.343233 
L 93.040671 159.95216 
L 94.115241 159.95216 
L 94.249563 163.120771 
L 95.458454 163.120771 
L 95.592775 175.244366 
L 96.935988 175.244366 
L 97.07031 143.420069 
L 98.14488 143.420069 
L 98.279201 154.992552 
L 99.488093 154.992552 
L 99.622414 147.139791 
L 100.696984 147.139791 
L 100.831306 167.116082 
L 102.174518 167.116082 
L 102.30884 161.32984 
L 103.38341 161.32984 
L 103.517731 166.565036 
L 104.726623 166.565036 
L 104.860944 175.933206 
L 106.204157 175.933206 
L 106.338478 146.726474 
L 107.413048 146.726474 
L 107.54737 148.379676 
L 108.756261 148.379676 
L 108.890583 177.173091 
L 109.965153 177.173091 
L 110.099474 156.232438 
L 111.442687 156.232438 
L 111.577008 142.620993 
L 112.651579 142.620993 
L 112.7859 104.982895 
L 113.994791 104.982895 
L 114.129113 128.219704 
L 115.472326 128.219704 
L 115.606647 185.025853 
L 116.681217 185.025853 
L 116.815538 186.541327 
L 118.02443 186.541327 
L 118.158751 170.835804 
L 119.233322 170.835804 
L 119.367643 175.657683 
L 120.710856 175.657683 
L 120.845177 190.949889 
L 122.054069 190.949889 
L 122.18839 171.524644 
L 123.26296 171.524644 
L 123.397281 166.151719 
L 124.740494 166.151719 
L 124.874816 155.543598 
L 125.949386 155.543598 
L 126.083707 133.362993 
L 127.292599 133.362993 
L 127.42692 176.566928 
L 128.50149 176.566928 
L 128.635811 128.816637 
L 129.979024 128.816637 
L 130.113346 118.208582 
L 131.187916 118.208582 
L 131.322237 151.135036 
L 132.531129 151.135036 
L 132.66545 102.916376 
L 134.008663 102.916376 
L 134.142984 114.516418 
L 135.217554 114.516418 
L 135.351876 119.40258 
L 136.560767 119.40258 
L 136.695089 141.07796 
L 137.769659 141.07796 
L 137.90398 131.709791 
L 139.247193 131.709791 
L 139.381514 117.244219 
L 140.590406 117.244219 
L 140.724727 102.943935 
L 141.799297 102.943935 
L 141.933619 128.770749 
L 143.276832 128.770749 
L 143.411153 96.441294 
L 144.485723 96.441294 
L 144.620044 81.837928 
L 145.828936 81.837928 
L 145.963257 122.157939 
L 147.037828 122.157939 
L 147.172149 126.970588 
L 148.515362 126.970588 
L 148.649683 91.481621 
L 149.858574 91.481621 
L 149.992896 86.522013 
L 151.067466 86.522013 
L 151.201787 91.894938 
L 152.545 91.894938 
L 152.679321 93.272617 
L 153.753892 93.272617 
L 153.888213 77.980412 
L 155.097105 77.980412 
L 155.231426 60.75948 
L 156.305996 60.75948 
L 156.440317 103.054104 
L 157.78353 103.054104 
L 157.917852 87.348647 
L 159.126743 87.348647 
L 159.261064 74.536278 
L 160.335635 74.536278 
L 160.469956 113.937814 
L 161.813169 113.937814 
L 161.94749 115.315428 
L 163.02206 115.315428 
L 163.156382 61.723843 
L 164.365273 61.723843 
L 164.499595 109.115869 
L 165.574165 109.115869 
L 165.708486 114.957228 
L 167.051699 114.957228 
L 167.18602 106.360575 
L 168.394912 106.360575 
L 168.529233 91.665368 
L 169.603803 91.665368 
L 169.738125 79.909203 
L 171.081337 79.909203 
L 171.215659 69.852193 
L 172.290229 69.852193 
L 172.42455 107.324938 
L 173.633442 107.324938 
L 173.767763 53.568 
L 174.842333 53.568 
L 174.976655 103.742944 
L 176.319868 103.742944 
L 176.454189 107.600461 
L 177.66308 107.600461 
L 177.797402 147.828565 
L 178.871972 147.828565 
L 179.006293 155.222122 
L 180.349506 155.222122 
L 180.483827 101.180497 
L 181.558398 101.180497 
L 181.692719 147.690836 
L 182.901611 147.690836 
L 183.035932 93.575699 
L 184.110502 93.575699 
L 184.244823 132.536425 
L 185.588036 132.536425 
L 185.722358 138.735984 
L 186.796928 138.735984 
L 186.931249 127.080824 
L 188.140141 127.080824 
L 188.274462 134.46515 
L 189.617675 134.46515 
L 189.751996 155.405804 
L 190.826566 155.405804 
L 190.960888 147.277519 
L 192.169779 147.277519 
L 192.304101 132.260902 
L 193.378671 132.260902 
L 193.512992 127.439023 
L 194.856205 127.439023 
L 194.990526 176.208728 
L 196.065096 176.208728 
L 196.199418 132.123108 
L 197.408309 132.123108 
L 197.542631 154.193477 
L 198.617201 154.193477 
L 198.751522 143.557863 
L 200.094735 143.557863 
L 200.229056 168.080444 
L 201.437948 168.080444 
L 201.572269 161.880951 
L 202.646839 161.880951 
L 202.781161 164.636245 
L 204.124374 164.636245 
L 204.258695 162.34932 
L 205.333265 162.34932 
L 205.467586 165.876196 
L 206.676478 165.876196 
L 206.810799 138.543072 
L 207.88537 138.543072 
L 208.019691 180.066245 
L 209.362904 180.066245 
L 209.497225 177.861931 
L 210.571795 177.861931 
L 210.706117 179.377405 
L 211.915008 179.377405 
L 212.049329 189.939573 
L 213.392542 189.939573 
L 213.526864 173.921804 
L 214.601434 173.921804 
L 214.735755 159.95216 
L 215.944647 159.95216 
L 216.078968 170.146964 
L 217.153538 170.146964 
L 217.287859 182.68381 
L 218.631072 182.68381 
L 218.765394 163.671882 
L 219.839964 163.671882 
L 219.974285 145.762045 
L 221.183177 145.762045 
L 221.317498 171.27668 
L 222.392068 171.27668 
L 222.52639 153.752601 
L 223.869602 153.752601 
L 224.003924 167.116082 
L 225.212815 167.116082 
L 225.347137 185.714692 
L 226.421707 185.714692 
L 226.556028 160.641 
L 227.899241 160.641 
L 228.033562 172.268601 
L 229.108133 172.268601 
L 229.242454 162.569791 
L 230.451345 162.569791 
L 230.585667 163.451477 
L 231.660237 163.451477 
L 231.794558 141.7668 
L 233.137771 141.7668 
L 233.272092 145.853952 
L 234.346663 145.853952 
L 234.480984 207.206457 
L 235.689876 207.206457 
L 235.824197 195.082928 
L 237.16741 195.082928 
L 237.301731 183.510444 
L 238.376301 183.510444 
L 238.510622 160.503205 
L 239.719514 160.503205 
L 239.853835 181.168336 
L 240.928406 181.168336 
L 241.062727 149.619562 
L 242.40594 149.619562 
L 242.540261 135.84283 
L 243.614831 135.84283 
L 243.749153 184.979965 
L 244.958044 184.979965 
L 245.092365 177.669085 
L 246.166936 177.669085 
L 246.301257 165.325085 
L 247.64447 165.325085 
L 247.778791 160.503271 
L 248.987683 160.503271 
L 249.122004 190.398843 
L 250.196574 190.398843 
L 250.330896 183.923762 
L 251.674108 183.923762 
L 251.80843 174.913725 
L 252.883 174.913725 
L 253.017321 159.079638 
L 254.226213 159.079638 
L 254.360534 191.500934 
L 255.435104 191.500934 
L 255.569426 156.783549 
L 256.912639 156.783549 
L 257.04696 197.011653 
L 258.12153 197.011653 
L 258.255851 174.252444 
L 259.464743 174.252444 
L 259.599064 177.264932 
L 260.942277 177.264932 
L 261.076598 171.27668 
L 262.151169 171.27668 
L 262.28549 174.280003 
L 263.494381 174.280003 
L 263.628703 134.740673 
L 264.703273 134.740673 
L 264.837594 164.222928 
L 266.180807 164.222928 
L 266.315128 195.633974 
L 267.389699 195.633974 
L 267.52402 162.983042 
L 268.732912 162.983042 
L 268.867233 156.838601 
L 269.941803 156.838601 
L 270.076124 165.187356 
L 271.419337 165.187356 
L 271.553659 177.999725 
L 272.76255 177.999725 
L 272.896871 173.453369 
L 273.971442 173.453369 
L 274.105763 174.831049 
L 275.448976 174.831049 
L 275.583297 167.419163 
L 276.657867 167.419163 
L 276.792189 208.85966 
L 278.00108 208.85966 
L 278.135402 186.045333 
L 279.209972 186.045333 
L 279.344293 187.781212 
L 280.687506 187.781212 
L 280.821827 130.745428 
L 281.896397 130.745428 
L 282.030719 193.31949 
L 283.23961 193.31949 
L 283.373932 171.570597 
L 284.717144 171.570597 
L 284.851466 187.03732 
L 285.926036 187.03732 
L 286.060357 172.626801 
L 287.269249 172.626801 
L 287.40357 144.935477 
L 288.47814 144.935477 
L 288.612462 191.638729 
L 289.955675 191.638729 
L 290.089996 208.033026 
L 291.164566 208.033026 
L 291.298887 201.006898 
L 292.507779 201.006898 
L 292.6421 167.749804 
L 293.716671 167.749804 
L 293.850992 169.595852 
L 295.194205 169.595852 
L 295.328526 181.30613 
L 296.537418 181.30613 
L 296.671739 163.120837 
L 297.746309 163.120837 
L 297.88063 182.591969 
L 299.223843 182.591969 
L 299.358165 184.502366 
L 300.432735 184.502366 
L 300.567056 184.06149 
L 301.775948 184.06149 
L 301.910269 169.843882 
L 302.984839 169.843882 
L 303.11916 178.688565 
L 304.462373 178.688565 
L 304.596695 179.652928 
L 305.671265 179.652928 
L 305.805586 192.437738 
L 307.014478 192.437738 
L 307.148799 176.897568 
L 308.492012 176.897568 
L 308.626333 184.612601 
L 309.700903 184.612601 
L 309.835225 179.377405 
L 311.044116 179.377405 
L 311.178438 162.569725 
L 312.253008 162.569725 
L 312.387329 150.446196 
L 313.730542 150.446196 
L 313.864863 151.823876 
L 314.939434 151.823876 
L 315.073755 167.942716 
L 316.282646 167.942716 
L 316.416968 175.354601 
L 317.491538 175.354601 
L 317.625859 161.32984 
L 318.969072 161.32984 
L 319.103393 147.828565 
L 320.312285 147.828565 
L 320.446606 178.734519 
L 321.521177 178.734519 
L 321.655498 220.983189 
L 322.998711 220.983189 
L 323.133032 169.843882 
L 324.207602 169.843882 
L 324.341923 173.040118 
L 325.550815 173.040118 
L 325.685136 193.099019 
L 326.759707 193.099019 
L 326.894028 184.06149 
L 328.237241 184.06149 
L 328.371562 169.871441 
L 329.446132 169.871441 
L 329.580454 182.959333 
L 330.789345 182.959333 
L 330.923666 189.572209 
L 332.266879 189.572209 
L 332.401201 189.131333 
L 333.475771 189.131333 
L 333.610092 169.595918 
L 334.818984 169.595918 
L 334.953305 178.964088 
L 336.027875 178.964088 
L 336.162197 165.462879 
L 337.505409 165.462879 
L 337.639731 164.636245 
L 338.714301 164.636245 
L 338.848622 183.923762 
L 340.057514 183.923762 
L 340.191835 190.23349 
L 341.266405 190.23349 
L 341.400727 151.548353 
L 342.74394 151.548353 
L 342.878261 155.819121 
L 344.087152 155.819121 
L 344.221474 117.106425 
L 345.296044 117.106425 
L 345.430365 169.733647 
L 346.773578 169.733647 
L 346.907899 154.634353 
L 347.98247 154.634353 
L 348.116791 181.30613 
L 349.325682 181.30613 
L 349.460004 159.153151 
L 350.534574 159.153151 
L 350.668895 158.161163 
L 352.012108 158.161163 
L 352.146429 140.343233 
L 353.221 140.343233 
L 353.355321 161.136928 
L 354.564213 161.136928 
L 354.698534 189.021163 
L 356.041747 189.021163 
L 356.176068 175.134196 
L 357.250638 175.134196 
L 357.38496 183.648173 
L 358.593851 183.648173 
L 358.728172 175.244366 
L 359.802743 175.244366 
L 359.937064 170.009235 
L 361.280277 170.009235 
L 361.414598 205.690983 
L 362.489168 205.690983 
L 362.62349 155.268075 
L 363.832381 155.268075 
L 363.966703 177.999725 
L 365.041273 177.999725 
L 365.175594 165.18729 
L 366.518807 165.18729 
L 366.653128 195.358451 
L 367.86202 195.358451 
L 367.996341 164.360722 
L 369.070911 164.360722 
L 369.205233 132.123108 
L 370.548445 132.123108 
L 370.682767 130.717869 
L 371.757337 130.717869 
L 371.891658 220.615825 
L 373.10055 220.615825 
L 373.234871 140.967791 
L 374.309441 140.967791 
L 374.443763 151.915717 
L 375.786976 151.915717 
L 375.921297 150.446196 
L 376.995867 150.446196 
L 377.130188 155.295634 
L 378.33908 155.295634 
L 378.473401 125.280596 
L 379.816614 125.280596 
L 379.950935 154.303712 
L 381.025506 154.303712 
L 381.159827 156.921278 
L 382.368719 156.921278 
L 382.50304 150.58399 
L 383.57761 150.58399 
L 383.711931 146.864268 
L 385.055144 146.864268 
L 385.189466 186.449486 
L 386.264036 186.449486 
L 386.398357 158.436752 
L 387.607249 158.436752 
L 387.74157 136.008117 
L 388.81614 136.008117 
L 388.950462 148.792993 
L 390.293674 148.792993 
L 390.427996 194.118565 
L 391.636887 194.118565 
L 391.771208 177.999725 
L 392.845779 177.999725 
L 392.9801 160.503271 
L 394.323313 160.503271 
L 394.457634 193.842977 
L 395.532204 193.842977 
L 395.666526 218.778941 
L 396.875417 218.778941 
L 397.009739 175.106637 
L 398.352951 175.106637 
L 398.487273 295.488 
L 398.487273 295.488 
" clip-path="url(#p0cb1b99265)" style="fill: none; stroke: #1f77b4; stroke-width: 1.5; stroke-linecap: square"/>
   </g>
   <g id="patch_3">
    <path d="M 57.6 307.584 
L 57.6 41.472 
" style="fill: none; stroke: #000000; stroke-width: 0.8; stroke-linejoin: miter; stroke-linecap: square"/>
   </g>
   <g id="patch_4">
    <path d="M 414.72 307.584 
L 414.72 41.472 
" style="fill: none; stroke: #000000; stroke-width: 0.8; stroke-linejoin: miter; stroke-linecap: square"/>
   </g>
   <g id="patch_5">
    <path d="M 57.6 307.584 
L 414.72 307.584 
" style="fill: none; stroke: #000000; stroke-width: 0.8; stroke-linejoin: miter; stroke-linecap: square"/>
   </g>
   <g id="patch_6">
    <path d="M 57.6 41.472 
L 414.72 41.472 
" style="fill: none; stroke: #000000; stroke-width: 0.8; stroke-linejoin: miter; stroke-linecap: square"/>
   </g>
   <g id="legend_1">
    <g id="patch_7">
     <path d="M 322.004375 64.150125 
L 407.72 64.150125 
Q 409.72 64.150125 409.72 62.150125 
L 409.72 48.472 
Q 409.72 46.472 407.72 46.472 
L 322.004375 46.472 
Q 320.004375 46.472 320.004375 48.472 
L 320.004375 62.150125 
Q 320.004375 64.150125 322.004375 64.150125 
z
" style="fill: #ffffff; opacity: 0.8; stroke: #cccccc; stroke-linejoin: miter"/>
    </g>
    <g id="line2d_17">
     <path d="M 324.004375 54.570438 
L 334.004375 54.570438 
L 344.004375 54.570438 
" style="fill: none; stroke: #1f77b4; stroke-width: 1.5; stroke-linecap: square"/>
    </g>
    <g id="text_19">
     <!-- Messwerte -->
     <g transform="translate(352.004375 58.070438) scale(0.1 -0.1)">
      <defs>
       <path id="DejaVuSans-4d" d="M 628 4666 
L 1569 4666 
L 2759 1491 
L 3956 4666 
L 4897 4666 
L 4897 0 
L 4281 0 
L 4281 4097 
L 3078 897 
L 2444 897 
L 1241 4097 
L 1241 0 
L 628 0 
L 628 4666 
z
" transform="scale(0.015625)"/>
       <path id="DejaVuSans-77" d="M 269 3500 
L 844 3500 
L 1563 769 
L 2278 3500 
L 2956 3500 
L 3675 769 
L 4391 3500 
L 4966 3500 
L 4050 0 
L 3372 0 
L 2619 2869 
L 1863 0 
L 1184 0 
L 269 3500 
z
" transform="scale(0.015625)"/>
       <path id="DejaVuSans-72" d="M 2631 2963 
Q 2534 3019 2420 3045 
Q 2306 3072 2169 3072 
Q 1681 3072 1420 2755 
Q 1159 2438 1159 1844 
L 1159 0 
L 581 0 
L 581 3500 
L 1159 3500 
L 1159 2956 
Q 1341 3275 1631 3429 
Q 1922 3584 2338 3584 
Q 2397 3584 2469 3576 
Q 2541 3569 2628 3553 
L 2631 2963 
z
" transform="scale(0.015625)"/>
      </defs>
      <use xlink:href="#DejaVuSans-4d"/>
      <use xlink:href="#DejaVuSans-65" x="86.279297"/>
      <use xlink:href="#DejaVuSans-73" x="147.802734"/>
      <use xlink:href="#DejaVuSans-73" x="199.902344"/>
      <use xlink:href="#DejaVuSans-77" x="252.001953"/>
      <use xlink:href="#DejaVuSans-65" x="333.789062"/>
      <use xlink:href="#DejaVuSans-72" x="395.3125"/>
      <use xlink:href="#DejaVuSans-74" x="436.425781"/>
      <use xlink:href="#DejaVuSans-65" x="475.634766"/>
     </g>
    </g>
   </g>
  </g>
 </g>
 <defs>
  <clipPath id="p0cb1b99265">
   <rect x="57.6" y="41.472" width="357.12" height="266.112"/>
  </clipPath>
 </defs>
</svg>
