<?xml version="1.0" encoding="utf-8" standalone="no"?>
<!DOCTYPE svg PUBLIC "-//W3C//DTD SVG 1.1//EN"
  "http://www.w3.org/Graphics/SVG/1.1/DTD/svg11.dtd">
<svg xmlns:xlink="http://www.w3.org/1999/xlink" width="408.10125pt" height="321.466687pt" viewBox="0 0 408.10125 321.466687" xmlns="http://www.w3.org/2000/svg" version="1.1">
 <metadata>
  <rdf:RDF xmlns:dc="http://purl.org/dc/elements/1.1/" xmlns:cc="http://creativecommons.org/ns#" xmlns:rdf="http://www.w3.org/1999/02/22-rdf-syntax-ns#">
   <cc:Work>
    <dc:type rdf:resource="http://purl.org/dc/dcmitype/StillImage"/>
    <dc:date>2024-07-12T15:37:45.901572</dc:date>
    <dc:format>image/svg+xml</dc:format>
    <dc:creator>
     <cc:Agent>
      <dc:title>Matplotlib v3.8.2, https://matplotlib.org/</dc:title>
     </cc:Agent>
    </dc:creator>
   </cc:Work>
  </rdf:RDF>
 </metadata>
 <defs>
  <style type="text/css">*{stroke-linejoin: round; stroke-linecap: butt}</style>
 </defs>
 <g id="figure_1">
  <g id="patch_1">
   <path d="M 0 321.466687 
L 408.10125 321.466687 
L 408.10125 0 
L 0 0 
z
" style="fill: #ffffff"/>
  </g>
  <g id="axes_1">
   <g id="patch_2">
    <path d="M 43.78125 283.910437 
L 400.90125 283.910437 
L 400.90125 17.798437 
L 43.78125 17.798437 
z
" style="fill: #ffffff"/>
   </g>
   <g id="matplotlib.axis_1">
    <g id="xtick_1">
     <g id="line2d_1">
      <defs>
       <path id="mc5976a7541" d="M 0 0 
L 0 3.5 
" style="stroke: #000000; stroke-width: 0.8"/>
      </defs>
      <g>
       <use xlink:href="#mc5976a7541" x="60.00226" y="283.910437" style="stroke: #000000; stroke-width: 0.8"/>
      </g>
     </g>
     <g id="text_1">
      <!-- 0 -->
      <g transform="translate(56.82101 298.508875) scale(0.1 -0.1)">
       <defs>
        <path id="DejaVuSans-30" d="M 2034 4250 
Q 1547 4250 1301 3770 
Q 1056 3291 1056 2328 
Q 1056 1369 1301 889 
Q 1547 409 2034 409 
Q 2525 409 2770 889 
Q 3016 1369 3016 2328 
Q 3016 3291 2770 3770 
Q 2525 4250 2034 4250 
z
M 2034 4750 
Q 2819 4750 3233 4129 
Q 3647 3509 3647 2328 
Q 3647 1150 3233 529 
Q 2819 -91 2034 -91 
Q 1250 -91 836 529 
Q 422 1150 422 2328 
Q 422 3509 836 4129 
Q 1250 4750 2034 4750 
z
" transform="scale(0.015625)"/>
       </defs>
       <use xlink:href="#DejaVuSans-30"/>
      </g>
     </g>
    </g>
    <g id="xtick_2">
     <g id="line2d_2">
      <g>
       <use xlink:href="#mc5976a7541" x="126.237419" y="283.910437" style="stroke: #000000; stroke-width: 0.8"/>
      </g>
     </g>
     <g id="text_2">
      <!-- 50 -->
      <g transform="translate(119.874919 298.508875) scale(0.1 -0.1)">
       <defs>
        <path id="DejaVuSans-35" d="M 691 4666 
L 3169 4666 
L 3169 4134 
L 1269 4134 
L 1269 2991 
Q 1406 3038 1543 3061 
Q 1681 3084 1819 3084 
Q 2600 3084 3056 2656 
Q 3513 2228 3513 1497 
Q 3513 744 3044 326 
Q 2575 -91 1722 -91 
Q 1428 -91 1123 -41 
Q 819 9 494 109 
L 494 744 
Q 775 591 1075 516 
Q 1375 441 1709 441 
Q 2250 441 2565 725 
Q 2881 1009 2881 1497 
Q 2881 1984 2565 2268 
Q 2250 2553 1709 2553 
Q 1456 2553 1204 2497 
Q 953 2441 691 2322 
L 691 4666 
z
" transform="scale(0.015625)"/>
       </defs>
       <use xlink:href="#DejaVuSans-35"/>
       <use xlink:href="#DejaVuSans-30" x="63.623047"/>
      </g>
     </g>
    </g>
    <g id="xtick_3">
     <g id="line2d_3">
      <g>
       <use xlink:href="#mc5976a7541" x="192.472579" y="283.910437" style="stroke: #000000; stroke-width: 0.8"/>
      </g>
     </g>
     <g id="text_3">
      <!-- 100 -->
      <g transform="translate(182.928829 298.508875) scale(0.1 -0.1)">
       <defs>
        <path id="DejaVuSans-31" d="M 794 531 
L 1825 531 
L 1825 4091 
L 703 3866 
L 703 4441 
L 1819 4666 
L 2450 4666 
L 2450 531 
L 3481 531 
L 3481 0 
L 794 0 
L 794 531 
z
" transform="scale(0.015625)"/>
       </defs>
       <use xlink:href="#DejaVuSans-31"/>
       <use xlink:href="#DejaVuSans-30" x="63.623047"/>
       <use xlink:href="#DejaVuSans-30" x="127.246094"/>
      </g>
     </g>
    </g>
    <g id="xtick_4">
     <g id="line2d_4">
      <g>
       <use xlink:href="#mc5976a7541" x="258.707738" y="283.910437" style="stroke: #000000; stroke-width: 0.8"/>
      </g>
     </g>
     <g id="text_4">
      <!-- 150 -->
      <g transform="translate(249.163988 298.508875) scale(0.1 -0.1)">
       <use xlink:href="#DejaVuSans-31"/>
       <use xlink:href="#DejaVuSans-35" x="63.623047"/>
       <use xlink:href="#DejaVuSans-30" x="127.246094"/>
      </g>
     </g>
    </g>
    <g id="xtick_5">
     <g id="line2d_5">
      <g>
       <use xlink:href="#mc5976a7541" x="324.942897" y="283.910437" style="stroke: #000000; stroke-width: 0.8"/>
      </g>
     </g>
     <g id="text_5">
      <!-- 200 -->
      <g transform="translate(315.399147 298.508875) scale(0.1 -0.1)">
       <defs>
        <path id="DejaVuSans-32" d="M 1228 531 
L 3431 531 
L 3431 0 
L 469 0 
L 469 531 
Q 828 903 1448 1529 
Q 2069 2156 2228 2338 
Q 2531 2678 2651 2914 
Q 2772 3150 2772 3378 
Q 2772 3750 2511 3984 
Q 2250 4219 1831 4219 
Q 1534 4219 1204 4116 
Q 875 4013 500 3803 
L 500 4441 
Q 881 4594 1212 4672 
Q 1544 4750 1819 4750 
Q 2544 4750 2975 4387 
Q 3406 4025 3406 3419 
Q 3406 3131 3298 2873 
Q 3191 2616 2906 2266 
Q 2828 2175 2409 1742 
Q 1991 1309 1228 531 
z
" transform="scale(0.015625)"/>
       </defs>
       <use xlink:href="#DejaVuSans-32"/>
       <use xlink:href="#DejaVuSans-30" x="63.623047"/>
       <use xlink:href="#DejaVuSans-30" x="127.246094"/>
      </g>
     </g>
    </g>
    <g id="xtick_6">
     <g id="line2d_6">
      <g>
       <use xlink:href="#mc5976a7541" x="391.178056" y="283.910437" style="stroke: #000000; stroke-width: 0.8"/>
      </g>
     </g>
     <g id="text_6">
      <!-- 250 -->
      <g transform="translate(381.634306 298.508875) scale(0.1 -0.1)">
       <use xlink:href="#DejaVuSans-32"/>
       <use xlink:href="#DejaVuSans-35" x="63.623047"/>
       <use xlink:href="#DejaVuSans-30" x="127.246094"/>
      </g>
     </g>
    </g>
    <g id="text_7">
     <!-- Zeit in s -->
     <g transform="translate(202.149844 312.187) scale(0.1 -0.1)">
      <defs>
       <path id="DejaVuSans-5a" d="M 359 4666 
L 4025 4666 
L 4025 4184 
L 1075 531 
L 4097 531 
L 4097 0 
L 288 0 
L 288 481 
L 3238 4134 
L 359 4134 
L 359 4666 
z
" transform="scale(0.015625)"/>
       <path id="DejaVuSans-65" d="M 3597 1894 
L 3597 1613 
L 953 1613 
Q 991 1019 1311 708 
Q 1631 397 2203 397 
Q 2534 397 2845 478 
Q 3156 559 3463 722 
L 3463 178 
Q 3153 47 2828 -22 
Q 2503 -91 2169 -91 
Q 1331 -91 842 396 
Q 353 884 353 1716 
Q 353 2575 817 3079 
Q 1281 3584 2069 3584 
Q 2775 3584 3186 3129 
Q 3597 2675 3597 1894 
z
M 3022 2063 
Q 3016 2534 2758 2815 
Q 2500 3097 2075 3097 
Q 1594 3097 1305 2825 
Q 1016 2553 972 2059 
L 3022 2063 
z
" transform="scale(0.015625)"/>
       <path id="DejaVuSans-69" d="M 603 3500 
L 1178 3500 
L 1178 0 
L 603 0 
L 603 3500 
z
M 603 4863 
L 1178 4863 
L 1178 4134 
L 603 4134 
L 603 4863 
z
" transform="scale(0.015625)"/>
       <path id="DejaVuSans-74" d="M 1172 4494 
L 1172 3500 
L 2356 3500 
L 2356 3053 
L 1172 3053 
L 1172 1153 
Q 1172 725 1289 603 
Q 1406 481 1766 481 
L 2356 481 
L 2356 0 
L 1766 0 
Q 1100 0 847 248 
Q 594 497 594 1153 
L 594 3053 
L 172 3053 
L 172 3500 
L 594 3500 
L 594 4494 
L 1172 4494 
z
" transform="scale(0.015625)"/>
       <path id="DejaVuSans-20" transform="scale(0.015625)"/>
       <path id="DejaVuSans-6e" d="M 3513 2113 
L 3513 0 
L 2938 0 
L 2938 2094 
Q 2938 2591 2744 2837 
Q 2550 3084 2163 3084 
Q 1697 3084 1428 2787 
Q 1159 2491 1159 1978 
L 1159 0 
L 581 0 
L 581 3500 
L 1159 3500 
L 1159 2956 
Q 1366 3272 1645 3428 
Q 1925 3584 2291 3584 
Q 2894 3584 3203 3211 
Q 3513 2838 3513 2113 
z
" transform="scale(0.015625)"/>
       <path id="DejaVuSans-73" d="M 2834 3397 
L 2834 2853 
Q 2591 2978 2328 3040 
Q 2066 3103 1784 3103 
Q 1356 3103 1142 2972 
Q 928 2841 928 2578 
Q 928 2378 1081 2264 
Q 1234 2150 1697 2047 
L 1894 2003 
Q 2506 1872 2764 1633 
Q 3022 1394 3022 966 
Q 3022 478 2636 193 
Q 2250 -91 1575 -91 
Q 1294 -91 989 -36 
Q 684 19 347 128 
L 347 722 
Q 666 556 975 473 
Q 1284 391 1588 391 
Q 1994 391 2212 530 
Q 2431 669 2431 922 
Q 2431 1156 2273 1281 
Q 2116 1406 1581 1522 
L 1381 1569 
Q 847 1681 609 1914 
Q 372 2147 372 2553 
Q 372 3047 722 3315 
Q 1072 3584 1716 3584 
Q 2034 3584 2315 3537 
Q 2597 3491 2834 3397 
z
" transform="scale(0.015625)"/>
      </defs>
      <use xlink:href="#DejaVuSans-5a"/>
      <use xlink:href="#DejaVuSans-65" x="68.505859"/>
      <use xlink:href="#DejaVuSans-69" x="130.029297"/>
      <use xlink:href="#DejaVuSans-74" x="157.8125"/>
      <use xlink:href="#DejaVuSans-20" x="197.021484"/>
      <use xlink:href="#DejaVuSans-69" x="228.808594"/>
      <use xlink:href="#DejaVuSans-6e" x="256.591797"/>
      <use xlink:href="#DejaVuSans-20" x="319.970703"/>
      <use xlink:href="#DejaVuSans-73" x="351.757812"/>
     </g>
    </g>
   </g>
   <g id="matplotlib.axis_2">
    <g id="ytick_1">
     <g id="line2d_7">
      <defs>
       <path id="m5702bdbc71" d="M 0 0 
L -3.5 0 
" style="stroke: #000000; stroke-width: 0.8"/>
      </defs>
      <g>
       <use xlink:href="#m5702bdbc71" x="43.78125" y="264.409277" style="stroke: #000000; stroke-width: 0.8"/>
      </g>
     </g>
     <g id="text_8">
      <!-- 1.5 -->
      <g transform="translate(20.878125 268.208496) scale(0.1 -0.1)">
       <defs>
        <path id="DejaVuSans-2e" d="M 684 794 
L 1344 794 
L 1344 0 
L 684 0 
L 684 794 
z
" transform="scale(0.015625)"/>
       </defs>
       <use xlink:href="#DejaVuSans-31"/>
       <use xlink:href="#DejaVuSans-2e" x="63.623047"/>
       <use xlink:href="#DejaVuSans-35" x="95.410156"/>
      </g>
     </g>
    </g>
    <g id="ytick_2">
     <g id="line2d_8">
      <g>
       <use xlink:href="#m5702bdbc71" x="43.78125" y="231.444122" style="stroke: #000000; stroke-width: 0.8"/>
      </g>
     </g>
     <g id="text_9">
      <!-- 2.0 -->
      <g transform="translate(20.878125 235.24334) scale(0.1 -0.1)">
       <use xlink:href="#DejaVuSans-32"/>
       <use xlink:href="#DejaVuSans-2e" x="63.623047"/>
       <use xlink:href="#DejaVuSans-30" x="95.410156"/>
      </g>
     </g>
    </g>
    <g id="ytick_3">
     <g id="line2d_9">
      <g>
       <use xlink:href="#m5702bdbc71" x="43.78125" y="198.478966" style="stroke: #000000; stroke-width: 0.8"/>
      </g>
     </g>
     <g id="text_10">
      <!-- 2.5 -->
      <g transform="translate(20.878125 202.278185) scale(0.1 -0.1)">
       <use xlink:href="#DejaVuSans-32"/>
       <use xlink:href="#DejaVuSans-2e" x="63.623047"/>
       <use xlink:href="#DejaVuSans-35" x="95.410156"/>
      </g>
     </g>
    </g>
    <g id="ytick_4">
     <g id="line2d_10">
      <g>
       <use xlink:href="#m5702bdbc71" x="43.78125" y="165.513811" style="stroke: #000000; stroke-width: 0.8"/>
      </g>
     </g>
     <g id="text_11">
      <!-- 3.0 -->
      <g transform="translate(20.878125 169.31303) scale(0.1 -0.1)">
       <defs>
        <path id="DejaVuSans-33" d="M 2597 2516 
Q 3050 2419 3304 2112 
Q 3559 1806 3559 1356 
Q 3559 666 3084 287 
Q 2609 -91 1734 -91 
Q 1441 -91 1130 -33 
Q 819 25 488 141 
L 488 750 
Q 750 597 1062 519 
Q 1375 441 1716 441 
Q 2309 441 2620 675 
Q 2931 909 2931 1356 
Q 2931 1769 2642 2001 
Q 2353 2234 1838 2234 
L 1294 2234 
L 1294 2753 
L 1863 2753 
Q 2328 2753 2575 2939 
Q 2822 3125 2822 3475 
Q 2822 3834 2567 4026 
Q 2313 4219 1838 4219 
Q 1578 4219 1281 4162 
Q 984 4106 628 3988 
L 628 4550 
Q 988 4650 1302 4700 
Q 1616 4750 1894 4750 
Q 2613 4750 3031 4423 
Q 3450 4097 3450 3541 
Q 3450 3153 3228 2886 
Q 3006 2619 2597 2516 
z
" transform="scale(0.015625)"/>
       </defs>
       <use xlink:href="#DejaVuSans-33"/>
       <use xlink:href="#DejaVuSans-2e" x="63.623047"/>
       <use xlink:href="#DejaVuSans-30" x="95.410156"/>
      </g>
     </g>
    </g>
    <g id="ytick_5">
     <g id="line2d_11">
      <g>
       <use xlink:href="#m5702bdbc71" x="43.78125" y="132.548656" style="stroke: #000000; stroke-width: 0.8"/>
      </g>
     </g>
     <g id="text_12">
      <!-- 3.5 -->
      <g transform="translate(20.878125 136.347875) scale(0.1 -0.1)">
       <use xlink:href="#DejaVuSans-33"/>
       <use xlink:href="#DejaVuSans-2e" x="63.623047"/>
       <use xlink:href="#DejaVuSans-35" x="95.410156"/>
      </g>
     </g>
    </g>
    <g id="ytick_6">
     <g id="line2d_12">
      <g>
       <use xlink:href="#m5702bdbc71" x="43.78125" y="99.583501" style="stroke: #000000; stroke-width: 0.8"/>
      </g>
     </g>
     <g id="text_13">
      <!-- 4.0 -->
      <g transform="translate(20.878125 103.38272) scale(0.1 -0.1)">
       <defs>
        <path id="DejaVuSans-34" d="M 2419 4116 
L 825 1625 
L 2419 1625 
L 2419 4116 
z
M 2253 4666 
L 3047 4666 
L 3047 1625 
L 3713 1625 
L 3713 1100 
L 3047 1100 
L 3047 0 
L 2419 0 
L 2419 1100 
L 313 1100 
L 313 1709 
L 2253 4666 
z
" transform="scale(0.015625)"/>
       </defs>
       <use xlink:href="#DejaVuSans-34"/>
       <use xlink:href="#DejaVuSans-2e" x="63.623047"/>
       <use xlink:href="#DejaVuSans-30" x="95.410156"/>
      </g>
     </g>
    </g>
    <g id="ytick_7">
     <g id="line2d_13">
      <g>
       <use xlink:href="#m5702bdbc71" x="43.78125" y="66.618346" style="stroke: #000000; stroke-width: 0.8"/>
      </g>
     </g>
     <g id="text_14">
      <!-- 4.5 -->
      <g transform="translate(20.878125 70.417564) scale(0.1 -0.1)">
       <use xlink:href="#DejaVuSans-34"/>
       <use xlink:href="#DejaVuSans-2e" x="63.623047"/>
       <use xlink:href="#DejaVuSans-35" x="95.410156"/>
      </g>
     </g>
    </g>
    <g id="ytick_8">
     <g id="line2d_14">
      <g>
       <use xlink:href="#m5702bdbc71" x="43.78125" y="33.65319" style="stroke: #000000; stroke-width: 0.8"/>
      </g>
     </g>
     <g id="text_15">
      <!-- 5.0 -->
      <g transform="translate(20.878125 37.452409) scale(0.1 -0.1)">
       <use xlink:href="#DejaVuSans-35"/>
       <use xlink:href="#DejaVuSans-2e" x="63.623047"/>
       <use xlink:href="#DejaVuSans-30" x="95.410156"/>
      </g>
     </g>
    </g>
    <g id="text_16">
     <!-- Spannung in V -->
     <g transform="translate(14.798438 187.272406) rotate(-90) scale(0.1 -0.1)">
      <defs>
       <path id="DejaVuSans-53" d="M 3425 4513 
L 3425 3897 
Q 3066 4069 2747 4153 
Q 2428 4238 2131 4238 
Q 1616 4238 1336 4038 
Q 1056 3838 1056 3469 
Q 1056 3159 1242 3001 
Q 1428 2844 1947 2747 
L 2328 2669 
Q 3034 2534 3370 2195 
Q 3706 1856 3706 1288 
Q 3706 609 3251 259 
Q 2797 -91 1919 -91 
Q 1588 -91 1214 -16 
Q 841 59 441 206 
L 441 856 
Q 825 641 1194 531 
Q 1563 422 1919 422 
Q 2459 422 2753 634 
Q 3047 847 3047 1241 
Q 3047 1584 2836 1778 
Q 2625 1972 2144 2069 
L 1759 2144 
Q 1053 2284 737 2584 
Q 422 2884 422 3419 
Q 422 4038 858 4394 
Q 1294 4750 2059 4750 
Q 2388 4750 2728 4690 
Q 3069 4631 3425 4513 
z
" transform="scale(0.015625)"/>
       <path id="DejaVuSans-70" d="M 1159 525 
L 1159 -1331 
L 581 -1331 
L 581 3500 
L 1159 3500 
L 1159 2969 
Q 1341 3281 1617 3432 
Q 1894 3584 2278 3584 
Q 2916 3584 3314 3078 
Q 3713 2572 3713 1747 
Q 3713 922 3314 415 
Q 2916 -91 2278 -91 
Q 1894 -91 1617 61 
Q 1341 213 1159 525 
z
M 3116 1747 
Q 3116 2381 2855 2742 
Q 2594 3103 2138 3103 
Q 1681 3103 1420 2742 
Q 1159 2381 1159 1747 
Q 1159 1113 1420 752 
Q 1681 391 2138 391 
Q 2594 391 2855 752 
Q 3116 1113 3116 1747 
z
" transform="scale(0.015625)"/>
       <path id="DejaVuSans-61" d="M 2194 1759 
Q 1497 1759 1228 1600 
Q 959 1441 959 1056 
Q 959 750 1161 570 
Q 1363 391 1709 391 
Q 2188 391 2477 730 
Q 2766 1069 2766 1631 
L 2766 1759 
L 2194 1759 
z
M 3341 1997 
L 3341 0 
L 2766 0 
L 2766 531 
Q 2569 213 2275 61 
Q 1981 -91 1556 -91 
Q 1019 -91 701 211 
Q 384 513 384 1019 
Q 384 1609 779 1909 
Q 1175 2209 1959 2209 
L 2766 2209 
L 2766 2266 
Q 2766 2663 2505 2880 
Q 2244 3097 1772 3097 
Q 1472 3097 1187 3025 
Q 903 2953 641 2809 
L 641 3341 
Q 956 3463 1253 3523 
Q 1550 3584 1831 3584 
Q 2591 3584 2966 3190 
Q 3341 2797 3341 1997 
z
" transform="scale(0.015625)"/>
       <path id="DejaVuSans-75" d="M 544 1381 
L 544 3500 
L 1119 3500 
L 1119 1403 
Q 1119 906 1312 657 
Q 1506 409 1894 409 
Q 2359 409 2629 706 
Q 2900 1003 2900 1516 
L 2900 3500 
L 3475 3500 
L 3475 0 
L 2900 0 
L 2900 538 
Q 2691 219 2414 64 
Q 2138 -91 1772 -91 
Q 1169 -91 856 284 
Q 544 659 544 1381 
z
M 1991 3584 
L 1991 3584 
z
" transform="scale(0.015625)"/>
       <path id="DejaVuSans-67" d="M 2906 1791 
Q 2906 2416 2648 2759 
Q 2391 3103 1925 3103 
Q 1463 3103 1205 2759 
Q 947 2416 947 1791 
Q 947 1169 1205 825 
Q 1463 481 1925 481 
Q 2391 481 2648 825 
Q 2906 1169 2906 1791 
z
M 3481 434 
Q 3481 -459 3084 -895 
Q 2688 -1331 1869 -1331 
Q 1566 -1331 1297 -1286 
Q 1028 -1241 775 -1147 
L 775 -588 
Q 1028 -725 1275 -790 
Q 1522 -856 1778 -856 
Q 2344 -856 2625 -561 
Q 2906 -266 2906 331 
L 2906 616 
Q 2728 306 2450 153 
Q 2172 0 1784 0 
Q 1141 0 747 490 
Q 353 981 353 1791 
Q 353 2603 747 3093 
Q 1141 3584 1784 3584 
Q 2172 3584 2450 3431 
Q 2728 3278 2906 2969 
L 2906 3500 
L 3481 3500 
L 3481 434 
z
" transform="scale(0.015625)"/>
       <path id="DejaVuSans-56" d="M 1831 0 
L 50 4666 
L 709 4666 
L 2188 738 
L 3669 4666 
L 4325 4666 
L 2547 0 
L 1831 0 
z
" transform="scale(0.015625)"/>
      </defs>
      <use xlink:href="#DejaVuSans-53"/>
      <use xlink:href="#DejaVuSans-70" x="63.476562"/>
      <use xlink:href="#DejaVuSans-61" x="126.953125"/>
      <use xlink:href="#DejaVuSans-6e" x="188.232422"/>
      <use xlink:href="#DejaVuSans-6e" x="251.611328"/>
      <use xlink:href="#DejaVuSans-75" x="314.990234"/>
      <use xlink:href="#DejaVuSans-6e" x="378.369141"/>
      <use xlink:href="#DejaVuSans-67" x="441.748047"/>
      <use xlink:href="#DejaVuSans-20" x="505.224609"/>
      <use xlink:href="#DejaVuSans-69" x="537.011719"/>
      <use xlink:href="#DejaVuSans-6e" x="564.794922"/>
      <use xlink:href="#DejaVuSans-20" x="628.173828"/>
      <use xlink:href="#DejaVuSans-56" x="659.960938"/>
     </g>
    </g>
    <g id="text_17">
     <!-- 1e−6 -->
     <g transform="translate(43.78125 14.798437) scale(0.1 -0.1)">
      <defs>
       <path id="DejaVuSans-2212" d="M 678 2272 
L 4684 2272 
L 4684 1741 
L 678 1741 
L 678 2272 
z
" transform="scale(0.015625)"/>
       <path id="DejaVuSans-36" d="M 2113 2584 
Q 1688 2584 1439 2293 
Q 1191 2003 1191 1497 
Q 1191 994 1439 701 
Q 1688 409 2113 409 
Q 2538 409 2786 701 
Q 3034 994 3034 1497 
Q 3034 2003 2786 2293 
Q 2538 2584 2113 2584 
z
M 3366 4563 
L 3366 3988 
Q 3128 4100 2886 4159 
Q 2644 4219 2406 4219 
Q 1781 4219 1451 3797 
Q 1122 3375 1075 2522 
Q 1259 2794 1537 2939 
Q 1816 3084 2150 3084 
Q 2853 3084 3261 2657 
Q 3669 2231 3669 1497 
Q 3669 778 3244 343 
Q 2819 -91 2113 -91 
Q 1303 -91 875 529 
Q 447 1150 447 2328 
Q 447 3434 972 4092 
Q 1497 4750 2381 4750 
Q 2619 4750 2861 4703 
Q 3103 4656 3366 4563 
z
" transform="scale(0.015625)"/>
      </defs>
      <use xlink:href="#DejaVuSans-31"/>
      <use xlink:href="#DejaVuSans-65" x="63.623047"/>
      <use xlink:href="#DejaVuSans-2212" x="125.146484"/>
      <use xlink:href="#DejaVuSans-36" x="208.935547"/>
     </g>
    </g>
   </g>
   <g id="line2d_15">
    <path d="M 60.013977 88.886572 
L 60.547201 88.886572 
L 60.681437 140.824954 
L 61.752212 140.824954 
L 61.885437 121.70279 
L 63.091709 121.70279 
L 63.226324 134.487601 
L 64.564681 134.487601 
L 64.698968 94.369666 
L 65.775448 94.369666 
L 65.909823 108.449545 
L 67.120305 108.449545 
L 67.254629 58.256207 
L 68.329488 58.256207 
L 68.463735 132.834398 
L 69.8083 132.834398 
L 69.942552 134.487666 
L 71.017871 134.487666 
L 71.152308 168.433535 
L 72.362397 168.433535 
L 72.496834 128.839153 
L 73.844185 128.839153 
L 73.978491 93.983908 
L 75.054426 93.983908 
L 75.188678 98.39247 
L 76.398738 98.39247 
L 76.533117 121.537437 
L 77.609617 121.537437 
L 77.744373 116.66967 
L 79.088576 116.66967 
L 79.22305 136.278597 
L 80.298572 136.278597 
L 80.433033 139.447208 
L 81.644215 139.447208 
L 81.778755 151.570803 
L 83.124433 151.570803 
L 83.259299 119.746506 
L 84.335284 119.746506 
L 84.469636 131.31899 
L 85.680176 131.31899 
L 85.814535 123.466228 
L 86.889661 123.466228 
L 87.024425 143.442519 
L 88.369894 143.442519 
L 88.504344 137.656277 
L 89.579609 137.656277 
L 89.713938 142.891474 
L 90.923753 142.891474 
L 91.057973 152.259643 
L 92.402515 152.259643 
L 92.536989 123.052911 
L 93.613488 123.052911 
L 93.748253 124.706114 
L 94.9569 124.706114 
L 95.091216 153.499529 
L 96.166695 153.499529 
L 96.301128 132.558875 
L 97.64538 132.558875 
L 97.780155 118.947431 
L 98.855135 118.947431 
L 98.989451 81.309333 
L 100.199146 81.309333 
L 100.333488 104.546141 
L 101.678211 104.546141 
L 101.812879 161.35229 
L 102.888986 161.35229 
L 103.023665 162.867764 
L 104.233276 162.867764 
L 104.367861 147.162241 
L 105.443649 147.162241 
L 105.578426 151.98412 
L 106.923025 151.98412 
L 107.057342 167.276326 
L 108.268833 167.276326 
L 108.402786 147.851081 
L 109.476889 147.851081 
L 109.611555 142.478156 
L 110.957106 142.478156 
L 111.090462 131.870035 
L 112.165728 131.870035 
L 112.30047 109.689431 
L 113.509991 109.689431 
L 113.644702 152.893365 
L 114.719968 152.893365 
L 114.854397 105.143074 
L 116.199021 105.143074 
L 116.333354 94.535019 
L 117.409013 94.535019 
L 117.543331 127.461473 
L 118.752261 127.461473 
L 118.886618 79.242813 
L 120.231939 79.242813 
L 120.366288 90.842856 
L 121.441482 90.842856 
L 121.575757 95.729017 
L 122.785589 95.729017 
L 122.919854 117.404398 
L 123.995274 117.404398 
L 124.129856 108.036228 
L 125.473652 108.036228 
L 125.607948 93.570657 
L 126.818318 93.570657 
L 126.952606 79.270372 
L 128.026842 79.270372 
L 128.161073 105.097187 
L 129.505436 105.097187 
L 129.639861 72.767732 
L 130.715769 72.767732 
L 130.850354 58.164366 
L 132.060353 58.164366 
L 132.194858 98.484377 
L 133.270916 98.484377 
L 133.405359 103.297026 
L 134.749791 103.297026 
L 134.883965 67.808058 
L 136.093969 67.808058 
L 136.228296 62.84845 
L 137.30408 62.84845 
L 137.438491 68.221375 
L 138.783041 68.221375 
L 138.917691 69.599055 
L 139.993809 69.599055 
L 140.128153 54.306849 
L 141.338659 54.306849 
L 141.473515 37.085918 
L 142.549708 37.085918 
L 142.683995 79.380542 
L 144.027441 79.380542 
L 144.1621 63.675085 
L 145.372267 63.675085 
L 145.506597 50.862716 
L 146.583611 50.862716 
L 146.71737 90.264251 
L 148.063177 90.264251 
L 148.197639 91.641865 
L 149.272975 91.641865 
L 149.407564 38.050281 
L 150.616613 38.050281 
L 150.751044 85.442306 
L 151.827248 85.442306 
L 151.961711 91.283666 
L 153.306077 91.283666 
L 153.440557 82.687013 
L 154.649989 82.687013 
L 154.784609 67.991806 
L 155.859911 67.991806 
L 155.99405 56.23564 
L 157.339155 56.23564 
L 157.473286 46.178631 
L 158.548012 46.178631 
L 158.682352 83.651375 
L 159.893087 83.651375 
L 160.027201 29.894437 
L 161.102877 29.894437 
L 161.237415 80.069382 
L 162.581755 80.069382 
L 162.716276 83.926898 
L 163.926966 83.926898 
L 164.061446 124.155002 
L 165.137661 124.155002 
L 165.27211 131.548559 
L 166.616646 131.548559 
L 166.750935 77.506934 
L 167.82663 77.506934 
L 167.9608 124.017274 
L 169.171215 124.017274 
L 169.305495 69.902137 
L 170.381311 69.902137 
L 170.515768 108.862862 
L 171.860719 108.862862 
L 171.995207 115.062421 
L 173.071097 115.062421 
L 173.205318 103.407261 
L 174.415843 103.407261 
L 174.550411 110.791588 
L 175.894422 110.791588 
L 176.028937 131.732241 
L 177.105172 131.732241 
L 177.239424 123.603957 
L 178.448952 123.603957 
L 178.58325 108.58734 
L 179.659515 108.58734 
L 179.794027 103.76546 
L 181.136138 103.76546 
L 181.270517 152.535166 
L 182.346569 152.535166 
L 182.481042 108.449545 
L 183.691977 108.449545 
L 183.826481 130.519914 
L 184.903964 130.519914 
L 185.038336 119.884301 
L 186.382805 119.884301 
L 186.517449 144.406882 
L 187.727697 144.406882 
L 187.861889 138.207389 
L 188.935269 138.207389 
L 189.069678 140.962682 
L 190.414388 140.962682 
L 190.547666 138.675758 
L 191.622409 138.675758 
L 191.756198 142.202634 
L 192.966611 142.202634 
L 193.100961 114.869509 
L 194.177799 114.869509 
L 194.312317 156.392682 
L 195.6569 156.392682 
L 195.791181 154.188368 
L 196.865357 154.188368 
L 196.999747 155.703843 
L 198.208564 155.703843 
L 198.343173 166.26601 
L 199.68815 166.26601 
L 199.822481 150.248241 
L 200.89739 150.248241 
L 201.031894 136.278597 
L 202.242616 136.278597 
L 202.376982 146.473401 
L 203.453534 146.473401 
L 203.588085 159.010248 
L 204.932897 159.010248 
L 205.067139 139.99832 
L 206.142644 139.99832 
L 206.27694 122.088483 
L 207.487521 122.088483 
L 207.622166 147.603117 
L 208.697985 147.603117 
L 208.832755 130.079038 
L 210.177509 130.079038 
L 210.311991 143.442519 
L 211.522475 143.442519 
L 211.656812 162.04113 
L 212.732242 162.04113 
L 212.866705 136.967437 
L 214.210972 136.967437 
L 214.345442 148.595039 
L 215.420776 148.595039 
L 215.555398 138.896229 
L 216.765324 138.896229 
L 216.89974 139.777915 
L 217.974585 139.777915 
L 218.107815 118.093238 
L 219.451911 118.093238 
L 219.586201 122.18039 
L 220.66051 122.18039 
L 220.793841 183.532895 
L 222.003954 183.532895 
L 222.138298 171.409366 
L 223.482506 171.409366 
L 223.617078 159.836882 
L 224.692174 159.836882 
L 224.826446 136.829643 
L 226.036117 136.829643 
L 226.170565 157.494774 
L 227.245405 157.494774 
L 227.380457 125.945999 
L 228.723821 125.945999 
L 228.858109 112.169267 
L 229.9331 112.169267 
L 230.067343 161.306403 
L 231.277079 161.306403 
L 231.411669 153.995522 
L 232.48841 153.995522 
L 232.622922 141.651522 
L 233.967449 141.651522 
L 234.102143 136.829709 
L 235.312721 136.829709 
L 235.447142 166.725281 
L 236.522589 166.725281 
L 236.657246 160.250199 
L 237.999864 160.250199 
L 238.134157 151.240163 
L 239.209572 151.240163 
L 239.344233 135.406076 
L 240.553621 135.406076 
L 240.688141 167.827372 
L 241.763913 167.827372 
L 241.898265 133.109987 
L 243.242485 133.109987 
L 243.37706 173.338091 
L 244.452505 173.338091 
L 244.586595 150.578882 
L 245.796241 150.578882 
L 245.93074 153.59137 
L 247.2747 153.59137 
L 247.409409 147.603117 
L 248.485019 147.603117 
L 248.61967 150.606441 
L 249.828806 150.606441 
L 249.963174 111.06711 
L 251.038255 111.06711 
L 251.172355 140.549365 
L 252.517059 140.549365 
L 252.651362 171.960411 
L 253.727167 171.960411 
L 253.861626 139.30948 
L 255.071167 139.30948 
L 255.205526 133.165039 
L 256.280572 133.165039 
L 256.414873 141.513794 
L 257.759504 141.513794 
L 257.893754 154.326163 
L 259.104721 154.326163 
L 259.239018 149.779806 
L 260.314413 149.779806 
L 260.448772 151.157486 
L 261.79404 151.157486 
L 261.928396 143.745601 
L 263.004371 143.745601 
L 263.138899 185.186097 
L 264.349493 185.186097 
L 264.48437 162.37177 
L 265.559399 162.37177 
L 265.694777 164.10765 
L 267.038991 164.10765 
L 267.173746 107.071866 
L 268.250402 107.071866 
L 268.384639 169.645928 
L 269.595164 169.645928 
L 269.729556 147.897035 
L 271.073479 147.897035 
L 271.208066 163.363758 
L 272.28341 163.363758 
L 272.417669 148.953238 
L 273.627943 148.953238 
L 273.762652 121.261914 
L 274.837472 121.261914 
L 274.972407 167.965166 
L 276.316403 167.965166 
L 276.450872 184.359463 
L 277.525613 184.359463 
L 277.659225 177.333336 
L 278.868155 177.333336 
L 279.002789 144.076241 
L 280.078078 144.076241 
L 280.212342 145.92229 
L 281.557101 145.92229 
L 281.691529 157.632568 
L 282.901353 157.632568 
L 283.035642 139.447274 
L 284.110974 139.447274 
L 284.245461 158.918407 
L 285.581421 158.918407 
L 285.714765 160.828803 
L 286.785012 160.828803 
L 286.918804 160.387927 
L 288.124721 160.387927 
L 288.257932 146.17032 
L 289.330482 146.17032 
L 289.464745 155.015003 
L 290.802599 155.015003 
L 290.936032 155.979365 
L 292.006284 155.979365 
L 292.139533 168.764176 
L 293.348048 168.764176 
L 293.482572 153.224006 
L 294.819823 153.224006 
L 294.953109 160.939039 
L 296.024936 160.939039 
L 296.160999 155.703843 
L 297.368054 155.703843 
L 297.50239 138.896163 
L 298.576293 138.896163 
L 298.709436 126.772633 
L 300.052666 126.772633 
L 300.187018 128.150313 
L 301.263486 128.150313 
L 301.398114 144.269153 
L 302.609208 144.269153 
L 302.743851 151.681039 
L 303.819269 151.681039 
L 303.953911 137.656277 
L 305.298483 137.656277 
L 305.432826 124.155002 
L 306.643939 124.155002 
L 306.778614 155.060956 
L 307.846313 155.060956 
L 307.979535 197.309626 
L 309.317466 197.309626 
L 309.451106 146.17032 
L 310.524692 146.17032 
L 310.659196 149.366555 
L 311.86492 149.366555 
L 311.999156 169.425457 
L 313.070986 169.425457 
L 313.204472 160.387927 
L 314.539585 160.387927 
L 314.673953 146.197879 
L 315.742156 146.197879 
L 315.875777 159.28577 
L 317.081496 159.28577 
L 317.216099 165.898646 
L 318.559848 165.898646 
L 318.694203 165.457771 
L 319.765893 165.457771 
L 319.899117 145.922356 
L 321.104448 145.922356 
L 321.238037 155.290525 
L 322.307246 155.290525 
L 322.441044 141.789317 
L 323.779768 141.789317 
L 323.913021 140.962682 
L 324.986596 140.962682 
L 325.121161 160.250199 
L 326.326962 160.250199 
L 326.461557 166.559928 
L 327.533172 166.559928 
L 327.667533 127.87479 
L 329.008163 127.87479 
L 329.142112 132.145558 
L 330.351808 132.145558 
L 330.486303 93.432862 
L 331.560679 93.432862 
L 331.69514 146.060084 
L 333.035752 146.060084 
L 333.170258 130.96079 
L 334.241858 130.96079 
L 334.376103 157.632568 
L 335.585637 157.632568 
L 335.720019 135.479588 
L 336.795661 135.479588 
L 336.929927 134.487601 
L 338.274034 134.487601 
L 338.408556 116.66967 
L 339.483737 116.66967 
L 339.618376 137.463365 
L 340.822404 137.463365 
L 340.955718 165.347601 
L 342.289655 165.347601 
L 342.422913 151.460634 
L 343.496144 151.460634 
L 343.629346 159.97461 
L 344.835822 159.97461 
L 344.970161 151.570803 
L 346.041046 151.570803 
L 346.175092 146.335673 
L 347.518933 146.335673 
L 347.653377 182.017421 
L 348.7218 182.017421 
L 348.855178 131.594513 
L 350.058751 131.594513 
L 350.193239 154.326163 
L 351.265378 154.326163 
L 351.399541 141.513728 
L 352.737752 141.513728 
L 352.871867 171.684888 
L 354.080029 171.684888 
L 354.213383 140.68716 
L 355.287378 140.68716 
L 355.42174 108.449545 
L 356.766376 108.449545 
L 356.900688 107.044307 
L 357.970566 107.044307 
L 358.104035 196.942263 
L 359.304533 196.942263 
L 359.437897 117.294228 
L 360.510482 117.294228 
L 360.644889 128.242154 
L 361.986503 128.242154 
L 362.119841 126.772633 
L 363.193065 126.772633 
L 363.326276 131.622071 
L 364.535444 131.622071 
L 364.669926 101.607034 
L 366.007358 101.607034 
L 366.141767 130.63015 
L 367.211404 130.63015 
L 367.345745 133.247715 
L 368.553726 133.247715 
L 368.687042 126.910428 
L 369.759814 126.910428 
L 369.893035 123.190706 
L 371.228912 123.190706 
L 371.363836 162.775923 
L 372.436553 162.775923 
L 372.569802 134.763189 
L 373.777628 134.763189 
L 373.912428 112.334555 
L 374.987817 112.334555 
L 375.122268 125.119431 
L 376.467347 125.119431 
L 376.601654 170.445003 
L 377.811346 170.445003 
L 377.945694 154.326163 
L 379.02205 154.326163 
L 379.156295 136.829709 
L 380.500323 136.829709 
L 380.634904 170.169414 
L 381.712149 170.169414 
L 381.846415 195.105378 
L 383.055922 195.105378 
L 383.190811 151.433075 
L 384.534734 151.433075 
L 384.668523 271.814437 
L 384.668523 271.814437 
" clip-path="url(#p2ead86e5e2)" style="fill: none; stroke: #1f77b4; stroke-width: 1.5; stroke-linecap: square"/>
   </g>
   <g id="patch_3">
    <path d="M 43.78125 283.910437 
L 43.78125 17.798437 
" style="fill: none; stroke: #000000; stroke-width: 0.8; stroke-linejoin: miter; stroke-linecap: square"/>
   </g>
   <g id="patch_4">
    <path d="M 400.90125 283.910437 
L 400.90125 17.798437 
" style="fill: none; stroke: #000000; stroke-width: 0.8; stroke-linejoin: miter; stroke-linecap: square"/>
   </g>
   <g id="patch_5">
    <path d="M 43.78125 283.910437 
L 400.90125 283.910437 
" style="fill: none; stroke: #000000; stroke-width: 0.8; stroke-linejoin: miter; stroke-linecap: square"/>
   </g>
   <g id="patch_6">
    <path d="M 43.78125 17.798437 
L 400.90125 17.798437 
" style="fill: none; stroke: #000000; stroke-width: 0.8; stroke-linejoin: miter; stroke-linecap: square"/>
   </g>
   <g id="legend_1">
    <g id="patch_7">
     <path d="M 308.185625 40.476562 
L 393.90125 40.476562 
Q 395.90125 40.476562 395.90125 38.476562 
L 395.90125 24.798438 
Q 395.90125 22.798438 393.90125 22.798438 
L 308.185625 22.798438 
Q 306.185625 22.798438 306.185625 24.798438 
L 306.185625 38.476562 
Q 306.185625 40.476562 308.185625 40.476562 
z
" style="fill: #ffffff; opacity: 0.8; stroke: #cccccc; stroke-linejoin: miter"/>
    </g>
    <g id="line2d_16">
     <path d="M 310.185625 30.896875 
L 320.185625 30.896875 
L 330.185625 30.896875 
" style="fill: none; stroke: #1f77b4; stroke-width: 1.5; stroke-linecap: square"/>
    </g>
    <g id="text_18">
     <!-- Messwerte -->
     <g transform="translate(338.185625 34.396875) scale(0.1 -0.1)">
      <defs>
       <path id="DejaVuSans-4d" d="M 628 4666 
L 1569 4666 
L 2759 1491 
L 3956 4666 
L 4897 4666 
L 4897 0 
L 4281 0 
L 4281 4097 
L 3078 897 
L 2444 897 
L 1241 4097 
L 1241 0 
L 628 0 
L 628 4666 
z
" transform="scale(0.015625)"/>
       <path id="DejaVuSans-77" d="M 269 3500 
L 844 3500 
L 1563 769 
L 2278 3500 
L 2956 3500 
L 3675 769 
L 4391 3500 
L 4966 3500 
L 4050 0 
L 3372 0 
L 2619 2869 
L 1863 0 
L 1184 0 
L 269 3500 
z
" transform="scale(0.015625)"/>
       <path id="DejaVuSans-72" d="M 2631 2963 
Q 2534 3019 2420 3045 
Q 2306 3072 2169 3072 
Q 1681 3072 1420 2755 
Q 1159 2438 1159 1844 
L 1159 0 
L 581 0 
L 581 3500 
L 1159 3500 
L 1159 2956 
Q 1341 3275 1631 3429 
Q 1922 3584 2338 3584 
Q 2397 3584 2469 3576 
Q 2541 3569 2628 3553 
L 2631 2963 
z
" transform="scale(0.015625)"/>
      </defs>
      <use xlink:href="#DejaVuSans-4d"/>
      <use xlink:href="#DejaVuSans-65" x="86.279297"/>
      <use xlink:href="#DejaVuSans-73" x="147.802734"/>
      <use xlink:href="#DejaVuSans-73" x="199.902344"/>
      <use xlink:href="#DejaVuSans-77" x="252.001953"/>
      <use xlink:href="#DejaVuSans-65" x="333.789062"/>
      <use xlink:href="#DejaVuSans-72" x="395.3125"/>
      <use xlink:href="#DejaVuSans-74" x="436.425781"/>
      <use xlink:href="#DejaVuSans-65" x="475.634766"/>
     </g>
    </g>
   </g>
  </g>
 </g>
 <defs>
  <clipPath id="p2ead86e5e2">
   <rect x="43.78125" y="17.798438" width="357.12" height="266.112"/>
  </clipPath>
 </defs>
</svg>
