<?xml version="1.0" encoding="utf-8" standalone="no"?>
<!DOCTYPE svg PUBLIC "-//W3C//DTD SVG 1.1//EN"
  "http://www.w3.org/Graphics/SVG/1.1/DTD/svg11.dtd">
<svg xmlns:xlink="http://www.w3.org/1999/xlink" width="460.8pt" height="345.6pt" viewBox="0 0 460.8 345.6" xmlns="http://www.w3.org/2000/svg" version="1.1">
 <metadata>
  <rdf:RDF xmlns:dc="http://purl.org/dc/elements/1.1/" xmlns:cc="http://creativecommons.org/ns#" xmlns:rdf="http://www.w3.org/1999/02/22-rdf-syntax-ns#">
   <cc:Work>
    <dc:type rdf:resource="http://purl.org/dc/dcmitype/StillImage"/>
    <dc:date>2024-07-11T02:37:42.931939</dc:date>
    <dc:format>image/svg+xml</dc:format>
    <dc:creator>
     <cc:Agent>
      <dc:title>Matplotlib v3.8.2, https://matplotlib.org/</dc:title>
     </cc:Agent>
    </dc:creator>
   </cc:Work>
  </rdf:RDF>
 </metadata>
 <defs>
  <style type="text/css">*{stroke-linejoin: round; stroke-linecap: butt}</style>
 </defs>
 <g id="figure_1">
  <g id="patch_1">
   <path d="M 0 345.6 
L 460.8 345.6 
L 460.8 0 
L 0 0 
z
" style="fill: #ffffff"/>
  </g>
  <g id="axes_1">
   <g id="patch_2">
    <path d="M 57.6 307.584 
L 414.72 307.584 
L 414.72 41.472 
L 57.6 41.472 
z
" style="fill: #ffffff"/>
   </g>
   <g id="matplotlib.axis_1">
    <g id="xtick_1">
     <g id="line2d_1">
      <defs>
       <path id="m90e72460a5" d="M 0 0 
L 0 3.5 
" style="stroke: #000000; stroke-width: 0.8"/>
      </defs>
      <g>
       <use xlink:href="#m90e72460a5" x="73.831367" y="307.584" style="stroke: #000000; stroke-width: 0.8"/>
      </g>
     </g>
     <g id="text_1">
      <!-- 0.0 -->
      <g transform="translate(65.879805 322.182437) scale(0.1 -0.1)">
       <defs>
        <path id="DejaVuSans-30" d="M 2034 4250 
Q 1547 4250 1301 3770 
Q 1056 3291 1056 2328 
Q 1056 1369 1301 889 
Q 1547 409 2034 409 
Q 2525 409 2770 889 
Q 3016 1369 3016 2328 
Q 3016 3291 2770 3770 
Q 2525 4250 2034 4250 
z
M 2034 4750 
Q 2819 4750 3233 4129 
Q 3647 3509 3647 2328 
Q 3647 1150 3233 529 
Q 2819 -91 2034 -91 
Q 1250 -91 836 529 
Q 422 1150 422 2328 
Q 422 3509 836 4129 
Q 1250 4750 2034 4750 
z
" transform="scale(0.015625)"/>
        <path id="DejaVuSans-2e" d="M 684 794 
L 1344 794 
L 1344 0 
L 684 0 
L 684 794 
z
" transform="scale(0.015625)"/>
       </defs>
       <use xlink:href="#DejaVuSans-30"/>
       <use xlink:href="#DejaVuSans-2e" x="63.623047"/>
       <use xlink:href="#DejaVuSans-30" x="95.410156"/>
      </g>
     </g>
    </g>
    <g id="xtick_2">
     <g id="line2d_2">
      <g>
       <use xlink:href="#m90e72460a5" x="118.474679" y="307.584" style="stroke: #000000; stroke-width: 0.8"/>
      </g>
     </g>
     <g id="text_2">
      <!-- 0.2 -->
      <g transform="translate(110.523116 322.182437) scale(0.1 -0.1)">
       <defs>
        <path id="DejaVuSans-32" d="M 1228 531 
L 3431 531 
L 3431 0 
L 469 0 
L 469 531 
Q 828 903 1448 1529 
Q 2069 2156 2228 2338 
Q 2531 2678 2651 2914 
Q 2772 3150 2772 3378 
Q 2772 3750 2511 3984 
Q 2250 4219 1831 4219 
Q 1534 4219 1204 4116 
Q 875 4013 500 3803 
L 500 4441 
Q 881 4594 1212 4672 
Q 1544 4750 1819 4750 
Q 2544 4750 2975 4387 
Q 3406 4025 3406 3419 
Q 3406 3131 3298 2873 
Q 3191 2616 2906 2266 
Q 2828 2175 2409 1742 
Q 1991 1309 1228 531 
z
" transform="scale(0.015625)"/>
       </defs>
       <use xlink:href="#DejaVuSans-30"/>
       <use xlink:href="#DejaVuSans-2e" x="63.623047"/>
       <use xlink:href="#DejaVuSans-32" x="95.410156"/>
      </g>
     </g>
    </g>
    <g id="xtick_3">
     <g id="line2d_3">
      <g>
       <use xlink:href="#m90e72460a5" x="163.11799" y="307.584" style="stroke: #000000; stroke-width: 0.8"/>
      </g>
     </g>
     <g id="text_3">
      <!-- 0.4 -->
      <g transform="translate(155.166428 322.182437) scale(0.1 -0.1)">
       <defs>
        <path id="DejaVuSans-34" d="M 2419 4116 
L 825 1625 
L 2419 1625 
L 2419 4116 
z
M 2253 4666 
L 3047 4666 
L 3047 1625 
L 3713 1625 
L 3713 1100 
L 3047 1100 
L 3047 0 
L 2419 0 
L 2419 1100 
L 313 1100 
L 313 1709 
L 2253 4666 
z
" transform="scale(0.015625)"/>
       </defs>
       <use xlink:href="#DejaVuSans-30"/>
       <use xlink:href="#DejaVuSans-2e" x="63.623047"/>
       <use xlink:href="#DejaVuSans-34" x="95.410156"/>
      </g>
     </g>
    </g>
    <g id="xtick_4">
     <g id="line2d_4">
      <g>
       <use xlink:href="#m90e72460a5" x="207.761302" y="307.584" style="stroke: #000000; stroke-width: 0.8"/>
      </g>
     </g>
     <g id="text_4">
      <!-- 0.6 -->
      <g transform="translate(199.80974 322.182437) scale(0.1 -0.1)">
       <defs>
        <path id="DejaVuSans-36" d="M 2113 2584 
Q 1688 2584 1439 2293 
Q 1191 2003 1191 1497 
Q 1191 994 1439 701 
Q 1688 409 2113 409 
Q 2538 409 2786 701 
Q 3034 994 3034 1497 
Q 3034 2003 2786 2293 
Q 2538 2584 2113 2584 
z
M 3366 4563 
L 3366 3988 
Q 3128 4100 2886 4159 
Q 2644 4219 2406 4219 
Q 1781 4219 1451 3797 
Q 1122 3375 1075 2522 
Q 1259 2794 1537 2939 
Q 1816 3084 2150 3084 
Q 2853 3084 3261 2657 
Q 3669 2231 3669 1497 
Q 3669 778 3244 343 
Q 2819 -91 2113 -91 
Q 1303 -91 875 529 
Q 447 1150 447 2328 
Q 447 3434 972 4092 
Q 1497 4750 2381 4750 
Q 2619 4750 2861 4703 
Q 3103 4656 3366 4563 
z
" transform="scale(0.015625)"/>
       </defs>
       <use xlink:href="#DejaVuSans-30"/>
       <use xlink:href="#DejaVuSans-2e" x="63.623047"/>
       <use xlink:href="#DejaVuSans-36" x="95.410156"/>
      </g>
     </g>
    </g>
    <g id="xtick_5">
     <g id="line2d_5">
      <g>
       <use xlink:href="#m90e72460a5" x="252.404614" y="307.584" style="stroke: #000000; stroke-width: 0.8"/>
      </g>
     </g>
     <g id="text_5">
      <!-- 0.8 -->
      <g transform="translate(244.453051 322.182437) scale(0.1 -0.1)">
       <defs>
        <path id="DejaVuSans-38" d="M 2034 2216 
Q 1584 2216 1326 1975 
Q 1069 1734 1069 1313 
Q 1069 891 1326 650 
Q 1584 409 2034 409 
Q 2484 409 2743 651 
Q 3003 894 3003 1313 
Q 3003 1734 2745 1975 
Q 2488 2216 2034 2216 
z
M 1403 2484 
Q 997 2584 770 2862 
Q 544 3141 544 3541 
Q 544 4100 942 4425 
Q 1341 4750 2034 4750 
Q 2731 4750 3128 4425 
Q 3525 4100 3525 3541 
Q 3525 3141 3298 2862 
Q 3072 2584 2669 2484 
Q 3125 2378 3379 2068 
Q 3634 1759 3634 1313 
Q 3634 634 3220 271 
Q 2806 -91 2034 -91 
Q 1263 -91 848 271 
Q 434 634 434 1313 
Q 434 1759 690 2068 
Q 947 2378 1403 2484 
z
M 1172 3481 
Q 1172 3119 1398 2916 
Q 1625 2713 2034 2713 
Q 2441 2713 2670 2916 
Q 2900 3119 2900 3481 
Q 2900 3844 2670 4047 
Q 2441 4250 2034 4250 
Q 1625 4250 1398 4047 
Q 1172 3844 1172 3481 
z
" transform="scale(0.015625)"/>
       </defs>
       <use xlink:href="#DejaVuSans-30"/>
       <use xlink:href="#DejaVuSans-2e" x="63.623047"/>
       <use xlink:href="#DejaVuSans-38" x="95.410156"/>
      </g>
     </g>
    </g>
    <g id="xtick_6">
     <g id="line2d_6">
      <g>
       <use xlink:href="#m90e72460a5" x="297.047925" y="307.584" style="stroke: #000000; stroke-width: 0.8"/>
      </g>
     </g>
     <g id="text_6">
      <!-- 1.0 -->
      <g transform="translate(289.096363 322.182437) scale(0.1 -0.1)">
       <defs>
        <path id="DejaVuSans-31" d="M 794 531 
L 1825 531 
L 1825 4091 
L 703 3866 
L 703 4441 
L 1819 4666 
L 2450 4666 
L 2450 531 
L 3481 531 
L 3481 0 
L 794 0 
L 794 531 
z
" transform="scale(0.015625)"/>
       </defs>
       <use xlink:href="#DejaVuSans-31"/>
       <use xlink:href="#DejaVuSans-2e" x="63.623047"/>
       <use xlink:href="#DejaVuSans-30" x="95.410156"/>
      </g>
     </g>
    </g>
    <g id="xtick_7">
     <g id="line2d_7">
      <g>
       <use xlink:href="#m90e72460a5" x="341.691237" y="307.584" style="stroke: #000000; stroke-width: 0.8"/>
      </g>
     </g>
     <g id="text_7">
      <!-- 1.2 -->
      <g transform="translate(333.739674 322.182437) scale(0.1 -0.1)">
       <use xlink:href="#DejaVuSans-31"/>
       <use xlink:href="#DejaVuSans-2e" x="63.623047"/>
       <use xlink:href="#DejaVuSans-32" x="95.410156"/>
      </g>
     </g>
    </g>
    <g id="xtick_8">
     <g id="line2d_8">
      <g>
       <use xlink:href="#m90e72460a5" x="386.334548" y="307.584" style="stroke: #000000; stroke-width: 0.8"/>
      </g>
     </g>
     <g id="text_8">
      <!-- 1.4 -->
      <g transform="translate(378.382986 322.182437) scale(0.1 -0.1)">
       <use xlink:href="#DejaVuSans-31"/>
       <use xlink:href="#DejaVuSans-2e" x="63.623047"/>
       <use xlink:href="#DejaVuSans-34" x="95.410156"/>
      </g>
     </g>
    </g>
    <g id="text_9">
     <!-- Wellenlänge in m -->
     <g transform="translate(192.931094 335.860562) scale(0.1 -0.1)">
      <defs>
       <path id="DejaVuSans-57" d="M 213 4666 
L 850 4666 
L 1831 722 
L 2809 4666 
L 3519 4666 
L 4500 722 
L 5478 4666 
L 6119 4666 
L 4947 0 
L 4153 0 
L 3169 4050 
L 2175 0 
L 1381 0 
L 213 4666 
z
" transform="scale(0.015625)"/>
       <path id="DejaVuSans-65" d="M 3597 1894 
L 3597 1613 
L 953 1613 
Q 991 1019 1311 708 
Q 1631 397 2203 397 
Q 2534 397 2845 478 
Q 3156 559 3463 722 
L 3463 178 
Q 3153 47 2828 -22 
Q 2503 -91 2169 -91 
Q 1331 -91 842 396 
Q 353 884 353 1716 
Q 353 2575 817 3079 
Q 1281 3584 2069 3584 
Q 2775 3584 3186 3129 
Q 3597 2675 3597 1894 
z
M 3022 2063 
Q 3016 2534 2758 2815 
Q 2500 3097 2075 3097 
Q 1594 3097 1305 2825 
Q 1016 2553 972 2059 
L 3022 2063 
z
" transform="scale(0.015625)"/>
       <path id="DejaVuSans-6c" d="M 603 4863 
L 1178 4863 
L 1178 0 
L 603 0 
L 603 4863 
z
" transform="scale(0.015625)"/>
       <path id="DejaVuSans-6e" d="M 3513 2113 
L 3513 0 
L 2938 0 
L 2938 2094 
Q 2938 2591 2744 2837 
Q 2550 3084 2163 3084 
Q 1697 3084 1428 2787 
Q 1159 2491 1159 1978 
L 1159 0 
L 581 0 
L 581 3500 
L 1159 3500 
L 1159 2956 
Q 1366 3272 1645 3428 
Q 1925 3584 2291 3584 
Q 2894 3584 3203 3211 
Q 3513 2838 3513 2113 
z
" transform="scale(0.015625)"/>
       <path id="DejaVuSans-e4" d="M 2194 1759 
Q 1497 1759 1228 1600 
Q 959 1441 959 1056 
Q 959 750 1161 570 
Q 1363 391 1709 391 
Q 2188 391 2477 730 
Q 2766 1069 2766 1631 
L 2766 1759 
L 2194 1759 
z
M 3341 1997 
L 3341 0 
L 2766 0 
L 2766 531 
Q 2569 213 2275 61 
Q 1981 -91 1556 -91 
Q 1019 -91 701 211 
Q 384 513 384 1019 
Q 384 1609 779 1909 
Q 1175 2209 1959 2209 
L 2766 2209 
L 2766 2266 
Q 2766 2663 2505 2880 
Q 2244 3097 1772 3097 
Q 1472 3097 1187 3025 
Q 903 2953 641 2809 
L 641 3341 
Q 956 3463 1253 3523 
Q 1550 3584 1831 3584 
Q 2591 3584 2966 3190 
Q 3341 2797 3341 1997 
z
M 2150 4850 
L 2784 4850 
L 2784 4219 
L 2150 4219 
L 2150 4850 
z
M 928 4850 
L 1562 4850 
L 1562 4219 
L 928 4219 
L 928 4850 
z
" transform="scale(0.015625)"/>
       <path id="DejaVuSans-67" d="M 2906 1791 
Q 2906 2416 2648 2759 
Q 2391 3103 1925 3103 
Q 1463 3103 1205 2759 
Q 947 2416 947 1791 
Q 947 1169 1205 825 
Q 1463 481 1925 481 
Q 2391 481 2648 825 
Q 2906 1169 2906 1791 
z
M 3481 434 
Q 3481 -459 3084 -895 
Q 2688 -1331 1869 -1331 
Q 1566 -1331 1297 -1286 
Q 1028 -1241 775 -1147 
L 775 -588 
Q 1028 -725 1275 -790 
Q 1522 -856 1778 -856 
Q 2344 -856 2625 -561 
Q 2906 -266 2906 331 
L 2906 616 
Q 2728 306 2450 153 
Q 2172 0 1784 0 
Q 1141 0 747 490 
Q 353 981 353 1791 
Q 353 2603 747 3093 
Q 1141 3584 1784 3584 
Q 2172 3584 2450 3431 
Q 2728 3278 2906 2969 
L 2906 3500 
L 3481 3500 
L 3481 434 
z
" transform="scale(0.015625)"/>
       <path id="DejaVuSans-20" transform="scale(0.015625)"/>
       <path id="DejaVuSans-69" d="M 603 3500 
L 1178 3500 
L 1178 0 
L 603 0 
L 603 3500 
z
M 603 4863 
L 1178 4863 
L 1178 4134 
L 603 4134 
L 603 4863 
z
" transform="scale(0.015625)"/>
       <path id="DejaVuSans-6d" d="M 3328 2828 
Q 3544 3216 3844 3400 
Q 4144 3584 4550 3584 
Q 5097 3584 5394 3201 
Q 5691 2819 5691 2113 
L 5691 0 
L 5113 0 
L 5113 2094 
Q 5113 2597 4934 2840 
Q 4756 3084 4391 3084 
Q 3944 3084 3684 2787 
Q 3425 2491 3425 1978 
L 3425 0 
L 2847 0 
L 2847 2094 
Q 2847 2600 2669 2842 
Q 2491 3084 2119 3084 
Q 1678 3084 1418 2786 
Q 1159 2488 1159 1978 
L 1159 0 
L 581 0 
L 581 3500 
L 1159 3500 
L 1159 2956 
Q 1356 3278 1631 3431 
Q 1906 3584 2284 3584 
Q 2666 3584 2933 3390 
Q 3200 3197 3328 2828 
z
" transform="scale(0.015625)"/>
      </defs>
      <use xlink:href="#DejaVuSans-57"/>
      <use xlink:href="#DejaVuSans-65" x="93.001953"/>
      <use xlink:href="#DejaVuSans-6c" x="154.525391"/>
      <use xlink:href="#DejaVuSans-6c" x="182.308594"/>
      <use xlink:href="#DejaVuSans-65" x="210.091797"/>
      <use xlink:href="#DejaVuSans-6e" x="271.615234"/>
      <use xlink:href="#DejaVuSans-6c" x="334.994141"/>
      <use xlink:href="#DejaVuSans-e4" x="362.777344"/>
      <use xlink:href="#DejaVuSans-6e" x="424.056641"/>
      <use xlink:href="#DejaVuSans-67" x="487.435547"/>
      <use xlink:href="#DejaVuSans-65" x="550.912109"/>
      <use xlink:href="#DejaVuSans-20" x="612.435547"/>
      <use xlink:href="#DejaVuSans-69" x="644.222656"/>
      <use xlink:href="#DejaVuSans-6e" x="672.005859"/>
      <use xlink:href="#DejaVuSans-20" x="735.384766"/>
      <use xlink:href="#DejaVuSans-6d" x="767.171875"/>
     </g>
    </g>
    <g id="text_10">
     <!-- 1e−5 -->
     <g transform="translate(387.462188 334.860562) scale(0.1 -0.1)">
      <defs>
       <path id="DejaVuSans-2212" d="M 678 2272 
L 4684 2272 
L 4684 1741 
L 678 1741 
L 678 2272 
z
" transform="scale(0.015625)"/>
       <path id="DejaVuSans-35" d="M 691 4666 
L 3169 4666 
L 3169 4134 
L 1269 4134 
L 1269 2991 
Q 1406 3038 1543 3061 
Q 1681 3084 1819 3084 
Q 2600 3084 3056 2656 
Q 3513 2228 3513 1497 
Q 3513 744 3044 326 
Q 2575 -91 1722 -91 
Q 1428 -91 1123 -41 
Q 819 9 494 109 
L 494 744 
Q 775 591 1075 516 
Q 1375 441 1709 441 
Q 2250 441 2565 725 
Q 2881 1009 2881 1497 
Q 2881 1984 2565 2268 
Q 2250 2553 1709 2553 
Q 1456 2553 1204 2497 
Q 953 2441 691 2322 
L 691 4666 
z
" transform="scale(0.015625)"/>
      </defs>
      <use xlink:href="#DejaVuSans-31"/>
      <use xlink:href="#DejaVuSans-65" x="63.623047"/>
      <use xlink:href="#DejaVuSans-2212" x="125.146484"/>
      <use xlink:href="#DejaVuSans-35" x="208.935547"/>
     </g>
    </g>
   </g>
   <g id="matplotlib.axis_2">
    <g id="ytick_1">
     <g id="line2d_9">
      <defs>
       <path id="m1efb87ae77" d="M 0 0 
L -3.5 0 
" style="stroke: #000000; stroke-width: 0.8"/>
      </defs>
      <g>
       <use xlink:href="#m1efb87ae77" x="57.6" y="295.488" style="stroke: #000000; stroke-width: 0.8"/>
      </g>
     </g>
     <g id="text_11">
      <!-- 0.00000 -->
      <g transform="translate(9.246875 299.287219) scale(0.1 -0.1)">
       <use xlink:href="#DejaVuSans-30"/>
       <use xlink:href="#DejaVuSans-2e" x="63.623047"/>
       <use xlink:href="#DejaVuSans-30" x="95.410156"/>
       <use xlink:href="#DejaVuSans-30" x="159.033203"/>
       <use xlink:href="#DejaVuSans-30" x="222.65625"/>
       <use xlink:href="#DejaVuSans-30" x="286.279297"/>
       <use xlink:href="#DejaVuSans-30" x="349.902344"/>
      </g>
     </g>
    </g>
    <g id="ytick_2">
     <g id="line2d_10">
      <g>
       <use xlink:href="#m1efb87ae77" x="57.6" y="255.147258" style="stroke: #000000; stroke-width: 0.8"/>
      </g>
     </g>
     <g id="text_12">
      <!-- 0.00002 -->
      <g transform="translate(9.246875 258.946477) scale(0.1 -0.1)">
       <use xlink:href="#DejaVuSans-30"/>
       <use xlink:href="#DejaVuSans-2e" x="63.623047"/>
       <use xlink:href="#DejaVuSans-30" x="95.410156"/>
       <use xlink:href="#DejaVuSans-30" x="159.033203"/>
       <use xlink:href="#DejaVuSans-30" x="222.65625"/>
       <use xlink:href="#DejaVuSans-30" x="286.279297"/>
       <use xlink:href="#DejaVuSans-32" x="349.902344"/>
      </g>
     </g>
    </g>
    <g id="ytick_3">
     <g id="line2d_11">
      <g>
       <use xlink:href="#m1efb87ae77" x="57.6" y="214.806516" style="stroke: #000000; stroke-width: 0.8"/>
      </g>
     </g>
     <g id="text_13">
      <!-- 0.00004 -->
      <g transform="translate(9.246875 218.605735) scale(0.1 -0.1)">
       <use xlink:href="#DejaVuSans-30"/>
       <use xlink:href="#DejaVuSans-2e" x="63.623047"/>
       <use xlink:href="#DejaVuSans-30" x="95.410156"/>
       <use xlink:href="#DejaVuSans-30" x="159.033203"/>
       <use xlink:href="#DejaVuSans-30" x="222.65625"/>
       <use xlink:href="#DejaVuSans-30" x="286.279297"/>
       <use xlink:href="#DejaVuSans-34" x="349.902344"/>
      </g>
     </g>
    </g>
    <g id="ytick_4">
     <g id="line2d_12">
      <g>
       <use xlink:href="#m1efb87ae77" x="57.6" y="174.465774" style="stroke: #000000; stroke-width: 0.8"/>
      </g>
     </g>
     <g id="text_14">
      <!-- 0.00006 -->
      <g transform="translate(9.246875 178.264993) scale(0.1 -0.1)">
       <use xlink:href="#DejaVuSans-30"/>
       <use xlink:href="#DejaVuSans-2e" x="63.623047"/>
       <use xlink:href="#DejaVuSans-30" x="95.410156"/>
       <use xlink:href="#DejaVuSans-30" x="159.033203"/>
       <use xlink:href="#DejaVuSans-30" x="222.65625"/>
       <use xlink:href="#DejaVuSans-30" x="286.279297"/>
       <use xlink:href="#DejaVuSans-36" x="349.902344"/>
      </g>
     </g>
    </g>
    <g id="ytick_5">
     <g id="line2d_13">
      <g>
       <use xlink:href="#m1efb87ae77" x="57.6" y="134.125033" style="stroke: #000000; stroke-width: 0.8"/>
      </g>
     </g>
     <g id="text_15">
      <!-- 0.00008 -->
      <g transform="translate(9.246875 137.924251) scale(0.1 -0.1)">
       <use xlink:href="#DejaVuSans-30"/>
       <use xlink:href="#DejaVuSans-2e" x="63.623047"/>
       <use xlink:href="#DejaVuSans-30" x="95.410156"/>
       <use xlink:href="#DejaVuSans-30" x="159.033203"/>
       <use xlink:href="#DejaVuSans-30" x="222.65625"/>
       <use xlink:href="#DejaVuSans-30" x="286.279297"/>
       <use xlink:href="#DejaVuSans-38" x="349.902344"/>
      </g>
     </g>
    </g>
    <g id="ytick_6">
     <g id="line2d_14">
      <g>
       <use xlink:href="#m1efb87ae77" x="57.6" y="93.784291" style="stroke: #000000; stroke-width: 0.8"/>
      </g>
     </g>
     <g id="text_16">
      <!-- 0.00010 -->
      <g transform="translate(9.246875 97.583509) scale(0.1 -0.1)">
       <use xlink:href="#DejaVuSans-30"/>
       <use xlink:href="#DejaVuSans-2e" x="63.623047"/>
       <use xlink:href="#DejaVuSans-30" x="95.410156"/>
       <use xlink:href="#DejaVuSans-30" x="159.033203"/>
       <use xlink:href="#DejaVuSans-30" x="222.65625"/>
       <use xlink:href="#DejaVuSans-31" x="286.279297"/>
       <use xlink:href="#DejaVuSans-30" x="349.902344"/>
      </g>
     </g>
    </g>
    <g id="ytick_7">
     <g id="line2d_15">
      <g>
       <use xlink:href="#m1efb87ae77" x="57.6" y="53.443549" style="stroke: #000000; stroke-width: 0.8"/>
      </g>
     </g>
     <g id="text_17">
      <!-- 0.00012 -->
      <g transform="translate(9.246875 57.242768) scale(0.1 -0.1)">
       <use xlink:href="#DejaVuSans-30"/>
       <use xlink:href="#DejaVuSans-2e" x="63.623047"/>
       <use xlink:href="#DejaVuSans-30" x="95.410156"/>
       <use xlink:href="#DejaVuSans-30" x="159.033203"/>
       <use xlink:href="#DejaVuSans-30" x="222.65625"/>
       <use xlink:href="#DejaVuSans-31" x="286.279297"/>
       <use xlink:href="#DejaVuSans-32" x="349.902344"/>
      </g>
     </g>
    </g>
    <g id="text_18">
     <!-- Spannung in V -->
     <g transform="translate(3.167187 210.945969) rotate(-90) scale(0.1 -0.1)">
      <defs>
       <path id="DejaVuSans-53" d="M 3425 4513 
L 3425 3897 
Q 3066 4069 2747 4153 
Q 2428 4238 2131 4238 
Q 1616 4238 1336 4038 
Q 1056 3838 1056 3469 
Q 1056 3159 1242 3001 
Q 1428 2844 1947 2747 
L 2328 2669 
Q 3034 2534 3370 2195 
Q 3706 1856 3706 1288 
Q 3706 609 3251 259 
Q 2797 -91 1919 -91 
Q 1588 -91 1214 -16 
Q 841 59 441 206 
L 441 856 
Q 825 641 1194 531 
Q 1563 422 1919 422 
Q 2459 422 2753 634 
Q 3047 847 3047 1241 
Q 3047 1584 2836 1778 
Q 2625 1972 2144 2069 
L 1759 2144 
Q 1053 2284 737 2584 
Q 422 2884 422 3419 
Q 422 4038 858 4394 
Q 1294 4750 2059 4750 
Q 2388 4750 2728 4690 
Q 3069 4631 3425 4513 
z
" transform="scale(0.015625)"/>
       <path id="DejaVuSans-70" d="M 1159 525 
L 1159 -1331 
L 581 -1331 
L 581 3500 
L 1159 3500 
L 1159 2969 
Q 1341 3281 1617 3432 
Q 1894 3584 2278 3584 
Q 2916 3584 3314 3078 
Q 3713 2572 3713 1747 
Q 3713 922 3314 415 
Q 2916 -91 2278 -91 
Q 1894 -91 1617 61 
Q 1341 213 1159 525 
z
M 3116 1747 
Q 3116 2381 2855 2742 
Q 2594 3103 2138 3103 
Q 1681 3103 1420 2742 
Q 1159 2381 1159 1747 
Q 1159 1113 1420 752 
Q 1681 391 2138 391 
Q 2594 391 2855 752 
Q 3116 1113 3116 1747 
z
" transform="scale(0.015625)"/>
       <path id="DejaVuSans-61" d="M 2194 1759 
Q 1497 1759 1228 1600 
Q 959 1441 959 1056 
Q 959 750 1161 570 
Q 1363 391 1709 391 
Q 2188 391 2477 730 
Q 2766 1069 2766 1631 
L 2766 1759 
L 2194 1759 
z
M 3341 1997 
L 3341 0 
L 2766 0 
L 2766 531 
Q 2569 213 2275 61 
Q 1981 -91 1556 -91 
Q 1019 -91 701 211 
Q 384 513 384 1019 
Q 384 1609 779 1909 
Q 1175 2209 1959 2209 
L 2766 2209 
L 2766 2266 
Q 2766 2663 2505 2880 
Q 2244 3097 1772 3097 
Q 1472 3097 1187 3025 
Q 903 2953 641 2809 
L 641 3341 
Q 956 3463 1253 3523 
Q 1550 3584 1831 3584 
Q 2591 3584 2966 3190 
Q 3341 2797 3341 1997 
z
" transform="scale(0.015625)"/>
       <path id="DejaVuSans-75" d="M 544 1381 
L 544 3500 
L 1119 3500 
L 1119 1403 
Q 1119 906 1312 657 
Q 1506 409 1894 409 
Q 2359 409 2629 706 
Q 2900 1003 2900 1516 
L 2900 3500 
L 3475 3500 
L 3475 0 
L 2900 0 
L 2900 538 
Q 2691 219 2414 64 
Q 2138 -91 1772 -91 
Q 1169 -91 856 284 
Q 544 659 544 1381 
z
M 1991 3584 
L 1991 3584 
z
" transform="scale(0.015625)"/>
       <path id="DejaVuSans-56" d="M 1831 0 
L 50 4666 
L 709 4666 
L 2188 738 
L 3669 4666 
L 4325 4666 
L 2547 0 
L 1831 0 
z
" transform="scale(0.015625)"/>
      </defs>
      <use xlink:href="#DejaVuSans-53"/>
      <use xlink:href="#DejaVuSans-70" x="63.476562"/>
      <use xlink:href="#DejaVuSans-61" x="126.953125"/>
      <use xlink:href="#DejaVuSans-6e" x="188.232422"/>
      <use xlink:href="#DejaVuSans-6e" x="251.611328"/>
      <use xlink:href="#DejaVuSans-75" x="314.990234"/>
      <use xlink:href="#DejaVuSans-6e" x="378.369141"/>
      <use xlink:href="#DejaVuSans-67" x="441.748047"/>
      <use xlink:href="#DejaVuSans-20" x="505.224609"/>
      <use xlink:href="#DejaVuSans-69" x="537.011719"/>
      <use xlink:href="#DejaVuSans-6e" x="564.794922"/>
      <use xlink:href="#DejaVuSans-20" x="628.173828"/>
      <use xlink:href="#DejaVuSans-56" x="659.960938"/>
     </g>
    </g>
   </g>
   <g id="line2d_16">
    <path d="M 73.832727 285.318168 
L 74.759319 285.318168 
L 74.875143 284.407772 
L 75.917558 284.407772 
L 76.033382 284.930406 
L 76.959974 284.930406 
L 77.075798 285.967246 
L 78.234038 285.967246 
L 78.349862 285.018075 
L 79.276453 285.018075 
L 79.508101 284.825036 
L 80.434693 284.825036 
L 80.550517 283.26978 
L 81.477108 283.26978 
L 81.592932 286.451946 
L 82.751172 286.451946 
L 82.866996 284.622727 
L 83.909411 284.622727 
L 84.025235 283.703903 
L 84.951827 283.703903 
L 85.067651 284.681734 
L 86.22589 284.681734 
L 86.341714 284.091664 
L 87.268306 284.091664 
L 87.38413 285.288664 
L 88.426546 285.288664 
L 88.54237 284.774459 
L 89.468961 284.774459 
L 89.584785 285.297094 
L 90.743025 285.297094 
L 90.858849 283.922231 
L 91.78544 283.922231 
L 91.901264 283.514236 
L 92.94368 283.514236 
L 93.059504 285.32154 
L 95.260159 285.396844 
L 95.375983 284.46678 
L 96.418398 284.46678 
L 96.534222 284.984356 
L 98.734878 285.070901 
L 98.850702 286.191472 
L 99.777293 286.191472 
L 99.893117 283.746053 
L 100.935533 283.746053 
L 101.051357 284.648015 
L 101.977948 284.648015 
L 102.093772 285.18751 
L 103.252012 285.18751 
L 103.48366 285.576673 
L 104.294427 285.576673 
L 104.410251 284.795533 
L 105.452667 284.795533 
L 105.684315 284.957382 
L 106.495083 284.957382 
L 106.72673 284.782888 
L 107.769146 284.782888 
L 107.88497 284.264469 
L 108.927386 284.264469 
L 109.04321 285.120072 
L 109.969801 285.120072 
L 110.085625 284.46678 
L 111.243865 284.46678 
L 111.359689 283.156824 
L 112.28628 283.156824 
L 112.402104 284.702808 
L 113.44452 284.702808 
L 113.560344 284.296502 
L 114.486935 284.296502 
L 114.718583 284.626941 
L 115.760999 284.626941 
L 115.876823 283.273995 
L 116.803415 283.273995 
L 116.919238 284.775302 
L 117.961654 284.775302 
L 118.077478 283.975055 
L 119.235718 283.975055 
L 119.467365 284.235809 
L 120.278133 284.235809 
L 120.509781 284.458351 
L 121.436373 284.458351 
L 121.552197 283.311928 
L 122.478788 283.311928 
L 122.594612 284.154886 
L 123.752852 284.154886 
L 123.868676 283.484733 
L 124.795267 283.484733 
L 124.911091 284.551076 
L 125.953507 284.551076 
L 126.185155 284.927034 
L 126.995923 284.927034 
L 127.111747 284.264469 
L 128.269986 284.264469 
L 128.38581 283.758695 
L 129.312402 283.758695 
L 129.428226 284.513142 
L 130.470641 284.513142 
L 130.702289 284.315047 
L 131.744705 284.315047 
L 131.860529 283.918858 
L 132.78712 283.918858 
L 133.018768 283.602748 
L 134.987775 283.54374 
L 135.103599 284.740742 
L 136.261839 284.740742 
L 136.493487 284.365626 
L 137.304255 284.365626 
L 137.420078 283.767125 
L 138.462494 283.767125 
L 138.578318 284.191975 
L 139.50491 284.191975 
L 139.620734 283.143336 
L 140.778973 283.143336 
L 140.894797 283.800843 
L 141.821389 283.800843 
L 142.053037 283.990507 
L 142.979628 283.990507 
L 143.211276 283.851421 
L 144.253692 283.851421 
L 144.369516 282.394789 
L 145.296107 282.394789 
L 145.411931 281.463039 
L 146.454347 281.463039 
L 146.570171 282.354327 
L 147.496763 282.354327 
L 147.612587 281.769314 
L 148.770826 281.769314 
L 148.88665 282.393103 
L 149.813242 282.393103 
L 149.929066 281.002223 
L 150.971481 281.002223 
L 151.203129 281.394197 
L 152.013897 281.394197 
L 152.129721 279.619772 
L 153.28796 279.619772 
L 153.519608 279.830512 
L 154.4462 279.830512 
L 154.562024 279.054989 
L 155.488615 279.054989 
L 155.604439 278.47335 
L 156.762679 278.47335 
L 156.878503 276.024554 
L 157.805095 276.024554 
L 157.920918 276.766358 
L 158.963334 276.766358 
L 159.079158 273.343958 
L 160.00575 273.343958 
L 160.121574 271.207049 
L 161.279813 271.207049 
L 161.395637 268.405061 
L 162.322229 268.405061 
L 162.438053 264.65305 
L 163.480468 264.65305 
L 163.596292 262.874406 
L 164.522884 262.874406 
L 164.638708 258.458164 
L 165.796947 258.458164 
L 165.912771 254.735641 
L 166.955187 254.735641 
L 167.071011 250.058919 
L 167.997603 250.058919 
L 168.113427 245.367573 
L 169.271666 245.367573 
L 169.38749 241.488569 
L 170.314082 241.488569 
L 170.429906 234.97249 
L 171.472321 234.97249 
L 171.588145 228.743032 
L 172.514737 228.743032 
L 172.630561 222.366049 
L 173.7888 222.366049 
L 173.904624 217.01495 
L 174.831216 217.01495 
L 174.94704 207.344548 
L 175.989455 207.344548 
L 176.105279 201.717801 
L 177.263519 201.717801 
L 177.379343 194.207041 
L 178.305935 194.207041 
L 178.421759 188.327418 
L 179.464174 188.327418 
L 179.579998 180.592444 
L 180.50659 180.592444 
L 180.622414 173.109216 
L 181.780653 173.109216 
L 181.896477 165.082014 
L 182.823069 165.082014 
L 182.938893 157.588943 
L 183.981308 157.588943 
L 184.097132 148.489221 
L 185.023724 148.489221 
L 185.139548 139.785666 
L 186.297787 139.785666 
L 186.413611 133.353919 
L 187.340203 133.353919 
L 187.456027 124.814732 
L 188.498443 124.814732 
L 188.614267 116.452601 
L 189.772506 116.452601 
L 189.88833 109.620412 
L 190.814922 109.620412 
L 190.930746 101.254065 
L 191.973161 101.254065 
L 192.088985 94.114197 
L 193.015577 94.114197 
L 193.131401 87.724506 
L 194.28964 87.724506 
L 194.405464 80.870412 
L 195.332056 80.870412 
L 195.44788 74.932659 
L 196.490295 74.932659 
L 196.606119 70.89213 
L 197.532711 70.89213 
L 197.648535 65.988914 
L 198.806775 65.988914 
L 198.922599 60.977586 
L 199.965014 60.977586 
L 200.080838 59.810125 
L 201.00743 59.810125 
L 201.123254 56.514084 
L 202.281493 56.514084 
L 202.397317 54.385505 
L 204.482148 54.402448 
L 204.597972 53.568 
L 205.524564 53.568 
L 205.640388 54.263273 
L 206.798627 54.263273 
L 206.914451 54.917398 
L 207.841043 54.917398 
L 207.956867 56.348284 
L 208.999283 56.348284 
L 209.115107 57.955459 
L 210.041698 57.955459 
L 210.157522 60.631866 
L 211.315762 60.631866 
L 211.431586 61.529649 
L 212.474001 61.529649 
L 212.589825 67.167267 
L 213.516417 67.167267 
L 213.632241 70.161559 
L 214.79048 70.161559 
L 214.906304 73.912643 
L 215.832896 73.912643 
L 215.94872 77.002139 
L 216.991135 77.002139 
L 217.106959 81.035809 
L 218.033551 81.035809 
L 218.149375 84.829049 
L 219.307615 84.829049 
L 219.423439 89.439996 
L 220.35003 89.439996 
L 220.465854 95.129977 
L 221.50827 95.129977 
L 221.624094 100.120308 
L 222.550685 100.120308 
L 222.666509 104.794489 
L 223.824749 104.794489 
L 223.940573 110.821658 
L 224.982988 110.821658 
L 225.098812 115.287903 
L 226.025404 115.287903 
L 226.141228 120.633677 
L 227.299467 120.633677 
L 227.415291 126.646484 
L 228.341883 126.646484 
L 228.457707 133.299116 
L 229.500123 133.299116 
L 229.615947 138.845787 
L 230.542538 138.845787 
L 230.658362 145.083676 
L 231.816602 145.083676 
L 231.932426 149.252105 
L 232.859017 149.252105 
L 232.974841 155.374498 
L 234.017257 155.374498 
L 234.133081 158.225378 
L 235.29132 158.225378 
L 235.407144 164.266021 
L 236.333736 164.266021 
L 236.44956 170.165875 
L 237.491975 170.165875 
L 237.607799 174.275306 
L 238.534391 174.275306 
L 238.650215 178.907371 
L 239.808455 178.907371 
L 239.924279 181.710205 
L 240.85087 181.710205 
L 240.966694 186.161019 
L 242.00911 186.161019 
L 242.124934 189.220966 
L 243.051525 189.220966 
L 243.167349 194.318038 
L 244.325589 194.318038 
L 244.441413 195.943528 
L 245.368004 195.943528 
L 245.483828 198.995043 
L 246.526244 198.995043 
L 246.642068 201.907463 
L 247.800307 201.907463 
L 247.916131 204.869623 
L 248.842723 204.869623 
L 248.958547 207.407762 
L 250.000963 207.407762 
L 250.116787 209.848135 
L 251.043378 209.848135 
L 251.159202 211.403391 
L 252.317442 211.403391 
L 252.433266 213.604927 
L 253.359857 213.604927 
L 253.475681 215.289415 
L 254.518097 215.289415 
L 254.633921 218.566011 
L 255.560512 218.566011 
L 255.676336 219.377768 
L 256.834576 219.377768 
L 256.9504 222.981406 
L 257.992815 222.981406 
L 258.108639 224.448175 
L 259.035231 224.448175 
L 259.151055 226.399618 
L 260.309295 226.399618 
L 260.425119 226.82362 
L 261.35171 226.82362 
L 261.467534 228.238672 
L 262.50995 228.238672 
L 262.625774 231.752411 
L 263.552365 231.752411 
L 263.668189 234.542579 
L 265.868844 234.652164 
L 265.984668 236.999814 
L 267.027084 236.999814 
L 267.142908 237.842774 
L 268.0695 237.842774 
L 268.185324 238.69584 
L 269.343563 238.69584 
L 269.459387 240.447515 
L 270.501803 240.447515 
L 270.617627 241.960616 
L 271.544218 241.960616 
L 271.660042 243.37819 
L 272.818282 243.37819 
L 272.934106 244.873036 
L 273.860697 244.873036 
L 274.092345 245.210224 
L 275.018937 245.210224 
L 275.134761 247.459241 
L 276.061352 247.459241 
L 276.177176 248.171819 
L 277.335416 248.171819 
L 277.45124 248.838309 
L 278.377832 248.838309 
L 278.493655 250.744248 
L 279.536071 250.744248 
L 279.651895 252.379581 
L 280.578487 252.379581 
L 280.694311 253.770469 
L 283.01079 253.858977 
L 283.126614 255.039125 
L 284.053205 255.039125 
L 284.169029 257.437321 
L 285.327269 257.437321 
L 285.443093 256.868335 
L 286.369684 256.868335 
L 286.485508 258.335084 
L 287.527924 258.335084 
L 287.643748 259.49835 
L 288.57034 259.49835 
L 288.686164 258.710193 
L 289.844403 258.710193 
L 289.960227 261.150566 
L 290.886819 261.150566 
L 291.002643 261.626828 
L 292.045058 261.626828 
L 292.160882 262.785899 
L 293.087474 262.785899 
L 293.203298 262.343341 
L 294.361537 262.343341 
L 294.477361 263.611996 
L 297.836256 263.700504 
L 297.95208 265.099823 
L 298.878672 265.099823 
L 299.110319 265.452462 
L 301.079327 265.563439 
L 301.310975 265.635105 
L 302.35339 265.635105 
L 302.585038 265.930137 
L 303.395806 265.930137 
L 303.51163 267.336193 
L 305.828109 267.388455 
L 305.943933 268.353647 
L 306.870524 268.353647 
L 306.986348 269.255606 
L 309.07118 269.339898 
L 309.187004 268.374705 
L 310.345243 268.374705 
L 310.576891 268.233089 
L 311.387659 268.233089 
L 311.503483 269.192392 
L 312.545898 269.192392 
L 312.661722 270.553751 
L 313.588314 270.553751 
L 313.704138 271.223911 
L 314.862377 271.223911 
L 315.094025 271.56953 
L 315.904793 271.56953 
L 316.020617 270.944047 
L 317.063032 270.944047 
L 317.178856 271.8477 
L 318.337096 271.8477 
L 318.568744 272.100576 
L 319.379512 272.100576 
L 319.495336 273.841299 
L 320.537751 273.841299 
L 320.653575 272.656935 
L 321.580167 272.656935 
L 321.811815 272.998339 
L 322.85423 272.998339 
L 322.970054 274.427148 
L 323.896646 274.427148 
L 324.128294 274.258564 
L 325.054885 274.258564 
L 325.286533 274.48784 
L 326.097301 274.48784 
L 326.328949 274.781198 
L 327.371364 274.781198 
L 327.487188 276.225459 
L 328.41378 276.225459 
L 328.529604 274.535039 
L 329.57202 274.535039 
L 329.687844 276.44463 
L 331.888499 276.500827 
L 332.004323 277.133047 
L 333.046738 277.133047 
L 333.162562 275.813816 
L 334.089154 275.813816 
L 334.204978 277.35643 
L 335.363217 277.35643 
L 335.479041 277.959143 
L 336.405633 277.959143 
L 336.637281 277.574193 
L 337.563872 277.574193 
L 337.79552 277.930483 
L 338.606288 277.930483 
L 338.722112 277.470227 
L 339.880352 277.470227 
L 339.996176 278.123521 
L 340.922767 278.123521 
L 341.038591 277.179409 
L 342.081007 277.179409 
L 342.196831 279.274158 
L 343.35507 279.274158 
L 343.470894 279.997415 
L 344.397486 279.997415 
L 344.51331 279.430105 
L 345.555725 279.430105 
L 345.671549 278.726236 
L 346.598141 278.726236 
L 346.829789 279.08871 
L 347.872204 279.08871 
L 347.988028 280.825201 
L 350.07286 280.84206 
L 350.188684 280.133975 
L 351.115275 280.133975 
L 351.231099 281.150584 
L 352.389339 281.150584 
L 352.505163 279.754645 
L 353.547578 279.754645 
L 353.779226 280.070755 
L 354.589994 280.070755 
L 354.821642 280.282899 
L 355.864057 280.282899 
L 355.979881 281.503783 
L 356.906473 281.503783 
L 357.022297 280.66504 
L 358.064712 280.66504 
L 358.180536 282.141901 
L 359.107128 282.141901 
L 359.222952 281.423703 
L 360.381192 281.423703 
L 360.497016 280.310998 
L 361.423607 280.310998 
L 361.539431 281.465851 
L 362.581847 281.465851 
L 362.697671 280.993793 
L 363.85591 280.993793 
L 364.087558 281.200318 
L 364.898326 281.200318 
L 365.01415 282.414177 
L 367.098981 282.346741 
L 367.330629 282.595414 
L 368.373044 282.595414 
L 368.604692 282.801938 
L 369.41546 282.801938 
L 369.531284 279.742 
L 370.5737 279.742 
L 370.689524 282.344212 
L 371.616115 282.344212 
L 371.847763 282.540621 
L 372.890179 282.540621 
L 373.006003 283.362505 
L 374.048418 283.362505 
L 374.164242 284.182983 
L 375.090834 284.182983 
L 375.206658 283.741837 
L 376.364897 283.741837 
L 376.596545 283.601903 
L 378.565552 283.615393 
L 378.681376 281.851924 
L 379.607968 281.851924 
L 379.723792 284.403558 
L 380.882032 284.403558 
L 380.997856 285.27602 
L 381.924447 285.27602 
L 382.040271 284.715453 
L 383.082687 284.715453 
L 383.314335 284.520167 
L 384.125102 284.520167 
L 384.240926 283.05061 
L 385.399166 283.05061 
L 385.51499 283.807586 
L 386.441581 283.807586 
L 386.557405 284.395129 
L 387.599821 284.395129 
L 387.831469 284.036871 
L 388.873884 284.036871 
L 388.989708 284.694379 
L 392.116955 284.66066 
L 392.348603 284.542645 
L 393.391019 284.542645 
L 393.506843 283.979551 
L 394.433434 283.979551 
L 394.665082 283.779769 
L 395.591674 283.779769 
L 395.707498 284.618514 
L 396.634089 284.618514 
L 396.749913 285.440396 
L 397.908153 285.440396 
L 398.023977 283.493164 
L 398.371449 283.493164 
L 398.487273 287.8639 
L 398.487273 287.8639 
" clip-path="url(#p646ff675aa)" style="fill: none; stroke: #1f77b4; stroke-width: 1.5; stroke-linecap: square"/>
   </g>
   <g id="line2d_17">
    <path d="M 73.832727 295.488 
L 104.641899 295.382461 
L 107.653322 295.126488 
L 109.853977 294.725884 
L 111.707161 294.171005 
L 113.44452 293.410256 
L 115.066055 292.442066 
L 116.571767 291.282754 
L 118.077478 289.842203 
L 119.583189 288.095249 
L 121.204725 285.849012 
L 122.82626 283.20881 
L 124.563619 279.935058 
L 126.416803 275.939352 
L 128.38581 271.144151 
L 130.586465 265.160605 
L 133.018768 257.866632 
L 135.798543 248.808059 
L 139.389086 236.289131 
L 153.28796 186.927084 
L 156.531031 176.692943 
L 159.42663 168.27903 
L 162.090581 161.203038 
L 164.638708 155.062991 
L 167.071011 149.789577 
L 169.38749 145.304081 
L 171.588145 141.524321 
L 173.672976 138.368764 
L 175.757808 135.616723 
L 177.726815 133.376768 
L 179.695822 131.473294 
L 181.549005 129.977122 
L 183.402189 128.755121 
L 185.255372 127.794789 
L 187.108555 127.083276 
L 188.961738 126.607532 
L 190.814922 126.35444 
L 192.783929 126.314874 
L 194.752936 126.496411 
L 196.837767 126.912724 
L 199.038422 127.583159 
L 201.354902 128.523583 
L 203.903029 129.809845 
L 206.56698 131.406867 
L 209.462578 133.400331 
L 212.705649 135.907937 
L 216.296192 138.968603 
L 220.465854 142.82485 
L 225.446284 147.751435 
L 231.816602 154.390071 
L 243.051525 166.489411 
L 254.518097 178.718378 
L 262.394126 186.793918 
L 269.459387 193.722951 
L 276.061352 199.891833 
L 282.43167 205.547201 
L 288.686164 210.80928 
L 294.940657 215.783413 
L 301.195151 220.473973 
L 307.449644 224.888569 
L 313.819962 229.111442 
L 320.190279 233.070266 
L 326.676421 236.843176 
L 333.39421 240.491571 
L 340.227823 243.94843 
L 347.293085 247.270156 
L 354.47417 250.401577 
L 361.886903 253.394048 
L 369.647108 256.28568 
L 377.638961 259.026701 
L 385.978286 261.65239 
L 394.665082 264.155479 
L 398.487273 265.187501 
L 398.487273 265.187501 
" clip-path="url(#p646ff675aa)" style="fill: none; stroke: #ff7f0e; stroke-width: 1.5; stroke-linecap: square"/>
   </g>
   <g id="patch_3">
    <path d="M 57.6 307.584 
L 57.6 41.472 
" style="fill: none; stroke: #000000; stroke-width: 0.8; stroke-linejoin: miter; stroke-linecap: square"/>
   </g>
   <g id="patch_4">
    <path d="M 414.72 307.584 
L 414.72 41.472 
" style="fill: none; stroke: #000000; stroke-width: 0.8; stroke-linejoin: miter; stroke-linecap: square"/>
   </g>
   <g id="patch_5">
    <path d="M 57.6 307.584 
L 414.72 307.584 
" style="fill: none; stroke: #000000; stroke-width: 0.8; stroke-linejoin: miter; stroke-linecap: square"/>
   </g>
   <g id="patch_6">
    <path d="M 57.6 41.472 
L 414.72 41.472 
" style="fill: none; stroke: #000000; stroke-width: 0.8; stroke-linejoin: miter; stroke-linecap: square"/>
   </g>
   <g id="legend_1">
    <g id="patch_7">
     <path d="M 279.310625 78.82825 
L 407.72 78.82825 
Q 409.72 78.82825 409.72 76.82825 
L 409.72 48.472 
Q 409.72 46.472 407.72 46.472 
L 279.310625 46.472 
Q 277.310625 46.472 277.310625 48.472 
L 277.310625 76.82825 
Q 277.310625 78.82825 279.310625 78.82825 
z
" style="fill: #ffffff; opacity: 0.8; stroke: #cccccc; stroke-linejoin: miter"/>
    </g>
    <g id="line2d_18">
     <path d="M 281.310625 54.570437 
L 291.310625 54.570437 
L 301.310625 54.570437 
" style="fill: none; stroke: #1f77b4; stroke-width: 1.5; stroke-linecap: square"/>
    </g>
    <g id="text_19">
     <!-- $T=547$ -->
     <g transform="translate(309.310625 58.070437) scale(0.1 -0.1)">
      <defs>
       <path id="DejaVuSans-Oblique-54" d="M 378 4666 
L 4325 4666 
L 4225 4134 
L 2559 4134 
L 1759 0 
L 1125 0 
L 1925 4134 
L 275 4134 
L 378 4666 
z
" transform="scale(0.015625)"/>
       <path id="DejaVuSans-3d" d="M 678 2906 
L 4684 2906 
L 4684 2381 
L 678 2381 
L 678 2906 
z
M 678 1631 
L 4684 1631 
L 4684 1100 
L 678 1100 
L 678 1631 
z
" transform="scale(0.015625)"/>
       <path id="DejaVuSans-37" d="M 525 4666 
L 3525 4666 
L 3525 4397 
L 1831 0 
L 1172 0 
L 2766 4134 
L 525 4134 
L 525 4666 
z
" transform="scale(0.015625)"/>
      </defs>
      <use xlink:href="#DejaVuSans-Oblique-54" transform="translate(0 0.09375)"/>
      <use xlink:href="#DejaVuSans-3d" transform="translate(80.566406 0.09375)"/>
      <use xlink:href="#DejaVuSans-35" transform="translate(183.837891 0.09375)"/>
      <use xlink:href="#DejaVuSans-34" transform="translate(247.460938 0.09375)"/>
      <use xlink:href="#DejaVuSans-37" transform="translate(311.083984 0.09375)"/>
     </g>
    </g>
    <g id="line2d_19">
     <path d="M 281.310625 69.248562 
L 291.310625 69.248562 
L 301.310625 69.248562 
" style="fill: none; stroke: #ff7f0e; stroke-width: 1.5; stroke-linecap: square"/>
    </g>
    <g id="text_20">
     <!-- Theoretische Kurve -->
     <g transform="translate(309.310625 72.748562) scale(0.1 -0.1)">
      <defs>
       <path id="DejaVuSans-54" d="M -19 4666 
L 3928 4666 
L 3928 4134 
L 2272 4134 
L 2272 0 
L 1638 0 
L 1638 4134 
L -19 4134 
L -19 4666 
z
" transform="scale(0.015625)"/>
       <path id="DejaVuSans-68" d="M 3513 2113 
L 3513 0 
L 2938 0 
L 2938 2094 
Q 2938 2591 2744 2837 
Q 2550 3084 2163 3084 
Q 1697 3084 1428 2787 
Q 1159 2491 1159 1978 
L 1159 0 
L 581 0 
L 581 4863 
L 1159 4863 
L 1159 2956 
Q 1366 3272 1645 3428 
Q 1925 3584 2291 3584 
Q 2894 3584 3203 3211 
Q 3513 2838 3513 2113 
z
" transform="scale(0.015625)"/>
       <path id="DejaVuSans-6f" d="M 1959 3097 
Q 1497 3097 1228 2736 
Q 959 2375 959 1747 
Q 959 1119 1226 758 
Q 1494 397 1959 397 
Q 2419 397 2687 759 
Q 2956 1122 2956 1747 
Q 2956 2369 2687 2733 
Q 2419 3097 1959 3097 
z
M 1959 3584 
Q 2709 3584 3137 3096 
Q 3566 2609 3566 1747 
Q 3566 888 3137 398 
Q 2709 -91 1959 -91 
Q 1206 -91 779 398 
Q 353 888 353 1747 
Q 353 2609 779 3096 
Q 1206 3584 1959 3584 
z
" transform="scale(0.015625)"/>
       <path id="DejaVuSans-72" d="M 2631 2963 
Q 2534 3019 2420 3045 
Q 2306 3072 2169 3072 
Q 1681 3072 1420 2755 
Q 1159 2438 1159 1844 
L 1159 0 
L 581 0 
L 581 3500 
L 1159 3500 
L 1159 2956 
Q 1341 3275 1631 3429 
Q 1922 3584 2338 3584 
Q 2397 3584 2469 3576 
Q 2541 3569 2628 3553 
L 2631 2963 
z
" transform="scale(0.015625)"/>
       <path id="DejaVuSans-74" d="M 1172 4494 
L 1172 3500 
L 2356 3500 
L 2356 3053 
L 1172 3053 
L 1172 1153 
Q 1172 725 1289 603 
Q 1406 481 1766 481 
L 2356 481 
L 2356 0 
L 1766 0 
Q 1100 0 847 248 
Q 594 497 594 1153 
L 594 3053 
L 172 3053 
L 172 3500 
L 594 3500 
L 594 4494 
L 1172 4494 
z
" transform="scale(0.015625)"/>
       <path id="DejaVuSans-73" d="M 2834 3397 
L 2834 2853 
Q 2591 2978 2328 3040 
Q 2066 3103 1784 3103 
Q 1356 3103 1142 2972 
Q 928 2841 928 2578 
Q 928 2378 1081 2264 
Q 1234 2150 1697 2047 
L 1894 2003 
Q 2506 1872 2764 1633 
Q 3022 1394 3022 966 
Q 3022 478 2636 193 
Q 2250 -91 1575 -91 
Q 1294 -91 989 -36 
Q 684 19 347 128 
L 347 722 
Q 666 556 975 473 
Q 1284 391 1588 391 
Q 1994 391 2212 530 
Q 2431 669 2431 922 
Q 2431 1156 2273 1281 
Q 2116 1406 1581 1522 
L 1381 1569 
Q 847 1681 609 1914 
Q 372 2147 372 2553 
Q 372 3047 722 3315 
Q 1072 3584 1716 3584 
Q 2034 3584 2315 3537 
Q 2597 3491 2834 3397 
z
" transform="scale(0.015625)"/>
       <path id="DejaVuSans-63" d="M 3122 3366 
L 3122 2828 
Q 2878 2963 2633 3030 
Q 2388 3097 2138 3097 
Q 1578 3097 1268 2742 
Q 959 2388 959 1747 
Q 959 1106 1268 751 
Q 1578 397 2138 397 
Q 2388 397 2633 464 
Q 2878 531 3122 666 
L 3122 134 
Q 2881 22 2623 -34 
Q 2366 -91 2075 -91 
Q 1284 -91 818 406 
Q 353 903 353 1747 
Q 353 2603 823 3093 
Q 1294 3584 2113 3584 
Q 2378 3584 2631 3529 
Q 2884 3475 3122 3366 
z
" transform="scale(0.015625)"/>
       <path id="DejaVuSans-4b" d="M 628 4666 
L 1259 4666 
L 1259 2694 
L 3353 4666 
L 4166 4666 
L 1850 2491 
L 4331 0 
L 3500 0 
L 1259 2247 
L 1259 0 
L 628 0 
L 628 4666 
z
" transform="scale(0.015625)"/>
       <path id="DejaVuSans-76" d="M 191 3500 
L 800 3500 
L 1894 563 
L 2988 3500 
L 3597 3500 
L 2284 0 
L 1503 0 
L 191 3500 
z
" transform="scale(0.015625)"/>
      </defs>
      <use xlink:href="#DejaVuSans-54"/>
      <use xlink:href="#DejaVuSans-68" x="61.083984"/>
      <use xlink:href="#DejaVuSans-65" x="124.462891"/>
      <use xlink:href="#DejaVuSans-6f" x="185.986328"/>
      <use xlink:href="#DejaVuSans-72" x="247.167969"/>
      <use xlink:href="#DejaVuSans-65" x="286.03125"/>
      <use xlink:href="#DejaVuSans-74" x="347.554688"/>
      <use xlink:href="#DejaVuSans-69" x="386.763672"/>
      <use xlink:href="#DejaVuSans-73" x="414.546875"/>
      <use xlink:href="#DejaVuSans-63" x="466.646484"/>
      <use xlink:href="#DejaVuSans-68" x="521.626953"/>
      <use xlink:href="#DejaVuSans-65" x="585.005859"/>
      <use xlink:href="#DejaVuSans-20" x="646.529297"/>
      <use xlink:href="#DejaVuSans-4b" x="678.316406"/>
      <use xlink:href="#DejaVuSans-75" x="738.892578"/>
      <use xlink:href="#DejaVuSans-72" x="802.271484"/>
      <use xlink:href="#DejaVuSans-76" x="843.384766"/>
      <use xlink:href="#DejaVuSans-65" x="902.564453"/>
     </g>
    </g>
   </g>
  </g>
 </g>
 <defs>
  <clipPath id="p646ff675aa">
   <rect x="57.6" y="41.472" width="357.12" height="266.112"/>
  </clipPath>
 </defs>
</svg>
