<?xml version="1.0" encoding="utf-8" standalone="no"?>
<!DOCTYPE svg PUBLIC "-//W3C//DTD SVG 1.1//EN"
  "http://www.w3.org/Graphics/SVG/1.1/DTD/svg11.dtd">
<svg xmlns:xlink="http://www.w3.org/1999/xlink" width="427.18875pt" height="310.86825pt" viewBox="0 0 427.18875 310.86825" xmlns="http://www.w3.org/2000/svg" version="1.1">
 <metadata>
  <rdf:RDF xmlns:dc="http://purl.org/dc/elements/1.1/" xmlns:cc="http://creativecommons.org/ns#" xmlns:rdf="http://www.w3.org/1999/02/22-rdf-syntax-ns#">
   <cc:Work>
    <dc:type rdf:resource="http://purl.org/dc/dcmitype/StillImage"/>
    <dc:date>2024-07-12T18:08:21.593910</dc:date>
    <dc:format>image/svg+xml</dc:format>
    <dc:creator>
     <cc:Agent>
      <dc:title>Matplotlib v3.8.2, https://matplotlib.org/</dc:title>
     </cc:Agent>
    </dc:creator>
   </cc:Work>
  </rdf:RDF>
 </metadata>
 <defs>
  <style type="text/css">*{stroke-linejoin: round; stroke-linecap: butt}</style>
 </defs>
 <g id="figure_1">
  <g id="patch_1">
   <path d="M 0 310.86825 
L 427.18875 310.86825 
L 427.18875 0 
L 0 0 
z
" style="fill: #ffffff"/>
  </g>
  <g id="axes_1">
   <g id="patch_2">
    <path d="M 62.86875 273.312 
L 419.98875 273.312 
L 419.98875 7.2 
L 62.86875 7.2 
z
" style="fill: #ffffff"/>
   </g>
   <g id="matplotlib.axis_1">
    <g id="xtick_1">
     <g id="line2d_1">
      <defs>
       <path id="meb055616ba" d="M 0 0 
L 0 3.5 
" style="stroke: #000000; stroke-width: 0.8"/>
      </defs>
      <g>
       <use xlink:href="#meb055616ba" x="79.100117" y="273.312" style="stroke: #000000; stroke-width: 0.8"/>
      </g>
     </g>
     <g id="text_1">
      <!-- 0.0 -->
      <g transform="translate(71.148555 287.910437) scale(0.1 -0.1)">
       <defs>
        <path id="DejaVuSans-30" d="M 2034 4250 
Q 1547 4250 1301 3770 
Q 1056 3291 1056 2328 
Q 1056 1369 1301 889 
Q 1547 409 2034 409 
Q 2525 409 2770 889 
Q 3016 1369 3016 2328 
Q 3016 3291 2770 3770 
Q 2525 4250 2034 4250 
z
M 2034 4750 
Q 2819 4750 3233 4129 
Q 3647 3509 3647 2328 
Q 3647 1150 3233 529 
Q 2819 -91 2034 -91 
Q 1250 -91 836 529 
Q 422 1150 422 2328 
Q 422 3509 836 4129 
Q 1250 4750 2034 4750 
z
" transform="scale(0.015625)"/>
        <path id="DejaVuSans-2e" d="M 684 794 
L 1344 794 
L 1344 0 
L 684 0 
L 684 794 
z
" transform="scale(0.015625)"/>
       </defs>
       <use xlink:href="#DejaVuSans-30"/>
       <use xlink:href="#DejaVuSans-2e" x="63.623047"/>
       <use xlink:href="#DejaVuSans-30" x="95.410156"/>
      </g>
     </g>
    </g>
    <g id="xtick_2">
     <g id="line2d_2">
      <g>
       <use xlink:href="#meb055616ba" x="123.743429" y="273.312" style="stroke: #000000; stroke-width: 0.8"/>
      </g>
     </g>
     <g id="text_2">
      <!-- 0.2 -->
      <g transform="translate(115.791866 287.910437) scale(0.1 -0.1)">
       <defs>
        <path id="DejaVuSans-32" d="M 1228 531 
L 3431 531 
L 3431 0 
L 469 0 
L 469 531 
Q 828 903 1448 1529 
Q 2069 2156 2228 2338 
Q 2531 2678 2651 2914 
Q 2772 3150 2772 3378 
Q 2772 3750 2511 3984 
Q 2250 4219 1831 4219 
Q 1534 4219 1204 4116 
Q 875 4013 500 3803 
L 500 4441 
Q 881 4594 1212 4672 
Q 1544 4750 1819 4750 
Q 2544 4750 2975 4387 
Q 3406 4025 3406 3419 
Q 3406 3131 3298 2873 
Q 3191 2616 2906 2266 
Q 2828 2175 2409 1742 
Q 1991 1309 1228 531 
z
" transform="scale(0.015625)"/>
       </defs>
       <use xlink:href="#DejaVuSans-30"/>
       <use xlink:href="#DejaVuSans-2e" x="63.623047"/>
       <use xlink:href="#DejaVuSans-32" x="95.410156"/>
      </g>
     </g>
    </g>
    <g id="xtick_3">
     <g id="line2d_3">
      <g>
       <use xlink:href="#meb055616ba" x="168.38674" y="273.312" style="stroke: #000000; stroke-width: 0.8"/>
      </g>
     </g>
     <g id="text_3">
      <!-- 0.4 -->
      <g transform="translate(160.435178 287.910437) scale(0.1 -0.1)">
       <defs>
        <path id="DejaVuSans-34" d="M 2419 4116 
L 825 1625 
L 2419 1625 
L 2419 4116 
z
M 2253 4666 
L 3047 4666 
L 3047 1625 
L 3713 1625 
L 3713 1100 
L 3047 1100 
L 3047 0 
L 2419 0 
L 2419 1100 
L 313 1100 
L 313 1709 
L 2253 4666 
z
" transform="scale(0.015625)"/>
       </defs>
       <use xlink:href="#DejaVuSans-30"/>
       <use xlink:href="#DejaVuSans-2e" x="63.623047"/>
       <use xlink:href="#DejaVuSans-34" x="95.410156"/>
      </g>
     </g>
    </g>
    <g id="xtick_4">
     <g id="line2d_4">
      <g>
       <use xlink:href="#meb055616ba" x="213.030052" y="273.312" style="stroke: #000000; stroke-width: 0.8"/>
      </g>
     </g>
     <g id="text_4">
      <!-- 0.6 -->
      <g transform="translate(205.07849 287.910437) scale(0.1 -0.1)">
       <defs>
        <path id="DejaVuSans-36" d="M 2113 2584 
Q 1688 2584 1439 2293 
Q 1191 2003 1191 1497 
Q 1191 994 1439 701 
Q 1688 409 2113 409 
Q 2538 409 2786 701 
Q 3034 994 3034 1497 
Q 3034 2003 2786 2293 
Q 2538 2584 2113 2584 
z
M 3366 4563 
L 3366 3988 
Q 3128 4100 2886 4159 
Q 2644 4219 2406 4219 
Q 1781 4219 1451 3797 
Q 1122 3375 1075 2522 
Q 1259 2794 1537 2939 
Q 1816 3084 2150 3084 
Q 2853 3084 3261 2657 
Q 3669 2231 3669 1497 
Q 3669 778 3244 343 
Q 2819 -91 2113 -91 
Q 1303 -91 875 529 
Q 447 1150 447 2328 
Q 447 3434 972 4092 
Q 1497 4750 2381 4750 
Q 2619 4750 2861 4703 
Q 3103 4656 3366 4563 
z
" transform="scale(0.015625)"/>
       </defs>
       <use xlink:href="#DejaVuSans-30"/>
       <use xlink:href="#DejaVuSans-2e" x="63.623047"/>
       <use xlink:href="#DejaVuSans-36" x="95.410156"/>
      </g>
     </g>
    </g>
    <g id="xtick_5">
     <g id="line2d_5">
      <g>
       <use xlink:href="#meb055616ba" x="257.673364" y="273.312" style="stroke: #000000; stroke-width: 0.8"/>
      </g>
     </g>
     <g id="text_5">
      <!-- 0.8 -->
      <g transform="translate(249.721801 287.910437) scale(0.1 -0.1)">
       <defs>
        <path id="DejaVuSans-38" d="M 2034 2216 
Q 1584 2216 1326 1975 
Q 1069 1734 1069 1313 
Q 1069 891 1326 650 
Q 1584 409 2034 409 
Q 2484 409 2743 651 
Q 3003 894 3003 1313 
Q 3003 1734 2745 1975 
Q 2488 2216 2034 2216 
z
M 1403 2484 
Q 997 2584 770 2862 
Q 544 3141 544 3541 
Q 544 4100 942 4425 
Q 1341 4750 2034 4750 
Q 2731 4750 3128 4425 
Q 3525 4100 3525 3541 
Q 3525 3141 3298 2862 
Q 3072 2584 2669 2484 
Q 3125 2378 3379 2068 
Q 3634 1759 3634 1313 
Q 3634 634 3220 271 
Q 2806 -91 2034 -91 
Q 1263 -91 848 271 
Q 434 634 434 1313 
Q 434 1759 690 2068 
Q 947 2378 1403 2484 
z
M 1172 3481 
Q 1172 3119 1398 2916 
Q 1625 2713 2034 2713 
Q 2441 2713 2670 2916 
Q 2900 3119 2900 3481 
Q 2900 3844 2670 4047 
Q 2441 4250 2034 4250 
Q 1625 4250 1398 4047 
Q 1172 3844 1172 3481 
z
" transform="scale(0.015625)"/>
       </defs>
       <use xlink:href="#DejaVuSans-30"/>
       <use xlink:href="#DejaVuSans-2e" x="63.623047"/>
       <use xlink:href="#DejaVuSans-38" x="95.410156"/>
      </g>
     </g>
    </g>
    <g id="xtick_6">
     <g id="line2d_6">
      <g>
       <use xlink:href="#meb055616ba" x="302.316675" y="273.312" style="stroke: #000000; stroke-width: 0.8"/>
      </g>
     </g>
     <g id="text_6">
      <!-- 1.0 -->
      <g transform="translate(294.365113 287.910437) scale(0.1 -0.1)">
       <defs>
        <path id="DejaVuSans-31" d="M 794 531 
L 1825 531 
L 1825 4091 
L 703 3866 
L 703 4441 
L 1819 4666 
L 2450 4666 
L 2450 531 
L 3481 531 
L 3481 0 
L 794 0 
L 794 531 
z
" transform="scale(0.015625)"/>
       </defs>
       <use xlink:href="#DejaVuSans-31"/>
       <use xlink:href="#DejaVuSans-2e" x="63.623047"/>
       <use xlink:href="#DejaVuSans-30" x="95.410156"/>
      </g>
     </g>
    </g>
    <g id="xtick_7">
     <g id="line2d_7">
      <g>
       <use xlink:href="#meb055616ba" x="346.959987" y="273.312" style="stroke: #000000; stroke-width: 0.8"/>
      </g>
     </g>
     <g id="text_7">
      <!-- 1.2 -->
      <g transform="translate(339.008424 287.910437) scale(0.1 -0.1)">
       <use xlink:href="#DejaVuSans-31"/>
       <use xlink:href="#DejaVuSans-2e" x="63.623047"/>
       <use xlink:href="#DejaVuSans-32" x="95.410156"/>
      </g>
     </g>
    </g>
    <g id="xtick_8">
     <g id="line2d_8">
      <g>
       <use xlink:href="#meb055616ba" x="391.603298" y="273.312" style="stroke: #000000; stroke-width: 0.8"/>
      </g>
     </g>
     <g id="text_8">
      <!-- 1.4 -->
      <g transform="translate(383.651736 287.910437) scale(0.1 -0.1)">
       <use xlink:href="#DejaVuSans-31"/>
       <use xlink:href="#DejaVuSans-2e" x="63.623047"/>
       <use xlink:href="#DejaVuSans-34" x="95.410156"/>
      </g>
     </g>
    </g>
    <g id="text_9">
     <!-- Wellenlänge in m -->
     <g transform="translate(198.199844 301.588562) scale(0.1 -0.1)">
      <defs>
       <path id="DejaVuSans-57" d="M 213 4666 
L 850 4666 
L 1831 722 
L 2809 4666 
L 3519 4666 
L 4500 722 
L 5478 4666 
L 6119 4666 
L 4947 0 
L 4153 0 
L 3169 4050 
L 2175 0 
L 1381 0 
L 213 4666 
z
" transform="scale(0.015625)"/>
       <path id="DejaVuSans-65" d="M 3597 1894 
L 3597 1613 
L 953 1613 
Q 991 1019 1311 708 
Q 1631 397 2203 397 
Q 2534 397 2845 478 
Q 3156 559 3463 722 
L 3463 178 
Q 3153 47 2828 -22 
Q 2503 -91 2169 -91 
Q 1331 -91 842 396 
Q 353 884 353 1716 
Q 353 2575 817 3079 
Q 1281 3584 2069 3584 
Q 2775 3584 3186 3129 
Q 3597 2675 3597 1894 
z
M 3022 2063 
Q 3016 2534 2758 2815 
Q 2500 3097 2075 3097 
Q 1594 3097 1305 2825 
Q 1016 2553 972 2059 
L 3022 2063 
z
" transform="scale(0.015625)"/>
       <path id="DejaVuSans-6c" d="M 603 4863 
L 1178 4863 
L 1178 0 
L 603 0 
L 603 4863 
z
" transform="scale(0.015625)"/>
       <path id="DejaVuSans-6e" d="M 3513 2113 
L 3513 0 
L 2938 0 
L 2938 2094 
Q 2938 2591 2744 2837 
Q 2550 3084 2163 3084 
Q 1697 3084 1428 2787 
Q 1159 2491 1159 1978 
L 1159 0 
L 581 0 
L 581 3500 
L 1159 3500 
L 1159 2956 
Q 1366 3272 1645 3428 
Q 1925 3584 2291 3584 
Q 2894 3584 3203 3211 
Q 3513 2838 3513 2113 
z
" transform="scale(0.015625)"/>
       <path id="DejaVuSans-e4" d="M 2194 1759 
Q 1497 1759 1228 1600 
Q 959 1441 959 1056 
Q 959 750 1161 570 
Q 1363 391 1709 391 
Q 2188 391 2477 730 
Q 2766 1069 2766 1631 
L 2766 1759 
L 2194 1759 
z
M 3341 1997 
L 3341 0 
L 2766 0 
L 2766 531 
Q 2569 213 2275 61 
Q 1981 -91 1556 -91 
Q 1019 -91 701 211 
Q 384 513 384 1019 
Q 384 1609 779 1909 
Q 1175 2209 1959 2209 
L 2766 2209 
L 2766 2266 
Q 2766 2663 2505 2880 
Q 2244 3097 1772 3097 
Q 1472 3097 1187 3025 
Q 903 2953 641 2809 
L 641 3341 
Q 956 3463 1253 3523 
Q 1550 3584 1831 3584 
Q 2591 3584 2966 3190 
Q 3341 2797 3341 1997 
z
M 2150 4850 
L 2784 4850 
L 2784 4219 
L 2150 4219 
L 2150 4850 
z
M 928 4850 
L 1562 4850 
L 1562 4219 
L 928 4219 
L 928 4850 
z
" transform="scale(0.015625)"/>
       <path id="DejaVuSans-67" d="M 2906 1791 
Q 2906 2416 2648 2759 
Q 2391 3103 1925 3103 
Q 1463 3103 1205 2759 
Q 947 2416 947 1791 
Q 947 1169 1205 825 
Q 1463 481 1925 481 
Q 2391 481 2648 825 
Q 2906 1169 2906 1791 
z
M 3481 434 
Q 3481 -459 3084 -895 
Q 2688 -1331 1869 -1331 
Q 1566 -1331 1297 -1286 
Q 1028 -1241 775 -1147 
L 775 -588 
Q 1028 -725 1275 -790 
Q 1522 -856 1778 -856 
Q 2344 -856 2625 -561 
Q 2906 -266 2906 331 
L 2906 616 
Q 2728 306 2450 153 
Q 2172 0 1784 0 
Q 1141 0 747 490 
Q 353 981 353 1791 
Q 353 2603 747 3093 
Q 1141 3584 1784 3584 
Q 2172 3584 2450 3431 
Q 2728 3278 2906 2969 
L 2906 3500 
L 3481 3500 
L 3481 434 
z
" transform="scale(0.015625)"/>
       <path id="DejaVuSans-20" transform="scale(0.015625)"/>
       <path id="DejaVuSans-69" d="M 603 3500 
L 1178 3500 
L 1178 0 
L 603 0 
L 603 3500 
z
M 603 4863 
L 1178 4863 
L 1178 4134 
L 603 4134 
L 603 4863 
z
" transform="scale(0.015625)"/>
       <path id="DejaVuSans-6d" d="M 3328 2828 
Q 3544 3216 3844 3400 
Q 4144 3584 4550 3584 
Q 5097 3584 5394 3201 
Q 5691 2819 5691 2113 
L 5691 0 
L 5113 0 
L 5113 2094 
Q 5113 2597 4934 2840 
Q 4756 3084 4391 3084 
Q 3944 3084 3684 2787 
Q 3425 2491 3425 1978 
L 3425 0 
L 2847 0 
L 2847 2094 
Q 2847 2600 2669 2842 
Q 2491 3084 2119 3084 
Q 1678 3084 1418 2786 
Q 1159 2488 1159 1978 
L 1159 0 
L 581 0 
L 581 3500 
L 1159 3500 
L 1159 2956 
Q 1356 3278 1631 3431 
Q 1906 3584 2284 3584 
Q 2666 3584 2933 3390 
Q 3200 3197 3328 2828 
z
" transform="scale(0.015625)"/>
      </defs>
      <use xlink:href="#DejaVuSans-57"/>
      <use xlink:href="#DejaVuSans-65" x="93.001953"/>
      <use xlink:href="#DejaVuSans-6c" x="154.525391"/>
      <use xlink:href="#DejaVuSans-6c" x="182.308594"/>
      <use xlink:href="#DejaVuSans-65" x="210.091797"/>
      <use xlink:href="#DejaVuSans-6e" x="271.615234"/>
      <use xlink:href="#DejaVuSans-6c" x="334.994141"/>
      <use xlink:href="#DejaVuSans-e4" x="362.777344"/>
      <use xlink:href="#DejaVuSans-6e" x="424.056641"/>
      <use xlink:href="#DejaVuSans-67" x="487.435547"/>
      <use xlink:href="#DejaVuSans-65" x="550.912109"/>
      <use xlink:href="#DejaVuSans-20" x="612.435547"/>
      <use xlink:href="#DejaVuSans-69" x="644.222656"/>
      <use xlink:href="#DejaVuSans-6e" x="672.005859"/>
      <use xlink:href="#DejaVuSans-20" x="735.384766"/>
      <use xlink:href="#DejaVuSans-6d" x="767.171875"/>
     </g>
    </g>
    <g id="text_10">
     <!-- 1e−5 -->
     <g transform="translate(392.730937 300.588562) scale(0.1 -0.1)">
      <defs>
       <path id="DejaVuSans-2212" d="M 678 2272 
L 4684 2272 
L 4684 1741 
L 678 1741 
L 678 2272 
z
" transform="scale(0.015625)"/>
       <path id="DejaVuSans-35" d="M 691 4666 
L 3169 4666 
L 3169 4134 
L 1269 4134 
L 1269 2991 
Q 1406 3038 1543 3061 
Q 1681 3084 1819 3084 
Q 2600 3084 3056 2656 
Q 3513 2228 3513 1497 
Q 3513 744 3044 326 
Q 2575 -91 1722 -91 
Q 1428 -91 1123 -41 
Q 819 9 494 109 
L 494 744 
Q 775 591 1075 516 
Q 1375 441 1709 441 
Q 2250 441 2565 725 
Q 2881 1009 2881 1497 
Q 2881 1984 2565 2268 
Q 2250 2553 1709 2553 
Q 1456 2553 1204 2497 
Q 953 2441 691 2322 
L 691 4666 
z
" transform="scale(0.015625)"/>
      </defs>
      <use xlink:href="#DejaVuSans-31"/>
      <use xlink:href="#DejaVuSans-65" x="63.623047"/>
      <use xlink:href="#DejaVuSans-2212" x="125.146484"/>
      <use xlink:href="#DejaVuSans-35" x="208.935547"/>
     </g>
    </g>
   </g>
   <g id="matplotlib.axis_2">
    <g id="ytick_1">
     <g id="line2d_9">
      <defs>
       <path id="mff01fc0aec" d="M 0 0 
L -3.5 0 
" style="stroke: #000000; stroke-width: 0.8"/>
      </defs>
      <g>
       <use xlink:href="#mff01fc0aec" x="62.86875" y="261.216" style="stroke: #000000; stroke-width: 0.8"/>
      </g>
     </g>
     <g id="text_11">
      <!-- 0.0000 -->
      <g transform="translate(20.878125 265.015219) scale(0.1 -0.1)">
       <use xlink:href="#DejaVuSans-30"/>
       <use xlink:href="#DejaVuSans-2e" x="63.623047"/>
       <use xlink:href="#DejaVuSans-30" x="95.410156"/>
       <use xlink:href="#DejaVuSans-30" x="159.033203"/>
       <use xlink:href="#DejaVuSans-30" x="222.65625"/>
       <use xlink:href="#DejaVuSans-30" x="286.279297"/>
      </g>
     </g>
    </g>
    <g id="ytick_2">
     <g id="line2d_10">
      <g>
       <use xlink:href="#mff01fc0aec" x="62.86875" y="207.659006" style="stroke: #000000; stroke-width: 0.8"/>
      </g>
     </g>
     <g id="text_12">
      <!-- 0.0001 -->
      <g transform="translate(20.878125 211.458225) scale(0.1 -0.1)">
       <use xlink:href="#DejaVuSans-30"/>
       <use xlink:href="#DejaVuSans-2e" x="63.623047"/>
       <use xlink:href="#DejaVuSans-30" x="95.410156"/>
       <use xlink:href="#DejaVuSans-30" x="159.033203"/>
       <use xlink:href="#DejaVuSans-30" x="222.65625"/>
       <use xlink:href="#DejaVuSans-31" x="286.279297"/>
      </g>
     </g>
    </g>
    <g id="ytick_3">
     <g id="line2d_11">
      <g>
       <use xlink:href="#mff01fc0aec" x="62.86875" y="154.102012" style="stroke: #000000; stroke-width: 0.8"/>
      </g>
     </g>
     <g id="text_13">
      <!-- 0.0002 -->
      <g transform="translate(20.878125 157.901231) scale(0.1 -0.1)">
       <use xlink:href="#DejaVuSans-30"/>
       <use xlink:href="#DejaVuSans-2e" x="63.623047"/>
       <use xlink:href="#DejaVuSans-30" x="95.410156"/>
       <use xlink:href="#DejaVuSans-30" x="159.033203"/>
       <use xlink:href="#DejaVuSans-30" x="222.65625"/>
       <use xlink:href="#DejaVuSans-32" x="286.279297"/>
      </g>
     </g>
    </g>
    <g id="ytick_4">
     <g id="line2d_12">
      <g>
       <use xlink:href="#mff01fc0aec" x="62.86875" y="100.545019" style="stroke: #000000; stroke-width: 0.8"/>
      </g>
     </g>
     <g id="text_14">
      <!-- 0.0003 -->
      <g transform="translate(20.878125 104.344237) scale(0.1 -0.1)">
       <defs>
        <path id="DejaVuSans-33" d="M 2597 2516 
Q 3050 2419 3304 2112 
Q 3559 1806 3559 1356 
Q 3559 666 3084 287 
Q 2609 -91 1734 -91 
Q 1441 -91 1130 -33 
Q 819 25 488 141 
L 488 750 
Q 750 597 1062 519 
Q 1375 441 1716 441 
Q 2309 441 2620 675 
Q 2931 909 2931 1356 
Q 2931 1769 2642 2001 
Q 2353 2234 1838 2234 
L 1294 2234 
L 1294 2753 
L 1863 2753 
Q 2328 2753 2575 2939 
Q 2822 3125 2822 3475 
Q 2822 3834 2567 4026 
Q 2313 4219 1838 4219 
Q 1578 4219 1281 4162 
Q 984 4106 628 3988 
L 628 4550 
Q 988 4650 1302 4700 
Q 1616 4750 1894 4750 
Q 2613 4750 3031 4423 
Q 3450 4097 3450 3541 
Q 3450 3153 3228 2886 
Q 3006 2619 2597 2516 
z
" transform="scale(0.015625)"/>
       </defs>
       <use xlink:href="#DejaVuSans-30"/>
       <use xlink:href="#DejaVuSans-2e" x="63.623047"/>
       <use xlink:href="#DejaVuSans-30" x="95.410156"/>
       <use xlink:href="#DejaVuSans-30" x="159.033203"/>
       <use xlink:href="#DejaVuSans-30" x="222.65625"/>
       <use xlink:href="#DejaVuSans-33" x="286.279297"/>
      </g>
     </g>
    </g>
    <g id="ytick_5">
     <g id="line2d_13">
      <g>
       <use xlink:href="#mff01fc0aec" x="62.86875" y="46.988025" style="stroke: #000000; stroke-width: 0.8"/>
      </g>
     </g>
     <g id="text_15">
      <!-- 0.0004 -->
      <g transform="translate(20.878125 50.787244) scale(0.1 -0.1)">
       <use xlink:href="#DejaVuSans-30"/>
       <use xlink:href="#DejaVuSans-2e" x="63.623047"/>
       <use xlink:href="#DejaVuSans-30" x="95.410156"/>
       <use xlink:href="#DejaVuSans-30" x="159.033203"/>
       <use xlink:href="#DejaVuSans-30" x="222.65625"/>
       <use xlink:href="#DejaVuSans-34" x="286.279297"/>
      </g>
     </g>
    </g>
    <g id="text_16">
     <!-- Spannung in V -->
     <g transform="translate(14.798438 176.673969) rotate(-90) scale(0.1 -0.1)">
      <defs>
       <path id="DejaVuSans-53" d="M 3425 4513 
L 3425 3897 
Q 3066 4069 2747 4153 
Q 2428 4238 2131 4238 
Q 1616 4238 1336 4038 
Q 1056 3838 1056 3469 
Q 1056 3159 1242 3001 
Q 1428 2844 1947 2747 
L 2328 2669 
Q 3034 2534 3370 2195 
Q 3706 1856 3706 1288 
Q 3706 609 3251 259 
Q 2797 -91 1919 -91 
Q 1588 -91 1214 -16 
Q 841 59 441 206 
L 441 856 
Q 825 641 1194 531 
Q 1563 422 1919 422 
Q 2459 422 2753 634 
Q 3047 847 3047 1241 
Q 3047 1584 2836 1778 
Q 2625 1972 2144 2069 
L 1759 2144 
Q 1053 2284 737 2584 
Q 422 2884 422 3419 
Q 422 4038 858 4394 
Q 1294 4750 2059 4750 
Q 2388 4750 2728 4690 
Q 3069 4631 3425 4513 
z
" transform="scale(0.015625)"/>
       <path id="DejaVuSans-70" d="M 1159 525 
L 1159 -1331 
L 581 -1331 
L 581 3500 
L 1159 3500 
L 1159 2969 
Q 1341 3281 1617 3432 
Q 1894 3584 2278 3584 
Q 2916 3584 3314 3078 
Q 3713 2572 3713 1747 
Q 3713 922 3314 415 
Q 2916 -91 2278 -91 
Q 1894 -91 1617 61 
Q 1341 213 1159 525 
z
M 3116 1747 
Q 3116 2381 2855 2742 
Q 2594 3103 2138 3103 
Q 1681 3103 1420 2742 
Q 1159 2381 1159 1747 
Q 1159 1113 1420 752 
Q 1681 391 2138 391 
Q 2594 391 2855 752 
Q 3116 1113 3116 1747 
z
" transform="scale(0.015625)"/>
       <path id="DejaVuSans-61" d="M 2194 1759 
Q 1497 1759 1228 1600 
Q 959 1441 959 1056 
Q 959 750 1161 570 
Q 1363 391 1709 391 
Q 2188 391 2477 730 
Q 2766 1069 2766 1631 
L 2766 1759 
L 2194 1759 
z
M 3341 1997 
L 3341 0 
L 2766 0 
L 2766 531 
Q 2569 213 2275 61 
Q 1981 -91 1556 -91 
Q 1019 -91 701 211 
Q 384 513 384 1019 
Q 384 1609 779 1909 
Q 1175 2209 1959 2209 
L 2766 2209 
L 2766 2266 
Q 2766 2663 2505 2880 
Q 2244 3097 1772 3097 
Q 1472 3097 1187 3025 
Q 903 2953 641 2809 
L 641 3341 
Q 956 3463 1253 3523 
Q 1550 3584 1831 3584 
Q 2591 3584 2966 3190 
Q 3341 2797 3341 1997 
z
" transform="scale(0.015625)"/>
       <path id="DejaVuSans-75" d="M 544 1381 
L 544 3500 
L 1119 3500 
L 1119 1403 
Q 1119 906 1312 657 
Q 1506 409 1894 409 
Q 2359 409 2629 706 
Q 2900 1003 2900 1516 
L 2900 3500 
L 3475 3500 
L 3475 0 
L 2900 0 
L 2900 538 
Q 2691 219 2414 64 
Q 2138 -91 1772 -91 
Q 1169 -91 856 284 
Q 544 659 544 1381 
z
M 1991 3584 
L 1991 3584 
z
" transform="scale(0.015625)"/>
       <path id="DejaVuSans-56" d="M 1831 0 
L 50 4666 
L 709 4666 
L 2188 738 
L 3669 4666 
L 4325 4666 
L 2547 0 
L 1831 0 
z
" transform="scale(0.015625)"/>
      </defs>
      <use xlink:href="#DejaVuSans-53"/>
      <use xlink:href="#DejaVuSans-70" x="63.476562"/>
      <use xlink:href="#DejaVuSans-61" x="126.953125"/>
      <use xlink:href="#DejaVuSans-6e" x="188.232422"/>
      <use xlink:href="#DejaVuSans-6e" x="251.611328"/>
      <use xlink:href="#DejaVuSans-75" x="314.990234"/>
      <use xlink:href="#DejaVuSans-6e" x="378.369141"/>
      <use xlink:href="#DejaVuSans-67" x="441.748047"/>
      <use xlink:href="#DejaVuSans-20" x="505.224609"/>
      <use xlink:href="#DejaVuSans-69" x="537.011719"/>
      <use xlink:href="#DejaVuSans-6e" x="564.794922"/>
      <use xlink:href="#DejaVuSans-20" x="628.173828"/>
      <use xlink:href="#DejaVuSans-56" x="659.960938"/>
     </g>
    </g>
   </g>
   <g id="line2d_14">
    <path d="M 79.101477 258.515675 
L 80.028069 258.515675 
L 80.259717 258.273943 
L 81.186308 258.273943 
L 81.417956 258.412715 
L 82.228724 258.412715 
L 82.460372 258.68802 
L 83.502788 258.68802 
L 83.734435 258.435993 
L 85.703443 258.384737 
L 85.819267 257.97178 
L 86.745858 257.97178 
L 86.861682 258.816719 
L 88.019922 258.816719 
L 88.135746 258.331019 
L 89.178161 258.331019 
L 89.409809 258.08705 
L 90.220577 258.08705 
L 90.452225 258.346687 
L 91.49464 258.346687 
L 91.726288 258.190009 
L 92.537056 258.190009 
L 92.768704 258.507841 
L 93.695296 258.507841 
L 93.926943 258.371307 
L 94.737711 258.371307 
L 94.969359 258.510079 
L 96.011775 258.510079 
L 96.243423 258.145021 
L 98.21243 258.036689 
L 98.328254 258.51657 
L 100.528909 258.536565 
L 100.760557 258.289612 
L 101.687148 258.289612 
L 101.918796 258.42704 
L 104.003628 258.45002 
L 104.235275 258.747557 
L 105.046043 258.747557 
L 105.161867 258.098242 
L 106.204283 258.098242 
L 106.435931 258.337734 
L 107.246698 258.337734 
L 107.478346 258.480982 
L 113.037896 258.373546 
L 113.269544 258.235893 
L 114.196136 258.235893 
L 114.427784 258.463076 
L 115.238551 258.463076 
L 115.470199 258.289612 
L 116.512615 258.289612 
L 116.744263 257.941788 
L 117.55503 257.941788 
L 117.670854 258.352282 
L 121.029749 258.332138 
L 121.261397 257.9729 
L 122.072165 257.9729 
L 122.187988 258.371531 
L 123.230404 258.371531 
L 123.462052 258.159047 
L 125.546883 258.228283 
L 125.894355 258.287373 
L 126.705123 258.287373 
L 126.936771 257.982972 
L 127.747538 257.982972 
L 127.979186 258.206796 
L 129.021602 258.206796 
L 129.25325 258.028855 
L 130.064017 258.028855 
L 130.295665 258.311994 
L 133.538736 258.235893 
L 133.770384 258.101599 
L 134.581152 258.101599 
L 134.8128 258.301922 
L 137.013455 258.249323 
L 137.245103 258.144126 
L 140.256525 258.044523 
L 140.488173 258.362355 
L 142.573005 258.262753 
L 142.804652 258.103837 
L 143.731244 258.103837 
L 143.962892 258.216644 
L 144.77366 258.216644 
L 145.005308 257.938206 
L 146.047723 257.938206 
L 146.279371 258.11279 
L 149.522442 258.126219 
L 149.75409 257.73945 
L 150.564857 257.73945 
L 150.796505 257.492049 
L 151.723097 257.492049 
L 151.954745 257.728707 
L 152.765513 257.728707 
L 152.99716 257.573372 
L 154.039576 257.573372 
L 154.271224 257.739002 
L 155.081992 257.739002 
L 155.31364 257.369691 
L 157.282647 257.47377 
L 157.398471 257.002619 
L 159.71495 257.058575 
L 159.946598 256.852656 
L 160.757365 256.852656 
L 160.989013 256.698217 
L 162.031429 256.698217 
L 162.147253 256.048006 
L 163.073845 256.048006 
L 163.305492 256.244972 
L 164.232084 256.244972 
L 164.347908 255.336245 
L 165.2745 255.336245 
L 165.390324 254.768847 
L 166.548563 254.768847 
L 166.664387 254.024854 
L 167.590979 254.024854 
L 167.706803 253.028608 
L 168.749218 253.028608 
L 168.865042 252.556338 
L 169.791634 252.556338 
L 169.907458 251.383723 
L 171.065697 251.383723 
L 171.181521 250.395307 
L 172.223937 250.395307 
L 172.339761 249.15353 
L 173.266353 249.15353 
L 173.382177 247.907869 
L 174.540416 247.907869 
L 174.65624 246.877904 
L 175.582832 246.877904 
L 175.698656 245.147734 
L 176.741071 245.147734 
L 176.856895 243.493669 
L 177.783487 243.493669 
L 177.899311 241.800433 
L 179.05755 241.800433 
L 179.173374 240.379593 
L 180.099966 240.379593 
L 180.21579 237.811878 
L 181.258205 237.811878 
L 181.374029 236.317846 
L 182.532269 236.317846 
L 182.648093 234.323566 
L 183.574685 234.323566 
L 183.690509 232.76239 
L 184.732924 232.76239 
L 184.848748 230.708576 
L 185.77534 230.708576 
L 185.891164 228.721606 
L 187.049403 228.721606 
L 187.165227 226.590198 
L 188.091819 226.590198 
L 188.207643 224.600615 
L 189.250058 224.600615 
L 189.365882 222.184429 
L 190.292474 222.184429 
L 190.408298 219.873434 
L 191.566537 219.873434 
L 191.682361 218.165657 
L 192.608953 218.165657 
L 192.724777 215.898305 
L 193.767193 215.898305 
L 193.883017 213.677966 
L 195.041256 213.677966 
L 195.15708 211.863862 
L 196.083672 211.863862 
L 196.199496 209.642404 
L 197.241911 209.642404 
L 197.357735 207.746604 
L 198.284327 207.746604 
L 198.400151 206.049993 
L 199.55839 206.049993 
L 199.674214 204.230073 
L 200.600806 204.230073 
L 200.71663 202.653462 
L 201.759045 202.653462 
L 201.874869 201.580609 
L 202.801461 201.580609 
L 202.917285 200.278692 
L 204.075525 200.278692 
L 204.191349 198.948068 
L 205.233764 198.948068 
L 205.465412 198.63808 
L 206.27618 198.63808 
L 206.392004 197.762906 
L 207.550243 197.762906 
L 207.666067 197.197719 
L 209.750898 197.202217 
L 209.982546 196.980652 
L 210.793314 196.980652 
L 211.024962 197.165263 
L 212.067377 197.165263 
L 212.299025 197.338948 
L 213.109793 197.338948 
L 213.341441 197.718882 
L 214.268033 197.718882 
L 214.383857 198.145624 
L 215.310448 198.145624 
L 215.426272 198.856272 
L 216.584512 198.856272 
L 216.81616 199.094654 
L 217.742751 199.094654 
L 217.858575 200.591572 
L 218.785167 200.591572 
L 218.900991 201.386625 
L 220.05923 201.386625 
L 220.175054 202.382625 
L 221.101646 202.382625 
L 221.21747 203.202957 
L 222.259885 203.202957 
L 222.375709 204.27399 
L 223.302301 204.27399 
L 223.418125 205.281183 
L 224.576365 205.281183 
L 224.692189 206.505496 
L 225.61878 206.505496 
L 225.734604 208.016317 
L 226.77702 208.016317 
L 226.892844 209.341365 
L 227.819435 209.341365 
L 227.935259 210.582468 
L 229.093499 210.582468 
L 229.209323 212.182821 
L 230.251738 212.182821 
L 230.367562 213.368712 
L 231.294154 213.368712 
L 231.409978 214.788138 
L 232.568217 214.788138 
L 232.684041 216.384678 
L 233.610633 216.384678 
L 233.726457 218.151105 
L 234.768873 218.151105 
L 234.884697 219.623874 
L 235.811288 219.623874 
L 235.927112 221.280178 
L 237.085352 221.280178 
L 237.201176 222.386992 
L 238.127767 222.386992 
L 238.243591 224.012629 
L 239.286007 224.012629 
L 239.401831 224.769603 
L 240.56007 224.769603 
L 240.675894 226.373534 
L 241.602486 226.373534 
L 241.71831 227.940081 
L 242.760725 227.940081 
L 242.876549 229.03123 
L 243.803141 229.03123 
L 243.918965 230.26115 
L 245.077205 230.26115 
L 245.193029 231.005367 
L 246.11962 231.005367 
L 246.235444 232.187161 
L 247.27786 232.187161 
L 247.393684 232.999648 
L 248.320275 232.999648 
L 248.436099 234.353038 
L 249.594339 234.353038 
L 249.710163 234.784643 
L 250.636754 234.784643 
L 250.752578 235.594891 
L 251.794994 235.594891 
L 251.910818 236.368206 
L 253.069057 236.368206 
L 253.184881 237.154728 
L 254.111473 237.154728 
L 254.227297 237.828662 
L 255.269713 237.828662 
L 255.385537 238.476638 
L 256.312128 238.476638 
L 256.427952 238.889594 
L 257.586192 238.889594 
L 257.702016 239.474153 
L 258.628607 239.474153 
L 258.744431 239.921423 
L 259.786847 239.921423 
L 259.902671 240.791435 
L 260.829262 240.791435 
L 261.06091 241.006975 
L 262.103326 241.006975 
L 262.21915 241.963825 
L 263.261565 241.963825 
L 263.493213 242.353286 
L 264.303981 242.353286 
L 264.419805 242.871439 
L 265.578045 242.871439 
L 265.809692 242.984021 
L 266.62046 242.984021 
L 266.852108 243.35975 
L 267.7787 243.35975 
L 267.894524 244.292729 
L 268.821115 244.292729 
L 268.936939 245.033583 
L 271.137594 245.06268 
L 271.253418 245.686036 
L 272.295834 245.686036 
L 272.527482 245.909861 
L 273.33825 245.909861 
L 273.569897 246.13637 
L 274.612313 246.13637 
L 274.728137 246.60148 
L 275.770553 246.60148 
L 275.886377 247.003243 
L 276.812968 247.003243 
L 277.044616 247.379642 
L 278.087032 247.379642 
L 278.202856 247.776558 
L 280.287687 247.866089 
L 280.403511 248.463255 
L 281.330102 248.463255 
L 281.56175 248.652461 
L 282.604166 248.652461 
L 282.835814 248.82943 
L 283.646582 248.82943 
L 283.762405 249.3355 
L 284.804821 249.3355 
L 284.920645 249.769719 
L 285.847237 249.769719 
L 286.078885 250.139032 
L 288.27954 250.162533 
L 288.511188 250.475889 
L 289.321955 250.475889 
L 289.437779 251.112666 
L 290.596019 251.112666 
L 290.827667 250.961587 
L 291.638434 250.961587 
L 291.870082 251.351043 
L 292.796674 251.351043 
L 293.028322 251.659917 
L 293.83909 251.659917 
L 294.070737 251.450643 
L 295.113153 251.450643 
L 295.228977 252.098618 
L 296.155569 252.098618 
L 296.387217 252.225077 
L 297.313808 252.225077 
L 297.545456 252.532837 
L 298.356224 252.532837 
L 298.587872 252.415327 
L 299.630287 252.415327 
L 299.861935 252.752185 
L 303.105006 252.775686 
L 303.336654 253.147237 
L 305.305661 253.240871 
L 305.768957 253.270338 
L 308.664556 253.367705 
L 308.896204 253.741045 
L 311.096859 253.754922 
L 311.328507 254.011203 
L 312.139274 254.011203 
L 312.370922 254.250693 
L 314.33993 254.273075 
L 314.571577 254.016794 
L 316.656409 253.979192 
L 316.888057 254.233909 
L 317.814648 254.233909 
L 318.046296 254.595381 
L 318.857064 254.595381 
L 319.088712 254.773324 
L 322.331782 254.699014 
L 322.56343 254.938954 
L 324.648262 255.006099 
L 324.764086 255.468301 
L 325.806501 255.468301 
L 326.038149 255.153825 
L 328.12298 255.244476 
L 328.354628 255.623857 
L 332.640114 255.717866 
L 332.871762 256.10135 
L 333.68253 256.10135 
L 333.798354 255.652505 
L 334.84077 255.652505 
L 334.956594 256.159546 
L 337.157249 256.174467 
L 337.388897 256.342336 
L 338.315488 256.342336 
L 338.547136 255.99205 
L 339.357904 255.99205 
L 339.473728 256.401649 
L 340.631967 256.401649 
L 340.863615 256.561684 
L 343.875038 256.554074 
L 344.106686 256.431865 
L 345.149102 256.431865 
L 345.380749 256.60533 
L 346.191517 256.60533 
L 346.423165 256.354646 
L 347.349757 256.354646 
L 347.465581 256.910851 
L 348.62382 256.910851 
L 348.855468 257.102892 
L 349.666236 257.102892 
L 349.897884 256.952258 
L 350.824475 256.952258 
L 351.056123 256.765365 
L 353.140954 256.86161 
L 353.256778 257.322688 
L 355.34161 257.327165 
L 355.573258 257.139152 
L 356.384025 257.139152 
L 356.615673 257.409085 
L 357.658089 257.409085 
L 357.889737 257.038431 
L 359.858744 257.122365 
L 360.206216 257.178694 
L 361.132807 257.178694 
L 361.364455 257.502867 
L 362.175223 257.502867 
L 362.406871 257.280162 
L 363.333462 257.280162 
L 363.56511 257.672302 
L 364.375878 257.672302 
L 364.607526 257.481604 
L 365.649942 257.481604 
L 365.881589 257.186155 
L 366.692357 257.186155 
L 366.924005 257.492795 
L 367.850597 257.492795 
L 368.082245 257.367453 
L 370.167076 257.42229 
L 370.398724 257.744598 
L 374.68421 257.847558 
L 374.800034 257.035073 
L 375.84245 257.035073 
L 375.958274 257.726021 
L 378.158929 257.778172 
L 378.390577 257.996401 
L 379.317168 257.996401 
L 379.548816 258.214257 
L 380.359584 258.214257 
L 380.591232 258.097122 
L 383.834302 258.063549 
L 383.950126 257.595307 
L 384.876718 257.595307 
L 384.992542 258.272825 
L 386.150782 258.272825 
L 386.382429 258.504483 
L 387.193197 258.504483 
L 387.424845 258.35564 
L 389.393852 258.303787 
L 389.6255 257.913586 
L 390.667916 257.913586 
L 390.899564 258.11458 
L 391.710331 258.11458 
L 391.941979 258.270587 
L 399.702184 258.160241 
L 400.049656 258.107194 
L 400.860424 258.107194 
L 401.092072 258.3299 
L 401.902839 258.3299 
L 402.134487 258.548129 
L 403.176903 258.548129 
L 403.292727 258.031094 
L 403.640199 258.031094 
L 403.756023 259.191625 
L 403.756023 259.191625 
" clip-path="url(#p80193a56c0)" style="fill: none; stroke: #1f77b4; stroke-width: 1.5; stroke-linecap: square"/>
   </g>
   <g id="line2d_15">
    <path d="M 79.101477 261.216 
L 100.528909 261.112574 
L 102.497916 260.869946 
L 104.003628 260.467045 
L 105.277691 259.891253 
L 106.435931 259.112331 
L 107.478346 258.150482 
L 108.520762 256.894689 
L 109.563177 255.301894 
L 110.721417 253.089626 
L 111.879656 250.36822 
L 113.15372 246.746205 
L 114.427784 242.438886 
L 115.817671 236.948202 
L 117.323382 230.084242 
L 119.060742 221.04683 
L 121.029749 209.510934 
L 123.346228 194.498849 
L 126.357651 173.385158 
L 135.507743 108.173101 
L 138.171694 91.253565 
L 140.603997 77.220267 
L 142.804652 65.821127 
L 144.77366 56.722489 
L 146.626843 49.126785 
L 148.480026 42.467916 
L 150.217386 37.062458 
L 151.838921 32.729091 
L 153.344632 29.300183 
L 154.850344 26.422204 
L 156.240231 24.234081 
L 157.514295 22.605871 
L 158.788358 21.32231 
L 160.062422 20.366962 
L 161.220661 19.769255 
L 162.378901 19.416449 
L 163.53714 19.296 
L 164.69538 19.395469 
L 165.969443 19.744249 
L 167.243507 20.328258 
L 168.633394 21.215275 
L 170.139106 22.448307 
L 171.760641 24.065738 
L 173.613824 26.245962 
L 175.698656 29.073363 
L 178.015135 32.617277 
L 180.679086 37.131603 
L 183.690509 42.688939 
L 187.396875 50.023985 
L 192.261481 60.191284 
L 202.569813 82.433893 
L 209.866722 97.865134 
L 215.542096 109.359691 
L 220.63835 119.196486 
L 225.502956 128.112565 
L 230.251738 136.35008 
L 234.884697 143.937257 
L 239.401831 150.910881 
L 243.918965 157.475262 
L 248.436099 163.643622 
L 252.953234 169.431886 
L 257.470368 174.857693 
L 261.987502 179.939631 
L 266.62046 184.814549 
L 271.253418 189.368133 
L 276.002201 193.723051 
L 280.866807 197.877826 
L 285.731413 201.743902 
L 290.711843 205.424273 
L 295.923921 208.997179 
L 301.251823 212.377658 
L 306.695549 215.570496 
L 312.370922 218.641406 
L 318.277944 221.582117 
L 324.416614 224.38657 
L 330.786931 227.050768 
L 337.504721 229.614802 
L 344.454158 232.028389 
L 351.751067 234.328143 
L 359.511272 236.538509 
L 367.734773 238.64562 
L 376.421569 240.639259 
L 385.687486 242.534943 
L 395.532522 244.321212 
L 403.756023 245.65558 
L 403.756023 245.65558 
" clip-path="url(#p80193a56c0)" style="fill: none; stroke: #ff7f0e; stroke-width: 1.5; stroke-linecap: square"/>
   </g>
   <g id="patch_3">
    <path d="M 62.86875 273.312 
L 62.86875 7.2 
" style="fill: none; stroke: #000000; stroke-width: 0.8; stroke-linejoin: miter; stroke-linecap: square"/>
   </g>
   <g id="patch_4">
    <path d="M 419.98875 273.312 
L 419.98875 7.2 
" style="fill: none; stroke: #000000; stroke-width: 0.8; stroke-linejoin: miter; stroke-linecap: square"/>
   </g>
   <g id="patch_5">
    <path d="M 62.86875 273.312 
L 419.98875 273.312 
" style="fill: none; stroke: #000000; stroke-width: 0.8; stroke-linejoin: miter; stroke-linecap: square"/>
   </g>
   <g id="patch_6">
    <path d="M 62.86875 7.2 
L 419.98875 7.2 
" style="fill: none; stroke: #000000; stroke-width: 0.8; stroke-linejoin: miter; stroke-linecap: square"/>
   </g>
   <g id="legend_1">
    <g id="patch_7">
     <path d="M 284.579375 55.754062 
L 412.98875 55.754062 
Q 414.98875 55.754062 414.98875 53.754062 
L 414.98875 14.2 
Q 414.98875 12.2 412.98875 12.2 
L 284.579375 12.2 
Q 282.579375 12.2 282.579375 14.2 
L 282.579375 53.754062 
Q 282.579375 55.754062 284.579375 55.754062 
z
" style="fill: #ffffff; opacity: 0.8; stroke: #cccccc; stroke-linejoin: miter"/>
    </g>
    <g id="line2d_16">
     <path d="M 286.579375 26.937187 
L 296.579375 26.937187 
L 306.579375 26.937187 
" style="fill: none; stroke: #1f77b4; stroke-width: 1.5; stroke-linecap: square"/>
    </g>
    <g id="text_17">
     <!-- Messwerte -->
     <g transform="translate(314.579375 23.798437) scale(0.1 -0.1)">
      <defs>
       <path id="DejaVuSans-4d" d="M 628 4666 
L 1569 4666 
L 2759 1491 
L 3956 4666 
L 4897 4666 
L 4897 0 
L 4281 0 
L 4281 4097 
L 3078 897 
L 2444 897 
L 1241 4097 
L 1241 0 
L 628 0 
L 628 4666 
z
" transform="scale(0.015625)"/>
       <path id="DejaVuSans-73" d="M 2834 3397 
L 2834 2853 
Q 2591 2978 2328 3040 
Q 2066 3103 1784 3103 
Q 1356 3103 1142 2972 
Q 928 2841 928 2578 
Q 928 2378 1081 2264 
Q 1234 2150 1697 2047 
L 1894 2003 
Q 2506 1872 2764 1633 
Q 3022 1394 3022 966 
Q 3022 478 2636 193 
Q 2250 -91 1575 -91 
Q 1294 -91 989 -36 
Q 684 19 347 128 
L 347 722 
Q 666 556 975 473 
Q 1284 391 1588 391 
Q 1994 391 2212 530 
Q 2431 669 2431 922 
Q 2431 1156 2273 1281 
Q 2116 1406 1581 1522 
L 1381 1569 
Q 847 1681 609 1914 
Q 372 2147 372 2553 
Q 372 3047 722 3315 
Q 1072 3584 1716 3584 
Q 2034 3584 2315 3537 
Q 2597 3491 2834 3397 
z
" transform="scale(0.015625)"/>
       <path id="DejaVuSans-77" d="M 269 3500 
L 844 3500 
L 1563 769 
L 2278 3500 
L 2956 3500 
L 3675 769 
L 4391 3500 
L 4966 3500 
L 4050 0 
L 3372 0 
L 2619 2869 
L 1863 0 
L 1184 0 
L 269 3500 
z
" transform="scale(0.015625)"/>
       <path id="DejaVuSans-72" d="M 2631 2963 
Q 2534 3019 2420 3045 
Q 2306 3072 2169 3072 
Q 1681 3072 1420 2755 
Q 1159 2438 1159 1844 
L 1159 0 
L 581 0 
L 581 3500 
L 1159 3500 
L 1159 2956 
Q 1341 3275 1631 3429 
Q 1922 3584 2338 3584 
Q 2397 3584 2469 3576 
Q 2541 3569 2628 3553 
L 2631 2963 
z
" transform="scale(0.015625)"/>
       <path id="DejaVuSans-74" d="M 1172 4494 
L 1172 3500 
L 2356 3500 
L 2356 3053 
L 1172 3053 
L 1172 1153 
Q 1172 725 1289 603 
Q 1406 481 1766 481 
L 2356 481 
L 2356 0 
L 1766 0 
Q 1100 0 847 248 
Q 594 497 594 1153 
L 594 3053 
L 172 3053 
L 172 3500 
L 594 3500 
L 594 4494 
L 1172 4494 
z
" transform="scale(0.015625)"/>
      </defs>
      <use xlink:href="#DejaVuSans-4d"/>
      <use xlink:href="#DejaVuSans-65" x="86.279297"/>
      <use xlink:href="#DejaVuSans-73" x="147.802734"/>
      <use xlink:href="#DejaVuSans-73" x="199.902344"/>
      <use xlink:href="#DejaVuSans-77" x="252.001953"/>
      <use xlink:href="#DejaVuSans-65" x="333.789062"/>
      <use xlink:href="#DejaVuSans-72" x="395.3125"/>
      <use xlink:href="#DejaVuSans-74" x="436.425781"/>
      <use xlink:href="#DejaVuSans-65" x="475.634766"/>
     </g>
     <!-- bei $T=766\pm1$K -->
     <g transform="translate(314.579375 34.99625) scale(0.1 -0.1)">
      <defs>
       <path id="DejaVuSans-62" d="M 3116 1747 
Q 3116 2381 2855 2742 
Q 2594 3103 2138 3103 
Q 1681 3103 1420 2742 
Q 1159 2381 1159 1747 
Q 1159 1113 1420 752 
Q 1681 391 2138 391 
Q 2594 391 2855 752 
Q 3116 1113 3116 1747 
z
M 1159 2969 
Q 1341 3281 1617 3432 
Q 1894 3584 2278 3584 
Q 2916 3584 3314 3078 
Q 3713 2572 3713 1747 
Q 3713 922 3314 415 
Q 2916 -91 2278 -91 
Q 1894 -91 1617 61 
Q 1341 213 1159 525 
L 1159 0 
L 581 0 
L 581 4863 
L 1159 4863 
L 1159 2969 
z
" transform="scale(0.015625)"/>
       <path id="DejaVuSans-Oblique-54" d="M 378 4666 
L 4325 4666 
L 4225 4134 
L 2559 4134 
L 1759 0 
L 1125 0 
L 1925 4134 
L 275 4134 
L 378 4666 
z
" transform="scale(0.015625)"/>
       <path id="DejaVuSans-3d" d="M 678 2906 
L 4684 2906 
L 4684 2381 
L 678 2381 
L 678 2906 
z
M 678 1631 
L 4684 1631 
L 4684 1100 
L 678 1100 
L 678 1631 
z
" transform="scale(0.015625)"/>
       <path id="DejaVuSans-37" d="M 525 4666 
L 3525 4666 
L 3525 4397 
L 1831 0 
L 1172 0 
L 2766 4134 
L 525 4134 
L 525 4666 
z
" transform="scale(0.015625)"/>
       <path id="DejaVuSans-b1" d="M 2944 4013 
L 2944 2803 
L 4684 2803 
L 4684 2272 
L 2944 2272 
L 2944 1063 
L 2419 1063 
L 2419 2272 
L 678 2272 
L 678 2803 
L 2419 2803 
L 2419 4013 
L 2944 4013 
z
M 678 531 
L 4684 531 
L 4684 0 
L 678 0 
L 678 531 
z
" transform="scale(0.015625)"/>
       <path id="DejaVuSans-4b" d="M 628 4666 
L 1259 4666 
L 1259 2694 
L 3353 4666 
L 4166 4666 
L 1850 2491 
L 4331 0 
L 3500 0 
L 1259 2247 
L 1259 0 
L 628 0 
L 628 4666 
z
" transform="scale(0.015625)"/>
      </defs>
      <use xlink:href="#DejaVuSans-62" transform="translate(0 0.015625)"/>
      <use xlink:href="#DejaVuSans-65" transform="translate(63.476562 0.015625)"/>
      <use xlink:href="#DejaVuSans-69" transform="translate(125 0.015625)"/>
      <use xlink:href="#DejaVuSans-20" transform="translate(152.783203 0.015625)"/>
      <use xlink:href="#DejaVuSans-Oblique-54" transform="translate(184.570312 0.015625)"/>
      <use xlink:href="#DejaVuSans-3d" transform="translate(265.136719 0.015625)"/>
      <use xlink:href="#DejaVuSans-37" transform="translate(368.408203 0.015625)"/>
      <use xlink:href="#DejaVuSans-36" transform="translate(432.03125 0.015625)"/>
      <use xlink:href="#DejaVuSans-36" transform="translate(495.654297 0.015625)"/>
      <use xlink:href="#DejaVuSans-b1" transform="translate(578.759766 0.015625)"/>
      <use xlink:href="#DejaVuSans-31" transform="translate(682.03125 0.015625)"/>
      <use xlink:href="#DejaVuSans-4b" transform="translate(745.654297 0.015625)"/>
     </g>
    </g>
    <g id="line2d_17">
     <path d="M 286.579375 46.174375 
L 296.579375 46.174375 
L 306.579375 46.174375 
" style="fill: none; stroke: #ff7f0e; stroke-width: 1.5; stroke-linecap: square"/>
    </g>
    <g id="text_18">
     <!-- Theoretische Kurve -->
     <g transform="translate(314.579375 49.674375) scale(0.1 -0.1)">
      <defs>
       <path id="DejaVuSans-54" d="M -19 4666 
L 3928 4666 
L 3928 4134 
L 2272 4134 
L 2272 0 
L 1638 0 
L 1638 4134 
L -19 4134 
L -19 4666 
z
" transform="scale(0.015625)"/>
       <path id="DejaVuSans-68" d="M 3513 2113 
L 3513 0 
L 2938 0 
L 2938 2094 
Q 2938 2591 2744 2837 
Q 2550 3084 2163 3084 
Q 1697 3084 1428 2787 
Q 1159 2491 1159 1978 
L 1159 0 
L 581 0 
L 581 4863 
L 1159 4863 
L 1159 2956 
Q 1366 3272 1645 3428 
Q 1925 3584 2291 3584 
Q 2894 3584 3203 3211 
Q 3513 2838 3513 2113 
z
" transform="scale(0.015625)"/>
       <path id="DejaVuSans-6f" d="M 1959 3097 
Q 1497 3097 1228 2736 
Q 959 2375 959 1747 
Q 959 1119 1226 758 
Q 1494 397 1959 397 
Q 2419 397 2687 759 
Q 2956 1122 2956 1747 
Q 2956 2369 2687 2733 
Q 2419 3097 1959 3097 
z
M 1959 3584 
Q 2709 3584 3137 3096 
Q 3566 2609 3566 1747 
Q 3566 888 3137 398 
Q 2709 -91 1959 -91 
Q 1206 -91 779 398 
Q 353 888 353 1747 
Q 353 2609 779 3096 
Q 1206 3584 1959 3584 
z
" transform="scale(0.015625)"/>
       <path id="DejaVuSans-63" d="M 3122 3366 
L 3122 2828 
Q 2878 2963 2633 3030 
Q 2388 3097 2138 3097 
Q 1578 3097 1268 2742 
Q 959 2388 959 1747 
Q 959 1106 1268 751 
Q 1578 397 2138 397 
Q 2388 397 2633 464 
Q 2878 531 3122 666 
L 3122 134 
Q 2881 22 2623 -34 
Q 2366 -91 2075 -91 
Q 1284 -91 818 406 
Q 353 903 353 1747 
Q 353 2603 823 3093 
Q 1294 3584 2113 3584 
Q 2378 3584 2631 3529 
Q 2884 3475 3122 3366 
z
" transform="scale(0.015625)"/>
       <path id="DejaVuSans-76" d="M 191 3500 
L 800 3500 
L 1894 563 
L 2988 3500 
L 3597 3500 
L 2284 0 
L 1503 0 
L 191 3500 
z
" transform="scale(0.015625)"/>
      </defs>
      <use xlink:href="#DejaVuSans-54"/>
      <use xlink:href="#DejaVuSans-68" x="61.083984"/>
      <use xlink:href="#DejaVuSans-65" x="124.462891"/>
      <use xlink:href="#DejaVuSans-6f" x="185.986328"/>
      <use xlink:href="#DejaVuSans-72" x="247.167969"/>
      <use xlink:href="#DejaVuSans-65" x="286.03125"/>
      <use xlink:href="#DejaVuSans-74" x="347.554688"/>
      <use xlink:href="#DejaVuSans-69" x="386.763672"/>
      <use xlink:href="#DejaVuSans-73" x="414.546875"/>
      <use xlink:href="#DejaVuSans-63" x="466.646484"/>
      <use xlink:href="#DejaVuSans-68" x="521.626953"/>
      <use xlink:href="#DejaVuSans-65" x="585.005859"/>
      <use xlink:href="#DejaVuSans-20" x="646.529297"/>
      <use xlink:href="#DejaVuSans-4b" x="678.316406"/>
      <use xlink:href="#DejaVuSans-75" x="738.892578"/>
      <use xlink:href="#DejaVuSans-72" x="802.271484"/>
      <use xlink:href="#DejaVuSans-76" x="843.384766"/>
      <use xlink:href="#DejaVuSans-65" x="902.564453"/>
     </g>
    </g>
   </g>
  </g>
 </g>
 <defs>
  <clipPath id="p80193a56c0">
   <rect x="62.86875" y="7.2" width="357.12" height="266.112"/>
  </clipPath>
 </defs>
</svg>
