<?xml version="1.0" encoding="utf-8" standalone="no"?>
<!DOCTYPE svg PUBLIC "-//W3C//DTD SVG 1.1//EN"
  "http://www.w3.org/Graphics/SVG/1.1/DTD/svg11.dtd">
<svg xmlns:xlink="http://www.w3.org/1999/xlink" width="460.8pt" height="345.6pt" viewBox="0 0 460.8 345.6" xmlns="http://www.w3.org/2000/svg" version="1.1">
 <metadata>
  <rdf:RDF xmlns:dc="http://purl.org/dc/elements/1.1/" xmlns:cc="http://creativecommons.org/ns#" xmlns:rdf="http://www.w3.org/1999/02/22-rdf-syntax-ns#">
   <cc:Work>
    <dc:type rdf:resource="http://purl.org/dc/dcmitype/StillImage"/>
    <dc:date>2024-07-11T02:37:47.754079</dc:date>
    <dc:format>image/svg+xml</dc:format>
    <dc:creator>
     <cc:Agent>
      <dc:title>Matplotlib v3.8.2, https://matplotlib.org/</dc:title>
     </cc:Agent>
    </dc:creator>
   </cc:Work>
  </rdf:RDF>
 </metadata>
 <defs>
  <style type="text/css">*{stroke-linejoin: round; stroke-linecap: butt}</style>
 </defs>
 <g id="figure_1">
  <g id="patch_1">
   <path d="M 0 345.6 
L 460.8 345.6 
L 460.8 0 
L 0 0 
z
" style="fill: #ffffff"/>
  </g>
  <g id="axes_1">
   <g id="patch_2">
    <path d="M 57.6 307.584 
L 414.72 307.584 
L 414.72 41.472 
L 57.6 41.472 
z
" style="fill: #ffffff"/>
   </g>
   <g id="matplotlib.axis_1">
    <g id="xtick_1">
     <g id="line2d_1">
      <defs>
       <path id="m2fe3adef07" d="M 0 0 
L 0 3.5 
" style="stroke: #000000; stroke-width: 0.8"/>
      </defs>
      <g>
       <use xlink:href="#m2fe3adef07" x="73.830544" y="307.584" style="stroke: #000000; stroke-width: 0.8"/>
      </g>
     </g>
     <g id="text_1">
      <!-- 0.0 -->
      <g transform="translate(65.878981 322.182437) scale(0.1 -0.1)">
       <defs>
        <path id="DejaVuSans-30" d="M 2034 4250 
Q 1547 4250 1301 3770 
Q 1056 3291 1056 2328 
Q 1056 1369 1301 889 
Q 1547 409 2034 409 
Q 2525 409 2770 889 
Q 3016 1369 3016 2328 
Q 3016 3291 2770 3770 
Q 2525 4250 2034 4250 
z
M 2034 4750 
Q 2819 4750 3233 4129 
Q 3647 3509 3647 2328 
Q 3647 1150 3233 529 
Q 2819 -91 2034 -91 
Q 1250 -91 836 529 
Q 422 1150 422 2328 
Q 422 3509 836 4129 
Q 1250 4750 2034 4750 
z
" transform="scale(0.015625)"/>
        <path id="DejaVuSans-2e" d="M 684 794 
L 1344 794 
L 1344 0 
L 684 0 
L 684 794 
z
" transform="scale(0.015625)"/>
       </defs>
       <use xlink:href="#DejaVuSans-30"/>
       <use xlink:href="#DejaVuSans-2e" x="63.623047"/>
       <use xlink:href="#DejaVuSans-30" x="95.410156"/>
      </g>
     </g>
    </g>
    <g id="xtick_2">
     <g id="line2d_2">
      <g>
       <use xlink:href="#m2fe3adef07" x="119.39792" y="307.584" style="stroke: #000000; stroke-width: 0.8"/>
      </g>
     </g>
     <g id="text_2">
      <!-- 0.2 -->
      <g transform="translate(111.446358 322.182437) scale(0.1 -0.1)">
       <defs>
        <path id="DejaVuSans-32" d="M 1228 531 
L 3431 531 
L 3431 0 
L 469 0 
L 469 531 
Q 828 903 1448 1529 
Q 2069 2156 2228 2338 
Q 2531 2678 2651 2914 
Q 2772 3150 2772 3378 
Q 2772 3750 2511 3984 
Q 2250 4219 1831 4219 
Q 1534 4219 1204 4116 
Q 875 4013 500 3803 
L 500 4441 
Q 881 4594 1212 4672 
Q 1544 4750 1819 4750 
Q 2544 4750 2975 4387 
Q 3406 4025 3406 3419 
Q 3406 3131 3298 2873 
Q 3191 2616 2906 2266 
Q 2828 2175 2409 1742 
Q 1991 1309 1228 531 
z
" transform="scale(0.015625)"/>
       </defs>
       <use xlink:href="#DejaVuSans-30"/>
       <use xlink:href="#DejaVuSans-2e" x="63.623047"/>
       <use xlink:href="#DejaVuSans-32" x="95.410156"/>
      </g>
     </g>
    </g>
    <g id="xtick_3">
     <g id="line2d_3">
      <g>
       <use xlink:href="#m2fe3adef07" x="164.965296" y="307.584" style="stroke: #000000; stroke-width: 0.8"/>
      </g>
     </g>
     <g id="text_3">
      <!-- 0.4 -->
      <g transform="translate(157.013734 322.182437) scale(0.1 -0.1)">
       <defs>
        <path id="DejaVuSans-34" d="M 2419 4116 
L 825 1625 
L 2419 1625 
L 2419 4116 
z
M 2253 4666 
L 3047 4666 
L 3047 1625 
L 3713 1625 
L 3713 1100 
L 3047 1100 
L 3047 0 
L 2419 0 
L 2419 1100 
L 313 1100 
L 313 1709 
L 2253 4666 
z
" transform="scale(0.015625)"/>
       </defs>
       <use xlink:href="#DejaVuSans-30"/>
       <use xlink:href="#DejaVuSans-2e" x="63.623047"/>
       <use xlink:href="#DejaVuSans-34" x="95.410156"/>
      </g>
     </g>
    </g>
    <g id="xtick_4">
     <g id="line2d_4">
      <g>
       <use xlink:href="#m2fe3adef07" x="210.532672" y="307.584" style="stroke: #000000; stroke-width: 0.8"/>
      </g>
     </g>
     <g id="text_4">
      <!-- 0.6 -->
      <g transform="translate(202.58111 322.182437) scale(0.1 -0.1)">
       <defs>
        <path id="DejaVuSans-36" d="M 2113 2584 
Q 1688 2584 1439 2293 
Q 1191 2003 1191 1497 
Q 1191 994 1439 701 
Q 1688 409 2113 409 
Q 2538 409 2786 701 
Q 3034 994 3034 1497 
Q 3034 2003 2786 2293 
Q 2538 2584 2113 2584 
z
M 3366 4563 
L 3366 3988 
Q 3128 4100 2886 4159 
Q 2644 4219 2406 4219 
Q 1781 4219 1451 3797 
Q 1122 3375 1075 2522 
Q 1259 2794 1537 2939 
Q 1816 3084 2150 3084 
Q 2853 3084 3261 2657 
Q 3669 2231 3669 1497 
Q 3669 778 3244 343 
Q 2819 -91 2113 -91 
Q 1303 -91 875 529 
Q 447 1150 447 2328 
Q 447 3434 972 4092 
Q 1497 4750 2381 4750 
Q 2619 4750 2861 4703 
Q 3103 4656 3366 4563 
z
" transform="scale(0.015625)"/>
       </defs>
       <use xlink:href="#DejaVuSans-30"/>
       <use xlink:href="#DejaVuSans-2e" x="63.623047"/>
       <use xlink:href="#DejaVuSans-36" x="95.410156"/>
      </g>
     </g>
    </g>
    <g id="xtick_5">
     <g id="line2d_5">
      <g>
       <use xlink:href="#m2fe3adef07" x="256.100049" y="307.584" style="stroke: #000000; stroke-width: 0.8"/>
      </g>
     </g>
     <g id="text_5">
      <!-- 0.8 -->
      <g transform="translate(248.148486 322.182437) scale(0.1 -0.1)">
       <defs>
        <path id="DejaVuSans-38" d="M 2034 2216 
Q 1584 2216 1326 1975 
Q 1069 1734 1069 1313 
Q 1069 891 1326 650 
Q 1584 409 2034 409 
Q 2484 409 2743 651 
Q 3003 894 3003 1313 
Q 3003 1734 2745 1975 
Q 2488 2216 2034 2216 
z
M 1403 2484 
Q 997 2584 770 2862 
Q 544 3141 544 3541 
Q 544 4100 942 4425 
Q 1341 4750 2034 4750 
Q 2731 4750 3128 4425 
Q 3525 4100 3525 3541 
Q 3525 3141 3298 2862 
Q 3072 2584 2669 2484 
Q 3125 2378 3379 2068 
Q 3634 1759 3634 1313 
Q 3634 634 3220 271 
Q 2806 -91 2034 -91 
Q 1263 -91 848 271 
Q 434 634 434 1313 
Q 434 1759 690 2068 
Q 947 2378 1403 2484 
z
M 1172 3481 
Q 1172 3119 1398 2916 
Q 1625 2713 2034 2713 
Q 2441 2713 2670 2916 
Q 2900 3119 2900 3481 
Q 2900 3844 2670 4047 
Q 2441 4250 2034 4250 
Q 1625 4250 1398 4047 
Q 1172 3844 1172 3481 
z
" transform="scale(0.015625)"/>
       </defs>
       <use xlink:href="#DejaVuSans-30"/>
       <use xlink:href="#DejaVuSans-2e" x="63.623047"/>
       <use xlink:href="#DejaVuSans-38" x="95.410156"/>
      </g>
     </g>
    </g>
    <g id="xtick_6">
     <g id="line2d_6">
      <g>
       <use xlink:href="#m2fe3adef07" x="301.667425" y="307.584" style="stroke: #000000; stroke-width: 0.8"/>
      </g>
     </g>
     <g id="text_6">
      <!-- 1.0 -->
      <g transform="translate(293.715862 322.182437) scale(0.1 -0.1)">
       <defs>
        <path id="DejaVuSans-31" d="M 794 531 
L 1825 531 
L 1825 4091 
L 703 3866 
L 703 4441 
L 1819 4666 
L 2450 4666 
L 2450 531 
L 3481 531 
L 3481 0 
L 794 0 
L 794 531 
z
" transform="scale(0.015625)"/>
       </defs>
       <use xlink:href="#DejaVuSans-31"/>
       <use xlink:href="#DejaVuSans-2e" x="63.623047"/>
       <use xlink:href="#DejaVuSans-30" x="95.410156"/>
      </g>
     </g>
    </g>
    <g id="xtick_7">
     <g id="line2d_7">
      <g>
       <use xlink:href="#m2fe3adef07" x="347.234801" y="307.584" style="stroke: #000000; stroke-width: 0.8"/>
      </g>
     </g>
     <g id="text_7">
      <!-- 1.2 -->
      <g transform="translate(339.283239 322.182437) scale(0.1 -0.1)">
       <use xlink:href="#DejaVuSans-31"/>
       <use xlink:href="#DejaVuSans-2e" x="63.623047"/>
       <use xlink:href="#DejaVuSans-32" x="95.410156"/>
      </g>
     </g>
    </g>
    <g id="xtick_8">
     <g id="line2d_8">
      <g>
       <use xlink:href="#m2fe3adef07" x="392.802177" y="307.584" style="stroke: #000000; stroke-width: 0.8"/>
      </g>
     </g>
     <g id="text_8">
      <!-- 1.4 -->
      <g transform="translate(384.850615 322.182437) scale(0.1 -0.1)">
       <use xlink:href="#DejaVuSans-31"/>
       <use xlink:href="#DejaVuSans-2e" x="63.623047"/>
       <use xlink:href="#DejaVuSans-34" x="95.410156"/>
      </g>
     </g>
    </g>
    <g id="text_9">
     <!-- Wellenlänge in m -->
     <g transform="translate(192.931094 335.860562) scale(0.1 -0.1)">
      <defs>
       <path id="DejaVuSans-57" d="M 213 4666 
L 850 4666 
L 1831 722 
L 2809 4666 
L 3519 4666 
L 4500 722 
L 5478 4666 
L 6119 4666 
L 4947 0 
L 4153 0 
L 3169 4050 
L 2175 0 
L 1381 0 
L 213 4666 
z
" transform="scale(0.015625)"/>
       <path id="DejaVuSans-65" d="M 3597 1894 
L 3597 1613 
L 953 1613 
Q 991 1019 1311 708 
Q 1631 397 2203 397 
Q 2534 397 2845 478 
Q 3156 559 3463 722 
L 3463 178 
Q 3153 47 2828 -22 
Q 2503 -91 2169 -91 
Q 1331 -91 842 396 
Q 353 884 353 1716 
Q 353 2575 817 3079 
Q 1281 3584 2069 3584 
Q 2775 3584 3186 3129 
Q 3597 2675 3597 1894 
z
M 3022 2063 
Q 3016 2534 2758 2815 
Q 2500 3097 2075 3097 
Q 1594 3097 1305 2825 
Q 1016 2553 972 2059 
L 3022 2063 
z
" transform="scale(0.015625)"/>
       <path id="DejaVuSans-6c" d="M 603 4863 
L 1178 4863 
L 1178 0 
L 603 0 
L 603 4863 
z
" transform="scale(0.015625)"/>
       <path id="DejaVuSans-6e" d="M 3513 2113 
L 3513 0 
L 2938 0 
L 2938 2094 
Q 2938 2591 2744 2837 
Q 2550 3084 2163 3084 
Q 1697 3084 1428 2787 
Q 1159 2491 1159 1978 
L 1159 0 
L 581 0 
L 581 3500 
L 1159 3500 
L 1159 2956 
Q 1366 3272 1645 3428 
Q 1925 3584 2291 3584 
Q 2894 3584 3203 3211 
Q 3513 2838 3513 2113 
z
" transform="scale(0.015625)"/>
       <path id="DejaVuSans-e4" d="M 2194 1759 
Q 1497 1759 1228 1600 
Q 959 1441 959 1056 
Q 959 750 1161 570 
Q 1363 391 1709 391 
Q 2188 391 2477 730 
Q 2766 1069 2766 1631 
L 2766 1759 
L 2194 1759 
z
M 3341 1997 
L 3341 0 
L 2766 0 
L 2766 531 
Q 2569 213 2275 61 
Q 1981 -91 1556 -91 
Q 1019 -91 701 211 
Q 384 513 384 1019 
Q 384 1609 779 1909 
Q 1175 2209 1959 2209 
L 2766 2209 
L 2766 2266 
Q 2766 2663 2505 2880 
Q 2244 3097 1772 3097 
Q 1472 3097 1187 3025 
Q 903 2953 641 2809 
L 641 3341 
Q 956 3463 1253 3523 
Q 1550 3584 1831 3584 
Q 2591 3584 2966 3190 
Q 3341 2797 3341 1997 
z
M 2150 4850 
L 2784 4850 
L 2784 4219 
L 2150 4219 
L 2150 4850 
z
M 928 4850 
L 1562 4850 
L 1562 4219 
L 928 4219 
L 928 4850 
z
" transform="scale(0.015625)"/>
       <path id="DejaVuSans-67" d="M 2906 1791 
Q 2906 2416 2648 2759 
Q 2391 3103 1925 3103 
Q 1463 3103 1205 2759 
Q 947 2416 947 1791 
Q 947 1169 1205 825 
Q 1463 481 1925 481 
Q 2391 481 2648 825 
Q 2906 1169 2906 1791 
z
M 3481 434 
Q 3481 -459 3084 -895 
Q 2688 -1331 1869 -1331 
Q 1566 -1331 1297 -1286 
Q 1028 -1241 775 -1147 
L 775 -588 
Q 1028 -725 1275 -790 
Q 1522 -856 1778 -856 
Q 2344 -856 2625 -561 
Q 2906 -266 2906 331 
L 2906 616 
Q 2728 306 2450 153 
Q 2172 0 1784 0 
Q 1141 0 747 490 
Q 353 981 353 1791 
Q 353 2603 747 3093 
Q 1141 3584 1784 3584 
Q 2172 3584 2450 3431 
Q 2728 3278 2906 2969 
L 2906 3500 
L 3481 3500 
L 3481 434 
z
" transform="scale(0.015625)"/>
       <path id="DejaVuSans-20" transform="scale(0.015625)"/>
       <path id="DejaVuSans-69" d="M 603 3500 
L 1178 3500 
L 1178 0 
L 603 0 
L 603 3500 
z
M 603 4863 
L 1178 4863 
L 1178 4134 
L 603 4134 
L 603 4863 
z
" transform="scale(0.015625)"/>
       <path id="DejaVuSans-6d" d="M 3328 2828 
Q 3544 3216 3844 3400 
Q 4144 3584 4550 3584 
Q 5097 3584 5394 3201 
Q 5691 2819 5691 2113 
L 5691 0 
L 5113 0 
L 5113 2094 
Q 5113 2597 4934 2840 
Q 4756 3084 4391 3084 
Q 3944 3084 3684 2787 
Q 3425 2491 3425 1978 
L 3425 0 
L 2847 0 
L 2847 2094 
Q 2847 2600 2669 2842 
Q 2491 3084 2119 3084 
Q 1678 3084 1418 2786 
Q 1159 2488 1159 1978 
L 1159 0 
L 581 0 
L 581 3500 
L 1159 3500 
L 1159 2956 
Q 1356 3278 1631 3431 
Q 1906 3584 2284 3584 
Q 2666 3584 2933 3390 
Q 3200 3197 3328 2828 
z
" transform="scale(0.015625)"/>
      </defs>
      <use xlink:href="#DejaVuSans-57"/>
      <use xlink:href="#DejaVuSans-65" x="93.001953"/>
      <use xlink:href="#DejaVuSans-6c" x="154.525391"/>
      <use xlink:href="#DejaVuSans-6c" x="182.308594"/>
      <use xlink:href="#DejaVuSans-65" x="210.091797"/>
      <use xlink:href="#DejaVuSans-6e" x="271.615234"/>
      <use xlink:href="#DejaVuSans-6c" x="334.994141"/>
      <use xlink:href="#DejaVuSans-e4" x="362.777344"/>
      <use xlink:href="#DejaVuSans-6e" x="424.056641"/>
      <use xlink:href="#DejaVuSans-67" x="487.435547"/>
      <use xlink:href="#DejaVuSans-65" x="550.912109"/>
      <use xlink:href="#DejaVuSans-20" x="612.435547"/>
      <use xlink:href="#DejaVuSans-69" x="644.222656"/>
      <use xlink:href="#DejaVuSans-6e" x="672.005859"/>
      <use xlink:href="#DejaVuSans-20" x="735.384766"/>
      <use xlink:href="#DejaVuSans-6d" x="767.171875"/>
     </g>
    </g>
    <g id="text_10">
     <!-- 1e−5 -->
     <g transform="translate(387.462188 334.860562) scale(0.1 -0.1)">
      <defs>
       <path id="DejaVuSans-2212" d="M 678 2272 
L 4684 2272 
L 4684 1741 
L 678 1741 
L 678 2272 
z
" transform="scale(0.015625)"/>
       <path id="DejaVuSans-35" d="M 691 4666 
L 3169 4666 
L 3169 4134 
L 1269 4134 
L 1269 2991 
Q 1406 3038 1543 3061 
Q 1681 3084 1819 3084 
Q 2600 3084 3056 2656 
Q 3513 2228 3513 1497 
Q 3513 744 3044 326 
Q 2575 -91 1722 -91 
Q 1428 -91 1123 -41 
Q 819 9 494 109 
L 494 744 
Q 775 591 1075 516 
Q 1375 441 1709 441 
Q 2250 441 2565 725 
Q 2881 1009 2881 1497 
Q 2881 1984 2565 2268 
Q 2250 2553 1709 2553 
Q 1456 2553 1204 2497 
Q 953 2441 691 2322 
L 691 4666 
z
" transform="scale(0.015625)"/>
      </defs>
      <use xlink:href="#DejaVuSans-31"/>
      <use xlink:href="#DejaVuSans-65" x="63.623047"/>
      <use xlink:href="#DejaVuSans-2212" x="125.146484"/>
      <use xlink:href="#DejaVuSans-35" x="208.935547"/>
     </g>
    </g>
   </g>
   <g id="matplotlib.axis_2">
    <g id="ytick_1">
     <g id="line2d_9">
      <defs>
       <path id="m4a7883236a" d="M 0 0 
L -3.5 0 
" style="stroke: #000000; stroke-width: 0.8"/>
      </defs>
      <g>
       <use xlink:href="#m4a7883236a" x="57.6" y="295.488" style="stroke: #000000; stroke-width: 0.8"/>
      </g>
     </g>
     <g id="text_11">
      <!-- 0.000000 -->
      <g transform="translate(2.884375 299.287219) scale(0.1 -0.1)">
       <use xlink:href="#DejaVuSans-30"/>
       <use xlink:href="#DejaVuSans-2e" x="63.623047"/>
       <use xlink:href="#DejaVuSans-30" x="95.410156"/>
       <use xlink:href="#DejaVuSans-30" x="159.033203"/>
       <use xlink:href="#DejaVuSans-30" x="222.65625"/>
       <use xlink:href="#DejaVuSans-30" x="286.279297"/>
       <use xlink:href="#DejaVuSans-30" x="349.902344"/>
       <use xlink:href="#DejaVuSans-30" x="413.525391"/>
      </g>
     </g>
    </g>
    <g id="ytick_2">
     <g id="line2d_10">
      <g>
       <use xlink:href="#m4a7883236a" x="57.6" y="259.321808" style="stroke: #000000; stroke-width: 0.8"/>
      </g>
     </g>
     <g id="text_12">
      <!-- 0.000025 -->
      <g transform="translate(2.884375 263.121026) scale(0.1 -0.1)">
       <use xlink:href="#DejaVuSans-30"/>
       <use xlink:href="#DejaVuSans-2e" x="63.623047"/>
       <use xlink:href="#DejaVuSans-30" x="95.410156"/>
       <use xlink:href="#DejaVuSans-30" x="159.033203"/>
       <use xlink:href="#DejaVuSans-30" x="222.65625"/>
       <use xlink:href="#DejaVuSans-30" x="286.279297"/>
       <use xlink:href="#DejaVuSans-32" x="349.902344"/>
       <use xlink:href="#DejaVuSans-35" x="413.525391"/>
      </g>
     </g>
    </g>
    <g id="ytick_3">
     <g id="line2d_11">
      <g>
       <use xlink:href="#m4a7883236a" x="57.6" y="223.155615" style="stroke: #000000; stroke-width: 0.8"/>
      </g>
     </g>
     <g id="text_13">
      <!-- 0.000050 -->
      <g transform="translate(2.884375 226.954834) scale(0.1 -0.1)">
       <use xlink:href="#DejaVuSans-30"/>
       <use xlink:href="#DejaVuSans-2e" x="63.623047"/>
       <use xlink:href="#DejaVuSans-30" x="95.410156"/>
       <use xlink:href="#DejaVuSans-30" x="159.033203"/>
       <use xlink:href="#DejaVuSans-30" x="222.65625"/>
       <use xlink:href="#DejaVuSans-30" x="286.279297"/>
       <use xlink:href="#DejaVuSans-35" x="349.902344"/>
       <use xlink:href="#DejaVuSans-30" x="413.525391"/>
      </g>
     </g>
    </g>
    <g id="ytick_4">
     <g id="line2d_12">
      <g>
       <use xlink:href="#m4a7883236a" x="57.6" y="186.989423" style="stroke: #000000; stroke-width: 0.8"/>
      </g>
     </g>
     <g id="text_14">
      <!-- 0.000075 -->
      <g transform="translate(2.884375 190.788642) scale(0.1 -0.1)">
       <defs>
        <path id="DejaVuSans-37" d="M 525 4666 
L 3525 4666 
L 3525 4397 
L 1831 0 
L 1172 0 
L 2766 4134 
L 525 4134 
L 525 4666 
z
" transform="scale(0.015625)"/>
       </defs>
       <use xlink:href="#DejaVuSans-30"/>
       <use xlink:href="#DejaVuSans-2e" x="63.623047"/>
       <use xlink:href="#DejaVuSans-30" x="95.410156"/>
       <use xlink:href="#DejaVuSans-30" x="159.033203"/>
       <use xlink:href="#DejaVuSans-30" x="222.65625"/>
       <use xlink:href="#DejaVuSans-30" x="286.279297"/>
       <use xlink:href="#DejaVuSans-37" x="349.902344"/>
       <use xlink:href="#DejaVuSans-35" x="413.525391"/>
      </g>
     </g>
    </g>
    <g id="ytick_5">
     <g id="line2d_13">
      <g>
       <use xlink:href="#m4a7883236a" x="57.6" y="150.823231" style="stroke: #000000; stroke-width: 0.8"/>
      </g>
     </g>
     <g id="text_15">
      <!-- 0.000100 -->
      <g transform="translate(2.884375 154.62245) scale(0.1 -0.1)">
       <use xlink:href="#DejaVuSans-30"/>
       <use xlink:href="#DejaVuSans-2e" x="63.623047"/>
       <use xlink:href="#DejaVuSans-30" x="95.410156"/>
       <use xlink:href="#DejaVuSans-30" x="159.033203"/>
       <use xlink:href="#DejaVuSans-30" x="222.65625"/>
       <use xlink:href="#DejaVuSans-31" x="286.279297"/>
       <use xlink:href="#DejaVuSans-30" x="349.902344"/>
       <use xlink:href="#DejaVuSans-30" x="413.525391"/>
      </g>
     </g>
    </g>
    <g id="ytick_6">
     <g id="line2d_14">
      <g>
       <use xlink:href="#m4a7883236a" x="57.6" y="114.657039" style="stroke: #000000; stroke-width: 0.8"/>
      </g>
     </g>
     <g id="text_16">
      <!-- 0.000125 -->
      <g transform="translate(2.884375 118.456257) scale(0.1 -0.1)">
       <use xlink:href="#DejaVuSans-30"/>
       <use xlink:href="#DejaVuSans-2e" x="63.623047"/>
       <use xlink:href="#DejaVuSans-30" x="95.410156"/>
       <use xlink:href="#DejaVuSans-30" x="159.033203"/>
       <use xlink:href="#DejaVuSans-30" x="222.65625"/>
       <use xlink:href="#DejaVuSans-31" x="286.279297"/>
       <use xlink:href="#DejaVuSans-32" x="349.902344"/>
       <use xlink:href="#DejaVuSans-35" x="413.525391"/>
      </g>
     </g>
    </g>
    <g id="ytick_7">
     <g id="line2d_15">
      <g>
       <use xlink:href="#m4a7883236a" x="57.6" y="78.490846" style="stroke: #000000; stroke-width: 0.8"/>
      </g>
     </g>
     <g id="text_17">
      <!-- 0.000150 -->
      <g transform="translate(2.884375 82.290065) scale(0.1 -0.1)">
       <use xlink:href="#DejaVuSans-30"/>
       <use xlink:href="#DejaVuSans-2e" x="63.623047"/>
       <use xlink:href="#DejaVuSans-30" x="95.410156"/>
       <use xlink:href="#DejaVuSans-30" x="159.033203"/>
       <use xlink:href="#DejaVuSans-30" x="222.65625"/>
       <use xlink:href="#DejaVuSans-31" x="286.279297"/>
       <use xlink:href="#DejaVuSans-35" x="349.902344"/>
       <use xlink:href="#DejaVuSans-30" x="413.525391"/>
      </g>
     </g>
    </g>
    <g id="ytick_8">
     <g id="line2d_16">
      <g>
       <use xlink:href="#m4a7883236a" x="57.6" y="42.324654" style="stroke: #000000; stroke-width: 0.8"/>
      </g>
     </g>
     <g id="text_18">
      <!-- 0.000175 -->
      <g transform="translate(2.884375 46.123873) scale(0.1 -0.1)">
       <use xlink:href="#DejaVuSans-30"/>
       <use xlink:href="#DejaVuSans-2e" x="63.623047"/>
       <use xlink:href="#DejaVuSans-30" x="95.410156"/>
       <use xlink:href="#DejaVuSans-30" x="159.033203"/>
       <use xlink:href="#DejaVuSans-30" x="222.65625"/>
       <use xlink:href="#DejaVuSans-31" x="286.279297"/>
       <use xlink:href="#DejaVuSans-37" x="349.902344"/>
       <use xlink:href="#DejaVuSans-35" x="413.525391"/>
      </g>
     </g>
    </g>
    <g id="text_19">
     <!-- Spannung in V -->
     <g transform="translate(-3.195313 210.945969) rotate(-90) scale(0.1 -0.1)">
      <defs>
       <path id="DejaVuSans-53" d="M 3425 4513 
L 3425 3897 
Q 3066 4069 2747 4153 
Q 2428 4238 2131 4238 
Q 1616 4238 1336 4038 
Q 1056 3838 1056 3469 
Q 1056 3159 1242 3001 
Q 1428 2844 1947 2747 
L 2328 2669 
Q 3034 2534 3370 2195 
Q 3706 1856 3706 1288 
Q 3706 609 3251 259 
Q 2797 -91 1919 -91 
Q 1588 -91 1214 -16 
Q 841 59 441 206 
L 441 856 
Q 825 641 1194 531 
Q 1563 422 1919 422 
Q 2459 422 2753 634 
Q 3047 847 3047 1241 
Q 3047 1584 2836 1778 
Q 2625 1972 2144 2069 
L 1759 2144 
Q 1053 2284 737 2584 
Q 422 2884 422 3419 
Q 422 4038 858 4394 
Q 1294 4750 2059 4750 
Q 2388 4750 2728 4690 
Q 3069 4631 3425 4513 
z
" transform="scale(0.015625)"/>
       <path id="DejaVuSans-70" d="M 1159 525 
L 1159 -1331 
L 581 -1331 
L 581 3500 
L 1159 3500 
L 1159 2969 
Q 1341 3281 1617 3432 
Q 1894 3584 2278 3584 
Q 2916 3584 3314 3078 
Q 3713 2572 3713 1747 
Q 3713 922 3314 415 
Q 2916 -91 2278 -91 
Q 1894 -91 1617 61 
Q 1341 213 1159 525 
z
M 3116 1747 
Q 3116 2381 2855 2742 
Q 2594 3103 2138 3103 
Q 1681 3103 1420 2742 
Q 1159 2381 1159 1747 
Q 1159 1113 1420 752 
Q 1681 391 2138 391 
Q 2594 391 2855 752 
Q 3116 1113 3116 1747 
z
" transform="scale(0.015625)"/>
       <path id="DejaVuSans-61" d="M 2194 1759 
Q 1497 1759 1228 1600 
Q 959 1441 959 1056 
Q 959 750 1161 570 
Q 1363 391 1709 391 
Q 2188 391 2477 730 
Q 2766 1069 2766 1631 
L 2766 1759 
L 2194 1759 
z
M 3341 1997 
L 3341 0 
L 2766 0 
L 2766 531 
Q 2569 213 2275 61 
Q 1981 -91 1556 -91 
Q 1019 -91 701 211 
Q 384 513 384 1019 
Q 384 1609 779 1909 
Q 1175 2209 1959 2209 
L 2766 2209 
L 2766 2266 
Q 2766 2663 2505 2880 
Q 2244 3097 1772 3097 
Q 1472 3097 1187 3025 
Q 903 2953 641 2809 
L 641 3341 
Q 956 3463 1253 3523 
Q 1550 3584 1831 3584 
Q 2591 3584 2966 3190 
Q 3341 2797 3341 1997 
z
" transform="scale(0.015625)"/>
       <path id="DejaVuSans-75" d="M 544 1381 
L 544 3500 
L 1119 3500 
L 1119 1403 
Q 1119 906 1312 657 
Q 1506 409 1894 409 
Q 2359 409 2629 706 
Q 2900 1003 2900 1516 
L 2900 3500 
L 3475 3500 
L 3475 0 
L 2900 0 
L 2900 538 
Q 2691 219 2414 64 
Q 2138 -91 1772 -91 
Q 1169 -91 856 284 
Q 544 659 544 1381 
z
M 1991 3584 
L 1991 3584 
z
" transform="scale(0.015625)"/>
       <path id="DejaVuSans-56" d="M 1831 0 
L 50 4666 
L 709 4666 
L 2188 738 
L 3669 4666 
L 4325 4666 
L 2547 0 
L 1831 0 
z
" transform="scale(0.015625)"/>
      </defs>
      <use xlink:href="#DejaVuSans-53"/>
      <use xlink:href="#DejaVuSans-70" x="63.476562"/>
      <use xlink:href="#DejaVuSans-61" x="126.953125"/>
      <use xlink:href="#DejaVuSans-6e" x="188.232422"/>
      <use xlink:href="#DejaVuSans-6e" x="251.611328"/>
      <use xlink:href="#DejaVuSans-75" x="314.990234"/>
      <use xlink:href="#DejaVuSans-6e" x="378.369141"/>
      <use xlink:href="#DejaVuSans-67" x="441.748047"/>
      <use xlink:href="#DejaVuSans-20" x="505.224609"/>
      <use xlink:href="#DejaVuSans-69" x="537.011719"/>
      <use xlink:href="#DejaVuSans-6e" x="564.794922"/>
      <use xlink:href="#DejaVuSans-20" x="628.173828"/>
      <use xlink:href="#DejaVuSans-56" x="659.960938"/>
     </g>
    </g>
   </g>
   <g id="line2d_17">
    <path d="M 73.832727 283.865248 
L 74.745961 283.865248 
L 74.898166 283.265504 
L 75.963606 283.265504 
L 76.115811 282.64097 
L 77.029045 282.64097 
L 77.18125 283.147812 
L 78.24669 283.147812 
L 78.398895 284.040577 
L 79.312129 284.040577 
L 79.464334 283.726196 
L 82.812858 283.826554 
L 82.965063 284.711662 
L 84.030502 284.711662 
L 84.182708 283.726194 
L 85.248147 283.726194 
L 85.400353 283.248575 
L 86.313586 283.248575 
L 86.465792 283.635507 
L 87.531231 283.635507 
L 87.683437 284.364027 
L 88.596671 284.364027 
L 88.748876 283.808821 
L 91.03196 283.775771 
L 91.336371 283.617369 
L 92.097399 283.617369 
L 92.249605 284.001279 
L 93.315044 284.001279 
L 93.46725 284.775144 
L 94.532689 284.775144 
L 94.684895 285.159053 
L 95.598128 285.159053 
L 95.750334 284.56354 
L 96.815773 284.56354 
L 96.967979 283.978104 
L 98.033418 283.978104 
L 98.185623 284.518196 
L 99.098857 284.518196 
L 99.251063 283.955935 
L 100.316502 283.955935 
L 100.468707 283.590165 
L 101.381941 283.590165 
L 101.534147 284.35496 
L 102.599586 284.35496 
L 102.751791 283.92087 
L 103.817231 283.92087 
L 103.969436 284.959541 
L 104.88267 284.959541 
L 105.034875 283.946866 
L 106.100315 283.946866 
L 106.25252 284.69957 
L 107.317959 284.69957 
L 107.470165 284.157865 
L 108.383399 284.157865 
L 108.535604 283.861217 
L 109.601043 283.861217 
L 109.753249 283.652436 
L 110.666483 283.652436 
L 110.818688 284.067783 
L 111.884127 284.067783 
L 112.036333 283.71108 
L 113.101772 283.71108 
L 113.253978 284.509127 
L 114.167211 284.509127 
L 114.319417 284.871876 
L 115.384856 284.871876 
L 115.537062 284.140332 
L 116.602501 284.140332 
L 116.754707 285.276946 
L 117.66794 285.276946 
L 117.820146 284.672364 
L 118.885585 284.672364 
L 119.037791 284.164516 
L 120.10323 284.164516 
L 120.255435 283.883384 
L 121.168669 283.883384 
L 121.320875 284.569586 
L 123.451753 284.52787 
L 123.603959 284.743907 
L 124.669398 284.743907 
L 124.821603 284.197768 
L 125.887043 284.197768 
L 126.191454 284.333798 
L 126.952482 284.333798 
L 127.104687 285.08348 
L 128.170127 285.08348 
L 128.322332 284.681433 
L 129.387771 284.681433 
L 129.539977 283.589559 
L 130.453211 283.589559 
L 130.605416 285.310197 
L 131.670855 285.310197 
L 131.823061 284.914197 
L 132.8885 284.914197 
L 133.040706 284.167539 
L 133.953939 284.167539 
L 134.106145 285.279969 
L 135.171584 285.279969 
L 135.32379 284.296516 
L 136.237023 284.296516 
L 136.389229 283.992211 
L 137.454668 283.992211 
L 137.606874 283.221974 
L 138.672313 283.221974 
L 138.824519 283.989188 
L 139.737752 283.989188 
L 139.889958 283.351354 
L 142.173042 283.396697 
L 142.325247 284.097407 
L 143.238481 284.097407 
L 143.390687 282.623842 
L 144.456126 282.623842 
L 144.608331 282.293336 
L 145.521565 282.293336 
L 145.673771 282.710497 
L 146.73921 282.710497 
L 146.891415 282.12103 
L 147.956855 282.12103 
L 148.10906 281.537609 
L 149.022294 281.537609 
L 149.174499 281.026737 
L 150.239939 281.026737 
L 150.392144 280.150699 
L 152.523023 280.168232 
L 152.675228 279.358095 
L 153.740667 279.358095 
L 153.892873 278.049168 
L 154.958312 278.049168 
L 155.110518 277.390177 
L 156.023751 277.390177 
L 156.175957 276.706998 
L 157.241396 276.706998 
L 157.393602 274.387833 
L 158.306835 274.387833 
L 158.459041 271.572093 
L 159.52448 271.572093 
L 159.676686 269.710778 
L 160.742125 269.710778 
L 160.894331 265.525264 
L 161.807564 265.525264 
L 161.95977 262.15472 
L 163.025209 262.15472 
L 163.177415 258.835575 
L 164.242854 258.835575 
L 164.395059 254.125883 
L 165.308293 254.125883 
L 165.460499 249.107853 
L 166.525938 249.107853 
L 166.678143 244.162372 
L 167.591377 244.162372 
L 167.743583 239.041572 
L 168.809022 239.041572 
L 168.961227 233.189231 
L 170.026667 233.189231 
L 170.178872 228.122825 
L 171.092106 228.122825 
L 171.244311 220.674398 
L 172.309751 220.674398 
L 172.461956 214.282747 
L 173.527395 214.282747 
L 173.679601 207.17609 
L 174.592835 207.17609 
L 174.74504 201.754011 
L 175.810479 201.754011 
L 175.962685 194.057686 
L 177.028124 194.057686 
L 177.18033 186.005269 
L 178.093563 186.005269 
L 178.245769 177.071973 
L 179.311208 177.071973 
L 179.463414 169.623532 
L 180.376647 169.623532 
L 180.528853 162.61341 
L 181.594292 162.61341 
L 181.746498 152.906852 
L 182.811937 152.906852 
L 182.964143 146.629255 
L 183.877376 146.629255 
L 184.029582 140.05048 
L 185.095021 140.05048 
L 185.247227 130.816672 
L 186.312666 130.816672 
L 186.464871 120.876177 
L 187.378105 120.876177 
L 187.530311 113.134442 
L 188.59575 113.134442 
L 188.747956 104.87582 
L 189.661189 104.87582 
L 189.813395 97.874768 
L 190.878834 97.874768 
L 191.03104 90.314587 
L 192.096479 90.314587 
L 192.248684 85.375153 
L 193.161918 85.375153 
L 193.314124 77.892368 
L 194.379563 77.892368 
L 194.531768 73.021071 
L 195.597208 73.021071 
L 195.749413 68.353029 
L 196.662647 68.353029 
L 196.814852 63.997028 
L 197.880292 63.997028 
L 198.032497 60.454188 
L 199.097936 60.454188 
L 199.250142 56.685236 
L 200.163376 56.685236 
L 200.315581 55.526906 
L 201.38102 55.526906 
L 201.533226 53.568 
L 202.44646 53.568 
L 202.598665 53.866299 
L 203.664104 53.866299 
L 203.81631 53.625432 
L 204.881749 53.625432 
L 205.033955 54.462896 
L 205.947188 54.462896 
L 206.2516 54.595843 
L 207.164833 54.595843 
L 207.317039 56.646611 
L 208.382478 56.646611 
L 208.534684 59.202837 
L 209.447917 59.202837 
L 209.600123 62.186404 
L 210.665562 62.186404 
L 210.817768 65.974017 
L 211.883207 65.974017 
L 212.035412 68.413499 
L 212.948646 68.413499 
L 213.100852 71.786068 
L 214.166291 71.786068 
L 214.318496 75.954584 
L 215.23173 75.954584 
L 215.383936 80.221037 
L 216.449375 80.221037 
L 216.60158 85.36604 
L 217.66702 85.36604 
L 217.819225 90.477769 
L 218.732459 90.477769 
L 218.884664 95.21771 
L 219.950104 95.21771 
L 220.102309 102.123283 
L 221.167748 102.123283 
L 221.319954 107.355663 
L 222.233188 107.355663 
L 222.385393 111.825515 
L 223.450832 111.825515 
L 223.603038 116.777101 
L 224.516272 116.777101 
L 224.668477 123.097939 
L 225.733916 123.097939 
L 225.886122 129.981088 
L 226.951561 129.981088 
L 227.103767 135.072854 
L 228.017 135.072854 
L 228.169206 139.841873 
L 229.234645 139.841873 
L 229.386851 146.738911 
L 230.45229 146.738911 
L 230.604496 153.56988 
L 231.517729 153.56988 
L 231.669935 158.949644 
L 232.735374 158.949644 
L 232.88758 164.049294 
L 233.953019 164.049294 
L 234.105224 170.525545 
L 235.018458 170.525545 
L 235.170664 175.744906 
L 236.236103 175.744906 
L 236.388308 181.068265 
L 237.301542 181.068265 
L 237.453748 185.654008 
L 238.519187 185.654008 
L 238.671392 189.898169 
L 239.736832 189.898169 
L 239.889037 193.688284 
L 240.802271 193.688284 
L 240.954476 197.621691 
L 242.019916 197.621691 
L 242.172121 200.517648 
L 243.23756 200.517648 
L 243.389766 203.773314 
L 244.303 203.773314 
L 244.455205 206.83552 
L 245.520644 206.83552 
L 245.67285 210.450924 
L 246.738289 210.450924 
L 246.890495 212.551239 
L 247.803728 212.551239 
L 247.955934 214.975199 
L 249.021373 214.975199 
L 249.173579 216.606772 
L 250.086812 216.606772 
L 250.239018 219.396704 
L 251.304457 219.396704 
L 251.456663 220.692539 
L 252.522102 220.692539 
L 252.674308 222.50325 
L 253.587541 222.50325 
L 253.739747 225.631973 
L 254.805186 225.631973 
L 254.957392 226.712951 
L 256.022831 226.712951 
L 256.175036 230.093767 
L 257.08827 230.093767 
L 257.240476 230.909951 
L 258.305915 230.909951 
L 258.45812 232.841602 
L 259.371354 232.841602 
L 259.52356 233.52779 
L 260.588999 233.52779 
L 260.741204 235.036224 
L 261.806644 235.036224 
L 261.958849 237.486585 
L 262.872083 237.486585 
L 263.024288 238.76749 
L 264.089728 238.76749 
L 264.241933 241.406696 
L 265.307372 241.406696 
L 265.459578 242.182374 
L 266.372812 242.182374 
L 266.525017 243.935668 
L 267.590456 243.935668 
L 267.742662 244.736735 
L 268.808101 244.736735 
L 268.960307 246.160525 
L 269.87354 246.160525 
L 270.025746 247.614536 
L 271.091185 247.614536 
L 271.243391 249.150182 
L 272.156624 249.150182 
L 272.30883 249.392004 
L 273.374269 249.392004 
L 273.526475 251.405274 
L 274.591914 251.405274 
L 274.74412 252.50681 
L 275.657353 252.50681 
L 275.809559 253.611991 
L 276.874998 253.611991 
L 277.027204 253.853827 
L 278.092643 253.853827 
L 278.244848 254.812086 
L 279.158082 254.812086 
L 279.310288 257.183055 
L 281.593372 257.182042 
L 281.745577 258.475244 
L 282.658811 258.475244 
L 282.811016 259.790811 
L 283.876456 259.790811 
L 284.028661 260.257543 
L 284.941895 260.257543 
L 285.0941 261.598513 
L 286.15954 261.598513 
L 286.311745 262.302857 
L 287.377185 262.302857 
L 287.52939 262.989045 
L 288.442624 262.989045 
L 288.594829 264.514607 
L 290.877913 264.542817 
L 291.030119 265.195776 
L 291.943353 265.195776 
L 292.095558 266.773736 
L 293.160997 266.773736 
L 293.313203 267.320873 
L 294.226437 267.320873 
L 294.378642 266.559097 
L 295.444081 266.559097 
L 295.596287 267.166703 
L 296.661726 267.166703 
L 296.813932 267.37952 
L 297.727165 267.37952 
L 297.879371 267.880118 
L 298.94481 267.880118 
L 299.097016 269.430258 
L 300.162455 269.430258 
L 300.314661 269.258556 
L 301.227894 269.258556 
L 301.3801 269.095331 
L 302.445539 269.095331 
L 302.597745 270.779084 
L 303.663184 270.779084 
L 303.815389 271.539037 
L 304.728623 271.539037 
L 304.880829 271.311117 
L 307.011707 271.419934 
L 307.163913 272.378194 
L 309.446997 272.281471 
L 309.599202 272.87153 
L 310.512436 272.87153 
L 310.664641 272.470895 
L 311.730081 272.470895 
L 311.882286 272.762713 
L 312.947725 272.762713 
L 313.099931 274.633286 
L 314.013165 274.633286 
L 314.16537 275.035338 
L 315.230809 275.035338 
L 315.383015 274.754211 
L 316.296249 274.754211 
L 316.448454 276.537725 
L 317.513893 276.537725 
L 317.666099 275.006116 
L 318.731538 275.006116 
L 319.035949 275.149595 
L 319.796977 275.149595 
L 319.949183 276.320077 
L 321.014622 276.320077 
L 321.166828 276.081265 
L 322.232267 276.081265 
L 322.536678 276.193105 
L 323.297706 276.193105 
L 323.449912 276.716068 
L 324.515351 276.716068 
L 324.667557 276.9827 
L 325.732996 276.9827 
L 325.885201 276.749327 
L 328.01608 276.779547 
L 328.168285 276.954881 
L 329.081519 276.954881 
L 329.233725 278.309145 
L 330.299164 278.309145 
L 330.451369 277.774088 
L 331.516809 277.774088 
L 331.669014 278.738395 
L 332.582248 278.738395 
L 332.734453 279.298638 
L 333.799893 279.298638 
L 333.952098 279.091478 
L 335.017537 279.091478 
L 335.169743 279.624105 
L 336.082977 279.624105 
L 336.235182 279.056816 
L 337.300621 279.056816 
L 337.452827 279.784321 
L 339.583705 279.746838 
L 339.735911 280.500759 
L 340.80135 280.500759 
L 340.953556 279.23717 
L 341.866789 279.23717 
L 342.018995 281.214159 
L 343.084434 281.214159 
L 343.23664 280.45843 
L 344.302079 280.45843 
L 344.454285 281.422738 
L 345.367518 281.422738 
L 345.519724 280.451385 
L 346.585163 280.451385 
L 346.737369 280.718407 
L 347.650602 280.718407 
L 347.802808 281.090219 
L 350.085892 281.059989 
L 350.238097 281.685733 
L 352.368976 281.585976 
L 352.825593 281.531563 
L 353.586621 281.531563 
L 353.738826 282.160327 
L 354.65206 282.160327 
L 354.804265 282.719566 
L 355.869705 282.719566 
L 356.02191 282.224817 
L 356.935144 282.224817 
L 357.087349 283.327171 
L 358.152789 283.327171 
L 358.304994 282.64097 
L 360.435873 282.660921 
L 360.588078 282.946284 
L 361.653517 282.946284 
L 361.805723 283.420276 
L 362.871162 283.420276 
L 363.023368 283.194162 
L 363.936601 283.194162 
L 364.241013 283.348331 
L 365.154246 283.348331 
L 365.306452 283.73224 
L 366.371891 283.73224 
L 366.524097 284.128846 
L 367.43733 284.128846 
L 367.589536 284.642135 
L 368.654975 284.642135 
L 368.807181 283.856179 
L 369.720414 283.856179 
L 369.87262 284.218928 
L 372.155704 284.131263 
L 372.307909 284.443228 
L 373.221143 284.443228 
L 373.373349 285.058289 
L 374.438788 285.058289 
L 374.590993 284.085921 
L 376.721872 284.143356 
L 376.874077 284.793281 
L 379.004956 284.711662 
L 379.157161 284.007326 
L 380.222601 284.007326 
L 380.374806 285.134869 
L 382.505685 285.1784 
L 382.65789 284.022439 
L 384.940974 284.002287 
L 385.09318 284.896059 
L 387.224058 284.893037 
L 387.376264 285.371865 
L 388.441703 285.371865 
L 388.593909 285.579237 
L 389.507142 285.579237 
L 389.659348 284.787235 
L 390.724787 284.787235 
L 390.876993 285.760611 
L 391.790226 285.760611 
L 391.942432 285.128824 
L 393.007871 285.128824 
L 393.160077 284.76003 
L 394.225516 284.76003 
L 394.377722 285.198349 
L 395.290955 285.198349 
L 395.595366 285.312212 
L 396.5086 285.312212 
L 396.660806 284.864016 
L 397.726245 284.864016 
L 397.87845 285.518779 
L 398.487273 285.518779 
L 398.487273 285.518779 
" clip-path="url(#pdd970c00cb)" style="fill: none; stroke: #1f77b4; stroke-width: 1.5; stroke-linecap: square"/>
   </g>
   <g id="line2d_18">
    <path d="M 73.832727 295.488 
L 111.123099 295.377921 
L 115.080445 295.119943 
L 118.124557 294.70702 
L 120.712052 294.141071 
L 123.147342 293.38091 
L 125.430426 292.435799 
L 127.71351 291.243431 
L 129.996594 289.790689 
L 132.279678 288.07368 
L 134.714967 285.956965 
L 137.302463 283.404096 
L 140.194369 280.218936 
L 143.390687 276.357937 
L 147.348032 271.213362 
L 154.045079 262.069331 
L 160.589919 253.273326 
L 164.851676 247.917696 
L 168.504611 243.673072 
L 171.853134 240.111206 
L 175.049451 237.030634 
L 178.093563 234.399585 
L 181.137675 232.068938 
L 184.029582 230.132346 
L 186.921488 228.461496 
L 189.813395 227.04872 
L 192.705301 225.883967 
L 195.597208 224.955395 
L 198.64132 224.218666 
L 201.685432 223.71278 
L 204.881749 223.411582 
L 208.230272 223.32756 
L 211.731001 223.468994 
L 215.383936 223.839827 
L 219.341281 224.467813 
L 223.603038 225.370992 
L 228.321412 226.601308 
L 233.648608 228.225743 
L 239.889037 230.371195 
L 247.499317 233.232718 
L 258.610326 237.672362 
L 282.3544 247.204686 
L 293.465409 251.388223 
L 303.663184 254.989809 
L 313.556548 258.245863 
L 323.297706 261.217571 
L 333.19107 264.001162 
L 343.23664 266.594879 
L 353.586621 269.035491 
L 364.241013 271.319131 
L 375.352021 273.473264 
L 387.071853 275.516637 
L 398.487273 277.303203 
L 398.487273 277.303203 
" clip-path="url(#pdd970c00cb)" style="fill: none; stroke: #ff7f0e; stroke-width: 1.5; stroke-linecap: square"/>
   </g>
   <g id="patch_3">
    <path d="M 57.6 307.584 
L 57.6 41.472 
" style="fill: none; stroke: #000000; stroke-width: 0.8; stroke-linejoin: miter; stroke-linecap: square"/>
   </g>
   <g id="patch_4">
    <path d="M 414.72 307.584 
L 414.72 41.472 
" style="fill: none; stroke: #000000; stroke-width: 0.8; stroke-linejoin: miter; stroke-linecap: square"/>
   </g>
   <g id="patch_5">
    <path d="M 57.6 307.584 
L 414.72 307.584 
" style="fill: none; stroke: #000000; stroke-width: 0.8; stroke-linejoin: miter; stroke-linecap: square"/>
   </g>
   <g id="patch_6">
    <path d="M 57.6 41.472 
L 414.72 41.472 
" style="fill: none; stroke: #000000; stroke-width: 0.8; stroke-linejoin: miter; stroke-linecap: square"/>
   </g>
   <g id="legend_1">
    <g id="patch_7">
     <path d="M 279.310625 78.82825 
L 407.72 78.82825 
Q 409.72 78.82825 409.72 76.82825 
L 409.72 48.472 
Q 409.72 46.472 407.72 46.472 
L 279.310625 46.472 
Q 277.310625 46.472 277.310625 48.472 
L 277.310625 76.82825 
Q 277.310625 78.82825 279.310625 78.82825 
z
" style="fill: #ffffff; opacity: 0.8; stroke: #cccccc; stroke-linejoin: miter"/>
    </g>
    <g id="line2d_19">
     <path d="M 281.310625 54.570437 
L 291.310625 54.570437 
L 301.310625 54.570437 
" style="fill: none; stroke: #1f77b4; stroke-width: 1.5; stroke-linecap: square"/>
    </g>
    <g id="text_20">
     <!-- $T=493$ -->
     <g transform="translate(309.310625 58.070437) scale(0.1 -0.1)">
      <defs>
       <path id="DejaVuSans-Oblique-54" d="M 378 4666 
L 4325 4666 
L 4225 4134 
L 2559 4134 
L 1759 0 
L 1125 0 
L 1925 4134 
L 275 4134 
L 378 4666 
z
" transform="scale(0.015625)"/>
       <path id="DejaVuSans-3d" d="M 678 2906 
L 4684 2906 
L 4684 2381 
L 678 2381 
L 678 2906 
z
M 678 1631 
L 4684 1631 
L 4684 1100 
L 678 1100 
L 678 1631 
z
" transform="scale(0.015625)"/>
       <path id="DejaVuSans-39" d="M 703 97 
L 703 672 
Q 941 559 1184 500 
Q 1428 441 1663 441 
Q 2288 441 2617 861 
Q 2947 1281 2994 2138 
Q 2813 1869 2534 1725 
Q 2256 1581 1919 1581 
Q 1219 1581 811 2004 
Q 403 2428 403 3163 
Q 403 3881 828 4315 
Q 1253 4750 1959 4750 
Q 2769 4750 3195 4129 
Q 3622 3509 3622 2328 
Q 3622 1225 3098 567 
Q 2575 -91 1691 -91 
Q 1453 -91 1209 -44 
Q 966 3 703 97 
z
M 1959 2075 
Q 2384 2075 2632 2365 
Q 2881 2656 2881 3163 
Q 2881 3666 2632 3958 
Q 2384 4250 1959 4250 
Q 1534 4250 1286 3958 
Q 1038 3666 1038 3163 
Q 1038 2656 1286 2365 
Q 1534 2075 1959 2075 
z
" transform="scale(0.015625)"/>
       <path id="DejaVuSans-33" d="M 2597 2516 
Q 3050 2419 3304 2112 
Q 3559 1806 3559 1356 
Q 3559 666 3084 287 
Q 2609 -91 1734 -91 
Q 1441 -91 1130 -33 
Q 819 25 488 141 
L 488 750 
Q 750 597 1062 519 
Q 1375 441 1716 441 
Q 2309 441 2620 675 
Q 2931 909 2931 1356 
Q 2931 1769 2642 2001 
Q 2353 2234 1838 2234 
L 1294 2234 
L 1294 2753 
L 1863 2753 
Q 2328 2753 2575 2939 
Q 2822 3125 2822 3475 
Q 2822 3834 2567 4026 
Q 2313 4219 1838 4219 
Q 1578 4219 1281 4162 
Q 984 4106 628 3988 
L 628 4550 
Q 988 4650 1302 4700 
Q 1616 4750 1894 4750 
Q 2613 4750 3031 4423 
Q 3450 4097 3450 3541 
Q 3450 3153 3228 2886 
Q 3006 2619 2597 2516 
z
" transform="scale(0.015625)"/>
      </defs>
      <use xlink:href="#DejaVuSans-Oblique-54" transform="translate(0 0.78125)"/>
      <use xlink:href="#DejaVuSans-3d" transform="translate(80.566406 0.78125)"/>
      <use xlink:href="#DejaVuSans-34" transform="translate(183.837891 0.78125)"/>
      <use xlink:href="#DejaVuSans-39" transform="translate(247.460938 0.78125)"/>
      <use xlink:href="#DejaVuSans-33" transform="translate(311.083984 0.78125)"/>
     </g>
    </g>
    <g id="line2d_20">
     <path d="M 281.310625 69.248562 
L 291.310625 69.248562 
L 301.310625 69.248562 
" style="fill: none; stroke: #ff7f0e; stroke-width: 1.5; stroke-linecap: square"/>
    </g>
    <g id="text_21">
     <!-- Theoretische Kurve -->
     <g transform="translate(309.310625 72.748562) scale(0.1 -0.1)">
      <defs>
       <path id="DejaVuSans-54" d="M -19 4666 
L 3928 4666 
L 3928 4134 
L 2272 4134 
L 2272 0 
L 1638 0 
L 1638 4134 
L -19 4134 
L -19 4666 
z
" transform="scale(0.015625)"/>
       <path id="DejaVuSans-68" d="M 3513 2113 
L 3513 0 
L 2938 0 
L 2938 2094 
Q 2938 2591 2744 2837 
Q 2550 3084 2163 3084 
Q 1697 3084 1428 2787 
Q 1159 2491 1159 1978 
L 1159 0 
L 581 0 
L 581 4863 
L 1159 4863 
L 1159 2956 
Q 1366 3272 1645 3428 
Q 1925 3584 2291 3584 
Q 2894 3584 3203 3211 
Q 3513 2838 3513 2113 
z
" transform="scale(0.015625)"/>
       <path id="DejaVuSans-6f" d="M 1959 3097 
Q 1497 3097 1228 2736 
Q 959 2375 959 1747 
Q 959 1119 1226 758 
Q 1494 397 1959 397 
Q 2419 397 2687 759 
Q 2956 1122 2956 1747 
Q 2956 2369 2687 2733 
Q 2419 3097 1959 3097 
z
M 1959 3584 
Q 2709 3584 3137 3096 
Q 3566 2609 3566 1747 
Q 3566 888 3137 398 
Q 2709 -91 1959 -91 
Q 1206 -91 779 398 
Q 353 888 353 1747 
Q 353 2609 779 3096 
Q 1206 3584 1959 3584 
z
" transform="scale(0.015625)"/>
       <path id="DejaVuSans-72" d="M 2631 2963 
Q 2534 3019 2420 3045 
Q 2306 3072 2169 3072 
Q 1681 3072 1420 2755 
Q 1159 2438 1159 1844 
L 1159 0 
L 581 0 
L 581 3500 
L 1159 3500 
L 1159 2956 
Q 1341 3275 1631 3429 
Q 1922 3584 2338 3584 
Q 2397 3584 2469 3576 
Q 2541 3569 2628 3553 
L 2631 2963 
z
" transform="scale(0.015625)"/>
       <path id="DejaVuSans-74" d="M 1172 4494 
L 1172 3500 
L 2356 3500 
L 2356 3053 
L 1172 3053 
L 1172 1153 
Q 1172 725 1289 603 
Q 1406 481 1766 481 
L 2356 481 
L 2356 0 
L 1766 0 
Q 1100 0 847 248 
Q 594 497 594 1153 
L 594 3053 
L 172 3053 
L 172 3500 
L 594 3500 
L 594 4494 
L 1172 4494 
z
" transform="scale(0.015625)"/>
       <path id="DejaVuSans-73" d="M 2834 3397 
L 2834 2853 
Q 2591 2978 2328 3040 
Q 2066 3103 1784 3103 
Q 1356 3103 1142 2972 
Q 928 2841 928 2578 
Q 928 2378 1081 2264 
Q 1234 2150 1697 2047 
L 1894 2003 
Q 2506 1872 2764 1633 
Q 3022 1394 3022 966 
Q 3022 478 2636 193 
Q 2250 -91 1575 -91 
Q 1294 -91 989 -36 
Q 684 19 347 128 
L 347 722 
Q 666 556 975 473 
Q 1284 391 1588 391 
Q 1994 391 2212 530 
Q 2431 669 2431 922 
Q 2431 1156 2273 1281 
Q 2116 1406 1581 1522 
L 1381 1569 
Q 847 1681 609 1914 
Q 372 2147 372 2553 
Q 372 3047 722 3315 
Q 1072 3584 1716 3584 
Q 2034 3584 2315 3537 
Q 2597 3491 2834 3397 
z
" transform="scale(0.015625)"/>
       <path id="DejaVuSans-63" d="M 3122 3366 
L 3122 2828 
Q 2878 2963 2633 3030 
Q 2388 3097 2138 3097 
Q 1578 3097 1268 2742 
Q 959 2388 959 1747 
Q 959 1106 1268 751 
Q 1578 397 2138 397 
Q 2388 397 2633 464 
Q 2878 531 3122 666 
L 3122 134 
Q 2881 22 2623 -34 
Q 2366 -91 2075 -91 
Q 1284 -91 818 406 
Q 353 903 353 1747 
Q 353 2603 823 3093 
Q 1294 3584 2113 3584 
Q 2378 3584 2631 3529 
Q 2884 3475 3122 3366 
z
" transform="scale(0.015625)"/>
       <path id="DejaVuSans-4b" d="M 628 4666 
L 1259 4666 
L 1259 2694 
L 3353 4666 
L 4166 4666 
L 1850 2491 
L 4331 0 
L 3500 0 
L 1259 2247 
L 1259 0 
L 628 0 
L 628 4666 
z
" transform="scale(0.015625)"/>
       <path id="DejaVuSans-76" d="M 191 3500 
L 800 3500 
L 1894 563 
L 2988 3500 
L 3597 3500 
L 2284 0 
L 1503 0 
L 191 3500 
z
" transform="scale(0.015625)"/>
      </defs>
      <use xlink:href="#DejaVuSans-54"/>
      <use xlink:href="#DejaVuSans-68" x="61.083984"/>
      <use xlink:href="#DejaVuSans-65" x="124.462891"/>
      <use xlink:href="#DejaVuSans-6f" x="185.986328"/>
      <use xlink:href="#DejaVuSans-72" x="247.167969"/>
      <use xlink:href="#DejaVuSans-65" x="286.03125"/>
      <use xlink:href="#DejaVuSans-74" x="347.554688"/>
      <use xlink:href="#DejaVuSans-69" x="386.763672"/>
      <use xlink:href="#DejaVuSans-73" x="414.546875"/>
      <use xlink:href="#DejaVuSans-63" x="466.646484"/>
      <use xlink:href="#DejaVuSans-68" x="521.626953"/>
      <use xlink:href="#DejaVuSans-65" x="585.005859"/>
      <use xlink:href="#DejaVuSans-20" x="646.529297"/>
      <use xlink:href="#DejaVuSans-4b" x="678.316406"/>
      <use xlink:href="#DejaVuSans-75" x="738.892578"/>
      <use xlink:href="#DejaVuSans-72" x="802.271484"/>
      <use xlink:href="#DejaVuSans-76" x="843.384766"/>
      <use xlink:href="#DejaVuSans-65" x="902.564453"/>
     </g>
    </g>
   </g>
  </g>
 </g>
 <defs>
  <clipPath id="pdd970c00cb">
   <rect x="57.6" y="41.472" width="357.12" height="266.112"/>
  </clipPath>
 </defs>
</svg>
