<?xml version="1.0" encoding="utf-8" standalone="no"?>
<!DOCTYPE svg PUBLIC "-//W3C//DTD SVG 1.1//EN"
  "http://www.w3.org/Graphics/SVG/1.1/DTD/svg11.dtd">
<svg xmlns:xlink="http://www.w3.org/1999/xlink" width="427.18875pt" height="310.86825pt" viewBox="0 0 427.18875 310.86825" xmlns="http://www.w3.org/2000/svg" version="1.1">
 <metadata>
  <rdf:RDF xmlns:dc="http://purl.org/dc/elements/1.1/" xmlns:cc="http://creativecommons.org/ns#" xmlns:rdf="http://www.w3.org/1999/02/22-rdf-syntax-ns#">
   <cc:Work>
    <dc:type rdf:resource="http://purl.org/dc/dcmitype/StillImage"/>
    <dc:date>2024-07-12T15:37:47.407035</dc:date>
    <dc:format>image/svg+xml</dc:format>
    <dc:creator>
     <cc:Agent>
      <dc:title>Matplotlib v3.8.2, https://matplotlib.org/</dc:title>
     </cc:Agent>
    </dc:creator>
   </cc:Work>
  </rdf:RDF>
 </metadata>
 <defs>
  <style type="text/css">*{stroke-linejoin: round; stroke-linecap: butt}</style>
 </defs>
 <g id="figure_1">
  <g id="patch_1">
   <path d="M 0 310.86825 
L 427.18875 310.86825 
L 427.18875 0 
L 0 0 
z
" style="fill: #ffffff"/>
  </g>
  <g id="axes_1">
   <g id="patch_2">
    <path d="M 62.86875 273.312 
L 419.98875 273.312 
L 419.98875 7.2 
L 62.86875 7.2 
z
" style="fill: #ffffff"/>
   </g>
   <g id="matplotlib.axis_1">
    <g id="xtick_1">
     <g id="line2d_1">
      <defs>
       <path id="mad5a2c503d" d="M 0 0 
L 0 3.5 
" style="stroke: #000000; stroke-width: 0.8"/>
      </defs>
      <g>
       <use xlink:href="#mad5a2c503d" x="79.099294" y="273.312" style="stroke: #000000; stroke-width: 0.8"/>
      </g>
     </g>
     <g id="text_1">
      <!-- 0.0 -->
      <g transform="translate(71.147731 287.910437) scale(0.1 -0.1)">
       <defs>
        <path id="DejaVuSans-30" d="M 2034 4250 
Q 1547 4250 1301 3770 
Q 1056 3291 1056 2328 
Q 1056 1369 1301 889 
Q 1547 409 2034 409 
Q 2525 409 2770 889 
Q 3016 1369 3016 2328 
Q 3016 3291 2770 3770 
Q 2525 4250 2034 4250 
z
M 2034 4750 
Q 2819 4750 3233 4129 
Q 3647 3509 3647 2328 
Q 3647 1150 3233 529 
Q 2819 -91 2034 -91 
Q 1250 -91 836 529 
Q 422 1150 422 2328 
Q 422 3509 836 4129 
Q 1250 4750 2034 4750 
z
" transform="scale(0.015625)"/>
        <path id="DejaVuSans-2e" d="M 684 794 
L 1344 794 
L 1344 0 
L 684 0 
L 684 794 
z
" transform="scale(0.015625)"/>
       </defs>
       <use xlink:href="#DejaVuSans-30"/>
       <use xlink:href="#DejaVuSans-2e" x="63.623047"/>
       <use xlink:href="#DejaVuSans-30" x="95.410156"/>
      </g>
     </g>
    </g>
    <g id="xtick_2">
     <g id="line2d_2">
      <g>
       <use xlink:href="#mad5a2c503d" x="124.66667" y="273.312" style="stroke: #000000; stroke-width: 0.8"/>
      </g>
     </g>
     <g id="text_2">
      <!-- 0.2 -->
      <g transform="translate(116.715108 287.910437) scale(0.1 -0.1)">
       <defs>
        <path id="DejaVuSans-32" d="M 1228 531 
L 3431 531 
L 3431 0 
L 469 0 
L 469 531 
Q 828 903 1448 1529 
Q 2069 2156 2228 2338 
Q 2531 2678 2651 2914 
Q 2772 3150 2772 3378 
Q 2772 3750 2511 3984 
Q 2250 4219 1831 4219 
Q 1534 4219 1204 4116 
Q 875 4013 500 3803 
L 500 4441 
Q 881 4594 1212 4672 
Q 1544 4750 1819 4750 
Q 2544 4750 2975 4387 
Q 3406 4025 3406 3419 
Q 3406 3131 3298 2873 
Q 3191 2616 2906 2266 
Q 2828 2175 2409 1742 
Q 1991 1309 1228 531 
z
" transform="scale(0.015625)"/>
       </defs>
       <use xlink:href="#DejaVuSans-30"/>
       <use xlink:href="#DejaVuSans-2e" x="63.623047"/>
       <use xlink:href="#DejaVuSans-32" x="95.410156"/>
      </g>
     </g>
    </g>
    <g id="xtick_3">
     <g id="line2d_3">
      <g>
       <use xlink:href="#mad5a2c503d" x="170.234046" y="273.312" style="stroke: #000000; stroke-width: 0.8"/>
      </g>
     </g>
     <g id="text_3">
      <!-- 0.4 -->
      <g transform="translate(162.282484 287.910437) scale(0.1 -0.1)">
       <defs>
        <path id="DejaVuSans-34" d="M 2419 4116 
L 825 1625 
L 2419 1625 
L 2419 4116 
z
M 2253 4666 
L 3047 4666 
L 3047 1625 
L 3713 1625 
L 3713 1100 
L 3047 1100 
L 3047 0 
L 2419 0 
L 2419 1100 
L 313 1100 
L 313 1709 
L 2253 4666 
z
" transform="scale(0.015625)"/>
       </defs>
       <use xlink:href="#DejaVuSans-30"/>
       <use xlink:href="#DejaVuSans-2e" x="63.623047"/>
       <use xlink:href="#DejaVuSans-34" x="95.410156"/>
      </g>
     </g>
    </g>
    <g id="xtick_4">
     <g id="line2d_4">
      <g>
       <use xlink:href="#mad5a2c503d" x="215.801422" y="273.312" style="stroke: #000000; stroke-width: 0.8"/>
      </g>
     </g>
     <g id="text_4">
      <!-- 0.6 -->
      <g transform="translate(207.84986 287.910437) scale(0.1 -0.1)">
       <defs>
        <path id="DejaVuSans-36" d="M 2113 2584 
Q 1688 2584 1439 2293 
Q 1191 2003 1191 1497 
Q 1191 994 1439 701 
Q 1688 409 2113 409 
Q 2538 409 2786 701 
Q 3034 994 3034 1497 
Q 3034 2003 2786 2293 
Q 2538 2584 2113 2584 
z
M 3366 4563 
L 3366 3988 
Q 3128 4100 2886 4159 
Q 2644 4219 2406 4219 
Q 1781 4219 1451 3797 
Q 1122 3375 1075 2522 
Q 1259 2794 1537 2939 
Q 1816 3084 2150 3084 
Q 2853 3084 3261 2657 
Q 3669 2231 3669 1497 
Q 3669 778 3244 343 
Q 2819 -91 2113 -91 
Q 1303 -91 875 529 
Q 447 1150 447 2328 
Q 447 3434 972 4092 
Q 1497 4750 2381 4750 
Q 2619 4750 2861 4703 
Q 3103 4656 3366 4563 
z
" transform="scale(0.015625)"/>
       </defs>
       <use xlink:href="#DejaVuSans-30"/>
       <use xlink:href="#DejaVuSans-2e" x="63.623047"/>
       <use xlink:href="#DejaVuSans-36" x="95.410156"/>
      </g>
     </g>
    </g>
    <g id="xtick_5">
     <g id="line2d_5">
      <g>
       <use xlink:href="#mad5a2c503d" x="261.368799" y="273.312" style="stroke: #000000; stroke-width: 0.8"/>
      </g>
     </g>
     <g id="text_5">
      <!-- 0.8 -->
      <g transform="translate(253.417236 287.910437) scale(0.1 -0.1)">
       <defs>
        <path id="DejaVuSans-38" d="M 2034 2216 
Q 1584 2216 1326 1975 
Q 1069 1734 1069 1313 
Q 1069 891 1326 650 
Q 1584 409 2034 409 
Q 2484 409 2743 651 
Q 3003 894 3003 1313 
Q 3003 1734 2745 1975 
Q 2488 2216 2034 2216 
z
M 1403 2484 
Q 997 2584 770 2862 
Q 544 3141 544 3541 
Q 544 4100 942 4425 
Q 1341 4750 2034 4750 
Q 2731 4750 3128 4425 
Q 3525 4100 3525 3541 
Q 3525 3141 3298 2862 
Q 3072 2584 2669 2484 
Q 3125 2378 3379 2068 
Q 3634 1759 3634 1313 
Q 3634 634 3220 271 
Q 2806 -91 2034 -91 
Q 1263 -91 848 271 
Q 434 634 434 1313 
Q 434 1759 690 2068 
Q 947 2378 1403 2484 
z
M 1172 3481 
Q 1172 3119 1398 2916 
Q 1625 2713 2034 2713 
Q 2441 2713 2670 2916 
Q 2900 3119 2900 3481 
Q 2900 3844 2670 4047 
Q 2441 4250 2034 4250 
Q 1625 4250 1398 4047 
Q 1172 3844 1172 3481 
z
" transform="scale(0.015625)"/>
       </defs>
       <use xlink:href="#DejaVuSans-30"/>
       <use xlink:href="#DejaVuSans-2e" x="63.623047"/>
       <use xlink:href="#DejaVuSans-38" x="95.410156"/>
      </g>
     </g>
    </g>
    <g id="xtick_6">
     <g id="line2d_6">
      <g>
       <use xlink:href="#mad5a2c503d" x="306.936175" y="273.312" style="stroke: #000000; stroke-width: 0.8"/>
      </g>
     </g>
     <g id="text_6">
      <!-- 1.0 -->
      <g transform="translate(298.984612 287.910437) scale(0.1 -0.1)">
       <defs>
        <path id="DejaVuSans-31" d="M 794 531 
L 1825 531 
L 1825 4091 
L 703 3866 
L 703 4441 
L 1819 4666 
L 2450 4666 
L 2450 531 
L 3481 531 
L 3481 0 
L 794 0 
L 794 531 
z
" transform="scale(0.015625)"/>
       </defs>
       <use xlink:href="#DejaVuSans-31"/>
       <use xlink:href="#DejaVuSans-2e" x="63.623047"/>
       <use xlink:href="#DejaVuSans-30" x="95.410156"/>
      </g>
     </g>
    </g>
    <g id="xtick_7">
     <g id="line2d_7">
      <g>
       <use xlink:href="#mad5a2c503d" x="352.503551" y="273.312" style="stroke: #000000; stroke-width: 0.8"/>
      </g>
     </g>
     <g id="text_7">
      <!-- 1.2 -->
      <g transform="translate(344.551989 287.910437) scale(0.1 -0.1)">
       <use xlink:href="#DejaVuSans-31"/>
       <use xlink:href="#DejaVuSans-2e" x="63.623047"/>
       <use xlink:href="#DejaVuSans-32" x="95.410156"/>
      </g>
     </g>
    </g>
    <g id="xtick_8">
     <g id="line2d_8">
      <g>
       <use xlink:href="#mad5a2c503d" x="398.070927" y="273.312" style="stroke: #000000; stroke-width: 0.8"/>
      </g>
     </g>
     <g id="text_8">
      <!-- 1.4 -->
      <g transform="translate(390.119365 287.910437) scale(0.1 -0.1)">
       <use xlink:href="#DejaVuSans-31"/>
       <use xlink:href="#DejaVuSans-2e" x="63.623047"/>
       <use xlink:href="#DejaVuSans-34" x="95.410156"/>
      </g>
     </g>
    </g>
    <g id="text_9">
     <!-- Wellenlänge in m -->
     <g transform="translate(198.199844 301.588562) scale(0.1 -0.1)">
      <defs>
       <path id="DejaVuSans-57" d="M 213 4666 
L 850 4666 
L 1831 722 
L 2809 4666 
L 3519 4666 
L 4500 722 
L 5478 4666 
L 6119 4666 
L 4947 0 
L 4153 0 
L 3169 4050 
L 2175 0 
L 1381 0 
L 213 4666 
z
" transform="scale(0.015625)"/>
       <path id="DejaVuSans-65" d="M 3597 1894 
L 3597 1613 
L 953 1613 
Q 991 1019 1311 708 
Q 1631 397 2203 397 
Q 2534 397 2845 478 
Q 3156 559 3463 722 
L 3463 178 
Q 3153 47 2828 -22 
Q 2503 -91 2169 -91 
Q 1331 -91 842 396 
Q 353 884 353 1716 
Q 353 2575 817 3079 
Q 1281 3584 2069 3584 
Q 2775 3584 3186 3129 
Q 3597 2675 3597 1894 
z
M 3022 2063 
Q 3016 2534 2758 2815 
Q 2500 3097 2075 3097 
Q 1594 3097 1305 2825 
Q 1016 2553 972 2059 
L 3022 2063 
z
" transform="scale(0.015625)"/>
       <path id="DejaVuSans-6c" d="M 603 4863 
L 1178 4863 
L 1178 0 
L 603 0 
L 603 4863 
z
" transform="scale(0.015625)"/>
       <path id="DejaVuSans-6e" d="M 3513 2113 
L 3513 0 
L 2938 0 
L 2938 2094 
Q 2938 2591 2744 2837 
Q 2550 3084 2163 3084 
Q 1697 3084 1428 2787 
Q 1159 2491 1159 1978 
L 1159 0 
L 581 0 
L 581 3500 
L 1159 3500 
L 1159 2956 
Q 1366 3272 1645 3428 
Q 1925 3584 2291 3584 
Q 2894 3584 3203 3211 
Q 3513 2838 3513 2113 
z
" transform="scale(0.015625)"/>
       <path id="DejaVuSans-e4" d="M 2194 1759 
Q 1497 1759 1228 1600 
Q 959 1441 959 1056 
Q 959 750 1161 570 
Q 1363 391 1709 391 
Q 2188 391 2477 730 
Q 2766 1069 2766 1631 
L 2766 1759 
L 2194 1759 
z
M 3341 1997 
L 3341 0 
L 2766 0 
L 2766 531 
Q 2569 213 2275 61 
Q 1981 -91 1556 -91 
Q 1019 -91 701 211 
Q 384 513 384 1019 
Q 384 1609 779 1909 
Q 1175 2209 1959 2209 
L 2766 2209 
L 2766 2266 
Q 2766 2663 2505 2880 
Q 2244 3097 1772 3097 
Q 1472 3097 1187 3025 
Q 903 2953 641 2809 
L 641 3341 
Q 956 3463 1253 3523 
Q 1550 3584 1831 3584 
Q 2591 3584 2966 3190 
Q 3341 2797 3341 1997 
z
M 2150 4850 
L 2784 4850 
L 2784 4219 
L 2150 4219 
L 2150 4850 
z
M 928 4850 
L 1562 4850 
L 1562 4219 
L 928 4219 
L 928 4850 
z
" transform="scale(0.015625)"/>
       <path id="DejaVuSans-67" d="M 2906 1791 
Q 2906 2416 2648 2759 
Q 2391 3103 1925 3103 
Q 1463 3103 1205 2759 
Q 947 2416 947 1791 
Q 947 1169 1205 825 
Q 1463 481 1925 481 
Q 2391 481 2648 825 
Q 2906 1169 2906 1791 
z
M 3481 434 
Q 3481 -459 3084 -895 
Q 2688 -1331 1869 -1331 
Q 1566 -1331 1297 -1286 
Q 1028 -1241 775 -1147 
L 775 -588 
Q 1028 -725 1275 -790 
Q 1522 -856 1778 -856 
Q 2344 -856 2625 -561 
Q 2906 -266 2906 331 
L 2906 616 
Q 2728 306 2450 153 
Q 2172 0 1784 0 
Q 1141 0 747 490 
Q 353 981 353 1791 
Q 353 2603 747 3093 
Q 1141 3584 1784 3584 
Q 2172 3584 2450 3431 
Q 2728 3278 2906 2969 
L 2906 3500 
L 3481 3500 
L 3481 434 
z
" transform="scale(0.015625)"/>
       <path id="DejaVuSans-20" transform="scale(0.015625)"/>
       <path id="DejaVuSans-69" d="M 603 3500 
L 1178 3500 
L 1178 0 
L 603 0 
L 603 3500 
z
M 603 4863 
L 1178 4863 
L 1178 4134 
L 603 4134 
L 603 4863 
z
" transform="scale(0.015625)"/>
       <path id="DejaVuSans-6d" d="M 3328 2828 
Q 3544 3216 3844 3400 
Q 4144 3584 4550 3584 
Q 5097 3584 5394 3201 
Q 5691 2819 5691 2113 
L 5691 0 
L 5113 0 
L 5113 2094 
Q 5113 2597 4934 2840 
Q 4756 3084 4391 3084 
Q 3944 3084 3684 2787 
Q 3425 2491 3425 1978 
L 3425 0 
L 2847 0 
L 2847 2094 
Q 2847 2600 2669 2842 
Q 2491 3084 2119 3084 
Q 1678 3084 1418 2786 
Q 1159 2488 1159 1978 
L 1159 0 
L 581 0 
L 581 3500 
L 1159 3500 
L 1159 2956 
Q 1356 3278 1631 3431 
Q 1906 3584 2284 3584 
Q 2666 3584 2933 3390 
Q 3200 3197 3328 2828 
z
" transform="scale(0.015625)"/>
      </defs>
      <use xlink:href="#DejaVuSans-57"/>
      <use xlink:href="#DejaVuSans-65" x="93.001953"/>
      <use xlink:href="#DejaVuSans-6c" x="154.525391"/>
      <use xlink:href="#DejaVuSans-6c" x="182.308594"/>
      <use xlink:href="#DejaVuSans-65" x="210.091797"/>
      <use xlink:href="#DejaVuSans-6e" x="271.615234"/>
      <use xlink:href="#DejaVuSans-6c" x="334.994141"/>
      <use xlink:href="#DejaVuSans-e4" x="362.777344"/>
      <use xlink:href="#DejaVuSans-6e" x="424.056641"/>
      <use xlink:href="#DejaVuSans-67" x="487.435547"/>
      <use xlink:href="#DejaVuSans-65" x="550.912109"/>
      <use xlink:href="#DejaVuSans-20" x="612.435547"/>
      <use xlink:href="#DejaVuSans-69" x="644.222656"/>
      <use xlink:href="#DejaVuSans-6e" x="672.005859"/>
      <use xlink:href="#DejaVuSans-20" x="735.384766"/>
      <use xlink:href="#DejaVuSans-6d" x="767.171875"/>
     </g>
    </g>
    <g id="text_10">
     <!-- 1e−5 -->
     <g transform="translate(392.730937 300.588562) scale(0.1 -0.1)">
      <defs>
       <path id="DejaVuSans-2212" d="M 678 2272 
L 4684 2272 
L 4684 1741 
L 678 1741 
L 678 2272 
z
" transform="scale(0.015625)"/>
       <path id="DejaVuSans-35" d="M 691 4666 
L 3169 4666 
L 3169 4134 
L 1269 4134 
L 1269 2991 
Q 1406 3038 1543 3061 
Q 1681 3084 1819 3084 
Q 2600 3084 3056 2656 
Q 3513 2228 3513 1497 
Q 3513 744 3044 326 
Q 2575 -91 1722 -91 
Q 1428 -91 1123 -41 
Q 819 9 494 109 
L 494 744 
Q 775 591 1075 516 
Q 1375 441 1709 441 
Q 2250 441 2565 725 
Q 2881 1009 2881 1497 
Q 2881 1984 2565 2268 
Q 2250 2553 1709 2553 
Q 1456 2553 1204 2497 
Q 953 2441 691 2322 
L 691 4666 
z
" transform="scale(0.015625)"/>
      </defs>
      <use xlink:href="#DejaVuSans-31"/>
      <use xlink:href="#DejaVuSans-65" x="63.623047"/>
      <use xlink:href="#DejaVuSans-2212" x="125.146484"/>
      <use xlink:href="#DejaVuSans-35" x="208.935547"/>
     </g>
    </g>
   </g>
   <g id="matplotlib.axis_2">
    <g id="ytick_1">
     <g id="line2d_9">
      <defs>
       <path id="m6176705c92" d="M 0 0 
L -3.5 0 
" style="stroke: #000000; stroke-width: 0.8"/>
      </defs>
      <g>
       <use xlink:href="#m6176705c92" x="62.86875" y="261.216" style="stroke: #000000; stroke-width: 0.8"/>
      </g>
     </g>
     <g id="text_11">
      <!-- 0.0000 -->
      <g transform="translate(20.878125 265.015219) scale(0.1 -0.1)">
       <use xlink:href="#DejaVuSans-30"/>
       <use xlink:href="#DejaVuSans-2e" x="63.623047"/>
       <use xlink:href="#DejaVuSans-30" x="95.410156"/>
       <use xlink:href="#DejaVuSans-30" x="159.033203"/>
       <use xlink:href="#DejaVuSans-30" x="222.65625"/>
       <use xlink:href="#DejaVuSans-30" x="286.279297"/>
      </g>
     </g>
    </g>
    <g id="ytick_2">
     <g id="line2d_10">
      <g>
       <use xlink:href="#m6176705c92" x="62.86875" y="223.11901" style="stroke: #000000; stroke-width: 0.8"/>
      </g>
     </g>
     <g id="text_12">
      <!-- 0.0001 -->
      <g transform="translate(20.878125 226.918229) scale(0.1 -0.1)">
       <use xlink:href="#DejaVuSans-30"/>
       <use xlink:href="#DejaVuSans-2e" x="63.623047"/>
       <use xlink:href="#DejaVuSans-30" x="95.410156"/>
       <use xlink:href="#DejaVuSans-30" x="159.033203"/>
       <use xlink:href="#DejaVuSans-30" x="222.65625"/>
       <use xlink:href="#DejaVuSans-31" x="286.279297"/>
      </g>
     </g>
    </g>
    <g id="ytick_3">
     <g id="line2d_11">
      <g>
       <use xlink:href="#m6176705c92" x="62.86875" y="185.022021" style="stroke: #000000; stroke-width: 0.8"/>
      </g>
     </g>
     <g id="text_13">
      <!-- 0.0002 -->
      <g transform="translate(20.878125 188.821239) scale(0.1 -0.1)">
       <use xlink:href="#DejaVuSans-30"/>
       <use xlink:href="#DejaVuSans-2e" x="63.623047"/>
       <use xlink:href="#DejaVuSans-30" x="95.410156"/>
       <use xlink:href="#DejaVuSans-30" x="159.033203"/>
       <use xlink:href="#DejaVuSans-30" x="222.65625"/>
       <use xlink:href="#DejaVuSans-32" x="286.279297"/>
      </g>
     </g>
    </g>
    <g id="ytick_4">
     <g id="line2d_12">
      <g>
       <use xlink:href="#m6176705c92" x="62.86875" y="146.925031" style="stroke: #000000; stroke-width: 0.8"/>
      </g>
     </g>
     <g id="text_14">
      <!-- 0.0003 -->
      <g transform="translate(20.878125 150.72425) scale(0.1 -0.1)">
       <defs>
        <path id="DejaVuSans-33" d="M 2597 2516 
Q 3050 2419 3304 2112 
Q 3559 1806 3559 1356 
Q 3559 666 3084 287 
Q 2609 -91 1734 -91 
Q 1441 -91 1130 -33 
Q 819 25 488 141 
L 488 750 
Q 750 597 1062 519 
Q 1375 441 1716 441 
Q 2309 441 2620 675 
Q 2931 909 2931 1356 
Q 2931 1769 2642 2001 
Q 2353 2234 1838 2234 
L 1294 2234 
L 1294 2753 
L 1863 2753 
Q 2328 2753 2575 2939 
Q 2822 3125 2822 3475 
Q 2822 3834 2567 4026 
Q 2313 4219 1838 4219 
Q 1578 4219 1281 4162 
Q 984 4106 628 3988 
L 628 4550 
Q 988 4650 1302 4700 
Q 1616 4750 1894 4750 
Q 2613 4750 3031 4423 
Q 3450 4097 3450 3541 
Q 3450 3153 3228 2886 
Q 3006 2619 2597 2516 
z
" transform="scale(0.015625)"/>
       </defs>
       <use xlink:href="#DejaVuSans-30"/>
       <use xlink:href="#DejaVuSans-2e" x="63.623047"/>
       <use xlink:href="#DejaVuSans-30" x="95.410156"/>
       <use xlink:href="#DejaVuSans-30" x="159.033203"/>
       <use xlink:href="#DejaVuSans-30" x="222.65625"/>
       <use xlink:href="#DejaVuSans-33" x="286.279297"/>
      </g>
     </g>
    </g>
    <g id="ytick_5">
     <g id="line2d_13">
      <g>
       <use xlink:href="#m6176705c92" x="62.86875" y="108.828041" style="stroke: #000000; stroke-width: 0.8"/>
      </g>
     </g>
     <g id="text_15">
      <!-- 0.0004 -->
      <g transform="translate(20.878125 112.62726) scale(0.1 -0.1)">
       <use xlink:href="#DejaVuSans-30"/>
       <use xlink:href="#DejaVuSans-2e" x="63.623047"/>
       <use xlink:href="#DejaVuSans-30" x="95.410156"/>
       <use xlink:href="#DejaVuSans-30" x="159.033203"/>
       <use xlink:href="#DejaVuSans-30" x="222.65625"/>
       <use xlink:href="#DejaVuSans-34" x="286.279297"/>
      </g>
     </g>
    </g>
    <g id="ytick_6">
     <g id="line2d_14">
      <g>
       <use xlink:href="#m6176705c92" x="62.86875" y="70.731052" style="stroke: #000000; stroke-width: 0.8"/>
      </g>
     </g>
     <g id="text_16">
      <!-- 0.0005 -->
      <g transform="translate(20.878125 74.530271) scale(0.1 -0.1)">
       <use xlink:href="#DejaVuSans-30"/>
       <use xlink:href="#DejaVuSans-2e" x="63.623047"/>
       <use xlink:href="#DejaVuSans-30" x="95.410156"/>
       <use xlink:href="#DejaVuSans-30" x="159.033203"/>
       <use xlink:href="#DejaVuSans-30" x="222.65625"/>
       <use xlink:href="#DejaVuSans-35" x="286.279297"/>
      </g>
     </g>
    </g>
    <g id="ytick_7">
     <g id="line2d_15">
      <g>
       <use xlink:href="#m6176705c92" x="62.86875" y="32.634062" style="stroke: #000000; stroke-width: 0.8"/>
      </g>
     </g>
     <g id="text_17">
      <!-- 0.0006 -->
      <g transform="translate(20.878125 36.433281) scale(0.1 -0.1)">
       <use xlink:href="#DejaVuSans-30"/>
       <use xlink:href="#DejaVuSans-2e" x="63.623047"/>
       <use xlink:href="#DejaVuSans-30" x="95.410156"/>
       <use xlink:href="#DejaVuSans-30" x="159.033203"/>
       <use xlink:href="#DejaVuSans-30" x="222.65625"/>
       <use xlink:href="#DejaVuSans-36" x="286.279297"/>
      </g>
     </g>
    </g>
    <g id="text_18">
     <!-- Spannung in V -->
     <g transform="translate(14.798438 176.673969) rotate(-90) scale(0.1 -0.1)">
      <defs>
       <path id="DejaVuSans-53" d="M 3425 4513 
L 3425 3897 
Q 3066 4069 2747 4153 
Q 2428 4238 2131 4238 
Q 1616 4238 1336 4038 
Q 1056 3838 1056 3469 
Q 1056 3159 1242 3001 
Q 1428 2844 1947 2747 
L 2328 2669 
Q 3034 2534 3370 2195 
Q 3706 1856 3706 1288 
Q 3706 609 3251 259 
Q 2797 -91 1919 -91 
Q 1588 -91 1214 -16 
Q 841 59 441 206 
L 441 856 
Q 825 641 1194 531 
Q 1563 422 1919 422 
Q 2459 422 2753 634 
Q 3047 847 3047 1241 
Q 3047 1584 2836 1778 
Q 2625 1972 2144 2069 
L 1759 2144 
Q 1053 2284 737 2584 
Q 422 2884 422 3419 
Q 422 4038 858 4394 
Q 1294 4750 2059 4750 
Q 2388 4750 2728 4690 
Q 3069 4631 3425 4513 
z
" transform="scale(0.015625)"/>
       <path id="DejaVuSans-70" d="M 1159 525 
L 1159 -1331 
L 581 -1331 
L 581 3500 
L 1159 3500 
L 1159 2969 
Q 1341 3281 1617 3432 
Q 1894 3584 2278 3584 
Q 2916 3584 3314 3078 
Q 3713 2572 3713 1747 
Q 3713 922 3314 415 
Q 2916 -91 2278 -91 
Q 1894 -91 1617 61 
Q 1341 213 1159 525 
z
M 3116 1747 
Q 3116 2381 2855 2742 
Q 2594 3103 2138 3103 
Q 1681 3103 1420 2742 
Q 1159 2381 1159 1747 
Q 1159 1113 1420 752 
Q 1681 391 2138 391 
Q 2594 391 2855 752 
Q 3116 1113 3116 1747 
z
" transform="scale(0.015625)"/>
       <path id="DejaVuSans-61" d="M 2194 1759 
Q 1497 1759 1228 1600 
Q 959 1441 959 1056 
Q 959 750 1161 570 
Q 1363 391 1709 391 
Q 2188 391 2477 730 
Q 2766 1069 2766 1631 
L 2766 1759 
L 2194 1759 
z
M 3341 1997 
L 3341 0 
L 2766 0 
L 2766 531 
Q 2569 213 2275 61 
Q 1981 -91 1556 -91 
Q 1019 -91 701 211 
Q 384 513 384 1019 
Q 384 1609 779 1909 
Q 1175 2209 1959 2209 
L 2766 2209 
L 2766 2266 
Q 2766 2663 2505 2880 
Q 2244 3097 1772 3097 
Q 1472 3097 1187 3025 
Q 903 2953 641 2809 
L 641 3341 
Q 956 3463 1253 3523 
Q 1550 3584 1831 3584 
Q 2591 3584 2966 3190 
Q 3341 2797 3341 1997 
z
" transform="scale(0.015625)"/>
       <path id="DejaVuSans-75" d="M 544 1381 
L 544 3500 
L 1119 3500 
L 1119 1403 
Q 1119 906 1312 657 
Q 1506 409 1894 409 
Q 2359 409 2629 706 
Q 2900 1003 2900 1516 
L 2900 3500 
L 3475 3500 
L 3475 0 
L 2900 0 
L 2900 538 
Q 2691 219 2414 64 
Q 2138 -91 1772 -91 
Q 1169 -91 856 284 
Q 544 659 544 1381 
z
M 1991 3584 
L 1991 3584 
z
" transform="scale(0.015625)"/>
       <path id="DejaVuSans-56" d="M 1831 0 
L 50 4666 
L 709 4666 
L 2188 738 
L 3669 4666 
L 4325 4666 
L 2547 0 
L 1831 0 
z
" transform="scale(0.015625)"/>
      </defs>
      <use xlink:href="#DejaVuSans-53"/>
      <use xlink:href="#DejaVuSans-70" x="63.476562"/>
      <use xlink:href="#DejaVuSans-61" x="126.953125"/>
      <use xlink:href="#DejaVuSans-6e" x="188.232422"/>
      <use xlink:href="#DejaVuSans-6e" x="251.611328"/>
      <use xlink:href="#DejaVuSans-75" x="314.990234"/>
      <use xlink:href="#DejaVuSans-6e" x="378.369141"/>
      <use xlink:href="#DejaVuSans-67" x="441.748047"/>
      <use xlink:href="#DejaVuSans-20" x="505.224609"/>
      <use xlink:href="#DejaVuSans-69" x="537.011719"/>
      <use xlink:href="#DejaVuSans-6e" x="564.794922"/>
      <use xlink:href="#DejaVuSans-20" x="628.173828"/>
      <use xlink:href="#DejaVuSans-56" x="659.960938"/>
     </g>
    </g>
   </g>
   <g id="line2d_16">
    <path d="M 79.101477 258.155187 
L 80.014711 258.155187 
L 80.319122 257.997246 
L 81.232356 257.997246 
L 81.384561 257.832777 
L 82.297795 257.832777 
L 82.602206 257.966252 
L 83.51544 257.966252 
L 83.667645 258.201359 
L 88.081608 258.144997 
L 88.233813 258.378087 
L 89.299252 258.378087 
L 89.451458 258.118567 
L 90.516897 258.118567 
L 90.821308 257.992788 
L 92.799981 258.094685 
L 92.952187 258.286538 
L 93.865421 258.286538 
L 94.169832 258.140327 
L 98.583794 258.19101 
L 98.736 258.394805 
L 102.084523 258.33908 
L 102.388934 258.184907 
L 103.302168 258.184907 
L 103.606579 258.327138 
L 104.367607 258.327138 
L 104.672018 258.179069 
L 109.085981 258.169834 
L 109.238186 258.443365 
L 110.15142 258.443365 
L 110.303625 258.17668 
L 111.369065 258.17668 
L 111.52127 258.374903 
L 112.586709 258.374903 
L 112.891121 258.232246 
L 114.869793 258.154125 
L 115.32641 258.099143 
L 118.370522 258.114587 
L 118.522728 258.32475 
L 121.871251 258.227629 
L 122.023457 258.526953 
L 122.93669 258.526953 
L 123.241101 258.367738 
L 124.154335 258.367738 
L 124.458746 258.233998 
L 128.720503 258.329686 
L 129.17712 258.386578 
L 129.938148 258.386578 
L 130.242559 258.242755 
L 132.221232 258.278578 
L 132.373437 258.476004 
L 134.656521 258.370126 
L 134.808727 258.082585 
L 135.721961 258.082585 
L 135.874166 258.535709 
L 138.15725 258.431424 
L 138.309456 258.234794 
L 139.222689 258.234794 
L 139.374895 258.527749 
L 140.440334 258.527749 
L 140.59254 258.26876 
L 142.723418 258.188622 
L 142.875624 257.985783 
L 143.941063 257.985783 
L 144.093269 258.187826 
L 145.006502 258.187826 
L 145.158708 258.019854 
L 147.441792 258.031795 
L 147.593997 258.216325 
L 148.507231 258.216325 
L 148.659437 257.828266 
L 152.00796 257.851087 
L 152.312371 257.695853 
L 153.225605 257.695853 
L 153.530016 257.542211 
L 154.291044 257.542211 
L 154.595455 257.407674 
L 155.508689 257.407674 
L 155.660894 257.176972 
L 157.791773 257.18159 
L 157.943978 256.968243 
L 159.009417 256.968243 
L 159.161623 256.623541 
L 160.227062 256.623541 
L 160.379268 256.449998 
L 161.292501 256.449998 
L 161.444707 256.270085 
L 162.510146 256.270085 
L 162.662352 255.659341 
L 163.575585 255.659341 
L 163.727791 254.917825 
L 164.79323 254.917825 
L 164.945436 254.427654 
L 166.010875 254.427654 
L 166.163081 253.325412 
L 167.076314 253.325412 
L 167.22852 252.437791 
L 168.293959 252.437791 
L 168.446165 251.563705 
L 169.511604 251.563705 
L 169.663809 250.323423 
L 170.577043 250.323423 
L 170.729249 249.001941 
L 171.794688 249.001941 
L 171.946893 247.699565 
L 172.860127 247.699565 
L 173.012333 246.351019 
L 174.077772 246.351019 
L 174.229977 244.809825 
L 175.295417 244.809825 
L 175.447622 243.475603 
L 176.360856 243.475603 
L 176.513061 241.514085 
L 177.578501 241.514085 
L 177.730706 239.830864 
L 178.796145 239.830864 
L 178.948351 237.95935 
L 179.861585 237.95935 
L 180.01379 236.531463 
L 181.079229 236.531463 
L 181.231435 234.504661 
L 182.296874 234.504661 
L 182.44908 232.384084 
L 183.362313 232.384084 
L 183.514519 230.03153 
L 184.579958 230.03153 
L 184.732164 228.070008 
L 185.645397 228.070008 
L 185.797603 226.223915 
L 186.863042 226.223915 
L 187.015248 223.667725 
L 188.080687 223.667725 
L 188.232893 222.014541 
L 189.146126 222.014541 
L 189.298332 220.282042 
L 190.363771 220.282042 
L 190.515977 217.850349 
L 191.581416 217.850349 
L 191.733621 215.232553 
L 192.646855 215.232553 
L 192.799061 213.193792 
L 193.8645 213.193792 
L 194.016706 211.018911 
L 194.929939 211.018911 
L 195.082145 209.175207 
L 196.147584 209.175207 
L 196.29979 207.184259 
L 197.365229 207.184259 
L 197.517434 205.883475 
L 198.430668 205.883475 
L 198.582874 203.912908 
L 199.648313 203.912908 
L 199.800518 202.630068 
L 200.865958 202.630068 
L 201.018163 201.400755 
L 201.931397 201.400755 
L 202.083602 200.253616 
L 203.149042 200.253616 
L 203.301247 199.320621 
L 204.366686 199.320621 
L 204.518892 198.32808 
L 205.432126 198.32808 
L 205.584331 198.023038 
L 206.64977 198.023038 
L 206.801976 197.507166 
L 210.150499 197.522291 
L 210.302705 197.742834 
L 212.433583 197.777845 
L 212.585789 198.317908 
L 213.651228 198.317908 
L 213.803434 198.991082 
L 214.716667 198.991082 
L 214.868873 199.776794 
L 215.934312 199.776794 
L 216.086518 200.77425 
L 217.151957 200.77425 
L 217.304162 201.416679 
L 218.217396 201.416679 
L 218.369602 202.304834 
L 219.435041 202.304834 
L 219.587246 203.402599 
L 220.50048 203.402599 
L 220.652686 204.526156 
L 221.718125 204.526156 
L 221.87033 205.881075 
L 222.93577 205.881075 
L 223.087975 207.227232 
L 224.001209 207.227232 
L 224.153414 208.47548 
L 225.218854 208.47548 
L 225.371059 210.29404 
L 226.436498 210.29404 
L 226.588704 211.67197 
L 227.501938 211.67197 
L 227.654143 212.849091 
L 228.719582 212.849091 
L 228.871788 214.153074 
L 229.785022 214.153074 
L 229.937227 215.817646 
L 231.002666 215.817646 
L 231.154872 217.630301 
L 232.220311 217.630301 
L 232.372517 218.971201 
L 233.28575 218.971201 
L 233.437956 220.227106 
L 234.503395 220.227106 
L 234.655601 222.043418 
L 235.72104 222.043418 
L 235.873246 223.842331 
L 236.786479 223.842331 
L 236.938685 225.259074 
L 238.004124 225.259074 
L 238.15633 226.602051 
L 239.221769 226.602051 
L 239.373974 228.30755 
L 240.287208 228.30755 
L 240.439414 229.682051 
L 241.504853 229.682051 
L 241.657058 231.08394 
L 242.570292 231.08394 
L 242.722498 232.291581 
L 243.787937 232.291581 
L 243.940142 233.409266 
L 245.005582 233.409266 
L 245.157787 234.407381 
L 246.071021 234.407381 
L 246.223226 235.44323 
L 247.288666 235.44323 
L 247.440871 236.205871 
L 248.50631 236.205871 
L 248.658516 237.06324 
L 249.57175 237.06324 
L 249.723955 237.869662 
L 250.789394 237.869662 
L 250.9416 238.821767 
L 252.007039 238.821767 
L 252.159245 239.374878 
L 253.072478 239.374878 
L 253.224684 240.013219 
L 254.290123 240.013219 
L 254.442329 240.442889 
L 255.355562 240.442889 
L 255.507768 241.177608 
L 256.573207 241.177608 
L 256.725413 241.518862 
L 257.790852 241.518862 
L 257.943058 241.995707 
L 258.856291 241.995707 
L 259.008497 242.819646 
L 260.073936 242.819646 
L 260.226142 243.104318 
L 261.291581 243.104318 
L 261.443786 243.994644 
L 262.35702 243.994644 
L 262.509226 244.209584 
L 263.574665 244.209584 
L 263.72687 244.718278 
L 264.640104 244.718278 
L 264.79231 244.898983 
L 265.857749 244.898983 
L 266.009954 245.296224 
L 267.075394 245.296224 
L 267.227599 245.941519 
L 268.140833 245.941519 
L 268.293038 246.278841 
L 269.358478 246.278841 
L 269.510683 246.973867 
L 270.576122 246.973867 
L 270.728328 247.178139 
L 271.641562 247.178139 
L 271.793767 247.639863 
L 272.859206 247.639863 
L 273.011412 247.850822 
L 274.076851 247.850822 
L 274.229057 248.225772 
L 275.14229 248.225772 
L 275.294496 248.608681 
L 276.359935 248.608681 
L 276.512141 249.013088 
L 278.643019 249.076771 
L 278.795225 249.60696 
L 279.860664 249.60696 
L 280.01287 249.897045 
L 280.926103 249.897045 
L 281.078309 250.188091 
L 283.361393 250.251778 
L 283.513598 250.504132 
L 284.426832 250.504132 
L 284.579038 251.128519 
L 286.862122 251.128252 
L 287.014327 251.468813 
L 287.927561 251.468813 
L 288.079766 251.815263 
L 289.145206 251.815263 
L 289.449617 251.938175 
L 290.210645 251.938175 
L 290.36285 252.291315 
L 291.42829 252.291315 
L 291.580495 252.476802 
L 292.645935 252.476802 
L 292.79814 252.657507 
L 293.711374 252.657507 
L 293.863579 253.059259 
L 296.146663 253.066688 
L 296.298869 253.238643 
L 297.212103 253.238643 
L 297.364308 253.654193 
L 298.429747 253.654193 
L 298.734159 253.79828 
L 299.495187 253.79828 
L 299.647392 253.597669 
L 300.712831 253.597669 
L 301.017243 253.75768 
L 302.995915 253.813724 
L 303.300327 253.945555 
L 304.21356 253.945555 
L 304.365766 254.35378 
L 307.714289 254.265578 
L 307.866495 254.708988 
L 308.931934 254.708988 
L 309.084139 254.90912 
L 312.280457 254.877754 
L 312.432663 255.130109 
L 314.715747 255.104637 
L 315.020158 255.260027 
L 318.216475 255.231371 
L 318.368681 255.72398 
L 321.564999 255.755825 
L 321.717204 256.225508 
L 322.782643 256.225508 
L 322.934849 255.822163 
L 325.065727 255.859948 
L 325.217933 256.168191 
L 329.784101 256.272474 
L 330.088512 256.34269 
L 334.350269 256.335364 
L 334.502475 256.692005 
L 335.567914 256.692005 
L 335.872325 256.5511 
L 336.785559 256.5511 
L 336.937764 256.805047 
L 337.850998 256.805047 
L 338.155409 256.952585 
L 342.569371 256.888902 
L 342.721577 257.080488 
L 344.852455 257.070617 
L 345.004661 257.269159 
L 346.0701 257.269159 
L 346.222306 256.936398 
L 347.135539 256.936398 
L 347.287745 257.457031 
L 348.353184 257.457031 
L 348.50539 257.258012 
L 349.570829 257.258012 
L 349.723035 257.51196 
L 350.636268 257.51196 
L 350.788474 257.256157 
L 352.919352 257.326476 
L 353.223763 257.424392 
L 355.354642 257.416431 
L 355.506847 257.581218 
L 358.855371 257.540618 
L 359.007576 257.706201 
L 359.92081 257.706201 
L 360.225221 257.853475 
L 361.138455 257.853475 
L 361.442866 257.723185 
L 362.203894 257.723185 
L 362.356099 258.013486 
L 363.421539 258.013486 
L 363.573744 257.832777 
L 366.922267 257.91318 
L 367.226679 258.038005 
L 371.640641 258.120159 
L 371.945052 258.224604 
L 372.70608 258.224604 
L 373.010491 258.359777 
L 373.923725 258.359777 
L 374.075931 258.152798 
L 377.424454 258.225241 
L 377.728865 258.307396 
L 378.489893 258.307396 
L 378.794304 258.46937 
L 379.707538 258.46937 
L 379.859743 258.2133 
L 381.990622 258.228425 
L 382.142827 258.399581 
L 384.273706 258.378087 
L 384.425911 258.192602 
L 385.491351 258.192602 
L 385.643556 258.489537 
L 387.774435 258.501001 
L 387.92664 258.196582 
L 390.209724 258.191275 
L 390.36193 258.426647 
L 392.492808 258.425852 
L 392.79722 258.551949 
L 394.775892 258.60656 
L 394.928098 258.397989 
L 395.993537 258.397989 
L 396.145743 258.654324 
L 397.058976 258.654324 
L 397.211182 258.487945 
L 403.756023 258.590639 
L 403.756023 258.590639 
" clip-path="url(#p12577e9019)" style="fill: none; stroke: #1f77b4; stroke-width: 1.5; stroke-linecap: square"/>
   </g>
   <g id="line2d_17">
    <path d="M 79.101477 261.216 
L 99.497028 261.115074 
L 101.475701 260.856292 
L 102.845551 260.466594 
L 104.063196 259.888879 
L 105.128635 259.14129 
L 106.194074 258.109672 
L 107.259513 256.738438 
L 108.324953 254.974883 
L 109.390392 252.771913 
L 110.455831 250.090347 
L 111.673476 246.402282 
L 112.891121 242.024154 
L 114.260971 236.265331 
L 115.783027 228.854526 
L 117.457289 219.548905 
L 119.435961 207.176616 
L 121.719045 191.417697 
L 124.915363 167.639906 
L 132.069026 113.891876 
L 134.808727 95.205866 
L 137.244017 80.111284 
L 139.374895 68.23961 
L 141.353568 58.405359 
L 143.180035 50.369909 
L 145.006502 43.336807 
L 146.680764 37.757836 
L 148.20282 33.388501 
L 149.724876 29.6664 
L 151.094726 26.849202 
L 152.464577 24.515556 
L 153.834427 22.643589 
L 155.052072 21.348694 
L 156.269717 20.383943 
L 157.335156 19.79742 
L 158.400595 19.439524 
L 159.466034 19.298987 
L 160.531473 19.364624 
L 161.749118 19.677935 
L 162.966763 20.229923 
L 164.336613 21.116538 
L 165.706464 22.263402 
L 167.22852 23.817362 
L 168.902781 25.83491 
L 170.881454 28.589444 
L 173.012333 31.945992 
L 175.447622 36.200276 
L 178.339529 41.72173 
L 181.840257 48.92138 
L 186.406425 58.8744 
L 194.625528 77.456896 
L 202.84463 95.821327 
L 208.476238 107.865534 
L 213.499022 118.099172 
L 218.217396 127.222696 
L 222.783564 135.577024 
L 227.197526 143.20214 
L 231.611489 150.387088 
L 236.025451 157.141316 
L 240.287208 163.267037 
L 244.70117 169.218321 
L 249.115133 174.788198 
L 253.529095 179.996655 
L 257.943058 184.864115 
L 262.509226 189.562274 
L 267.075394 193.93945 
L 271.793767 198.148053 
L 276.512141 202.059368 
L 281.38272 205.807731 
L 286.405505 209.388809 
L 291.580495 212.80008 
L 296.907691 216.040668 
L 302.387093 219.111164 
L 308.0187 222.013453 
L 313.954719 224.819435 
L 320.042943 227.452478 
L 326.435578 229.975969 
L 333.132624 232.380989 
L 340.134082 234.661222 
L 347.592156 236.855277 
L 355.506847 238.948438 
L 363.878155 240.929776 
L 372.858286 242.822114 
L 382.447239 244.61071 
L 392.645014 246.285399 
L 403.756023 247.880987 
L 403.756023 247.880987 
" clip-path="url(#p12577e9019)" style="fill: none; stroke: #ff7f0e; stroke-width: 1.5; stroke-linecap: square"/>
   </g>
   <g id="patch_3">
    <path d="M 62.86875 273.312 
L 62.86875 7.2 
" style="fill: none; stroke: #000000; stroke-width: 0.8; stroke-linejoin: miter; stroke-linecap: square"/>
   </g>
   <g id="patch_4">
    <path d="M 419.98875 273.312 
L 419.98875 7.2 
" style="fill: none; stroke: #000000; stroke-width: 0.8; stroke-linejoin: miter; stroke-linecap: square"/>
   </g>
   <g id="patch_5">
    <path d="M 62.86875 273.312 
L 419.98875 273.312 
" style="fill: none; stroke: #000000; stroke-width: 0.8; stroke-linejoin: miter; stroke-linecap: square"/>
   </g>
   <g id="patch_6">
    <path d="M 62.86875 7.2 
L 419.98875 7.2 
" style="fill: none; stroke: #000000; stroke-width: 0.8; stroke-linejoin: miter; stroke-linecap: square"/>
   </g>
   <g id="legend_1">
    <g id="patch_7">
     <path d="M 284.579375 55.754062 
L 412.98875 55.754062 
Q 414.98875 55.754062 414.98875 53.754062 
L 414.98875 14.2 
Q 414.98875 12.2 412.98875 12.2 
L 284.579375 12.2 
Q 282.579375 12.2 282.579375 14.2 
L 282.579375 53.754062 
Q 282.579375 55.754062 284.579375 55.754062 
z
" style="fill: #ffffff; opacity: 0.8; stroke: #cccccc; stroke-linejoin: miter"/>
    </g>
    <g id="line2d_18">
     <path d="M 286.579375 26.937187 
L 296.579375 26.937187 
L 306.579375 26.937187 
" style="fill: none; stroke: #1f77b4; stroke-width: 1.5; stroke-linecap: square"/>
    </g>
    <g id="text_19">
     <!-- Messwerte -->
     <g transform="translate(314.579375 23.798437) scale(0.1 -0.1)">
      <defs>
       <path id="DejaVuSans-4d" d="M 628 4666 
L 1569 4666 
L 2759 1491 
L 3956 4666 
L 4897 4666 
L 4897 0 
L 4281 0 
L 4281 4097 
L 3078 897 
L 2444 897 
L 1241 4097 
L 1241 0 
L 628 0 
L 628 4666 
z
" transform="scale(0.015625)"/>
       <path id="DejaVuSans-73" d="M 2834 3397 
L 2834 2853 
Q 2591 2978 2328 3040 
Q 2066 3103 1784 3103 
Q 1356 3103 1142 2972 
Q 928 2841 928 2578 
Q 928 2378 1081 2264 
Q 1234 2150 1697 2047 
L 1894 2003 
Q 2506 1872 2764 1633 
Q 3022 1394 3022 966 
Q 3022 478 2636 193 
Q 2250 -91 1575 -91 
Q 1294 -91 989 -36 
Q 684 19 347 128 
L 347 722 
Q 666 556 975 473 
Q 1284 391 1588 391 
Q 1994 391 2212 530 
Q 2431 669 2431 922 
Q 2431 1156 2273 1281 
Q 2116 1406 1581 1522 
L 1381 1569 
Q 847 1681 609 1914 
Q 372 2147 372 2553 
Q 372 3047 722 3315 
Q 1072 3584 1716 3584 
Q 2034 3584 2315 3537 
Q 2597 3491 2834 3397 
z
" transform="scale(0.015625)"/>
       <path id="DejaVuSans-77" d="M 269 3500 
L 844 3500 
L 1563 769 
L 2278 3500 
L 2956 3500 
L 3675 769 
L 4391 3500 
L 4966 3500 
L 4050 0 
L 3372 0 
L 2619 2869 
L 1863 0 
L 1184 0 
L 269 3500 
z
" transform="scale(0.015625)"/>
       <path id="DejaVuSans-72" d="M 2631 2963 
Q 2534 3019 2420 3045 
Q 2306 3072 2169 3072 
Q 1681 3072 1420 2755 
Q 1159 2438 1159 1844 
L 1159 0 
L 581 0 
L 581 3500 
L 1159 3500 
L 1159 2956 
Q 1341 3275 1631 3429 
Q 1922 3584 2338 3584 
Q 2397 3584 2469 3576 
Q 2541 3569 2628 3553 
L 2631 2963 
z
" transform="scale(0.015625)"/>
       <path id="DejaVuSans-74" d="M 1172 4494 
L 1172 3500 
L 2356 3500 
L 2356 3053 
L 1172 3053 
L 1172 1153 
Q 1172 725 1289 603 
Q 1406 481 1766 481 
L 2356 481 
L 2356 0 
L 1766 0 
Q 1100 0 847 248 
Q 594 497 594 1153 
L 594 3053 
L 172 3053 
L 172 3500 
L 594 3500 
L 594 4494 
L 1172 4494 
z
" transform="scale(0.015625)"/>
      </defs>
      <use xlink:href="#DejaVuSans-4d"/>
      <use xlink:href="#DejaVuSans-65" x="86.279297"/>
      <use xlink:href="#DejaVuSans-73" x="147.802734"/>
      <use xlink:href="#DejaVuSans-73" x="199.902344"/>
      <use xlink:href="#DejaVuSans-77" x="252.001953"/>
      <use xlink:href="#DejaVuSans-65" x="333.789062"/>
      <use xlink:href="#DejaVuSans-72" x="395.3125"/>
      <use xlink:href="#DejaVuSans-74" x="436.425781"/>
      <use xlink:href="#DejaVuSans-65" x="475.634766"/>
     </g>
     <!-- bei $T=820\pm1$K -->
     <g transform="translate(314.579375 34.99625) scale(0.1 -0.1)">
      <defs>
       <path id="DejaVuSans-62" d="M 3116 1747 
Q 3116 2381 2855 2742 
Q 2594 3103 2138 3103 
Q 1681 3103 1420 2742 
Q 1159 2381 1159 1747 
Q 1159 1113 1420 752 
Q 1681 391 2138 391 
Q 2594 391 2855 752 
Q 3116 1113 3116 1747 
z
M 1159 2969 
Q 1341 3281 1617 3432 
Q 1894 3584 2278 3584 
Q 2916 3584 3314 3078 
Q 3713 2572 3713 1747 
Q 3713 922 3314 415 
Q 2916 -91 2278 -91 
Q 1894 -91 1617 61 
Q 1341 213 1159 525 
L 1159 0 
L 581 0 
L 581 4863 
L 1159 4863 
L 1159 2969 
z
" transform="scale(0.015625)"/>
       <path id="DejaVuSans-Oblique-54" d="M 378 4666 
L 4325 4666 
L 4225 4134 
L 2559 4134 
L 1759 0 
L 1125 0 
L 1925 4134 
L 275 4134 
L 378 4666 
z
" transform="scale(0.015625)"/>
       <path id="DejaVuSans-3d" d="M 678 2906 
L 4684 2906 
L 4684 2381 
L 678 2381 
L 678 2906 
z
M 678 1631 
L 4684 1631 
L 4684 1100 
L 678 1100 
L 678 1631 
z
" transform="scale(0.015625)"/>
       <path id="DejaVuSans-b1" d="M 2944 4013 
L 2944 2803 
L 4684 2803 
L 4684 2272 
L 2944 2272 
L 2944 1063 
L 2419 1063 
L 2419 2272 
L 678 2272 
L 678 2803 
L 2419 2803 
L 2419 4013 
L 2944 4013 
z
M 678 531 
L 4684 531 
L 4684 0 
L 678 0 
L 678 531 
z
" transform="scale(0.015625)"/>
       <path id="DejaVuSans-4b" d="M 628 4666 
L 1259 4666 
L 1259 2694 
L 3353 4666 
L 4166 4666 
L 1850 2491 
L 4331 0 
L 3500 0 
L 1259 2247 
L 1259 0 
L 628 0 
L 628 4666 
z
" transform="scale(0.015625)"/>
      </defs>
      <use xlink:href="#DejaVuSans-62" transform="translate(0 0.015625)"/>
      <use xlink:href="#DejaVuSans-65" transform="translate(63.476562 0.015625)"/>
      <use xlink:href="#DejaVuSans-69" transform="translate(125 0.015625)"/>
      <use xlink:href="#DejaVuSans-20" transform="translate(152.783203 0.015625)"/>
      <use xlink:href="#DejaVuSans-Oblique-54" transform="translate(184.570312 0.015625)"/>
      <use xlink:href="#DejaVuSans-3d" transform="translate(265.136719 0.015625)"/>
      <use xlink:href="#DejaVuSans-38" transform="translate(368.408203 0.015625)"/>
      <use xlink:href="#DejaVuSans-32" transform="translate(432.03125 0.015625)"/>
      <use xlink:href="#DejaVuSans-30" transform="translate(495.654297 0.015625)"/>
      <use xlink:href="#DejaVuSans-b1" transform="translate(578.759766 0.015625)"/>
      <use xlink:href="#DejaVuSans-31" transform="translate(682.03125 0.015625)"/>
      <use xlink:href="#DejaVuSans-4b" transform="translate(745.654297 0.015625)"/>
     </g>
    </g>
    <g id="line2d_19">
     <path d="M 286.579375 46.174375 
L 296.579375 46.174375 
L 306.579375 46.174375 
" style="fill: none; stroke: #ff7f0e; stroke-width: 1.5; stroke-linecap: square"/>
    </g>
    <g id="text_20">
     <!-- Theoretische Kurve -->
     <g transform="translate(314.579375 49.674375) scale(0.1 -0.1)">
      <defs>
       <path id="DejaVuSans-54" d="M -19 4666 
L 3928 4666 
L 3928 4134 
L 2272 4134 
L 2272 0 
L 1638 0 
L 1638 4134 
L -19 4134 
L -19 4666 
z
" transform="scale(0.015625)"/>
       <path id="DejaVuSans-68" d="M 3513 2113 
L 3513 0 
L 2938 0 
L 2938 2094 
Q 2938 2591 2744 2837 
Q 2550 3084 2163 3084 
Q 1697 3084 1428 2787 
Q 1159 2491 1159 1978 
L 1159 0 
L 581 0 
L 581 4863 
L 1159 4863 
L 1159 2956 
Q 1366 3272 1645 3428 
Q 1925 3584 2291 3584 
Q 2894 3584 3203 3211 
Q 3513 2838 3513 2113 
z
" transform="scale(0.015625)"/>
       <path id="DejaVuSans-6f" d="M 1959 3097 
Q 1497 3097 1228 2736 
Q 959 2375 959 1747 
Q 959 1119 1226 758 
Q 1494 397 1959 397 
Q 2419 397 2687 759 
Q 2956 1122 2956 1747 
Q 2956 2369 2687 2733 
Q 2419 3097 1959 3097 
z
M 1959 3584 
Q 2709 3584 3137 3096 
Q 3566 2609 3566 1747 
Q 3566 888 3137 398 
Q 2709 -91 1959 -91 
Q 1206 -91 779 398 
Q 353 888 353 1747 
Q 353 2609 779 3096 
Q 1206 3584 1959 3584 
z
" transform="scale(0.015625)"/>
       <path id="DejaVuSans-63" d="M 3122 3366 
L 3122 2828 
Q 2878 2963 2633 3030 
Q 2388 3097 2138 3097 
Q 1578 3097 1268 2742 
Q 959 2388 959 1747 
Q 959 1106 1268 751 
Q 1578 397 2138 397 
Q 2388 397 2633 464 
Q 2878 531 3122 666 
L 3122 134 
Q 2881 22 2623 -34 
Q 2366 -91 2075 -91 
Q 1284 -91 818 406 
Q 353 903 353 1747 
Q 353 2603 823 3093 
Q 1294 3584 2113 3584 
Q 2378 3584 2631 3529 
Q 2884 3475 3122 3366 
z
" transform="scale(0.015625)"/>
       <path id="DejaVuSans-76" d="M 191 3500 
L 800 3500 
L 1894 563 
L 2988 3500 
L 3597 3500 
L 2284 0 
L 1503 0 
L 191 3500 
z
" transform="scale(0.015625)"/>
      </defs>
      <use xlink:href="#DejaVuSans-54"/>
      <use xlink:href="#DejaVuSans-68" x="61.083984"/>
      <use xlink:href="#DejaVuSans-65" x="124.462891"/>
      <use xlink:href="#DejaVuSans-6f" x="185.986328"/>
      <use xlink:href="#DejaVuSans-72" x="247.167969"/>
      <use xlink:href="#DejaVuSans-65" x="286.03125"/>
      <use xlink:href="#DejaVuSans-74" x="347.554688"/>
      <use xlink:href="#DejaVuSans-69" x="386.763672"/>
      <use xlink:href="#DejaVuSans-73" x="414.546875"/>
      <use xlink:href="#DejaVuSans-63" x="466.646484"/>
      <use xlink:href="#DejaVuSans-68" x="521.626953"/>
      <use xlink:href="#DejaVuSans-65" x="585.005859"/>
      <use xlink:href="#DejaVuSans-20" x="646.529297"/>
      <use xlink:href="#DejaVuSans-4b" x="678.316406"/>
      <use xlink:href="#DejaVuSans-75" x="738.892578"/>
      <use xlink:href="#DejaVuSans-72" x="802.271484"/>
      <use xlink:href="#DejaVuSans-76" x="843.384766"/>
      <use xlink:href="#DejaVuSans-65" x="902.564453"/>
     </g>
    </g>
   </g>
  </g>
 </g>
 <defs>
  <clipPath id="p12577e9019">
   <rect x="62.86875" y="7.2" width="357.12" height="266.112"/>
  </clipPath>
 </defs>
</svg>
