<?xml version="1.0" encoding="utf-8" standalone="no"?>
<!DOCTYPE svg PUBLIC "-//W3C//DTD SVG 1.1//EN"
  "http://www.w3.org/Graphics/SVG/1.1/DTD/svg11.dtd">
<svg xmlns:xlink="http://www.w3.org/1999/xlink" width="460.8pt" height="345.6pt" viewBox="0 0 460.8 345.6" xmlns="http://www.w3.org/2000/svg" version="1.1">
 <metadata>
  <rdf:RDF xmlns:dc="http://purl.org/dc/elements/1.1/" xmlns:cc="http://creativecommons.org/ns#" xmlns:rdf="http://www.w3.org/1999/02/22-rdf-syntax-ns#">
   <cc:Work>
    <dc:type rdf:resource="http://purl.org/dc/dcmitype/StillImage"/>
    <dc:date>2024-07-11T02:37:50.986774</dc:date>
    <dc:format>image/svg+xml</dc:format>
    <dc:creator>
     <cc:Agent>
      <dc:title>Matplotlib v3.8.2, https://matplotlib.org/</dc:title>
     </cc:Agent>
    </dc:creator>
   </cc:Work>
  </rdf:RDF>
 </metadata>
 <defs>
  <style type="text/css">*{stroke-linejoin: round; stroke-linecap: butt}</style>
 </defs>
 <g id="figure_1">
  <g id="patch_1">
   <path d="M 0 345.6 
L 460.8 345.6 
L 460.8 0 
L 0 0 
z
" style="fill: #ffffff"/>
  </g>
  <g id="axes_1">
   <g id="patch_2">
    <path d="M 57.6 307.584 
L 414.72 307.584 
L 414.72 41.472 
L 57.6 41.472 
z
" style="fill: #ffffff"/>
   </g>
   <g id="matplotlib.axis_1">
    <g id="xtick_1">
     <g id="line2d_1">
      <defs>
       <path id="mc8befec3b2" d="M 0 0 
L 0 3.5 
" style="stroke: #000000; stroke-width: 0.8"/>
      </defs>
      <g>
       <use xlink:href="#mc8befec3b2" x="73.829561" y="307.584" style="stroke: #000000; stroke-width: 0.8"/>
      </g>
     </g>
     <g id="text_1">
      <!-- 0.0 -->
      <g transform="translate(65.877998 322.182437) scale(0.1 -0.1)">
       <defs>
        <path id="DejaVuSans-30" d="M 2034 4250 
Q 1547 4250 1301 3770 
Q 1056 3291 1056 2328 
Q 1056 1369 1301 889 
Q 1547 409 2034 409 
Q 2525 409 2770 889 
Q 3016 1369 3016 2328 
Q 3016 3291 2770 3770 
Q 2525 4250 2034 4250 
z
M 2034 4750 
Q 2819 4750 3233 4129 
Q 3647 3509 3647 2328 
Q 3647 1150 3233 529 
Q 2819 -91 2034 -91 
Q 1250 -91 836 529 
Q 422 1150 422 2328 
Q 422 3509 836 4129 
Q 1250 4750 2034 4750 
z
" transform="scale(0.015625)"/>
        <path id="DejaVuSans-2e" d="M 684 794 
L 1344 794 
L 1344 0 
L 684 0 
L 684 794 
z
" transform="scale(0.015625)"/>
       </defs>
       <use xlink:href="#DejaVuSans-30"/>
       <use xlink:href="#DejaVuSans-2e" x="63.623047"/>
       <use xlink:href="#DejaVuSans-30" x="95.410156"/>
      </g>
     </g>
    </g>
    <g id="xtick_2">
     <g id="line2d_2">
      <g>
       <use xlink:href="#mc8befec3b2" x="118.768484" y="307.584" style="stroke: #000000; stroke-width: 0.8"/>
      </g>
     </g>
     <g id="text_2">
      <!-- 0.2 -->
      <g transform="translate(110.816922 322.182437) scale(0.1 -0.1)">
       <defs>
        <path id="DejaVuSans-32" d="M 1228 531 
L 3431 531 
L 3431 0 
L 469 0 
L 469 531 
Q 828 903 1448 1529 
Q 2069 2156 2228 2338 
Q 2531 2678 2651 2914 
Q 2772 3150 2772 3378 
Q 2772 3750 2511 3984 
Q 2250 4219 1831 4219 
Q 1534 4219 1204 4116 
Q 875 4013 500 3803 
L 500 4441 
Q 881 4594 1212 4672 
Q 1544 4750 1819 4750 
Q 2544 4750 2975 4387 
Q 3406 4025 3406 3419 
Q 3406 3131 3298 2873 
Q 3191 2616 2906 2266 
Q 2828 2175 2409 1742 
Q 1991 1309 1228 531 
z
" transform="scale(0.015625)"/>
       </defs>
       <use xlink:href="#DejaVuSans-30"/>
       <use xlink:href="#DejaVuSans-2e" x="63.623047"/>
       <use xlink:href="#DejaVuSans-32" x="95.410156"/>
      </g>
     </g>
    </g>
    <g id="xtick_3">
     <g id="line2d_3">
      <g>
       <use xlink:href="#mc8befec3b2" x="163.707408" y="307.584" style="stroke: #000000; stroke-width: 0.8"/>
      </g>
     </g>
     <g id="text_3">
      <!-- 0.4 -->
      <g transform="translate(155.755845 322.182437) scale(0.1 -0.1)">
       <defs>
        <path id="DejaVuSans-34" d="M 2419 4116 
L 825 1625 
L 2419 1625 
L 2419 4116 
z
M 2253 4666 
L 3047 4666 
L 3047 1625 
L 3713 1625 
L 3713 1100 
L 3047 1100 
L 3047 0 
L 2419 0 
L 2419 1100 
L 313 1100 
L 313 1709 
L 2253 4666 
z
" transform="scale(0.015625)"/>
       </defs>
       <use xlink:href="#DejaVuSans-30"/>
       <use xlink:href="#DejaVuSans-2e" x="63.623047"/>
       <use xlink:href="#DejaVuSans-34" x="95.410156"/>
      </g>
     </g>
    </g>
    <g id="xtick_4">
     <g id="line2d_4">
      <g>
       <use xlink:href="#mc8befec3b2" x="208.646331" y="307.584" style="stroke: #000000; stroke-width: 0.8"/>
      </g>
     </g>
     <g id="text_4">
      <!-- 0.6 -->
      <g transform="translate(200.694769 322.182437) scale(0.1 -0.1)">
       <defs>
        <path id="DejaVuSans-36" d="M 2113 2584 
Q 1688 2584 1439 2293 
Q 1191 2003 1191 1497 
Q 1191 994 1439 701 
Q 1688 409 2113 409 
Q 2538 409 2786 701 
Q 3034 994 3034 1497 
Q 3034 2003 2786 2293 
Q 2538 2584 2113 2584 
z
M 3366 4563 
L 3366 3988 
Q 3128 4100 2886 4159 
Q 2644 4219 2406 4219 
Q 1781 4219 1451 3797 
Q 1122 3375 1075 2522 
Q 1259 2794 1537 2939 
Q 1816 3084 2150 3084 
Q 2853 3084 3261 2657 
Q 3669 2231 3669 1497 
Q 3669 778 3244 343 
Q 2819 -91 2113 -91 
Q 1303 -91 875 529 
Q 447 1150 447 2328 
Q 447 3434 972 4092 
Q 1497 4750 2381 4750 
Q 2619 4750 2861 4703 
Q 3103 4656 3366 4563 
z
" transform="scale(0.015625)"/>
       </defs>
       <use xlink:href="#DejaVuSans-30"/>
       <use xlink:href="#DejaVuSans-2e" x="63.623047"/>
       <use xlink:href="#DejaVuSans-36" x="95.410156"/>
      </g>
     </g>
    </g>
    <g id="xtick_5">
     <g id="line2d_5">
      <g>
       <use xlink:href="#mc8befec3b2" x="253.585255" y="307.584" style="stroke: #000000; stroke-width: 0.8"/>
      </g>
     </g>
     <g id="text_5">
      <!-- 0.8 -->
      <g transform="translate(245.633692 322.182437) scale(0.1 -0.1)">
       <defs>
        <path id="DejaVuSans-38" d="M 2034 2216 
Q 1584 2216 1326 1975 
Q 1069 1734 1069 1313 
Q 1069 891 1326 650 
Q 1584 409 2034 409 
Q 2484 409 2743 651 
Q 3003 894 3003 1313 
Q 3003 1734 2745 1975 
Q 2488 2216 2034 2216 
z
M 1403 2484 
Q 997 2584 770 2862 
Q 544 3141 544 3541 
Q 544 4100 942 4425 
Q 1341 4750 2034 4750 
Q 2731 4750 3128 4425 
Q 3525 4100 3525 3541 
Q 3525 3141 3298 2862 
Q 3072 2584 2669 2484 
Q 3125 2378 3379 2068 
Q 3634 1759 3634 1313 
Q 3634 634 3220 271 
Q 2806 -91 2034 -91 
Q 1263 -91 848 271 
Q 434 634 434 1313 
Q 434 1759 690 2068 
Q 947 2378 1403 2484 
z
M 1172 3481 
Q 1172 3119 1398 2916 
Q 1625 2713 2034 2713 
Q 2441 2713 2670 2916 
Q 2900 3119 2900 3481 
Q 2900 3844 2670 4047 
Q 2441 4250 2034 4250 
Q 1625 4250 1398 4047 
Q 1172 3844 1172 3481 
z
" transform="scale(0.015625)"/>
       </defs>
       <use xlink:href="#DejaVuSans-30"/>
       <use xlink:href="#DejaVuSans-2e" x="63.623047"/>
       <use xlink:href="#DejaVuSans-38" x="95.410156"/>
      </g>
     </g>
    </g>
    <g id="xtick_6">
     <g id="line2d_6">
      <g>
       <use xlink:href="#mc8befec3b2" x="298.524179" y="307.584" style="stroke: #000000; stroke-width: 0.8"/>
      </g>
     </g>
     <g id="text_6">
      <!-- 1.0 -->
      <g transform="translate(290.572616 322.182437) scale(0.1 -0.1)">
       <defs>
        <path id="DejaVuSans-31" d="M 794 531 
L 1825 531 
L 1825 4091 
L 703 3866 
L 703 4441 
L 1819 4666 
L 2450 4666 
L 2450 531 
L 3481 531 
L 3481 0 
L 794 0 
L 794 531 
z
" transform="scale(0.015625)"/>
       </defs>
       <use xlink:href="#DejaVuSans-31"/>
       <use xlink:href="#DejaVuSans-2e" x="63.623047"/>
       <use xlink:href="#DejaVuSans-30" x="95.410156"/>
      </g>
     </g>
    </g>
    <g id="xtick_7">
     <g id="line2d_7">
      <g>
       <use xlink:href="#mc8befec3b2" x="343.463102" y="307.584" style="stroke: #000000; stroke-width: 0.8"/>
      </g>
     </g>
     <g id="text_7">
      <!-- 1.2 -->
      <g transform="translate(335.51154 322.182437) scale(0.1 -0.1)">
       <use xlink:href="#DejaVuSans-31"/>
       <use xlink:href="#DejaVuSans-2e" x="63.623047"/>
       <use xlink:href="#DejaVuSans-32" x="95.410156"/>
      </g>
     </g>
    </g>
    <g id="xtick_8">
     <g id="line2d_8">
      <g>
       <use xlink:href="#mc8befec3b2" x="388.402026" y="307.584" style="stroke: #000000; stroke-width: 0.8"/>
      </g>
     </g>
     <g id="text_8">
      <!-- 1.4 -->
      <g transform="translate(380.450463 322.182437) scale(0.1 -0.1)">
       <use xlink:href="#DejaVuSans-31"/>
       <use xlink:href="#DejaVuSans-2e" x="63.623047"/>
       <use xlink:href="#DejaVuSans-34" x="95.410156"/>
      </g>
     </g>
    </g>
    <g id="text_9">
     <!-- Wellenlänge in m -->
     <g transform="translate(192.931094 335.860562) scale(0.1 -0.1)">
      <defs>
       <path id="DejaVuSans-57" d="M 213 4666 
L 850 4666 
L 1831 722 
L 2809 4666 
L 3519 4666 
L 4500 722 
L 5478 4666 
L 6119 4666 
L 4947 0 
L 4153 0 
L 3169 4050 
L 2175 0 
L 1381 0 
L 213 4666 
z
" transform="scale(0.015625)"/>
       <path id="DejaVuSans-65" d="M 3597 1894 
L 3597 1613 
L 953 1613 
Q 991 1019 1311 708 
Q 1631 397 2203 397 
Q 2534 397 2845 478 
Q 3156 559 3463 722 
L 3463 178 
Q 3153 47 2828 -22 
Q 2503 -91 2169 -91 
Q 1331 -91 842 396 
Q 353 884 353 1716 
Q 353 2575 817 3079 
Q 1281 3584 2069 3584 
Q 2775 3584 3186 3129 
Q 3597 2675 3597 1894 
z
M 3022 2063 
Q 3016 2534 2758 2815 
Q 2500 3097 2075 3097 
Q 1594 3097 1305 2825 
Q 1016 2553 972 2059 
L 3022 2063 
z
" transform="scale(0.015625)"/>
       <path id="DejaVuSans-6c" d="M 603 4863 
L 1178 4863 
L 1178 0 
L 603 0 
L 603 4863 
z
" transform="scale(0.015625)"/>
       <path id="DejaVuSans-6e" d="M 3513 2113 
L 3513 0 
L 2938 0 
L 2938 2094 
Q 2938 2591 2744 2837 
Q 2550 3084 2163 3084 
Q 1697 3084 1428 2787 
Q 1159 2491 1159 1978 
L 1159 0 
L 581 0 
L 581 3500 
L 1159 3500 
L 1159 2956 
Q 1366 3272 1645 3428 
Q 1925 3584 2291 3584 
Q 2894 3584 3203 3211 
Q 3513 2838 3513 2113 
z
" transform="scale(0.015625)"/>
       <path id="DejaVuSans-e4" d="M 2194 1759 
Q 1497 1759 1228 1600 
Q 959 1441 959 1056 
Q 959 750 1161 570 
Q 1363 391 1709 391 
Q 2188 391 2477 730 
Q 2766 1069 2766 1631 
L 2766 1759 
L 2194 1759 
z
M 3341 1997 
L 3341 0 
L 2766 0 
L 2766 531 
Q 2569 213 2275 61 
Q 1981 -91 1556 -91 
Q 1019 -91 701 211 
Q 384 513 384 1019 
Q 384 1609 779 1909 
Q 1175 2209 1959 2209 
L 2766 2209 
L 2766 2266 
Q 2766 2663 2505 2880 
Q 2244 3097 1772 3097 
Q 1472 3097 1187 3025 
Q 903 2953 641 2809 
L 641 3341 
Q 956 3463 1253 3523 
Q 1550 3584 1831 3584 
Q 2591 3584 2966 3190 
Q 3341 2797 3341 1997 
z
M 2150 4850 
L 2784 4850 
L 2784 4219 
L 2150 4219 
L 2150 4850 
z
M 928 4850 
L 1562 4850 
L 1562 4219 
L 928 4219 
L 928 4850 
z
" transform="scale(0.015625)"/>
       <path id="DejaVuSans-67" d="M 2906 1791 
Q 2906 2416 2648 2759 
Q 2391 3103 1925 3103 
Q 1463 3103 1205 2759 
Q 947 2416 947 1791 
Q 947 1169 1205 825 
Q 1463 481 1925 481 
Q 2391 481 2648 825 
Q 2906 1169 2906 1791 
z
M 3481 434 
Q 3481 -459 3084 -895 
Q 2688 -1331 1869 -1331 
Q 1566 -1331 1297 -1286 
Q 1028 -1241 775 -1147 
L 775 -588 
Q 1028 -725 1275 -790 
Q 1522 -856 1778 -856 
Q 2344 -856 2625 -561 
Q 2906 -266 2906 331 
L 2906 616 
Q 2728 306 2450 153 
Q 2172 0 1784 0 
Q 1141 0 747 490 
Q 353 981 353 1791 
Q 353 2603 747 3093 
Q 1141 3584 1784 3584 
Q 2172 3584 2450 3431 
Q 2728 3278 2906 2969 
L 2906 3500 
L 3481 3500 
L 3481 434 
z
" transform="scale(0.015625)"/>
       <path id="DejaVuSans-20" transform="scale(0.015625)"/>
       <path id="DejaVuSans-69" d="M 603 3500 
L 1178 3500 
L 1178 0 
L 603 0 
L 603 3500 
z
M 603 4863 
L 1178 4863 
L 1178 4134 
L 603 4134 
L 603 4863 
z
" transform="scale(0.015625)"/>
       <path id="DejaVuSans-6d" d="M 3328 2828 
Q 3544 3216 3844 3400 
Q 4144 3584 4550 3584 
Q 5097 3584 5394 3201 
Q 5691 2819 5691 2113 
L 5691 0 
L 5113 0 
L 5113 2094 
Q 5113 2597 4934 2840 
Q 4756 3084 4391 3084 
Q 3944 3084 3684 2787 
Q 3425 2491 3425 1978 
L 3425 0 
L 2847 0 
L 2847 2094 
Q 2847 2600 2669 2842 
Q 2491 3084 2119 3084 
Q 1678 3084 1418 2786 
Q 1159 2488 1159 1978 
L 1159 0 
L 581 0 
L 581 3500 
L 1159 3500 
L 1159 2956 
Q 1356 3278 1631 3431 
Q 1906 3584 2284 3584 
Q 2666 3584 2933 3390 
Q 3200 3197 3328 2828 
z
" transform="scale(0.015625)"/>
      </defs>
      <use xlink:href="#DejaVuSans-57"/>
      <use xlink:href="#DejaVuSans-65" x="93.001953"/>
      <use xlink:href="#DejaVuSans-6c" x="154.525391"/>
      <use xlink:href="#DejaVuSans-6c" x="182.308594"/>
      <use xlink:href="#DejaVuSans-65" x="210.091797"/>
      <use xlink:href="#DejaVuSans-6e" x="271.615234"/>
      <use xlink:href="#DejaVuSans-6c" x="334.994141"/>
      <use xlink:href="#DejaVuSans-e4" x="362.777344"/>
      <use xlink:href="#DejaVuSans-6e" x="424.056641"/>
      <use xlink:href="#DejaVuSans-67" x="487.435547"/>
      <use xlink:href="#DejaVuSans-65" x="550.912109"/>
      <use xlink:href="#DejaVuSans-20" x="612.435547"/>
      <use xlink:href="#DejaVuSans-69" x="644.222656"/>
      <use xlink:href="#DejaVuSans-6e" x="672.005859"/>
      <use xlink:href="#DejaVuSans-20" x="735.384766"/>
      <use xlink:href="#DejaVuSans-6d" x="767.171875"/>
     </g>
    </g>
    <g id="text_10">
     <!-- 1e−5 -->
     <g transform="translate(387.462188 334.860562) scale(0.1 -0.1)">
      <defs>
       <path id="DejaVuSans-2212" d="M 678 2272 
L 4684 2272 
L 4684 1741 
L 678 1741 
L 678 2272 
z
" transform="scale(0.015625)"/>
       <path id="DejaVuSans-35" d="M 691 4666 
L 3169 4666 
L 3169 4134 
L 1269 4134 
L 1269 2991 
Q 1406 3038 1543 3061 
Q 1681 3084 1819 3084 
Q 2600 3084 3056 2656 
Q 3513 2228 3513 1497 
Q 3513 744 3044 326 
Q 2575 -91 1722 -91 
Q 1428 -91 1123 -41 
Q 819 9 494 109 
L 494 744 
Q 775 591 1075 516 
Q 1375 441 1709 441 
Q 2250 441 2565 725 
Q 2881 1009 2881 1497 
Q 2881 1984 2565 2268 
Q 2250 2553 1709 2553 
Q 1456 2553 1204 2497 
Q 953 2441 691 2322 
L 691 4666 
z
" transform="scale(0.015625)"/>
      </defs>
      <use xlink:href="#DejaVuSans-31"/>
      <use xlink:href="#DejaVuSans-65" x="63.623047"/>
      <use xlink:href="#DejaVuSans-2212" x="125.146484"/>
      <use xlink:href="#DejaVuSans-35" x="208.935547"/>
     </g>
    </g>
   </g>
   <g id="matplotlib.axis_2">
    <g id="ytick_1">
     <g id="line2d_9">
      <defs>
       <path id="m5e4c6bf66e" d="M 0 0 
L -3.5 0 
" style="stroke: #000000; stroke-width: 0.8"/>
      </defs>
      <g>
       <use xlink:href="#m5e4c6bf66e" x="57.6" y="295.488" style="stroke: #000000; stroke-width: 0.8"/>
      </g>
     </g>
     <g id="text_11">
      <!-- 0 -->
      <g transform="translate(44.2375 299.287219) scale(0.1 -0.1)">
       <use xlink:href="#DejaVuSans-30"/>
      </g>
     </g>
    </g>
    <g id="ytick_2">
     <g id="line2d_10">
      <g>
       <use xlink:href="#m5e4c6bf66e" x="57.6" y="240.369369" style="stroke: #000000; stroke-width: 0.8"/>
      </g>
     </g>
     <g id="text_12">
      <!-- 2 -->
      <g transform="translate(44.2375 244.168587) scale(0.1 -0.1)">
       <use xlink:href="#DejaVuSans-32"/>
      </g>
     </g>
    </g>
    <g id="ytick_3">
     <g id="line2d_11">
      <g>
       <use xlink:href="#m5e4c6bf66e" x="57.6" y="185.250737" style="stroke: #000000; stroke-width: 0.8"/>
      </g>
     </g>
     <g id="text_13">
      <!-- 4 -->
      <g transform="translate(44.2375 189.049956) scale(0.1 -0.1)">
       <use xlink:href="#DejaVuSans-34"/>
      </g>
     </g>
    </g>
    <g id="ytick_4">
     <g id="line2d_12">
      <g>
       <use xlink:href="#m5e4c6bf66e" x="57.6" y="130.132106" style="stroke: #000000; stroke-width: 0.8"/>
      </g>
     </g>
     <g id="text_14">
      <!-- 6 -->
      <g transform="translate(44.2375 133.931325) scale(0.1 -0.1)">
       <use xlink:href="#DejaVuSans-36"/>
      </g>
     </g>
    </g>
    <g id="ytick_5">
     <g id="line2d_13">
      <g>
       <use xlink:href="#m5e4c6bf66e" x="57.6" y="75.013474" style="stroke: #000000; stroke-width: 0.8"/>
      </g>
     </g>
     <g id="text_15">
      <!-- 8 -->
      <g transform="translate(44.2375 78.812693) scale(0.1 -0.1)">
       <use xlink:href="#DejaVuSans-38"/>
      </g>
     </g>
    </g>
    <g id="text_16">
     <!-- Spannung in V -->
     <g transform="translate(38.157812 210.945969) rotate(-90) scale(0.1 -0.1)">
      <defs>
       <path id="DejaVuSans-53" d="M 3425 4513 
L 3425 3897 
Q 3066 4069 2747 4153 
Q 2428 4238 2131 4238 
Q 1616 4238 1336 4038 
Q 1056 3838 1056 3469 
Q 1056 3159 1242 3001 
Q 1428 2844 1947 2747 
L 2328 2669 
Q 3034 2534 3370 2195 
Q 3706 1856 3706 1288 
Q 3706 609 3251 259 
Q 2797 -91 1919 -91 
Q 1588 -91 1214 -16 
Q 841 59 441 206 
L 441 856 
Q 825 641 1194 531 
Q 1563 422 1919 422 
Q 2459 422 2753 634 
Q 3047 847 3047 1241 
Q 3047 1584 2836 1778 
Q 2625 1972 2144 2069 
L 1759 2144 
Q 1053 2284 737 2584 
Q 422 2884 422 3419 
Q 422 4038 858 4394 
Q 1294 4750 2059 4750 
Q 2388 4750 2728 4690 
Q 3069 4631 3425 4513 
z
" transform="scale(0.015625)"/>
       <path id="DejaVuSans-70" d="M 1159 525 
L 1159 -1331 
L 581 -1331 
L 581 3500 
L 1159 3500 
L 1159 2969 
Q 1341 3281 1617 3432 
Q 1894 3584 2278 3584 
Q 2916 3584 3314 3078 
Q 3713 2572 3713 1747 
Q 3713 922 3314 415 
Q 2916 -91 2278 -91 
Q 1894 -91 1617 61 
Q 1341 213 1159 525 
z
M 3116 1747 
Q 3116 2381 2855 2742 
Q 2594 3103 2138 3103 
Q 1681 3103 1420 2742 
Q 1159 2381 1159 1747 
Q 1159 1113 1420 752 
Q 1681 391 2138 391 
Q 2594 391 2855 752 
Q 3116 1113 3116 1747 
z
" transform="scale(0.015625)"/>
       <path id="DejaVuSans-61" d="M 2194 1759 
Q 1497 1759 1228 1600 
Q 959 1441 959 1056 
Q 959 750 1161 570 
Q 1363 391 1709 391 
Q 2188 391 2477 730 
Q 2766 1069 2766 1631 
L 2766 1759 
L 2194 1759 
z
M 3341 1997 
L 3341 0 
L 2766 0 
L 2766 531 
Q 2569 213 2275 61 
Q 1981 -91 1556 -91 
Q 1019 -91 701 211 
Q 384 513 384 1019 
Q 384 1609 779 1909 
Q 1175 2209 1959 2209 
L 2766 2209 
L 2766 2266 
Q 2766 2663 2505 2880 
Q 2244 3097 1772 3097 
Q 1472 3097 1187 3025 
Q 903 2953 641 2809 
L 641 3341 
Q 956 3463 1253 3523 
Q 1550 3584 1831 3584 
Q 2591 3584 2966 3190 
Q 3341 2797 3341 1997 
z
" transform="scale(0.015625)"/>
       <path id="DejaVuSans-75" d="M 544 1381 
L 544 3500 
L 1119 3500 
L 1119 1403 
Q 1119 906 1312 657 
Q 1506 409 1894 409 
Q 2359 409 2629 706 
Q 2900 1003 2900 1516 
L 2900 3500 
L 3475 3500 
L 3475 0 
L 2900 0 
L 2900 538 
Q 2691 219 2414 64 
Q 2138 -91 1772 -91 
Q 1169 -91 856 284 
Q 544 659 544 1381 
z
M 1991 3584 
L 1991 3584 
z
" transform="scale(0.015625)"/>
       <path id="DejaVuSans-56" d="M 1831 0 
L 50 4666 
L 709 4666 
L 2188 738 
L 3669 4666 
L 4325 4666 
L 2547 0 
L 1831 0 
z
" transform="scale(0.015625)"/>
      </defs>
      <use xlink:href="#DejaVuSans-53"/>
      <use xlink:href="#DejaVuSans-70" x="63.476562"/>
      <use xlink:href="#DejaVuSans-61" x="126.953125"/>
      <use xlink:href="#DejaVuSans-6e" x="188.232422"/>
      <use xlink:href="#DejaVuSans-6e" x="251.611328"/>
      <use xlink:href="#DejaVuSans-75" x="314.990234"/>
      <use xlink:href="#DejaVuSans-6e" x="378.369141"/>
      <use xlink:href="#DejaVuSans-67" x="441.748047"/>
      <use xlink:href="#DejaVuSans-20" x="505.224609"/>
      <use xlink:href="#DejaVuSans-69" x="537.011719"/>
      <use xlink:href="#DejaVuSans-6e" x="564.794922"/>
      <use xlink:href="#DejaVuSans-20" x="628.173828"/>
      <use xlink:href="#DejaVuSans-56" x="659.960938"/>
     </g>
    </g>
    <g id="text_17">
     <!-- 1e−5 -->
     <g transform="translate(57.6 38.472) scale(0.1 -0.1)">
      <use xlink:href="#DejaVuSans-31"/>
      <use xlink:href="#DejaVuSans-65" x="63.623047"/>
      <use xlink:href="#DejaVuSans-2212" x="125.146484"/>
      <use xlink:href="#DejaVuSans-35" x="208.935547"/>
     </g>
    </g>
   </g>
   <g id="line2d_14">
    <path d="M 73.832727 283.423978 
L 73.949342 288.301666 
L 74.065956 287.89855 
L 74.998871 287.89855 
L 75.2321 288.088591 
L 77.33116 288.079378 
L 77.447774 287.604853 
L 78.497304 287.604853 
L 78.613918 286.977146 
L 79.780063 286.977146 
L 79.896677 289.608909 
L 80.829592 289.608909 
L 80.946207 287.47816 
L 81.995737 287.47816 
L 82.112351 286.992119 
L 83.045266 286.992119 
L 83.161881 287.535748 
L 84.328025 287.535748 
L 84.444639 288.014878 
L 85.377555 288.014878 
L 85.494169 286.591307 
L 86.543699 286.591307 
L 86.660313 288.411082 
L 87.593229 288.411082 
L 87.709843 286.407026 
L 88.875987 286.407026 
L 88.992602 287.328431 
L 90.042132 287.328431 
L 90.275361 287.600245 
L 91.091661 287.600245 
L 91.208276 287.996452 
L 92.37442 287.996452 
L 92.491034 286.533719 
L 93.42395 286.533719 
L 93.657179 286.280333 
L 94.590094 286.280333 
L 94.706708 287.766097 
L 95.639624 287.766097 
L 95.756238 286.631621 
L 96.922382 286.631621 
L 97.038997 288.624157 
L 97.971912 288.624157 
L 98.205141 288.848749 
L 99.138056 288.848749 
L 99.254671 287.310002 
L 100.187586 287.310002 
L 100.420815 287.529989 
L 103.686019 287.480464 
L 103.802633 289.294096 
L 104.968777 289.294096 
L 105.085392 288.466366 
L 107.184451 288.47443 
L 107.301066 289.69337 
L 108.233981 289.69337 
L 108.350596 287.645164 
L 109.51674 287.645164 
L 109.633354 289.879572 
L 110.56627 289.879572 
L 110.682884 288.157696 
L 111.732414 288.157696 
L 111.849028 287.567996 
L 112.781944 287.567996 
L 112.898558 287.017457 
L 115.230846 286.913801 
L 115.347461 288.318943 
L 116.280376 288.318943 
L 116.396991 286.322565 
L 117.563135 286.322565 
L 117.679749 287.706208 
L 119.778809 287.743063 
L 119.895423 288.376531 
L 120.828339 288.376531 
L 120.944953 288.871785 
L 122.111097 288.871785 
L 122.227712 286.936835 
L 123.160627 286.936835 
L 123.277241 288.123142 
L 125.60953 288.18073 
L 125.726144 286.606663 
L 126.65906 286.606663 
L 126.775674 288.249835 
L 127.825204 288.249835 
L 127.941818 287.126876 
L 128.874734 287.126876 
L 128.991348 287.852479 
L 130.157492 287.852479 
L 130.274107 287.245505 
L 131.207022 287.245505 
L 131.323636 288.196089 
L 132.373166 288.196089 
L 132.489781 286.969085 
L 133.422696 286.969085 
L 133.53931 285.940566 
L 134.705455 285.940566 
L 134.822069 287.236292 
L 135.754984 287.236292 
L 135.988213 287.362985 
L 136.921129 287.362985 
L 137.154357 287.172947 
L 138.203887 287.172947 
L 138.320502 288.07477 
L 139.253417 288.07477 
L 139.370031 287.201738 
L 140.419561 287.201738 
L 140.65279 286.850453 
L 141.469091 286.850453 
L 141.585705 288.710539 
L 142.75185 288.710539 
L 142.868464 287.858239 
L 144.967524 287.783374 
L 145.084138 286.931075 
L 146.017053 286.931075 
L 146.133668 287.658602 
L 147.299812 287.658602 
L 147.416426 287.061224 
L 148.349342 287.061224 
L 148.465956 285.68142 
L 149.515486 285.68142 
L 149.6321 284.696668 
L 150.798245 284.696668 
L 150.914859 285.246057 
L 151.847774 285.246057 
L 151.964389 283.857806 
L 153.013918 283.857806 
L 153.247147 283.5691 
L 154.063448 283.5691 
L 154.180063 282.851941 
L 155.346207 282.851941 
L 155.579436 282.519851 
L 156.395737 282.519851 
L 156.512351 283.331837 
L 157.561881 283.331837 
L 157.678495 282.583196 
L 158.611411 282.583196 
L 158.728025 281.322024 
L 159.894169 281.322024 
L 160.010784 279.491884 
L 161.060313 279.491884 
L 161.176928 279.024271 
L 162.109843 279.024271 
L 162.226458 277.567299 
L 163.392602 277.567299 
L 163.509216 276.947269 
L 164.442132 276.947269 
L 164.558746 274.457558 
L 165.608276 274.457558 
L 165.72489 271.507912 
L 166.657806 271.507912 
L 166.77442 268.447312 
L 167.940564 268.447312 
L 168.057179 264.790863 
L 168.990094 264.790863 
L 169.106708 260.388869 
L 170.156238 260.388869 
L 170.272853 254.969853 
L 171.205768 254.969853 
L 171.322382 249.769658 
L 172.488527 249.769658 
L 172.605141 247.36825 
L 173.654671 247.36825 
L 173.771285 243.008862 
L 174.704201 243.008862 
L 174.820815 237.117617 
L 175.986959 237.117617 
L 176.103574 230.892381 
L 177.036489 230.892381 
L 177.153103 225.266064 
L 178.202633 225.266064 
L 178.319248 217.085137 
L 179.252163 217.085137 
L 179.368777 210.844164 
L 180.534922 210.844164 
L 180.651536 204.005789 
L 181.584451 204.005789 
L 181.701066 194.873127 
L 182.750596 194.873127 
L 182.86721 191.271979 
L 183.800125 191.271979 
L 183.91674 184.447824 
L 185.082884 184.447824 
L 185.199498 176.18397 
L 186.249028 176.18397 
L 186.365643 167.596488 
L 187.298558 167.596488 
L 187.415172 157.986224 
L 188.581317 157.986224 
L 188.697931 149.088919 
L 189.630846 149.088919 
L 189.747461 142.017143 
L 190.796991 142.017143 
L 190.913605 134.80137 
L 191.84652 134.80137 
L 191.963135 127.403265 
L 193.129279 127.403265 
L 193.245893 118.720565 
L 194.178809 118.720565 
L 194.295423 111.163497 
L 195.344953 111.163497 
L 195.461567 103.263978 
L 196.627712 103.263978 
L 196.744326 94.052249 
L 197.677241 94.052249 
L 197.793856 89.946242 
L 198.843386 89.946242 
L 198.96 82.159219 
L 199.892915 82.159219 
L 200.00953 77.89312 
L 201.175674 77.89312 
L 201.292288 71.834866 
L 202.225204 71.834866 
L 202.341818 68.108956 
L 203.391348 68.108956 
L 203.507962 63.766821 
L 204.440878 63.766821 
L 204.557492 60.530393 
L 205.723636 60.530393 
L 205.840251 57.518573 
L 206.773166 57.518573 
L 206.889781 56.804456 
L 207.93931 56.804456 
L 208.055925 54.549332 
L 209.222069 54.549332 
L 209.338683 54.161187 
L 210.271599 54.161187 
L 210.388213 53.568 
L 211.437743 53.568 
L 211.554357 54.017217 
L 212.487273 54.017217 
L 212.603887 55.266866 
L 213.770031 55.266866 
L 213.886646 57.645235 
L 214.819561 57.645235 
L 214.936176 59.303755 
L 215.985705 59.303755 
L 216.10232 63.69773 
L 217.035235 63.69773 
L 217.15185 62.920309 
L 218.317994 62.920309 
L 218.434608 69.606226 
L 219.367524 69.606226 
L 219.484138 71.688994 
L 220.533668 71.688994 
L 220.650282 72.307095 
L 221.816426 72.307095 
L 221.933041 76.709116 
L 222.865956 76.709116 
L 222.982571 81.642069 
L 224.0321 81.642069 
L 224.148715 87.274173 
L 225.08163 87.274173 
L 225.198245 88.454704 
L 226.364389 88.454704 
L 226.481003 94.856182 
L 227.413918 94.856182 
L 227.530533 99.738094 
L 228.580063 99.738094 
L 228.696677 103.600284 
L 229.629592 103.600284 
L 229.746207 109.560648 
L 230.912351 109.560648 
L 231.028966 115.325174 
L 232.078495 115.325174 
L 232.19511 119.989782 
L 233.128025 119.989782 
L 233.244639 124.527698 
L 234.410784 124.527698 
L 234.527398 131.256278 
L 235.460313 131.256278 
L 235.576928 138.043586 
L 236.626458 138.043586 
L 236.743072 142.904002 
L 237.675987 142.904002 
L 237.792602 147.26339 
L 238.958746 147.26339 
L 239.075361 152.342627 
L 240.008276 152.342627 
L 240.12489 157.514022 
L 241.17442 157.514022 
L 241.291034 163.247462 
L 242.22395 163.247462 
L 242.340564 167.607236 
L 243.506708 167.607236 
L 243.623323 171.530883 
L 244.672853 171.530883 
L 244.789467 175.072531 
L 245.722382 175.072531 
L 245.838997 178.982729 
L 247.005141 178.982729 
L 247.121755 183.080689 
L 248.054671 183.080689 
L 248.171285 185.133114 
L 249.220815 185.133114 
L 249.337429 187.899628 
L 250.270345 187.899628 
L 250.386959 191.536879 
L 251.553103 191.536879 
L 251.669718 193.990127 
L 252.602633 193.990127 
L 252.719248 197.030746 
L 253.768777 197.030746 
L 253.885392 198.050055 
L 254.818307 198.050055 
L 254.934922 200.969772 
L 256.101066 200.969772 
L 256.21768 203.913658 
L 257.26721 203.913658 
L 257.383824 207.588527 
L 258.31674 207.588527 
L 258.433354 208.329487 
L 259.599498 208.329487 
L 259.716113 210.373865 
L 260.649028 210.373865 
L 260.765643 212.711914 
L 261.815172 212.711914 
L 261.931787 214.366989 
L 262.864702 214.366989 
L 262.981317 218.568599 
L 264.147461 218.568599 
L 264.264075 219.568314 
L 265.196991 219.568314 
L 265.313605 222.329068 
L 266.363135 222.329068 
L 266.479749 222.722588 
L 267.645893 222.722588 
L 267.762508 225.686454 
L 268.695423 225.686454 
L 268.812038 227.652122 
L 269.861567 227.652122 
L 270.094796 227.98074 
L 270.911097 227.98074 
L 271.027712 230.656281 
L 272.193856 230.656281 
L 272.31047 233.56445 
L 273.243386 233.56445 
L 273.36 234.12881 
L 274.40953 234.12881 
L 274.526144 236.173187 
L 275.45906 236.173187 
L 275.575674 238.591875 
L 276.741818 238.591875 
L 276.858433 239.288685 
L 277.791348 239.288685 
L 277.907962 242.116243 
L 280.240251 242.070164 
L 280.356865 243.751751 
L 281.289781 243.751751 
L 281.406395 244.19518 
L 282.455925 244.19518 
L 282.572539 245.786896 
L 283.505455 245.786896 
L 283.622069 245.2951 
L 284.788213 245.2951 
L 284.904828 247.955649 
L 285.837743 247.955649 
L 285.954357 251.201695 
L 287.003887 251.201695 
L 287.120502 250.184316 
L 288.053417 250.184316 
L 288.170031 251.359087 
L 289.336176 251.359087 
L 289.45279 252.614496 
L 290.50232 252.614496 
L 290.618934 254.871935 
L 291.55185 254.871935 
L 291.668464 255.626344 
L 292.834608 255.626344 
L 292.951223 257.492192 
L 293.884138 257.492192 
L 294.000752 256.317393 
L 295.050282 256.317393 
L 295.166897 257.238812 
L 296.099812 257.238812 
L 296.216426 259.586479 
L 297.382571 259.586479 
L 297.499185 258.81096 
L 298.4321 258.81096 
L 298.548715 259.732351 
L 299.598245 259.732351 
L 299.714859 261.759449 
L 300.647774 261.759449 
L 300.764389 259.76691 
L 301.930533 259.76691 
L 302.047147 261.523348 
L 303.096677 261.523348 
L 303.213292 262.699277 
L 304.146207 262.699277 
L 304.262821 261.997479 
L 305.428966 261.997479 
L 305.54558 263.993848 
L 306.478495 263.993848 
L 306.711724 264.276028 
L 307.644639 264.276028 
L 307.877868 264.068727 
L 308.694169 264.068727 
L 308.810784 265.658155 
L 309.976928 265.658155 
L 310.093542 268.034214 
L 311.026458 268.034214 
L 311.143072 266.735035 
L 312.192602 266.735035 
L 312.309216 268.112532 
L 313.242132 268.112532 
L 313.358746 267.673706 
L 315.691034 267.664115 
L 315.807649 268.757517 
L 316.740564 268.757517 
L 316.857179 270.689395 
L 318.023323 270.689395 
L 318.139937 270.236372 
L 319.072853 270.236372 
L 319.189467 270.806491 
L 320.238997 270.806491 
L 320.355611 269.677769 
L 321.288527 269.677769 
L 321.405141 269.159481 
L 322.571285 269.159481 
L 322.6879 271.0426 
L 323.620815 271.0426 
L 323.737429 270.282446 
L 324.786959 270.282446 
L 324.903574 271.775119 
L 326.069718 271.775119 
L 326.186332 273.202146 
L 327.119248 273.202146 
L 327.352476 273.058176 
L 328.285392 273.058176 
L 328.518621 273.190629 
L 329.334922 273.190629 
L 329.56815 273.36339 
L 330.61768 273.36339 
L 330.734295 274.046381 
L 331.66721 274.046381 
L 331.783824 274.745498 
L 332.833354 274.745498 
L 332.949969 276.071936 
L 333.882884 276.071936 
L 333.999498 275.58052 
L 335.165643 275.58052 
L 335.282257 276.357957 
L 336.215172 276.357957 
L 336.331787 276.835935 
L 337.381317 276.835935 
L 337.497931 275.797051 
L 338.664075 275.797051 
L 338.897304 275.643865 
L 339.713605 275.643865 
L 339.830219 277.647923 
L 340.879749 277.647923 
L 340.996364 276.835935 
L 341.929279 276.835935 
L 342.045893 278.152774 
L 343.212038 278.152774 
L 343.328652 277.60761 
L 344.261567 277.60761 
L 344.378182 278.828474 
L 345.427712 278.828474 
L 345.544326 277.653681 
L 346.477241 277.653681 
L 346.593856 276.444336 
L 347.76 276.444336 
L 347.876614 277.244808 
L 348.80953 277.244808 
L 348.926144 278.200766 
L 349.975674 278.200766 
L 350.208903 278.51174 
L 352.307962 278.540534 
L 352.541191 278.269871 
L 353.474107 278.269871 
L 353.590721 280.602177 
L 354.523636 280.602177 
L 354.640251 280.222096 
L 355.806395 280.222096 
L 355.923009 281.506305 
L 358.022069 281.575413 
L 358.138683 280.906239 
L 359.071599 280.906239 
L 359.188213 280.456287 
L 361.403887 280.417896 
L 361.520502 282.107136 
L 363.85279 282.05339 
L 363.969404 282.56477 
L 364.90232 282.56477 
L 365.018934 283.18979 
L 366.068464 283.18979 
L 366.185078 280.809492 
L 367.117994 280.809492 
L 367.351223 281.045601 
L 368.400752 281.045601 
L 368.517367 282.698372 
L 369.450282 282.698372 
L 369.683511 282.358604 
L 370.616426 282.358604 
L 370.733041 281.800004 
L 371.665956 281.800004 
L 371.899185 282.162806 
L 372.948715 282.162806 
L 373.065329 282.560162 
L 373.998245 282.560162 
L 374.114859 281.748174 
L 376.447147 281.71938 
L 376.563762 283.061177 
L 377.496677 283.061177 
L 377.613292 281.011047 
L 378.662821 281.011047 
L 378.779436 282.283739 
L 379.712351 282.283739 
L 379.828966 283.0439 
L 380.99511 283.0439 
L 381.111724 284.650599 
L 382.044639 284.650599 
L 382.161254 283.147556 
L 384.260313 283.084211 
L 384.376928 284.011375 
L 385.543072 284.011375 
L 385.659687 281.763147 
L 386.592602 281.763147 
L 386.709216 283.66585 
L 387.758746 283.66585 
L 387.991975 283.817881 
L 389.041505 283.817881 
L 389.158119 282.421952 
L 391.257179 282.318293 
L 391.373793 284.891316 
L 392.306708 284.891316 
L 392.423323 286.806303 
L 393.589467 286.806303 
L 393.706082 284.430613 
L 394.638997 284.430613 
L 394.755611 284.806086 
L 395.805141 284.806086 
L 395.921755 283.913476 
L 396.854671 283.913476 
L 397.0879 283.590982 
L 398.137429 283.590982 
L 398.254044 285.070989 
L 398.487273 285.070989 
L 398.487273 285.070989 
" clip-path="url(#p4b0a1994bd)" style="fill: none; stroke: #1f77b4; stroke-width: 1.5; stroke-linecap: square"/>
   </g>
   <g id="line2d_15">
    <path d="M 73.832727 295.488 
L 114.647774 295.378607 
L 118.962508 295.119202 
L 122.227712 294.709539 
L 125.026458 294.142355 
L 127.591975 293.400448 
L 130.040878 292.460947 
L 132.373166 291.333841 
L 134.705455 289.965974 
L 137.154357 288.263652 
L 139.60326 286.290236 
L 142.285392 283.829829 
L 145.084138 280.954176 
L 148.232727 277.388743 
L 151.847774 272.944945 
L 156.512351 266.828886 
L 171.78884 246.505203 
L 175.870345 241.593534 
L 179.602006 237.442228 
L 183.100439 233.881328 
L 186.365643 230.866003 
L 189.514232 228.249417 
L 192.662821 225.921616 
L 195.694796 223.951475 
L 198.726771 222.24283 
L 201.758746 220.788248 
L 204.790721 219.578207 
L 207.822696 218.6016 
L 210.971285 217.82135 
L 214.236489 217.248484 
L 217.501693 216.899498 
L 221.000125 216.754562 
L 224.615172 216.831876 
L 228.463448 217.142675 
L 232.544953 217.701101 
L 236.976301 218.540119 
L 241.757492 219.677412 
L 247.121755 221.190932 
L 253.185705 223.142119 
L 260.299185 225.672387 
L 269.39511 229.156004 
L 285.604514 235.651798 
L 302.513605 242.340122 
L 314.291661 246.759726 
L 325.136803 250.592779 
L 335.515486 254.026506 
L 345.777555 257.18902 
L 356.156238 260.153614 
L 366.651536 262.919561 
L 377.380063 265.517316 
L 388.458433 267.970943 
L 398.487273 270.00542 
L 398.487273 270.00542 
" clip-path="url(#p4b0a1994bd)" style="fill: none; stroke: #ff7f0e; stroke-width: 1.5; stroke-linecap: square"/>
   </g>
   <g id="patch_3">
    <path d="M 57.6 307.584 
L 57.6 41.472 
" style="fill: none; stroke: #000000; stroke-width: 0.8; stroke-linejoin: miter; stroke-linecap: square"/>
   </g>
   <g id="patch_4">
    <path d="M 414.72 307.584 
L 414.72 41.472 
" style="fill: none; stroke: #000000; stroke-width: 0.8; stroke-linejoin: miter; stroke-linecap: square"/>
   </g>
   <g id="patch_5">
    <path d="M 57.6 307.584 
L 414.72 307.584 
" style="fill: none; stroke: #000000; stroke-width: 0.8; stroke-linejoin: miter; stroke-linecap: square"/>
   </g>
   <g id="patch_6">
    <path d="M 57.6 41.472 
L 414.72 41.472 
" style="fill: none; stroke: #000000; stroke-width: 0.8; stroke-linejoin: miter; stroke-linecap: square"/>
   </g>
   <g id="legend_1">
    <g id="patch_7">
     <path d="M 279.310625 78.82825 
L 407.72 78.82825 
Q 409.72 78.82825 409.72 76.82825 
L 409.72 48.472 
Q 409.72 46.472 407.72 46.472 
L 279.310625 46.472 
Q 277.310625 46.472 277.310625 48.472 
L 277.310625 76.82825 
Q 277.310625 78.82825 279.310625 78.82825 
z
" style="fill: #ffffff; opacity: 0.8; stroke: #cccccc; stroke-linejoin: miter"/>
    </g>
    <g id="line2d_16">
     <path d="M 281.310625 54.570437 
L 291.310625 54.570437 
L 301.310625 54.570437 
" style="fill: none; stroke: #1f77b4; stroke-width: 1.5; stroke-linecap: square"/>
    </g>
    <g id="text_18">
     <!-- $T=441$ -->
     <g transform="translate(309.310625 58.070437) scale(0.1 -0.1)">
      <defs>
       <path id="DejaVuSans-Oblique-54" d="M 378 4666 
L 4325 4666 
L 4225 4134 
L 2559 4134 
L 1759 0 
L 1125 0 
L 1925 4134 
L 275 4134 
L 378 4666 
z
" transform="scale(0.015625)"/>
       <path id="DejaVuSans-3d" d="M 678 2906 
L 4684 2906 
L 4684 2381 
L 678 2381 
L 678 2906 
z
M 678 1631 
L 4684 1631 
L 4684 1100 
L 678 1100 
L 678 1631 
z
" transform="scale(0.015625)"/>
      </defs>
      <use xlink:href="#DejaVuSans-Oblique-54" transform="translate(0 0.09375)"/>
      <use xlink:href="#DejaVuSans-3d" transform="translate(80.566406 0.09375)"/>
      <use xlink:href="#DejaVuSans-34" transform="translate(183.837891 0.09375)"/>
      <use xlink:href="#DejaVuSans-34" transform="translate(247.460938 0.09375)"/>
      <use xlink:href="#DejaVuSans-31" transform="translate(311.083984 0.09375)"/>
     </g>
    </g>
    <g id="line2d_17">
     <path d="M 281.310625 69.248562 
L 291.310625 69.248562 
L 301.310625 69.248562 
" style="fill: none; stroke: #ff7f0e; stroke-width: 1.5; stroke-linecap: square"/>
    </g>
    <g id="text_19">
     <!-- Theoretische Kurve -->
     <g transform="translate(309.310625 72.748562) scale(0.1 -0.1)">
      <defs>
       <path id="DejaVuSans-54" d="M -19 4666 
L 3928 4666 
L 3928 4134 
L 2272 4134 
L 2272 0 
L 1638 0 
L 1638 4134 
L -19 4134 
L -19 4666 
z
" transform="scale(0.015625)"/>
       <path id="DejaVuSans-68" d="M 3513 2113 
L 3513 0 
L 2938 0 
L 2938 2094 
Q 2938 2591 2744 2837 
Q 2550 3084 2163 3084 
Q 1697 3084 1428 2787 
Q 1159 2491 1159 1978 
L 1159 0 
L 581 0 
L 581 4863 
L 1159 4863 
L 1159 2956 
Q 1366 3272 1645 3428 
Q 1925 3584 2291 3584 
Q 2894 3584 3203 3211 
Q 3513 2838 3513 2113 
z
" transform="scale(0.015625)"/>
       <path id="DejaVuSans-6f" d="M 1959 3097 
Q 1497 3097 1228 2736 
Q 959 2375 959 1747 
Q 959 1119 1226 758 
Q 1494 397 1959 397 
Q 2419 397 2687 759 
Q 2956 1122 2956 1747 
Q 2956 2369 2687 2733 
Q 2419 3097 1959 3097 
z
M 1959 3584 
Q 2709 3584 3137 3096 
Q 3566 2609 3566 1747 
Q 3566 888 3137 398 
Q 2709 -91 1959 -91 
Q 1206 -91 779 398 
Q 353 888 353 1747 
Q 353 2609 779 3096 
Q 1206 3584 1959 3584 
z
" transform="scale(0.015625)"/>
       <path id="DejaVuSans-72" d="M 2631 2963 
Q 2534 3019 2420 3045 
Q 2306 3072 2169 3072 
Q 1681 3072 1420 2755 
Q 1159 2438 1159 1844 
L 1159 0 
L 581 0 
L 581 3500 
L 1159 3500 
L 1159 2956 
Q 1341 3275 1631 3429 
Q 1922 3584 2338 3584 
Q 2397 3584 2469 3576 
Q 2541 3569 2628 3553 
L 2631 2963 
z
" transform="scale(0.015625)"/>
       <path id="DejaVuSans-74" d="M 1172 4494 
L 1172 3500 
L 2356 3500 
L 2356 3053 
L 1172 3053 
L 1172 1153 
Q 1172 725 1289 603 
Q 1406 481 1766 481 
L 2356 481 
L 2356 0 
L 1766 0 
Q 1100 0 847 248 
Q 594 497 594 1153 
L 594 3053 
L 172 3053 
L 172 3500 
L 594 3500 
L 594 4494 
L 1172 4494 
z
" transform="scale(0.015625)"/>
       <path id="DejaVuSans-73" d="M 2834 3397 
L 2834 2853 
Q 2591 2978 2328 3040 
Q 2066 3103 1784 3103 
Q 1356 3103 1142 2972 
Q 928 2841 928 2578 
Q 928 2378 1081 2264 
Q 1234 2150 1697 2047 
L 1894 2003 
Q 2506 1872 2764 1633 
Q 3022 1394 3022 966 
Q 3022 478 2636 193 
Q 2250 -91 1575 -91 
Q 1294 -91 989 -36 
Q 684 19 347 128 
L 347 722 
Q 666 556 975 473 
Q 1284 391 1588 391 
Q 1994 391 2212 530 
Q 2431 669 2431 922 
Q 2431 1156 2273 1281 
Q 2116 1406 1581 1522 
L 1381 1569 
Q 847 1681 609 1914 
Q 372 2147 372 2553 
Q 372 3047 722 3315 
Q 1072 3584 1716 3584 
Q 2034 3584 2315 3537 
Q 2597 3491 2834 3397 
z
" transform="scale(0.015625)"/>
       <path id="DejaVuSans-63" d="M 3122 3366 
L 3122 2828 
Q 2878 2963 2633 3030 
Q 2388 3097 2138 3097 
Q 1578 3097 1268 2742 
Q 959 2388 959 1747 
Q 959 1106 1268 751 
Q 1578 397 2138 397 
Q 2388 397 2633 464 
Q 2878 531 3122 666 
L 3122 134 
Q 2881 22 2623 -34 
Q 2366 -91 2075 -91 
Q 1284 -91 818 406 
Q 353 903 353 1747 
Q 353 2603 823 3093 
Q 1294 3584 2113 3584 
Q 2378 3584 2631 3529 
Q 2884 3475 3122 3366 
z
" transform="scale(0.015625)"/>
       <path id="DejaVuSans-4b" d="M 628 4666 
L 1259 4666 
L 1259 2694 
L 3353 4666 
L 4166 4666 
L 1850 2491 
L 4331 0 
L 3500 0 
L 1259 2247 
L 1259 0 
L 628 0 
L 628 4666 
z
" transform="scale(0.015625)"/>
       <path id="DejaVuSans-76" d="M 191 3500 
L 800 3500 
L 1894 563 
L 2988 3500 
L 3597 3500 
L 2284 0 
L 1503 0 
L 191 3500 
z
" transform="scale(0.015625)"/>
      </defs>
      <use xlink:href="#DejaVuSans-54"/>
      <use xlink:href="#DejaVuSans-68" x="61.083984"/>
      <use xlink:href="#DejaVuSans-65" x="124.462891"/>
      <use xlink:href="#DejaVuSans-6f" x="185.986328"/>
      <use xlink:href="#DejaVuSans-72" x="247.167969"/>
      <use xlink:href="#DejaVuSans-65" x="286.03125"/>
      <use xlink:href="#DejaVuSans-74" x="347.554688"/>
      <use xlink:href="#DejaVuSans-69" x="386.763672"/>
      <use xlink:href="#DejaVuSans-73" x="414.546875"/>
      <use xlink:href="#DejaVuSans-63" x="466.646484"/>
      <use xlink:href="#DejaVuSans-68" x="521.626953"/>
      <use xlink:href="#DejaVuSans-65" x="585.005859"/>
      <use xlink:href="#DejaVuSans-20" x="646.529297"/>
      <use xlink:href="#DejaVuSans-4b" x="678.316406"/>
      <use xlink:href="#DejaVuSans-75" x="738.892578"/>
      <use xlink:href="#DejaVuSans-72" x="802.271484"/>
      <use xlink:href="#DejaVuSans-76" x="843.384766"/>
      <use xlink:href="#DejaVuSans-65" x="902.564453"/>
     </g>
    </g>
   </g>
  </g>
 </g>
 <defs>
  <clipPath id="p4b0a1994bd">
   <rect x="57.6" y="41.472" width="357.12" height="266.112"/>
  </clipPath>
 </defs>
</svg>
