<?xml version="1.0" encoding="utf-8" standalone="no"?>
<!DOCTYPE svg PUBLIC "-//W3C//DTD SVG 1.1//EN"
  "http://www.w3.org/Graphics/SVG/1.1/DTD/svg11.dtd">
<svg xmlns:xlink="http://www.w3.org/1999/xlink" width="427.18875pt" height="310.86825pt" viewBox="0 0 427.18875 310.86825" xmlns="http://www.w3.org/2000/svg" version="1.1">
 <metadata>
  <rdf:RDF xmlns:dc="http://purl.org/dc/elements/1.1/" xmlns:cc="http://creativecommons.org/ns#" xmlns:rdf="http://www.w3.org/1999/02/22-rdf-syntax-ns#">
   <cc:Work>
    <dc:type rdf:resource="http://purl.org/dc/dcmitype/StillImage"/>
    <dc:date>2024-07-12T18:18:26.632610</dc:date>
    <dc:format>image/svg+xml</dc:format>
    <dc:creator>
     <cc:Agent>
      <dc:title>Matplotlib v3.8.2, https://matplotlib.org/</dc:title>
     </cc:Agent>
    </dc:creator>
   </cc:Work>
  </rdf:RDF>
 </metadata>
 <defs>
  <style type="text/css">*{stroke-linejoin: round; stroke-linecap: butt}</style>
 </defs>
 <g id="figure_1">
  <g id="patch_1">
   <path d="M 0 310.86825 
L 427.18875 310.86825 
L 427.18875 0 
L 0 0 
z
" style="fill: #ffffff"/>
  </g>
  <g id="axes_1">
   <g id="patch_2">
    <path d="M 62.86875 273.312 
L 419.98875 273.312 
L 419.98875 7.2 
L 62.86875 7.2 
z
" style="fill: #ffffff"/>
   </g>
   <g id="matplotlib.axis_1">
    <g id="xtick_1">
     <g id="line2d_1">
      <defs>
       <path id="m8af7261725" d="M 0 0 
L 0 3.5 
" style="stroke: #000000; stroke-width: 0.8"/>
      </defs>
      <g>
       <use xlink:href="#m8af7261725" x="79.055535" y="273.312" style="stroke: #000000; stroke-width: 0.8"/>
      </g>
     </g>
     <g id="text_1">
      <!-- 0.0 -->
      <g transform="translate(71.103972 287.910437) scale(0.1 -0.1)">
       <defs>
        <path id="DejaVuSans-30" d="M 2034 4250 
Q 1547 4250 1301 3770 
Q 1056 3291 1056 2328 
Q 1056 1369 1301 889 
Q 1547 409 2034 409 
Q 2525 409 2770 889 
Q 3016 1369 3016 2328 
Q 3016 3291 2770 3770 
Q 2525 4250 2034 4250 
z
M 2034 4750 
Q 2819 4750 3233 4129 
Q 3647 3509 3647 2328 
Q 3647 1150 3233 529 
Q 2819 -91 2034 -91 
Q 1250 -91 836 529 
Q 422 1150 422 2328 
Q 422 3509 836 4129 
Q 1250 4750 2034 4750 
z
" transform="scale(0.015625)"/>
        <path id="DejaVuSans-2e" d="M 684 794 
L 1344 794 
L 1344 0 
L 684 0 
L 684 794 
z
" transform="scale(0.015625)"/>
       </defs>
       <use xlink:href="#DejaVuSans-30"/>
       <use xlink:href="#DejaVuSans-2e" x="63.623047"/>
       <use xlink:href="#DejaVuSans-30" x="95.410156"/>
      </g>
     </g>
    </g>
    <g id="xtick_2">
     <g id="line2d_2">
      <g>
       <use xlink:href="#m8af7261725" x="124.309512" y="273.312" style="stroke: #000000; stroke-width: 0.8"/>
      </g>
     </g>
     <g id="text_2">
      <!-- 0.2 -->
      <g transform="translate(116.357949 287.910437) scale(0.1 -0.1)">
       <defs>
        <path id="DejaVuSans-32" d="M 1228 531 
L 3431 531 
L 3431 0 
L 469 0 
L 469 531 
Q 828 903 1448 1529 
Q 2069 2156 2228 2338 
Q 2531 2678 2651 2914 
Q 2772 3150 2772 3378 
Q 2772 3750 2511 3984 
Q 2250 4219 1831 4219 
Q 1534 4219 1204 4116 
Q 875 4013 500 3803 
L 500 4441 
Q 881 4594 1212 4672 
Q 1544 4750 1819 4750 
Q 2544 4750 2975 4387 
Q 3406 4025 3406 3419 
Q 3406 3131 3298 2873 
Q 3191 2616 2906 2266 
Q 2828 2175 2409 1742 
Q 1991 1309 1228 531 
z
" transform="scale(0.015625)"/>
       </defs>
       <use xlink:href="#DejaVuSans-30"/>
       <use xlink:href="#DejaVuSans-2e" x="63.623047"/>
       <use xlink:href="#DejaVuSans-32" x="95.410156"/>
      </g>
     </g>
    </g>
    <g id="xtick_3">
     <g id="line2d_3">
      <g>
       <use xlink:href="#m8af7261725" x="169.563489" y="273.312" style="stroke: #000000; stroke-width: 0.8"/>
      </g>
     </g>
     <g id="text_3">
      <!-- 0.4 -->
      <g transform="translate(161.611926 287.910437) scale(0.1 -0.1)">
       <defs>
        <path id="DejaVuSans-34" d="M 2419 4116 
L 825 1625 
L 2419 1625 
L 2419 4116 
z
M 2253 4666 
L 3047 4666 
L 3047 1625 
L 3713 1625 
L 3713 1100 
L 3047 1100 
L 3047 0 
L 2419 0 
L 2419 1100 
L 313 1100 
L 313 1709 
L 2253 4666 
z
" transform="scale(0.015625)"/>
       </defs>
       <use xlink:href="#DejaVuSans-30"/>
       <use xlink:href="#DejaVuSans-2e" x="63.623047"/>
       <use xlink:href="#DejaVuSans-34" x="95.410156"/>
      </g>
     </g>
    </g>
    <g id="xtick_4">
     <g id="line2d_4">
      <g>
       <use xlink:href="#m8af7261725" x="214.817466" y="273.312" style="stroke: #000000; stroke-width: 0.8"/>
      </g>
     </g>
     <g id="text_4">
      <!-- 0.6 -->
      <g transform="translate(206.865903 287.910437) scale(0.1 -0.1)">
       <defs>
        <path id="DejaVuSans-36" d="M 2113 2584 
Q 1688 2584 1439 2293 
Q 1191 2003 1191 1497 
Q 1191 994 1439 701 
Q 1688 409 2113 409 
Q 2538 409 2786 701 
Q 3034 994 3034 1497 
Q 3034 2003 2786 2293 
Q 2538 2584 2113 2584 
z
M 3366 4563 
L 3366 3988 
Q 3128 4100 2886 4159 
Q 2644 4219 2406 4219 
Q 1781 4219 1451 3797 
Q 1122 3375 1075 2522 
Q 1259 2794 1537 2939 
Q 1816 3084 2150 3084 
Q 2853 3084 3261 2657 
Q 3669 2231 3669 1497 
Q 3669 778 3244 343 
Q 2819 -91 2113 -91 
Q 1303 -91 875 529 
Q 447 1150 447 2328 
Q 447 3434 972 4092 
Q 1497 4750 2381 4750 
Q 2619 4750 2861 4703 
Q 3103 4656 3366 4563 
z
" transform="scale(0.015625)"/>
       </defs>
       <use xlink:href="#DejaVuSans-30"/>
       <use xlink:href="#DejaVuSans-2e" x="63.623047"/>
       <use xlink:href="#DejaVuSans-36" x="95.410156"/>
      </g>
     </g>
    </g>
    <g id="xtick_5">
     <g id="line2d_5">
      <g>
       <use xlink:href="#m8af7261725" x="260.071442" y="273.312" style="stroke: #000000; stroke-width: 0.8"/>
      </g>
     </g>
     <g id="text_5">
      <!-- 0.8 -->
      <g transform="translate(252.11988 287.910437) scale(0.1 -0.1)">
       <defs>
        <path id="DejaVuSans-38" d="M 2034 2216 
Q 1584 2216 1326 1975 
Q 1069 1734 1069 1313 
Q 1069 891 1326 650 
Q 1584 409 2034 409 
Q 2484 409 2743 651 
Q 3003 894 3003 1313 
Q 3003 1734 2745 1975 
Q 2488 2216 2034 2216 
z
M 1403 2484 
Q 997 2584 770 2862 
Q 544 3141 544 3541 
Q 544 4100 942 4425 
Q 1341 4750 2034 4750 
Q 2731 4750 3128 4425 
Q 3525 4100 3525 3541 
Q 3525 3141 3298 2862 
Q 3072 2584 2669 2484 
Q 3125 2378 3379 2068 
Q 3634 1759 3634 1313 
Q 3634 634 3220 271 
Q 2806 -91 2034 -91 
Q 1263 -91 848 271 
Q 434 634 434 1313 
Q 434 1759 690 2068 
Q 947 2378 1403 2484 
z
M 1172 3481 
Q 1172 3119 1398 2916 
Q 1625 2713 2034 2713 
Q 2441 2713 2670 2916 
Q 2900 3119 2900 3481 
Q 2900 3844 2670 4047 
Q 2441 4250 2034 4250 
Q 1625 4250 1398 4047 
Q 1172 3844 1172 3481 
z
" transform="scale(0.015625)"/>
       </defs>
       <use xlink:href="#DejaVuSans-30"/>
       <use xlink:href="#DejaVuSans-2e" x="63.623047"/>
       <use xlink:href="#DejaVuSans-38" x="95.410156"/>
      </g>
     </g>
    </g>
    <g id="xtick_6">
     <g id="line2d_6">
      <g>
       <use xlink:href="#m8af7261725" x="305.325419" y="273.312" style="stroke: #000000; stroke-width: 0.8"/>
      </g>
     </g>
     <g id="text_6">
      <!-- 1.0 -->
      <g transform="translate(297.373857 287.910437) scale(0.1 -0.1)">
       <defs>
        <path id="DejaVuSans-31" d="M 794 531 
L 1825 531 
L 1825 4091 
L 703 3866 
L 703 4441 
L 1819 4666 
L 2450 4666 
L 2450 531 
L 3481 531 
L 3481 0 
L 794 0 
L 794 531 
z
" transform="scale(0.015625)"/>
       </defs>
       <use xlink:href="#DejaVuSans-31"/>
       <use xlink:href="#DejaVuSans-2e" x="63.623047"/>
       <use xlink:href="#DejaVuSans-30" x="95.410156"/>
      </g>
     </g>
    </g>
    <g id="xtick_7">
     <g id="line2d_7">
      <g>
       <use xlink:href="#m8af7261725" x="350.579396" y="273.312" style="stroke: #000000; stroke-width: 0.8"/>
      </g>
     </g>
     <g id="text_7">
      <!-- 1.2 -->
      <g transform="translate(342.627834 287.910437) scale(0.1 -0.1)">
       <use xlink:href="#DejaVuSans-31"/>
       <use xlink:href="#DejaVuSans-2e" x="63.623047"/>
       <use xlink:href="#DejaVuSans-32" x="95.410156"/>
      </g>
     </g>
    </g>
    <g id="xtick_8">
     <g id="line2d_8">
      <g>
       <use xlink:href="#m8af7261725" x="395.833373" y="273.312" style="stroke: #000000; stroke-width: 0.8"/>
      </g>
     </g>
     <g id="text_8">
      <!-- 1.4 -->
      <g transform="translate(387.881811 287.910437) scale(0.1 -0.1)">
       <use xlink:href="#DejaVuSans-31"/>
       <use xlink:href="#DejaVuSans-2e" x="63.623047"/>
       <use xlink:href="#DejaVuSans-34" x="95.410156"/>
      </g>
     </g>
    </g>
    <g id="text_9">
     <!-- Wellenlänge in m -->
     <g transform="translate(198.199844 301.588562) scale(0.1 -0.1)">
      <defs>
       <path id="DejaVuSans-57" d="M 213 4666 
L 850 4666 
L 1831 722 
L 2809 4666 
L 3519 4666 
L 4500 722 
L 5478 4666 
L 6119 4666 
L 4947 0 
L 4153 0 
L 3169 4050 
L 2175 0 
L 1381 0 
L 213 4666 
z
" transform="scale(0.015625)"/>
       <path id="DejaVuSans-65" d="M 3597 1894 
L 3597 1613 
L 953 1613 
Q 991 1019 1311 708 
Q 1631 397 2203 397 
Q 2534 397 2845 478 
Q 3156 559 3463 722 
L 3463 178 
Q 3153 47 2828 -22 
Q 2503 -91 2169 -91 
Q 1331 -91 842 396 
Q 353 884 353 1716 
Q 353 2575 817 3079 
Q 1281 3584 2069 3584 
Q 2775 3584 3186 3129 
Q 3597 2675 3597 1894 
z
M 3022 2063 
Q 3016 2534 2758 2815 
Q 2500 3097 2075 3097 
Q 1594 3097 1305 2825 
Q 1016 2553 972 2059 
L 3022 2063 
z
" transform="scale(0.015625)"/>
       <path id="DejaVuSans-6c" d="M 603 4863 
L 1178 4863 
L 1178 0 
L 603 0 
L 603 4863 
z
" transform="scale(0.015625)"/>
       <path id="DejaVuSans-6e" d="M 3513 2113 
L 3513 0 
L 2938 0 
L 2938 2094 
Q 2938 2591 2744 2837 
Q 2550 3084 2163 3084 
Q 1697 3084 1428 2787 
Q 1159 2491 1159 1978 
L 1159 0 
L 581 0 
L 581 3500 
L 1159 3500 
L 1159 2956 
Q 1366 3272 1645 3428 
Q 1925 3584 2291 3584 
Q 2894 3584 3203 3211 
Q 3513 2838 3513 2113 
z
" transform="scale(0.015625)"/>
       <path id="DejaVuSans-e4" d="M 2194 1759 
Q 1497 1759 1228 1600 
Q 959 1441 959 1056 
Q 959 750 1161 570 
Q 1363 391 1709 391 
Q 2188 391 2477 730 
Q 2766 1069 2766 1631 
L 2766 1759 
L 2194 1759 
z
M 3341 1997 
L 3341 0 
L 2766 0 
L 2766 531 
Q 2569 213 2275 61 
Q 1981 -91 1556 -91 
Q 1019 -91 701 211 
Q 384 513 384 1019 
Q 384 1609 779 1909 
Q 1175 2209 1959 2209 
L 2766 2209 
L 2766 2266 
Q 2766 2663 2505 2880 
Q 2244 3097 1772 3097 
Q 1472 3097 1187 3025 
Q 903 2953 641 2809 
L 641 3341 
Q 956 3463 1253 3523 
Q 1550 3584 1831 3584 
Q 2591 3584 2966 3190 
Q 3341 2797 3341 1997 
z
M 2150 4850 
L 2784 4850 
L 2784 4219 
L 2150 4219 
L 2150 4850 
z
M 928 4850 
L 1562 4850 
L 1562 4219 
L 928 4219 
L 928 4850 
z
" transform="scale(0.015625)"/>
       <path id="DejaVuSans-67" d="M 2906 1791 
Q 2906 2416 2648 2759 
Q 2391 3103 1925 3103 
Q 1463 3103 1205 2759 
Q 947 2416 947 1791 
Q 947 1169 1205 825 
Q 1463 481 1925 481 
Q 2391 481 2648 825 
Q 2906 1169 2906 1791 
z
M 3481 434 
Q 3481 -459 3084 -895 
Q 2688 -1331 1869 -1331 
Q 1566 -1331 1297 -1286 
Q 1028 -1241 775 -1147 
L 775 -588 
Q 1028 -725 1275 -790 
Q 1522 -856 1778 -856 
Q 2344 -856 2625 -561 
Q 2906 -266 2906 331 
L 2906 616 
Q 2728 306 2450 153 
Q 2172 0 1784 0 
Q 1141 0 747 490 
Q 353 981 353 1791 
Q 353 2603 747 3093 
Q 1141 3584 1784 3584 
Q 2172 3584 2450 3431 
Q 2728 3278 2906 2969 
L 2906 3500 
L 3481 3500 
L 3481 434 
z
" transform="scale(0.015625)"/>
       <path id="DejaVuSans-20" transform="scale(0.015625)"/>
       <path id="DejaVuSans-69" d="M 603 3500 
L 1178 3500 
L 1178 0 
L 603 0 
L 603 3500 
z
M 603 4863 
L 1178 4863 
L 1178 4134 
L 603 4134 
L 603 4863 
z
" transform="scale(0.015625)"/>
       <path id="DejaVuSans-6d" d="M 3328 2828 
Q 3544 3216 3844 3400 
Q 4144 3584 4550 3584 
Q 5097 3584 5394 3201 
Q 5691 2819 5691 2113 
L 5691 0 
L 5113 0 
L 5113 2094 
Q 5113 2597 4934 2840 
Q 4756 3084 4391 3084 
Q 3944 3084 3684 2787 
Q 3425 2491 3425 1978 
L 3425 0 
L 2847 0 
L 2847 2094 
Q 2847 2600 2669 2842 
Q 2491 3084 2119 3084 
Q 1678 3084 1418 2786 
Q 1159 2488 1159 1978 
L 1159 0 
L 581 0 
L 581 3500 
L 1159 3500 
L 1159 2956 
Q 1356 3278 1631 3431 
Q 1906 3584 2284 3584 
Q 2666 3584 2933 3390 
Q 3200 3197 3328 2828 
z
" transform="scale(0.015625)"/>
      </defs>
      <use xlink:href="#DejaVuSans-57"/>
      <use xlink:href="#DejaVuSans-65" x="93.001953"/>
      <use xlink:href="#DejaVuSans-6c" x="154.525391"/>
      <use xlink:href="#DejaVuSans-6c" x="182.308594"/>
      <use xlink:href="#DejaVuSans-65" x="210.091797"/>
      <use xlink:href="#DejaVuSans-6e" x="271.615234"/>
      <use xlink:href="#DejaVuSans-6c" x="334.994141"/>
      <use xlink:href="#DejaVuSans-e4" x="362.777344"/>
      <use xlink:href="#DejaVuSans-6e" x="424.056641"/>
      <use xlink:href="#DejaVuSans-67" x="487.435547"/>
      <use xlink:href="#DejaVuSans-65" x="550.912109"/>
      <use xlink:href="#DejaVuSans-20" x="612.435547"/>
      <use xlink:href="#DejaVuSans-69" x="644.222656"/>
      <use xlink:href="#DejaVuSans-6e" x="672.005859"/>
      <use xlink:href="#DejaVuSans-20" x="735.384766"/>
      <use xlink:href="#DejaVuSans-6d" x="767.171875"/>
     </g>
    </g>
    <g id="text_10">
     <!-- 1e−5 -->
     <g transform="translate(392.730937 300.588562) scale(0.1 -0.1)">
      <defs>
       <path id="DejaVuSans-2212" d="M 678 2272 
L 4684 2272 
L 4684 1741 
L 678 1741 
L 678 2272 
z
" transform="scale(0.015625)"/>
       <path id="DejaVuSans-35" d="M 691 4666 
L 3169 4666 
L 3169 4134 
L 1269 4134 
L 1269 2991 
Q 1406 3038 1543 3061 
Q 1681 3084 1819 3084 
Q 2600 3084 3056 2656 
Q 3513 2228 3513 1497 
Q 3513 744 3044 326 
Q 2575 -91 1722 -91 
Q 1428 -91 1123 -41 
Q 819 9 494 109 
L 494 744 
Q 775 591 1075 516 
Q 1375 441 1709 441 
Q 2250 441 2565 725 
Q 2881 1009 2881 1497 
Q 2881 1984 2565 2268 
Q 2250 2553 1709 2553 
Q 1456 2553 1204 2497 
Q 953 2441 691 2322 
L 691 4666 
z
" transform="scale(0.015625)"/>
      </defs>
      <use xlink:href="#DejaVuSans-31"/>
      <use xlink:href="#DejaVuSans-65" x="63.623047"/>
      <use xlink:href="#DejaVuSans-2212" x="125.146484"/>
      <use xlink:href="#DejaVuSans-35" x="208.935547"/>
     </g>
    </g>
   </g>
   <g id="matplotlib.axis_2">
    <g id="ytick_1">
     <g id="line2d_9">
      <defs>
       <path id="mf7c337464b" d="M 0 0 
L -3.5 0 
" style="stroke: #000000; stroke-width: 0.8"/>
      </defs>
      <g>
       <use xlink:href="#mf7c337464b" x="62.86875" y="261.216" style="stroke: #000000; stroke-width: 0.8"/>
      </g>
     </g>
     <g id="text_11">
      <!-- 0.0000 -->
      <g transform="translate(20.878125 265.015219) scale(0.1 -0.1)">
       <use xlink:href="#DejaVuSans-30"/>
       <use xlink:href="#DejaVuSans-2e" x="63.623047"/>
       <use xlink:href="#DejaVuSans-30" x="95.410156"/>
       <use xlink:href="#DejaVuSans-30" x="159.033203"/>
       <use xlink:href="#DejaVuSans-30" x="222.65625"/>
       <use xlink:href="#DejaVuSans-30" x="286.279297"/>
      </g>
     </g>
    </g>
    <g id="ytick_2">
     <g id="line2d_10">
      <g>
       <use xlink:href="#mf7c337464b" x="62.86875" y="202.204621" style="stroke: #000000; stroke-width: 0.8"/>
      </g>
     </g>
     <g id="text_12">
      <!-- 0.0002 -->
      <g transform="translate(20.878125 206.003839) scale(0.1 -0.1)">
       <use xlink:href="#DejaVuSans-30"/>
       <use xlink:href="#DejaVuSans-2e" x="63.623047"/>
       <use xlink:href="#DejaVuSans-30" x="95.410156"/>
       <use xlink:href="#DejaVuSans-30" x="159.033203"/>
       <use xlink:href="#DejaVuSans-30" x="222.65625"/>
       <use xlink:href="#DejaVuSans-32" x="286.279297"/>
      </g>
     </g>
    </g>
    <g id="ytick_3">
     <g id="line2d_11">
      <g>
       <use xlink:href="#mf7c337464b" x="62.86875" y="143.193241" style="stroke: #000000; stroke-width: 0.8"/>
      </g>
     </g>
     <g id="text_13">
      <!-- 0.0004 -->
      <g transform="translate(20.878125 146.99246) scale(0.1 -0.1)">
       <use xlink:href="#DejaVuSans-30"/>
       <use xlink:href="#DejaVuSans-2e" x="63.623047"/>
       <use xlink:href="#DejaVuSans-30" x="95.410156"/>
       <use xlink:href="#DejaVuSans-30" x="159.033203"/>
       <use xlink:href="#DejaVuSans-30" x="222.65625"/>
       <use xlink:href="#DejaVuSans-34" x="286.279297"/>
      </g>
     </g>
    </g>
    <g id="ytick_4">
     <g id="line2d_12">
      <g>
       <use xlink:href="#mf7c337464b" x="62.86875" y="84.181862" style="stroke: #000000; stroke-width: 0.8"/>
      </g>
     </g>
     <g id="text_14">
      <!-- 0.0006 -->
      <g transform="translate(20.878125 87.98108) scale(0.1 -0.1)">
       <use xlink:href="#DejaVuSans-30"/>
       <use xlink:href="#DejaVuSans-2e" x="63.623047"/>
       <use xlink:href="#DejaVuSans-30" x="95.410156"/>
       <use xlink:href="#DejaVuSans-30" x="159.033203"/>
       <use xlink:href="#DejaVuSans-30" x="222.65625"/>
       <use xlink:href="#DejaVuSans-36" x="286.279297"/>
      </g>
     </g>
    </g>
    <g id="ytick_5">
     <g id="line2d_13">
      <g>
       <use xlink:href="#mf7c337464b" x="62.86875" y="25.170482" style="stroke: #000000; stroke-width: 0.8"/>
      </g>
     </g>
     <g id="text_15">
      <!-- 0.0008 -->
      <g transform="translate(20.878125 28.969701) scale(0.1 -0.1)">
       <use xlink:href="#DejaVuSans-30"/>
       <use xlink:href="#DejaVuSans-2e" x="63.623047"/>
       <use xlink:href="#DejaVuSans-30" x="95.410156"/>
       <use xlink:href="#DejaVuSans-30" x="159.033203"/>
       <use xlink:href="#DejaVuSans-30" x="222.65625"/>
       <use xlink:href="#DejaVuSans-38" x="286.279297"/>
      </g>
     </g>
    </g>
    <g id="text_16">
     <!-- Spannung in V -->
     <g transform="translate(14.798438 176.673969) rotate(-90) scale(0.1 -0.1)">
      <defs>
       <path id="DejaVuSans-53" d="M 3425 4513 
L 3425 3897 
Q 3066 4069 2747 4153 
Q 2428 4238 2131 4238 
Q 1616 4238 1336 4038 
Q 1056 3838 1056 3469 
Q 1056 3159 1242 3001 
Q 1428 2844 1947 2747 
L 2328 2669 
Q 3034 2534 3370 2195 
Q 3706 1856 3706 1288 
Q 3706 609 3251 259 
Q 2797 -91 1919 -91 
Q 1588 -91 1214 -16 
Q 841 59 441 206 
L 441 856 
Q 825 641 1194 531 
Q 1563 422 1919 422 
Q 2459 422 2753 634 
Q 3047 847 3047 1241 
Q 3047 1584 2836 1778 
Q 2625 1972 2144 2069 
L 1759 2144 
Q 1053 2284 737 2584 
Q 422 2884 422 3419 
Q 422 4038 858 4394 
Q 1294 4750 2059 4750 
Q 2388 4750 2728 4690 
Q 3069 4631 3425 4513 
z
" transform="scale(0.015625)"/>
       <path id="DejaVuSans-70" d="M 1159 525 
L 1159 -1331 
L 581 -1331 
L 581 3500 
L 1159 3500 
L 1159 2969 
Q 1341 3281 1617 3432 
Q 1894 3584 2278 3584 
Q 2916 3584 3314 3078 
Q 3713 2572 3713 1747 
Q 3713 922 3314 415 
Q 2916 -91 2278 -91 
Q 1894 -91 1617 61 
Q 1341 213 1159 525 
z
M 3116 1747 
Q 3116 2381 2855 2742 
Q 2594 3103 2138 3103 
Q 1681 3103 1420 2742 
Q 1159 2381 1159 1747 
Q 1159 1113 1420 752 
Q 1681 391 2138 391 
Q 2594 391 2855 752 
Q 3116 1113 3116 1747 
z
" transform="scale(0.015625)"/>
       <path id="DejaVuSans-61" d="M 2194 1759 
Q 1497 1759 1228 1600 
Q 959 1441 959 1056 
Q 959 750 1161 570 
Q 1363 391 1709 391 
Q 2188 391 2477 730 
Q 2766 1069 2766 1631 
L 2766 1759 
L 2194 1759 
z
M 3341 1997 
L 3341 0 
L 2766 0 
L 2766 531 
Q 2569 213 2275 61 
Q 1981 -91 1556 -91 
Q 1019 -91 701 211 
Q 384 513 384 1019 
Q 384 1609 779 1909 
Q 1175 2209 1959 2209 
L 2766 2209 
L 2766 2266 
Q 2766 2663 2505 2880 
Q 2244 3097 1772 3097 
Q 1472 3097 1187 3025 
Q 903 2953 641 2809 
L 641 3341 
Q 956 3463 1253 3523 
Q 1550 3584 1831 3584 
Q 2591 3584 2966 3190 
Q 3341 2797 3341 1997 
z
" transform="scale(0.015625)"/>
       <path id="DejaVuSans-75" d="M 544 1381 
L 544 3500 
L 1119 3500 
L 1119 1403 
Q 1119 906 1312 657 
Q 1506 409 1894 409 
Q 2359 409 2629 706 
Q 2900 1003 2900 1516 
L 2900 3500 
L 3475 3500 
L 3475 0 
L 2900 0 
L 2900 538 
Q 2691 219 2414 64 
Q 2138 -91 1772 -91 
Q 1169 -91 856 284 
Q 544 659 544 1381 
z
M 1991 3584 
L 1991 3584 
z
" transform="scale(0.015625)"/>
       <path id="DejaVuSans-56" d="M 1831 0 
L 50 4666 
L 709 4666 
L 2188 738 
L 3669 4666 
L 4325 4666 
L 2547 0 
L 1831 0 
z
" transform="scale(0.015625)"/>
      </defs>
      <use xlink:href="#DejaVuSans-53"/>
      <use xlink:href="#DejaVuSans-70" x="63.476562"/>
      <use xlink:href="#DejaVuSans-61" x="126.953125"/>
      <use xlink:href="#DejaVuSans-6e" x="188.232422"/>
      <use xlink:href="#DejaVuSans-6e" x="251.611328"/>
      <use xlink:href="#DejaVuSans-75" x="314.990234"/>
      <use xlink:href="#DejaVuSans-6e" x="378.369141"/>
      <use xlink:href="#DejaVuSans-67" x="441.748047"/>
      <use xlink:href="#DejaVuSans-20" x="505.224609"/>
      <use xlink:href="#DejaVuSans-69" x="537.011719"/>
      <use xlink:href="#DejaVuSans-6e" x="564.794922"/>
      <use xlink:href="#DejaVuSans-20" x="628.173828"/>
      <use xlink:href="#DejaVuSans-56" x="659.960938"/>
     </g>
    </g>
   </g>
   <g id="line2d_14">
    <path d="M 79.101477 259.262222 
L 85.141562 259.18281 
L 85.373873 259.426635 
L 86.303117 259.426635 
L 86.535428 259.194648 
L 88.626226 259.206321 
L 88.858537 259.383066 
L 89.787781 259.383066 
L 90.020092 259.237067 
L 96.640954 259.236327 
L 96.873265 259.095137 
L 99.893307 259.192182 
L 100.125618 259.328193 
L 101.171017 259.328193 
L 101.403328 259.200567 
L 104.655681 259.131513 
L 105.004148 259.086135 
L 107.908034 259.007587 
L 108.140345 259.301681 
L 110.231144 259.333742 
L 110.463455 259.456065 
L 111.392699 259.456065 
L 111.62501 259.239204 
L 117.200472 259.339496 
L 117.432783 259.071092 
L 118.245871 259.071092 
L 118.478182 259.275786 
L 120.452825 259.227695 
L 120.685136 258.9373 
L 121.730536 258.9373 
L 121.962847 259.297365 
L 122.775935 259.297365 
L 123.008246 259.41266 
L 123.93749 259.41266 
L 124.169801 259.108085 
L 135.436881 259.073558 
L 135.669192 259.303325 
L 136.482281 259.303325 
L 136.714592 259.120416 
L 137.759991 259.120416 
L 137.992302 259.252974 
L 138.80539 259.252974 
L 139.037701 259.04643 
L 139.966945 259.04643 
L 140.199256 259.268141 
L 143.335454 259.178988 
L 143.567764 259.034715 
L 145.542408 258.949015 
L 145.890874 258.909556 
L 150.304782 258.809058 
L 150.537093 258.545791 
L 151.350181 258.545791 
L 151.582492 258.43173 
L 154.834845 258.389188 
L 155.067156 258.240723 
L 157.041799 258.135786 
L 157.27411 257.926777 
L 158.319509 257.926777 
L 158.55182 257.789903 
L 159.364909 257.789903 
L 159.481064 257.273644 
L 160.526463 257.273644 
L 160.758774 257.500369 
L 161.571863 257.500369 
L 161.688018 256.839182 
L 162.849573 256.839182 
L 162.965728 256.397323 
L 163.894972 256.397323 
L 164.127283 256.070346 
L 165.056527 256.070346 
L 165.172682 255.263283 
L 166.101926 255.263283 
L 166.334237 254.885215 
L 167.379636 254.885215 
L 167.495792 253.615246 
L 168.541191 253.615246 
L 168.657347 252.602256 
L 169.58659 252.602256 
L 169.702746 251.689147 
L 170.8643 251.689147 
L 170.980456 250.5214 
L 171.9097 250.5214 
L 172.025855 249.152457 
L 173.071254 249.152457 
L 173.18741 247.919193 
L 174.116654 247.919193 
L 174.232809 246.451149 
L 175.394364 246.451149 
L 175.510519 245.092436 
L 176.439763 245.092436 
L 176.555919 243.23872 
L 177.601318 243.23872 
L 177.717473 241.553072 
L 178.646717 241.553072 
L 178.762873 239.468522 
L 179.924427 239.468522 
L 180.040583 237.821101 
L 181.085982 237.821101 
L 181.202138 235.817069 
L 182.131381 235.817069 
L 182.247537 233.881764 
L 183.409092 233.881764 
L 183.525247 232.338743 
L 184.454491 232.338743 
L 184.570646 230.303508 
L 185.616045 230.303508 
L 185.732201 228.46436 
L 186.661445 228.46436 
L 186.7776 226.29162 
L 187.939155 226.29162 
L 188.05531 224.139622 
L 188.984554 224.139622 
L 189.10071 221.680441 
L 190.146109 221.680441 
L 190.262264 219.510829 
L 191.423819 219.510829 
L 191.539975 217.807082 
L 192.469218 217.807082 
L 192.585374 216.053205 
L 193.630773 216.053205 
L 193.746929 213.909351 
L 194.676172 213.909351 
L 194.792328 211.956458 
L 195.953883 211.956458 
L 196.070038 210.281065 
L 196.999282 210.281065 
L 197.115437 208.156449 
L 198.160837 208.156449 
L 198.276992 206.663166 
L 199.206236 206.663166 
L 199.322391 205.287021 
L 200.483946 205.287021 
L 200.600101 204.069528 
L 201.529345 204.069528 
L 201.645501 203.042287 
L 202.6909 203.042287 
L 202.807055 202.203647 
L 203.96861 202.203647 
L 204.084766 201.442223 
L 205.014009 201.442223 
L 205.130165 200.621611 
L 206.175564 200.621611 
L 206.407875 200.38052 
L 208.498674 200.45452 
L 208.730985 200.209121 
L 209.544073 200.209121 
L 209.776384 200.585614 
L 210.705628 200.585614 
L 210.937938 200.780676 
L 211.751027 200.780676 
L 211.867182 201.434817 
L 213.028737 201.434817 
L 213.144892 202.143839 
L 214.190292 202.143839 
L 214.306447 202.837606 
L 215.235691 202.837606 
L 215.351846 203.806071 
L 216.513401 203.806071 
L 216.629557 204.724731 
L 217.5588 204.724731 
L 217.674956 205.83267 
L 218.720355 205.83267 
L 218.836511 206.785851 
L 219.765754 206.785851 
L 219.88191 207.926688 
L 221.043465 207.926688 
L 221.15962 209.294602 
L 222.088864 209.294602 
L 222.205019 210.561399 
L 223.250419 210.561399 
L 223.366574 211.652785 
L 224.295818 211.652785 
L 224.411973 213.294157 
L 225.573528 213.294157 
L 225.689683 214.71282 
L 226.735083 214.71282 
L 226.851238 216.358765 
L 227.780482 216.358765 
L 227.896637 217.814488 
L 229.058192 217.814488 
L 229.174348 219.055202 
L 230.103591 219.055202 
L 230.219747 220.495463 
L 231.265146 220.495463 
L 231.381302 222.076909 
L 232.310545 222.076909 
L 232.426701 223.848254 
L 233.588256 223.848254 
L 233.704411 225.145471 
L 234.633655 225.145471 
L 234.74981 227.015453 
L 235.79521 227.015453 
L 235.911365 228.257672 
L 236.840609 228.257672 
L 236.956764 230.000161 
L 238.118319 230.000161 
L 238.234475 231.36952 
L 239.279874 231.36952 
L 239.396029 232.508295 
L 240.325273 232.508295 
L 240.441428 233.873337 
L 241.602983 233.873337 
L 241.719139 234.968205 
L 242.648382 234.968205 
L 242.764538 236.112025 
L 243.809937 236.112025 
L 243.926093 237.102944 
L 244.855336 237.102944 
L 244.971492 238.181781 
L 246.133047 238.181781 
L 246.249202 239.047419 
L 247.178446 239.047419 
L 247.294601 239.903188 
L 248.340001 239.903188 
L 248.456156 240.640789 
L 249.617711 240.640789 
L 249.733866 241.220015 
L 250.66311 241.220015 
L 250.779266 242.146812 
L 251.824665 242.146812 
L 251.94082 242.844129 
L 252.870064 242.844129 
L 253.102375 243.12404 
L 254.147774 243.12404 
L 254.26393 243.730728 
L 255.193173 243.730728 
L 255.309329 244.216568 
L 256.354728 244.216568 
L 256.587039 244.539641 
L 257.400127 244.539641 
L 257.516283 245.060009 
L 258.677838 245.060009 
L 258.793993 245.566811 
L 259.723237 245.566811 
L 259.839392 245.986066 
L 260.884792 245.986066 
L 261.117103 246.171031 
L 262.162502 246.171031 
L 262.278657 246.839494 
L 263.207901 246.839494 
L 263.440212 247.208681 
L 264.369456 247.208681 
L 264.485611 247.605739 
L 265.414855 247.605739 
L 265.531011 248.085416 
L 266.692565 248.085416 
L 266.924876 248.350121 
L 267.737965 248.350121 
L 267.970275 248.555227 
L 268.899519 248.555227 
L 269.13183 248.910605 
L 269.944918 248.910605 
L 270.061074 249.362906 
L 271.222629 249.362906 
L 271.45494 249.718037 
L 272.384183 249.718037 
L 272.616494 249.93198 
L 273.429583 249.93198 
L 273.545738 250.443718 
L 274.707293 250.443718 
L 274.939604 250.645327 
L 275.752692 250.645327 
L 275.985003 250.999227 
L 276.914247 250.999227 
L 277.146558 251.223405 
L 279.237356 251.279758 
L 279.353512 251.68483 
L 280.282756 251.68483 
L 280.515066 251.961661 
L 281.44431 251.961661 
L 281.676621 252.319875 
L 282.48971 252.319875 
L 282.72202 252.518652 
L 283.76742 252.518652 
L 283.999731 252.802016 
L 285.974374 252.849287 
L 286.206685 253.028292 
L 287.252084 253.028292 
L 287.484395 253.267512 
L 288.297483 253.267512 
L 288.529794 253.446311 
L 289.459038 253.446311 
L 289.691349 253.795154 
L 290.504437 253.795154 
L 290.736748 254.052792 
L 291.782147 254.052792 
L 292.014458 254.169032 
L 292.827547 254.169032 
L 293.059857 254.421076 
L 295.034501 254.516435 
L 295.266811 254.707154 
L 296.312211 254.707154 
L 296.544522 254.56165 
L 297.473765 254.56165 
L 297.706076 254.827012 
L 299.796875 254.877939 
L 300.029186 255.055507 
L 302.003829 255.04009 
L 302.23614 255.340969 
L 303.049228 255.340969 
L 303.281539 255.511137 
L 304.326938 255.511137 
L 304.559249 255.648008 
L 306.533892 255.601153 
L 306.766203 255.954433 
L 310.018556 255.968 
L 310.250867 256.117328 
L 311.063956 256.117328 
L 311.296267 256.306483 
L 312.341666 256.306483 
L 312.573977 256.189957 
L 314.54862 256.179476 
L 314.780931 256.341011 
L 316.871729 256.306483 
L 317.10404 256.591945 
L 319.078683 256.585905 
L 319.310994 256.756566 
L 322.563347 256.807121 
L 322.795658 256.953039 
L 325.931856 256.971618 
L 326.164167 257.204179 
L 329.41652 257.306529 
L 329.648831 257.436619 
L 331.623474 257.35881 
L 331.971941 257.310639 
L 332.901185 257.310639 
L 333.133495 257.490874 
L 337.431248 257.583357 
L 337.663559 257.75932 
L 338.476647 257.75932 
L 338.708958 257.615624 
L 340.683601 257.697172 
L 340.915912 257.912596 
L 341.961311 257.912596 
L 342.193622 258.0431 
L 343.122866 258.0431 
L 343.355177 257.879178 
L 344.168265 257.879178 
L 344.400576 258.080091 
L 348.698329 257.988432 
L 348.93064 258.297322 
L 349.976039 258.297322 
L 350.20835 258.177711 
L 353.228392 258.193372 
L 353.460703 258.328766 
L 360.197721 258.426181 
L 360.430032 258.498317 
L 361.24312 258.498317 
L 361.475431 258.309653 
L 362.52083 258.309653 
L 362.753141 258.545175 
L 367.050893 258.541106 
L 367.283204 258.657387 
L 370.535558 258.723769 
L 370.767869 258.877495 
L 371.580957 258.877495 
L 371.813268 258.74432 
L 376.11102 258.776997 
L 376.343331 258.879961 
L 378.550285 258.804742 
L 378.898752 258.750486 
L 379.595684 258.750486 
L 379.827995 258.930518 
L 380.757239 258.930518 
L 380.98955 258.796111 
L 381.802638 258.796111 
L 382.034949 258.926203 
L 385.287303 258.994023 
L 385.519614 259.178864 
L 387.610412 259.101097 
L 387.958878 259.04717 
L 389.817366 259.008203 
L 390.049677 258.847284 
L 391.095076 258.847284 
L 391.327387 259.04273 
L 397.832094 259.014986 
L 398.064405 259.176727 
L 401.316758 259.067392 
L 401.549069 258.956413 
L 403.756023 259.045196 
L 403.756023 259.045196 
" clip-path="url(#p4a1f7735f6)" style="fill: none; stroke: #1f77b4; stroke-width: 1.5; stroke-linecap: square"/>
   </g>
   <g id="line2d_15">
    <path d="M 79.101477 261.216 
L 98.383286 261.108816 
L 100.125618 260.866086 
L 101.403328 260.490098 
L 102.564883 259.918154 
L 103.610282 259.147892 
L 104.655681 258.071001 
L 105.70108 256.625041 
L 106.74648 254.751052 
L 107.791879 252.396835 
L 108.953434 249.166259 
L 110.114988 245.248609 
L 111.392699 240.119702 
L 112.786564 233.545224 
L 114.296585 225.312482 
L 116.038918 214.499772 
L 118.013561 200.798522 
L 120.568981 181.378385 
L 125.331355 142.971213 
L 129.164486 112.955023 
L 131.836062 93.756759 
L 134.159171 78.651088 
L 136.24997 66.493353 
L 138.224613 56.337723 
L 139.966945 48.469698 
L 141.709277 41.623518 
L 143.335454 36.138915 
L 144.845475 31.80586 
L 146.23934 28.432182 
L 147.633206 25.634802 
L 148.910916 23.554213 
L 150.072471 22.045479 
L 151.234026 20.883813 
L 152.279425 20.120829 
L 153.324824 19.612349 
L 154.370223 19.345681 
L 155.415623 19.308193 
L 156.461022 19.487384 
L 157.622577 19.925646 
L 158.784131 20.59968 
L 160.061842 21.594225 
L 161.455707 22.957971 
L 163.081884 24.883175 
L 164.824216 27.303089 
L 166.798859 30.436847 
L 169.005813 34.359552 
L 171.561233 39.35818 
L 174.697431 46.013416 
L 178.646717 54.965588 
L 184.454491 68.754578 
L 195.953883 96.116428 
L 201.41319 108.467842 
L 206.29172 118.962637 
L 210.821783 128.194632 
L 215.235691 136.6918 
L 219.533443 144.487197 
L 223.71504 151.623321 
L 227.896637 158.327555 
L 232.078234 164.614711 
L 236.259831 170.502466 
L 240.441428 176.010261 
L 244.623025 181.158471 
L 248.920778 186.096742 
L 253.21853 190.699344 
L 257.632438 195.09983 
L 262.046346 199.192014 
L 266.57641 203.094088 
L 271.222629 206.80591 
L 275.985003 210.328766 
L 280.863533 213.665188 
L 285.974374 216.889139 
L 291.20137 219.923587 
L 296.660677 222.834244 
L 302.352295 225.613087 
L 308.276224 228.254459 
L 314.432464 230.75488 
L 320.937171 233.153628 
L 327.790344 235.439177 
L 334.991983 237.603188 
L 342.658244 239.66988 
L 350.789127 241.626864 
L 359.384632 243.465596 
L 368.67707 245.222258 
L 378.666441 246.879632 
L 389.4689 248.441551 
L 401.200602 249.908116 
L 403.756023 250.199631 
L 403.756023 250.199631 
" clip-path="url(#p4a1f7735f6)" style="fill: none; stroke: #ff7f0e; stroke-width: 1.5; stroke-linecap: square"/>
   </g>
   <g id="patch_3">
    <path d="M 62.86875 273.312 
L 62.86875 7.2 
" style="fill: none; stroke: #000000; stroke-width: 0.8; stroke-linejoin: miter; stroke-linecap: square"/>
   </g>
   <g id="patch_4">
    <path d="M 419.98875 273.312 
L 419.98875 7.2 
" style="fill: none; stroke: #000000; stroke-width: 0.8; stroke-linejoin: miter; stroke-linecap: square"/>
   </g>
   <g id="patch_5">
    <path d="M 62.86875 273.312 
L 419.98875 273.312 
" style="fill: none; stroke: #000000; stroke-width: 0.8; stroke-linejoin: miter; stroke-linecap: square"/>
   </g>
   <g id="patch_6">
    <path d="M 62.86875 7.2 
L 419.98875 7.2 
" style="fill: none; stroke: #000000; stroke-width: 0.8; stroke-linejoin: miter; stroke-linecap: square"/>
   </g>
   <g id="legend_1">
    <g id="patch_7">
     <path d="M 284.579375 55.754062 
L 412.98875 55.754062 
Q 414.98875 55.754062 414.98875 53.754062 
L 414.98875 14.2 
Q 414.98875 12.2 412.98875 12.2 
L 284.579375 12.2 
Q 282.579375 12.2 282.579375 14.2 
L 282.579375 53.754062 
Q 282.579375 55.754062 284.579375 55.754062 
z
" style="fill: #ffffff; opacity: 0.8; stroke: #cccccc; stroke-linejoin: miter"/>
    </g>
    <g id="line2d_16">
     <path d="M 286.579375 26.937187 
L 296.579375 26.937187 
L 306.579375 26.937187 
" style="fill: none; stroke: #1f77b4; stroke-width: 1.5; stroke-linecap: square"/>
    </g>
    <g id="text_17">
     <!-- Messwerte -->
     <g transform="translate(314.579375 23.798437) scale(0.1 -0.1)">
      <defs>
       <path id="DejaVuSans-4d" d="M 628 4666 
L 1569 4666 
L 2759 1491 
L 3956 4666 
L 4897 4666 
L 4897 0 
L 4281 0 
L 4281 4097 
L 3078 897 
L 2444 897 
L 1241 4097 
L 1241 0 
L 628 0 
L 628 4666 
z
" transform="scale(0.015625)"/>
       <path id="DejaVuSans-73" d="M 2834 3397 
L 2834 2853 
Q 2591 2978 2328 3040 
Q 2066 3103 1784 3103 
Q 1356 3103 1142 2972 
Q 928 2841 928 2578 
Q 928 2378 1081 2264 
Q 1234 2150 1697 2047 
L 1894 2003 
Q 2506 1872 2764 1633 
Q 3022 1394 3022 966 
Q 3022 478 2636 193 
Q 2250 -91 1575 -91 
Q 1294 -91 989 -36 
Q 684 19 347 128 
L 347 722 
Q 666 556 975 473 
Q 1284 391 1588 391 
Q 1994 391 2212 530 
Q 2431 669 2431 922 
Q 2431 1156 2273 1281 
Q 2116 1406 1581 1522 
L 1381 1569 
Q 847 1681 609 1914 
Q 372 2147 372 2553 
Q 372 3047 722 3315 
Q 1072 3584 1716 3584 
Q 2034 3584 2315 3537 
Q 2597 3491 2834 3397 
z
" transform="scale(0.015625)"/>
       <path id="DejaVuSans-77" d="M 269 3500 
L 844 3500 
L 1563 769 
L 2278 3500 
L 2956 3500 
L 3675 769 
L 4391 3500 
L 4966 3500 
L 4050 0 
L 3372 0 
L 2619 2869 
L 1863 0 
L 1184 0 
L 269 3500 
z
" transform="scale(0.015625)"/>
       <path id="DejaVuSans-72" d="M 2631 2963 
Q 2534 3019 2420 3045 
Q 2306 3072 2169 3072 
Q 1681 3072 1420 2755 
Q 1159 2438 1159 1844 
L 1159 0 
L 581 0 
L 581 3500 
L 1159 3500 
L 1159 2956 
Q 1341 3275 1631 3429 
Q 1922 3584 2338 3584 
Q 2397 3584 2469 3576 
Q 2541 3569 2628 3553 
L 2631 2963 
z
" transform="scale(0.015625)"/>
       <path id="DejaVuSans-74" d="M 1172 4494 
L 1172 3500 
L 2356 3500 
L 2356 3053 
L 1172 3053 
L 1172 1153 
Q 1172 725 1289 603 
Q 1406 481 1766 481 
L 2356 481 
L 2356 0 
L 1766 0 
Q 1100 0 847 248 
Q 594 497 594 1153 
L 594 3053 
L 172 3053 
L 172 3500 
L 594 3500 
L 594 4494 
L 1172 4494 
z
" transform="scale(0.015625)"/>
      </defs>
      <use xlink:href="#DejaVuSans-4d"/>
      <use xlink:href="#DejaVuSans-65" x="86.279297"/>
      <use xlink:href="#DejaVuSans-73" x="147.802734"/>
      <use xlink:href="#DejaVuSans-73" x="199.902344"/>
      <use xlink:href="#DejaVuSans-77" x="252.001953"/>
      <use xlink:href="#DejaVuSans-65" x="333.789062"/>
      <use xlink:href="#DejaVuSans-72" x="395.3125"/>
      <use xlink:href="#DejaVuSans-74" x="436.425781"/>
      <use xlink:href="#DejaVuSans-65" x="475.634766"/>
     </g>
     <!-- bei $T=863\pm1$K -->
     <g transform="translate(314.579375 34.99625) scale(0.1 -0.1)">
      <defs>
       <path id="DejaVuSans-62" d="M 3116 1747 
Q 3116 2381 2855 2742 
Q 2594 3103 2138 3103 
Q 1681 3103 1420 2742 
Q 1159 2381 1159 1747 
Q 1159 1113 1420 752 
Q 1681 391 2138 391 
Q 2594 391 2855 752 
Q 3116 1113 3116 1747 
z
M 1159 2969 
Q 1341 3281 1617 3432 
Q 1894 3584 2278 3584 
Q 2916 3584 3314 3078 
Q 3713 2572 3713 1747 
Q 3713 922 3314 415 
Q 2916 -91 2278 -91 
Q 1894 -91 1617 61 
Q 1341 213 1159 525 
L 1159 0 
L 581 0 
L 581 4863 
L 1159 4863 
L 1159 2969 
z
" transform="scale(0.015625)"/>
       <path id="DejaVuSans-Oblique-54" d="M 378 4666 
L 4325 4666 
L 4225 4134 
L 2559 4134 
L 1759 0 
L 1125 0 
L 1925 4134 
L 275 4134 
L 378 4666 
z
" transform="scale(0.015625)"/>
       <path id="DejaVuSans-3d" d="M 678 2906 
L 4684 2906 
L 4684 2381 
L 678 2381 
L 678 2906 
z
M 678 1631 
L 4684 1631 
L 4684 1100 
L 678 1100 
L 678 1631 
z
" transform="scale(0.015625)"/>
       <path id="DejaVuSans-33" d="M 2597 2516 
Q 3050 2419 3304 2112 
Q 3559 1806 3559 1356 
Q 3559 666 3084 287 
Q 2609 -91 1734 -91 
Q 1441 -91 1130 -33 
Q 819 25 488 141 
L 488 750 
Q 750 597 1062 519 
Q 1375 441 1716 441 
Q 2309 441 2620 675 
Q 2931 909 2931 1356 
Q 2931 1769 2642 2001 
Q 2353 2234 1838 2234 
L 1294 2234 
L 1294 2753 
L 1863 2753 
Q 2328 2753 2575 2939 
Q 2822 3125 2822 3475 
Q 2822 3834 2567 4026 
Q 2313 4219 1838 4219 
Q 1578 4219 1281 4162 
Q 984 4106 628 3988 
L 628 4550 
Q 988 4650 1302 4700 
Q 1616 4750 1894 4750 
Q 2613 4750 3031 4423 
Q 3450 4097 3450 3541 
Q 3450 3153 3228 2886 
Q 3006 2619 2597 2516 
z
" transform="scale(0.015625)"/>
       <path id="DejaVuSans-b1" d="M 2944 4013 
L 2944 2803 
L 4684 2803 
L 4684 2272 
L 2944 2272 
L 2944 1063 
L 2419 1063 
L 2419 2272 
L 678 2272 
L 678 2803 
L 2419 2803 
L 2419 4013 
L 2944 4013 
z
M 678 531 
L 4684 531 
L 4684 0 
L 678 0 
L 678 531 
z
" transform="scale(0.015625)"/>
       <path id="DejaVuSans-4b" d="M 628 4666 
L 1259 4666 
L 1259 2694 
L 3353 4666 
L 4166 4666 
L 1850 2491 
L 4331 0 
L 3500 0 
L 1259 2247 
L 1259 0 
L 628 0 
L 628 4666 
z
" transform="scale(0.015625)"/>
      </defs>
      <use xlink:href="#DejaVuSans-62" transform="translate(0 0.015625)"/>
      <use xlink:href="#DejaVuSans-65" transform="translate(63.476562 0.015625)"/>
      <use xlink:href="#DejaVuSans-69" transform="translate(125 0.015625)"/>
      <use xlink:href="#DejaVuSans-20" transform="translate(152.783203 0.015625)"/>
      <use xlink:href="#DejaVuSans-Oblique-54" transform="translate(184.570312 0.015625)"/>
      <use xlink:href="#DejaVuSans-3d" transform="translate(265.136719 0.015625)"/>
      <use xlink:href="#DejaVuSans-38" transform="translate(368.408203 0.015625)"/>
      <use xlink:href="#DejaVuSans-36" transform="translate(432.03125 0.015625)"/>
      <use xlink:href="#DejaVuSans-33" transform="translate(495.654297 0.015625)"/>
      <use xlink:href="#DejaVuSans-b1" transform="translate(578.759766 0.015625)"/>
      <use xlink:href="#DejaVuSans-31" transform="translate(682.03125 0.015625)"/>
      <use xlink:href="#DejaVuSans-4b" transform="translate(745.654297 0.015625)"/>
     </g>
    </g>
    <g id="line2d_17">
     <path d="M 286.579375 46.174375 
L 296.579375 46.174375 
L 306.579375 46.174375 
" style="fill: none; stroke: #ff7f0e; stroke-width: 1.5; stroke-linecap: square"/>
    </g>
    <g id="text_18">
     <!-- Theoretische Kurve -->
     <g transform="translate(314.579375 49.674375) scale(0.1 -0.1)">
      <defs>
       <path id="DejaVuSans-54" d="M -19 4666 
L 3928 4666 
L 3928 4134 
L 2272 4134 
L 2272 0 
L 1638 0 
L 1638 4134 
L -19 4134 
L -19 4666 
z
" transform="scale(0.015625)"/>
       <path id="DejaVuSans-68" d="M 3513 2113 
L 3513 0 
L 2938 0 
L 2938 2094 
Q 2938 2591 2744 2837 
Q 2550 3084 2163 3084 
Q 1697 3084 1428 2787 
Q 1159 2491 1159 1978 
L 1159 0 
L 581 0 
L 581 4863 
L 1159 4863 
L 1159 2956 
Q 1366 3272 1645 3428 
Q 1925 3584 2291 3584 
Q 2894 3584 3203 3211 
Q 3513 2838 3513 2113 
z
" transform="scale(0.015625)"/>
       <path id="DejaVuSans-6f" d="M 1959 3097 
Q 1497 3097 1228 2736 
Q 959 2375 959 1747 
Q 959 1119 1226 758 
Q 1494 397 1959 397 
Q 2419 397 2687 759 
Q 2956 1122 2956 1747 
Q 2956 2369 2687 2733 
Q 2419 3097 1959 3097 
z
M 1959 3584 
Q 2709 3584 3137 3096 
Q 3566 2609 3566 1747 
Q 3566 888 3137 398 
Q 2709 -91 1959 -91 
Q 1206 -91 779 398 
Q 353 888 353 1747 
Q 353 2609 779 3096 
Q 1206 3584 1959 3584 
z
" transform="scale(0.015625)"/>
       <path id="DejaVuSans-63" d="M 3122 3366 
L 3122 2828 
Q 2878 2963 2633 3030 
Q 2388 3097 2138 3097 
Q 1578 3097 1268 2742 
Q 959 2388 959 1747 
Q 959 1106 1268 751 
Q 1578 397 2138 397 
Q 2388 397 2633 464 
Q 2878 531 3122 666 
L 3122 134 
Q 2881 22 2623 -34 
Q 2366 -91 2075 -91 
Q 1284 -91 818 406 
Q 353 903 353 1747 
Q 353 2603 823 3093 
Q 1294 3584 2113 3584 
Q 2378 3584 2631 3529 
Q 2884 3475 3122 3366 
z
" transform="scale(0.015625)"/>
       <path id="DejaVuSans-76" d="M 191 3500 
L 800 3500 
L 1894 563 
L 2988 3500 
L 3597 3500 
L 2284 0 
L 1503 0 
L 191 3500 
z
" transform="scale(0.015625)"/>
      </defs>
      <use xlink:href="#DejaVuSans-54"/>
      <use xlink:href="#DejaVuSans-68" x="61.083984"/>
      <use xlink:href="#DejaVuSans-65" x="124.462891"/>
      <use xlink:href="#DejaVuSans-6f" x="185.986328"/>
      <use xlink:href="#DejaVuSans-72" x="247.167969"/>
      <use xlink:href="#DejaVuSans-65" x="286.03125"/>
      <use xlink:href="#DejaVuSans-74" x="347.554688"/>
      <use xlink:href="#DejaVuSans-69" x="386.763672"/>
      <use xlink:href="#DejaVuSans-73" x="414.546875"/>
      <use xlink:href="#DejaVuSans-63" x="466.646484"/>
      <use xlink:href="#DejaVuSans-68" x="521.626953"/>
      <use xlink:href="#DejaVuSans-65" x="585.005859"/>
      <use xlink:href="#DejaVuSans-20" x="646.529297"/>
      <use xlink:href="#DejaVuSans-4b" x="678.316406"/>
      <use xlink:href="#DejaVuSans-75" x="738.892578"/>
      <use xlink:href="#DejaVuSans-72" x="802.271484"/>
      <use xlink:href="#DejaVuSans-76" x="843.384766"/>
      <use xlink:href="#DejaVuSans-65" x="902.564453"/>
     </g>
    </g>
   </g>
  </g>
 </g>
 <defs>
  <clipPath id="p4a1f7735f6">
   <rect x="62.86875" y="7.2" width="357.12" height="266.112"/>
  </clipPath>
 </defs>
</svg>
