<?xml version="1.0" encoding="utf-8" standalone="no"?>
<!DOCTYPE svg PUBLIC "-//W3C//DTD SVG 1.1//EN"
  "http://www.w3.org/Graphics/SVG/1.1/DTD/svg11.dtd">
<svg xmlns:xlink="http://www.w3.org/1999/xlink" width="460.8pt" height="345.6pt" viewBox="0 0 460.8 345.6" xmlns="http://www.w3.org/2000/svg" version="1.1">
 <metadata>
  <rdf:RDF xmlns:dc="http://purl.org/dc/elements/1.1/" xmlns:cc="http://creativecommons.org/ns#" xmlns:rdf="http://www.w3.org/1999/02/22-rdf-syntax-ns#">
   <cc:Work>
    <dc:type rdf:resource="http://purl.org/dc/dcmitype/StillImage"/>
    <dc:date>2024-07-11T02:37:38.317091</dc:date>
    <dc:format>image/svg+xml</dc:format>
    <dc:creator>
     <cc:Agent>
      <dc:title>Matplotlib v3.8.2, https://matplotlib.org/</dc:title>
     </cc:Agent>
    </dc:creator>
   </cc:Work>
  </rdf:RDF>
 </metadata>
 <defs>
  <style type="text/css">*{stroke-linejoin: round; stroke-linecap: butt}</style>
 </defs>
 <g id="figure_1">
  <g id="patch_1">
   <path d="M 0 345.6 
L 460.8 345.6 
L 460.8 0 
L 0 0 
z
" style="fill: #ffffff"/>
  </g>
  <g id="axes_1">
   <g id="patch_2">
    <path d="M 57.6 307.584 
L 414.72 307.584 
L 414.72 41.472 
L 57.6 41.472 
z
" style="fill: #ffffff"/>
   </g>
   <g id="matplotlib.axis_1">
    <g id="xtick_1">
     <g id="line2d_1">
      <defs>
       <path id="m59809d23ff" d="M 0 0 
L 0 3.5 
" style="stroke: #000000; stroke-width: 0.8"/>
      </defs>
      <g>
       <use xlink:href="#m59809d23ff" x="73.831355" y="307.584" style="stroke: #000000; stroke-width: 0.8"/>
      </g>
     </g>
     <g id="text_1">
      <!-- 0.0 -->
      <g transform="translate(65.879792 322.182437) scale(0.1 -0.1)">
       <defs>
        <path id="DejaVuSans-30" d="M 2034 4250 
Q 1547 4250 1301 3770 
Q 1056 3291 1056 2328 
Q 1056 1369 1301 889 
Q 1547 409 2034 409 
Q 2525 409 2770 889 
Q 3016 1369 3016 2328 
Q 3016 3291 2770 3770 
Q 2525 4250 2034 4250 
z
M 2034 4750 
Q 2819 4750 3233 4129 
Q 3647 3509 3647 2328 
Q 3647 1150 3233 529 
Q 2819 -91 2034 -91 
Q 1250 -91 836 529 
Q 422 1150 422 2328 
Q 422 3509 836 4129 
Q 1250 4750 2034 4750 
z
" transform="scale(0.015625)"/>
        <path id="DejaVuSans-2e" d="M 684 794 
L 1344 794 
L 1344 0 
L 684 0 
L 684 794 
z
" transform="scale(0.015625)"/>
       </defs>
       <use xlink:href="#DejaVuSans-30"/>
       <use xlink:href="#DejaVuSans-2e" x="63.623047"/>
       <use xlink:href="#DejaVuSans-30" x="95.410156"/>
      </g>
     </g>
    </g>
    <g id="xtick_2">
     <g id="line2d_2">
      <g>
       <use xlink:href="#m59809d23ff" x="118.601031" y="307.584" style="stroke: #000000; stroke-width: 0.8"/>
      </g>
     </g>
     <g id="text_2">
      <!-- 0.2 -->
      <g transform="translate(110.649468 322.182437) scale(0.1 -0.1)">
       <defs>
        <path id="DejaVuSans-32" d="M 1228 531 
L 3431 531 
L 3431 0 
L 469 0 
L 469 531 
Q 828 903 1448 1529 
Q 2069 2156 2228 2338 
Q 2531 2678 2651 2914 
Q 2772 3150 2772 3378 
Q 2772 3750 2511 3984 
Q 2250 4219 1831 4219 
Q 1534 4219 1204 4116 
Q 875 4013 500 3803 
L 500 4441 
Q 881 4594 1212 4672 
Q 1544 4750 1819 4750 
Q 2544 4750 2975 4387 
Q 3406 4025 3406 3419 
Q 3406 3131 3298 2873 
Q 3191 2616 2906 2266 
Q 2828 2175 2409 1742 
Q 1991 1309 1228 531 
z
" transform="scale(0.015625)"/>
       </defs>
       <use xlink:href="#DejaVuSans-30"/>
       <use xlink:href="#DejaVuSans-2e" x="63.623047"/>
       <use xlink:href="#DejaVuSans-32" x="95.410156"/>
      </g>
     </g>
    </g>
    <g id="xtick_3">
     <g id="line2d_3">
      <g>
       <use xlink:href="#m59809d23ff" x="163.370706" y="307.584" style="stroke: #000000; stroke-width: 0.8"/>
      </g>
     </g>
     <g id="text_3">
      <!-- 0.4 -->
      <g transform="translate(155.419144 322.182437) scale(0.1 -0.1)">
       <defs>
        <path id="DejaVuSans-34" d="M 2419 4116 
L 825 1625 
L 2419 1625 
L 2419 4116 
z
M 2253 4666 
L 3047 4666 
L 3047 1625 
L 3713 1625 
L 3713 1100 
L 3047 1100 
L 3047 0 
L 2419 0 
L 2419 1100 
L 313 1100 
L 313 1709 
L 2253 4666 
z
" transform="scale(0.015625)"/>
       </defs>
       <use xlink:href="#DejaVuSans-30"/>
       <use xlink:href="#DejaVuSans-2e" x="63.623047"/>
       <use xlink:href="#DejaVuSans-34" x="95.410156"/>
      </g>
     </g>
    </g>
    <g id="xtick_4">
     <g id="line2d_4">
      <g>
       <use xlink:href="#m59809d23ff" x="208.140382" y="307.584" style="stroke: #000000; stroke-width: 0.8"/>
      </g>
     </g>
     <g id="text_4">
      <!-- 0.6 -->
      <g transform="translate(200.18882 322.182437) scale(0.1 -0.1)">
       <defs>
        <path id="DejaVuSans-36" d="M 2113 2584 
Q 1688 2584 1439 2293 
Q 1191 2003 1191 1497 
Q 1191 994 1439 701 
Q 1688 409 2113 409 
Q 2538 409 2786 701 
Q 3034 994 3034 1497 
Q 3034 2003 2786 2293 
Q 2538 2584 2113 2584 
z
M 3366 4563 
L 3366 3988 
Q 3128 4100 2886 4159 
Q 2644 4219 2406 4219 
Q 1781 4219 1451 3797 
Q 1122 3375 1075 2522 
Q 1259 2794 1537 2939 
Q 1816 3084 2150 3084 
Q 2853 3084 3261 2657 
Q 3669 2231 3669 1497 
Q 3669 778 3244 343 
Q 2819 -91 2113 -91 
Q 1303 -91 875 529 
Q 447 1150 447 2328 
Q 447 3434 972 4092 
Q 1497 4750 2381 4750 
Q 2619 4750 2861 4703 
Q 3103 4656 3366 4563 
z
" transform="scale(0.015625)"/>
       </defs>
       <use xlink:href="#DejaVuSans-30"/>
       <use xlink:href="#DejaVuSans-2e" x="63.623047"/>
       <use xlink:href="#DejaVuSans-36" x="95.410156"/>
      </g>
     </g>
    </g>
    <g id="xtick_5">
     <g id="line2d_5">
      <g>
       <use xlink:href="#m59809d23ff" x="252.910058" y="307.584" style="stroke: #000000; stroke-width: 0.8"/>
      </g>
     </g>
     <g id="text_5">
      <!-- 0.8 -->
      <g transform="translate(244.958495 322.182437) scale(0.1 -0.1)">
       <defs>
        <path id="DejaVuSans-38" d="M 2034 2216 
Q 1584 2216 1326 1975 
Q 1069 1734 1069 1313 
Q 1069 891 1326 650 
Q 1584 409 2034 409 
Q 2484 409 2743 651 
Q 3003 894 3003 1313 
Q 3003 1734 2745 1975 
Q 2488 2216 2034 2216 
z
M 1403 2484 
Q 997 2584 770 2862 
Q 544 3141 544 3541 
Q 544 4100 942 4425 
Q 1341 4750 2034 4750 
Q 2731 4750 3128 4425 
Q 3525 4100 3525 3541 
Q 3525 3141 3298 2862 
Q 3072 2584 2669 2484 
Q 3125 2378 3379 2068 
Q 3634 1759 3634 1313 
Q 3634 634 3220 271 
Q 2806 -91 2034 -91 
Q 1263 -91 848 271 
Q 434 634 434 1313 
Q 434 1759 690 2068 
Q 947 2378 1403 2484 
z
M 1172 3481 
Q 1172 3119 1398 2916 
Q 1625 2713 2034 2713 
Q 2441 2713 2670 2916 
Q 2900 3119 2900 3481 
Q 2900 3844 2670 4047 
Q 2441 4250 2034 4250 
Q 1625 4250 1398 4047 
Q 1172 3844 1172 3481 
z
" transform="scale(0.015625)"/>
       </defs>
       <use xlink:href="#DejaVuSans-30"/>
       <use xlink:href="#DejaVuSans-2e" x="63.623047"/>
       <use xlink:href="#DejaVuSans-38" x="95.410156"/>
      </g>
     </g>
    </g>
    <g id="xtick_6">
     <g id="line2d_6">
      <g>
       <use xlink:href="#m59809d23ff" x="297.679734" y="307.584" style="stroke: #000000; stroke-width: 0.8"/>
      </g>
     </g>
     <g id="text_6">
      <!-- 1.0 -->
      <g transform="translate(289.728171 322.182437) scale(0.1 -0.1)">
       <defs>
        <path id="DejaVuSans-31" d="M 794 531 
L 1825 531 
L 1825 4091 
L 703 3866 
L 703 4441 
L 1819 4666 
L 2450 4666 
L 2450 531 
L 3481 531 
L 3481 0 
L 794 0 
L 794 531 
z
" transform="scale(0.015625)"/>
       </defs>
       <use xlink:href="#DejaVuSans-31"/>
       <use xlink:href="#DejaVuSans-2e" x="63.623047"/>
       <use xlink:href="#DejaVuSans-30" x="95.410156"/>
      </g>
     </g>
    </g>
    <g id="xtick_7">
     <g id="line2d_7">
      <g>
       <use xlink:href="#m59809d23ff" x="342.449409" y="307.584" style="stroke: #000000; stroke-width: 0.8"/>
      </g>
     </g>
     <g id="text_7">
      <!-- 1.2 -->
      <g transform="translate(334.497847 322.182437) scale(0.1 -0.1)">
       <use xlink:href="#DejaVuSans-31"/>
       <use xlink:href="#DejaVuSans-2e" x="63.623047"/>
       <use xlink:href="#DejaVuSans-32" x="95.410156"/>
      </g>
     </g>
    </g>
    <g id="xtick_8">
     <g id="line2d_8">
      <g>
       <use xlink:href="#m59809d23ff" x="387.219085" y="307.584" style="stroke: #000000; stroke-width: 0.8"/>
      </g>
     </g>
     <g id="text_8">
      <!-- 1.4 -->
      <g transform="translate(379.267523 322.182437) scale(0.1 -0.1)">
       <use xlink:href="#DejaVuSans-31"/>
       <use xlink:href="#DejaVuSans-2e" x="63.623047"/>
       <use xlink:href="#DejaVuSans-34" x="95.410156"/>
      </g>
     </g>
    </g>
    <g id="text_9">
     <!-- Wellenlänge in m -->
     <g transform="translate(192.931094 335.860562) scale(0.1 -0.1)">
      <defs>
       <path id="DejaVuSans-57" d="M 213 4666 
L 850 4666 
L 1831 722 
L 2809 4666 
L 3519 4666 
L 4500 722 
L 5478 4666 
L 6119 4666 
L 4947 0 
L 4153 0 
L 3169 4050 
L 2175 0 
L 1381 0 
L 213 4666 
z
" transform="scale(0.015625)"/>
       <path id="DejaVuSans-65" d="M 3597 1894 
L 3597 1613 
L 953 1613 
Q 991 1019 1311 708 
Q 1631 397 2203 397 
Q 2534 397 2845 478 
Q 3156 559 3463 722 
L 3463 178 
Q 3153 47 2828 -22 
Q 2503 -91 2169 -91 
Q 1331 -91 842 396 
Q 353 884 353 1716 
Q 353 2575 817 3079 
Q 1281 3584 2069 3584 
Q 2775 3584 3186 3129 
Q 3597 2675 3597 1894 
z
M 3022 2063 
Q 3016 2534 2758 2815 
Q 2500 3097 2075 3097 
Q 1594 3097 1305 2825 
Q 1016 2553 972 2059 
L 3022 2063 
z
" transform="scale(0.015625)"/>
       <path id="DejaVuSans-6c" d="M 603 4863 
L 1178 4863 
L 1178 0 
L 603 0 
L 603 4863 
z
" transform="scale(0.015625)"/>
       <path id="DejaVuSans-6e" d="M 3513 2113 
L 3513 0 
L 2938 0 
L 2938 2094 
Q 2938 2591 2744 2837 
Q 2550 3084 2163 3084 
Q 1697 3084 1428 2787 
Q 1159 2491 1159 1978 
L 1159 0 
L 581 0 
L 581 3500 
L 1159 3500 
L 1159 2956 
Q 1366 3272 1645 3428 
Q 1925 3584 2291 3584 
Q 2894 3584 3203 3211 
Q 3513 2838 3513 2113 
z
" transform="scale(0.015625)"/>
       <path id="DejaVuSans-e4" d="M 2194 1759 
Q 1497 1759 1228 1600 
Q 959 1441 959 1056 
Q 959 750 1161 570 
Q 1363 391 1709 391 
Q 2188 391 2477 730 
Q 2766 1069 2766 1631 
L 2766 1759 
L 2194 1759 
z
M 3341 1997 
L 3341 0 
L 2766 0 
L 2766 531 
Q 2569 213 2275 61 
Q 1981 -91 1556 -91 
Q 1019 -91 701 211 
Q 384 513 384 1019 
Q 384 1609 779 1909 
Q 1175 2209 1959 2209 
L 2766 2209 
L 2766 2266 
Q 2766 2663 2505 2880 
Q 2244 3097 1772 3097 
Q 1472 3097 1187 3025 
Q 903 2953 641 2809 
L 641 3341 
Q 956 3463 1253 3523 
Q 1550 3584 1831 3584 
Q 2591 3584 2966 3190 
Q 3341 2797 3341 1997 
z
M 2150 4850 
L 2784 4850 
L 2784 4219 
L 2150 4219 
L 2150 4850 
z
M 928 4850 
L 1562 4850 
L 1562 4219 
L 928 4219 
L 928 4850 
z
" transform="scale(0.015625)"/>
       <path id="DejaVuSans-67" d="M 2906 1791 
Q 2906 2416 2648 2759 
Q 2391 3103 1925 3103 
Q 1463 3103 1205 2759 
Q 947 2416 947 1791 
Q 947 1169 1205 825 
Q 1463 481 1925 481 
Q 2391 481 2648 825 
Q 2906 1169 2906 1791 
z
M 3481 434 
Q 3481 -459 3084 -895 
Q 2688 -1331 1869 -1331 
Q 1566 -1331 1297 -1286 
Q 1028 -1241 775 -1147 
L 775 -588 
Q 1028 -725 1275 -790 
Q 1522 -856 1778 -856 
Q 2344 -856 2625 -561 
Q 2906 -266 2906 331 
L 2906 616 
Q 2728 306 2450 153 
Q 2172 0 1784 0 
Q 1141 0 747 490 
Q 353 981 353 1791 
Q 353 2603 747 3093 
Q 1141 3584 1784 3584 
Q 2172 3584 2450 3431 
Q 2728 3278 2906 2969 
L 2906 3500 
L 3481 3500 
L 3481 434 
z
" transform="scale(0.015625)"/>
       <path id="DejaVuSans-20" transform="scale(0.015625)"/>
       <path id="DejaVuSans-69" d="M 603 3500 
L 1178 3500 
L 1178 0 
L 603 0 
L 603 3500 
z
M 603 4863 
L 1178 4863 
L 1178 4134 
L 603 4134 
L 603 4863 
z
" transform="scale(0.015625)"/>
       <path id="DejaVuSans-6d" d="M 3328 2828 
Q 3544 3216 3844 3400 
Q 4144 3584 4550 3584 
Q 5097 3584 5394 3201 
Q 5691 2819 5691 2113 
L 5691 0 
L 5113 0 
L 5113 2094 
Q 5113 2597 4934 2840 
Q 4756 3084 4391 3084 
Q 3944 3084 3684 2787 
Q 3425 2491 3425 1978 
L 3425 0 
L 2847 0 
L 2847 2094 
Q 2847 2600 2669 2842 
Q 2491 3084 2119 3084 
Q 1678 3084 1418 2786 
Q 1159 2488 1159 1978 
L 1159 0 
L 581 0 
L 581 3500 
L 1159 3500 
L 1159 2956 
Q 1356 3278 1631 3431 
Q 1906 3584 2284 3584 
Q 2666 3584 2933 3390 
Q 3200 3197 3328 2828 
z
" transform="scale(0.015625)"/>
      </defs>
      <use xlink:href="#DejaVuSans-57"/>
      <use xlink:href="#DejaVuSans-65" x="93.001953"/>
      <use xlink:href="#DejaVuSans-6c" x="154.525391"/>
      <use xlink:href="#DejaVuSans-6c" x="182.308594"/>
      <use xlink:href="#DejaVuSans-65" x="210.091797"/>
      <use xlink:href="#DejaVuSans-6e" x="271.615234"/>
      <use xlink:href="#DejaVuSans-6c" x="334.994141"/>
      <use xlink:href="#DejaVuSans-e4" x="362.777344"/>
      <use xlink:href="#DejaVuSans-6e" x="424.056641"/>
      <use xlink:href="#DejaVuSans-67" x="487.435547"/>
      <use xlink:href="#DejaVuSans-65" x="550.912109"/>
      <use xlink:href="#DejaVuSans-20" x="612.435547"/>
      <use xlink:href="#DejaVuSans-69" x="644.222656"/>
      <use xlink:href="#DejaVuSans-6e" x="672.005859"/>
      <use xlink:href="#DejaVuSans-20" x="735.384766"/>
      <use xlink:href="#DejaVuSans-6d" x="767.171875"/>
     </g>
    </g>
    <g id="text_10">
     <!-- 1e−5 -->
     <g transform="translate(387.462188 334.860562) scale(0.1 -0.1)">
      <defs>
       <path id="DejaVuSans-2212" d="M 678 2272 
L 4684 2272 
L 4684 1741 
L 678 1741 
L 678 2272 
z
" transform="scale(0.015625)"/>
       <path id="DejaVuSans-35" d="M 691 4666 
L 3169 4666 
L 3169 4134 
L 1269 4134 
L 1269 2991 
Q 1406 3038 1543 3061 
Q 1681 3084 1819 3084 
Q 2600 3084 3056 2656 
Q 3513 2228 3513 1497 
Q 3513 744 3044 326 
Q 2575 -91 1722 -91 
Q 1428 -91 1123 -41 
Q 819 9 494 109 
L 494 744 
Q 775 591 1075 516 
Q 1375 441 1709 441 
Q 2250 441 2565 725 
Q 2881 1009 2881 1497 
Q 2881 1984 2565 2268 
Q 2250 2553 1709 2553 
Q 1456 2553 1204 2497 
Q 953 2441 691 2322 
L 691 4666 
z
" transform="scale(0.015625)"/>
      </defs>
      <use xlink:href="#DejaVuSans-31"/>
      <use xlink:href="#DejaVuSans-65" x="63.623047"/>
      <use xlink:href="#DejaVuSans-2212" x="125.146484"/>
      <use xlink:href="#DejaVuSans-35" x="208.935547"/>
     </g>
    </g>
   </g>
   <g id="matplotlib.axis_2">
    <g id="ytick_1">
     <g id="line2d_9">
      <defs>
       <path id="me7416d77a3" d="M 0 0 
L -3.5 0 
" style="stroke: #000000; stroke-width: 0.8"/>
      </defs>
      <g>
       <use xlink:href="#me7416d77a3" x="57.6" y="295.488" style="stroke: #000000; stroke-width: 0.8"/>
      </g>
     </g>
     <g id="text_11">
      <!-- 0.00000 -->
      <g transform="translate(9.246875 299.287219) scale(0.1 -0.1)">
       <use xlink:href="#DejaVuSans-30"/>
       <use xlink:href="#DejaVuSans-2e" x="63.623047"/>
       <use xlink:href="#DejaVuSans-30" x="95.410156"/>
       <use xlink:href="#DejaVuSans-30" x="159.033203"/>
       <use xlink:href="#DejaVuSans-30" x="222.65625"/>
       <use xlink:href="#DejaVuSans-30" x="286.279297"/>
       <use xlink:href="#DejaVuSans-30" x="349.902344"/>
      </g>
     </g>
    </g>
    <g id="ytick_2">
     <g id="line2d_10">
      <g>
       <use xlink:href="#me7416d77a3" x="57.6" y="236.986265" style="stroke: #000000; stroke-width: 0.8"/>
      </g>
     </g>
     <g id="text_12">
      <!-- 0.00005 -->
      <g transform="translate(9.246875 240.785484) scale(0.1 -0.1)">
       <use xlink:href="#DejaVuSans-30"/>
       <use xlink:href="#DejaVuSans-2e" x="63.623047"/>
       <use xlink:href="#DejaVuSans-30" x="95.410156"/>
       <use xlink:href="#DejaVuSans-30" x="159.033203"/>
       <use xlink:href="#DejaVuSans-30" x="222.65625"/>
       <use xlink:href="#DejaVuSans-30" x="286.279297"/>
       <use xlink:href="#DejaVuSans-35" x="349.902344"/>
      </g>
     </g>
    </g>
    <g id="ytick_3">
     <g id="line2d_11">
      <g>
       <use xlink:href="#me7416d77a3" x="57.6" y="178.484531" style="stroke: #000000; stroke-width: 0.8"/>
      </g>
     </g>
     <g id="text_13">
      <!-- 0.00010 -->
      <g transform="translate(9.246875 182.28375) scale(0.1 -0.1)">
       <use xlink:href="#DejaVuSans-30"/>
       <use xlink:href="#DejaVuSans-2e" x="63.623047"/>
       <use xlink:href="#DejaVuSans-30" x="95.410156"/>
       <use xlink:href="#DejaVuSans-30" x="159.033203"/>
       <use xlink:href="#DejaVuSans-30" x="222.65625"/>
       <use xlink:href="#DejaVuSans-31" x="286.279297"/>
       <use xlink:href="#DejaVuSans-30" x="349.902344"/>
      </g>
     </g>
    </g>
    <g id="ytick_4">
     <g id="line2d_12">
      <g>
       <use xlink:href="#me7416d77a3" x="57.6" y="119.982796" style="stroke: #000000; stroke-width: 0.8"/>
      </g>
     </g>
     <g id="text_14">
      <!-- 0.00015 -->
      <g transform="translate(9.246875 123.782015) scale(0.1 -0.1)">
       <use xlink:href="#DejaVuSans-30"/>
       <use xlink:href="#DejaVuSans-2e" x="63.623047"/>
       <use xlink:href="#DejaVuSans-30" x="95.410156"/>
       <use xlink:href="#DejaVuSans-30" x="159.033203"/>
       <use xlink:href="#DejaVuSans-30" x="222.65625"/>
       <use xlink:href="#DejaVuSans-31" x="286.279297"/>
       <use xlink:href="#DejaVuSans-35" x="349.902344"/>
      </g>
     </g>
    </g>
    <g id="ytick_5">
     <g id="line2d_13">
      <g>
       <use xlink:href="#me7416d77a3" x="57.6" y="61.481062" style="stroke: #000000; stroke-width: 0.8"/>
      </g>
     </g>
     <g id="text_15">
      <!-- 0.00020 -->
      <g transform="translate(9.246875 65.28028) scale(0.1 -0.1)">
       <use xlink:href="#DejaVuSans-30"/>
       <use xlink:href="#DejaVuSans-2e" x="63.623047"/>
       <use xlink:href="#DejaVuSans-30" x="95.410156"/>
       <use xlink:href="#DejaVuSans-30" x="159.033203"/>
       <use xlink:href="#DejaVuSans-30" x="222.65625"/>
       <use xlink:href="#DejaVuSans-32" x="286.279297"/>
       <use xlink:href="#DejaVuSans-30" x="349.902344"/>
      </g>
     </g>
    </g>
    <g id="text_16">
     <!-- Spannung in V -->
     <g transform="translate(3.167187 210.945969) rotate(-90) scale(0.1 -0.1)">
      <defs>
       <path id="DejaVuSans-53" d="M 3425 4513 
L 3425 3897 
Q 3066 4069 2747 4153 
Q 2428 4238 2131 4238 
Q 1616 4238 1336 4038 
Q 1056 3838 1056 3469 
Q 1056 3159 1242 3001 
Q 1428 2844 1947 2747 
L 2328 2669 
Q 3034 2534 3370 2195 
Q 3706 1856 3706 1288 
Q 3706 609 3251 259 
Q 2797 -91 1919 -91 
Q 1588 -91 1214 -16 
Q 841 59 441 206 
L 441 856 
Q 825 641 1194 531 
Q 1563 422 1919 422 
Q 2459 422 2753 634 
Q 3047 847 3047 1241 
Q 3047 1584 2836 1778 
Q 2625 1972 2144 2069 
L 1759 2144 
Q 1053 2284 737 2584 
Q 422 2884 422 3419 
Q 422 4038 858 4394 
Q 1294 4750 2059 4750 
Q 2388 4750 2728 4690 
Q 3069 4631 3425 4513 
z
" transform="scale(0.015625)"/>
       <path id="DejaVuSans-70" d="M 1159 525 
L 1159 -1331 
L 581 -1331 
L 581 3500 
L 1159 3500 
L 1159 2969 
Q 1341 3281 1617 3432 
Q 1894 3584 2278 3584 
Q 2916 3584 3314 3078 
Q 3713 2572 3713 1747 
Q 3713 922 3314 415 
Q 2916 -91 2278 -91 
Q 1894 -91 1617 61 
Q 1341 213 1159 525 
z
M 3116 1747 
Q 3116 2381 2855 2742 
Q 2594 3103 2138 3103 
Q 1681 3103 1420 2742 
Q 1159 2381 1159 1747 
Q 1159 1113 1420 752 
Q 1681 391 2138 391 
Q 2594 391 2855 752 
Q 3116 1113 3116 1747 
z
" transform="scale(0.015625)"/>
       <path id="DejaVuSans-61" d="M 2194 1759 
Q 1497 1759 1228 1600 
Q 959 1441 959 1056 
Q 959 750 1161 570 
Q 1363 391 1709 391 
Q 2188 391 2477 730 
Q 2766 1069 2766 1631 
L 2766 1759 
L 2194 1759 
z
M 3341 1997 
L 3341 0 
L 2766 0 
L 2766 531 
Q 2569 213 2275 61 
Q 1981 -91 1556 -91 
Q 1019 -91 701 211 
Q 384 513 384 1019 
Q 384 1609 779 1909 
Q 1175 2209 1959 2209 
L 2766 2209 
L 2766 2266 
Q 2766 2663 2505 2880 
Q 2244 3097 1772 3097 
Q 1472 3097 1187 3025 
Q 903 2953 641 2809 
L 641 3341 
Q 956 3463 1253 3523 
Q 1550 3584 1831 3584 
Q 2591 3584 2966 3190 
Q 3341 2797 3341 1997 
z
" transform="scale(0.015625)"/>
       <path id="DejaVuSans-75" d="M 544 1381 
L 544 3500 
L 1119 3500 
L 1119 1403 
Q 1119 906 1312 657 
Q 1506 409 1894 409 
Q 2359 409 2629 706 
Q 2900 1003 2900 1516 
L 2900 3500 
L 3475 3500 
L 3475 0 
L 2900 0 
L 2900 538 
Q 2691 219 2414 64 
Q 2138 -91 1772 -91 
Q 1169 -91 856 284 
Q 544 659 544 1381 
z
M 1991 3584 
L 1991 3584 
z
" transform="scale(0.015625)"/>
       <path id="DejaVuSans-56" d="M 1831 0 
L 50 4666 
L 709 4666 
L 2188 738 
L 3669 4666 
L 4325 4666 
L 2547 0 
L 1831 0 
z
" transform="scale(0.015625)"/>
      </defs>
      <use xlink:href="#DejaVuSans-53"/>
      <use xlink:href="#DejaVuSans-70" x="63.476562"/>
      <use xlink:href="#DejaVuSans-61" x="126.953125"/>
      <use xlink:href="#DejaVuSans-6e" x="188.232422"/>
      <use xlink:href="#DejaVuSans-6e" x="251.611328"/>
      <use xlink:href="#DejaVuSans-75" x="314.990234"/>
      <use xlink:href="#DejaVuSans-6e" x="378.369141"/>
      <use xlink:href="#DejaVuSans-67" x="441.748047"/>
      <use xlink:href="#DejaVuSans-20" x="505.224609"/>
      <use xlink:href="#DejaVuSans-69" x="537.011719"/>
      <use xlink:href="#DejaVuSans-6e" x="564.794922"/>
      <use xlink:href="#DejaVuSans-20" x="628.173828"/>
      <use xlink:href="#DejaVuSans-56" x="659.960938"/>
     </g>
    </g>
   </g>
   <g id="line2d_14">
    <path d="M 73.832727 287.740381 
L 75.342748 287.703708 
L 75.575059 288.02888 
L 76.504303 288.02888 
L 76.620459 287.596132 
L 78.827413 287.679259 
L 79.059724 287.425479 
L 79.872812 287.425479 
L 79.988967 288.392354 
L 81.034367 288.392354 
L 81.150522 287.472421 
L 83.357476 287.518711 
L 83.473631 288.219582 
L 84.519031 288.219582 
L 84.635186 287.64063 
L 86.84214 287.596948 
L 87.074451 287.97118 
L 87.887539 287.97118 
L 88.003695 287.236733 
L 89.049094 287.236733 
L 89.16525 287.772165 
L 90.094493 287.772165 
L 90.326804 287.637697 
L 91.372204 287.637697 
L 91.488359 287.077814 
L 92.417603 287.077814 
L 92.533758 287.463294 
L 94.624557 287.462641 
L 94.740712 288.001986 
L 95.902267 288.001986 
L 96.018423 287.495892 
L 97.063822 287.495892 
L 97.296133 287.207394 
L 99.386931 287.222063 
L 99.619242 287.042119 
L 100.43233 287.042119 
L 100.664641 286.899336 
L 101.593885 286.899336 
L 101.826196 286.730639 
L 102.639284 286.730639 
L 102.75544 287.896855 
L 103.916995 287.896855 
L 104.149306 288.023991 
L 104.962394 288.023991 
L 105.078549 288.509058 
L 106.123949 288.509058 
L 106.240104 287.649106 
L 107.401659 287.649106 
L 107.517814 287.210327 
L 108.447058 287.210327 
L 108.563214 287.605913 
L 110.654012 287.53501 
L 110.770168 288.046809 
L 111.931722 288.046809 
L 112.047878 286.982463 
L 112.977121 286.982463 
L 113.093277 287.794169 
L 114.138676 287.794169 
L 114.370987 287.603467 
L 115.184075 287.603467 
L 115.300231 286.45192 
L 116.461786 286.45192 
L 116.577941 287.879742 
L 117.507185 287.879742 
L 117.62334 288.336936 
L 118.66874 288.336936 
L 118.784895 287.129157 
L 119.94645 287.129157 
L 120.178761 287.446994 
L 122.153404 287.464108 
L 122.269559 286.762422 
L 125.521913 286.838214 
L 125.638068 287.339419 
L 127.728866 287.396141 
L 127.845022 286.994688 
L 130.168131 286.992242 
L 130.284287 287.903375 
L 131.213531 287.903375 
L 131.329686 287.178056 
L 132.491241 287.178056 
L 132.607396 287.703709 
L 133.53664 287.703709 
L 133.652796 286.884667 
L 134.698195 286.884667 
L 134.81435 287.763853 
L 135.743594 287.763853 
L 135.975905 287.402985 
L 138.066704 287.41032 
L 138.182859 286.838216 
L 139.228258 286.838216 
L 139.460569 286.498373 
L 140.273658 286.498373 
L 140.505968 286.3419 
L 143.758322 286.337009 
L 143.874477 285.943382 
L 145.036032 285.943382 
L 145.152187 284.89941 
L 146.081431 284.89941 
L 146.197587 284.447103 
L 147.242986 284.447103 
L 147.475297 284.078903 
L 148.288385 284.078903 
L 148.520696 284.278405 
L 149.566095 284.278405 
L 149.682251 283.689674 
L 150.611495 283.689674 
L 150.72765 283.273552 
L 151.773049 283.273552 
L 151.889205 282.444734 
L 153.050759 282.444734 
L 153.166915 281.901967 
L 154.096159 281.901967 
L 154.212314 279.854769 
L 155.257713 279.854769 
L 155.373869 280.753835 
L 156.303113 280.753835 
L 156.419268 278.131928 
L 157.580823 278.131928 
L 157.696978 276.379754 
L 158.626222 276.379754 
L 158.742378 275.083145 
L 159.787777 275.083145 
L 159.903932 271.882772 
L 160.833176 271.882772 
L 160.949332 270.38356 
L 162.110886 270.38356 
L 162.227042 265.347555 
L 163.272441 265.347555 
L 163.388597 261.330592 
L 164.31784 261.330592 
L 164.433996 257.709698 
L 165.59555 257.709698 
L 165.711706 253.079051 
L 166.64095 253.079051 
L 166.757105 247.65057 
L 167.802504 247.65057 
L 167.91866 242.760118 
L 168.847904 242.760118 
L 168.964059 236.938657 
L 170.125614 236.938657 
L 170.241769 231.550741 
L 171.171013 231.550741 
L 171.287169 224.199916 
L 172.332568 224.199916 
L 172.448723 217.515554 
L 173.377967 217.515554 
L 173.494123 209.249364 
L 174.655677 209.249364 
L 174.771833 202.716593 
L 175.817232 202.716593 
L 175.933388 194.769694 
L 176.862631 194.769694 
L 176.978787 187.095331 
L 178.140342 187.095331 
L 178.256497 180.976553 
L 179.185741 180.976553 
L 179.301896 172.905922 
L 180.347295 172.905922 
L 180.463451 165.612862 
L 181.392695 165.612862 
L 181.50885 156.996961 
L 182.670405 156.996961 
L 182.78656 148.463313 
L 183.715804 148.463313 
L 183.83196 138.711542 
L 184.877359 138.711542 
L 184.993514 130.108042 
L 186.155069 130.108042 
L 186.271225 123.351911 
L 187.200468 123.351911 
L 187.316624 116.396991 
L 188.362023 116.396991 
L 188.478179 107.895636 
L 189.407422 107.895636 
L 189.523578 100.151527 
L 190.685133 100.151527 
L 190.801288 93.507836 
L 191.730532 93.507836 
L 191.846687 85.082767 
L 192.892087 85.082767 
L 193.008242 79.161222 
L 193.937486 79.161222 
L 194.053641 73.70418 
L 195.215196 73.70418 
L 195.331351 68.876266 
L 196.260595 68.876266 
L 196.376751 64.80279 
L 197.42215 64.80279 
L 197.538305 61.477201 
L 198.69986 61.477201 
L 198.816016 58.457809 
L 199.745259 58.457809 
L 199.861415 55.203708 
L 200.906814 55.203708 
L 201.02297 54.247673 
L 201.952213 54.247673 
L 202.184524 54.541118 
L 203.229924 54.541118 
L 203.346079 53.568 
L 204.275323 53.568 
L 204.391478 55.060964 
L 205.436878 55.060964 
L 205.553033 55.834474 
L 206.482277 55.834474 
L 206.598432 58.428441 
L 207.759987 58.428441 
L 207.876142 61.240034 
L 208.921542 61.240034 
L 209.037697 63.991137 
L 209.966941 63.991137 
L 210.083096 67.831542 
L 211.244651 67.831542 
L 211.360807 71.474445 
L 212.29005 71.474445 
L 212.406206 75.867925 
L 213.451605 75.867925 
L 213.567761 79.647722 
L 214.497004 79.647722 
L 214.61316 84.171661 
L 215.774715 84.171661 
L 215.89087 89.596059 
L 216.820114 89.596059 
L 216.936269 94.619486 
L 217.981669 94.619486 
L 218.097824 98.947328 
L 219.027068 98.947328 
L 219.143223 105.456113 
L 220.304778 105.456113 
L 220.420933 111.081757 
L 221.466333 111.081757 
L 221.582488 117.608679 
L 222.511732 117.608679 
L 222.627887 123.381279 
L 223.789442 123.381279 
L 223.905598 128.301275 
L 224.834841 128.301275 
L 224.950997 134.012565 
L 225.996396 134.012565 
L 226.112552 140.283717 
L 227.041795 140.283717 
L 227.157951 147.307903 
L 228.319506 147.307903 
L 228.435661 152.451961 
L 229.364905 152.451961 
L 229.48106 159.86729 
L 230.52646 159.86729 
L 230.642615 164.793253 
L 231.571859 164.793253 
L 231.688014 171.70301 
L 232.849569 171.70301 
L 232.965725 177.133141 
L 234.011124 177.133141 
L 234.127279 181.648901 
L 235.056523 181.648901 
L 235.172678 187.061915 
L 236.334233 187.061915 
L 236.450389 191.403562 
L 237.379632 191.403562 
L 237.495788 195.939331 
L 238.541187 195.939331 
L 238.657343 199.868775 
L 239.586586 199.868775 
L 239.702742 204.146855 
L 240.864297 204.146855 
L 240.980452 207.579503 
L 241.909696 207.579503 
L 242.025851 210.973013 
L 243.071251 210.973013 
L 243.187406 213.897936 
L 244.348961 213.897936 
L 244.465116 216.194831 
L 245.39436 216.194831 
L 245.510516 219.870003 
L 246.555915 219.870003 
L 246.67207 222.635181 
L 247.601314 222.635181 
L 247.71747 223.745158 
L 248.879024 223.745158 
L 248.99518 226.150949 
L 249.924423 226.150949 
L 250.040579 228.077528 
L 251.085978 228.077528 
L 251.202134 229.358657 
L 252.131377 229.358657 
L 252.247533 231.422154 
L 253.409088 231.422154 
L 253.525243 233.431852 
L 254.454487 233.431852 
L 254.570642 235.09439 
L 255.616042 235.09439 
L 255.732197 235.827861 
L 256.893752 235.827861 
L 257.009907 238.478621 
L 257.939151 238.478621 
L 258.055307 239.942615 
L 259.100706 239.942615 
L 259.216861 241.517131 
L 260.146105 241.517131 
L 260.262261 243.419268 
L 261.423815 243.419268 
L 261.539971 244.468941 
L 262.469215 244.468941 
L 262.58537 245.282279 
L 263.630769 245.282279 
L 263.746925 246.691516 
L 264.676168 246.691516 
L 264.792324 248.485097 
L 265.953879 248.485097 
L 266.070034 249.893351 
L 267.115433 249.893351 
L 267.231589 250.741731 
L 268.160833 250.741731 
L 268.276988 252.771005 
L 269.438543 252.771005 
L 269.554698 253.570478 
L 270.483942 253.570478 
L 270.600098 254.973852 
L 271.645497 254.973852 
L 271.761652 255.862821 
L 272.690896 255.862821 
L 272.923207 256.086286 
L 273.968606 256.086286 
L 274.084762 257.69258 
L 275.014006 257.69258 
L 275.130161 258.790342 
L 276.17556 258.790342 
L 276.291716 260.210822 
L 277.22096 260.210822 
L 277.337115 260.999063 
L 278.49867 260.999063 
L 278.614825 262.122729 
L 279.660224 262.122729 
L 279.892535 262.31018 
L 280.705624 262.31018 
L 280.821779 263.020017 
L 281.983334 263.020017 
L 282.099489 263.968634 
L 283.028733 263.968634 
L 283.144889 264.677652 
L 284.190288 264.677652 
L 284.306443 266.060972 
L 285.235687 266.060972 
L 285.351843 267.082623 
L 286.513397 267.082623 
L 286.629553 267.54357 
L 287.558797 267.54357 
L 287.674952 268.543037 
L 288.720351 268.543037 
L 288.952662 268.921181 
L 289.765751 268.921181 
L 289.881906 269.677468 
L 291.043461 269.677468 
L 291.159616 269.100477 
L 292.205015 269.100477 
L 292.321171 270.152759 
L 293.250415 270.152759 
L 293.482726 270.354707 
L 294.528125 270.354707 
L 294.64428 271.058846 
L 296.735079 270.997711 
L 296.851234 272.190831 
L 297.780478 272.190831 
L 297.896634 272.865625 
L 299.058188 272.865625 
L 299.174344 273.408381 
L 300.103588 273.408381 
L 300.335899 273.222579 
L 301.265142 273.222579 
L 301.381298 274.623497 
L 302.310542 274.623497 
L 302.542852 274.931555 
L 303.588252 274.931555 
L 303.820563 274.677295 
L 304.749806 274.677295 
L 304.865962 275.26945 
L 305.795206 275.26945 
L 305.911361 276.019535 
L 307.072916 276.019535 
L 307.189071 275.557454 
L 309.27987 275.515894 
L 309.396025 276.156453 
L 310.325269 276.156453 
L 310.55758 276.019535 
L 311.602979 276.019535 
L 311.719135 277.151521 
L 313.809933 277.12757 
L 313.926089 277.804318 
L 315.087644 277.804318 
L 315.319954 278.139264 
L 316.133043 278.139264 
L 316.365354 278.004792 
L 317.294597 278.004792 
L 317.410753 278.583421 
L 318.339997 278.583421 
L 318.572308 278.46444 
L 319.617707 278.46444 
L 319.850018 278.657098 
L 320.663106 278.657098 
L 320.779262 279.579307 
L 322.87006 279.496188 
L 322.986216 279.985169 
L 324.14777 279.985169 
L 324.263926 280.501037 
L 325.309325 280.501037 
L 325.541636 280.192487 
L 326.354724 280.192487 
L 326.587035 280.001468 
L 327.632435 280.001468 
L 327.74859 280.716183 
L 328.677834 280.716183 
L 328.910145 280.919114 
L 330.884788 280.948459 
L 331.117099 281.082919 
L 332.162498 281.082919 
L 332.278653 281.780693 
L 333.207897 281.780693 
L 333.324053 281.210874 
L 334.369452 281.210874 
L 334.601763 281.534248 
L 335.414851 281.534248 
L 335.531007 282.388502 
L 336.692561 282.388502 
L 336.808717 282.906009 
L 337.854116 282.906009 
L 337.970272 282.255984 
L 338.899515 282.255984 
L 339.015671 283.052696 
L 340.177226 283.052696 
L 340.409537 282.707805 
L 341.222625 282.707805 
L 341.454936 282.923933 
L 342.38418 282.923933 
L 342.61649 282.689225 
L 343.429579 282.689225 
L 343.545734 283.914115 
L 344.707289 283.914115 
L 344.823444 283.439802 
L 345.752688 283.439802 
L 345.868844 283.042914 
L 346.914243 283.042914 
L 347.030398 283.501907 
L 347.959642 283.501907 
L 348.075798 284.038805 
L 349.237352 284.038805 
L 349.469663 283.755196 
L 351.444306 283.689183 
L 351.560462 284.173274 
L 353.767416 284.096505 
L 353.999727 284.4251 
L 354.928971 284.4251 
L 355.161282 284.711152 
L 355.97437 284.711152 
L 356.090525 283.963013 
L 357.25208 283.963013 
L 357.368235 284.896965 
L 358.297479 284.896965 
L 358.52979 284.650031 
L 359.459034 284.650031 
L 359.691345 284.965423 
L 361.782143 284.880828 
L 361.898299 285.341937 
L 362.943698 285.341937 
L 363.059854 285.73801 
L 363.989097 285.73801 
L 364.221408 285.605171 
L 365.266808 285.605171 
L 365.382963 286.214765 
L 366.312207 286.214765 
L 366.428362 285.686666 
L 367.473762 285.686666 
L 367.706073 285.954629 
L 368.519161 285.954629 
L 368.635316 285.327268 
L 369.796871 285.327268 
L 369.913027 285.816246 
L 370.84227 285.816246 
L 370.958426 286.224544 
L 372.003825 286.224544 
L 372.236136 285.926267 
L 373.281535 285.926267 
L 373.513846 285.711116 
L 374.326934 285.711116 
L 374.44309 286.425026 
L 375.488489 286.425026 
L 375.604645 285.892039 
L 376.533888 285.892039 
L 376.650044 286.407913 
L 377.811599 286.407913 
L 378.04391 286.596169 
L 380.018553 286.676851 
L 380.134708 287.409831 
L 381.063952 287.409831 
L 381.296263 287.101449 
L 382.341662 287.101449 
L 382.573973 286.887601 
L 383.387061 286.887601 
L 383.619372 286.733083 
L 384.548616 286.733083 
L 384.664772 286.094965 
L 385.826326 286.094965 
L 385.942482 286.869997 
L 388.03328 286.974313 
L 388.265591 287.137958 
L 389.078679 287.137958 
L 389.194835 286.56194 
L 391.401789 286.513043 
L 391.6341 286.759978 
L 392.563344 286.759978 
L 392.679499 287.401356 
L 393.608743 287.401356 
L 393.841054 287.077326 
L 396.048008 286.967793 
L 396.164163 286.527712 
L 397.093407 286.527712 
L 397.325718 286.290557 
L 398.371117 286.290557 
L 398.487273 286.879777 
L 398.487273 286.879777 
" clip-path="url(#p3402c2ac1e)" style="fill: none; stroke: #1f77b4; stroke-width: 1.5; stroke-linecap: square"/>
   </g>
   <g id="line2d_15">
    <path d="M 73.832727 295.488 
L 102.871595 295.379864 
L 105.775482 295.116922 
L 107.866281 294.715475 
L 109.724768 294.128778 
L 111.350945 293.381921 
L 112.860966 292.451537 
L 114.370987 291.258448 
L 115.881008 289.773493 
L 117.391029 287.973516 
L 119.017206 285.664473 
L 120.643383 282.961321 
L 122.385715 279.628232 
L 124.244202 275.589679 
L 126.335001 270.488406 
L 128.65811 264.20302 
L 131.329686 256.310579 
L 134.698195 245.63197 
L 147.939919 202.855499 
L 150.959961 194.228414 
L 153.747692 186.918368 
L 156.303113 180.823023 
L 158.742378 175.572625 
L 161.065487 171.099259 
L 163.272441 167.327113 
L 165.36324 164.178099 
L 167.454038 161.433589 
L 169.428681 159.202391 
L 171.403324 157.309453 
L 173.261812 155.824628 
L 175.120299 154.614932 
L 176.978787 153.667271 
L 178.837274 152.968085 
L 180.695762 152.503541 
L 182.554249 152.259704 
L 184.528893 152.226918 
L 186.503536 152.411142 
L 188.594334 152.824818 
L 190.801288 153.485262 
L 193.240553 154.45772 
L 195.795973 155.721011 
L 198.583705 157.350542 
L 201.719902 159.454372 
L 205.204567 162.073737 
L 209.153853 165.331103 
L 213.800072 169.46078 
L 219.724001 175.040369 
L 229.48106 184.588948 
L 241.909696 196.683267 
L 249.692113 203.937913 
L 256.545285 210.029561 
L 263.049992 215.519974 
L 269.438543 220.620331 
L 275.710938 225.341253 
L 281.867178 229.699991 
L 288.139574 233.867053 
L 294.411969 237.766883 
L 300.80052 241.476035 
L 307.305227 244.993853 
L 313.926089 248.321713 
L 320.779262 251.514751 
L 327.74859 254.517418 
L 334.950229 257.380195 
L 342.500335 260.140099 
L 350.282752 262.747809 
L 358.413635 265.237795 
L 366.892984 267.602864 
L 375.836956 269.866241 
L 385.245549 272.017225 
L 395.234919 274.070848 
L 398.487273 274.692823 
L 398.487273 274.692823 
" clip-path="url(#p3402c2ac1e)" style="fill: none; stroke: #ff7f0e; stroke-width: 1.5; stroke-linecap: square"/>
   </g>
   <g id="patch_3">
    <path d="M 57.6 307.584 
L 57.6 41.472 
" style="fill: none; stroke: #000000; stroke-width: 0.8; stroke-linejoin: miter; stroke-linecap: square"/>
   </g>
   <g id="patch_4">
    <path d="M 414.72 307.584 
L 414.72 41.472 
" style="fill: none; stroke: #000000; stroke-width: 0.8; stroke-linejoin: miter; stroke-linecap: square"/>
   </g>
   <g id="patch_5">
    <path d="M 57.6 307.584 
L 414.72 307.584 
" style="fill: none; stroke: #000000; stroke-width: 0.8; stroke-linejoin: miter; stroke-linecap: square"/>
   </g>
   <g id="patch_6">
    <path d="M 57.6 41.472 
L 414.72 41.472 
" style="fill: none; stroke: #000000; stroke-width: 0.8; stroke-linejoin: miter; stroke-linecap: square"/>
   </g>
   <g id="legend_1">
    <g id="patch_7">
     <path d="M 279.310625 78.82825 
L 407.72 78.82825 
Q 409.72 78.82825 409.72 76.82825 
L 409.72 48.472 
Q 409.72 46.472 407.72 46.472 
L 279.310625 46.472 
Q 277.310625 46.472 277.310625 48.472 
L 277.310625 76.82825 
Q 277.310625 78.82825 279.310625 78.82825 
z
" style="fill: #ffffff; opacity: 0.8; stroke: #cccccc; stroke-linejoin: miter"/>
    </g>
    <g id="line2d_16">
     <path d="M 281.310625 54.570437 
L 291.310625 54.570437 
L 301.310625 54.570437 
" style="fill: none; stroke: #1f77b4; stroke-width: 1.5; stroke-linecap: square"/>
    </g>
    <g id="text_17">
     <!-- $T=590$ -->
     <g transform="translate(309.310625 58.070437) scale(0.1 -0.1)">
      <defs>
       <path id="DejaVuSans-Oblique-54" d="M 378 4666 
L 4325 4666 
L 4225 4134 
L 2559 4134 
L 1759 0 
L 1125 0 
L 1925 4134 
L 275 4134 
L 378 4666 
z
" transform="scale(0.015625)"/>
       <path id="DejaVuSans-3d" d="M 678 2906 
L 4684 2906 
L 4684 2381 
L 678 2381 
L 678 2906 
z
M 678 1631 
L 4684 1631 
L 4684 1100 
L 678 1100 
L 678 1631 
z
" transform="scale(0.015625)"/>
       <path id="DejaVuSans-39" d="M 703 97 
L 703 672 
Q 941 559 1184 500 
Q 1428 441 1663 441 
Q 2288 441 2617 861 
Q 2947 1281 2994 2138 
Q 2813 1869 2534 1725 
Q 2256 1581 1919 1581 
Q 1219 1581 811 2004 
Q 403 2428 403 3163 
Q 403 3881 828 4315 
Q 1253 4750 1959 4750 
Q 2769 4750 3195 4129 
Q 3622 3509 3622 2328 
Q 3622 1225 3098 567 
Q 2575 -91 1691 -91 
Q 1453 -91 1209 -44 
Q 966 3 703 97 
z
M 1959 2075 
Q 2384 2075 2632 2365 
Q 2881 2656 2881 3163 
Q 2881 3666 2632 3958 
Q 2384 4250 1959 4250 
Q 1534 4250 1286 3958 
Q 1038 3666 1038 3163 
Q 1038 2656 1286 2365 
Q 1534 2075 1959 2075 
z
" transform="scale(0.015625)"/>
      </defs>
      <use xlink:href="#DejaVuSans-Oblique-54" transform="translate(0 0.78125)"/>
      <use xlink:href="#DejaVuSans-3d" transform="translate(80.566406 0.78125)"/>
      <use xlink:href="#DejaVuSans-35" transform="translate(183.837891 0.78125)"/>
      <use xlink:href="#DejaVuSans-39" transform="translate(241.960938 0.78125)"/>
      <use xlink:href="#DejaVuSans-30" transform="translate(305.583984 0.78125)"/>
     </g>
    </g>
    <g id="line2d_17">
     <path d="M 281.310625 69.248562 
L 291.310625 69.248562 
L 301.310625 69.248562 
" style="fill: none; stroke: #ff7f0e; stroke-width: 1.5; stroke-linecap: square"/>
    </g>
    <g id="text_18">
     <!-- Theoretische Kurve -->
     <g transform="translate(309.310625 72.748562) scale(0.1 -0.1)">
      <defs>
       <path id="DejaVuSans-54" d="M -19 4666 
L 3928 4666 
L 3928 4134 
L 2272 4134 
L 2272 0 
L 1638 0 
L 1638 4134 
L -19 4134 
L -19 4666 
z
" transform="scale(0.015625)"/>
       <path id="DejaVuSans-68" d="M 3513 2113 
L 3513 0 
L 2938 0 
L 2938 2094 
Q 2938 2591 2744 2837 
Q 2550 3084 2163 3084 
Q 1697 3084 1428 2787 
Q 1159 2491 1159 1978 
L 1159 0 
L 581 0 
L 581 4863 
L 1159 4863 
L 1159 2956 
Q 1366 3272 1645 3428 
Q 1925 3584 2291 3584 
Q 2894 3584 3203 3211 
Q 3513 2838 3513 2113 
z
" transform="scale(0.015625)"/>
       <path id="DejaVuSans-6f" d="M 1959 3097 
Q 1497 3097 1228 2736 
Q 959 2375 959 1747 
Q 959 1119 1226 758 
Q 1494 397 1959 397 
Q 2419 397 2687 759 
Q 2956 1122 2956 1747 
Q 2956 2369 2687 2733 
Q 2419 3097 1959 3097 
z
M 1959 3584 
Q 2709 3584 3137 3096 
Q 3566 2609 3566 1747 
Q 3566 888 3137 398 
Q 2709 -91 1959 -91 
Q 1206 -91 779 398 
Q 353 888 353 1747 
Q 353 2609 779 3096 
Q 1206 3584 1959 3584 
z
" transform="scale(0.015625)"/>
       <path id="DejaVuSans-72" d="M 2631 2963 
Q 2534 3019 2420 3045 
Q 2306 3072 2169 3072 
Q 1681 3072 1420 2755 
Q 1159 2438 1159 1844 
L 1159 0 
L 581 0 
L 581 3500 
L 1159 3500 
L 1159 2956 
Q 1341 3275 1631 3429 
Q 1922 3584 2338 3584 
Q 2397 3584 2469 3576 
Q 2541 3569 2628 3553 
L 2631 2963 
z
" transform="scale(0.015625)"/>
       <path id="DejaVuSans-74" d="M 1172 4494 
L 1172 3500 
L 2356 3500 
L 2356 3053 
L 1172 3053 
L 1172 1153 
Q 1172 725 1289 603 
Q 1406 481 1766 481 
L 2356 481 
L 2356 0 
L 1766 0 
Q 1100 0 847 248 
Q 594 497 594 1153 
L 594 3053 
L 172 3053 
L 172 3500 
L 594 3500 
L 594 4494 
L 1172 4494 
z
" transform="scale(0.015625)"/>
       <path id="DejaVuSans-73" d="M 2834 3397 
L 2834 2853 
Q 2591 2978 2328 3040 
Q 2066 3103 1784 3103 
Q 1356 3103 1142 2972 
Q 928 2841 928 2578 
Q 928 2378 1081 2264 
Q 1234 2150 1697 2047 
L 1894 2003 
Q 2506 1872 2764 1633 
Q 3022 1394 3022 966 
Q 3022 478 2636 193 
Q 2250 -91 1575 -91 
Q 1294 -91 989 -36 
Q 684 19 347 128 
L 347 722 
Q 666 556 975 473 
Q 1284 391 1588 391 
Q 1994 391 2212 530 
Q 2431 669 2431 922 
Q 2431 1156 2273 1281 
Q 2116 1406 1581 1522 
L 1381 1569 
Q 847 1681 609 1914 
Q 372 2147 372 2553 
Q 372 3047 722 3315 
Q 1072 3584 1716 3584 
Q 2034 3584 2315 3537 
Q 2597 3491 2834 3397 
z
" transform="scale(0.015625)"/>
       <path id="DejaVuSans-63" d="M 3122 3366 
L 3122 2828 
Q 2878 2963 2633 3030 
Q 2388 3097 2138 3097 
Q 1578 3097 1268 2742 
Q 959 2388 959 1747 
Q 959 1106 1268 751 
Q 1578 397 2138 397 
Q 2388 397 2633 464 
Q 2878 531 3122 666 
L 3122 134 
Q 2881 22 2623 -34 
Q 2366 -91 2075 -91 
Q 1284 -91 818 406 
Q 353 903 353 1747 
Q 353 2603 823 3093 
Q 1294 3584 2113 3584 
Q 2378 3584 2631 3529 
Q 2884 3475 3122 3366 
z
" transform="scale(0.015625)"/>
       <path id="DejaVuSans-4b" d="M 628 4666 
L 1259 4666 
L 1259 2694 
L 3353 4666 
L 4166 4666 
L 1850 2491 
L 4331 0 
L 3500 0 
L 1259 2247 
L 1259 0 
L 628 0 
L 628 4666 
z
" transform="scale(0.015625)"/>
       <path id="DejaVuSans-76" d="M 191 3500 
L 800 3500 
L 1894 563 
L 2988 3500 
L 3597 3500 
L 2284 0 
L 1503 0 
L 191 3500 
z
" transform="scale(0.015625)"/>
      </defs>
      <use xlink:href="#DejaVuSans-54"/>
      <use xlink:href="#DejaVuSans-68" x="61.083984"/>
      <use xlink:href="#DejaVuSans-65" x="124.462891"/>
      <use xlink:href="#DejaVuSans-6f" x="185.986328"/>
      <use xlink:href="#DejaVuSans-72" x="247.167969"/>
      <use xlink:href="#DejaVuSans-65" x="286.03125"/>
      <use xlink:href="#DejaVuSans-74" x="347.554688"/>
      <use xlink:href="#DejaVuSans-69" x="386.763672"/>
      <use xlink:href="#DejaVuSans-73" x="414.546875"/>
      <use xlink:href="#DejaVuSans-63" x="466.646484"/>
      <use xlink:href="#DejaVuSans-68" x="521.626953"/>
      <use xlink:href="#DejaVuSans-65" x="585.005859"/>
      <use xlink:href="#DejaVuSans-20" x="646.529297"/>
      <use xlink:href="#DejaVuSans-4b" x="678.316406"/>
      <use xlink:href="#DejaVuSans-75" x="738.892578"/>
      <use xlink:href="#DejaVuSans-72" x="802.271484"/>
      <use xlink:href="#DejaVuSans-76" x="843.384766"/>
      <use xlink:href="#DejaVuSans-65" x="902.564453"/>
     </g>
    </g>
   </g>
  </g>
 </g>
 <defs>
  <clipPath id="p3402c2ac1e">
   <rect x="57.6" y="41.472" width="357.12" height="266.112"/>
  </clipPath>
 </defs>
</svg>
