<?xml version="1.0" encoding="utf-8" standalone="no"?>
<!DOCTYPE svg PUBLIC "-//W3C//DTD SVG 1.1//EN"
  "http://www.w3.org/Graphics/SVG/1.1/DTD/svg11.dtd">
<svg xmlns:xlink="http://www.w3.org/1999/xlink" width="433.55125pt" height="310.86825pt" viewBox="0 0 433.55125 310.86825" xmlns="http://www.w3.org/2000/svg" version="1.1">
 <metadata>
  <rdf:RDF xmlns:dc="http://purl.org/dc/elements/1.1/" xmlns:cc="http://creativecommons.org/ns#" xmlns:rdf="http://www.w3.org/1999/02/22-rdf-syntax-ns#">
   <cc:Work>
    <dc:type rdf:resource="http://purl.org/dc/dcmitype/StillImage"/>
    <dc:date>2024-07-12T18:08:20.739733</dc:date>
    <dc:format>image/svg+xml</dc:format>
    <dc:creator>
     <cc:Agent>
      <dc:title>Matplotlib v3.8.2, https://matplotlib.org/</dc:title>
     </cc:Agent>
    </dc:creator>
   </cc:Work>
  </rdf:RDF>
 </metadata>
 <defs>
  <style type="text/css">*{stroke-linejoin: round; stroke-linecap: butt}</style>
 </defs>
 <g id="figure_1">
  <g id="patch_1">
   <path d="M 0 310.86825 
L 433.55125 310.86825 
L 433.55125 0 
L 0 0 
z
" style="fill: #ffffff"/>
  </g>
  <g id="axes_1">
   <g id="patch_2">
    <path d="M 69.23125 273.312 
L 426.35125 273.312 
L 426.35125 7.2 
L 69.23125 7.2 
z
" style="fill: #ffffff"/>
   </g>
   <g id="matplotlib.axis_1">
    <g id="xtick_1">
     <g id="line2d_1">
      <defs>
       <path id="ma64b0f740e" d="M 0 0 
L 0 3.5 
" style="stroke: #000000; stroke-width: 0.8"/>
      </defs>
      <g>
       <use xlink:href="#ma64b0f740e" x="85.460811" y="273.312" style="stroke: #000000; stroke-width: 0.8"/>
      </g>
     </g>
     <g id="text_1">
      <!-- 0.0 -->
      <g transform="translate(77.509248 287.910437) scale(0.1 -0.1)">
       <defs>
        <path id="DejaVuSans-30" d="M 2034 4250 
Q 1547 4250 1301 3770 
Q 1056 3291 1056 2328 
Q 1056 1369 1301 889 
Q 1547 409 2034 409 
Q 2525 409 2770 889 
Q 3016 1369 3016 2328 
Q 3016 3291 2770 3770 
Q 2525 4250 2034 4250 
z
M 2034 4750 
Q 2819 4750 3233 4129 
Q 3647 3509 3647 2328 
Q 3647 1150 3233 529 
Q 2819 -91 2034 -91 
Q 1250 -91 836 529 
Q 422 1150 422 2328 
Q 422 3509 836 4129 
Q 1250 4750 2034 4750 
z
" transform="scale(0.015625)"/>
        <path id="DejaVuSans-2e" d="M 684 794 
L 1344 794 
L 1344 0 
L 684 0 
L 684 794 
z
" transform="scale(0.015625)"/>
       </defs>
       <use xlink:href="#DejaVuSans-30"/>
       <use xlink:href="#DejaVuSans-2e" x="63.623047"/>
       <use xlink:href="#DejaVuSans-30" x="95.410156"/>
      </g>
     </g>
    </g>
    <g id="xtick_2">
     <g id="line2d_2">
      <g>
       <use xlink:href="#ma64b0f740e" x="130.399734" y="273.312" style="stroke: #000000; stroke-width: 0.8"/>
      </g>
     </g>
     <g id="text_2">
      <!-- 0.2 -->
      <g transform="translate(122.448172 287.910437) scale(0.1 -0.1)">
       <defs>
        <path id="DejaVuSans-32" d="M 1228 531 
L 3431 531 
L 3431 0 
L 469 0 
L 469 531 
Q 828 903 1448 1529 
Q 2069 2156 2228 2338 
Q 2531 2678 2651 2914 
Q 2772 3150 2772 3378 
Q 2772 3750 2511 3984 
Q 2250 4219 1831 4219 
Q 1534 4219 1204 4116 
Q 875 4013 500 3803 
L 500 4441 
Q 881 4594 1212 4672 
Q 1544 4750 1819 4750 
Q 2544 4750 2975 4387 
Q 3406 4025 3406 3419 
Q 3406 3131 3298 2873 
Q 3191 2616 2906 2266 
Q 2828 2175 2409 1742 
Q 1991 1309 1228 531 
z
" transform="scale(0.015625)"/>
       </defs>
       <use xlink:href="#DejaVuSans-30"/>
       <use xlink:href="#DejaVuSans-2e" x="63.623047"/>
       <use xlink:href="#DejaVuSans-32" x="95.410156"/>
      </g>
     </g>
    </g>
    <g id="xtick_3">
     <g id="line2d_3">
      <g>
       <use xlink:href="#ma64b0f740e" x="175.338658" y="273.312" style="stroke: #000000; stroke-width: 0.8"/>
      </g>
     </g>
     <g id="text_3">
      <!-- 0.4 -->
      <g transform="translate(167.387095 287.910437) scale(0.1 -0.1)">
       <defs>
        <path id="DejaVuSans-34" d="M 2419 4116 
L 825 1625 
L 2419 1625 
L 2419 4116 
z
M 2253 4666 
L 3047 4666 
L 3047 1625 
L 3713 1625 
L 3713 1100 
L 3047 1100 
L 3047 0 
L 2419 0 
L 2419 1100 
L 313 1100 
L 313 1709 
L 2253 4666 
z
" transform="scale(0.015625)"/>
       </defs>
       <use xlink:href="#DejaVuSans-30"/>
       <use xlink:href="#DejaVuSans-2e" x="63.623047"/>
       <use xlink:href="#DejaVuSans-34" x="95.410156"/>
      </g>
     </g>
    </g>
    <g id="xtick_4">
     <g id="line2d_4">
      <g>
       <use xlink:href="#ma64b0f740e" x="220.277581" y="273.312" style="stroke: #000000; stroke-width: 0.8"/>
      </g>
     </g>
     <g id="text_4">
      <!-- 0.6 -->
      <g transform="translate(212.326019 287.910437) scale(0.1 -0.1)">
       <defs>
        <path id="DejaVuSans-36" d="M 2113 2584 
Q 1688 2584 1439 2293 
Q 1191 2003 1191 1497 
Q 1191 994 1439 701 
Q 1688 409 2113 409 
Q 2538 409 2786 701 
Q 3034 994 3034 1497 
Q 3034 2003 2786 2293 
Q 2538 2584 2113 2584 
z
M 3366 4563 
L 3366 3988 
Q 3128 4100 2886 4159 
Q 2644 4219 2406 4219 
Q 1781 4219 1451 3797 
Q 1122 3375 1075 2522 
Q 1259 2794 1537 2939 
Q 1816 3084 2150 3084 
Q 2853 3084 3261 2657 
Q 3669 2231 3669 1497 
Q 3669 778 3244 343 
Q 2819 -91 2113 -91 
Q 1303 -91 875 529 
Q 447 1150 447 2328 
Q 447 3434 972 4092 
Q 1497 4750 2381 4750 
Q 2619 4750 2861 4703 
Q 3103 4656 3366 4563 
z
" transform="scale(0.015625)"/>
       </defs>
       <use xlink:href="#DejaVuSans-30"/>
       <use xlink:href="#DejaVuSans-2e" x="63.623047"/>
       <use xlink:href="#DejaVuSans-36" x="95.410156"/>
      </g>
     </g>
    </g>
    <g id="xtick_5">
     <g id="line2d_5">
      <g>
       <use xlink:href="#ma64b0f740e" x="265.216505" y="273.312" style="stroke: #000000; stroke-width: 0.8"/>
      </g>
     </g>
     <g id="text_5">
      <!-- 0.8 -->
      <g transform="translate(257.264942 287.910437) scale(0.1 -0.1)">
       <defs>
        <path id="DejaVuSans-38" d="M 2034 2216 
Q 1584 2216 1326 1975 
Q 1069 1734 1069 1313 
Q 1069 891 1326 650 
Q 1584 409 2034 409 
Q 2484 409 2743 651 
Q 3003 894 3003 1313 
Q 3003 1734 2745 1975 
Q 2488 2216 2034 2216 
z
M 1403 2484 
Q 997 2584 770 2862 
Q 544 3141 544 3541 
Q 544 4100 942 4425 
Q 1341 4750 2034 4750 
Q 2731 4750 3128 4425 
Q 3525 4100 3525 3541 
Q 3525 3141 3298 2862 
Q 3072 2584 2669 2484 
Q 3125 2378 3379 2068 
Q 3634 1759 3634 1313 
Q 3634 634 3220 271 
Q 2806 -91 2034 -91 
Q 1263 -91 848 271 
Q 434 634 434 1313 
Q 434 1759 690 2068 
Q 947 2378 1403 2484 
z
M 1172 3481 
Q 1172 3119 1398 2916 
Q 1625 2713 2034 2713 
Q 2441 2713 2670 2916 
Q 2900 3119 2900 3481 
Q 2900 3844 2670 4047 
Q 2441 4250 2034 4250 
Q 1625 4250 1398 4047 
Q 1172 3844 1172 3481 
z
" transform="scale(0.015625)"/>
       </defs>
       <use xlink:href="#DejaVuSans-30"/>
       <use xlink:href="#DejaVuSans-2e" x="63.623047"/>
       <use xlink:href="#DejaVuSans-38" x="95.410156"/>
      </g>
     </g>
    </g>
    <g id="xtick_6">
     <g id="line2d_6">
      <g>
       <use xlink:href="#ma64b0f740e" x="310.155429" y="273.312" style="stroke: #000000; stroke-width: 0.8"/>
      </g>
     </g>
     <g id="text_6">
      <!-- 1.0 -->
      <g transform="translate(302.203866 287.910437) scale(0.1 -0.1)">
       <defs>
        <path id="DejaVuSans-31" d="M 794 531 
L 1825 531 
L 1825 4091 
L 703 3866 
L 703 4441 
L 1819 4666 
L 2450 4666 
L 2450 531 
L 3481 531 
L 3481 0 
L 794 0 
L 794 531 
z
" transform="scale(0.015625)"/>
       </defs>
       <use xlink:href="#DejaVuSans-31"/>
       <use xlink:href="#DejaVuSans-2e" x="63.623047"/>
       <use xlink:href="#DejaVuSans-30" x="95.410156"/>
      </g>
     </g>
    </g>
    <g id="xtick_7">
     <g id="line2d_7">
      <g>
       <use xlink:href="#ma64b0f740e" x="355.094352" y="273.312" style="stroke: #000000; stroke-width: 0.8"/>
      </g>
     </g>
     <g id="text_7">
      <!-- 1.2 -->
      <g transform="translate(347.14279 287.910437) scale(0.1 -0.1)">
       <use xlink:href="#DejaVuSans-31"/>
       <use xlink:href="#DejaVuSans-2e" x="63.623047"/>
       <use xlink:href="#DejaVuSans-32" x="95.410156"/>
      </g>
     </g>
    </g>
    <g id="xtick_8">
     <g id="line2d_8">
      <g>
       <use xlink:href="#ma64b0f740e" x="400.033276" y="273.312" style="stroke: #000000; stroke-width: 0.8"/>
      </g>
     </g>
     <g id="text_8">
      <!-- 1.4 -->
      <g transform="translate(392.081713 287.910437) scale(0.1 -0.1)">
       <use xlink:href="#DejaVuSans-31"/>
       <use xlink:href="#DejaVuSans-2e" x="63.623047"/>
       <use xlink:href="#DejaVuSans-34" x="95.410156"/>
      </g>
     </g>
    </g>
    <g id="text_9">
     <!-- Wellenlänge in m -->
     <g transform="translate(204.562344 301.588562) scale(0.1 -0.1)">
      <defs>
       <path id="DejaVuSans-57" d="M 213 4666 
L 850 4666 
L 1831 722 
L 2809 4666 
L 3519 4666 
L 4500 722 
L 5478 4666 
L 6119 4666 
L 4947 0 
L 4153 0 
L 3169 4050 
L 2175 0 
L 1381 0 
L 213 4666 
z
" transform="scale(0.015625)"/>
       <path id="DejaVuSans-65" d="M 3597 1894 
L 3597 1613 
L 953 1613 
Q 991 1019 1311 708 
Q 1631 397 2203 397 
Q 2534 397 2845 478 
Q 3156 559 3463 722 
L 3463 178 
Q 3153 47 2828 -22 
Q 2503 -91 2169 -91 
Q 1331 -91 842 396 
Q 353 884 353 1716 
Q 353 2575 817 3079 
Q 1281 3584 2069 3584 
Q 2775 3584 3186 3129 
Q 3597 2675 3597 1894 
z
M 3022 2063 
Q 3016 2534 2758 2815 
Q 2500 3097 2075 3097 
Q 1594 3097 1305 2825 
Q 1016 2553 972 2059 
L 3022 2063 
z
" transform="scale(0.015625)"/>
       <path id="DejaVuSans-6c" d="M 603 4863 
L 1178 4863 
L 1178 0 
L 603 0 
L 603 4863 
z
" transform="scale(0.015625)"/>
       <path id="DejaVuSans-6e" d="M 3513 2113 
L 3513 0 
L 2938 0 
L 2938 2094 
Q 2938 2591 2744 2837 
Q 2550 3084 2163 3084 
Q 1697 3084 1428 2787 
Q 1159 2491 1159 1978 
L 1159 0 
L 581 0 
L 581 3500 
L 1159 3500 
L 1159 2956 
Q 1366 3272 1645 3428 
Q 1925 3584 2291 3584 
Q 2894 3584 3203 3211 
Q 3513 2838 3513 2113 
z
" transform="scale(0.015625)"/>
       <path id="DejaVuSans-e4" d="M 2194 1759 
Q 1497 1759 1228 1600 
Q 959 1441 959 1056 
Q 959 750 1161 570 
Q 1363 391 1709 391 
Q 2188 391 2477 730 
Q 2766 1069 2766 1631 
L 2766 1759 
L 2194 1759 
z
M 3341 1997 
L 3341 0 
L 2766 0 
L 2766 531 
Q 2569 213 2275 61 
Q 1981 -91 1556 -91 
Q 1019 -91 701 211 
Q 384 513 384 1019 
Q 384 1609 779 1909 
Q 1175 2209 1959 2209 
L 2766 2209 
L 2766 2266 
Q 2766 2663 2505 2880 
Q 2244 3097 1772 3097 
Q 1472 3097 1187 3025 
Q 903 2953 641 2809 
L 641 3341 
Q 956 3463 1253 3523 
Q 1550 3584 1831 3584 
Q 2591 3584 2966 3190 
Q 3341 2797 3341 1997 
z
M 2150 4850 
L 2784 4850 
L 2784 4219 
L 2150 4219 
L 2150 4850 
z
M 928 4850 
L 1562 4850 
L 1562 4219 
L 928 4219 
L 928 4850 
z
" transform="scale(0.015625)"/>
       <path id="DejaVuSans-67" d="M 2906 1791 
Q 2906 2416 2648 2759 
Q 2391 3103 1925 3103 
Q 1463 3103 1205 2759 
Q 947 2416 947 1791 
Q 947 1169 1205 825 
Q 1463 481 1925 481 
Q 2391 481 2648 825 
Q 2906 1169 2906 1791 
z
M 3481 434 
Q 3481 -459 3084 -895 
Q 2688 -1331 1869 -1331 
Q 1566 -1331 1297 -1286 
Q 1028 -1241 775 -1147 
L 775 -588 
Q 1028 -725 1275 -790 
Q 1522 -856 1778 -856 
Q 2344 -856 2625 -561 
Q 2906 -266 2906 331 
L 2906 616 
Q 2728 306 2450 153 
Q 2172 0 1784 0 
Q 1141 0 747 490 
Q 353 981 353 1791 
Q 353 2603 747 3093 
Q 1141 3584 1784 3584 
Q 2172 3584 2450 3431 
Q 2728 3278 2906 2969 
L 2906 3500 
L 3481 3500 
L 3481 434 
z
" transform="scale(0.015625)"/>
       <path id="DejaVuSans-20" transform="scale(0.015625)"/>
       <path id="DejaVuSans-69" d="M 603 3500 
L 1178 3500 
L 1178 0 
L 603 0 
L 603 3500 
z
M 603 4863 
L 1178 4863 
L 1178 4134 
L 603 4134 
L 603 4863 
z
" transform="scale(0.015625)"/>
       <path id="DejaVuSans-6d" d="M 3328 2828 
Q 3544 3216 3844 3400 
Q 4144 3584 4550 3584 
Q 5097 3584 5394 3201 
Q 5691 2819 5691 2113 
L 5691 0 
L 5113 0 
L 5113 2094 
Q 5113 2597 4934 2840 
Q 4756 3084 4391 3084 
Q 3944 3084 3684 2787 
Q 3425 2491 3425 1978 
L 3425 0 
L 2847 0 
L 2847 2094 
Q 2847 2600 2669 2842 
Q 2491 3084 2119 3084 
Q 1678 3084 1418 2786 
Q 1159 2488 1159 1978 
L 1159 0 
L 581 0 
L 581 3500 
L 1159 3500 
L 1159 2956 
Q 1356 3278 1631 3431 
Q 1906 3584 2284 3584 
Q 2666 3584 2933 3390 
Q 3200 3197 3328 2828 
z
" transform="scale(0.015625)"/>
      </defs>
      <use xlink:href="#DejaVuSans-57"/>
      <use xlink:href="#DejaVuSans-65" x="93.001953"/>
      <use xlink:href="#DejaVuSans-6c" x="154.525391"/>
      <use xlink:href="#DejaVuSans-6c" x="182.308594"/>
      <use xlink:href="#DejaVuSans-65" x="210.091797"/>
      <use xlink:href="#DejaVuSans-6e" x="271.615234"/>
      <use xlink:href="#DejaVuSans-6c" x="334.994141"/>
      <use xlink:href="#DejaVuSans-e4" x="362.777344"/>
      <use xlink:href="#DejaVuSans-6e" x="424.056641"/>
      <use xlink:href="#DejaVuSans-67" x="487.435547"/>
      <use xlink:href="#DejaVuSans-65" x="550.912109"/>
      <use xlink:href="#DejaVuSans-20" x="612.435547"/>
      <use xlink:href="#DejaVuSans-69" x="644.222656"/>
      <use xlink:href="#DejaVuSans-6e" x="672.005859"/>
      <use xlink:href="#DejaVuSans-20" x="735.384766"/>
      <use xlink:href="#DejaVuSans-6d" x="767.171875"/>
     </g>
    </g>
    <g id="text_10">
     <!-- 1e−5 -->
     <g transform="translate(399.093438 300.588562) scale(0.1 -0.1)">
      <defs>
       <path id="DejaVuSans-2212" d="M 678 2272 
L 4684 2272 
L 4684 1741 
L 678 1741 
L 678 2272 
z
" transform="scale(0.015625)"/>
       <path id="DejaVuSans-35" d="M 691 4666 
L 3169 4666 
L 3169 4134 
L 1269 4134 
L 1269 2991 
Q 1406 3038 1543 3061 
Q 1681 3084 1819 3084 
Q 2600 3084 3056 2656 
Q 3513 2228 3513 1497 
Q 3513 744 3044 326 
Q 2575 -91 1722 -91 
Q 1428 -91 1123 -41 
Q 819 9 494 109 
L 494 744 
Q 775 591 1075 516 
Q 1375 441 1709 441 
Q 2250 441 2565 725 
Q 2881 1009 2881 1497 
Q 2881 1984 2565 2268 
Q 2250 2553 1709 2553 
Q 1456 2553 1204 2497 
Q 953 2441 691 2322 
L 691 4666 
z
" transform="scale(0.015625)"/>
      </defs>
      <use xlink:href="#DejaVuSans-31"/>
      <use xlink:href="#DejaVuSans-65" x="63.623047"/>
      <use xlink:href="#DejaVuSans-2212" x="125.146484"/>
      <use xlink:href="#DejaVuSans-35" x="208.935547"/>
     </g>
    </g>
   </g>
   <g id="matplotlib.axis_2">
    <g id="ytick_1">
     <g id="line2d_9">
      <defs>
       <path id="m683161d0d8" d="M 0 0 
L -3.5 0 
" style="stroke: #000000; stroke-width: 0.8"/>
      </defs>
      <g>
       <use xlink:href="#m683161d0d8" x="69.23125" y="261.216" style="stroke: #000000; stroke-width: 0.8"/>
      </g>
     </g>
     <g id="text_11">
      <!-- 0.00000 -->
      <g transform="translate(20.878125 265.015219) scale(0.1 -0.1)">
       <use xlink:href="#DejaVuSans-30"/>
       <use xlink:href="#DejaVuSans-2e" x="63.623047"/>
       <use xlink:href="#DejaVuSans-30" x="95.410156"/>
       <use xlink:href="#DejaVuSans-30" x="159.033203"/>
       <use xlink:href="#DejaVuSans-30" x="222.65625"/>
       <use xlink:href="#DejaVuSans-30" x="286.279297"/>
       <use xlink:href="#DejaVuSans-30" x="349.902344"/>
      </g>
     </g>
    </g>
    <g id="ytick_2">
     <g id="line2d_10">
      <g>
       <use xlink:href="#m683161d0d8" x="69.23125" y="223.15862" style="stroke: #000000; stroke-width: 0.8"/>
      </g>
     </g>
     <g id="text_12">
      <!-- 0.00005 -->
      <g transform="translate(20.878125 226.957839) scale(0.1 -0.1)">
       <use xlink:href="#DejaVuSans-30"/>
       <use xlink:href="#DejaVuSans-2e" x="63.623047"/>
       <use xlink:href="#DejaVuSans-30" x="95.410156"/>
       <use xlink:href="#DejaVuSans-30" x="159.033203"/>
       <use xlink:href="#DejaVuSans-30" x="222.65625"/>
       <use xlink:href="#DejaVuSans-30" x="286.279297"/>
       <use xlink:href="#DejaVuSans-35" x="349.902344"/>
      </g>
     </g>
    </g>
    <g id="ytick_3">
     <g id="line2d_11">
      <g>
       <use xlink:href="#m683161d0d8" x="69.23125" y="185.101241" style="stroke: #000000; stroke-width: 0.8"/>
      </g>
     </g>
     <g id="text_13">
      <!-- 0.00010 -->
      <g transform="translate(20.878125 188.900459) scale(0.1 -0.1)">
       <use xlink:href="#DejaVuSans-30"/>
       <use xlink:href="#DejaVuSans-2e" x="63.623047"/>
       <use xlink:href="#DejaVuSans-30" x="95.410156"/>
       <use xlink:href="#DejaVuSans-30" x="159.033203"/>
       <use xlink:href="#DejaVuSans-30" x="222.65625"/>
       <use xlink:href="#DejaVuSans-31" x="286.279297"/>
       <use xlink:href="#DejaVuSans-30" x="349.902344"/>
      </g>
     </g>
    </g>
    <g id="ytick_4">
     <g id="line2d_12">
      <g>
       <use xlink:href="#m683161d0d8" x="69.23125" y="147.043861" style="stroke: #000000; stroke-width: 0.8"/>
      </g>
     </g>
     <g id="text_14">
      <!-- 0.00015 -->
      <g transform="translate(20.878125 150.84308) scale(0.1 -0.1)">
       <use xlink:href="#DejaVuSans-30"/>
       <use xlink:href="#DejaVuSans-2e" x="63.623047"/>
       <use xlink:href="#DejaVuSans-30" x="95.410156"/>
       <use xlink:href="#DejaVuSans-30" x="159.033203"/>
       <use xlink:href="#DejaVuSans-30" x="222.65625"/>
       <use xlink:href="#DejaVuSans-31" x="286.279297"/>
       <use xlink:href="#DejaVuSans-35" x="349.902344"/>
      </g>
     </g>
    </g>
    <g id="ytick_5">
     <g id="line2d_13">
      <g>
       <use xlink:href="#m683161d0d8" x="69.23125" y="108.986481" style="stroke: #000000; stroke-width: 0.8"/>
      </g>
     </g>
     <g id="text_15">
      <!-- 0.00020 -->
      <g transform="translate(20.878125 112.7857) scale(0.1 -0.1)">
       <use xlink:href="#DejaVuSans-30"/>
       <use xlink:href="#DejaVuSans-2e" x="63.623047"/>
       <use xlink:href="#DejaVuSans-30" x="95.410156"/>
       <use xlink:href="#DejaVuSans-30" x="159.033203"/>
       <use xlink:href="#DejaVuSans-30" x="222.65625"/>
       <use xlink:href="#DejaVuSans-32" x="286.279297"/>
       <use xlink:href="#DejaVuSans-30" x="349.902344"/>
      </g>
     </g>
    </g>
    <g id="ytick_6">
     <g id="line2d_14">
      <g>
       <use xlink:href="#m683161d0d8" x="69.23125" y="70.929101" style="stroke: #000000; stroke-width: 0.8"/>
      </g>
     </g>
     <g id="text_16">
      <!-- 0.00025 -->
      <g transform="translate(20.878125 74.72832) scale(0.1 -0.1)">
       <use xlink:href="#DejaVuSans-30"/>
       <use xlink:href="#DejaVuSans-2e" x="63.623047"/>
       <use xlink:href="#DejaVuSans-30" x="95.410156"/>
       <use xlink:href="#DejaVuSans-30" x="159.033203"/>
       <use xlink:href="#DejaVuSans-30" x="222.65625"/>
       <use xlink:href="#DejaVuSans-32" x="286.279297"/>
       <use xlink:href="#DejaVuSans-35" x="349.902344"/>
      </g>
     </g>
    </g>
    <g id="ytick_7">
     <g id="line2d_15">
      <g>
       <use xlink:href="#m683161d0d8" x="69.23125" y="32.871722" style="stroke: #000000; stroke-width: 0.8"/>
      </g>
     </g>
     <g id="text_17">
      <!-- 0.00030 -->
      <g transform="translate(20.878125 36.67094) scale(0.1 -0.1)">
       <defs>
        <path id="DejaVuSans-33" d="M 2597 2516 
Q 3050 2419 3304 2112 
Q 3559 1806 3559 1356 
Q 3559 666 3084 287 
Q 2609 -91 1734 -91 
Q 1441 -91 1130 -33 
Q 819 25 488 141 
L 488 750 
Q 750 597 1062 519 
Q 1375 441 1716 441 
Q 2309 441 2620 675 
Q 2931 909 2931 1356 
Q 2931 1769 2642 2001 
Q 2353 2234 1838 2234 
L 1294 2234 
L 1294 2753 
L 1863 2753 
Q 2328 2753 2575 2939 
Q 2822 3125 2822 3475 
Q 2822 3834 2567 4026 
Q 2313 4219 1838 4219 
Q 1578 4219 1281 4162 
Q 984 4106 628 3988 
L 628 4550 
Q 988 4650 1302 4700 
Q 1616 4750 1894 4750 
Q 2613 4750 3031 4423 
Q 3450 4097 3450 3541 
Q 3450 3153 3228 2886 
Q 3006 2619 2597 2516 
z
" transform="scale(0.015625)"/>
       </defs>
       <use xlink:href="#DejaVuSans-30"/>
       <use xlink:href="#DejaVuSans-2e" x="63.623047"/>
       <use xlink:href="#DejaVuSans-30" x="95.410156"/>
       <use xlink:href="#DejaVuSans-30" x="159.033203"/>
       <use xlink:href="#DejaVuSans-30" x="222.65625"/>
       <use xlink:href="#DejaVuSans-33" x="286.279297"/>
       <use xlink:href="#DejaVuSans-30" x="349.902344"/>
      </g>
     </g>
    </g>
    <g id="text_18">
     <!-- Spannung in V -->
     <g transform="translate(14.798438 176.673969) rotate(-90) scale(0.1 -0.1)">
      <defs>
       <path id="DejaVuSans-53" d="M 3425 4513 
L 3425 3897 
Q 3066 4069 2747 4153 
Q 2428 4238 2131 4238 
Q 1616 4238 1336 4038 
Q 1056 3838 1056 3469 
Q 1056 3159 1242 3001 
Q 1428 2844 1947 2747 
L 2328 2669 
Q 3034 2534 3370 2195 
Q 3706 1856 3706 1288 
Q 3706 609 3251 259 
Q 2797 -91 1919 -91 
Q 1588 -91 1214 -16 
Q 841 59 441 206 
L 441 856 
Q 825 641 1194 531 
Q 1563 422 1919 422 
Q 2459 422 2753 634 
Q 3047 847 3047 1241 
Q 3047 1584 2836 1778 
Q 2625 1972 2144 2069 
L 1759 2144 
Q 1053 2284 737 2584 
Q 422 2884 422 3419 
Q 422 4038 858 4394 
Q 1294 4750 2059 4750 
Q 2388 4750 2728 4690 
Q 3069 4631 3425 4513 
z
" transform="scale(0.015625)"/>
       <path id="DejaVuSans-70" d="M 1159 525 
L 1159 -1331 
L 581 -1331 
L 581 3500 
L 1159 3500 
L 1159 2969 
Q 1341 3281 1617 3432 
Q 1894 3584 2278 3584 
Q 2916 3584 3314 3078 
Q 3713 2572 3713 1747 
Q 3713 922 3314 415 
Q 2916 -91 2278 -91 
Q 1894 -91 1617 61 
Q 1341 213 1159 525 
z
M 3116 1747 
Q 3116 2381 2855 2742 
Q 2594 3103 2138 3103 
Q 1681 3103 1420 2742 
Q 1159 2381 1159 1747 
Q 1159 1113 1420 752 
Q 1681 391 2138 391 
Q 2594 391 2855 752 
Q 3116 1113 3116 1747 
z
" transform="scale(0.015625)"/>
       <path id="DejaVuSans-61" d="M 2194 1759 
Q 1497 1759 1228 1600 
Q 959 1441 959 1056 
Q 959 750 1161 570 
Q 1363 391 1709 391 
Q 2188 391 2477 730 
Q 2766 1069 2766 1631 
L 2766 1759 
L 2194 1759 
z
M 3341 1997 
L 3341 0 
L 2766 0 
L 2766 531 
Q 2569 213 2275 61 
Q 1981 -91 1556 -91 
Q 1019 -91 701 211 
Q 384 513 384 1019 
Q 384 1609 779 1909 
Q 1175 2209 1959 2209 
L 2766 2209 
L 2766 2266 
Q 2766 2663 2505 2880 
Q 2244 3097 1772 3097 
Q 1472 3097 1187 3025 
Q 903 2953 641 2809 
L 641 3341 
Q 956 3463 1253 3523 
Q 1550 3584 1831 3584 
Q 2591 3584 2966 3190 
Q 3341 2797 3341 1997 
z
" transform="scale(0.015625)"/>
       <path id="DejaVuSans-75" d="M 544 1381 
L 544 3500 
L 1119 3500 
L 1119 1403 
Q 1119 906 1312 657 
Q 1506 409 1894 409 
Q 2359 409 2629 706 
Q 2900 1003 2900 1516 
L 2900 3500 
L 3475 3500 
L 3475 0 
L 2900 0 
L 2900 538 
Q 2691 219 2414 64 
Q 2138 -91 1772 -91 
Q 1169 -91 856 284 
Q 544 659 544 1381 
z
M 1991 3584 
L 1991 3584 
z
" transform="scale(0.015625)"/>
       <path id="DejaVuSans-56" d="M 1831 0 
L 50 4666 
L 709 4666 
L 2188 738 
L 3669 4666 
L 4325 4666 
L 2547 0 
L 1831 0 
z
" transform="scale(0.015625)"/>
      </defs>
      <use xlink:href="#DejaVuSans-53"/>
      <use xlink:href="#DejaVuSans-70" x="63.476562"/>
      <use xlink:href="#DejaVuSans-61" x="126.953125"/>
      <use xlink:href="#DejaVuSans-6e" x="188.232422"/>
      <use xlink:href="#DejaVuSans-6e" x="251.611328"/>
      <use xlink:href="#DejaVuSans-75" x="314.990234"/>
      <use xlink:href="#DejaVuSans-6e" x="378.369141"/>
      <use xlink:href="#DejaVuSans-67" x="441.748047"/>
      <use xlink:href="#DejaVuSans-20" x="505.224609"/>
      <use xlink:href="#DejaVuSans-69" x="537.011719"/>
      <use xlink:href="#DejaVuSans-6e" x="564.794922"/>
      <use xlink:href="#DejaVuSans-20" x="628.173828"/>
      <use xlink:href="#DejaVuSans-56" x="659.960938"/>
     </g>
    </g>
   </g>
   <g id="line2d_16">
    <path d="M 85.463977 257.884095 
L 85.580592 259.231241 
L 85.813821 259.119906 
L 90.128554 259.038791 
L 90.361783 258.865428 
L 91.411313 258.865428 
L 91.527927 259.592282 
L 92.460842 259.592282 
L 92.577457 259.003801 
L 93.626987 259.003801 
L 93.860216 258.869563 
L 94.676516 258.869563 
L 94.909745 259.019706 
L 95.959275 259.019706 
L 96.192504 259.152034 
L 97.008805 259.152034 
L 97.125419 258.758865 
L 98.174949 258.758865 
L 98.291563 259.26146 
L 99.224479 259.26146 
L 99.341093 258.707969 
L 100.507237 258.707969 
L 100.740466 258.962447 
L 102.722911 259.037519 
L 102.95614 259.146945 
L 104.00567 259.146945 
L 104.122284 258.74296 
L 106.221344 258.672978 
L 106.337958 259.083325 
L 107.270874 259.083325 
L 107.504103 258.769999 
L 108.553632 258.769999 
L 108.670247 259.320308 
L 110.769306 259.382337 
L 110.885921 258.957358 
L 115.317269 259.004437 
L 115.433883 259.505335 
L 116.600027 259.505335 
L 116.833256 259.276728 
L 118.815701 259.278955 
L 119.04893 259.615609 
L 119.865231 259.615609 
L 119.981846 259.049925 
L 121.14799 259.049925 
L 121.264604 259.667035 
L 122.19752 259.667035 
L 122.314134 259.191478 
L 123.363664 259.191478 
L 123.596893 259.028612 
L 124.413194 259.028612 
L 124.646422 258.876561 
L 126.862096 258.847933 
L 126.978711 259.236012 
L 127.911626 259.236012 
L 128.028241 258.684642 
L 129.194385 258.684642 
L 129.310999 259.066784 
L 131.410059 259.076963 
L 131.643288 259.251917 
L 132.459589 259.251917 
L 132.692817 259.388699 
L 133.742347 259.388699 
L 133.858962 258.854294 
L 134.791877 258.854294 
L 135.025106 259.181935 
L 137.24078 259.19784 
L 137.357394 258.763106 
L 138.29031 258.763106 
L 138.406924 259.216926 
L 139.456454 259.216926 
L 139.689683 258.906781 
L 140.505984 258.906781 
L 140.739212 259.107182 
L 141.788742 259.107182 
L 142.021971 258.939545 
L 142.838272 258.939545 
L 143.071501 259.202082 
L 144.004416 259.202082 
L 144.237645 258.863201 
L 145.053946 258.863201 
L 145.287175 258.57914 
L 146.336705 258.57914 
L 146.569933 258.937 
L 149.835137 258.919505 
L 150.068366 259.168575 
L 150.884667 259.168575 
L 151.117896 258.927457 
L 153.100341 258.830437 
L 153.216955 259.344165 
L 154.3831 259.344165 
L 154.616328 259.108773 
L 156.598774 259.088096 
L 156.832002 258.852704 
L 157.648303 258.852704 
L 157.881532 259.053636 
L 158.931062 259.053636 
L 159.164291 258.888649 
L 159.980592 258.888649 
L 160.097206 258.507567 
L 161.146736 258.507567 
L 161.379965 258.235593 
L 162.429495 258.235593 
L 162.662723 258.387327 
L 163.479024 258.387327 
L 163.595639 258.003912 
L 165.694698 257.924176 
L 165.927927 257.726107 
L 168.026987 257.634389 
L 168.260216 257.858647 
L 169.193131 257.858647 
L 169.42636 257.651884 
L 170.242661 257.651884 
L 170.475889 257.303567 
L 171.525419 257.303567 
L 171.642034 256.798109 
L 172.691563 256.798109 
L 172.924792 256.668961 
L 173.741093 256.668961 
L 173.857708 256.266567 
L 175.023852 256.266567 
L 175.257081 256.095324 
L 176.073382 256.095324 
L 176.189996 255.407702 
L 177.239526 255.407702 
L 177.35614 254.593054 
L 178.289056 254.593054 
L 178.40567 253.747761 
L 179.571814 253.747761 
L 179.688429 252.737904 
L 180.621344 252.737904 
L 180.737958 251.522138 
L 181.787488 251.522138 
L 181.904103 250.025486 
L 182.837018 250.025486 
L 182.953632 248.589269 
L 184.119777 248.589269 
L 184.236391 247.926036 
L 185.285921 247.926036 
L 185.402535 246.722037 
L 186.335451 246.722037 
L 186.452065 245.094962 
L 187.618209 245.094962 
L 187.734824 243.375644 
L 188.667739 243.375644 
L 188.784353 241.821739 
L 189.833883 241.821739 
L 189.950498 239.562287 
L 190.883413 239.562287 
L 191.000027 237.838623 
L 192.166172 237.838623 
L 192.282786 235.949964 
L 193.215701 235.949964 
L 193.332316 233.427658 
L 194.381846 233.427658 
L 194.49846 232.433074 
L 195.431375 232.433074 
L 195.54799 230.548343 
L 196.714134 230.548343 
L 196.830748 228.265989 
L 197.880278 228.265989 
L 197.996893 225.894253 
L 198.929808 225.894253 
L 199.046422 223.24004 
L 200.212567 223.24004 
L 200.329181 220.782736 
L 201.262096 220.782736 
L 201.378711 218.829616 
L 202.428241 218.829616 
L 202.544855 216.836726 
L 203.47777 216.836726 
L 203.594385 214.793479 
L 204.760529 214.793479 
L 204.877143 212.395445 
L 205.810059 212.395445 
L 205.926673 210.308295 
L 206.976203 210.308295 
L 207.092817 208.126564 
L 208.258962 208.126564 
L 208.375576 205.582421 
L 209.308491 205.582421 
L 209.425106 204.448402 
L 210.474636 204.448402 
L 210.59125 202.297742 
L 211.524165 202.297742 
L 211.64078 201.119508 
L 212.806924 201.119508 
L 212.923538 199.446308 
L 213.856454 199.446308 
L 213.973068 198.417267 
L 215.022598 198.417267 
L 215.139212 197.218033 
L 216.072128 197.218033 
L 216.188742 196.324179 
L 217.354886 196.324179 
L 217.471501 195.492359 
L 218.404416 195.492359 
L 218.637645 195.29513 
L 219.57056 195.29513 
L 219.687175 194.672299 
L 221.902849 194.565099 
L 222.136078 194.401269 
L 223.068993 194.401269 
L 223.302222 194.525336 
L 224.118523 194.525336 
L 224.351752 194.870471 
L 225.401281 194.870471 
L 225.517896 195.527341 
L 226.450811 195.527341 
L 226.567426 195.9854 
L 227.616955 195.9854 
L 227.73357 197.198951 
L 228.666485 197.198951 
L 228.899714 196.984239 
L 229.949244 196.984239 
L 230.065858 198.83079 
L 230.998774 198.83079 
L 231.115388 199.40602 
L 232.164918 199.40602 
L 232.398147 199.57673 
L 233.447676 199.57673 
L 233.564291 200.792504 
L 234.497206 200.792504 
L 234.613821 202.154912 
L 235.66335 202.154912 
L 235.779965 203.710416 
L 236.71288 203.710416 
L 236.946109 204.036461 
L 237.995639 204.036461 
L 238.112253 205.804455 
L 239.045168 205.804455 
L 239.161783 207.152767 
L 240.211313 207.152767 
L 240.327927 208.219447 
L 241.260842 208.219447 
L 241.377457 209.865611 
L 242.543601 209.865611 
L 242.660216 211.457689 
L 243.709745 211.457689 
L 243.82636 212.745984 
L 244.759275 212.745984 
L 244.875889 213.99929 
L 246.042034 213.99929 
L 246.158648 215.857624 
L 247.091563 215.857624 
L 247.208178 217.732178 
L 248.257708 217.732178 
L 248.374322 219.074553 
L 249.307237 219.074553 
L 249.423852 220.278552 
L 250.589996 220.278552 
L 250.706611 221.681362 
L 251.639526 221.681362 
L 251.75614 223.109625 
L 252.80567 223.109625 
L 252.922284 224.693117 
L 253.8552 224.693117 
L 253.971814 225.897222 
L 255.137958 225.897222 
L 255.254573 226.980875 
L 256.304103 226.980875 
L 256.420717 227.959026 
L 257.353632 227.959026 
L 257.470247 229.038965 
L 258.636391 229.038965 
L 258.753005 230.170761 
L 259.685921 230.170761 
L 259.802535 230.73761 
L 260.852065 230.73761 
L 260.968679 231.501681 
L 261.901595 231.501681 
L 262.018209 232.506236 
L 263.184353 232.506236 
L 263.300968 233.183787 
L 264.233883 233.183787 
L 264.350498 234.023561 
L 265.400027 234.023561 
L 265.633256 234.305079 
L 266.449557 234.305079 
L 266.566172 235.111461 
L 267.732316 235.111461 
L 267.84893 235.924519 
L 268.89846 235.924519 
L 269.015074 236.939464 
L 269.94799 236.939464 
L 270.181219 237.144106 
L 271.230748 237.144106 
L 271.347363 237.708733 
L 272.280278 237.708733 
L 272.396893 238.354468 
L 273.446422 238.354468 
L 273.563037 238.811575 
L 274.495952 238.811575 
L 274.612567 239.971998 
L 275.778711 239.971998 
L 276.01194 240.248104 
L 276.828241 240.248104 
L 276.944855 241.010584 
L 279.277143 241.119268 
L 279.393758 241.937844 
L 280.326673 241.937844 
L 280.443288 242.480733 
L 282.542347 242.571492 
L 282.658962 243.310437 
L 283.825106 243.310437 
L 283.94172 244.11363 
L 284.874636 244.11363 
L 285.107864 244.269498 
L 286.04078 244.269498 
L 286.157394 244.834125 
L 287.09031 244.834125 
L 287.206924 245.502131 
L 288.373068 245.502131 
L 288.606297 245.694579 
L 289.422598 245.694579 
L 289.539212 246.475509 
L 291.871501 246.462783 
L 291.988115 246.927212 
L 292.921031 246.927212 
L 293.154259 247.049681 
L 294.087175 247.049681 
L 294.203789 247.489289 
L 295.136705 247.489289 
L 295.369933 247.353462 
L 296.419463 247.353462 
L 296.536078 248.088267 
L 297.468993 248.088267 
L 297.585607 248.984777 
L 298.635137 248.984777 
L 298.868366 248.703792 
L 299.684667 248.703792 
L 299.917896 249.028246 
L 300.967426 249.028246 
L 301.200654 249.374971 
L 302.13357 249.374971 
L 302.250184 249.998443 
L 303.1831 249.998443 
L 303.416328 250.206799 
L 304.465858 250.206799 
L 304.582473 250.722119 
L 305.515388 250.722119 
L 305.748617 250.397657 
L 306.681532 250.397657 
L 306.914761 250.652139 
L 307.731062 250.652139 
L 307.847676 251.30053 
L 309.013821 251.30053 
L 309.247049 251.086343 
L 310.06335 251.086343 
L 310.296579 251.340818 
L 311.229495 251.340818 
L 311.346109 251.900672 
L 312.279024 251.900672 
L 312.395639 251.350363 
L 313.561783 251.350363 
L 313.678397 251.835465 
L 314.727927 251.835465 
L 314.961156 252.160239 
L 315.777457 252.160239 
L 316.010686 251.966413 
L 317.060216 251.966413 
L 317.17683 252.51778 
L 320.325419 252.538461 
L 320.442034 252.977437 
L 321.608178 252.977437 
L 321.724792 253.63367 
L 322.657708 253.63367 
L 322.890937 253.274856 
L 323.823852 253.274856 
L 323.940466 253.6553 
L 324.873382 253.6553 
L 325.106611 253.534103 
L 327.322284 253.531454 
L 327.555513 253.833435 
L 328.371814 253.833435 
L 328.488429 254.366991 
L 329.654573 254.366991 
L 329.887802 254.241873 
L 330.704103 254.241873 
L 330.937332 254.399332 
L 331.870247 254.399332 
L 332.103476 254.087596 
L 332.919777 254.087596 
L 333.153005 253.944452 
L 334.202535 253.944452 
L 334.31915 254.464542 
L 335.252065 254.464542 
L 335.485294 254.254598 
L 336.418209 254.254598 
L 336.534824 254.666852 
L 337.700968 254.666852 
L 337.817582 255.060976 
L 342.24893 255.105509 
L 342.482159 255.294142 
L 343.29846 255.294142 
L 343.531689 255.487227 
L 344.464604 255.487227 
L 344.581219 255.85357 
L 345.514134 255.85357 
L 345.747363 255.717848 
L 346.796893 255.717848 
L 347.030121 255.932565 
L 347.846422 255.932565 
L 348.079651 256.064575 
L 349.012567 256.064575 
L 349.245795 255.777651 
L 351.344855 255.735343 
L 351.461469 256.288834 
L 352.510999 256.288834 
L 352.744228 256.064575 
L 353.560529 256.064575 
L 353.793758 256.428267 
L 354.843288 256.428267 
L 355.076516 256.2777 
L 355.892817 256.2777 
L 356.126046 256.614885 
L 357.058962 256.614885 
L 357.29219 256.290424 
L 358.108491 256.290424 
L 358.34172 255.956421 
L 359.39125 255.956421 
L 359.624479 256.1775 
L 360.44078 256.1775 
L 360.674009 256.441521 
L 365.105357 256.460607 
L 365.221971 257.104756 
L 367.437645 256.999783 
L 367.670874 257.354462 
L 369.653319 257.373549 
L 369.886548 257.188733 
L 370.702849 257.188733 
L 370.936078 257.064463 
L 373.035137 257.05386 
L 373.151752 257.520403 
L 375.48404 257.505559 
L 375.717269 257.646795 
L 376.53357 257.646795 
L 376.766799 257.819416 
L 377.699714 257.819416 
L 377.816328 257.162013 
L 380.032002 257.227223 
L 380.148617 257.683694 
L 382.247676 257.589855 
L 382.480905 257.435578 
L 384.579965 257.535778 
L 384.813194 257.645522 
L 385.629495 257.645522 
L 385.862723 257.421263 
L 388.078397 257.41331 
L 388.195012 257.783895 
L 389.127927 257.783895 
L 389.244542 257.21768 
L 390.294071 257.21768 
L 390.5273 257.569178 
L 391.343601 257.569178 
L 391.57683 257.779123 
L 392.62636 257.779123 
L 392.742974 258.22287 
L 393.675889 258.22287 
L 393.792504 257.807752 
L 395.891563 257.790257 
L 396.124792 258.046326 
L 397.174322 258.046326 
L 397.290937 257.425398 
L 398.223852 257.425398 
L 398.340466 257.950897 
L 400.672755 257.992885 
L 400.789369 257.607351 
L 402.888429 257.578721 
L 403.005043 258.289352 
L 403.937958 258.289352 
L 404.054573 258.818244 
L 405.220717 258.818244 
L 405.337332 258.162113 
L 407.436391 258.265813 
L 407.66962 258.019287 
L 409.768679 257.930219 
L 409.885294 258.338976 
L 410.118523 258.338976 
L 410.118523 258.338976 
" clip-path="url(#pb4180e81da)" style="fill: none; stroke: #1f77b4; stroke-width: 1.5; stroke-linecap: square"/>
   </g>
   <g id="line2d_17">
    <path d="M 85.463977 261.216 
L 108.670247 261.10808 
L 110.769306 260.862726 
L 112.401908 260.451424 
L 113.684667 259.914937 
L 114.850811 259.207119 
L 116.016955 258.238024 
L 117.1831 256.957357 
L 118.349244 255.317065 
L 119.515388 253.273671 
L 120.681532 250.79028 
L 121.964291 247.516325 
L 123.363664 243.268729 
L 124.763037 238.303116 
L 126.279024 232.121891 
L 128.028241 223.998618 
L 129.894071 214.262506 
L 132.109745 201.470566 
L 134.791877 184.617268 
L 138.873382 157.369667 
L 144.704103 118.644408 
L 147.736078 99.995786 
L 150.418209 84.85644 
L 152.750498 72.901519 
L 154.966172 62.671544 
L 157.065231 54.030794 
L 159.047676 46.819224 
L 160.913507 40.868544 
L 162.662723 36.012846 
L 164.295325 32.095188 
L 165.927927 28.750987 
L 167.443915 26.139781 
L 168.843288 24.134517 
L 170.242661 22.501438 
L 171.525419 21.316976 
L 172.808178 20.417726 
L 174.090937 19.790184 
L 175.373695 19.420786 
L 176.656454 19.296 
L 177.939212 19.40241 
L 179.221971 19.726783 
L 180.621344 20.313975 
L 182.137332 21.206301 
L 183.769933 22.442576 
L 185.51915 24.056941 
L 187.501595 26.213613 
L 189.600654 28.833859 
L 191.932943 32.099272 
L 194.615074 36.245798 
L 197.763664 41.549128 
L 201.495325 48.301243 
L 206.159902 57.229064 
L 213.506611 71.839403 
L 224.701595 94.049621 
L 230.998774 106.020285 
L 236.479651 115.975074 
L 241.610686 124.849707 
L 246.625106 133.082274 
L 251.522911 140.693787 
L 256.304103 147.714815 
L 261.085294 154.338009 
L 265.749871 160.426603 
L 270.414447 166.159693 
L 275.195639 171.682553 
L 279.97683 176.864416 
L 284.758021 181.722988 
L 289.655827 186.383552 
L 294.670247 190.842988 
L 299.684667 195.006496 
L 304.815701 198.98063 
L 310.06335 202.766095 
L 315.427614 206.364801 
L 321.025106 209.849629 
L 326.739212 213.144188 
L 332.686548 216.313755 
L 338.867112 219.350495 
L 345.280905 222.248686 
L 351.927927 225.004567 
L 358.808178 227.616163 
L 366.038272 230.121705 
L 373.618209 232.511774 
L 381.54799 234.779597 
L 389.944228 236.949453 
L 398.806924 239.010525 
L 408.252692 240.978187 
L 410.118523 241.341413 
L 410.118523 241.341413 
" clip-path="url(#pb4180e81da)" style="fill: none; stroke: #ff7f0e; stroke-width: 1.5; stroke-linecap: square"/>
   </g>
   <g id="patch_3">
    <path d="M 69.23125 273.312 
L 69.23125 7.2 
" style="fill: none; stroke: #000000; stroke-width: 0.8; stroke-linejoin: miter; stroke-linecap: square"/>
   </g>
   <g id="patch_4">
    <path d="M 426.35125 273.312 
L 426.35125 7.2 
" style="fill: none; stroke: #000000; stroke-width: 0.8; stroke-linejoin: miter; stroke-linecap: square"/>
   </g>
   <g id="patch_5">
    <path d="M 69.23125 273.312 
L 426.35125 273.312 
" style="fill: none; stroke: #000000; stroke-width: 0.8; stroke-linejoin: miter; stroke-linecap: square"/>
   </g>
   <g id="patch_6">
    <path d="M 69.23125 7.2 
L 426.35125 7.2 
" style="fill: none; stroke: #000000; stroke-width: 0.8; stroke-linejoin: miter; stroke-linecap: square"/>
   </g>
   <g id="legend_1">
    <g id="patch_7">
     <path d="M 290.941875 55.754062 
L 419.35125 55.754062 
Q 421.35125 55.754062 421.35125 53.754062 
L 421.35125 14.2 
Q 421.35125 12.2 419.35125 12.2 
L 290.941875 12.2 
Q 288.941875 12.2 288.941875 14.2 
L 288.941875 53.754062 
Q 288.941875 55.754062 290.941875 55.754062 
z
" style="fill: #ffffff; opacity: 0.8; stroke: #cccccc; stroke-linejoin: miter"/>
    </g>
    <g id="line2d_18">
     <path d="M 292.941875 26.937187 
L 302.941875 26.937187 
L 312.941875 26.937187 
" style="fill: none; stroke: #1f77b4; stroke-width: 1.5; stroke-linecap: square"/>
    </g>
    <g id="text_19">
     <!-- Messwerte -->
     <g transform="translate(320.941875 23.798437) scale(0.1 -0.1)">
      <defs>
       <path id="DejaVuSans-4d" d="M 628 4666 
L 1569 4666 
L 2759 1491 
L 3956 4666 
L 4897 4666 
L 4897 0 
L 4281 0 
L 4281 4097 
L 3078 897 
L 2444 897 
L 1241 4097 
L 1241 0 
L 628 0 
L 628 4666 
z
" transform="scale(0.015625)"/>
       <path id="DejaVuSans-73" d="M 2834 3397 
L 2834 2853 
Q 2591 2978 2328 3040 
Q 2066 3103 1784 3103 
Q 1356 3103 1142 2972 
Q 928 2841 928 2578 
Q 928 2378 1081 2264 
Q 1234 2150 1697 2047 
L 1894 2003 
Q 2506 1872 2764 1633 
Q 3022 1394 3022 966 
Q 3022 478 2636 193 
Q 2250 -91 1575 -91 
Q 1294 -91 989 -36 
Q 684 19 347 128 
L 347 722 
Q 666 556 975 473 
Q 1284 391 1588 391 
Q 1994 391 2212 530 
Q 2431 669 2431 922 
Q 2431 1156 2273 1281 
Q 2116 1406 1581 1522 
L 1381 1569 
Q 847 1681 609 1914 
Q 372 2147 372 2553 
Q 372 3047 722 3315 
Q 1072 3584 1716 3584 
Q 2034 3584 2315 3537 
Q 2597 3491 2834 3397 
z
" transform="scale(0.015625)"/>
       <path id="DejaVuSans-77" d="M 269 3500 
L 844 3500 
L 1563 769 
L 2278 3500 
L 2956 3500 
L 3675 769 
L 4391 3500 
L 4966 3500 
L 4050 0 
L 3372 0 
L 2619 2869 
L 1863 0 
L 1184 0 
L 269 3500 
z
" transform="scale(0.015625)"/>
       <path id="DejaVuSans-72" d="M 2631 2963 
Q 2534 3019 2420 3045 
Q 2306 3072 2169 3072 
Q 1681 3072 1420 2755 
Q 1159 2438 1159 1844 
L 1159 0 
L 581 0 
L 581 3500 
L 1159 3500 
L 1159 2956 
Q 1341 3275 1631 3429 
Q 1922 3584 2338 3584 
Q 2397 3584 2469 3576 
Q 2541 3569 2628 3553 
L 2631 2963 
z
" transform="scale(0.015625)"/>
       <path id="DejaVuSans-74" d="M 1172 4494 
L 1172 3500 
L 2356 3500 
L 2356 3053 
L 1172 3053 
L 1172 1153 
Q 1172 725 1289 603 
Q 1406 481 1766 481 
L 2356 481 
L 2356 0 
L 1766 0 
Q 1100 0 847 248 
Q 594 497 594 1153 
L 594 3053 
L 172 3053 
L 172 3500 
L 594 3500 
L 594 4494 
L 1172 4494 
z
" transform="scale(0.015625)"/>
      </defs>
      <use xlink:href="#DejaVuSans-4d"/>
      <use xlink:href="#DejaVuSans-65" x="86.279297"/>
      <use xlink:href="#DejaVuSans-73" x="147.802734"/>
      <use xlink:href="#DejaVuSans-73" x="199.902344"/>
      <use xlink:href="#DejaVuSans-77" x="252.001953"/>
      <use xlink:href="#DejaVuSans-65" x="333.789062"/>
      <use xlink:href="#DejaVuSans-72" x="395.3125"/>
      <use xlink:href="#DejaVuSans-74" x="436.425781"/>
      <use xlink:href="#DejaVuSans-65" x="475.634766"/>
     </g>
     <!-- bei $T=714\pm1$K -->
     <g transform="translate(320.941875 34.99625) scale(0.1 -0.1)">
      <defs>
       <path id="DejaVuSans-62" d="M 3116 1747 
Q 3116 2381 2855 2742 
Q 2594 3103 2138 3103 
Q 1681 3103 1420 2742 
Q 1159 2381 1159 1747 
Q 1159 1113 1420 752 
Q 1681 391 2138 391 
Q 2594 391 2855 752 
Q 3116 1113 3116 1747 
z
M 1159 2969 
Q 1341 3281 1617 3432 
Q 1894 3584 2278 3584 
Q 2916 3584 3314 3078 
Q 3713 2572 3713 1747 
Q 3713 922 3314 415 
Q 2916 -91 2278 -91 
Q 1894 -91 1617 61 
Q 1341 213 1159 525 
L 1159 0 
L 581 0 
L 581 4863 
L 1159 4863 
L 1159 2969 
z
" transform="scale(0.015625)"/>
       <path id="DejaVuSans-Oblique-54" d="M 378 4666 
L 4325 4666 
L 4225 4134 
L 2559 4134 
L 1759 0 
L 1125 0 
L 1925 4134 
L 275 4134 
L 378 4666 
z
" transform="scale(0.015625)"/>
       <path id="DejaVuSans-3d" d="M 678 2906 
L 4684 2906 
L 4684 2381 
L 678 2381 
L 678 2906 
z
M 678 1631 
L 4684 1631 
L 4684 1100 
L 678 1100 
L 678 1631 
z
" transform="scale(0.015625)"/>
       <path id="DejaVuSans-37" d="M 525 4666 
L 3525 4666 
L 3525 4397 
L 1831 0 
L 1172 0 
L 2766 4134 
L 525 4134 
L 525 4666 
z
" transform="scale(0.015625)"/>
       <path id="DejaVuSans-b1" d="M 2944 4013 
L 2944 2803 
L 4684 2803 
L 4684 2272 
L 2944 2272 
L 2944 1063 
L 2419 1063 
L 2419 2272 
L 678 2272 
L 678 2803 
L 2419 2803 
L 2419 4013 
L 2944 4013 
z
M 678 531 
L 4684 531 
L 4684 0 
L 678 0 
L 678 531 
z
" transform="scale(0.015625)"/>
       <path id="DejaVuSans-4b" d="M 628 4666 
L 1259 4666 
L 1259 2694 
L 3353 4666 
L 4166 4666 
L 1850 2491 
L 4331 0 
L 3500 0 
L 1259 2247 
L 1259 0 
L 628 0 
L 628 4666 
z
" transform="scale(0.015625)"/>
      </defs>
      <use xlink:href="#DejaVuSans-62" transform="translate(0 0.015625)"/>
      <use xlink:href="#DejaVuSans-65" transform="translate(63.476562 0.015625)"/>
      <use xlink:href="#DejaVuSans-69" transform="translate(125 0.015625)"/>
      <use xlink:href="#DejaVuSans-20" transform="translate(152.783203 0.015625)"/>
      <use xlink:href="#DejaVuSans-Oblique-54" transform="translate(184.570312 0.015625)"/>
      <use xlink:href="#DejaVuSans-3d" transform="translate(265.136719 0.015625)"/>
      <use xlink:href="#DejaVuSans-37" transform="translate(368.408203 0.015625)"/>
      <use xlink:href="#DejaVuSans-31" transform="translate(432.03125 0.015625)"/>
      <use xlink:href="#DejaVuSans-34" transform="translate(495.654297 0.015625)"/>
      <use xlink:href="#DejaVuSans-b1" transform="translate(578.759766 0.015625)"/>
      <use xlink:href="#DejaVuSans-31" transform="translate(682.03125 0.015625)"/>
      <use xlink:href="#DejaVuSans-4b" transform="translate(745.654297 0.015625)"/>
     </g>
    </g>
    <g id="line2d_19">
     <path d="M 292.941875 46.174375 
L 302.941875 46.174375 
L 312.941875 46.174375 
" style="fill: none; stroke: #ff7f0e; stroke-width: 1.5; stroke-linecap: square"/>
    </g>
    <g id="text_20">
     <!-- Theoretische Kurve -->
     <g transform="translate(320.941875 49.674375) scale(0.1 -0.1)">
      <defs>
       <path id="DejaVuSans-54" d="M -19 4666 
L 3928 4666 
L 3928 4134 
L 2272 4134 
L 2272 0 
L 1638 0 
L 1638 4134 
L -19 4134 
L -19 4666 
z
" transform="scale(0.015625)"/>
       <path id="DejaVuSans-68" d="M 3513 2113 
L 3513 0 
L 2938 0 
L 2938 2094 
Q 2938 2591 2744 2837 
Q 2550 3084 2163 3084 
Q 1697 3084 1428 2787 
Q 1159 2491 1159 1978 
L 1159 0 
L 581 0 
L 581 4863 
L 1159 4863 
L 1159 2956 
Q 1366 3272 1645 3428 
Q 1925 3584 2291 3584 
Q 2894 3584 3203 3211 
Q 3513 2838 3513 2113 
z
" transform="scale(0.015625)"/>
       <path id="DejaVuSans-6f" d="M 1959 3097 
Q 1497 3097 1228 2736 
Q 959 2375 959 1747 
Q 959 1119 1226 758 
Q 1494 397 1959 397 
Q 2419 397 2687 759 
Q 2956 1122 2956 1747 
Q 2956 2369 2687 2733 
Q 2419 3097 1959 3097 
z
M 1959 3584 
Q 2709 3584 3137 3096 
Q 3566 2609 3566 1747 
Q 3566 888 3137 398 
Q 2709 -91 1959 -91 
Q 1206 -91 779 398 
Q 353 888 353 1747 
Q 353 2609 779 3096 
Q 1206 3584 1959 3584 
z
" transform="scale(0.015625)"/>
       <path id="DejaVuSans-63" d="M 3122 3366 
L 3122 2828 
Q 2878 2963 2633 3030 
Q 2388 3097 2138 3097 
Q 1578 3097 1268 2742 
Q 959 2388 959 1747 
Q 959 1106 1268 751 
Q 1578 397 2138 397 
Q 2388 397 2633 464 
Q 2878 531 3122 666 
L 3122 134 
Q 2881 22 2623 -34 
Q 2366 -91 2075 -91 
Q 1284 -91 818 406 
Q 353 903 353 1747 
Q 353 2603 823 3093 
Q 1294 3584 2113 3584 
Q 2378 3584 2631 3529 
Q 2884 3475 3122 3366 
z
" transform="scale(0.015625)"/>
       <path id="DejaVuSans-76" d="M 191 3500 
L 800 3500 
L 1894 563 
L 2988 3500 
L 3597 3500 
L 2284 0 
L 1503 0 
L 191 3500 
z
" transform="scale(0.015625)"/>
      </defs>
      <use xlink:href="#DejaVuSans-54"/>
      <use xlink:href="#DejaVuSans-68" x="61.083984"/>
      <use xlink:href="#DejaVuSans-65" x="124.462891"/>
      <use xlink:href="#DejaVuSans-6f" x="185.986328"/>
      <use xlink:href="#DejaVuSans-72" x="247.167969"/>
      <use xlink:href="#DejaVuSans-65" x="286.03125"/>
      <use xlink:href="#DejaVuSans-74" x="347.554688"/>
      <use xlink:href="#DejaVuSans-69" x="386.763672"/>
      <use xlink:href="#DejaVuSans-73" x="414.546875"/>
      <use xlink:href="#DejaVuSans-63" x="466.646484"/>
      <use xlink:href="#DejaVuSans-68" x="521.626953"/>
      <use xlink:href="#DejaVuSans-65" x="585.005859"/>
      <use xlink:href="#DejaVuSans-20" x="646.529297"/>
      <use xlink:href="#DejaVuSans-4b" x="678.316406"/>
      <use xlink:href="#DejaVuSans-75" x="738.892578"/>
      <use xlink:href="#DejaVuSans-72" x="802.271484"/>
      <use xlink:href="#DejaVuSans-76" x="843.384766"/>
      <use xlink:href="#DejaVuSans-65" x="902.564453"/>
     </g>
    </g>
   </g>
  </g>
 </g>
 <defs>
  <clipPath id="pb4180e81da">
   <rect x="69.23125" y="7.2" width="357.12" height="266.112"/>
  </clipPath>
 </defs>
</svg>
