<?xml version="1.0" encoding="utf-8" standalone="no"?>
<!DOCTYPE svg PUBLIC "-//W3C//DTD SVG 1.1//EN"
  "http://www.w3.org/Graphics/SVG/1.1/DTD/svg11.dtd">
<svg xmlns:xlink="http://www.w3.org/1999/xlink" width="576pt" height="576pt" viewBox="0 0 576 576" xmlns="http://www.w3.org/2000/svg" version="1.1">
 <metadata>
  <rdf:RDF xmlns:dc="http://purl.org/dc/elements/1.1/" xmlns:cc="http://creativecommons.org/ns#" xmlns:rdf="http://www.w3.org/1999/02/22-rdf-syntax-ns#">
   <cc:Work>
    <dc:type rdf:resource="http://purl.org/dc/dcmitype/StillImage"/>
    <dc:date>2024-07-12T15:37:52.523718</dc:date>
    <dc:format>image/svg+xml</dc:format>
    <dc:creator>
     <cc:Agent>
      <dc:title>Matplotlib v3.8.2, https://matplotlib.org/</dc:title>
     </cc:Agent>
    </dc:creator>
   </cc:Work>
  </rdf:RDF>
 </metadata>
 <defs>
  <style type="text/css">*{stroke-linejoin: round; stroke-linecap: butt}</style>
 </defs>
 <g id="figure_1">
  <g id="patch_1">
   <path d="M 0 576 
L 576 576 
L 576 0 
L 0 0 
z
" style="fill: #ffffff"/>
  </g>
  <g id="axes_1">
   <g id="patch_2">
    <path d="M 72 512.64 
L 518.4 512.64 
L 518.4 69.12 
L 72 69.12 
z
" style="fill: #ffffff"/>
   </g>
   <g id="matplotlib.axis_1">
    <g id="xtick_1">
     <g id="line2d_1">
      <defs>
       <path id="m170eb73f41" d="M 0 0 
L 0 3.5 
" style="stroke: #000000; stroke-width: 0.8"/>
      </defs>
      <g>
       <use xlink:href="#m170eb73f41" x="92.155591" y="512.64" style="stroke: #000000; stroke-width: 0.8"/>
      </g>
     </g>
     <g id="text_1">
      <!-- 0.0 -->
      <g transform="translate(84.204029 527.238438) scale(0.1 -0.1)">
       <defs>
        <path id="DejaVuSans-30" d="M 2034 4250 
Q 1547 4250 1301 3770 
Q 1056 3291 1056 2328 
Q 1056 1369 1301 889 
Q 1547 409 2034 409 
Q 2525 409 2770 889 
Q 3016 1369 3016 2328 
Q 3016 3291 2770 3770 
Q 2525 4250 2034 4250 
z
M 2034 4750 
Q 2819 4750 3233 4129 
Q 3647 3509 3647 2328 
Q 3647 1150 3233 529 
Q 2819 -91 2034 -91 
Q 1250 -91 836 529 
Q 422 1150 422 2328 
Q 422 3509 836 4129 
Q 1250 4750 2034 4750 
z
" transform="scale(0.015625)"/>
        <path id="DejaVuSans-2e" d="M 684 794 
L 1344 794 
L 1344 0 
L 684 0 
L 684 794 
z
" transform="scale(0.015625)"/>
       </defs>
       <use xlink:href="#DejaVuSans-30"/>
       <use xlink:href="#DejaVuSans-2e" x="63.623047"/>
       <use xlink:href="#DejaVuSans-30" x="95.410156"/>
      </g>
     </g>
    </g>
    <g id="xtick_2">
     <g id="line2d_2">
      <g>
       <use xlink:href="#m170eb73f41" x="159.814508" y="512.64" style="stroke: #000000; stroke-width: 0.8"/>
      </g>
     </g>
     <g id="text_2">
      <!-- 0.5 -->
      <g transform="translate(151.862945 527.238438) scale(0.1 -0.1)">
       <defs>
        <path id="DejaVuSans-35" d="M 691 4666 
L 3169 4666 
L 3169 4134 
L 1269 4134 
L 1269 2991 
Q 1406 3038 1543 3061 
Q 1681 3084 1819 3084 
Q 2600 3084 3056 2656 
Q 3513 2228 3513 1497 
Q 3513 744 3044 326 
Q 2575 -91 1722 -91 
Q 1428 -91 1123 -41 
Q 819 9 494 109 
L 494 744 
Q 775 591 1075 516 
Q 1375 441 1709 441 
Q 2250 441 2565 725 
Q 2881 1009 2881 1497 
Q 2881 1984 2565 2268 
Q 2250 2553 1709 2553 
Q 1456 2553 1204 2497 
Q 953 2441 691 2322 
L 691 4666 
z
" transform="scale(0.015625)"/>
       </defs>
       <use xlink:href="#DejaVuSans-30"/>
       <use xlink:href="#DejaVuSans-2e" x="63.623047"/>
       <use xlink:href="#DejaVuSans-35" x="95.410156"/>
      </g>
     </g>
    </g>
    <g id="xtick_3">
     <g id="line2d_3">
      <g>
       <use xlink:href="#m170eb73f41" x="227.473424" y="512.64" style="stroke: #000000; stroke-width: 0.8"/>
      </g>
     </g>
     <g id="text_3">
      <!-- 1.0 -->
      <g transform="translate(219.521862 527.238438) scale(0.1 -0.1)">
       <defs>
        <path id="DejaVuSans-31" d="M 794 531 
L 1825 531 
L 1825 4091 
L 703 3866 
L 703 4441 
L 1819 4666 
L 2450 4666 
L 2450 531 
L 3481 531 
L 3481 0 
L 794 0 
L 794 531 
z
" transform="scale(0.015625)"/>
       </defs>
       <use xlink:href="#DejaVuSans-31"/>
       <use xlink:href="#DejaVuSans-2e" x="63.623047"/>
       <use xlink:href="#DejaVuSans-30" x="95.410156"/>
      </g>
     </g>
    </g>
    <g id="xtick_4">
     <g id="line2d_4">
      <g>
       <use xlink:href="#m170eb73f41" x="295.132341" y="512.64" style="stroke: #000000; stroke-width: 0.8"/>
      </g>
     </g>
     <g id="text_4">
      <!-- 1.5 -->
      <g transform="translate(287.180779 527.238438) scale(0.1 -0.1)">
       <use xlink:href="#DejaVuSans-31"/>
       <use xlink:href="#DejaVuSans-2e" x="63.623047"/>
       <use xlink:href="#DejaVuSans-35" x="95.410156"/>
      </g>
     </g>
    </g>
    <g id="xtick_5">
     <g id="line2d_5">
      <g>
       <use xlink:href="#m170eb73f41" x="362.791258" y="512.64" style="stroke: #000000; stroke-width: 0.8"/>
      </g>
     </g>
     <g id="text_5">
      <!-- 2.0 -->
      <g transform="translate(354.839695 527.238438) scale(0.1 -0.1)">
       <defs>
        <path id="DejaVuSans-32" d="M 1228 531 
L 3431 531 
L 3431 0 
L 469 0 
L 469 531 
Q 828 903 1448 1529 
Q 2069 2156 2228 2338 
Q 2531 2678 2651 2914 
Q 2772 3150 2772 3378 
Q 2772 3750 2511 3984 
Q 2250 4219 1831 4219 
Q 1534 4219 1204 4116 
Q 875 4013 500 3803 
L 500 4441 
Q 881 4594 1212 4672 
Q 1544 4750 1819 4750 
Q 2544 4750 2975 4387 
Q 3406 4025 3406 3419 
Q 3406 3131 3298 2873 
Q 3191 2616 2906 2266 
Q 2828 2175 2409 1742 
Q 1991 1309 1228 531 
z
" transform="scale(0.015625)"/>
       </defs>
       <use xlink:href="#DejaVuSans-32"/>
       <use xlink:href="#DejaVuSans-2e" x="63.623047"/>
       <use xlink:href="#DejaVuSans-30" x="95.410156"/>
      </g>
     </g>
    </g>
    <g id="xtick_6">
     <g id="line2d_6">
      <g>
       <use xlink:href="#m170eb73f41" x="430.450174" y="512.64" style="stroke: #000000; stroke-width: 0.8"/>
      </g>
     </g>
     <g id="text_6">
      <!-- 2.5 -->
      <g transform="translate(422.498612 527.238438) scale(0.1 -0.1)">
       <use xlink:href="#DejaVuSans-32"/>
       <use xlink:href="#DejaVuSans-2e" x="63.623047"/>
       <use xlink:href="#DejaVuSans-35" x="95.410156"/>
      </g>
     </g>
    </g>
    <g id="xtick_7">
     <g id="line2d_7">
      <g>
       <use xlink:href="#m170eb73f41" x="498.109091" y="512.64" style="stroke: #000000; stroke-width: 0.8"/>
      </g>
     </g>
     <g id="text_7">
      <!-- 3.0 -->
      <g transform="translate(490.157528 527.238438) scale(0.1 -0.1)">
       <defs>
        <path id="DejaVuSans-33" d="M 2597 2516 
Q 3050 2419 3304 2112 
Q 3559 1806 3559 1356 
Q 3559 666 3084 287 
Q 2609 -91 1734 -91 
Q 1441 -91 1130 -33 
Q 819 25 488 141 
L 488 750 
Q 750 597 1062 519 
Q 1375 441 1716 441 
Q 2309 441 2620 675 
Q 2931 909 2931 1356 
Q 2931 1769 2642 2001 
Q 2353 2234 1838 2234 
L 1294 2234 
L 1294 2753 
L 1863 2753 
Q 2328 2753 2575 2939 
Q 2822 3125 2822 3475 
Q 2822 3834 2567 4026 
Q 2313 4219 1838 4219 
Q 1578 4219 1281 4162 
Q 984 4106 628 3988 
L 628 4550 
Q 988 4650 1302 4700 
Q 1616 4750 1894 4750 
Q 2613 4750 3031 4423 
Q 3450 4097 3450 3541 
Q 3450 3153 3228 2886 
Q 3006 2619 2597 2516 
z
" transform="scale(0.015625)"/>
       </defs>
       <use xlink:href="#DejaVuSans-33"/>
       <use xlink:href="#DejaVuSans-2e" x="63.623047"/>
       <use xlink:href="#DejaVuSans-30" x="95.410156"/>
      </g>
     </g>
    </g>
    <g id="text_8">
     <!-- Wellenlaenge in $10^{-6}$ -->
     <g transform="translate(241.75 542.418125) scale(0.1 -0.1)">
      <defs>
       <path id="DejaVuSans-57" d="M 213 4666 
L 850 4666 
L 1831 722 
L 2809 4666 
L 3519 4666 
L 4500 722 
L 5478 4666 
L 6119 4666 
L 4947 0 
L 4153 0 
L 3169 4050 
L 2175 0 
L 1381 0 
L 213 4666 
z
" transform="scale(0.015625)"/>
       <path id="DejaVuSans-65" d="M 3597 1894 
L 3597 1613 
L 953 1613 
Q 991 1019 1311 708 
Q 1631 397 2203 397 
Q 2534 397 2845 478 
Q 3156 559 3463 722 
L 3463 178 
Q 3153 47 2828 -22 
Q 2503 -91 2169 -91 
Q 1331 -91 842 396 
Q 353 884 353 1716 
Q 353 2575 817 3079 
Q 1281 3584 2069 3584 
Q 2775 3584 3186 3129 
Q 3597 2675 3597 1894 
z
M 3022 2063 
Q 3016 2534 2758 2815 
Q 2500 3097 2075 3097 
Q 1594 3097 1305 2825 
Q 1016 2553 972 2059 
L 3022 2063 
z
" transform="scale(0.015625)"/>
       <path id="DejaVuSans-6c" d="M 603 4863 
L 1178 4863 
L 1178 0 
L 603 0 
L 603 4863 
z
" transform="scale(0.015625)"/>
       <path id="DejaVuSans-6e" d="M 3513 2113 
L 3513 0 
L 2938 0 
L 2938 2094 
Q 2938 2591 2744 2837 
Q 2550 3084 2163 3084 
Q 1697 3084 1428 2787 
Q 1159 2491 1159 1978 
L 1159 0 
L 581 0 
L 581 3500 
L 1159 3500 
L 1159 2956 
Q 1366 3272 1645 3428 
Q 1925 3584 2291 3584 
Q 2894 3584 3203 3211 
Q 3513 2838 3513 2113 
z
" transform="scale(0.015625)"/>
       <path id="DejaVuSans-61" d="M 2194 1759 
Q 1497 1759 1228 1600 
Q 959 1441 959 1056 
Q 959 750 1161 570 
Q 1363 391 1709 391 
Q 2188 391 2477 730 
Q 2766 1069 2766 1631 
L 2766 1759 
L 2194 1759 
z
M 3341 1997 
L 3341 0 
L 2766 0 
L 2766 531 
Q 2569 213 2275 61 
Q 1981 -91 1556 -91 
Q 1019 -91 701 211 
Q 384 513 384 1019 
Q 384 1609 779 1909 
Q 1175 2209 1959 2209 
L 2766 2209 
L 2766 2266 
Q 2766 2663 2505 2880 
Q 2244 3097 1772 3097 
Q 1472 3097 1187 3025 
Q 903 2953 641 2809 
L 641 3341 
Q 956 3463 1253 3523 
Q 1550 3584 1831 3584 
Q 2591 3584 2966 3190 
Q 3341 2797 3341 1997 
z
" transform="scale(0.015625)"/>
       <path id="DejaVuSans-67" d="M 2906 1791 
Q 2906 2416 2648 2759 
Q 2391 3103 1925 3103 
Q 1463 3103 1205 2759 
Q 947 2416 947 1791 
Q 947 1169 1205 825 
Q 1463 481 1925 481 
Q 2391 481 2648 825 
Q 2906 1169 2906 1791 
z
M 3481 434 
Q 3481 -459 3084 -895 
Q 2688 -1331 1869 -1331 
Q 1566 -1331 1297 -1286 
Q 1028 -1241 775 -1147 
L 775 -588 
Q 1028 -725 1275 -790 
Q 1522 -856 1778 -856 
Q 2344 -856 2625 -561 
Q 2906 -266 2906 331 
L 2906 616 
Q 2728 306 2450 153 
Q 2172 0 1784 0 
Q 1141 0 747 490 
Q 353 981 353 1791 
Q 353 2603 747 3093 
Q 1141 3584 1784 3584 
Q 2172 3584 2450 3431 
Q 2728 3278 2906 2969 
L 2906 3500 
L 3481 3500 
L 3481 434 
z
" transform="scale(0.015625)"/>
       <path id="DejaVuSans-20" transform="scale(0.015625)"/>
       <path id="DejaVuSans-69" d="M 603 3500 
L 1178 3500 
L 1178 0 
L 603 0 
L 603 3500 
z
M 603 4863 
L 1178 4863 
L 1178 4134 
L 603 4134 
L 603 4863 
z
" transform="scale(0.015625)"/>
       <path id="DejaVuSans-2212" d="M 678 2272 
L 4684 2272 
L 4684 1741 
L 678 1741 
L 678 2272 
z
" transform="scale(0.015625)"/>
       <path id="DejaVuSans-36" d="M 2113 2584 
Q 1688 2584 1439 2293 
Q 1191 2003 1191 1497 
Q 1191 994 1439 701 
Q 1688 409 2113 409 
Q 2538 409 2786 701 
Q 3034 994 3034 1497 
Q 3034 2003 2786 2293 
Q 2538 2584 2113 2584 
z
M 3366 4563 
L 3366 3988 
Q 3128 4100 2886 4159 
Q 2644 4219 2406 4219 
Q 1781 4219 1451 3797 
Q 1122 3375 1075 2522 
Q 1259 2794 1537 2939 
Q 1816 3084 2150 3084 
Q 2853 3084 3261 2657 
Q 3669 2231 3669 1497 
Q 3669 778 3244 343 
Q 2819 -91 2113 -91 
Q 1303 -91 875 529 
Q 447 1150 447 2328 
Q 447 3434 972 4092 
Q 1497 4750 2381 4750 
Q 2619 4750 2861 4703 
Q 3103 4656 3366 4563 
z
" transform="scale(0.015625)"/>
      </defs>
      <use xlink:href="#DejaVuSans-57" transform="translate(0 0.765625)"/>
      <use xlink:href="#DejaVuSans-65" transform="translate(98.876953 0.765625)"/>
      <use xlink:href="#DejaVuSans-6c" transform="translate(160.400391 0.765625)"/>
      <use xlink:href="#DejaVuSans-6c" transform="translate(188.183594 0.765625)"/>
      <use xlink:href="#DejaVuSans-65" transform="translate(215.966797 0.765625)"/>
      <use xlink:href="#DejaVuSans-6e" transform="translate(277.490234 0.765625)"/>
      <use xlink:href="#DejaVuSans-6c" transform="translate(340.869141 0.765625)"/>
      <use xlink:href="#DejaVuSans-61" transform="translate(368.652344 0.765625)"/>
      <use xlink:href="#DejaVuSans-65" transform="translate(429.931641 0.765625)"/>
      <use xlink:href="#DejaVuSans-6e" transform="translate(491.455078 0.765625)"/>
      <use xlink:href="#DejaVuSans-67" transform="translate(554.833984 0.765625)"/>
      <use xlink:href="#DejaVuSans-65" transform="translate(618.310547 0.765625)"/>
      <use xlink:href="#DejaVuSans-20" transform="translate(679.833984 0.765625)"/>
      <use xlink:href="#DejaVuSans-69" transform="translate(711.621094 0.765625)"/>
      <use xlink:href="#DejaVuSans-6e" transform="translate(739.404297 0.765625)"/>
      <use xlink:href="#DejaVuSans-20" transform="translate(802.783203 0.765625)"/>
      <use xlink:href="#DejaVuSans-31" transform="translate(834.570312 0.765625)"/>
      <use xlink:href="#DejaVuSans-30" transform="translate(898.193359 0.765625)"/>
      <use xlink:href="#DejaVuSans-2212" transform="translate(962.773438 39.046875) scale(0.7)"/>
      <use xlink:href="#DejaVuSans-36" transform="translate(1021.425781 39.046875) scale(0.7)"/>
     </g>
    </g>
    <g id="text_9">
     <!-- 1e−5 -->
     <g transform="translate(491.142187 539.916563) scale(0.1 -0.1)">
      <use xlink:href="#DejaVuSans-31"/>
      <use xlink:href="#DejaVuSans-65" x="63.623047"/>
      <use xlink:href="#DejaVuSans-2212" x="125.146484"/>
      <use xlink:href="#DejaVuSans-35" x="208.935547"/>
     </g>
    </g>
   </g>
   <g id="matplotlib.axis_2">
    <g id="ytick_1">
     <g id="line2d_8">
      <defs>
       <path id="m95f97ac7e6" d="M 0 0 
L -3.5 0 
" style="stroke: #000000; stroke-width: 0.8"/>
      </defs>
      <g>
       <use xlink:href="#m95f97ac7e6" x="72" y="492.48" style="stroke: #000000; stroke-width: 0.8"/>
      </g>
     </g>
     <g id="text_10">
      <!-- 0 -->
      <g transform="translate(58.6375 496.279219) scale(0.1 -0.1)">
       <use xlink:href="#DejaVuSans-30"/>
      </g>
     </g>
    </g>
    <g id="ytick_2">
     <g id="line2d_9">
      <g>
       <use xlink:href="#m95f97ac7e6" x="72" y="398.933568" style="stroke: #000000; stroke-width: 0.8"/>
      </g>
     </g>
     <g id="text_11">
      <!-- 2 -->
      <g transform="translate(58.6375 402.732787) scale(0.1 -0.1)">
       <use xlink:href="#DejaVuSans-32"/>
      </g>
     </g>
    </g>
    <g id="ytick_3">
     <g id="line2d_10">
      <g>
       <use xlink:href="#m95f97ac7e6" x="72" y="305.387136" style="stroke: #000000; stroke-width: 0.8"/>
      </g>
     </g>
     <g id="text_12">
      <!-- 4 -->
      <g transform="translate(58.6375 309.186355) scale(0.1 -0.1)">
       <defs>
        <path id="DejaVuSans-34" d="M 2419 4116 
L 825 1625 
L 2419 1625 
L 2419 4116 
z
M 2253 4666 
L 3047 4666 
L 3047 1625 
L 3713 1625 
L 3713 1100 
L 3047 1100 
L 3047 0 
L 2419 0 
L 2419 1100 
L 313 1100 
L 313 1709 
L 2253 4666 
z
" transform="scale(0.015625)"/>
       </defs>
       <use xlink:href="#DejaVuSans-34"/>
      </g>
     </g>
    </g>
    <g id="ytick_4">
     <g id="line2d_11">
      <g>
       <use xlink:href="#m95f97ac7e6" x="72" y="211.840704" style="stroke: #000000; stroke-width: 0.8"/>
      </g>
     </g>
     <g id="text_13">
      <!-- 6 -->
      <g transform="translate(58.6375 215.639923) scale(0.1 -0.1)">
       <use xlink:href="#DejaVuSans-36"/>
      </g>
     </g>
    </g>
    <g id="ytick_5">
     <g id="line2d_12">
      <g>
       <use xlink:href="#m95f97ac7e6" x="72" y="118.294272" style="stroke: #000000; stroke-width: 0.8"/>
      </g>
     </g>
     <g id="text_14">
      <!-- 8 -->
      <g transform="translate(58.6375 122.093491) scale(0.1 -0.1)">
       <defs>
        <path id="DejaVuSans-38" d="M 2034 2216 
Q 1584 2216 1326 1975 
Q 1069 1734 1069 1313 
Q 1069 891 1326 650 
Q 1584 409 2034 409 
Q 2484 409 2743 651 
Q 3003 894 3003 1313 
Q 3003 1734 2745 1975 
Q 2488 2216 2034 2216 
z
M 1403 2484 
Q 997 2584 770 2862 
Q 544 3141 544 3541 
Q 544 4100 942 4425 
Q 1341 4750 2034 4750 
Q 2731 4750 3128 4425 
Q 3525 4100 3525 3541 
Q 3525 3141 3298 2862 
Q 3072 2584 2669 2484 
Q 3125 2378 3379 2068 
Q 3634 1759 3634 1313 
Q 3634 634 3220 271 
Q 2806 -91 2034 -91 
Q 1263 -91 848 271 
Q 434 634 434 1313 
Q 434 1759 690 2068 
Q 947 2378 1403 2484 
z
M 1172 3481 
Q 1172 3119 1398 2916 
Q 1625 2713 2034 2713 
Q 2441 2713 2670 2916 
Q 2900 3119 2900 3481 
Q 2900 3844 2670 4047 
Q 2441 4250 2034 4250 
Q 1625 4250 1398 4047 
Q 1172 3844 1172 3481 
z
" transform="scale(0.015625)"/>
       </defs>
       <use xlink:href="#DejaVuSans-38"/>
      </g>
     </g>
    </g>
    <g id="text_15">
     <!-- Intensitat in $\frac{\text{J}}{\text{s}}$ -->
     <g transform="translate(51.8375 324.93) rotate(-90) scale(0.1 -0.1)">
      <defs>
       <path id="DejaVuSans-49" d="M 628 4666 
L 1259 4666 
L 1259 0 
L 628 0 
L 628 4666 
z
" transform="scale(0.015625)"/>
       <path id="DejaVuSans-74" d="M 1172 4494 
L 1172 3500 
L 2356 3500 
L 2356 3053 
L 1172 3053 
L 1172 1153 
Q 1172 725 1289 603 
Q 1406 481 1766 481 
L 2356 481 
L 2356 0 
L 1766 0 
Q 1100 0 847 248 
Q 594 497 594 1153 
L 594 3053 
L 172 3053 
L 172 3500 
L 594 3500 
L 594 4494 
L 1172 4494 
z
" transform="scale(0.015625)"/>
       <path id="DejaVuSans-73" d="M 2834 3397 
L 2834 2853 
Q 2591 2978 2328 3040 
Q 2066 3103 1784 3103 
Q 1356 3103 1142 2972 
Q 928 2841 928 2578 
Q 928 2378 1081 2264 
Q 1234 2150 1697 2047 
L 1894 2003 
Q 2506 1872 2764 1633 
Q 3022 1394 3022 966 
Q 3022 478 2636 193 
Q 2250 -91 1575 -91 
Q 1294 -91 989 -36 
Q 684 19 347 128 
L 347 722 
Q 666 556 975 473 
Q 1284 391 1588 391 
Q 1994 391 2212 530 
Q 2431 669 2431 922 
Q 2431 1156 2273 1281 
Q 2116 1406 1581 1522 
L 1381 1569 
Q 847 1681 609 1914 
Q 372 2147 372 2553 
Q 372 3047 722 3315 
Q 1072 3584 1716 3584 
Q 2034 3584 2315 3537 
Q 2597 3491 2834 3397 
z
" transform="scale(0.015625)"/>
       <path id="DejaVuSans-4a" d="M 628 4666 
L 1259 4666 
L 1259 325 
Q 1259 -519 939 -900 
Q 619 -1281 -91 -1281 
L -331 -1281 
L -331 -750 
L -134 -750 
Q 284 -750 456 -515 
Q 628 -281 628 325 
L 628 4666 
z
" transform="scale(0.015625)"/>
      </defs>
      <use xlink:href="#DejaVuSans-49" transform="translate(0 0.157813)"/>
      <use xlink:href="#DejaVuSans-6e" transform="translate(29.492188 0.157813)"/>
      <use xlink:href="#DejaVuSans-74" transform="translate(92.871094 0.157813)"/>
      <use xlink:href="#DejaVuSans-65" transform="translate(132.080078 0.157813)"/>
      <use xlink:href="#DejaVuSans-6e" transform="translate(193.603516 0.157813)"/>
      <use xlink:href="#DejaVuSans-73" transform="translate(256.982422 0.157813)"/>
      <use xlink:href="#DejaVuSans-69" transform="translate(309.082031 0.157813)"/>
      <use xlink:href="#DejaVuSans-74" transform="translate(336.865234 0.157813)"/>
      <use xlink:href="#DejaVuSans-61" transform="translate(376.074219 0.157813)"/>
      <use xlink:href="#DejaVuSans-74" transform="translate(437.353516 0.157813)"/>
      <use xlink:href="#DejaVuSans-20" transform="translate(476.5625 0.157813)"/>
      <use xlink:href="#DejaVuSans-69" transform="translate(508.349609 0.157813)"/>
      <use xlink:href="#DejaVuSans-6e" transform="translate(536.132812 0.157813)"/>
      <use xlink:href="#DejaVuSans-20" transform="translate(599.511719 0.157813)"/>
      <use xlink:href="#DejaVuSans-4a" transform="translate(639.298828 57.965625) scale(0.7)"/>
      <use xlink:href="#DejaVuSans-73" transform="translate(631.298828 -26.495312) scale(0.7)"/>
      <path d="M 631.298828 18.954688 
L 631.298828 25.204688 
L 667.768555 25.204688 
L 667.768555 18.954688 
L 631.298828 18.954688 
z
"/>
     </g>
    </g>
   </g>
   <g id="line2d_13">
    <path d="M 92.290909 492.48 
L 115.039476 492.377017 
L 117.476822 492.096549 
L 119.10172 491.692358 
L 120.726618 491.014662 
L 121.945291 490.269963 
L 123.163964 489.27859 
L 124.382637 488.004072 
L 125.60131 486.415068 
L 126.819984 484.487006 
L 128.038657 482.203221 
L 129.663554 478.591977 
L 131.288452 474.339192 
L 132.91335 469.474691 
L 134.944472 462.614719 
L 137.381818 453.427732 
L 140.225389 441.764752 
L 151.193448 395.742079 
L 154.037019 385.358066 
L 156.474365 377.339242 
L 158.505487 371.334969 
L 160.536609 365.971234 
L 162.567731 361.255179 
L 164.598853 357.181783 
L 166.223751 354.376067 
L 167.848649 351.961032 
L 169.473546 349.922895 
L 171.098444 348.245911 
L 172.723342 346.912872 
L 174.348239 345.905537 
L 175.973137 345.205014 
L 177.598034 344.792075 
L 179.222932 344.647427 
L 180.84783 344.751933 
L 182.472727 345.086795 
L 184.097625 345.6337 
L 186.128747 346.588589 
L 188.159869 347.814081 
L 190.190991 349.278944 
L 192.628337 351.311681 
L 195.471908 354.003609 
L 198.721704 357.421196 
L 202.377723 361.596576 
L 207.252416 367.532621 
L 214.97068 377.348542 
L 225.532514 390.732889 
L 232.032105 398.601266 
L 237.719247 405.144748 
L 243.000164 410.898492 
L 248.281081 416.325749 
L 253.561998 421.42215 
L 258.842916 426.191208 
L 264.123833 430.641908 
L 269.40475 434.786891 
L 274.685667 438.641094 
L 279.966585 442.220749 
L 285.247502 445.542656 
L 290.934644 448.851157 
L 296.621785 451.900869 
L 302.715152 454.903747 
L 308.808518 457.655398 
L 315.308108 460.337907 
L 321.807699 462.783419 
L 328.713514 465.146946 
L 336.025553 467.412158 
L 343.743817 469.566396 
L 351.868305 471.60051 
L 360.399017 473.508602 
L 369.742179 475.363671 
L 379.491564 477.071523 
L 390.053399 478.694924 
L 401.427682 480.21723 
L 414.020639 481.671026 
L 427.832269 483.031238 
L 442.862572 484.281367 
L 459.517772 485.438301 
L 478.204095 486.50697 
L 498.109091 487.434211 
L 498.109091 487.434211 
" clip-path="url(#p7bf8651ac5)" style="fill: none; stroke: #1f77b4; stroke-width: 1.5; stroke-linecap: square"/>
   </g>
   <g id="line2d_14">
    <path d="M 92.290909 492.48 
L 111.789681 492.392276 
L 113.820803 492.135494 
L 115.039476 491.797296 
L 116.258149 491.234394 
L 117.476822 490.361127 
L 118.695495 489.085002 
L 119.914169 487.313239 
L 121.132842 484.959507 
L 122.351515 481.949998 
L 123.570188 478.228244 
L 124.788862 473.758313 
L 126.007535 468.526346 
L 127.632432 460.382181 
L 129.25733 450.975942 
L 131.288452 437.646863 
L 133.725799 419.811936 
L 136.975594 394.072588 
L 143.475184 342.100168 
L 146.318755 321.372169 
L 148.756102 305.2751 
L 150.787224 293.216339 
L 152.818346 282.47319 
L 154.849468 273.079929 
L 156.474365 266.538122 
L 158.099263 260.847593 
L 159.724161 255.986051 
L 161.349058 251.923906 
L 162.567731 249.380895 
L 163.786405 247.251399 
L 165.005078 245.518002 
L 166.223751 244.162577 
L 167.442424 243.16653 
L 168.661097 242.511009 
L 169.879771 242.177092 
L 171.098444 242.145942 
L 172.317117 242.398937 
L 173.53579 242.917785 
L 174.754464 243.684614 
L 175.973137 244.682045 
L 177.598034 246.341675 
L 179.222932 248.343217 
L 181.254054 251.271034 
L 183.285176 254.610669 
L 185.722523 259.076571 
L 188.566093 264.799483 
L 191.815889 271.854295 
L 196.284357 282.155407 
L 204.002621 300.673874 
L 212.533333 320.95817 
L 218.220475 333.886162 
L 223.095168 344.434267 
L 227.563636 353.617969 
L 232.032105 362.313857 
L 236.500573 370.514459 
L 240.969042 378.223211 
L 245.031286 384.813678 
L 249.09353 391.019195 
L 253.155774 396.854605 
L 257.218018 402.336366 
L 261.686486 407.97861 
L 266.154955 413.237689 
L 270.623423 418.137297 
L 275.091892 422.700683 
L 279.56036 426.950345 
L 284.028829 430.907831 
L 288.903522 434.915884 
L 293.778215 438.625573 
L 298.652907 442.060254 
L 303.933825 445.495947 
L 309.214742 448.659794 
L 314.495659 451.575148 
L 320.182801 454.461322 
L 326.276167 457.288842 
L 332.369533 459.868716 
L 338.869124 462.374819 
L 345.774939 464.788229 
L 353.086978 467.09393 
L 360.805242 469.280661 
L 368.92973 471.340661 
L 377.460442 473.269329 
L 386.397379 475.064852 
L 396.146765 476.795581 
L 406.7086 478.439172 
L 418.082883 479.979472 
L 430.269615 481.406048 
L 443.67502 482.751201 
L 458.705324 484.028305 
L 475.360524 485.21076 
L 493.640622 486.282387 
L 498.109091 486.514 
L 498.109091 486.514 
" clip-path="url(#p7bf8651ac5)" style="fill: none; stroke: #ff7f0e; stroke-width: 1.5; stroke-linecap: square"/>
   </g>
   <g id="line2d_15">
    <path d="M 92.290909 492.48 
L 109.352334 492.399828 
L 110.977232 492.177935 
L 112.195905 491.786901 
L 113.008354 491.348856 
L 113.820803 490.713503 
L 114.633251 489.826805 
L 115.4457 488.630876 
L 116.258149 487.066141 
L 117.070598 485.073669 
L 117.883047 482.597491 
L 118.695495 479.586743 
L 119.914169 473.974565 
L 121.132842 466.951495 
L 122.351515 458.455888 
L 123.570188 448.478396 
L 125.195086 432.948222 
L 126.819984 415.084414 
L 128.851106 389.992603 
L 131.288452 356.928093 
L 140.631613 226.443567 
L 143.06896 197.067601 
L 145.100082 175.156204 
L 147.131204 155.785277 
L 148.756102 142.178193 
L 150.380999 130.258366 
L 152.005897 120.002714 
L 153.630794 111.36565 
L 154.849468 105.912619 
L 156.068141 101.303168 
L 157.286814 97.502439 
L 158.505487 94.473186 
L 159.724161 92.176488 
L 160.536609 91.032623 
L 161.349058 90.1846 
L 162.161507 89.620394 
L 162.973956 89.328002 
L 163.786405 89.295482 
L 164.598853 89.511007 
L 165.411302 89.962895 
L 166.223751 90.639646 
L 167.442424 92.051755 
L 168.661097 93.907352 
L 169.879771 96.17066 
L 171.504668 99.763485 
L 173.129566 103.943066 
L 175.160688 109.883136 
L 177.19181 116.4976 
L 179.629156 125.16022 
L 182.878952 137.648709 
L 186.941196 154.264817 
L 194.253235 185.362296 
L 201.565274 216.14095 
L 206.846192 237.401336 
L 211.31466 254.510296 
L 215.783129 270.711133 
L 219.845373 284.612259 
L 223.907617 297.715571 
L 227.969861 310.028488 
L 232.032105 321.570392 
L 235.688124 331.321574 
L 239.344144 340.494431 
L 243.000164 349.115101 
L 246.656183 357.210964 
L 250.312203 364.8099 
L 253.968223 371.939724 
L 257.624242 378.62778 
L 261.686486 385.573126 
L 265.748731 392.040904 
L 269.810975 398.06445 
L 273.873219 403.675265 
L 277.935463 408.902968 
L 281.997707 413.775288 
L 286.059951 418.318098 
L 290.528419 422.963295 
L 294.996888 427.268542 
L 299.465356 431.261124 
L 303.933825 434.966105 
L 308.808518 438.706862 
L 313.68321 442.159945 
L 318.557903 445.350137 
L 323.838821 448.535573 
L 329.119738 451.46477 
L 334.80688 454.359446 
L 340.494021 457.010157 
L 346.587387 459.606028 
L 353.086978 462.124729 
L 359.992793 464.547942 
L 366.898608 466.739057 
L 374.210647 468.834384 
L 382.335135 470.922967 
L 390.865848 472.877737 
L 399.802785 474.697295 
L 409.55217 476.451263 
L 420.114005 478.117306 
L 431.488288 479.679305 
L 443.67502 481.126861 
L 457.080426 482.492894 
L 471.704505 483.758906 
L 487.953481 484.940963 
L 498.109091 485.579637 
L 498.109091 485.579637 
" clip-path="url(#p7bf8651ac5)" style="fill: none; stroke: #2ca02c; stroke-width: 1.5; stroke-linecap: square"/>
   </g>
   <g id="patch_3">
    <path d="M 72 512.64 
L 72 69.12 
" style="fill: none; stroke: #000000; stroke-width: 0.8; stroke-linejoin: miter; stroke-linecap: square"/>
   </g>
   <g id="patch_4">
    <path d="M 518.4 512.64 
L 518.4 69.12 
" style="fill: none; stroke: #000000; stroke-width: 0.8; stroke-linejoin: miter; stroke-linecap: square"/>
   </g>
   <g id="patch_5">
    <path d="M 72 512.64 
L 518.4 512.64 
" style="fill: none; stroke: #000000; stroke-width: 0.8; stroke-linejoin: miter; stroke-linecap: square"/>
   </g>
   <g id="patch_6">
    <path d="M 72 69.12 
L 518.4 69.12 
" style="fill: none; stroke: #000000; stroke-width: 0.8; stroke-linejoin: miter; stroke-linecap: square"/>
   </g>
   <g id="text_16">
    <!-- $\omega_{\nu}(\nu, T)=\frac{8\pi h c}{\lambda^5\left(e^{\frac{hc}{\lambda k_B T}}-1\right)}$ -->
    <g transform="translate(316.509091 109.08) scale(0.2 -0.2)">
     <defs>
      <path id="DejaVuSans-Oblique-3c9" d="M 1369 -91 
Q 72 -91 434 1766 
Q 575 2500 1256 3500 
L 1875 3500 
Q 1231 2500 1088 1750 
Q 819 397 1519 397 
Q 2166 397 2478 2078 
L 3009 2078 
Q 2669 388 3316 397 
Q 4013 403 4275 1750 
Q 4419 2500 4169 3500 
L 4788 3500 
Q 5075 2500 4934 1766 
Q 4578 -94 3278 -91 
Q 2428 -88 2503 844 
Q 2194 -91 1369 -91 
z
" transform="scale(0.015625)"/>
      <path id="DejaVuSans-Oblique-3bd" d="M 959 0 
L 572 3500 
L 1191 3500 
L 1522 563 
Q 1972 950 2391 1488 
Q 2706 1891 2788 2241 
Q 2825 2406 2809 2719 
Q 2794 3091 2544 3500 
L 3125 3500 
L 3125 3500 
Q 3288 3222 3353 2834 
Q 3416 2478 3369 2234 
Q 3250 1622 2719 1075 
Q 2025 363 1572 0 
L 959 0 
z
" transform="scale(0.015625)"/>
      <path id="DejaVuSans-28" d="M 1984 4856 
Q 1566 4138 1362 3434 
Q 1159 2731 1159 2009 
Q 1159 1288 1364 580 
Q 1569 -128 1984 -844 
L 1484 -844 
Q 1016 -109 783 600 
Q 550 1309 550 2009 
Q 550 2706 781 3412 
Q 1013 4119 1484 4856 
L 1984 4856 
z
" transform="scale(0.015625)"/>
      <path id="DejaVuSans-2c" d="M 750 794 
L 1409 794 
L 1409 256 
L 897 -744 
L 494 -744 
L 750 256 
L 750 794 
z
" transform="scale(0.015625)"/>
      <path id="DejaVuSans-Oblique-54" d="M 378 4666 
L 4325 4666 
L 4225 4134 
L 2559 4134 
L 1759 0 
L 1125 0 
L 1925 4134 
L 275 4134 
L 378 4666 
z
" transform="scale(0.015625)"/>
      <path id="DejaVuSans-29" d="M 513 4856 
L 1013 4856 
Q 1481 4119 1714 3412 
Q 1947 2706 1947 2009 
Q 1947 1309 1714 600 
Q 1481 -109 1013 -844 
L 513 -844 
Q 928 -128 1133 580 
Q 1338 1288 1338 2009 
Q 1338 2731 1133 3434 
Q 928 4138 513 4856 
z
" transform="scale(0.015625)"/>
      <path id="DejaVuSans-3d" d="M 678 2906 
L 4684 2906 
L 4684 2381 
L 678 2381 
L 678 2906 
z
M 678 1631 
L 4684 1631 
L 4684 1100 
L 678 1100 
L 678 1631 
z
" transform="scale(0.015625)"/>
      <path id="DejaVuSans-Oblique-3c0" d="M 584 3500 
L 3938 3500 
L 3825 2925 
L 3384 2925 
L 2966 775 
Q 2922 550 2981 450 
Q 3038 353 3209 353 
Q 3256 353 3325 363 
Q 3397 369 3419 372 
L 3338 -44 
Q 3222 -84 3103 -103 
Q 2981 -122 2866 -122 
Q 2491 -122 2388 81 
Q 2284 288 2391 838 
L 2797 2925 
L 1506 2925 
L 938 0 
L 350 0 
L 919 2925 
L 472 2925 
L 584 3500 
z
" transform="scale(0.015625)"/>
      <path id="DejaVuSans-Oblique-68" d="M 3566 2113 
L 3156 0 
L 2578 0 
L 2988 2091 
Q 3016 2238 3031 2350 
Q 3047 2463 3047 2528 
Q 3047 2791 2881 2937 
Q 2716 3084 2419 3084 
Q 1956 3084 1617 2771 
Q 1278 2459 1178 1941 
L 800 0 
L 225 0 
L 1172 4863 
L 1747 4863 
L 1375 2950 
Q 1594 3244 1934 3414 
Q 2275 3584 2650 3584 
Q 3113 3584 3367 3334 
Q 3622 3084 3622 2631 
Q 3622 2519 3608 2391 
Q 3594 2263 3566 2113 
z
" transform="scale(0.015625)"/>
      <path id="DejaVuSans-Oblique-63" d="M 3431 3366 
L 3316 2797 
Q 3109 2947 2876 3022 
Q 2644 3097 2394 3097 
Q 2119 3097 1870 3000 
Q 1622 2903 1453 2725 
Q 1184 2453 1037 2087 
Q 891 1722 891 1331 
Q 891 859 1127 628 
Q 1363 397 1844 397 
Q 2081 397 2348 469 
Q 2616 541 2906 684 
L 2797 116 
Q 2547 13 2283 -39 
Q 2019 -91 1741 -91 
Q 1044 -91 669 257 
Q 294 606 294 1253 
Q 294 1797 489 2255 
Q 684 2713 1069 3078 
Q 1331 3328 1684 3456 
Q 2038 3584 2456 3584 
Q 2700 3584 2940 3529 
Q 3181 3475 3431 3366 
z
" transform="scale(0.015625)"/>
      <path id="DejaVuSans-Oblique-3bb" d="M 2350 4316 
L 3125 0 
L 2516 0 
L 2038 2588 
L 328 0 
L -281 0 
L 1903 3356 
L 1794 3975 
Q 1725 4369 1391 4369 
L 1091 4369 
L 1184 4863 
L 1550 4856 
Q 2253 4847 2350 4316 
z
" transform="scale(0.015625)"/>
      <path id="STIXSizeOneSym-Regular-28" d="M 2445 -858 
L 2445 -1050 
Q 1728 -371 1309 630 
Q 890 1632 890 2886 
Q 890 4122 1309 5136 
Q 1728 6150 2445 6822 
L 2445 6630 
Q 1408 5363 1408 2886 
Q 1408 410 2445 -858 
z
" transform="scale(0.015625)"/>
      <path id="DejaVuSans-Oblique-65" d="M 3078 2063 
Q 3088 2113 3092 2166 
Q 3097 2219 3097 2272 
Q 3097 2653 2873 2875 
Q 2650 3097 2266 3097 
Q 1838 3097 1509 2826 
Q 1181 2556 1013 2059 
L 3078 2063 
z
M 3578 1613 
L 903 1613 
Q 884 1494 878 1425 
Q 872 1356 872 1306 
Q 872 872 1139 634 
Q 1406 397 1894 397 
Q 2269 397 2603 481 
Q 2938 566 3225 728 
L 3116 159 
Q 2806 34 2476 -28 
Q 2147 -91 1806 -91 
Q 1078 -91 686 257 
Q 294 606 294 1247 
Q 294 1794 489 2264 
Q 684 2734 1063 3103 
Q 1306 3334 1642 3459 
Q 1978 3584 2356 3584 
Q 2950 3584 3301 3228 
Q 3653 2872 3653 2272 
Q 3653 2128 3634 1964 
Q 3616 1800 3578 1613 
z
" transform="scale(0.015625)"/>
      <path id="DejaVuSans-Oblique-6b" d="M 1172 4863 
L 1747 4863 
L 1197 2028 
L 3169 3500 
L 3916 3500 
L 1716 1825 
L 3322 0 
L 2625 0 
L 1131 1709 
L 800 0 
L 225 0 
L 1172 4863 
z
" transform="scale(0.015625)"/>
      <path id="DejaVuSans-Oblique-42" d="M 1081 4666 
L 2694 4666 
Q 3350 4666 3675 4422 
Q 4000 4178 4000 3688 
Q 4000 3238 3720 2911 
Q 3441 2584 2988 2516 
Q 3375 2428 3569 2181 
Q 3763 1934 3763 1522 
Q 3763 819 3242 409 
Q 2722 0 1819 0 
L 172 0 
L 1081 4666 
z
M 1234 2228 
L 903 519 
L 1919 519 
Q 2491 519 2800 781 
Q 3109 1044 3109 1522 
Q 3109 1891 2904 2059 
Q 2700 2228 2247 2228 
L 1234 2228 
z
M 1606 4147 
L 1331 2741 
L 2272 2741 
Q 2775 2741 3058 2959 
Q 3341 3178 3341 3566 
Q 3341 3869 3150 4008 
Q 2959 4147 2541 4147 
L 1606 4147 
z
" transform="scale(0.015625)"/>
      <path id="STIXSizeOneSym-Regular-29" d="M 550 6630 
L 550 6822 
Q 1267 6144 1686 5142 
Q 2106 4141 2106 2886 
Q 2106 1651 1686 636 
Q 1267 -378 550 -1050 
L 550 -858 
Q 1587 410 1587 2886 
Q 1587 5363 550 6630 
z
" transform="scale(0.015625)"/>
     </defs>
     <use xlink:href="#DejaVuSans-Oblique-3c9" transform="translate(0 0.679688)"/>
     <use xlink:href="#DejaVuSans-Oblique-3bd" transform="translate(83.740234 -15.726562) scale(0.7)"/>
     <use xlink:href="#DejaVuSans-28" transform="translate(125.576172 0.679688)"/>
     <use xlink:href="#DejaVuSans-Oblique-3bd" transform="translate(164.589844 0.679688)"/>
     <use xlink:href="#DejaVuSans-2c" transform="translate(220.449219 0.679688)"/>
     <use xlink:href="#DejaVuSans-Oblique-54" transform="translate(271.71875 0.679688)"/>
     <use xlink:href="#DejaVuSans-29" transform="translate(332.802734 0.679688)"/>
     <use xlink:href="#DejaVuSans-3d" transform="translate(391.298828 0.679688)"/>
     <use xlink:href="#DejaVuSans-38" transform="translate(610.570312 45.810938) scale(0.7)"/>
     <use xlink:href="#DejaVuSans-Oblique-3c0" transform="translate(655.106445 45.810938) scale(0.7)"/>
     <use xlink:href="#DejaVuSans-Oblique-68" transform="translate(697.25 45.810938) scale(0.7)"/>
     <use xlink:href="#DejaVuSans-Oblique-63" transform="translate(741.615234 45.810938) scale(0.7)"/>
     <use xlink:href="#DejaVuSans-Oblique-3bb" transform="translate(494.570312 -61.581125) scale(0.7)"/>
     <use xlink:href="#DejaVuSans-35" transform="translate(541.20949 -34.78425) scale(0.49)"/>
     <use xlink:href="#STIXSizeOneSym-Regular-28" transform="translate(574.298845 -52.470187) scale(0.616285)"/>
     <use xlink:href="#DejaVuSans-Oblique-65" transform="translate(603.127638 -61.581125) scale(0.7)"/>
     <use xlink:href="#DejaVuSans-Oblique-68" transform="translate(668.448972 -12.836078) scale(0.343)"/>
     <use xlink:href="#DejaVuSans-Oblique-63" transform="translate(690.187937 -12.836078) scale(0.343)"/>
     <use xlink:href="#DejaVuSans-Oblique-3bb" transform="translate(649.448972 -54.698922) scale(0.343)"/>
     <use xlink:href="#DejaVuSans-Oblique-6b" transform="translate(669.747605 -54.698922) scale(0.343)"/>
     <use xlink:href="#DejaVuSans-Oblique-42" transform="translate(689.610788 -60.326266) scale(0.2401)"/>
     <use xlink:href="#DejaVuSans-Oblique-54" transform="translate(707.020383 -54.698922) scale(0.343)"/>
     <use xlink:href="#DejaVuSans-2212" transform="translate(749.648947 -61.581125) scale(0.7)"/>
     <use xlink:href="#DejaVuSans-31" transform="translate(821.938986 -61.581125) scale(0.7)"/>
     <use xlink:href="#STIXSizeOneSym-Regular-29" transform="translate(866.475119 -52.470187) scale(0.616285)"/>
     <path d="M 494.570312 19.476562 
L 494.570312 25.726562 
L 895.303913 25.726562 
L 895.303913 19.476562 
L 494.570312 19.476562 
z
"/>
     <path d="M 649.448972 -25.573781 
L 649.448972 -22.511281 
L 727.972189 -22.511281 
L 727.972189 -25.573781 
L 649.448972 -25.573781 
z
"/>
    </g>
   </g>
   <g id="legend_1">
    <g id="patch_7">
     <path d="M 441.9 507.64 
L 511.4 507.64 
Q 513.4 507.64 513.4 505.64 
L 513.4 462.605625 
Q 513.4 460.605625 511.4 460.605625 
L 441.9 460.605625 
Q 439.9 460.605625 439.9 462.605625 
L 439.9 505.64 
Q 439.9 507.64 441.9 507.64 
z
" style="fill: #ffffff; opacity: 0.8; stroke: #cccccc; stroke-linejoin: miter"/>
    </g>
    <g id="line2d_16">
     <path d="M 443.9 468.704063 
L 453.9 468.704063 
L 463.9 468.704063 
" style="fill: none; stroke: #1f77b4; stroke-width: 1.5; stroke-linecap: square"/>
    </g>
    <g id="text_17">
     <!-- $T=750$ -->
     <g transform="translate(471.9 472.204063) scale(0.1 -0.1)">
      <defs>
       <path id="DejaVuSans-37" d="M 525 4666 
L 3525 4666 
L 3525 4397 
L 1831 0 
L 1172 0 
L 2766 4134 
L 525 4134 
L 525 4666 
z
" transform="scale(0.015625)"/>
      </defs>
      <use xlink:href="#DejaVuSans-Oblique-54" transform="translate(0 0.78125)"/>
      <use xlink:href="#DejaVuSans-3d" transform="translate(80.566406 0.78125)"/>
      <use xlink:href="#DejaVuSans-37" transform="translate(183.837891 0.78125)"/>
      <use xlink:href="#DejaVuSans-35" transform="translate(247.460938 0.78125)"/>
      <use xlink:href="#DejaVuSans-30" transform="translate(311.083984 0.78125)"/>
     </g>
    </g>
    <g id="line2d_17">
     <path d="M 443.9 483.382187 
L 453.9 483.382187 
L 463.9 483.382187 
" style="fill: none; stroke: #ff7f0e; stroke-width: 1.5; stroke-linecap: square"/>
    </g>
    <g id="text_18">
     <!-- $T=800$ -->
     <g transform="translate(471.9 486.882187) scale(0.1 -0.1)">
      <use xlink:href="#DejaVuSans-Oblique-54" transform="translate(0 0.78125)"/>
      <use xlink:href="#DejaVuSans-3d" transform="translate(80.566406 0.78125)"/>
      <use xlink:href="#DejaVuSans-38" transform="translate(183.837891 0.78125)"/>
      <use xlink:href="#DejaVuSans-30" transform="translate(247.460938 0.78125)"/>
      <use xlink:href="#DejaVuSans-30" transform="translate(311.083984 0.78125)"/>
     </g>
    </g>
    <g id="line2d_18">
     <path d="M 443.9 498.060313 
L 453.9 498.060313 
L 463.9 498.060313 
" style="fill: none; stroke: #2ca02c; stroke-width: 1.5; stroke-linecap: square"/>
    </g>
    <g id="text_19">
     <!-- $T=850$ -->
     <g transform="translate(471.9 501.560313) scale(0.1 -0.1)">
      <use xlink:href="#DejaVuSans-Oblique-54" transform="translate(0 0.78125)"/>
      <use xlink:href="#DejaVuSans-3d" transform="translate(80.566406 0.78125)"/>
      <use xlink:href="#DejaVuSans-38" transform="translate(183.837891 0.78125)"/>
      <use xlink:href="#DejaVuSans-35" transform="translate(247.460938 0.78125)"/>
      <use xlink:href="#DejaVuSans-30" transform="translate(311.083984 0.78125)"/>
     </g>
    </g>
   </g>
  </g>
 </g>
 <defs>
  <clipPath id="p7bf8651ac5">
   <rect x="72" y="69.12" width="446.4" height="443.52"/>
  </clipPath>
 </defs>
</svg>
